<svg width="685" height="696" viewBox="0 0 685 696" fill="none" xmlns="http://www.w3.org/2000/svg">
<rect width="685" height="696" rx="108" transform="matrix(1 0 0 -1 0 696)" fill="#FFDAD2"/>
<rect width="685" height="696" rx="108" transform="matrix(1 0 0 -1 0 696)" fill="#FFDAD2"/>
<path fill-rule="evenodd" clip-rule="evenodd" d="M75.5 57C55.3416 57 39 73.3416 39 93.5C39 97.949 39.796 102.212 41.2533 106.155L4 130L75.3896 130C75.4264 130 75.4632 130 75.5 130H618.5C638.658 130 655 113.658 655 93.5C655 73.3416 638.658 57 618.5 57H75.5Z" fill="#F9A996"/>
<path d="M59.484 75.86H69.96V77.066H59.484V75.86ZM57.9 86.786H72.606V88.028H57.9V86.786ZM69.168 75.86H70.626V77.48C70.626 79.568 70.626 81.89 70.014 85.4L68.52 85.256C69.168 81.926 69.168 79.496 69.168 77.48V75.86ZM86.2846 74.132H87.7966V83.78H86.2846V74.132ZM75.2866 81.782H76.6006C79.5526 81.782 81.7306 81.692 84.3406 81.278L84.5026 82.484C81.8206 82.934 79.6246 83.024 76.6006 83.024H75.2866V81.782ZM75.2506 75.104H82.6306V79.55H76.7446V82.52H75.2866V78.398H81.1726V76.328H75.2506V75.104ZM77.2846 84.68H87.7966V90.188H77.2846V84.68ZM86.3206 85.868H78.7426V88.982H86.3206V85.868ZM97.6052 80.45H100.683V81.692H97.6052V80.45ZM103.401 74.132H104.841V90.404H103.401V74.132ZM100.179 74.474H101.601V89.594H100.179V74.474ZM94.6712 75.482C96.7772 75.482 98.1452 77.66 98.1452 81.152C98.1452 84.644 96.7772 86.822 94.6712 86.822C92.5652 86.822 91.2152 84.644 91.2152 81.152C91.2152 77.66 92.5652 75.482 94.6712 75.482ZM94.6712 76.868C93.3932 76.868 92.5832 78.524 92.5832 81.152C92.5832 83.78 93.3932 85.436 94.6712 85.436C95.9672 85.436 96.7772 83.78 96.7772 81.152C96.7772 78.524 95.9672 76.868 94.6712 76.868ZM115.694 79.64H120.23V80.864H115.694V79.64ZM111.77 75.536H112.994V78.434C112.994 82.088 111.068 85.58 108.494 86.966L107.54 85.778C109.934 84.59 111.77 81.458 111.77 78.434V75.536ZM112.058 75.536H113.264V78.434C113.264 81.404 115.1 84.356 117.458 85.472L116.576 86.678C113.948 85.346 112.058 81.998 112.058 78.434V75.536ZM119.492 74.114H120.968V90.422H119.492V74.114ZM133.535 75.374C135.893 75.374 137.585 77.588 137.585 81.044C137.585 84.518 135.893 86.732 133.535 86.732C131.159 86.732 129.485 84.518 129.485 81.044C129.485 77.588 131.159 75.374 133.535 75.374ZM133.535 76.724C131.969 76.724 130.907 78.416 130.907 81.044C130.907 83.69 131.969 85.418 133.535 85.418C135.101 85.418 136.163 83.69 136.163 81.044C136.163 78.416 135.101 76.724 133.535 76.724ZM141.113 74.114H142.589V90.422H141.113V74.114ZM137.099 80.324H141.761V81.548H137.099V80.324ZM148.437 88.82H159.705V90.044H148.437V88.82ZM148.437 85.004H149.949V89.504H148.437V85.004ZM157.815 74.15H159.309V85.994H157.815V74.15ZM154.899 78.596H159.021V79.82H154.899V78.596ZM146.169 82.142H146.889C147.861 82.142 149.085 82.106 150.471 81.8L150.615 83.024C149.121 83.348 147.933 83.366 146.889 83.366H146.169V82.142ZM146.169 75.482H150.291V76.706H147.645V82.502H146.169V75.482ZM151.173 82.142H151.983C153.711 82.142 154.881 82.106 156.267 81.782L156.411 83.006C154.953 83.312 153.765 83.366 151.983 83.366H151.173V82.142ZM151.173 75.482H155.655V76.706H152.631V82.466H151.173V75.482ZM167.359 82.052H182.065V83.276H167.359V82.052ZM168.727 74.744H180.679V75.95H168.727V74.744ZM168.799 79.334H180.607V80.558H168.799V79.334ZM171.193 75.266H172.687V80.162H171.193V75.266ZM176.737 75.266H178.213V80.162H176.737V75.266ZM174.703 84.806C178.195 84.806 180.265 85.796 180.265 87.596C180.265 89.378 178.195 90.368 174.703 90.368C171.211 90.368 169.141 89.378 169.141 87.596C169.141 85.796 171.211 84.806 174.703 84.806ZM174.703 85.958C172.147 85.958 170.653 86.552 170.653 87.596C170.653 88.64 172.147 89.234 174.703 89.234C177.259 89.234 178.753 88.64 178.753 87.596C178.753 86.552 177.259 85.958 174.703 85.958ZM173.983 82.61H175.459V85.274H173.983V82.61ZM191.711 77.12H196.067V78.344H191.711V77.12ZM191.567 80.504H195.959V81.728H191.567V80.504ZM195.815 74.132H197.309V83.888H195.815V74.132ZM190.721 75.356H192.323C192.323 79.55 189.425 82.484 184.745 83.888L184.133 82.682C188.291 81.476 190.721 79.082 190.721 76.004V75.356ZM184.979 75.356H191.747V76.58H184.979V75.356ZM192.017 84.068C195.311 84.068 197.399 85.238 197.399 87.2C197.399 89.162 195.311 90.332 192.017 90.332C188.723 90.332 186.635 89.162 186.635 87.2C186.635 85.238 188.723 84.068 192.017 84.068ZM192.017 85.238C189.641 85.238 188.111 85.976 188.111 87.2C188.111 88.424 189.641 89.144 192.017 89.144C194.411 89.144 195.941 88.424 195.941 87.2C195.941 85.976 194.411 85.238 192.017 85.238ZM212.302 74.114H213.796V90.422H212.302V74.114ZM205.21 75.374C207.622 75.374 209.35 77.588 209.35 81.044C209.35 84.518 207.622 86.732 205.21 86.732C202.816 86.732 201.088 84.518 201.088 81.044C201.088 77.588 202.816 75.374 205.21 75.374ZM205.21 76.724C203.626 76.724 202.51 78.416 202.51 81.044C202.51 83.69 203.626 85.418 205.21 85.418C206.812 85.418 207.91 83.69 207.91 81.044C207.91 78.416 206.812 76.724 205.21 76.724ZM229.148 80.612H232.154V81.872H229.148V80.612ZM228.05 74.114H229.562V90.404H228.05V74.114ZM217.682 75.716H219.176V85.796H217.682V75.716ZM217.682 85.022H218.978C221.39 85.022 223.856 84.86 226.538 84.302L226.718 85.544C223.946 86.12 221.444 86.282 218.978 86.282H217.682V85.022ZM242.651 75.536H243.875V78.452C243.875 82.052 241.931 85.562 239.357 86.93L238.439 85.742C240.797 84.554 242.651 81.422 242.651 78.452V75.536ZM242.921 75.536H244.127V78.452C244.127 81.314 245.945 84.284 248.249 85.436L247.331 86.624C244.811 85.274 242.921 81.944 242.921 78.452V75.536ZM249.671 74.132H251.183V90.404H249.671V74.132ZM250.823 80.72H253.847V81.98H250.823V80.72ZM261.82 81.818H263.296V84.32H261.82V81.818ZM255.214 80.99H269.92V82.196H255.214V80.99ZM257.122 74.672H268.012V79.622H257.122V74.672ZM266.554 75.86H258.598V78.434H266.554V75.86ZM256.996 83.78H268.048V87.434H258.508V89.414H257.032V86.354H266.572V84.932H256.996V83.78ZM257.032 89.054H268.534V90.224H257.032V89.054ZM283.599 74.114H285.093V90.422H283.599V74.114ZM276.507 75.374C278.919 75.374 280.647 77.588 280.647 81.044C280.647 84.518 278.919 86.732 276.507 86.732C274.113 86.732 272.385 84.518 272.385 81.044C272.385 77.588 274.113 75.374 276.507 75.374ZM276.507 76.724C274.923 76.724 273.807 78.416 273.807 81.044C273.807 83.69 274.923 85.418 276.507 85.418C278.109 85.418 279.207 83.69 279.207 81.044C279.207 78.416 278.109 76.724 276.507 76.724ZM293.412 87.092H308.154V88.334H293.412V87.092ZM300 83.204H301.494V87.452H300V83.204ZM295.14 75.284H296.616V78.182H304.914V75.284H306.39V83.6H295.14V75.284ZM296.616 79.388V82.376H304.914V79.388H296.616ZM321.778 74.114H323.272V90.422H321.778V74.114ZM314.686 75.374C317.098 75.374 318.826 77.588 318.826 81.044C318.826 84.518 317.098 86.732 314.686 86.732C312.292 86.732 310.564 84.518 310.564 81.044C310.564 77.588 312.292 75.374 314.686 75.374ZM314.686 76.724C313.102 76.724 311.986 78.416 311.986 81.044C311.986 83.69 313.102 85.418 314.686 85.418C316.288 85.418 317.386 83.69 317.386 81.044C317.386 78.416 316.288 76.724 314.686 76.724ZM338.625 80.612H341.631V81.872H338.625V80.612ZM337.527 74.114H339.039V90.404H337.527V74.114ZM327.159 75.716H328.653V85.796H327.159V75.716ZM327.159 85.022H328.455C330.867 85.022 333.333 84.86 336.015 84.302L336.195 85.544C333.423 86.12 330.921 86.282 328.455 86.282H327.159V85.022ZM346.688 82.502H348.164V87.38H346.688V82.502ZM352.7 82.502H354.194V87.38H352.7V82.502ZM343.088 87.092H357.83V88.334H343.088V87.092ZM350.432 75.158C353.87 75.158 356.336 76.796 356.336 79.352C356.336 81.89 353.87 83.528 350.432 83.528C346.976 83.528 344.51 81.89 344.51 79.352C344.51 76.796 346.976 75.158 350.432 75.158ZM350.432 76.346C347.822 76.346 345.95 77.534 345.95 79.352C345.95 81.152 347.822 82.34 350.432 82.34C353.042 82.34 354.896 81.152 354.896 79.352C354.896 77.534 353.042 76.346 350.432 76.346ZM362.096 85.3182V85.2415C362.104 84.4276 362.189 83.7798 362.351 83.2983C362.513 82.8168 362.743 82.4268 363.042 82.1286C363.34 81.8303 363.698 81.5554 364.115 81.304C364.367 81.1506 364.593 80.9695 364.793 80.7607C364.993 80.5476 365.151 80.3026 365.266 80.0256C365.385 79.7486 365.445 79.4418 365.445 79.1051C365.445 78.6875 365.347 78.3253 365.151 78.0185C364.955 77.7116 364.693 77.4751 364.365 77.3089C364.037 77.1428 363.672 77.0597 363.272 77.0597C362.922 77.0597 362.586 77.1321 362.262 77.277C361.938 77.4219 361.667 77.6499 361.45 77.9609C361.233 78.272 361.107 78.679 361.073 79.1818H359.462C359.496 78.4574 359.684 77.8374 360.025 77.3217C360.37 76.8061 360.824 76.4119 361.386 76.1392C361.953 75.8665 362.581 75.7301 363.272 75.7301C364.022 75.7301 364.674 75.8793 365.228 76.1776C365.786 76.4759 366.216 76.8849 366.519 77.4048C366.826 77.9247 366.979 78.517 366.979 79.1818C366.979 79.6506 366.907 80.0746 366.762 80.4538C366.621 80.8331 366.417 81.1719 366.148 81.4702C365.884 81.7685 365.564 82.0327 365.189 82.2628C364.814 82.4972 364.514 82.7443 364.288 83.0043C364.062 83.2599 363.898 83.5646 363.796 83.9183C363.694 84.272 363.638 84.7131 363.63 85.2415V85.3182H362.096ZM362.914 89.1023C362.598 89.1023 362.328 88.9893 362.102 88.7635C361.876 88.5376 361.763 88.267 361.763 87.9517C361.763 87.6364 361.876 87.3658 362.102 87.1399C362.328 86.9141 362.598 86.8011 362.914 86.8011C363.229 86.8011 363.5 86.9141 363.725 87.1399C363.951 87.3658 364.064 87.6364 364.064 87.9517C364.064 88.1605 364.011 88.3523 363.904 88.527C363.802 88.7017 363.664 88.8423 363.489 88.9489C363.319 89.0511 363.127 89.1023 362.914 89.1023ZM58.9176 105.477C58.9176 103.866 59.1264 102.386 59.544 101.035C59.9659 99.6797 60.5668 98.4332 61.3466 97.2955H62.6761C62.3693 97.7173 62.0817 98.2372 61.8132 98.8551C61.549 99.4687 61.3168 100.144 61.1165 100.881C60.9162 101.614 60.7585 102.373 60.6435 103.157C60.5327 103.941 60.4773 104.714 60.4773 105.477C60.4773 106.491 60.5753 107.521 60.7713 108.565C60.9673 109.609 61.2315 110.578 61.5639 111.473C61.8963 112.368 62.267 113.097 62.6761 113.659H61.3466C60.5668 112.521 59.9659 111.277 59.544 109.926C59.1264 108.571 58.9176 107.088 58.9176 105.477ZM75.5455 96.132H77.0395V104.34H75.5455V96.132ZM76.6255 99.498H79.4515V100.74H76.6255V99.498ZM65.1955 96.834H66.6895V103.08H65.1955V96.834ZM65.1955 102.288H66.4735C68.7955 102.288 71.2255 102.126 73.8715 101.586L74.0515 102.828C71.3155 103.386 68.8855 103.548 66.4735 103.548H65.1955V102.288ZM66.7075 105.114H77.0395V109.128H68.2195V111.594H66.7435V107.976H75.5635V106.32H66.7075V105.114ZM66.7435 110.982H77.6335V112.188H66.7435V110.982ZM93.0041 96.132H94.5161V112.404H93.0041V96.132ZM83.2841 97.572H84.4001V101.226C84.4001 103.818 83.7701 107.112 81.7181 108.678L80.7461 107.616C82.7261 106.158 83.2841 103.314 83.2841 101.226V97.572ZM83.6081 97.572H84.7061V101.226C84.7061 103.188 85.1201 106.176 87.1181 107.724L86.2901 108.858C84.0941 107.22 83.6081 103.674 83.6081 101.226V97.572ZM87.8921 97.572H88.9901V101.226C88.9901 103.782 88.4861 107.256 86.2901 108.858L85.4621 107.724C87.4601 106.23 87.8921 103.296 87.8921 101.226V97.572ZM88.1981 97.572H89.3141V101.226C89.3141 103.386 89.8721 106.194 91.8521 107.616L90.9341 108.714C88.8101 107.166 88.1981 103.908 88.1981 101.226V97.572ZM101.643 104.34H103.137V108.228H101.643V104.34ZM102.381 97.176C104.883 97.176 106.683 98.742 106.683 101.01C106.683 103.278 104.883 104.844 102.381 104.844C99.8787 104.844 98.0787 103.278 98.0787 101.01C98.0787 98.742 99.8787 97.176 102.381 97.176ZM102.381 98.454C100.725 98.454 99.5367 99.498 99.5367 101.01C99.5367 102.522 100.725 103.566 102.381 103.566C104.037 103.566 105.225 102.522 105.225 101.01C105.225 99.498 104.037 98.454 102.381 98.454ZM108.537 96.132H110.031V112.404H108.537V96.132ZM109.599 102.828H112.605V104.088H109.599V102.828ZM97.5567 108.894L97.3407 107.652C100.275 107.634 104.199 107.616 107.511 107.166L107.637 108.282C104.199 108.858 100.401 108.894 97.5567 108.894ZM125.46 100.65H129.078V101.856H125.46V100.65ZM125.334 104.736H129.042V105.942H125.334V104.736ZM131.544 96.132H132.984V112.404H131.544V96.132ZM128.286 96.546H129.69V111.576H128.286V96.546ZM124.65 98.184H126.09C126.09 102.45 124.38 106.284 120.006 108.894L119.142 107.832C122.94 105.528 124.65 102.288 124.65 98.454V98.184ZM119.862 98.184H125.244V99.408H119.862V98.184ZM144.394 99.75H148.588V100.974H144.394V99.75ZM139.822 97.518H141.046V98.598C141.046 101.334 139.21 103.8 136.492 104.718L135.772 103.548C138.148 102.738 139.822 100.686 139.822 98.598V97.518ZM140.11 97.518H141.334V98.616C141.334 100.56 142.918 102.432 145.258 103.17L144.538 104.34C141.874 103.476 140.11 101.208 140.11 98.616V97.518ZM136.222 96.96H144.916V98.184H136.222V96.96ZM147.598 96.132H149.092V104.52H147.598V96.132ZM138.616 105.348H149.092V109.254H140.11V111.774H138.652V108.138H147.616V106.536H138.616V105.348ZM138.652 111.036H149.686V112.224H138.652V111.036ZM152.259 104.682H166.965V105.906H152.259V104.682ZM154.167 110.82H165.345V112.044H154.167V110.82ZM154.167 107.328H155.661V111.198H154.167V107.328ZM159.621 96.672C163.095 96.672 165.345 97.896 165.345 99.93C165.345 101.946 163.095 103.17 159.621 103.17C156.129 103.17 153.897 101.946 153.897 99.93C153.897 97.896 156.129 96.672 159.621 96.672ZM159.621 97.896C157.065 97.896 155.427 98.652 155.427 99.93C155.427 101.208 157.065 101.964 159.621 101.964C162.177 101.964 163.815 101.208 163.815 99.93C163.815 98.652 162.177 97.896 159.621 97.896ZM178.236 97.374C180.594 97.374 182.286 99.588 182.286 103.044C182.286 106.518 180.594 108.732 178.236 108.732C175.86 108.732 174.186 106.518 174.186 103.044C174.186 99.588 175.86 97.374 178.236 97.374ZM178.236 98.724C176.67 98.724 175.608 100.416 175.608 103.044C175.608 105.69 176.67 107.418 178.236 107.418C179.802 107.418 180.864 105.69 180.864 103.044C180.864 100.416 179.802 98.724 178.236 98.724ZM185.814 96.114H187.29V112.422H185.814V96.114ZM181.8 102.324H186.462V103.548H181.8V102.324ZM193.139 110.82H204.407V112.044H193.139V110.82ZM193.139 107.004H194.651V111.504H193.139V107.004ZM202.517 96.15H204.011V107.994H202.517V96.15ZM199.601 100.596H203.723V101.82H199.601V100.596ZM190.871 104.142H191.591C192.563 104.142 193.787 104.106 195.173 103.8L195.317 105.024C193.823 105.348 192.635 105.366 191.591 105.366H190.871V104.142ZM190.871 97.482H194.993V98.706H192.347V104.502H190.871V97.482ZM195.875 104.142H196.685C198.413 104.142 199.583 104.106 200.969 103.782L201.113 105.006C199.655 105.312 198.467 105.366 196.685 105.366H195.875V104.142ZM195.875 97.482H200.357V98.706H197.333V104.466H195.875V97.482ZM211.317 98.454H212.523V101.1C212.523 104.538 210.453 107.994 207.861 109.272L206.997 108.084C209.355 106.968 211.317 103.908 211.317 101.1V98.454ZM211.605 98.454H212.811V101.1C212.811 103.854 214.773 106.662 217.167 107.688L216.321 108.876C213.693 107.652 211.605 104.484 211.605 101.1V98.454ZM207.537 97.788H216.627V99.048H207.537V97.788ZM218.823 96.132H220.317V112.404H218.823V96.132ZM226.305 109.21L226.202 109.901C226.13 110.386 226.019 110.906 225.87 111.46C225.725 112.014 225.574 112.536 225.416 113.026C225.258 113.516 225.128 113.906 225.026 114.196H223.876C223.931 113.923 224.003 113.563 224.093 113.116C224.182 112.668 224.272 112.168 224.361 111.614C224.455 111.064 224.532 110.501 224.591 109.926L224.668 109.21H226.305ZM237.659 97.536H238.883V100.452C238.883 104.052 236.939 107.562 234.365 108.93L233.447 107.742C235.805 106.554 237.659 103.422 237.659 100.452V97.536ZM237.929 97.536H239.135V100.452C239.135 103.314 240.953 106.284 243.257 107.436L242.339 108.624C239.819 107.274 237.929 103.944 237.929 100.452V97.536ZM244.679 96.132H246.191V112.404H244.679V96.132ZM245.831 102.72H248.855V103.98H245.831V102.72ZM256.828 103.818H258.304V106.32H256.828V103.818ZM250.222 102.99H264.928V104.196H250.222V102.99ZM252.13 96.672H263.02V101.622H252.13V96.672ZM261.562 97.86H253.606V100.434H261.562V97.86ZM252.004 105.78H263.056V109.434H253.516V111.414H252.04V108.354H261.58V106.932H252.004V105.78ZM252.04 111.054H263.542V112.224H252.04V111.054ZM267.518 97.914H274.88V99.12H267.518V97.914ZM270.056 102.558H271.532V108.066H270.056V102.558ZM274.268 97.914H275.726V98.778C275.726 100.11 275.726 102.234 275.258 105.258L273.782 105.114C274.268 102.18 274.268 100.092 274.268 98.778V97.914ZM277.778 96.132H279.254V112.404H277.778V96.132ZM278.858 102.936H281.864V104.196H278.858V102.936ZM266.798 108.858L266.618 107.598C269.57 107.598 273.494 107.544 276.788 107.13L276.86 108.228C273.494 108.768 269.678 108.84 266.798 108.858ZM292.398 97.536H293.622V100.452C293.622 104.052 291.678 107.562 289.104 108.93L288.186 107.742C290.544 106.554 292.398 103.422 292.398 100.452V97.536ZM292.668 97.536H293.874V100.452C293.874 103.314 295.692 106.284 297.996 107.436L297.078 108.624C294.558 107.274 292.668 103.944 292.668 100.452V97.536ZM299.418 96.132H300.93V112.404H299.418V96.132ZM300.57 102.72H303.594V103.98H300.57V102.72ZM316.102 96.15H317.596V105.834H316.102V96.15ZM317.146 100.29H320.008V101.55H317.146V100.29ZM307.336 106.644H317.596V112.188H307.336V106.644ZM316.138 107.832H308.812V110.982H316.138V107.832ZM305.68 103.764H306.958C309.91 103.764 312.016 103.692 314.554 103.242L314.68 104.466C312.106 104.898 309.964 105.006 306.958 105.006H305.68V103.764ZM305.644 97.014H312.97V101.478H307.138V104.466H305.68V100.326H311.494V98.238H305.644V97.014ZM326.811 97.302C329.349 97.302 331.167 98.868 331.167 101.136C331.167 103.422 329.349 104.988 326.811 104.988C324.273 104.988 322.437 103.422 322.437 101.136C322.437 98.868 324.273 97.302 326.811 97.302ZM326.811 98.598C325.119 98.598 323.895 99.624 323.895 101.136C323.895 102.648 325.119 103.692 326.811 103.692C328.485 103.692 329.709 102.648 329.709 101.136C329.709 99.624 328.485 98.598 326.811 98.598ZM333.291 96.114H334.785V112.422H333.291V96.114ZM321.825 108.858L321.609 107.616C324.579 107.616 328.683 107.598 332.229 107.04L332.355 108.138C328.701 108.84 324.723 108.858 321.825 108.858ZM343.14 104.718H357.846V105.942H343.14V104.718ZM344.778 107.49H355.956V112.404H354.462V108.714H344.778V107.49ZM345.084 102.036H356.118V103.206H345.084V102.036ZM345.084 96.564H356.046V97.734H346.56V102.576H345.084V96.564ZM346.128 99.264H355.614V100.398H346.128V99.264ZM371.542 96.15H373.054V105.942H371.542V96.15ZM367.636 106.338C371.02 106.338 373.108 107.472 373.108 109.398C373.108 111.342 371.02 112.476 367.636 112.476C364.252 112.476 362.182 111.342 362.182 109.398C362.182 107.472 364.252 106.338 367.636 106.338ZM367.636 107.526C365.17 107.526 363.676 108.21 363.676 109.398C363.676 110.586 365.17 111.288 367.636 111.288C370.12 111.288 371.614 110.586 371.614 109.398C371.614 108.21 370.12 107.526 367.636 107.526ZM364.036 97.788H365.278V99.084C365.278 102.09 363.442 104.61 360.724 105.6L359.95 104.43C362.398 103.566 364.036 101.424 364.036 99.084V97.788ZM364.324 97.788H365.566V99.084C365.566 101.262 367.258 103.224 369.67 103.998L368.914 105.186C366.214 104.268 364.324 101.91 364.324 99.084V97.788ZM360.328 97.41H369.238V98.616H360.328V97.41ZM383.619 96.402C387.201 96.402 389.343 97.41 389.343 99.228C389.343 101.046 387.201 102.054 383.619 102.054C380.019 102.054 377.895 101.046 377.895 99.228C377.895 97.41 380.019 96.402 383.619 96.402ZM383.619 97.536C380.955 97.536 379.425 98.148 379.425 99.228C379.425 100.308 380.955 100.92 383.619 100.92C386.265 100.92 387.795 100.308 387.795 99.228C387.795 98.148 386.265 97.536 383.619 97.536ZM376.257 103.134H390.963V104.34H376.257V103.134ZM378.039 105.726H389.091V109.398H379.551V111.378H378.075V108.318H387.615V106.878H378.039V105.726ZM378.075 111.054H389.577V112.224H378.075V111.054ZM409.02 96.132H410.514V104.412H409.02V96.132ZM409.866 99.624H412.908V100.866H409.866V99.624ZM400.182 105.186H410.514V109.182H401.694V111.612H400.218V108.048H409.056V106.374H400.182V105.186ZM400.218 110.982H411.108V112.188H400.218V110.982ZM402.378 96.708C404.826 96.708 406.59 98.202 406.59 100.326C406.59 102.468 404.826 103.962 402.378 103.962C399.966 103.962 398.184 102.468 398.184 100.326C398.184 98.202 399.966 96.708 402.378 96.708ZM402.378 97.932C400.812 97.932 399.642 98.922 399.642 100.326C399.642 101.748 400.812 102.738 402.378 102.738C403.98 102.738 405.15 101.748 405.15 100.326C405.15 98.922 403.98 97.932 402.378 97.932ZM426.335 96.114H427.829V112.422H426.335V96.114ZM423.131 99.84H426.731V101.064H423.131V99.84ZM415.049 107.382H416.255C418.775 107.382 420.845 107.31 423.329 106.914L423.473 108.156C420.917 108.552 418.829 108.642 416.255 108.642H415.049V107.382ZM415.013 97.59H422.123V103.422H416.525V107.67H415.049V102.198H420.647V98.832H415.013V97.59ZM423.023 104.286H426.623V105.51H423.023V104.286ZM437.529 97.734H438.825V98.418C438.825 101.334 435.729 103.476 432.453 104.034L431.877 102.846C434.739 102.432 437.529 100.56 437.529 98.418V97.734ZM437.907 97.734H439.185V98.418C439.185 100.56 441.993 102.432 444.837 102.846L444.279 104.034C440.985 103.476 437.907 101.334 437.907 98.418V97.734ZM437.583 106.194H439.059V112.404H437.583V106.194ZM431.013 105.402H445.719V106.626H431.013V105.402ZM432.381 97.14H444.297V98.346H432.381V97.14ZM453.98 101.946H457.094V103.188H453.98V101.946ZM450.938 97.662H452.108V100.758C452.108 104.16 450.686 107.454 448.31 108.912L447.374 107.778C449.606 106.464 450.938 103.548 450.938 100.758V97.662ZM451.226 97.662H452.378V100.704C452.378 103.314 453.602 106.086 455.744 107.382L454.88 108.552C452.54 107.112 451.226 103.872 451.226 100.704V97.662ZM459.956 96.132H461.396V112.404H459.956V96.132ZM456.662 96.474H458.066V111.594H456.662V96.474ZM467.73 104.502H469.206V109.38H467.73V104.502ZM473.742 104.502H475.236V109.38H473.742V104.502ZM464.13 109.092H478.872V110.334H464.13V109.092ZM471.474 97.158C474.912 97.158 477.378 98.796 477.378 101.352C477.378 103.89 474.912 105.528 471.474 105.528C468.018 105.528 465.552 103.89 465.552 101.352C465.552 98.796 468.018 97.158 471.474 97.158ZM471.474 98.346C468.864 98.346 466.992 99.534 466.992 101.352C466.992 103.152 468.864 104.34 471.474 104.34C474.084 104.34 475.938 103.152 475.938 101.352C475.938 99.534 474.084 98.346 471.474 98.346ZM482.269 111.102C481.954 111.102 481.683 110.989 481.457 110.763C481.232 110.538 481.119 110.267 481.119 109.952C481.119 109.636 481.232 109.366 481.457 109.14C481.683 108.914 481.954 108.801 482.269 108.801C482.585 108.801 482.855 108.914 483.081 109.14C483.307 109.366 483.42 109.636 483.42 109.952C483.42 110.161 483.366 110.352 483.26 110.527C483.158 110.702 483.019 110.842 482.844 110.949C482.674 111.051 482.482 111.102 482.269 111.102ZM489.348 105.477C489.348 107.088 489.137 108.571 488.716 109.926C488.298 111.277 487.699 112.521 486.919 113.659H485.59C485.897 113.237 486.182 112.717 486.446 112.099C486.715 111.486 486.949 110.812 487.15 110.08C487.35 109.342 487.505 108.582 487.616 107.798C487.731 107.009 487.789 106.236 487.789 105.477C487.789 104.463 487.691 103.434 487.495 102.39C487.299 101.346 487.034 100.376 486.702 99.4815C486.37 98.5866 485.999 97.858 485.59 97.2955H486.919C487.699 98.4332 488.298 99.6797 488.716 101.035C489.137 102.386 489.348 103.866 489.348 105.477Z" fill="black"/>
<path fill-rule="evenodd" clip-rule="evenodd" d="M75.5 262C55.3416 262 39 278.342 39 298.5C39 302.949 39.796 307.212 41.2533 311.155L4 335L75.3896 335C75.4264 335 75.4632 335 75.5 335H618.5C638.658 335 655 318.658 655 298.5C655 278.342 638.658 262 618.5 262H75.5Z" fill="#F9A996"/>
<path d="M59.484 280.86H69.96V282.066H59.484V280.86ZM57.9 291.786H72.606V293.028H57.9V291.786ZM69.168 280.86H70.626V282.48C70.626 284.568 70.626 286.89 70.014 290.4L68.52 290.256C69.168 286.926 69.168 284.496 69.168 282.48V280.86ZM86.2846 279.132H87.7966V288.78H86.2846V279.132ZM75.2866 286.782H76.6006C79.5526 286.782 81.7306 286.692 84.3406 286.278L84.5026 287.484C81.8206 287.934 79.6246 288.024 76.6006 288.024H75.2866V286.782ZM75.2506 280.104H82.6306V284.55H76.7446V287.52H75.2866V283.398H81.1726V281.328H75.2506V280.104ZM77.2846 289.68H87.7966V295.188H77.2846V289.68ZM86.3206 290.868H78.7426V293.982H86.3206V290.868ZM97.6052 285.45H100.683V286.692H97.6052V285.45ZM103.401 279.132H104.841V295.404H103.401V279.132ZM100.179 279.474H101.601V294.594H100.179V279.474ZM94.6712 280.482C96.7772 280.482 98.1452 282.66 98.1452 286.152C98.1452 289.644 96.7772 291.822 94.6712 291.822C92.5652 291.822 91.2152 289.644 91.2152 286.152C91.2152 282.66 92.5652 280.482 94.6712 280.482ZM94.6712 281.868C93.3932 281.868 92.5832 283.524 92.5832 286.152C92.5832 288.78 93.3932 290.436 94.6712 290.436C95.9672 290.436 96.7772 288.78 96.7772 286.152C96.7772 283.524 95.9672 281.868 94.6712 281.868ZM115.694 284.64H120.23V285.864H115.694V284.64ZM111.77 280.536H112.994V283.434C112.994 287.088 111.068 290.58 108.494 291.966L107.54 290.778C109.934 289.59 111.77 286.458 111.77 283.434V280.536ZM112.058 280.536H113.264V283.434C113.264 286.404 115.1 289.356 117.458 290.472L116.576 291.678C113.948 290.346 112.058 286.998 112.058 283.434V280.536ZM119.492 279.114H120.968V295.422H119.492V279.114ZM133.535 280.374C135.893 280.374 137.585 282.588 137.585 286.044C137.585 289.518 135.893 291.732 133.535 291.732C131.159 291.732 129.485 289.518 129.485 286.044C129.485 282.588 131.159 280.374 133.535 280.374ZM133.535 281.724C131.969 281.724 130.907 283.416 130.907 286.044C130.907 288.69 131.969 290.418 133.535 290.418C135.101 290.418 136.163 288.69 136.163 286.044C136.163 283.416 135.101 281.724 133.535 281.724ZM141.113 279.114H142.589V295.422H141.113V279.114ZM137.099 285.324H141.761V286.548H137.099V285.324ZM148.437 293.82H159.705V295.044H148.437V293.82ZM148.437 290.004H149.949V294.504H148.437V290.004ZM157.815 279.15H159.309V290.994H157.815V279.15ZM154.899 283.596H159.021V284.82H154.899V283.596ZM146.169 287.142H146.889C147.861 287.142 149.085 287.106 150.471 286.8L150.615 288.024C149.121 288.348 147.933 288.366 146.889 288.366H146.169V287.142ZM146.169 280.482H150.291V281.706H147.645V287.502H146.169V280.482ZM151.173 287.142H151.983C153.711 287.142 154.881 287.106 156.267 286.782L156.411 288.006C154.953 288.312 153.765 288.366 151.983 288.366H151.173V287.142ZM151.173 280.482H155.655V281.706H152.631V287.466H151.173V280.482ZM167.359 287.718H182.101V288.942H167.359V287.718ZM174.091 288.33H175.585V292.074H174.091V288.33ZM169.231 293.82H180.463V295.044H169.231V293.82ZM169.231 290.634H170.707V294.288H169.231V290.634ZM169.321 279.636H170.797V281.706H178.663V279.636H180.157V286.152H169.321V279.636ZM170.797 282.876V284.946H178.663V282.876H170.797ZM189.245 279.888C191.675 279.888 193.403 281.238 193.403 283.236C193.403 285.216 191.675 286.602 189.245 286.602C186.833 286.602 185.105 285.216 185.105 283.236C185.105 281.238 186.833 279.888 189.245 279.888ZM189.245 281.13C187.661 281.13 186.527 281.994 186.527 283.236C186.527 284.496 187.661 285.342 189.245 285.342C190.829 285.342 191.963 284.496 191.963 283.236C191.963 281.994 190.829 281.13 189.245 281.13ZM188.579 288.402H190.073V294.9H188.579V288.402ZM195.779 279.132H197.255V295.422H195.779V279.132ZM184.097 289.212L183.899 287.952C186.923 287.952 191.045 287.916 194.627 287.376L194.735 288.492C191.063 289.158 187.067 289.212 184.097 289.212ZM212.338 279.132H213.832V295.404H212.338V279.132ZM207.568 280.878H209.044C209.044 285.594 206.92 289.716 201.484 292.38L200.692 291.174C205.39 288.906 207.568 285.45 207.568 281.13V280.878ZM201.43 280.878H208.216V282.102H201.43V280.878ZM228.05 279.114H229.562V295.404H228.05V279.114ZM229.148 285.72H232.154V286.962H229.148V285.72ZM223.892 280.878H225.35C225.35 285.504 223.226 289.68 217.97 292.326L217.142 291.174C221.642 288.888 223.892 285.414 223.892 281.112V280.878ZM217.898 280.878H224.666V282.102H217.898V280.878ZM240.473 286.476H251.741V287.718H240.473V286.476ZM238.673 291.93H253.415V293.172H238.673V291.93ZM240.473 280.554H241.967V287.034H240.473V280.554ZM267.058 279.132H268.552V295.404H267.058V279.132ZM263.872 283.524H267.688V284.748H263.872V283.524ZM262.846 287.862H267.526V289.086H262.846V287.862ZM258.67 280.896H260.056C260.056 284.766 259.156 288.582 256.24 291.696L255.07 290.832C257.698 288.078 258.67 284.712 258.67 281.04V280.896ZM255.628 280.896H259.246V282.12H255.628V280.896ZM263.044 280.896H264.43C264.43 284.766 263.836 289.284 260.884 292.794L259.66 291.984C262.36 288.798 263.044 284.766 263.044 281.022V280.896ZM260.56 280.896H263.674V282.12H260.56V280.896ZM267.058 279.132H268.552V295.404H267.058V279.132ZM276.093 281.454H277.299V284.1C277.299 287.538 275.229 290.994 272.637 292.272L271.773 291.084C274.131 289.968 276.093 286.908 276.093 284.1V281.454ZM276.381 281.454H277.587V284.1C277.587 286.854 279.549 289.662 281.943 290.688L281.097 291.876C278.469 290.652 276.381 287.484 276.381 284.1V281.454ZM272.313 280.788H281.403V282.048H272.313V280.788ZM283.599 279.132H285.093V295.404H283.599V279.132ZM300.445 285.612H303.451V286.872H300.445V285.612ZM299.347 279.114H300.859V295.404H299.347V279.114ZM288.979 280.716H290.473V290.796H288.979V280.716ZM288.979 290.022H290.275C292.687 290.022 295.153 289.86 297.835 289.302L298.015 290.544C295.243 291.12 292.741 291.282 290.275 291.282H288.979V290.022ZM308.508 287.502H309.984V292.38H308.508V287.502ZM314.52 287.502H316.014V292.38H314.52V287.502ZM304.908 292.092H319.65V293.334H304.908V292.092ZM312.252 280.158C315.69 280.158 318.156 281.796 318.156 284.352C318.156 286.89 315.69 288.528 312.252 288.528C308.796 288.528 306.33 286.89 306.33 284.352C306.33 281.796 308.796 280.158 312.252 280.158ZM312.252 281.346C309.642 281.346 307.77 282.534 307.77 284.352C307.77 286.152 309.642 287.34 312.252 287.34C314.862 287.34 316.716 286.152 316.716 284.352C316.716 282.534 314.862 281.346 312.252 281.346ZM323.916 290.318V290.241C323.924 289.428 324.01 288.78 324.172 288.298C324.333 287.817 324.564 287.427 324.862 287.129C325.16 286.83 325.518 286.555 325.936 286.304C326.187 286.151 326.413 285.969 326.613 285.761C326.814 285.548 326.971 285.303 327.086 285.026C327.206 284.749 327.265 284.442 327.265 284.105C327.265 283.687 327.167 283.325 326.971 283.018C326.775 282.712 326.513 282.475 326.185 282.309C325.857 282.143 325.493 282.06 325.092 282.06C324.743 282.06 324.406 282.132 324.082 282.277C323.758 282.422 323.488 282.65 323.27 282.961C323.053 283.272 322.927 283.679 322.893 284.182H321.282C321.316 283.457 321.504 282.837 321.845 282.322C322.19 281.806 322.644 281.412 323.206 281.139C323.773 280.866 324.402 280.73 325.092 280.73C325.842 280.73 326.494 280.879 327.048 281.178C327.606 281.476 328.037 281.885 328.339 282.405C328.646 282.925 328.799 283.517 328.799 284.182C328.799 284.651 328.727 285.075 328.582 285.454C328.441 285.833 328.237 286.172 327.968 286.47C327.704 286.768 327.385 287.033 327.01 287.263C326.635 287.497 326.334 287.744 326.108 288.004C325.882 288.26 325.718 288.565 325.616 288.918C325.514 289.272 325.458 289.713 325.45 290.241V290.318H323.916ZM324.734 294.102C324.419 294.102 324.148 293.989 323.922 293.763C323.696 293.538 323.583 293.267 323.583 292.952C323.583 292.636 323.696 292.366 323.922 292.14C324.148 291.914 324.419 291.801 324.734 291.801C325.049 291.801 325.32 291.914 325.546 292.14C325.772 292.366 325.885 292.636 325.885 292.952C325.885 293.161 325.831 293.352 325.725 293.527C325.623 293.702 325.484 293.842 325.309 293.949C325.139 294.051 324.947 294.102 324.734 294.102ZM58.9176 310.477C58.9176 308.866 59.1264 307.386 59.544 306.035C59.9659 304.68 60.5668 303.433 61.3466 302.295H62.6761C62.3693 302.717 62.0817 303.237 61.8132 303.855C61.549 304.469 61.3168 305.144 61.1165 305.881C60.9162 306.614 60.7585 307.373 60.6435 308.157C60.5327 308.941 60.4773 309.714 60.4773 310.477C60.4773 311.491 60.5753 312.521 60.7713 313.565C60.9673 314.609 61.2315 315.578 61.5639 316.473C61.8963 317.368 62.267 318.097 62.6761 318.659H61.3466C60.5668 317.521 59.9659 316.277 59.544 314.926C59.1264 313.571 58.9176 312.088 58.9176 310.477ZM66.0055 302.86H76.4815V304.066H66.0055V302.86ZM64.4215 313.786H79.1275V315.028H64.4215V313.786ZM75.6895 302.86H77.1475V304.48C77.1475 306.568 77.1475 308.89 76.5355 312.4L75.0415 312.256C75.6895 308.926 75.6895 306.496 75.6895 304.48V302.86ZM92.8061 301.132H94.3181V310.78H92.8061V301.132ZM81.8081 308.782H83.1221C86.0741 308.782 88.2521 308.692 90.8621 308.278L91.0241 309.484C88.3421 309.934 86.1461 310.024 83.1221 310.024H81.8081V308.782ZM81.7721 302.104H89.1521V306.55H83.2661V309.52H81.8081V305.398H87.6941V303.328H81.7721V302.104ZM83.8061 311.68H94.3181V317.188H83.8061V311.68ZM92.8421 312.868H85.2641V315.982H92.8421V312.868ZM104.883 301.402C108.465 301.402 110.607 302.41 110.607 304.228C110.607 306.046 108.465 307.054 104.883 307.054C101.283 307.054 99.1587 306.046 99.1587 304.228C99.1587 302.41 101.283 301.402 104.883 301.402ZM104.883 302.536C102.219 302.536 100.689 303.148 100.689 304.228C100.689 305.308 102.219 305.92 104.883 305.92C107.529 305.92 109.059 305.308 109.059 304.228C109.059 303.148 107.529 302.536 104.883 302.536ZM97.5207 308.134H112.227V309.34H97.5207V308.134ZM99.3027 310.726H110.355V314.398H100.815V316.378H99.3387V313.318H108.879V311.878H99.3027V310.726ZM99.3387 316.054H110.841V317.224H99.3387V316.054ZM119.16 314.092H133.902V315.334H119.16V314.092ZM125.748 310.204H127.242V314.452H125.748V310.204ZM120.888 302.284H122.364V305.182H130.662V302.284H132.138V310.6H120.888V302.284ZM122.364 306.388V309.376H130.662V306.388H122.364ZM140.254 302.086C142.702 302.086 144.502 303.652 144.502 305.92C144.502 308.188 142.702 309.754 140.254 309.754C137.806 309.754 136.006 308.188 136.006 305.92C136.006 303.652 137.806 302.086 140.254 302.086ZM140.254 303.346C138.634 303.346 137.464 304.39 137.464 305.92C137.464 307.45 138.634 308.494 140.254 308.494C141.874 308.494 143.044 307.45 143.044 305.92C143.044 304.39 141.874 303.346 140.254 303.346ZM146.842 301.132H148.336V310.402H146.842V301.132ZM147.922 305.02H150.748V306.262H147.922V305.02ZM139.606 311.122H140.758V312.004C140.758 314.146 139.444 316.306 137.104 317.206L136.348 316.09C138.4 315.334 139.606 313.57 139.606 312.004V311.122ZM139.93 311.122H141.046V312.004C141.046 313.66 142 315.424 143.98 316.216L143.332 317.35C140.974 316.432 139.93 314.182 139.93 312.004V311.122ZM145.618 311.122H146.734V312.004C146.734 313.93 145.672 316.36 143.332 317.35L142.684 316.216C144.646 315.334 145.618 313.426 145.618 312.004V311.122ZM145.906 311.122H147.076V312.004C147.076 313.696 148.264 315.388 150.316 316.09L149.578 317.206C147.202 316.342 145.906 314.272 145.906 312.004V311.122ZM159.621 301.402C163.203 301.402 165.345 302.41 165.345 304.228C165.345 306.046 163.203 307.054 159.621 307.054C156.021 307.054 153.897 306.046 153.897 304.228C153.897 302.41 156.021 301.402 159.621 301.402ZM159.621 302.536C156.957 302.536 155.427 303.148 155.427 304.228C155.427 305.308 156.957 305.92 159.621 305.92C162.267 305.92 163.797 305.308 163.797 304.228C163.797 303.148 162.267 302.536 159.621 302.536ZM152.259 308.134H166.965V309.34H152.259V308.134ZM154.041 310.726H165.093V314.398H155.553V316.378H154.077V313.318H163.617V311.878H154.041V310.726ZM154.077 316.054H165.579V317.224H154.077V316.054ZM183.204 301.474H184.59V316.594H183.204V301.474ZM184.014 307.756H187.02V308.98H184.014V307.756ZM174.366 311.932H175.014C175.644 311.932 176.706 311.914 177.966 311.608L178.092 312.85C176.742 313.174 175.698 313.174 175.014 313.174H174.366V311.932ZM174.366 303.166H177.84V304.39H175.752V312.634H174.366V303.166ZM178.542 311.932H179.226C180.09 311.932 181.224 311.896 182.466 311.554L182.61 312.796C181.278 313.156 180.162 313.174 179.226 313.174H178.542V311.932ZM178.542 303.166H182.124V304.39H179.91V312.58H178.542V303.166ZM186.498 301.132H187.92V317.404H186.498V301.132ZM206.643 301.132H208.137V310.654H206.643V301.132ZM207.723 305.038H210.549V306.298H207.723V305.038ZM196.185 302.032H197.661V304.516H202.251V302.032H203.709V309.628H196.185V302.032ZM197.661 305.704V308.422H202.251V305.704H197.661ZM197.967 311.536H208.263V312.742H199.461V316.828H197.967V311.536ZM197.967 315.964H208.587V317.188H197.967V315.964ZM212.06 309.682H226.766V310.906H212.06V309.682ZM213.968 315.82H225.146V317.044H213.968V315.82ZM213.968 312.328H215.462V316.198H213.968V312.328ZM219.422 301.672C222.896 301.672 225.146 302.896 225.146 304.93C225.146 306.946 222.896 308.17 219.422 308.17C215.93 308.17 213.698 306.946 213.698 304.93C213.698 302.896 215.93 301.672 219.422 301.672ZM219.422 302.896C216.866 302.896 215.228 303.652 215.228 304.93C215.228 306.208 216.866 306.964 219.422 306.964C221.978 306.964 223.616 306.208 223.616 304.93C223.616 303.652 221.978 302.896 219.422 302.896ZM245.525 301.15H247.037V313.03H245.525V301.15ZM236.579 315.82H247.523V317.044H236.579V315.82ZM236.579 311.806H238.055V316.234H236.579V311.806ZM238.307 302.266C240.737 302.266 242.537 303.922 242.537 306.28C242.537 308.62 240.737 310.294 238.307 310.294C235.877 310.294 234.059 308.62 234.059 306.28C234.059 303.922 235.877 302.266 238.307 302.266ZM238.307 303.562C236.723 303.562 235.517 304.678 235.517 306.28C235.517 307.864 236.723 308.98 238.307 308.98C239.891 308.98 241.097 307.864 241.097 306.28C241.097 304.678 239.891 303.562 238.307 303.562ZM254.199 301.978H255.441V303.634C255.441 306.766 253.677 309.358 250.959 310.42L250.167 309.214C252.615 308.314 254.199 306.118 254.199 303.634V301.978ZM254.469 301.978H255.693V303.742C255.693 305.938 257.313 307.972 259.653 308.782L258.861 309.952C256.251 308.98 254.469 306.568 254.469 303.742V301.978ZM261.381 301.132H262.875V310.996H261.381V301.132ZM262.461 305.326H265.287V306.586H262.461V305.326ZM257.691 311.446C261.021 311.446 263.037 312.544 263.037 314.416C263.037 316.288 261.021 317.368 257.691 317.368C254.361 317.368 252.345 316.288 252.345 314.416C252.345 312.544 254.361 311.446 257.691 311.446ZM257.691 312.634C255.279 312.634 253.803 313.282 253.803 314.416C253.803 315.55 255.279 316.198 257.691 316.198C260.103 316.198 261.579 315.55 261.579 314.416C261.579 313.282 260.103 312.634 257.691 312.634ZM274.16 301.402C277.742 301.402 279.884 302.41 279.884 304.228C279.884 306.046 277.742 307.054 274.16 307.054C270.56 307.054 268.436 306.046 268.436 304.228C268.436 302.41 270.56 301.402 274.16 301.402ZM274.16 302.536C271.496 302.536 269.966 303.148 269.966 304.228C269.966 305.308 271.496 305.92 274.16 305.92C276.806 305.92 278.336 305.308 278.336 304.228C278.336 303.148 276.806 302.536 274.16 302.536ZM266.798 308.134H281.504V309.34H266.798V308.134ZM268.58 310.726H279.632V314.398H270.092V316.378H268.616V313.318H278.156V311.878H268.58V310.726ZM268.616 316.054H280.118V317.224H268.616V316.054ZM299.561 301.132H301.055V309.412H299.561V301.132ZM300.407 304.624H303.449V305.866H300.407V304.624ZM290.723 310.186H301.055V314.182H292.235V316.612H290.759V313.048H299.597V311.374H290.723V310.186ZM290.759 315.982H301.649V317.188H290.759V315.982ZM292.919 301.708C295.367 301.708 297.131 303.202 297.131 305.326C297.131 307.468 295.367 308.962 292.919 308.962C290.507 308.962 288.725 307.468 288.725 305.326C288.725 303.202 290.507 301.708 292.919 301.708ZM292.919 302.932C291.353 302.932 290.183 303.922 290.183 305.326C290.183 306.748 291.353 307.738 292.919 307.738C294.521 307.738 295.691 306.748 295.691 305.326C295.691 303.922 294.521 302.932 292.919 302.932ZM316.876 301.114H318.37V317.422H316.876V301.114ZM313.672 304.84H317.272V306.064H313.672V304.84ZM305.59 312.382H306.796C309.316 312.382 311.386 312.31 313.87 311.914L314.014 313.156C311.458 313.552 309.37 313.642 306.796 313.642H305.59V312.382ZM305.554 302.59H312.664V308.422H307.066V312.67H305.59V307.198H311.188V303.832H305.554V302.59ZM313.564 309.286H317.164V310.51H313.564V309.286ZM328.07 302.734H329.366V303.418C329.366 306.334 326.27 308.476 322.994 309.034L322.418 307.846C325.28 307.432 328.07 305.56 328.07 303.418V302.734ZM328.448 302.734H329.726V303.418C329.726 305.56 332.534 307.432 335.378 307.846L334.82 309.034C331.526 308.476 328.448 306.334 328.448 303.418V302.734ZM328.124 311.194H329.6V317.404H328.124V311.194ZM321.554 310.402H336.26V311.626H321.554V310.402ZM322.922 302.14H334.838V303.346H322.922V302.14ZM344.521 306.946H347.635V308.188H344.521V306.946ZM341.479 302.662H342.649V305.758C342.649 309.16 341.227 312.454 338.851 313.912L337.915 312.778C340.147 311.464 341.479 308.548 341.479 305.758V302.662ZM341.767 302.662H342.919V305.704C342.919 308.314 344.143 311.086 346.285 312.382L345.421 313.552C343.081 312.112 341.767 308.872 341.767 305.704V302.662ZM350.497 301.132H351.937V317.404H350.497V301.132ZM347.203 301.474H348.607V316.594H347.203V301.474ZM358.271 309.502H359.747V314.38H358.271V309.502ZM364.283 309.502H365.777V314.38H364.283V309.502ZM354.671 314.092H369.413V315.334H354.671V314.092ZM362.015 302.158C365.453 302.158 367.919 303.796 367.919 306.352C367.919 308.89 365.453 310.528 362.015 310.528C358.559 310.528 356.093 308.89 356.093 306.352C356.093 303.796 358.559 302.158 362.015 302.158ZM362.015 303.346C359.405 303.346 357.533 304.534 357.533 306.352C357.533 308.152 359.405 309.34 362.015 309.34C364.625 309.34 366.479 308.152 366.479 306.352C366.479 304.534 364.625 303.346 362.015 303.346ZM372.81 316.102C372.495 316.102 372.224 315.989 371.998 315.763C371.773 315.538 371.66 315.267 371.66 314.952C371.66 314.636 371.773 314.366 371.998 314.14C372.224 313.914 372.495 313.801 372.81 313.801C373.126 313.801 373.396 313.914 373.622 314.14C373.848 314.366 373.961 314.636 373.961 314.952C373.961 315.161 373.907 315.352 373.801 315.527C373.699 315.702 373.56 315.842 373.385 315.949C373.215 316.051 373.023 316.102 372.81 316.102ZM379.889 310.477C379.889 312.088 379.678 313.571 379.257 314.926C378.839 316.277 378.24 317.521 377.46 318.659H376.131C376.438 318.237 376.723 317.717 376.987 317.099C377.256 316.486 377.49 315.812 377.691 315.08C377.891 314.342 378.046 313.582 378.157 312.798C378.272 312.009 378.33 311.236 378.33 310.477C378.33 309.463 378.232 308.434 378.036 307.39C377.84 306.346 377.575 305.376 377.243 304.482C376.911 303.587 376.54 302.858 376.131 302.295H377.46C378.24 303.433 378.839 304.68 379.257 306.035C379.678 307.386 379.889 308.866 379.889 310.477Z" fill="black"/>
<path fill-rule="evenodd" clip-rule="evenodd" d="M75.5 467C55.3416 467 39 483.342 39 503.5C39 507.949 39.796 512.212 41.2533 516.155L4 540L75.3896 540C75.4264 540 75.4632 540 75.5 540H618.5C638.658 540 655 523.658 655 503.5C655 483.342 638.658 467 618.5 467H75.5Z" fill="#F9A996"/>
<path d="M71.184 480.536H72.408V483.452C72.408 487.196 70.392 490.67 67.728 492.02L66.81 490.796C69.222 489.644 71.184 486.53 71.184 483.452V480.536ZM71.436 480.536H72.66V483.452C72.66 486.422 74.604 489.41 77.016 490.526L76.116 491.714C73.47 490.418 71.436 487.07 71.436 483.452V480.536ZM78.708 479.114H80.202V495.422H78.708V479.114ZM94.5826 479.132H96.0766V488.672H94.5826V479.132ZM95.6626 483.236H98.4886V484.496H95.6626V483.236ZM90.0826 480.176H91.6486C91.6486 484.28 88.7866 487.214 84.0346 488.51L83.4226 487.34C87.6346 486.188 90.0826 483.83 90.0826 480.824V480.176ZM84.1426 480.176H90.9106V481.382H84.1426V480.176ZM85.5106 489.428H96.0766V495.404H94.5826V490.634H85.5106V489.428ZM104.013 480.878H105.237V482.192C105.237 485.18 103.437 487.682 100.701 488.672L99.9452 487.484C102.393 486.62 104.013 484.514 104.013 482.192V480.878ZM104.283 480.878H105.507V482.174C105.507 484.298 107.055 486.206 109.449 486.998L108.729 488.168C106.011 487.268 104.283 484.946 104.283 482.174V480.878ZM100.395 480.338H109.089V481.562H100.395V480.338ZM111.141 479.132H112.635V488.942H111.141V479.132ZM112.221 483.254H115.047V484.514H112.221V483.254ZM107.451 489.374C110.763 489.374 112.797 490.472 112.797 492.362C112.797 494.27 110.763 495.368 107.451 495.368C104.139 495.368 102.105 494.27 102.105 492.362C102.105 490.472 104.139 489.374 107.451 489.374ZM107.451 490.58C105.039 490.58 103.563 491.228 103.563 492.362C103.563 493.514 105.039 494.198 107.451 494.198C109.863 494.198 111.339 493.514 111.339 492.362C111.339 491.228 109.863 490.58 107.451 490.58ZM120.23 480.482C122.336 480.482 123.704 482.66 123.704 486.152C123.704 489.644 122.336 491.822 120.23 491.822C118.124 491.822 116.774 489.644 116.774 486.152C116.774 482.66 118.124 480.482 120.23 480.482ZM120.23 481.868C118.952 481.868 118.142 483.524 118.142 486.152C118.142 488.78 118.952 490.436 120.23 490.436C121.508 490.436 122.318 488.78 122.318 486.152C122.318 483.524 121.508 481.868 120.23 481.868ZM128.96 479.132H130.4V495.404H128.96V479.132ZM126.386 485.576H129.5V486.8H126.386V485.576ZM125.36 479.474H126.782V494.594H125.36V479.474ZM144.96 479.15H146.472V491.03H144.96V479.15ZM136.014 493.82H146.958V495.044H136.014V493.82ZM136.014 489.806H137.49V494.234H136.014V489.806ZM137.742 480.266C140.172 480.266 141.972 481.922 141.972 484.28C141.972 486.62 140.172 488.294 137.742 488.294C135.312 488.294 133.494 486.62 133.494 484.28C133.494 481.922 135.312 480.266 137.742 480.266ZM137.742 481.562C136.158 481.562 134.952 482.678 134.952 484.28C134.952 485.864 136.158 486.98 137.742 486.98C139.326 486.98 140.532 485.864 140.532 484.28C140.532 482.678 139.326 481.562 137.742 481.562ZM154.967 480.302C157.505 480.302 159.323 481.868 159.323 484.136C159.323 486.422 157.505 487.988 154.967 487.988C152.429 487.988 150.593 486.422 150.593 484.136C150.593 481.868 152.429 480.302 154.967 480.302ZM154.967 481.598C153.275 481.598 152.051 482.624 152.051 484.136C152.051 485.648 153.275 486.692 154.967 486.692C156.641 486.692 157.865 485.648 157.865 484.136C157.865 482.624 156.641 481.598 154.967 481.598ZM161.447 479.114H162.941V495.422H161.447V479.114ZM149.981 491.858L149.765 490.616C152.735 490.616 156.839 490.598 160.385 490.04L160.511 491.138C156.857 491.84 152.879 491.858 149.981 491.858ZM183.122 479.114H184.616V495.422H183.122V479.114ZM176.03 480.374C178.442 480.374 180.17 482.588 180.17 486.044C180.17 489.518 178.442 491.732 176.03 491.732C173.636 491.732 171.908 489.518 171.908 486.044C171.908 482.588 173.636 480.374 176.03 480.374ZM176.03 481.724C174.446 481.724 173.33 483.416 173.33 486.044C173.33 488.69 174.446 490.418 176.03 490.418C177.632 490.418 178.73 488.69 178.73 486.044C178.73 483.416 177.632 481.724 176.03 481.724ZM187.837 481.904H195.901V483.128H187.837V481.904ZM191.869 484.208C193.903 484.208 195.379 485.738 195.379 487.934C195.379 490.112 193.903 491.642 191.869 491.642C189.853 491.642 188.377 490.112 188.377 487.934C188.377 485.738 189.853 484.208 191.869 484.208ZM191.869 485.486C190.627 485.486 189.727 486.494 189.727 487.934C189.727 489.374 190.627 490.382 191.869 490.382C193.129 490.382 194.047 489.374 194.047 487.934C194.047 486.494 193.129 485.486 191.869 485.486ZM200.203 479.132H201.643V495.404H200.203V479.132ZM197.611 485.972H200.689V487.214H197.611V485.972ZM196.729 479.492H198.133V494.612H196.729V479.492ZM191.149 479.6H192.625V482.66H191.149V479.6ZM204.413 486.692H219.173V487.826H204.413V486.692ZM206.159 489.14H217.319V492.614H207.689V494.522H206.213V491.588H215.861V490.202H206.159V489.14ZM206.213 494.126H217.841V495.206H206.213V494.126ZM206.285 479.6H217.265V482.984H207.797V484.748H206.321V481.976H215.807V480.662H206.285V479.6ZM206.321 484.388H217.571V485.468H206.321V484.388ZM227.906 486.728H239.084V487.952H227.906V486.728ZM226.052 492.11H240.794V493.37H226.052V492.11ZM232.64 487.25H234.134V492.614H232.64V487.25ZM227.906 480.428H238.922V481.652H229.4V487.268H227.906V480.428ZM249.199 486.782H250.675V489.284H249.199V486.782ZM249.955 479.33C253.537 479.33 255.679 480.32 255.679 482.138C255.679 483.956 253.537 484.964 249.955 484.964C246.355 484.964 244.231 483.956 244.231 482.138C244.231 480.32 246.355 479.33 249.955 479.33ZM249.955 480.464C247.291 480.464 245.761 481.076 245.761 482.138C245.761 483.218 247.291 483.83 249.955 483.83C252.601 483.83 254.131 483.218 254.131 482.138C254.131 481.076 252.601 480.464 249.955 480.464ZM242.593 486.008H257.299V487.232H242.593V486.008ZM244.375 488.726H255.427V492.398H245.887V494.378H244.411V491.318H253.951V489.878H244.375V488.726ZM244.411 494.054H255.913V495.224H244.411V494.054ZM270.802 479.708H272.116V480.608C272.116 483.722 268.948 485.954 265.564 486.53L264.97 485.324C267.94 484.874 270.802 482.93 270.802 480.608V479.708ZM271.072 479.708H272.368V480.608C272.368 482.876 275.266 484.874 278.2 485.324L277.606 486.53C274.258 485.954 271.072 483.686 271.072 480.608V479.708ZM270.802 489.212H272.278V495.404H270.802V489.212ZM264.232 488.294H278.938V489.536H264.232V488.294ZM289.903 489.14H291.055V490.022C291.055 492.146 289.723 494.288 287.383 495.188L286.627 494.072C288.679 493.334 289.903 491.588 289.903 490.022V489.14ZM290.227 489.14H291.343V490.022C291.343 491.66 292.315 493.406 294.259 494.198L293.629 495.332C291.289 494.414 290.227 492.182 290.227 490.022V489.14ZM295.915 489.14H297.031V490.022C297.031 491.93 295.951 494.342 293.629 495.332L292.999 494.198C294.925 493.316 295.915 491.426 295.915 490.022V489.14ZM296.221 489.14H297.373V490.022C297.373 491.696 298.579 493.37 300.649 494.072L299.893 495.188C297.517 494.324 296.221 492.272 296.221 490.022V489.14ZM297.679 479.15H299.191V488.438H297.679V479.15ZM290.461 480.086C292.927 480.086 294.691 481.634 294.691 483.884C294.691 486.134 292.927 487.664 290.461 487.664C287.995 487.664 286.213 486.134 286.213 483.884C286.213 481.634 287.995 480.086 290.461 480.086ZM290.461 481.328C288.841 481.328 287.671 482.372 287.671 483.884C287.671 485.396 288.841 486.422 290.461 486.422C292.081 486.422 293.251 485.396 293.251 483.884C293.251 482.372 292.081 481.328 290.461 481.328ZM304.392 484.01H315.444V485.234H304.392V484.01ZM302.394 487.412H317.154V488.636H302.394V487.412ZM304.392 479.726H305.868V484.622H304.392V479.726ZM304.284 493.784H315.534V495.008H304.284V493.784ZM304.284 490.256H305.76V494.108H304.284V490.256ZM324.015 488.762H338.775V489.986H324.015V488.762ZM330.603 489.338H332.079V495.404H330.603V489.338ZM325.869 479.78H327.363V482.012H335.409V479.78H336.885V486.818H325.869V479.78ZM327.363 483.218V485.612H335.409V483.218H327.363ZM348.115 481.67H353.011V482.894H348.115V481.67ZM348.115 485.576H353.011V486.8H348.115V485.576ZM352.471 479.15H353.965V491.174H352.471V479.15ZM343.579 493.82H354.415V495.044H343.579V493.82ZM343.579 489.932H345.073V494.36H343.579V489.932ZM345.019 480.176C347.413 480.176 349.213 481.85 349.213 484.244C349.213 486.638 347.413 488.312 345.019 488.312C342.625 488.312 340.825 486.638 340.825 484.244C340.825 481.85 342.625 480.176 345.019 480.176ZM345.019 481.49C343.435 481.49 342.265 482.642 342.265 484.244C342.265 485.864 343.435 487.016 345.019 487.016C346.603 487.016 347.791 485.864 347.791 484.244C347.791 482.642 346.603 481.49 345.019 481.49ZM365.502 482.066H369.66V483.308H365.502V482.066ZM369.03 479.132H370.524V487.52H369.03V479.132ZM360.048 488.366H370.524V492.254H361.56V494.72H360.102V491.138H369.048V489.554H360.048V488.366ZM360.102 494H371.136V495.188H360.102V494ZM361.2 479.636H362.424V481.166C362.424 484.172 360.624 486.602 357.906 487.574L357.132 486.386C359.58 485.558 361.2 483.524 361.2 481.166V479.636ZM361.452 479.636H362.658V481.166C362.658 483.29 364.296 485.252 366.654 486.026L365.88 487.196C363.252 486.26 361.452 483.92 361.452 481.166V479.636ZM381.467 481.76H386.165V482.984H381.467V481.76ZM381.467 485H386.201V486.206H381.467V485ZM385.589 479.132H387.083V488.762H385.589V479.132ZM374.447 480.356H381.881V487.592H374.447V480.356ZM380.405 481.562H375.905V486.404H380.405V481.562ZM381.737 489.23C385.085 489.23 387.155 490.364 387.155 492.308C387.155 494.252 385.085 495.368 381.737 495.368C378.371 495.368 376.301 494.252 376.301 492.308C376.301 490.364 378.371 489.23 381.737 489.23ZM381.737 490.418C379.289 490.418 377.795 491.12 377.795 492.308C377.795 493.496 379.289 494.198 381.737 494.198C384.185 494.198 385.679 493.496 385.679 492.308C385.679 491.12 384.185 490.418 381.737 490.418ZM402.075 479.114H403.569V495.422H402.075V479.114ZM394.983 480.374C397.395 480.374 399.123 482.588 399.123 486.044C399.123 489.518 397.395 491.732 394.983 491.732C392.589 491.732 390.861 489.518 390.861 486.044C390.861 482.588 392.589 480.374 394.983 480.374ZM394.983 481.724C393.399 481.724 392.283 483.416 392.283 486.044C392.283 488.69 393.399 490.418 394.983 490.418C396.585 490.418 397.683 488.69 397.683 486.044C397.683 483.416 396.585 481.724 394.983 481.724ZM415.938 489.14H417.09V490.022C417.09 492.146 415.758 494.288 413.418 495.188L412.662 494.072C414.714 493.334 415.938 491.588 415.938 490.022V489.14ZM416.262 489.14H417.378V490.022C417.378 491.66 418.35 493.406 420.294 494.198L419.664 495.332C417.324 494.414 416.262 492.182 416.262 490.022V489.14ZM421.95 489.14H423.066V490.022C423.066 491.93 421.986 494.342 419.664 495.332L419.034 494.198C420.96 493.316 421.95 491.426 421.95 490.022V489.14ZM422.256 489.14H423.408V490.022C423.408 491.696 424.614 493.37 426.684 494.072L425.928 495.188C423.552 494.324 422.256 492.272 422.256 490.022V489.14ZM423.714 479.15H425.226V488.438H423.714V479.15ZM416.496 480.086C418.962 480.086 420.726 481.634 420.726 483.884C420.726 486.134 418.962 487.664 416.496 487.664C414.03 487.664 412.248 486.134 412.248 483.884C412.248 481.634 414.03 480.086 416.496 480.086ZM416.496 481.328C414.876 481.328 413.706 482.372 413.706 483.884C413.706 485.396 414.876 486.422 416.496 486.422C418.116 486.422 419.286 485.396 419.286 483.884C419.286 482.372 418.116 481.328 416.496 481.328ZM435.791 479.402C439.373 479.402 441.515 480.41 441.515 482.228C441.515 484.046 439.373 485.054 435.791 485.054C432.191 485.054 430.067 484.046 430.067 482.228C430.067 480.41 432.191 479.402 435.791 479.402ZM435.791 480.536C433.127 480.536 431.597 481.148 431.597 482.228C431.597 483.308 433.127 483.92 435.791 483.92C438.437 483.92 439.967 483.308 439.967 482.228C439.967 481.148 438.437 480.536 435.791 480.536ZM428.429 486.134H443.135V487.34H428.429V486.134ZM430.211 488.726H441.263V492.398H431.723V494.378H430.247V491.318H439.787V489.878H430.211V488.726ZM430.247 494.054H441.749V495.224H430.247V494.054ZM456.291 479.132H457.767V495.404H456.291V479.132ZM457.299 485.828H460.197V487.088H457.299V485.828ZM448.497 480.878H449.865C449.865 484.802 449.037 488.6 446.121 491.75L444.915 490.904C447.597 488.114 448.497 484.73 448.497 481.04V480.878ZM445.437 480.878H449.055V482.12H445.437V480.878ZM452.925 480.878H454.311C454.311 484.82 453.753 489.284 450.765 492.83L449.559 492.002C452.313 488.816 452.925 484.784 452.925 481.022V480.878ZM450.387 480.878H453.537V482.12H450.387V480.878ZM465.164 487.502H466.64V492.38H465.164V487.502ZM471.176 487.502H472.67V492.38H471.176V487.502ZM461.564 492.092H476.306V493.334H461.564V492.092ZM468.908 480.158C472.346 480.158 474.812 481.796 474.812 484.352C474.812 486.89 472.346 488.528 468.908 488.528C465.452 488.528 462.986 486.89 462.986 484.352C462.986 481.796 465.452 480.158 468.908 480.158ZM468.908 481.346C466.298 481.346 464.426 482.534 464.426 484.352C464.426 486.152 466.298 487.34 468.908 487.34C471.518 487.34 473.372 486.152 473.372 484.352C473.372 482.534 471.518 481.346 468.908 481.346ZM480.572 490.318V490.241C480.581 489.428 480.666 488.78 480.828 488.298C480.99 487.817 481.22 487.427 481.518 487.129C481.816 486.83 482.174 486.555 482.592 486.304C482.843 486.151 483.069 485.969 483.27 485.761C483.47 485.548 483.627 485.303 483.743 485.026C483.862 484.749 483.922 484.442 483.922 484.105C483.922 483.687 483.824 483.325 483.627 483.018C483.431 482.712 483.169 482.475 482.841 482.309C482.513 482.143 482.149 482.06 481.748 482.06C481.399 482.06 481.062 482.132 480.738 482.277C480.414 482.422 480.144 482.65 479.926 482.961C479.709 483.272 479.583 483.679 479.549 484.182H477.939C477.973 483.457 478.16 482.837 478.501 482.322C478.846 481.806 479.3 481.412 479.863 481.139C480.429 480.866 481.058 480.73 481.748 480.73C482.498 480.73 483.15 480.879 483.704 481.178C484.262 481.476 484.693 481.885 484.995 482.405C485.302 482.925 485.456 483.517 485.456 484.182C485.456 484.651 485.383 485.075 485.238 485.454C485.098 485.833 484.893 486.172 484.625 486.47C484.36 486.768 484.041 487.033 483.666 487.263C483.291 487.497 482.99 487.744 482.765 488.004C482.539 488.26 482.375 488.565 482.272 488.918C482.17 489.272 482.115 489.713 482.106 490.241V490.318H480.572ZM481.39 494.102C481.075 494.102 480.804 493.989 480.578 493.763C480.353 493.538 480.24 493.267 480.24 492.952C480.24 492.636 480.353 492.366 480.578 492.14C480.804 491.914 481.075 491.801 481.39 491.801C481.706 491.801 481.976 491.914 482.202 492.14C482.428 492.366 482.541 492.636 482.541 492.952C482.541 493.161 482.488 493.352 482.381 493.527C482.279 493.702 482.14 493.842 481.966 493.949C481.795 494.051 481.603 494.102 481.39 494.102ZM67.4915 506.705C67.4915 505.452 67.6539 504.3 67.9787 503.249C68.3068 502.195 68.7741 501.226 69.3807 500.341H70.4148C70.1761 500.669 69.9524 501.073 69.7436 501.554C69.5381 502.031 69.3575 502.557 69.2017 503.13C69.0459 503.7 68.9233 504.29 68.8338 504.9C68.7476 505.51 68.7045 506.111 68.7045 506.705C68.7045 507.493 68.7808 508.294 68.9332 509.106C69.0857 509.918 69.2912 510.672 69.5497 511.368C69.8082 512.064 70.0966 512.631 70.4148 513.068H69.3807C68.7741 512.183 68.3068 511.215 67.9787 510.165C67.6539 509.111 67.4915 507.957 67.4915 506.705ZM73.0043 500.78H81.1523V501.718H73.0043V500.78ZM71.7723 509.278H83.2103V510.244H71.7723V509.278ZM80.5363 500.78H81.6703V502.04C81.6703 503.664 81.6703 505.47 81.1943 508.2L80.0323 508.088C80.5363 505.498 80.5363 503.608 80.5363 502.04V500.78ZM93.8492 499.436H95.0252V506.94H93.8492V499.436ZM85.2952 505.386H86.3172C88.6132 505.386 90.3072 505.316 92.3372 504.994L92.4632 505.932C90.3772 506.282 88.6692 506.352 86.3172 506.352H85.2952V505.386ZM85.2672 500.192H91.0072V503.65H86.4292V505.96H85.2952V502.754H89.8732V501.144H85.2672V500.192ZM86.8492 507.64H95.0252V511.924H86.8492V507.64ZM93.8772 508.564H87.9832V510.986H93.8772V508.564ZM103.242 499.646C106.028 499.646 107.694 500.43 107.694 501.844C107.694 503.258 106.028 504.042 103.242 504.042C100.442 504.042 98.7901 503.258 98.7901 501.844C98.7901 500.43 100.442 499.646 103.242 499.646ZM103.242 500.528C101.17 500.528 99.9801 501.004 99.9801 501.844C99.9801 502.684 101.17 503.16 103.242 503.16C105.3 503.16 106.49 502.684 106.49 501.844C106.49 501.004 105.3 500.528 103.242 500.528ZM97.5161 504.882H108.954V505.82H97.5161V504.882ZM98.9021 506.898H107.498V509.754H100.078V511.294H98.9301V508.914H106.35V507.794H98.9021V506.898ZM98.9301 511.042H107.876V511.952H98.9301V511.042ZM114.346 509.516H125.812V510.482H114.346V509.516ZM119.47 506.492H120.632V509.796H119.47V506.492ZM115.69 500.332H116.838V502.586H123.292V500.332H124.44V506.8H115.69V500.332ZM116.838 503.524V505.848H123.292V503.524H116.838ZM128.429 500.696H136.577V501.662H128.429V500.696ZM127.225 509.362H138.663V510.328H127.225V509.362ZM131.663 504.84H132.825V509.838H131.663V504.84ZM136.143 500.696H137.291V501.956C137.291 503.524 137.291 505.26 136.829 507.822L135.667 507.668C136.143 505.246 136.143 503.468 136.143 501.956V500.696ZM144.42 507.878H144.966C145.722 507.878 146.604 507.864 147.598 507.612L147.738 508.578C146.66 508.83 145.792 508.844 144.966 508.844H144.42V507.878ZM144.42 500.71H147.542V501.662H145.568V508.326H144.42V500.71ZM148.228 507.878H148.872C150.132 507.878 151.07 507.836 152.162 507.57L152.274 508.536C151.126 508.816 150.188 508.844 148.872 508.844H148.228V507.878ZM148.228 500.71H151.658V501.662H149.376V508.34H148.228V500.71ZM153.422 499.436H154.584V512.092H153.422V499.436ZM151.028 504.056H153.842V505.022H151.028V504.056ZM162.045 503.622H163.193V505.33H162.045V503.622ZM162.633 499.59C165.419 499.59 167.085 500.36 167.085 501.774C167.085 503.188 165.419 503.972 162.633 503.972C159.833 503.972 158.181 503.188 158.181 501.774C158.181 500.36 159.833 499.59 162.633 499.59ZM162.633 500.472C160.561 500.472 159.371 500.948 159.371 501.774C159.371 502.614 160.561 503.09 162.633 503.09C164.691 503.09 165.881 502.614 165.881 501.774C165.881 500.948 164.691 500.472 162.633 500.472ZM156.907 504.91H168.345V505.862H156.907V504.91ZM158.293 506.898H166.889V509.768H159.469V511.308H158.321V508.914H165.741V507.808H158.293V506.898ZM158.321 511.042H167.267V511.952H158.321V511.042ZM178.998 499.45H180.16V508.774H178.998V499.45ZM171.914 510.86H180.51V511.812H171.914V510.86ZM171.914 508.032H173.076V511.336H171.914V508.032ZM170.444 506.016H171.466C173.86 506.016 175.526 505.932 177.486 505.596L177.612 506.548C175.596 506.898 173.916 506.968 171.466 506.968H170.444V506.016ZM170.416 500.332H176.156V504H171.578V506.31H170.444V503.104H175.022V501.284H170.416V500.332ZM196.22 499.436H197.34V512.092H196.22V499.436ZM194.176 504.518H196.598V505.47H194.176V504.518ZM190.9 501.06H192.02C192.02 504.322 190.9 507.346 187.288 509.376L186.602 508.55C189.78 506.772 190.9 504.21 190.9 501.284V501.06ZM187.092 501.06H191.292V502.026H187.092V501.06ZM193.406 499.772H194.512V511.476H193.406V499.772ZM208.693 499.45H209.869V508.69H208.693V499.45ZM201.735 510.86H210.247V511.812H201.735V510.86ZM201.735 507.738H202.883V511.182H201.735V507.738ZM203.079 500.318C204.969 500.318 206.369 501.606 206.369 503.44C206.369 505.26 204.969 506.562 203.079 506.562C201.189 506.562 199.775 505.26 199.775 503.44C199.775 501.606 201.189 500.318 203.079 500.318ZM203.079 501.326C201.847 501.326 200.909 502.194 200.909 503.44C200.909 504.672 201.847 505.54 203.079 505.54C204.311 505.54 205.249 504.672 205.249 503.44C205.249 502.194 204.311 501.326 203.079 501.326ZM215.594 500.724H216.546V501.746C216.546 504.056 215.118 506.03 213.004 506.814L212.402 505.89C214.292 505.218 215.594 503.538 215.594 501.746V500.724ZM215.818 500.724H216.756V501.746C216.756 503.37 217.988 504.952 219.822 505.596L219.234 506.52C217.176 505.764 215.818 503.86 215.818 501.746V500.724ZM219.136 502.726H221.95V503.692H219.136V502.726ZM212.766 500.304H219.528V501.242H212.766V500.304ZM214.334 507.696H222.776V512.092H221.614V508.648H214.334V507.696ZM221.614 499.436H222.776V507.01H221.614V499.436ZM234.451 499.45H235.627V508.69H234.451V499.45ZM227.493 510.86H236.005V511.812H227.493V510.86ZM227.493 507.738H228.641V511.182H227.493V507.738ZM228.837 500.318C230.727 500.318 232.127 501.606 232.127 503.44C232.127 505.26 230.727 506.562 228.837 506.562C226.947 506.562 225.533 505.26 225.533 503.44C225.533 501.606 226.947 500.318 228.837 500.318ZM228.837 501.326C227.605 501.326 226.667 502.194 226.667 503.44C226.667 504.672 227.605 505.54 228.837 505.54C230.069 505.54 231.007 504.672 231.007 503.44C231.007 502.194 230.069 501.326 228.837 501.326ZM247.207 507.486H248.355V512.106H247.207V507.486ZM242.069 507.08H253.507V508.046H242.069V507.08ZM247.193 501.606H248.215V501.928C248.215 504.112 245.849 505.722 243.189 506.128L242.783 505.204C245.065 504.896 247.193 503.51 247.193 501.928V501.606ZM247.347 501.606H248.355V501.928C248.355 503.496 250.497 504.896 252.765 505.204L252.345 506.128C249.699 505.736 247.347 504.084 247.347 501.928V501.606ZM243.175 500.99H252.401V501.942H243.175V500.99ZM247.207 499.436H248.355V501.326H247.207V499.436ZM261.164 502.698H264.608V503.65H261.164V502.698ZM256.908 507.612H265.35V512.106H264.188V508.536H256.908V507.612ZM264.188 499.436H265.35V506.898H264.188V499.436ZM258.392 500.136C260.254 500.136 261.654 501.396 261.654 503.188C261.654 504.98 260.254 506.226 258.392 506.226C256.516 506.226 255.13 504.98 255.13 503.188C255.13 501.396 256.516 500.136 258.392 500.136ZM258.392 501.13C257.16 501.13 256.25 501.984 256.25 503.188C256.25 504.392 257.16 505.232 258.392 505.232C259.61 505.232 260.534 504.392 260.534 503.188C260.534 501.984 259.61 501.13 258.392 501.13ZM277.011 499.422H278.173V512.106H277.011V499.422ZM271.495 500.402C273.371 500.402 274.715 502.124 274.715 504.812C274.715 507.514 273.371 509.236 271.495 509.236C269.633 509.236 268.289 507.514 268.289 504.812C268.289 502.124 269.633 500.402 271.495 500.402ZM271.495 501.452C270.263 501.452 269.395 502.768 269.395 504.812C269.395 506.87 270.263 508.214 271.495 508.214C272.741 508.214 273.595 506.87 273.595 504.812C273.595 502.768 272.741 501.452 271.495 501.452ZM290.114 504.476H292.452V505.456H290.114V504.476ZM289.26 499.422H290.436V512.092H289.26V499.422ZM281.196 500.668H282.358V508.508H281.196V500.668ZM281.196 507.906H282.204C284.08 507.906 285.998 507.78 288.084 507.346L288.224 508.312C286.068 508.76 284.122 508.886 282.204 508.886H281.196V507.906ZM303.57 501.76H306.958V502.712H303.57V501.76ZM303.458 504.392H306.874V505.344H303.458V504.392ZM306.762 499.436H307.924V507.024H306.762V499.436ZM302.8 500.388H304.046C304.046 503.65 301.792 505.932 298.152 507.024L297.676 506.086C300.91 505.148 302.8 503.286 302.8 500.892V500.388ZM298.334 500.388H303.598V501.34H298.334V500.388ZM303.808 507.164C306.37 507.164 307.994 508.074 307.994 509.6C307.994 511.126 306.37 512.036 303.808 512.036C301.246 512.036 299.622 511.126 299.622 509.6C299.622 508.074 301.246 507.164 303.808 507.164ZM303.808 508.074C301.96 508.074 300.77 508.648 300.77 509.6C300.77 510.552 301.96 511.112 303.808 511.112C305.67 511.112 306.86 510.552 306.86 509.6C306.86 508.648 305.67 508.074 303.808 508.074ZM319.641 499.436H320.803V507.094H319.641V499.436ZM317.541 503.272H320.159V504.238H317.541V503.272ZM312.599 507.766H320.803V511.924H312.599V507.766ZM319.669 508.704H313.733V510.986H319.669V508.704ZM310.415 500.752H317.737V501.69H310.415V500.752ZM314.069 502.334C315.777 502.334 316.995 503.258 316.995 504.602C316.995 505.946 315.777 506.842 314.069 506.842C312.361 506.842 311.143 505.946 311.143 504.602C311.143 503.258 312.361 502.334 314.069 502.334ZM314.069 503.23C313.005 503.23 312.249 503.776 312.249 504.602C312.249 505.414 313.005 505.96 314.069 505.96C315.133 505.96 315.889 505.414 315.889 504.602C315.889 503.776 315.133 503.23 314.069 503.23ZM313.495 499.31H314.657V501.424H313.495V499.31ZM324.722 505.344H333.416V506.296H324.722V505.344ZM323.28 509.53H334.746V510.51H323.28V509.53ZM328.404 505.75H329.566V509.922H328.404V505.75ZM324.722 500.444H333.29V501.396H325.884V505.764H324.722V500.444ZM345.22 503.188H346.368V505.12H345.22V503.188ZM345.052 500.206H346.074V500.598C346.074 502.502 343.722 503.72 341.062 503.972L340.684 503.09C342.966 502.908 345.052 501.928 345.052 500.598V500.206ZM345.556 500.206H346.564V500.598C346.564 501.914 348.65 502.908 350.932 503.09L350.554 503.972C347.908 503.72 345.556 502.502 345.556 500.598V500.206ZM341.132 499.828H350.498V500.738H341.132V499.828ZM341.146 507.29H350.47V508.214H341.146V507.29ZM340.082 504.686H351.562V505.624H340.082V504.686ZM345.808 508.83C348.244 508.83 349.602 509.404 349.602 510.496C349.602 511.602 348.244 512.162 345.808 512.162C343.372 512.162 342 511.602 342 510.496C342 509.404 343.372 508.83 345.808 508.83ZM345.808 509.628C344.128 509.628 343.19 509.922 343.19 510.496C343.19 511.07 344.128 511.364 345.808 511.364C347.474 511.364 348.426 511.07 348.426 510.496C348.426 509.922 347.474 509.628 345.808 509.628ZM345.234 506.128H346.382V507.878H345.234V506.128ZM354.179 500.696H362.327V501.662H354.179V500.696ZM352.975 509.362H364.413V510.328H352.975V509.362ZM357.413 504.84H358.575V509.838H357.413V504.84ZM361.893 500.696H363.041V501.956C363.041 503.524 363.041 505.26 362.579 507.822L361.417 507.668C361.893 505.246 361.893 503.468 361.893 501.956V500.696ZM69.346 517.192H70.27V518.886C70.27 520.79 69.192 522.792 67.33 523.646L66.7 522.736C68.352 521.994 69.346 520.328 69.346 518.886V517.192ZM69.528 517.192H70.452V518.886C70.452 520.328 71.39 521.77 73.014 522.428L72.398 523.324C70.564 522.554 69.528 520.776 69.528 518.886V517.192ZM76.248 516.45H77.354V524.094H76.248V516.45ZM74.204 519.726H76.598V520.692H74.204V519.726ZM73.532 516.66H74.638V524.024H73.532V516.66ZM68.87 524.78H77.354V529.092H76.206V525.732H68.87V524.78ZM85.2909 516.646C88.0769 516.646 89.7429 517.43 89.7429 518.844C89.7429 520.258 88.0769 521.042 85.2909 521.042C82.4909 521.042 80.8389 520.258 80.8389 518.844C80.8389 517.43 82.4909 516.646 85.2909 516.646ZM85.2909 517.528C83.2189 517.528 82.0289 518.004 82.0289 518.844C82.0289 519.684 83.2189 520.16 85.2909 520.16C87.3489 520.16 88.5389 519.684 88.5389 518.844C88.5389 518.004 87.3489 517.528 85.2909 517.528ZM79.5649 521.882H91.0029V522.82H79.5649V521.882ZM80.9509 523.898H89.5469V526.754H82.1269V528.294H80.9789V525.914H88.3989V524.794H80.9509V523.898ZM80.9789 528.042H89.9249V528.952H80.9789V528.042ZM105.047 516.45H106.209V525.942H105.047V516.45ZM105.845 520.594H108.085V521.574H105.845V520.594ZM96.4233 517.976H103.899V518.914H96.4233V517.976ZM100.161 519.614C101.953 519.614 103.185 520.552 103.185 521.98C103.185 523.394 101.953 524.332 100.161 524.332C98.3553 524.332 97.1233 523.394 97.1233 521.98C97.1233 520.552 98.3553 519.614 100.161 519.614ZM100.161 520.524C99.0133 520.524 98.2293 521.098 98.2293 521.98C98.2293 522.848 99.0133 523.422 100.161 523.422C101.295 523.422 102.079 522.848 102.079 521.98C102.079 521.098 101.295 520.524 100.161 520.524ZM99.5733 516.436H100.735V518.466H99.5733V516.436ZM98.3273 527.86H106.783V528.812H98.3273V527.86ZM98.3273 525.186H99.4893V528.266H98.3273V525.186ZM115.238 520.006H118.878V520.958H115.238V520.006ZM118.514 516.45H119.676V525.816H118.514V516.45ZM111.542 527.86H119.984V528.812H111.542V527.86ZM111.542 524.906H112.704V528.35H111.542V524.906ZM109.89 517.276H111.038V519.516H114.468V517.276H115.602V523.66H109.89V517.276ZM111.038 520.426V522.708H114.468V520.426H111.038ZM123.595 522.344H132.289V523.296H123.595V522.344ZM122.153 526.53H133.619V527.51H122.153V526.53ZM127.277 522.75H128.439V526.922H127.277V522.75ZM123.595 517.444H132.163V518.396H124.757V522.764H123.595V517.444ZM138.97 526.516H150.436V527.482H138.97V526.516ZM144.094 523.492H145.256V526.796H144.094V523.492ZM140.314 517.332H141.462V519.586H147.916V517.332H149.064V523.8H140.314V517.332ZM141.462 520.524V522.848H147.916V520.524H141.462ZM155.194 518.242H156.132V520.3C156.132 522.974 154.522 525.662 152.506 526.656L151.834 525.732C153.668 524.864 155.194 522.484 155.194 520.3V518.242ZM155.418 518.242H156.356V520.3C156.356 522.442 157.882 524.626 159.744 525.424L159.086 526.348C157.042 525.396 155.418 522.932 155.418 520.3V518.242ZM152.254 517.724H159.324V518.704H152.254V517.724ZM161.032 516.436H162.194V529.092H161.032V516.436ZM170.121 516.954H178.633V521.224H170.121V516.954ZM177.485 517.892H171.255V520.286H177.485V517.892ZM168.651 522.708H180.089V523.646H168.651V522.708ZM173.803 520.93H174.951V523.114H173.803V520.93ZM173.789 524.444H174.783V524.836C174.783 527.104 172.571 528.588 169.981 529.022L169.533 528.112C171.843 527.776 173.789 526.516 173.789 524.836V524.444ZM173.971 524.444H174.965V524.836C174.965 526.516 176.897 527.776 179.207 528.112L178.759 529.022C176.169 528.588 173.971 527.104 173.971 524.836V524.444ZM190.196 516.45H191.358V525.942H190.196V516.45ZM190.994 520.594H193.234V521.574H190.994V520.594ZM181.572 517.976H189.048V518.914H181.572V517.976ZM185.31 519.614C187.102 519.614 188.334 520.552 188.334 521.98C188.334 523.394 187.102 524.332 185.31 524.332C183.504 524.332 182.272 523.394 182.272 521.98C182.272 520.552 183.504 519.614 185.31 519.614ZM185.31 520.524C184.162 520.524 183.378 521.098 183.378 521.98C183.378 522.848 184.162 523.422 185.31 523.422C186.444 523.422 187.228 522.848 187.228 521.98C187.228 521.098 186.444 520.524 185.31 520.524ZM184.722 516.436H185.884V518.466H184.722V516.436ZM183.476 527.86H191.932V528.812H183.476V527.86ZM183.476 525.186H184.638V528.266H183.476V525.186ZM201.692 517.528H202.644V519.796C202.644 522.708 201.076 525.41 199.004 526.46L198.29 525.508C200.166 524.612 201.692 522.19 201.692 519.796V517.528ZM201.888 517.528H202.84V519.796C202.84 522.106 204.352 524.43 206.228 525.298L205.528 526.222C203.47 525.214 201.888 522.61 201.888 519.796V517.528ZM207.544 516.422H208.706V529.106H207.544V516.422ZM219.891 516.436H221.053V523.856H219.891V516.436ZM220.731 519.628H222.929V520.608H220.731V519.628ZM216.391 517.248H217.609C217.609 520.44 215.383 522.722 211.687 523.73L211.211 522.82C214.487 521.924 216.391 520.09 216.391 517.752V517.248ZM211.771 517.248H217.035V518.186H211.771V517.248ZM212.835 524.444H221.053V529.092H219.891V525.382H212.835V524.444ZM227.226 517.794H228.178V518.816C228.178 521.14 226.778 523.086 224.65 523.856L224.062 522.932C225.966 522.26 227.226 520.622 227.226 518.816V517.794ZM227.436 517.794H228.388V518.802C228.388 520.454 229.592 521.938 231.454 522.554L230.894 523.464C228.78 522.764 227.436 520.958 227.436 518.802V517.794ZM224.412 517.374H231.174V518.326H224.412V517.374ZM232.77 516.436H233.932V524.066H232.77V516.436ZM233.61 519.642H235.808V520.622H233.61V519.642ZM229.9 524.402C232.476 524.402 234.058 525.256 234.058 526.726C234.058 528.21 232.476 529.064 229.9 529.064C227.324 529.064 225.742 528.21 225.742 526.726C225.742 525.256 227.324 524.402 229.9 524.402ZM229.9 525.34C228.024 525.34 226.876 525.844 226.876 526.726C226.876 527.622 228.024 528.154 229.9 528.154C231.776 528.154 232.924 527.622 232.924 526.726C232.924 525.844 231.776 525.34 229.9 525.34ZM239.839 517.486C241.477 517.486 242.541 519.18 242.541 521.896C242.541 524.612 241.477 526.306 239.839 526.306C238.201 526.306 237.151 524.612 237.151 521.896C237.151 519.18 238.201 517.486 239.839 517.486ZM239.839 518.564C238.845 518.564 238.215 519.852 238.215 521.896C238.215 523.94 238.845 525.228 239.839 525.228C240.833 525.228 241.463 523.94 241.463 521.896C241.463 519.852 240.833 518.564 239.839 518.564ZM246.629 516.436H247.749V529.092H246.629V516.436ZM244.627 521.448H247.049V522.4H244.627V521.448ZM243.829 516.702H244.935V528.462H243.829V516.702ZM259.074 516.45H260.25V525.69H259.074V516.45ZM252.116 527.86H260.628V528.812H252.116V527.86ZM252.116 524.738H253.264V528.182H252.116V524.738ZM253.46 517.318C255.35 517.318 256.75 518.606 256.75 520.44C256.75 522.26 255.35 523.562 253.46 523.562C251.57 523.562 250.156 522.26 250.156 520.44C250.156 518.606 251.57 517.318 253.46 517.318ZM253.46 518.326C252.228 518.326 251.29 519.194 251.29 520.44C251.29 521.672 252.228 522.54 253.46 522.54C254.692 522.54 255.63 521.672 255.63 520.44C255.63 519.194 254.692 518.326 253.46 518.326ZM267.879 521.35H270.273V522.316H267.879V521.35ZM272.387 516.436H273.507V529.092H272.387V516.436ZM269.881 516.702H270.987V528.462H269.881V516.702ZM265.597 517.486C267.235 517.486 268.299 519.18 268.299 521.896C268.299 524.612 267.235 526.306 265.597 526.306C263.959 526.306 262.909 524.612 262.909 521.896C262.909 519.18 263.959 517.486 265.597 517.486ZM265.597 518.564C264.603 518.564 263.973 519.852 263.973 521.896C263.973 523.94 264.603 525.228 265.597 525.228C266.605 525.228 267.235 523.94 267.235 521.896C267.235 519.852 266.605 518.564 265.597 518.564ZM285.266 516.436H286.386V529.092H285.266V516.436ZM279.778 521.602H282.97V522.54H279.778V521.602ZM282.634 516.758H283.726V528.448H282.634V516.758ZM279.932 518.032H281.052C281.052 521.35 279.722 524.332 276.306 526.362L275.62 525.536C278.602 523.744 279.932 521.224 279.932 518.242V518.032ZM276.18 518.032H280.366V518.984H276.18V518.032ZM295.096 517.192H296.02V518.886C296.02 520.79 294.942 522.792 293.08 523.646L292.45 522.736C294.102 521.994 295.096 520.328 295.096 518.886V517.192ZM295.278 517.192H296.202V518.886C296.202 520.328 297.14 521.77 298.764 522.428L298.148 523.324C296.314 522.554 295.278 520.776 295.278 518.886V517.192ZM301.998 516.45H303.104V524.094H301.998V516.45ZM299.954 519.726H302.348V520.692H299.954V519.726ZM299.282 516.66H300.388V524.024H299.282V516.66ZM294.62 524.78H303.104V529.092H301.956V525.732H294.62V524.78ZM311.041 516.646C313.827 516.646 315.493 517.43 315.493 518.844C315.493 520.258 313.827 521.042 311.041 521.042C308.241 521.042 306.589 520.258 306.589 518.844C306.589 517.43 308.241 516.646 311.041 516.646ZM311.041 517.528C308.969 517.528 307.779 518.004 307.779 518.844C307.779 519.684 308.969 520.16 311.041 520.16C313.099 520.16 314.289 519.684 314.289 518.844C314.289 518.004 313.099 517.528 311.041 517.528ZM305.315 521.882H316.753V522.82H305.315V521.882ZM306.701 523.898H315.297V526.754H307.877V528.294H306.729V525.914H314.149V524.794H306.701V523.898ZM306.729 528.042H315.675V528.952H306.729V528.042ZM325.519 517.402C327.353 517.402 328.669 519.124 328.669 521.812C328.669 524.514 327.353 526.236 325.519 526.236C323.671 526.236 322.369 524.514 322.369 521.812C322.369 519.124 323.671 517.402 325.519 517.402ZM325.519 518.452C324.301 518.452 323.475 519.768 323.475 521.812C323.475 523.87 324.301 525.214 325.519 525.214C326.737 525.214 327.563 523.87 327.563 521.812C327.563 519.768 326.737 518.452 325.519 518.452ZM331.413 516.422H332.561V529.106H331.413V516.422ZM328.291 521.252H331.917V522.204H328.291V521.252ZM336.76 523.968H345.776V524.878H336.76V523.968ZM341.254 525.466C343.522 525.466 344.838 526.11 344.838 527.286C344.838 528.448 343.522 529.078 341.254 529.078C339.014 529.078 337.684 528.448 337.684 527.286C337.684 526.11 339.014 525.466 341.254 525.466ZM341.254 526.292C339.784 526.292 338.902 526.642 338.902 527.286C338.902 527.916 339.784 528.266 341.254 528.266C342.738 528.266 343.62 527.916 343.62 527.286C343.62 526.642 342.738 526.292 341.254 526.292ZM340.694 522.764H341.856V524.57H340.694V522.764ZM335.346 521.336H335.906C336.648 521.336 337.586 521.308 338.678 521.07L338.804 522.008C337.628 522.26 336.69 522.274 335.906 522.274H335.346V521.336ZM335.346 517.052H338.51V517.976H336.494V521.98H335.346V517.052ZM339.224 521.336H339.854C341.198 521.336 342.108 521.308 343.2 521.056L343.298 521.98C342.164 522.232 341.24 522.274 339.854 522.274H339.224V521.336ZM339.224 517.052H342.724V517.976H340.372V521.98H339.224V517.052ZM344.404 516.436H345.566V523.156H344.404V516.436ZM342.15 519.068H345.034V519.964H342.15V519.068ZM357.535 516.436H358.655V529.092H357.535V516.436ZM352.047 521.602H355.239V522.54H352.047V521.602ZM354.903 516.758H355.995V528.448H354.903V516.758ZM352.201 518.032H353.321C353.321 521.35 351.991 524.332 348.575 526.362L347.889 525.536C350.871 523.744 352.201 521.224 352.201 518.242V518.032ZM348.449 518.032H352.635V518.984H348.449V518.032ZM371.216 518.718H374.45V519.684H371.216V518.718ZM373.96 516.436H375.122V522.96H373.96V516.436ZM366.974 523.618H375.122V526.642H368.15V528.56H367.016V525.774H373.974V524.542H366.974V523.618ZM367.016 528H375.598V528.924H367.016V528ZM367.87 516.828H368.822V518.018C368.822 520.356 367.422 522.246 365.308 523.002L364.706 522.078C366.61 521.434 367.87 519.852 367.87 518.018V516.828ZM368.066 516.828H369.004V518.018C369.004 519.67 370.278 521.196 372.112 521.798L371.51 522.708C369.466 521.98 368.066 520.16 368.066 518.018V516.828ZM383.632 518.48H387.286V519.432H383.632V518.48ZM383.632 521H387.314V521.938H383.632V521ZM386.838 516.436H388V523.926H386.838V516.436ZM378.172 517.388H383.954V523.016H378.172V517.388ZM382.806 518.326H379.306V522.092H382.806V518.326ZM383.842 524.29C386.446 524.29 388.056 525.172 388.056 526.684C388.056 528.196 386.446 529.064 383.842 529.064C381.224 529.064 379.614 528.196 379.614 526.684C379.614 525.172 381.224 524.29 383.842 524.29ZM383.842 525.214C381.938 525.214 380.776 525.76 380.776 526.684C380.776 527.608 381.938 528.154 383.842 528.154C385.746 528.154 386.908 527.608 386.908 526.684C386.908 525.76 385.746 525.214 383.842 525.214ZM399.129 516.394H400.291V523.38H399.129V516.394ZM399.801 519.432H402.167V520.412H399.801V519.432ZM392.255 524.024H400.291V526.852H393.431V528.392H392.283V526.012H399.157V524.906H392.255V524.024ZM392.283 528.056H400.753V528.952H392.283V528.056ZM390.505 517.57H397.981V518.48H390.505V517.57ZM394.243 519.04C396.063 519.04 397.267 519.838 397.267 521.126C397.267 522.4 396.063 523.184 394.243 523.184C392.395 523.184 391.205 522.4 391.205 521.126C391.205 519.838 392.395 519.04 394.243 519.04ZM394.243 519.894C393.067 519.894 392.311 520.37 392.311 521.126C392.311 521.868 393.067 522.344 394.243 522.344C395.405 522.344 396.161 521.868 396.161 521.126C396.161 520.37 395.405 519.894 394.243 519.894ZM393.655 516.296H394.817V518.2H393.655V516.296ZM406.702 518.242H407.64V520.3C407.64 522.974 406.03 525.662 404.014 526.656L403.342 525.732C405.176 524.864 406.702 522.484 406.702 520.3V518.242ZM406.926 518.242H407.864V520.3C407.864 522.442 409.39 524.626 411.252 525.424L410.594 526.348C408.55 525.396 406.926 522.932 406.926 520.3V518.242ZM403.762 517.724H410.832V518.704H403.762V517.724ZM412.54 516.436H413.702V529.092H412.54V516.436ZM421.377 517.696H429.525V518.662H421.377V517.696ZM420.173 526.362H431.611V527.328H420.173V526.362ZM424.611 521.84H425.773V526.838H424.611V521.84ZM429.091 517.696H430.239V518.956C430.239 520.524 430.239 522.26 429.777 524.822L428.615 524.668C429.091 522.246 429.091 520.468 429.091 518.956V517.696ZM433.71 517.528H439.604V523.422H433.71V517.528ZM438.484 518.466H434.83V522.484H438.484V518.466ZM442.25 516.45H443.426V525.536H442.25V516.45ZM435.292 527.72H443.804V528.686H435.292V527.72ZM435.292 524.668H436.44V528.112H435.292V524.668ZM454.498 516.436H455.66V529.092H454.498V516.436ZM455.38 521.63H457.732V522.61H455.38V521.63ZM445.86 518.452H453.322V519.404H445.86V518.452ZM449.64 520.454C451.432 520.454 452.72 521.658 452.72 523.366C452.72 525.074 451.432 526.278 449.64 526.278C447.862 526.278 446.56 525.074 446.56 523.366C446.56 521.658 447.862 520.454 449.64 520.454ZM449.64 521.42C448.492 521.42 447.666 522.218 447.666 523.366C447.666 524.5 448.492 525.312 449.64 525.312C450.788 525.312 451.614 524.5 451.614 523.366C451.614 522.218 450.788 521.42 449.64 521.42ZM449.038 516.59H450.2V518.886H449.038V516.59ZM460.349 520.23H468.945V521.182H460.349V520.23ZM458.795 522.876H470.275V523.828H458.795V522.876ZM460.349 516.898H461.497V520.706H460.349V516.898ZM460.265 527.832H469.015V528.784H460.265V527.832ZM460.265 525.088H461.413V528.084H460.265V525.088ZM484.866 516.436H486.028V525.004H484.866V516.436ZM482.15 520.006H485.104V520.958H482.15V520.006ZM480.89 517.43H482.108C482.108 520.706 479.952 523.03 476.326 524.206L475.836 523.282C479.042 522.274 480.89 520.37 480.89 517.892V517.43ZM476.438 517.43H481.716V518.382H476.438V517.43ZM481.366 523.912H482.36V524.486C482.36 526.908 480.148 528.546 477.614 529.064L477.152 528.14C479.392 527.734 481.366 526.334 481.366 524.486V523.912ZM481.534 523.912H482.528V524.486C482.528 526.306 484.474 527.706 486.728 528.112L486.238 529.036C483.718 528.532 481.534 526.894 481.534 524.486V523.912ZM489.947 522.344H498.641V523.296H489.947V522.344ZM488.505 526.53H499.971V527.51H488.505V526.53ZM493.629 522.75H494.791V526.922H493.629V522.75ZM489.947 517.444H498.515V518.396H491.109V522.764H489.947V517.444ZM510.445 520.188H511.593V522.12H510.445V520.188ZM510.277 517.206H511.299V517.598C511.299 519.502 508.947 520.72 506.287 520.972L505.909 520.09C508.191 519.908 510.277 518.928 510.277 517.598V517.206ZM510.781 517.206H511.789V517.598C511.789 518.914 513.875 519.908 516.157 520.09L515.779 520.972C513.133 520.72 510.781 519.502 510.781 517.598V517.206ZM506.357 516.828H515.723V517.738H506.357V516.828ZM506.371 524.29H515.695V525.214H506.371V524.29ZM505.307 521.686H516.787V522.624H505.307V521.686ZM511.033 525.83C513.469 525.83 514.827 526.404 514.827 527.496C514.827 528.602 513.469 529.162 511.033 529.162C508.597 529.162 507.225 528.602 507.225 527.496C507.225 526.404 508.597 525.83 511.033 525.83ZM511.033 526.628C509.353 526.628 508.415 526.922 508.415 527.496C508.415 528.07 509.353 528.364 511.033 528.364C512.699 528.364 513.651 528.07 513.651 527.496C513.651 526.922 512.699 526.628 511.033 526.628ZM510.459 523.128H511.607V524.878H510.459V523.128ZM523.912 516.646C526.698 516.646 528.364 517.43 528.364 518.844C528.364 520.258 526.698 521.042 523.912 521.042C521.112 521.042 519.46 520.258 519.46 518.844C519.46 517.43 521.112 516.646 523.912 516.646ZM523.912 517.528C521.84 517.528 520.65 518.004 520.65 518.844C520.65 519.684 521.84 520.16 523.912 520.16C525.97 520.16 527.16 519.684 527.16 518.844C527.16 518.004 525.97 517.528 523.912 517.528ZM518.186 521.882H529.624V522.82H518.186V521.882ZM519.572 523.898H528.168V526.754H520.748V528.294H519.6V525.914H527.02V524.794H519.572V523.898ZM519.6 528.042H528.546V528.952H519.6V528.042ZM544.256 516.436H545.418V529.092H544.256V516.436ZM541.302 521.504H544.774V522.47H541.302V521.504ZM540.196 517.794H541.344C541.344 521.406 539.846 524.598 535.646 526.698L535.002 525.788C538.684 523.982 540.196 521.294 540.196 517.99V517.794ZM535.548 517.794H540.812V518.746H535.548V517.794ZM552.935 519.488H555.399V520.454H552.935V519.488ZM552.935 523.338H555.399V524.304H552.935V523.338ZM557.527 516.436H558.647V529.092H557.527V516.436ZM555.049 516.702H556.141V528.462H555.049V516.702ZM550.737 517.486C552.375 517.486 553.439 519.18 553.439 521.896C553.439 524.612 552.375 526.306 550.737 526.306C549.099 526.306 548.049 524.612 548.049 521.896C548.049 519.18 549.099 517.486 550.737 517.486ZM550.737 518.564C549.743 518.564 549.099 519.852 549.099 521.896C549.099 523.94 549.743 525.228 550.737 525.228C551.745 525.228 552.375 523.94 552.375 521.896C552.375 519.852 551.745 518.564 550.737 518.564ZM563.574 522.946H564.722V526.74H563.574V522.946ZM568.25 522.946H569.412V526.74H568.25V522.946ZM560.774 526.516H572.24V527.482H560.774V526.516ZM566.486 517.234C569.16 517.234 571.078 518.508 571.078 520.496C571.078 522.47 569.16 523.744 566.486 523.744C563.798 523.744 561.88 522.47 561.88 520.496C561.88 518.508 563.798 517.234 566.486 517.234ZM566.486 518.158C564.456 518.158 563 519.082 563 520.496C563 521.896 564.456 522.82 566.486 522.82C568.516 522.82 569.958 521.896 569.958 520.496C569.958 519.082 568.516 518.158 566.486 518.158ZM574.882 528.08C574.637 528.08 574.426 527.992 574.251 527.816C574.075 527.64 573.987 527.43 573.987 527.185C573.987 526.939 574.075 526.729 574.251 526.553C574.426 526.378 574.637 526.29 574.882 526.29C575.127 526.29 575.338 526.378 575.513 526.553C575.689 526.729 575.777 526.939 575.777 527.185C575.777 527.347 575.736 527.496 575.653 527.632C575.573 527.768 575.465 527.877 575.33 527.96C575.197 528.04 575.048 528.08 574.882 528.08ZM580.388 523.705C580.388 524.957 580.224 526.111 579.896 527.165C579.571 528.215 579.105 529.183 578.499 530.068H577.465C577.703 529.74 577.926 529.336 578.131 528.855C578.34 528.378 578.522 527.854 578.678 527.284C578.834 526.711 578.955 526.119 579.041 525.509C579.13 524.896 579.175 524.295 579.175 523.705C579.175 522.916 579.099 522.115 578.946 521.303C578.794 520.491 578.588 519.737 578.33 519.041C578.071 518.345 577.783 517.778 577.465 517.341H578.499C579.105 518.226 579.571 519.195 579.896 520.249C580.224 521.3 580.388 522.452 580.388 523.705Z" fill="black"/>
<path d="M69.0227 459.545L69.1023 457.358L67.2528 458.531L66.7756 457.696L68.7244 456.682L66.7756 455.668L67.2528 454.832L69.1023 456.006L69.0227 453.818H69.9773L69.8977 456.006L71.7472 454.832L72.2244 455.668L70.2756 456.682L72.2244 457.696L71.7472 458.531L69.8977 457.358L69.9773 459.545H69.0227ZM74.19 453.696H80V461.886H74.19V453.696ZM78.866 454.634H75.324V460.948H78.866V454.634ZM82.254 452.436H83.43V465.092H82.254V452.436ZM83.15 457.49H85.502V458.47H83.15V457.49ZM89.9249 454.242H90.8629V456.3C90.8629 458.974 89.2529 461.662 87.2369 462.656L86.5649 461.732C88.3989 460.864 89.9249 458.484 89.9249 456.3V454.242ZM90.1489 454.242H91.0869V456.3C91.0869 458.442 92.6129 460.626 94.4749 461.424L93.8169 462.348C91.7729 461.396 90.1489 458.932 90.1489 456.3V454.242ZM86.9849 453.724H94.0549V454.704H86.9849V453.724ZM95.7629 452.436H96.9249V465.092H95.7629V452.436ZM99.9758 453.374H105.786V458.988H99.9758V453.374ZM104.652 454.312H101.11V458.05H104.652V454.312ZM108.11 452.436H109.272V459.94H108.11V452.436ZM108.95 455.712H111.148V456.692H108.95V455.712ZM101.054 460.612H109.272V465.106H108.11V461.55H101.054V460.612ZM121.398 458.414H122.546V460.36H121.398V458.414ZM116.26 457.77H127.698V458.708H116.26V457.77ZM117.744 452.856H126.214V456.706H117.744V452.856ZM125.08 453.78H118.892V455.782H125.08V453.78ZM117.646 459.94H126.242V462.782H118.822V464.322H117.674V461.942H125.094V460.836H117.646V459.94ZM117.674 464.042H126.62V464.952H117.674V464.042ZM134.865 452.716C137.595 452.716 139.317 453.612 139.317 455.11C139.317 456.608 137.595 457.49 134.865 457.49C132.121 457.49 130.413 456.608 130.413 455.11C130.413 453.612 132.121 452.716 134.865 452.716ZM134.865 453.64C132.849 453.64 131.603 454.172 131.603 455.11C131.603 456.034 132.849 456.58 134.865 456.58C136.867 456.58 138.127 456.034 138.127 455.11C138.127 454.172 136.867 453.64 134.865 453.64ZM130.539 460.752H139.177V464.924H130.539V460.752ZM138.043 461.69H131.687V463.986H138.043V461.69ZM129.139 458.582H140.577V459.52H129.139V458.582ZM142.018 459.086H153.456V460.038H142.018V459.086ZM143.502 463.86H152.196V464.812H143.502V463.86ZM143.502 461.144H144.664V464.154H143.502V461.144ZM147.744 452.856C150.446 452.856 152.196 453.808 152.196 455.39C152.196 456.958 150.446 457.91 147.744 457.91C145.028 457.91 143.292 456.958 143.292 455.39C143.292 453.808 145.028 452.856 147.744 452.856ZM147.744 453.808C145.756 453.808 144.482 454.396 144.482 455.39C144.482 456.384 145.756 456.972 147.744 456.972C149.732 456.972 151.006 456.384 151.006 455.39C151.006 454.396 149.732 453.808 147.744 453.808ZM165.33 455.418H168.522V456.384H165.33V455.418ZM162.012 453.206H162.95V454.76C162.95 457.21 161.578 459.254 159.464 460.108L158.862 459.184C160.738 458.484 162.012 456.692 162.012 454.76V453.206ZM162.236 453.206H163.174V454.802C163.174 456.566 164.406 458.232 166.24 458.904L165.61 459.8C163.594 459.016 162.236 457.056 162.236 454.802V453.206ZM168.088 452.45H169.25V461.914H168.088V452.45ZM161.116 463.86H169.558V464.812H161.116V463.86ZM161.116 460.864H162.278V464.308H161.116V460.864ZM172.259 458.484H173.071C175.059 458.484 176.235 458.442 177.649 458.162L177.761 459.114C176.305 459.394 175.101 459.45 173.071 459.45H172.259V458.484ZM172.259 453.36H177.159V454.312H173.379V459.002H172.259V453.36ZM173.029 455.88H177.005V456.79H173.029V455.88ZM181.275 452.436H182.381V460.108H181.275V452.436ZM179.231 455.74H181.625V456.692H179.231V455.74ZM178.489 452.674H179.581V460.038H178.489V452.674ZM173.897 460.78H182.381V465.092H181.233V461.732H173.897V460.78ZM187.7 453.528H188.652V455.796C188.652 458.596 187.14 461.326 185.138 462.39L184.424 461.466C186.258 460.542 187.7 458.106 187.7 455.796V453.528ZM187.91 453.528H188.848V455.796C188.848 458.022 190.262 460.332 192.054 461.228L191.34 462.152C189.38 461.102 187.91 458.512 187.91 455.796V453.528ZM193.16 452.436H194.336V465.092H193.16V452.436ZM194.056 457.56H196.408V458.54H194.056V457.56ZM206.137 452.436H207.299V460.584H206.137V452.436ZM206.977 455.95H209.175V456.916H206.977V455.95ZM203.323 460.696C205.885 460.696 207.439 461.494 207.439 462.88C207.439 464.266 205.885 465.064 203.323 465.064C200.775 465.064 199.207 464.266 199.207 462.88C199.207 461.494 200.775 460.696 203.323 460.696ZM203.323 461.592C201.475 461.592 200.355 462.068 200.355 462.88C200.355 463.706 201.475 464.168 203.323 464.168C205.185 464.168 206.305 463.706 206.305 462.88C206.305 462.068 205.185 461.592 203.323 461.592ZM197.513 453.864H204.989V454.788H197.513V453.864ZM201.251 455.432C203.057 455.432 204.275 456.3 204.275 457.658C204.275 459.03 203.057 459.898 201.251 459.898C199.431 459.898 198.213 459.03 198.213 457.658C198.213 456.3 199.431 455.432 201.251 455.432ZM201.251 456.314C200.089 456.314 199.319 456.846 199.319 457.658C199.319 458.484 200.089 459.016 201.251 459.016C202.385 459.016 203.169 458.484 203.169 457.658C203.169 456.846 202.385 456.314 201.251 456.314ZM200.663 452.324H201.825V454.382H200.663V452.324ZM219.562 452.436H220.738V459.226H219.562V452.436ZM212.576 459.856H213.724V461.396H219.59V459.856H220.738V464.924H212.576V459.856ZM213.724 462.32V463.986H219.59V462.32H213.724ZM213.948 453.038C215.866 453.038 217.238 454.228 217.238 455.95C217.238 457.686 215.866 458.876 213.948 458.876C212.03 458.876 210.644 457.686 210.644 455.95C210.644 454.228 212.03 453.038 213.948 453.038ZM213.948 454.004C212.688 454.004 211.778 454.802 211.778 455.95C211.778 457.098 212.688 457.896 213.948 457.896C215.208 457.896 216.118 457.098 216.118 455.95C216.118 454.802 215.208 454.004 213.948 454.004ZM232.441 452.436H233.603V465.092H232.441V452.436ZM224.041 453.668H225.189V461.508H224.041V453.668ZM224.041 460.822H225.077C226.995 460.822 228.997 460.682 231.139 460.234L231.279 461.228C229.081 461.676 227.079 461.83 225.077 461.83H224.041V460.822ZM244.676 452.422H245.852V465.106H244.676V452.422ZM245.572 457.42H247.924V458.4H245.572V457.42ZM236.654 460.976H237.648C239.986 460.976 241.624 460.892 243.514 460.542L243.64 461.522C241.694 461.886 240.028 461.956 237.648 461.956H236.654V460.976ZM236.654 453.654H242.534V454.606H237.802V461.41H236.654V453.654ZM250.23 464.08C249.984 464.08 249.774 463.992 249.598 463.816C249.423 463.64 249.335 463.43 249.335 463.185C249.335 462.939 249.423 462.729 249.598 462.553C249.774 462.378 249.984 462.29 250.23 462.29C250.475 462.29 250.685 462.378 250.861 462.553C251.037 462.729 251.125 462.939 251.125 463.185C251.125 463.347 251.083 463.496 251 463.632C250.921 463.768 250.813 463.877 250.677 463.96C250.545 464.04 250.395 464.08 250.23 464.08Z" fill="#8F8F8F"/>
</svg>
