<svg width="124" height="61" viewBox="0 0 124 61" fill="none" xmlns="http://www.w3.org/2000/svg">
<g filter="url(#filter0_d_53_30)">
<rect x="4" width="116" height="53" fill="#FFBBAB"/>
</g>
<path d="M16.2585 37V35.0824L23.4602 27.1989C24.3054 26.2756 25.0014 25.473 25.5483 24.7912C26.0952 24.1023 26.5 23.456 26.7628 22.8523C27.0327 22.2415 27.1676 21.6023 27.1676 20.9347C27.1676 20.1676 26.983 19.5036 26.6136 18.9425C26.2514 18.3814 25.7543 17.9482 25.1222 17.6428C24.4901 17.3374 23.7798 17.1847 22.9915 17.1847C22.1534 17.1847 21.4219 17.3587 20.7969 17.7067C20.179 18.0476 19.6996 18.527 19.3587 19.1449C19.0249 19.7628 18.858 20.4872 18.858 21.3182H16.3438C16.3438 20.0398 16.6385 18.9176 17.228 17.9517C17.8175 16.9858 18.62 16.233 19.6357 15.6932C20.6584 15.1534 21.8054 14.8835 23.0767 14.8835C24.3551 14.8835 25.4879 15.1534 26.4751 15.6932C27.4624 16.233 28.2365 16.9609 28.7976 17.8771C29.3587 18.7933 29.6392 19.8125 29.6392 20.9347C29.6392 21.7372 29.4936 22.522 29.2024 23.2891C28.9183 24.049 28.4212 24.8977 27.7109 25.8352C27.0078 26.7656 26.0312 27.902 24.7812 29.2443L19.8807 34.4858V34.6562H30.0227V37H16.2585ZM48.0341 19.69H54.8741V21.73H48.0341V19.69ZM53.4641 12.25H55.9541V32.11H53.4641V12.25ZM38.6441 36.7H56.7041V38.74H38.6441V36.7ZM38.6441 30.37H41.1341V37.75H38.6441V30.37ZM40.5641 15.61H42.6041V17.8C42.6041 22.72 39.5441 26.98 35.0141 28.66L33.7241 26.68C37.7741 25.24 40.5641 21.64 40.5641 17.8V15.61ZM41.0441 15.61H43.0541V17.77C43.0541 21.28 45.6941 24.7 49.6241 26.08L48.3641 28.03C43.9541 26.44 41.0441 22.36 41.0441 17.77V15.61ZM34.5041 14.44H48.9941V16.45H34.5041V14.44ZM68.4017 14.56H70.4417V19.42C70.4417 25.66 67.0817 31.45 62.6417 33.7L61.1117 31.66C65.1317 29.74 68.4017 24.55 68.4017 19.42V14.56ZM68.8217 14.56H70.8617V19.42C70.8617 24.37 74.1017 29.35 78.1217 31.21L76.6217 33.19C72.2117 31.03 68.8217 25.45 68.8217 19.42V14.56ZM80.9417 12.19H83.4317V39.37H80.9417V12.19ZM90.2994 14.32H102.299V16.36H90.2994V14.32ZM94.3794 20.38H96.8394V27.16H94.3794V20.38ZM101.309 14.32H103.769V15.76C103.769 17.53 103.769 20.23 103.049 23.8L100.619 23.53C101.309 19.96 101.309 17.5 101.309 15.76V14.32ZM107.459 12.22H109.949V32.65H107.459V12.22ZM108.809 21.04H113.819V23.11H108.809V21.04ZM92.8194 36.7H110.819V38.74H92.8194V36.7ZM92.8194 30.76H95.2794V37.33H92.8194V30.76ZM88.9194 28.33L88.6494 26.29C93.4794 26.29 100.139 26.17 105.629 25.42L105.809 27.22C100.169 28.21 93.6894 28.33 88.9194 28.33Z" fill="#EA8585"/>
<defs>
<filter id="filter0_d_53_30" x="0" y="0" width="124" height="61" filterUnits="userSpaceOnUse" color-interpolation-filters="sRGB">
<feFlood flood-opacity="0" result="BackgroundImageFix"/>
<feColorMatrix in="SourceAlpha" type="matrix" values="0 0 0 0 0 0 0 0 0 0 0 0 0 0 0 0 0 0 127 0" result="hardAlpha"/>
<feOffset dy="4"/>
<feGaussianBlur stdDeviation="2"/>
<feComposite in2="hardAlpha" operator="out"/>
<feColorMatrix type="matrix" values="0 0 0 0 0 0 0 0 0 0 0 0 0 0 0 0 0 0 0.25 0"/>
<feBlend mode="normal" in2="BackgroundImageFix" result="effect1_dropShadow_53_30"/>
<feBlend mode="normal" in="SourceGraphic" in2="effect1_dropShadow_53_30" result="shape"/>
</filter>
</defs>
</svg>
