<svg width="1223" height="242" viewBox="0 0 1223 242" fill="none" xmlns="http://www.w3.org/2000/svg">
<rect width="1223" height="242" fill="#FFD0C5"/>
<g filter="url(#filter0_di_118_137)">
<rect x="13" y="7.875" width="1197" height="219.068" fill="#FFB5A4"/>
</g>
<g filter="url(#filter1_di_118_137)">
<rect width="1134" height="189.716" transform="matrix(1 0 0 -1 44 211.193)" fill="#FFD0C5"/>
</g>
<path d="M321.493 96V94.0824L328.695 86.1989C329.54 85.2756 330.236 84.473 330.783 83.7912C331.33 83.1023 331.734 82.456 331.997 81.8523C332.267 81.2415 332.402 80.6023 332.402 79.9347C332.402 79.1676 332.217 78.5036 331.848 77.9425C331.486 77.3814 330.989 76.9482 330.357 76.6428C329.724 76.3374 329.014 76.1847 328.226 76.1847C327.388 76.1847 326.656 76.3587 326.031 76.7067C325.413 77.0476 324.934 77.527 324.593 78.1449C324.259 78.7628 324.092 79.4872 324.092 80.3182H321.578C321.578 79.0398 321.873 77.9176 322.462 76.9517C323.052 75.9858 323.854 75.233 324.87 74.6932C325.893 74.1534 327.04 73.8835 328.311 73.8835C329.589 73.8835 330.722 74.1534 331.71 74.6932C332.697 75.233 333.471 75.9609 334.032 76.8771C334.593 77.7933 334.874 78.8125 334.874 79.9347C334.874 80.7372 334.728 81.522 334.437 82.2891C334.153 83.049 333.656 83.8977 332.945 84.8352C332.242 85.7656 331.266 86.902 330.016 88.2443L325.115 93.4858V93.6562H335.257V96H321.493ZM353.268 78.69H360.108V80.73H353.268V78.69ZM358.698 71.25H361.188V91.11H358.698V71.25ZM343.878 95.7H361.938V97.74H343.878V95.7ZM343.878 89.37H346.368V96.75H343.878V89.37ZM345.798 74.61H347.838V76.8C347.838 81.72 344.778 85.98 340.248 87.66L338.958 85.68C343.008 84.24 345.798 80.64 345.798 76.8V74.61ZM346.278 74.61H348.288V76.77C348.288 80.28 350.928 83.7 354.858 85.08L353.598 87.03C349.188 85.44 346.278 81.36 346.278 76.77V74.61ZM339.738 73.44H354.228V75.45H339.738V73.44ZM373.636 73.56H375.676V78.42C375.676 84.66 372.316 90.45 367.876 92.7L366.346 90.66C370.366 88.74 373.636 83.55 373.636 78.42V73.56ZM374.056 73.56H376.096V78.42C376.096 83.37 379.336 88.35 383.356 90.21L381.856 92.19C377.446 90.03 374.056 84.45 374.056 78.42V73.56ZM386.176 71.19H388.666V98.37H386.176V71.19ZM395.534 73.32H407.534V75.36H395.534V73.32ZM399.614 79.38H402.074V86.16H399.614V79.38ZM406.544 73.32H409.004V74.76C409.004 76.53 409.004 79.23 408.284 82.8L405.854 82.53C406.544 78.96 406.544 76.5 406.544 74.76V73.32ZM412.694 71.22H415.184V91.65H412.694V71.22ZM414.044 80.04H419.054V82.11H414.044V80.04ZM398.054 95.7H416.054V97.74H398.054V95.7ZM398.054 89.76H400.514V96.33H398.054V89.76ZM394.154 87.33L393.884 85.29C398.714 85.29 405.374 85.17 410.864 84.42L411.044 86.22C405.404 87.21 398.924 87.33 394.154 87.33ZM421.661 85.47H446.171V87.51H421.661V85.47ZM424.841 95.7H443.471V97.74H424.841V95.7ZM424.841 89.88H427.331V96.33H424.841V89.88ZM433.931 72.12C439.721 72.12 443.471 74.16 443.471 77.55C443.471 80.91 439.721 82.95 433.931 82.95C428.111 82.95 424.391 80.91 424.391 77.55C424.391 74.16 428.111 72.12 433.931 72.12ZM433.931 74.16C429.671 74.16 426.941 75.42 426.941 77.55C426.941 79.68 429.671 80.94 433.931 80.94C438.191 80.94 440.921 79.68 440.921 77.55C440.921 75.42 438.191 74.16 433.931 74.16ZM464.927 74.01H466.997V76.17C466.997 81.15 463.937 85.32 459.377 86.94L458.087 84.99C462.167 83.55 464.927 80.01 464.927 76.17V74.01ZM465.407 74.01H467.477V76.17C467.477 79.83 470.297 83.13 474.317 84.48L473.027 86.43C468.527 84.9 465.407 80.91 465.407 76.17V74.01ZM477.437 71.22H479.957V87.63H477.437V71.22ZM461.837 89.07H479.957V98.34H477.437V91.11H461.837V89.07ZM458.747 73.11H473.597V75.12H458.747V73.11ZM499.784 77.79H505.814V79.83H499.784V77.79ZM505.124 71.22H507.614V85.95H505.124V71.22ZM490.244 87.27H492.704V90.57H505.154V87.27H507.614V97.98H490.244V87.27ZM492.704 92.58V95.94H505.154V92.58H492.704ZM492.224 73.35H494.264V75.57C494.264 80.49 491.204 84.75 486.674 86.43L485.384 84.42C489.434 83.01 492.224 79.41 492.224 75.57V73.35ZM492.704 73.35H494.714V75.54C494.714 79.05 497.354 82.44 501.284 83.82L500.024 85.77C495.614 84.18 492.704 80.1 492.704 75.54V73.35ZM486.164 72.84H500.654V74.85H486.164V72.84ZM528.019 74.01H530.059V76.2C530.059 81.18 527.059 85.32 522.529 86.94L521.209 84.99C525.319 83.55 528.019 80.07 528.019 76.2V74.01ZM528.469 74.01H530.509V76.17C530.509 79.77 533.119 83.1 537.109 84.45L535.819 86.4C531.349 84.84 528.469 80.85 528.469 76.17V74.01ZM521.989 73.11H536.479V75.15H521.989V73.11ZM539.899 71.22H542.389V87.54H539.899V71.22ZM541.699 78.36H546.409V80.43H541.699V78.36ZM524.779 88.98H542.389V98.34H539.899V91.05H524.779V88.98ZM559.967 85.62H562.427V90.3H559.967V85.62ZM548.927 84.3H573.437V86.34H548.927V84.3ZM551.207 72.06H571.127V74.1H551.207V72.06ZM551.327 79.77H571.007V81.81H551.327V79.77ZM555.317 72.96H557.807V81.09H555.317V72.96ZM564.557 72.96H567.017V81.09H564.557V72.96ZM551.927 89.49H570.437V97.98H551.927V89.49ZM568.007 91.47H554.387V95.97H568.007V91.47ZM588.795 71.67C594.765 71.67 598.335 73.35 598.335 76.38C598.335 79.41 594.765 81.09 588.795 81.09C582.795 81.09 579.255 79.41 579.255 76.38C579.255 73.35 582.795 71.67 588.795 71.67ZM588.795 73.56C584.355 73.56 581.805 74.58 581.805 76.38C581.805 78.18 584.355 79.2 588.795 79.2C593.205 79.2 595.755 78.18 595.755 76.38C595.755 74.58 593.205 73.56 588.795 73.56ZM576.525 82.89H601.035V84.9H576.525V82.89ZM579.495 87.21H597.915V93.33H582.015V96.63H579.555V91.53H595.455V89.13H579.495V87.21ZM579.555 96.09H598.725V98.04H579.555V96.09ZM626.51 76.11H633.44V78.18H626.51V76.11ZM632.39 71.22H634.88V85.2H632.39V71.22ZM617.42 86.61H634.88V93.09H619.94V97.2H617.51V91.23H632.42V88.59H617.42V86.61ZM617.51 96H635.9V97.98H617.51V96ZM619.34 72.06H621.38V74.61C621.38 79.62 618.38 83.67 613.85 85.29L612.56 83.31C616.64 81.93 619.34 78.54 619.34 74.61V72.06ZM619.76 72.06H621.77V74.61C621.77 78.15 624.5 81.42 628.43 82.71L627.14 84.66C622.76 83.1 619.76 79.2 619.76 74.61V72.06ZM653.118 75.6H660.948V77.64H653.118V75.6ZM653.118 81H661.008V83.01H653.118V81ZM659.988 71.22H662.478V87.27H659.988V71.22ZM641.418 73.26H653.808V85.32H641.418V73.26ZM651.348 75.27H643.848V83.34H651.348V75.27ZM653.568 88.05C659.148 88.05 662.598 89.94 662.598 93.18C662.598 96.42 659.148 98.28 653.568 98.28C647.958 98.28 644.508 96.42 644.508 93.18C644.508 89.94 647.958 88.05 653.568 88.05ZM653.568 90.03C649.488 90.03 646.998 91.2 646.998 93.18C646.998 95.16 649.488 96.33 653.568 96.33C657.648 96.33 660.138 95.16 660.138 93.18C660.138 91.2 657.648 90.03 653.568 90.03ZM667.725 75.84H681.165V77.88H667.725V75.84ZM674.445 79.68C677.835 79.68 680.295 82.23 680.295 85.89C680.295 89.52 677.835 92.07 674.445 92.07C671.085 92.07 668.625 89.52 668.625 85.89C668.625 82.23 671.085 79.68 674.445 79.68ZM674.445 81.81C672.375 81.81 670.875 83.49 670.875 85.89C670.875 88.29 672.375 89.97 674.445 89.97C676.545 89.97 678.075 88.29 678.075 85.89C678.075 83.49 676.545 81.81 674.445 81.81ZM688.335 71.22H690.735V98.34H688.335V71.22ZM684.015 82.62H689.145V84.69H684.015V82.62ZM682.545 71.82H684.885V97.02H682.545V71.82ZM673.245 72H675.705V77.1H673.245V72ZM695.383 92.82H719.953V94.89H695.383V92.82ZM706.363 86.34H708.853V93.42H706.363V86.34ZM698.263 73.14H700.723V77.97H714.553V73.14H717.013V87H698.263V73.14ZM700.723 79.98V84.96H714.553V79.98H700.723ZM726.28 79.35H744.7V81.39H726.28V79.35ZM722.95 85.02H747.55V87.06H722.95V85.02ZM726.28 72.21H728.74V80.37H726.28V72.21ZM726.1 95.64H744.85V97.68H726.1V95.64ZM726.1 89.76H728.56V96.18H726.1V89.76ZM771.166 88.32C776.926 88.32 780.616 90.21 780.616 93.33C780.616 96.42 776.926 98.28 771.166 98.28C765.376 98.28 761.716 96.42 761.716 93.33C761.716 90.21 765.376 88.32 771.166 88.32ZM771.166 90.27C766.906 90.27 764.176 91.44 764.176 93.33C764.176 95.19 766.906 96.36 771.166 96.36C775.426 96.36 778.126 95.19 778.126 93.33C778.126 91.44 775.426 90.27 771.166 90.27ZM761.926 72.57H779.386V74.61H761.926V72.57ZM759.016 83.85H783.496V85.86H759.016V83.85ZM769.066 78.63H771.526V84.42H769.066V78.63ZM777.946 72.57H780.376V74.88C780.376 77.07 780.376 79.26 779.656 82.08L777.196 81.78C777.946 78.99 777.946 77.01 777.946 74.88V72.57ZM805.153 71.22H807.643V91.05H805.153V71.22ZM806.863 79.44H811.663V81.51H806.863V79.44ZM797.743 73.32H800.383C800.383 80.34 795.463 85.47 787.693 87.96L786.613 85.92C793.453 83.82 797.743 79.62 797.743 74.4V73.32ZM787.723 73.32H799.003V75.36H787.723V73.32ZM790.723 95.7H808.843V97.74H790.723V95.7ZM790.723 89.04H793.213V96.51H790.723V89.04ZM833.921 71.22H836.441V85.77H833.921V71.22ZM818.951 87.12H821.411V90.42H833.981V87.12H836.441V97.98H818.951V87.12ZM821.411 92.4V95.97H833.981V92.4H821.411ZM821.891 72.51C826.001 72.51 828.941 75.06 828.941 78.75C828.941 82.47 826.001 85.02 821.891 85.02C817.781 85.02 814.811 82.47 814.811 78.75C814.811 75.06 817.781 72.51 821.891 72.51ZM821.891 74.58C819.191 74.58 817.241 76.29 817.241 78.75C817.241 81.21 819.191 82.92 821.891 82.92C824.591 82.92 826.541 81.21 826.541 78.75C826.541 76.29 824.591 74.58 821.891 74.58ZM861.519 71.22H864.009V98.34H861.519V71.22ZM843.519 73.86H845.979V90.66H843.519V73.86ZM843.519 89.19H845.739C849.849 89.19 854.139 88.89 858.729 87.93L859.029 90.06C854.319 91.02 850.029 91.35 845.739 91.35H843.519V89.19ZM887.736 71.19H890.256V98.37H887.736V71.19ZM889.656 81.9H894.696V84H889.656V81.9ZM870.546 89.52H872.676C877.686 89.52 881.196 89.34 885.246 88.59L885.516 90.69C881.346 91.47 877.776 91.62 872.676 91.62H870.546V89.52ZM870.546 73.83H883.146V75.87H873.006V90.45H870.546V73.83ZM899.637 96.1705C899.112 96.1705 898.661 95.9822 898.284 95.6058C897.908 95.2294 897.72 94.7784 897.72 94.2528C897.72 93.7273 897.908 93.2763 898.284 92.8999C898.661 92.5234 899.112 92.3352 899.637 92.3352C900.163 92.3352 900.614 92.5234 900.99 92.8999C901.367 93.2763 901.555 93.7273 901.555 94.2528C901.555 94.6009 901.466 94.9205 901.289 95.2116C901.118 95.5028 900.887 95.7372 900.596 95.9148C900.312 96.0852 899.993 96.1705 899.637 96.1705ZM177.593 110.1H195.053V112.11H177.593V110.1ZM174.953 128.31H199.463V130.38H174.953V128.31ZM193.733 110.1H196.163V112.8C196.163 116.28 196.163 120.15 195.143 126L192.653 125.76C193.733 120.21 193.733 116.16 193.733 112.8V110.1ZM222.261 107.22H224.781V123.3H222.261V107.22ZM203.931 119.97H206.121C211.041 119.97 214.671 119.82 219.021 119.13L219.291 121.14C214.821 121.89 211.161 122.04 206.121 122.04H203.931V119.97ZM203.871 108.84H216.171V116.25H206.361V121.2H203.931V114.33H213.741V110.88H203.871V108.84ZM207.261 124.8H224.781V133.98H207.261V124.8ZM222.321 126.78H209.691V131.97H222.321V126.78ZM242.388 107.67C248.358 107.67 251.928 109.35 251.928 112.38C251.928 115.41 248.358 117.09 242.388 117.09C236.388 117.09 232.848 115.41 232.848 112.38C232.848 109.35 236.388 107.67 242.388 107.67ZM242.388 109.56C237.948 109.56 235.398 110.58 235.398 112.38C235.398 114.18 237.948 115.2 242.388 115.2C246.798 115.2 249.348 114.18 249.348 112.38C249.348 110.58 246.798 109.56 242.388 109.56ZM230.118 118.89H254.628V120.9H230.118V118.89ZM233.088 123.21H251.508V129.33H235.608V132.63H233.148V127.53H249.048V125.13H233.088V123.21ZM233.148 132.09H252.318V134.04H233.148V132.09ZM266.184 128.82H290.754V130.89H266.184V128.82ZM277.164 122.34H279.654V129.42H277.164V122.34ZM269.064 109.14H271.524V113.97H285.354V109.14H287.814V123H269.064V109.14ZM271.524 115.98V120.96H285.354V115.98H271.524ZM296.361 109.92H313.821V111.99H296.361V109.92ZM293.781 128.49H318.291V130.56H293.781V128.49ZM303.291 118.8H305.781V129.51H303.291V118.8ZM312.891 109.92H315.351V112.62C315.351 115.98 315.351 119.7 314.361 125.19L311.871 124.86C312.891 119.67 312.891 115.86 312.891 112.62V109.92ZM336.566 123.9H338.486V125.37C338.486 128.91 336.266 132.48 332.366 133.98L331.106 132.12C334.526 130.89 336.566 127.98 336.566 125.37V123.9ZM337.106 123.9H338.966V125.37C338.966 128.1 340.586 131.01 343.826 132.33L342.776 134.22C338.876 132.69 337.106 128.97 337.106 125.37V123.9ZM346.586 123.9H348.446V125.37C348.446 128.55 346.646 132.57 342.776 134.22L341.726 132.33C344.936 130.86 346.586 127.71 346.586 125.37V123.9ZM347.096 123.9H349.016V125.37C349.016 128.16 351.026 130.95 354.476 132.12L353.216 133.98C349.256 132.54 347.096 129.12 347.096 125.37V123.9ZM349.526 107.25H352.046V122.73H349.526V107.25ZM337.496 108.81C341.606 108.81 344.546 111.39 344.546 115.14C344.546 118.89 341.606 121.44 337.496 121.44C333.386 121.44 330.416 118.89 330.416 115.14C330.416 111.39 333.386 108.81 337.496 108.81ZM337.496 110.88C334.796 110.88 332.846 112.62 332.846 115.14C332.846 117.66 334.796 119.37 337.496 119.37C340.196 119.37 342.146 117.66 342.146 115.14C342.146 112.62 340.196 110.88 337.496 110.88ZM364.584 111.09H366.594V115.5C366.594 121.23 363.144 126.99 358.824 129.12L357.384 127.14C361.314 125.28 364.584 120.18 364.584 115.5V111.09ZM365.064 111.09H367.074V115.5C367.074 120.09 370.344 124.77 374.334 126.48L372.924 128.46C368.544 126.42 365.064 121.14 365.064 115.5V111.09ZM358.284 109.98H373.434V112.08H358.284V109.98ZM377.094 107.22H379.584V134.34H377.094V107.22ZM400.919 108.75C404.969 108.75 407.939 111.33 407.939 115.02C407.939 118.71 404.969 121.29 400.919 121.29C396.899 121.29 393.929 118.71 393.929 115.02C393.929 111.33 396.899 108.75 400.919 108.75ZM400.919 110.79C398.339 110.79 396.359 112.56 396.359 115.02C396.359 117.48 398.339 119.25 400.919 119.25C403.559 119.25 405.539 117.48 405.539 115.02C405.539 112.56 403.559 110.79 400.919 110.79ZM411.989 107.22H414.479V120.72H411.989V107.22ZM413.399 113.31H418.499V115.35H413.399V113.31ZM396.269 131.58H397.559C399.179 131.58 401.789 131.43 404.099 130.65L404.519 132.66C401.909 133.5 399.419 133.62 397.559 133.62H396.269V131.58ZM396.269 123.66H398.699V132.3H396.269V123.66ZM403.529 123.84H417.149V125.7H403.529V123.84ZM410.369 126.66C413.309 126.66 415.379 128.13 415.379 130.47C415.379 132.84 413.309 134.31 410.369 134.31C407.399 134.31 405.329 132.84 405.329 130.47C405.329 128.13 407.399 126.66 410.369 126.66ZM410.369 128.43C408.689 128.43 407.549 129.24 407.549 130.47C407.549 131.73 408.689 132.54 410.369 132.54C411.989 132.54 413.159 131.73 413.159 130.47C413.159 129.24 411.989 128.43 410.369 128.43ZM409.139 121.41H411.569V125.28H409.139V121.41ZM421.017 121.47H445.527V123.51H421.017V121.47ZM424.197 131.7H442.827V133.74H424.197V131.7ZM424.197 125.88H426.687V132.33H424.197V125.88ZM433.287 108.12C439.077 108.12 442.827 110.16 442.827 113.55C442.827 116.91 439.077 118.95 433.287 118.95C427.467 118.95 423.747 116.91 423.747 113.55C423.747 110.16 427.467 108.12 433.287 108.12ZM433.287 110.16C429.027 110.16 426.297 111.42 426.297 113.55C426.297 115.68 429.027 116.94 433.287 116.94C437.547 116.94 440.277 115.68 440.277 113.55C440.277 111.42 437.547 110.16 433.287 110.16ZM460.232 116.31H478.802V118.35H460.232V116.31ZM457.082 122.43H481.652V124.47H457.082V122.43ZM468.032 123.54H470.492V134.34H468.032V123.54ZM460.232 108.57H462.722V117.33H460.232V108.57ZM487.8 108.66H505.11V110.67H487.8V108.66ZM484.68 119.16H509.25V121.17H484.68V119.16ZM495.81 120.39H498.3V127.71H495.81V120.39ZM503.64 108.66H506.07V110.82C506.07 113.28 506.07 116.16 505.17 120.24L502.74 119.91C503.64 116.01 503.64 113.22 503.64 110.82V108.66ZM487.77 131.7H506.61V133.74H487.77V131.7ZM487.77 125.28H490.26V132.24H487.77V125.28ZM530.607 107.19H533.127V134.34H530.607V107.19ZM532.437 118.2H537.447V120.27H532.437V118.2ZM523.677 110.13H526.107C526.107 117.84 522.567 124.8 513.807 129.21L512.427 127.29C519.927 123.48 523.677 117.69 523.677 110.52V110.13ZM513.687 110.13H524.967V112.17H513.687V110.13ZM550.855 117.75H555.985V119.82H550.855V117.75ZM560.515 107.22H562.915V134.34H560.515V107.22ZM555.145 107.79H557.515V132.99H555.145V107.79ZM545.965 109.47C549.475 109.47 551.755 113.1 551.755 118.92C551.755 124.74 549.475 128.37 545.965 128.37C542.455 128.37 540.205 124.74 540.205 118.92C540.205 113.1 542.455 109.47 545.965 109.47ZM545.965 111.78C543.835 111.78 542.485 114.54 542.485 118.92C542.485 123.3 543.835 126.06 545.965 126.06C548.125 126.06 549.475 123.3 549.475 118.92C549.475 114.54 548.125 111.78 545.965 111.78ZM588.113 107.22H590.513V134.34H588.113V107.22ZM576.353 118.29H583.193V120.3H576.353V118.29ZM582.473 107.91H584.813V132.96H582.473V107.91ZM576.683 110.64H579.083C579.083 117.75 576.233 124.14 568.913 128.49L567.443 126.72C573.833 122.88 576.683 117.48 576.683 111.09V110.64ZM568.643 110.64H577.613V112.68H568.643V110.64ZM610.528 123.39H613.018V127.8H610.528V123.39ZM621.928 107.22H624.418V134.34H621.928V107.22ZM623.608 118.74H628.618V120.84H623.608V118.74ZM603.538 129.18L603.178 127.11C608.038 127.11 614.668 127.05 620.278 126.24L620.488 128.1C614.638 129.15 608.278 129.18 603.538 129.18ZM603.628 110.49H619.858V112.5H603.628V110.49ZM611.758 114.09C615.538 114.09 618.148 116.07 618.148 119.1C618.148 122.16 615.538 124.11 611.758 124.11C607.978 124.11 605.398 122.16 605.398 119.1C605.398 116.07 607.978 114.09 611.758 114.09ZM611.758 116.01C609.328 116.01 607.738 117.24 607.738 119.1C607.738 120.96 609.328 122.19 611.758 122.19C614.188 122.19 615.808 120.96 615.808 119.1C615.808 117.24 614.188 116.01 611.758 116.01ZM610.528 107.25H613.018V111.84H610.528V107.25ZM644.095 111.99H651.685V114.03H644.095V111.99ZM644.095 117.78H651.745V119.85H644.095V117.78ZM632.335 109.56H644.725V122.28H632.335V109.56ZM642.265 111.57H634.765V120.27H642.265V111.57ZM650.905 107.25H653.395V127.05H650.905V107.25ZM635.965 131.7H654.055V133.74H635.965V131.7ZM635.965 125.25H638.455V132.63H635.965V125.25ZM669.683 117.75H674.813V119.82H669.683V117.75ZM679.343 107.22H681.743V134.34H679.343V107.22ZM673.973 107.79H676.343V132.99H673.973V107.79ZM664.793 109.47C668.303 109.47 670.583 113.1 670.583 118.92C670.583 124.74 668.303 128.37 664.793 128.37C661.283 128.37 659.033 124.74 659.033 118.92C659.033 113.1 661.283 109.47 664.793 109.47ZM664.793 111.78C662.663 111.78 661.313 114.54 661.313 118.92C661.313 123.3 662.663 126.06 664.793 126.06C666.953 126.06 668.303 123.3 668.303 118.92C668.303 114.54 666.953 111.78 664.793 111.78ZM714.898 118.02H719.908V120.12H714.898V118.02ZM713.068 107.19H715.588V134.34H713.068V107.19ZM695.788 109.86H698.278V126.66H695.788V109.86ZM695.788 125.37H697.948C701.968 125.37 706.078 125.1 710.548 124.17L710.848 126.24C706.228 127.2 702.058 127.47 697.948 127.47H695.788V125.37ZM723.476 125.76H725.606C730.616 125.76 734.066 125.64 738.146 124.92L738.416 126.96C734.216 127.68 730.676 127.83 725.606 127.83H723.476V125.76ZM723.476 109.68H736.106V111.75H725.966V126.48H723.476V109.68ZM725.336 117.27H735.506V119.28H725.336V117.27ZM740.666 107.22H743.186V134.34H740.666V107.22ZM742.586 118.11H747.626V120.21H742.586V118.11ZM751.224 109.17H753.714V120.63H751.224V109.17ZM751.224 119.85H753.384C757.254 119.85 761.304 119.58 765.744 118.68L766.044 120.72C761.484 121.68 757.404 121.95 753.384 121.95H751.224V119.85ZM768.474 107.25H770.964V126.84H768.474V107.25ZM770.184 115.26H774.984V117.39H770.184V115.26ZM754.164 131.7H771.924V133.74H754.164V131.7ZM754.164 124.92H756.654V132.66H754.164V124.92ZM788.609 110.1H806.069V112.11H788.609V110.1ZM785.969 128.31H810.479V130.38H785.969V128.31ZM804.749 110.1H807.179V112.8C807.179 116.28 807.179 120.15 806.159 126L803.669 125.76C804.749 120.21 804.749 116.16 804.749 112.8V110.1ZM833.276 107.22H835.796V123.3H833.276V107.22ZM814.946 119.97H817.136C822.056 119.97 825.686 119.82 830.036 119.13L830.306 121.14C825.836 121.89 822.176 122.04 817.136 122.04H814.946V119.97ZM814.886 108.84H827.186V116.25H817.376V121.2H814.946V114.33H824.756V110.88H814.886V108.84ZM818.276 124.8H835.796V133.98H818.276V124.8ZM833.336 126.78H820.706V131.97H833.336V126.78ZM853.404 107.67C859.374 107.67 862.944 109.35 862.944 112.38C862.944 115.41 859.374 117.09 853.404 117.09C847.404 117.09 843.864 115.41 843.864 112.38C843.864 109.35 847.404 107.67 853.404 107.67ZM853.404 109.56C848.964 109.56 846.414 110.58 846.414 112.38C846.414 114.18 848.964 115.2 853.404 115.2C857.814 115.2 860.364 114.18 860.364 112.38C860.364 110.58 857.814 109.56 853.404 109.56ZM841.134 118.89H865.644V120.9H841.134V118.89ZM844.104 123.21H862.524V129.33H846.624V132.63H844.164V127.53H860.064V125.13H844.104V123.21ZM844.164 132.09H863.334V134.04H844.164V132.09ZM891.119 112.11H898.049V114.18H891.119V112.11ZM896.999 107.22H899.489V121.2H896.999V107.22ZM882.029 122.61H899.489V129.09H884.549V133.2H882.119V127.23H897.029V124.59H882.029V122.61ZM882.119 132H900.509V133.98H882.119V132ZM883.949 108.06H885.989V110.61C885.989 115.62 882.989 119.67 878.459 121.29L877.169 119.31C881.249 117.93 883.949 114.54 883.949 110.61V108.06ZM884.369 108.06H886.379V110.61C886.379 114.15 889.109 117.42 893.039 118.71L891.749 120.66C887.369 119.1 884.369 115.2 884.369 110.61V108.06ZM917.727 111.6H925.557V113.64H917.727V111.6ZM917.727 117H925.617V119.01H917.727V117ZM924.597 107.22H927.087V123.27H924.597V107.22ZM906.027 109.26H918.417V121.32H906.027V109.26ZM915.957 111.27H908.457V119.34H915.957V111.27ZM918.177 124.05C923.757 124.05 927.207 125.94 927.207 129.18C927.207 132.42 923.757 134.28 918.177 134.28C912.567 134.28 909.117 132.42 909.117 129.18C909.117 125.94 912.567 124.05 918.177 124.05ZM918.177 126.03C914.097 126.03 911.607 127.2 911.607 129.18C911.607 131.16 914.097 132.33 918.177 132.33C922.257 132.33 924.747 131.16 924.747 129.18C924.747 127.2 922.257 126.03 918.177 126.03ZM932.335 111.84H945.775V113.88H932.335V111.84ZM939.055 115.68C942.445 115.68 944.905 118.23 944.905 121.89C944.905 125.52 942.445 128.07 939.055 128.07C935.695 128.07 933.235 125.52 933.235 121.89C933.235 118.23 935.695 115.68 939.055 115.68ZM939.055 117.81C936.985 117.81 935.485 119.49 935.485 121.89C935.485 124.29 936.985 125.97 939.055 125.97C941.155 125.97 942.685 124.29 942.685 121.89C942.685 119.49 941.155 117.81 939.055 117.81ZM952.945 107.22H955.345V134.34H952.945V107.22ZM948.625 118.62H953.755V120.69H948.625V118.62ZM947.155 107.82H949.495V133.02H947.155V107.82ZM937.855 108H940.315V113.1H937.855V108ZM970.852 109.89H973.012V111.03C973.012 115.89 967.852 119.46 962.392 120.39L961.432 118.41C966.202 117.72 970.852 114.6 970.852 111.03V109.89ZM971.482 109.89H973.612V111.03C973.612 114.6 978.292 117.72 983.032 118.41L982.102 120.39C976.612 119.46 971.482 115.89 971.482 111.03V109.89ZM970.942 123.99H973.402V134.34H970.942V123.99ZM959.992 122.67H984.502V124.71H959.992V122.67ZM962.272 108.9H982.132V110.91H962.272V108.9ZM998.27 116.91H1003.46V118.98H998.27V116.91ZM993.2 109.77H995.15V114.93C995.15 120.6 992.78 126.09 988.82 128.52L987.26 126.63C990.98 124.44 993.2 119.58 993.2 114.93V109.77ZM993.68 109.77H995.6V114.84C995.6 119.19 997.64 123.81 1001.21 125.97L999.77 127.92C995.87 125.52 993.68 120.12 993.68 114.84V109.77ZM1008.23 107.22H1010.63V134.34H1008.23V107.22ZM1002.74 107.79H1005.08V132.99H1002.74V107.79ZM1021.19 121.17H1023.65V129.3H1021.19V121.17ZM1031.21 121.17H1033.7V129.3H1031.21V121.17ZM1015.19 128.82H1039.76V130.89H1015.19V128.82ZM1027.43 108.93C1033.16 108.93 1037.27 111.66 1037.27 115.92C1037.27 120.15 1033.16 122.88 1027.43 122.88C1021.67 122.88 1017.56 120.15 1017.56 115.92C1017.56 111.66 1021.67 108.93 1027.43 108.93ZM1027.43 110.91C1023.08 110.91 1019.96 112.89 1019.96 115.92C1019.96 118.92 1023.08 120.9 1027.43 120.9C1031.78 120.9 1034.87 118.92 1034.87 115.92C1034.87 112.89 1031.78 110.91 1027.43 110.91ZM1045.42 132.17C1044.89 132.17 1044.44 131.982 1044.07 131.606C1043.69 131.229 1043.5 130.778 1043.5 130.253C1043.5 129.727 1043.69 129.276 1044.07 128.9C1044.44 128.523 1044.89 128.335 1045.42 128.335C1045.94 128.335 1046.4 128.523 1046.77 128.9C1047.15 129.276 1047.34 129.727 1047.34 130.253C1047.34 130.601 1047.25 130.92 1047.07 131.212C1046.9 131.503 1046.67 131.737 1046.38 131.915C1046.09 132.085 1045.77 132.17 1045.42 132.17ZM139.215 145.32H151.215V147.36H139.215V145.32ZM143.295 151.38H145.755V158.16H143.295V151.38ZM150.225 145.32H152.685V146.76C152.685 148.53 152.685 151.23 151.965 154.8L149.535 154.53C150.225 150.96 150.225 148.5 150.225 146.76V145.32ZM156.375 143.22H158.865V163.65H156.375V143.22ZM157.725 152.04H162.735V154.11H157.725V152.04ZM141.735 167.7H159.735V169.74H141.735V167.7ZM141.735 161.76H144.195V168.33H141.735V161.76ZM137.835 159.33L137.565 157.29C142.395 157.29 149.055 157.17 154.545 156.42L154.725 158.22C149.085 159.21 142.605 159.33 137.835 159.33ZM183.913 143.25H186.403V159.39H183.913V143.25ZM185.653 150.15H190.423V152.25H185.653V150.15ZM169.303 160.74H186.403V169.98H169.303V160.74ZM183.973 162.72H171.763V167.97H183.973V162.72ZM166.543 155.94H168.673C173.593 155.94 177.103 155.82 181.333 155.07L181.543 157.11C177.253 157.83 173.683 158.01 168.673 158.01H166.543V155.94ZM166.483 144.69H178.693V152.13H168.973V157.11H166.543V150.21H176.233V146.73H166.483V144.69ZM199.661 147.09H201.641V151.5C201.641 157.14 198.191 162.96 193.961 165.12L192.521 163.14C196.391 161.25 199.661 156.09 199.661 151.5V147.09ZM200.111 147.09H202.091V151.5C202.091 155.79 205.151 160.62 209.081 162.48L207.671 164.46C203.381 162.33 200.111 156.87 200.111 151.5V147.09ZM193.481 145.98H208.091V148.08H193.481V145.98ZM211.301 143.22H213.821V170.34H211.301V143.22ZM213.221 154.17H218.261V156.27H213.221V154.17ZM240.278 143.22H242.768V158.58H240.278V143.22ZM222.248 144.78H224.708V155.82H222.248V144.78ZM222.248 154.44H224.438C228.968 154.44 233.018 154.14 237.338 153.24L237.698 155.28C233.198 156.24 229.118 156.54 224.438 156.54H222.248V154.44ZM225.248 159.9H242.768V169.98H225.248V159.9ZM240.338 161.88H227.678V167.94H240.338V161.88ZM256.956 145.17C261.186 145.17 264.216 147.78 264.216 151.56C264.216 155.37 261.186 157.98 256.956 157.98C252.726 157.98 249.666 155.37 249.666 151.56C249.666 147.78 252.726 145.17 256.956 145.17ZM256.956 147.33C254.136 147.33 252.096 149.04 252.096 151.56C252.096 154.08 254.136 155.82 256.956 155.82C259.746 155.82 261.786 154.08 261.786 151.56C261.786 149.04 259.746 147.33 256.956 147.33ZM267.756 143.19H270.246V170.37H267.756V143.19ZM248.646 164.43L248.286 162.36C253.236 162.36 260.076 162.33 265.986 161.4L266.196 163.23C260.106 164.4 253.476 164.43 248.646 164.43ZM298.121 148.11H305.051V150.18H298.121V148.11ZM304.001 143.22H306.491V157.2H304.001V143.22ZM289.031 158.61H306.491V165.09H291.551V169.2H289.121V163.23H304.031V160.59H289.031V158.61ZM289.121 168H307.511V169.98H289.121V168ZM290.951 144.06H292.991V146.61C292.991 151.62 289.991 155.67 285.461 157.29L284.171 155.31C288.251 153.93 290.951 150.54 290.951 146.61V144.06ZM291.371 144.06H293.381V146.61C293.381 150.15 296.111 153.42 300.041 154.71L298.751 156.66C294.371 155.1 291.371 151.2 291.371 146.61V144.06ZM324.729 147.6H332.559V149.64H324.729V147.6ZM324.729 153H332.619V155.01H324.729V153ZM331.599 143.22H334.089V159.27H331.599V143.22ZM313.029 145.26H325.419V157.32H313.029V145.26ZM322.959 147.27H315.459V155.34H322.959V147.27ZM325.179 160.05C330.759 160.05 334.209 161.94 334.209 165.18C334.209 168.42 330.759 170.28 325.179 170.28C319.569 170.28 316.119 168.42 316.119 165.18C316.119 161.94 319.569 160.05 325.179 160.05ZM325.179 162.03C321.099 162.03 318.609 163.2 318.609 165.18C318.609 167.16 321.099 168.33 325.179 168.33C329.259 168.33 331.749 167.16 331.749 165.18C331.749 163.2 329.259 162.03 325.179 162.03ZM340.506 145.65H352.956V158.22H340.506V145.65ZM350.526 147.66H342.936V156.21H350.526V147.66ZM357.936 143.19H360.426V163.08H357.936V143.19ZM359.646 151.47H364.446V153.54H359.646V151.47ZM343.536 167.7H361.656V169.74H343.536V167.7ZM343.536 161.19H346.026V168.57H343.536V161.19ZM379.234 144.93C384.874 144.93 389.074 147.93 389.074 152.43C389.074 156.96 384.874 159.93 379.234 159.93C373.594 159.93 369.364 156.96 369.364 152.43C369.364 147.93 373.594 144.93 379.234 144.93ZM379.234 146.97C374.944 146.97 371.764 149.16 371.764 152.43C371.764 155.67 374.944 157.89 379.234 157.89C383.524 157.89 386.704 155.67 386.704 152.43C386.704 149.16 383.524 146.97 379.234 146.97ZM366.994 164.67H391.564V166.77H366.994V164.67ZM394.592 164.94H419.162V167.01H394.592V164.94ZM405.572 159.12H408.062V165.81H405.572V159.12ZM397.562 145.23H416.132V153.45H400.112V158.88H397.652V151.44H413.672V147.24H397.562V145.23ZM397.652 157.83H416.762V159.87H397.652V157.83ZM437.857 145.29C441.787 145.29 444.607 148.98 444.607 154.74C444.607 160.53 441.787 164.22 437.857 164.22C433.897 164.22 431.107 160.53 431.107 154.74C431.107 148.98 433.897 145.29 437.857 145.29ZM437.857 147.54C435.247 147.54 433.477 150.36 433.477 154.74C433.477 159.15 435.247 162.03 437.857 162.03C440.467 162.03 442.237 159.15 442.237 154.74C442.237 150.36 440.467 147.54 437.857 147.54ZM450.487 143.19H452.947V170.37H450.487V143.19ZM443.797 153.54H451.567V155.58H443.797V153.54ZM462.695 167.7H481.475V169.74H462.695V167.7ZM462.695 161.34H465.215V168.84H462.695V161.34ZM478.325 143.25H480.815V162.99H478.325V143.25ZM473.465 150.66H480.335V152.7H473.465V150.66ZM458.915 156.57H460.115C461.735 156.57 463.775 156.51 466.085 156L466.325 158.04C463.835 158.58 461.855 158.61 460.115 158.61H458.915V156.57ZM458.915 145.47H465.785V147.51H461.375V157.17H458.915V145.47ZM467.255 156.57H468.605C471.485 156.57 473.435 156.51 475.745 155.97L475.985 158.01C473.555 158.52 471.575 158.61 468.605 158.61H467.255V156.57ZM467.255 145.47H474.725V147.51H469.685V157.11H467.255V145.47ZM496.9 146.1H514.36V148.11H496.9V146.1ZM494.26 164.31H518.77V166.38H494.26V164.31ZM513.04 146.1H515.47V148.8C515.47 152.28 515.47 156.15 514.45 162L511.96 161.76C513.04 156.21 513.04 152.16 513.04 148.8V146.1ZM541.567 143.22H544.087V159.3H541.567V143.22ZM523.237 155.97H525.427C530.347 155.97 533.977 155.82 538.327 155.13L538.597 157.14C534.127 157.89 530.467 158.04 525.427 158.04H523.237V155.97ZM523.177 144.84H535.477V152.25H525.667V157.2H523.237V150.33H533.047V146.88H523.177V144.84ZM526.567 160.8H544.087V169.98H526.567V160.8ZM541.627 162.78H528.997V167.97H541.627V162.78ZM569.135 143.19H571.625V170.37H569.135V143.19ZM557.315 145.29C561.335 145.29 564.215 148.98 564.215 154.74C564.215 160.53 561.335 164.22 557.315 164.22C553.325 164.22 550.445 160.53 550.445 154.74C550.445 148.98 553.325 145.29 557.315 145.29ZM557.315 147.54C554.675 147.54 552.815 150.36 552.815 154.74C552.815 159.15 554.675 162.03 557.315 162.03C559.985 162.03 561.815 159.15 561.815 154.74C561.815 150.36 559.985 147.54 557.315 147.54ZM586.6 145.65H599.05V158.22H586.6V145.65ZM596.62 147.66H589.03V156.21H596.62V147.66ZM604.03 143.19H606.52V163.08H604.03V143.19ZM605.74 151.47H610.54V153.54H605.74V151.47ZM589.63 167.7H607.75V169.74H589.63V167.7ZM589.63 161.19H592.12V168.57H589.63V161.19ZM613.088 154.53H637.598V156.57H613.088V154.53ZM616.328 150.33H634.688V152.34H616.328V150.33ZM616.328 144.09H634.388V146.13H618.788V151.95H616.328V144.09ZM616.028 158.91H634.448V165.3H618.548V168.72H616.088V163.44H631.988V160.86H616.028V158.91ZM616.088 168.06H635.258V170.04H616.088V168.06ZM647.916 145.29C651.846 145.29 654.666 148.98 654.666 154.74C654.666 160.53 651.846 164.22 647.916 164.22C643.956 164.22 641.166 160.53 641.166 154.74C641.166 148.98 643.956 145.29 647.916 145.29ZM647.916 147.54C645.306 147.54 643.536 150.36 643.536 154.74C643.536 159.15 645.306 162.03 647.916 162.03C650.526 162.03 652.296 159.15 652.296 154.74C652.296 150.36 650.526 147.54 647.916 147.54ZM660.546 143.19H663.006V170.37H660.546V143.19ZM653.856 153.54H661.626V155.58H653.856V153.54ZM675.453 147.09H677.463V151.5C677.463 157.23 674.013 162.99 669.693 165.12L668.253 163.14C672.183 161.28 675.453 156.18 675.453 151.5V147.09ZM675.933 147.09H677.943V151.5C677.943 156.09 681.213 160.77 685.203 162.48L683.793 164.46C679.413 162.42 675.933 157.14 675.933 151.5V147.09ZM669.153 145.98H684.303V148.08H669.153V145.98ZM687.963 143.22H690.453V170.34H687.963V143.22ZM699.181 151.35H717.601V153.39H699.181V151.35ZM695.851 157.02H720.451V159.06H695.851V157.02ZM699.181 144.21H701.641V152.37H699.181V144.21ZM699.001 167.64H717.751V169.68H699.001V167.64ZM699.001 161.76H701.461V168.18H699.001V161.76ZM730.649 147.09H732.659V151.5C732.659 157.23 729.209 162.99 724.889 165.12L723.449 163.14C727.379 161.28 730.649 156.18 730.649 151.5V147.09ZM731.129 147.09H733.139V151.5C733.139 156.09 736.409 160.77 740.399 162.48L738.989 164.46C734.609 162.42 731.129 157.14 731.129 151.5V147.09ZM724.349 145.98H739.499V148.08H724.349V145.98ZM743.159 143.22H745.649V170.34H743.159V143.22ZM754.166 155.88H772.796V157.92H754.166V155.88ZM751.076 164.85H775.646V166.95H751.076V164.85ZM762.056 156.75H764.546V165.69H762.056V156.75ZM754.166 145.38H772.526V147.42H756.656V156.78H754.166V145.38ZM794.191 155.94H796.681V159.42H794.191V155.94ZM805.621 143.25H808.111V161.43H805.621V143.25ZM807.061 151.44H812.071V153.51H807.061V151.44ZM787.261 160.65L786.931 158.61C791.791 158.61 798.391 158.61 804.001 157.8L804.211 159.57C798.421 160.59 792.001 160.62 787.261 160.65ZM790.291 162.78H808.111V170.34H805.621V164.76H790.291V162.78ZM787.621 145.68H803.191V147.54H787.621V145.68ZM795.421 148.59C799.231 148.59 801.721 150.12 801.721 152.61C801.721 155.1 799.231 156.63 795.421 156.63C791.581 156.63 789.091 155.1 789.091 152.61C789.091 150.12 791.581 148.59 795.421 148.59ZM795.421 150.3C792.991 150.3 791.431 151.17 791.431 152.61C791.431 153.99 792.991 154.89 795.421 154.89C797.821 154.89 799.381 153.99 799.381 152.61C799.381 151.17 797.821 150.3 795.421 150.3ZM794.191 143.01H796.681V146.58H794.191V143.01ZM834.419 143.25H836.939V163.05H834.419V143.25ZM819.509 167.7H837.749V169.74H819.509V167.7ZM819.509 161.01H821.969V168.39H819.509V161.01ZM822.389 145.11C826.439 145.11 829.439 147.87 829.439 151.8C829.439 155.7 826.439 158.49 822.389 158.49C818.339 158.49 815.309 155.7 815.309 151.8C815.309 147.87 818.339 145.11 822.389 145.11ZM822.389 147.27C819.749 147.27 817.739 149.13 817.739 151.8C817.739 154.44 819.749 156.3 822.389 156.3C825.029 156.3 827.039 154.44 827.039 151.8C827.039 149.13 825.029 147.27 822.389 147.27ZM842.247 147.84H855.687V149.88H842.247V147.84ZM848.967 151.68C852.357 151.68 854.817 154.23 854.817 157.89C854.817 161.52 852.357 164.07 848.967 164.07C845.607 164.07 843.147 161.52 843.147 157.89C843.147 154.23 845.607 151.68 848.967 151.68ZM848.967 153.81C846.897 153.81 845.397 155.49 845.397 157.89C845.397 160.29 846.897 161.97 848.967 161.97C851.067 161.97 852.597 160.29 852.597 157.89C852.597 155.49 851.067 153.81 848.967 153.81ZM862.857 143.22H865.257V170.34H862.857V143.22ZM858.537 154.62H863.667V156.69H858.537V154.62ZM857.067 143.82H859.407V169.02H857.067V143.82ZM847.767 144H850.227V149.1H847.767V144ZM869.904 164.82H894.474V166.89H869.904V164.82ZM880.884 158.34H883.374V165.42H880.884V158.34ZM872.784 145.14H875.244V149.97H889.074V145.14H891.534V159H872.784V145.14ZM875.244 151.98V156.96H889.074V151.98H875.244ZM917.212 143.22H919.702V157.26H917.212V143.22ZM902.182 158.64H919.732V165.15H904.672V168.87H902.242V163.29H917.272V160.59H902.182V158.64ZM902.242 168.06H920.632V170.04H902.242V168.06ZM904.552 144H906.622V146.07C906.622 151.08 903.502 155.34 898.912 157.02L897.682 155.04C901.762 153.6 904.552 150 904.552 146.07V144ZM905.002 144H907.042V146.07C907.042 149.82 909.892 153.21 913.912 154.53L912.682 156.48C908.122 154.92 905.002 150.93 905.002 146.07V144ZM944.487 144.18H946.677V145.68C946.677 150.87 941.397 154.59 935.757 155.55L934.767 153.54C939.717 152.79 944.487 149.55 944.487 145.68V144.18ZM944.937 144.18H947.097V145.68C947.097 149.46 951.927 152.79 956.817 153.54L955.827 155.55C950.247 154.59 944.937 150.81 944.937 145.68V144.18ZM944.487 160.02H946.947V170.34H944.487V160.02ZM933.537 158.49H958.047V160.56H933.537V158.49ZM976.322 159.9H978.242V161.37C978.242 164.91 976.022 168.48 972.122 169.98L970.862 168.12C974.282 166.89 976.322 163.98 976.322 161.37V159.9ZM976.862 159.9H978.722V161.37C978.722 164.1 980.342 167.01 983.582 168.33L982.532 170.22C978.632 168.69 976.862 164.97 976.862 161.37V159.9ZM986.342 159.9H988.202V161.37C988.202 164.55 986.402 168.57 982.532 170.22L981.482 168.33C984.692 166.86 986.342 163.71 986.342 161.37V159.9ZM986.852 159.9H988.772V161.37C988.772 164.16 990.782 166.95 994.232 168.12L992.972 169.98C989.012 168.54 986.852 165.12 986.852 161.37V159.9ZM989.282 143.25H991.802V158.73H989.282V143.25ZM977.252 144.81C981.362 144.81 984.302 147.39 984.302 151.14C984.302 154.89 981.362 157.44 977.252 157.44C973.142 157.44 970.172 154.89 970.172 151.14C970.172 147.39 973.142 144.81 977.252 144.81ZM977.252 146.88C974.552 146.88 972.602 148.62 972.602 151.14C972.602 153.66 974.552 155.37 977.252 155.37C979.952 155.37 981.902 153.66 981.902 151.14C981.902 148.62 979.952 146.88 977.252 146.88ZM1000.26 159.48H1002.72V162.63H1015.98V159.48H1018.47V169.98H1000.26V159.48ZM1002.72 164.55V167.97H1015.98V164.55H1002.72ZM997.14 155.58H1021.65V157.59H997.14V155.58ZM1008.15 143.52H1010.28V144.72C1010.28 149.43 1005.03 152.82 999.45 153.66L998.55 151.71C1003.44 151.05 1008.15 148.14 1008.15 144.72V143.52ZM1008.54 143.52H1010.67V144.72C1010.67 148.08 1015.44 151.05 1020.27 151.71L1019.34 153.66C1013.82 152.82 1008.54 149.37 1008.54 144.72V143.52ZM1044.48 143.22H1046.97V170.34H1044.48V143.22ZM1026.48 145.86H1028.94V162.66H1026.48V145.86ZM1026.48 161.19H1028.7C1032.81 161.19 1037.1 160.89 1041.69 159.93L1041.99 162.06C1037.28 163.02 1032.99 163.35 1028.7 163.35H1026.48V161.19ZM1070.7 143.19H1073.22V170.37H1070.7V143.19ZM1072.62 153.9H1077.66V156H1072.62V153.9ZM1053.51 161.52H1055.64C1060.65 161.52 1064.16 161.34 1068.21 160.59L1068.48 162.69C1064.31 163.47 1060.74 163.62 1055.64 163.62H1053.51V161.52ZM1053.51 145.83H1066.11V147.87H1055.97V162.45H1053.51V145.83ZM1082.6 168.17C1082.07 168.17 1081.62 167.982 1081.24 167.606C1080.87 167.229 1080.68 166.778 1080.68 166.253C1080.68 165.727 1080.87 165.276 1081.24 164.9C1081.62 164.523 1082.07 164.335 1082.6 164.335C1083.12 164.335 1083.57 164.523 1083.95 164.9C1084.33 165.276 1084.51 165.727 1084.51 166.253C1084.51 166.601 1084.43 166.92 1084.25 167.212C1084.08 167.503 1083.85 167.737 1083.56 167.915C1083.27 168.085 1082.95 168.17 1082.6 168.17Z" fill="black"/>
<defs>
<filter id="filter0_di_118_137" x="9" y="7.875" width="1205" height="227.068" filterUnits="userSpaceOnUse" color-interpolation-filters="sRGB">
<feFlood flood-opacity="0" result="BackgroundImageFix"/>
<feColorMatrix in="SourceAlpha" type="matrix" values="0 0 0 0 0 0 0 0 0 0 0 0 0 0 0 0 0 0 127 0" result="hardAlpha"/>
<feOffset dy="4"/>
<feGaussianBlur stdDeviation="2"/>
<feComposite in2="hardAlpha" operator="out"/>
<feColorMatrix type="matrix" values="0 0 0 0 0 0 0 0 0 0 0 0 0 0 0 0 0 0 0.25 0"/>
<feBlend mode="normal" in2="BackgroundImageFix" result="effect1_dropShadow_118_137"/>
<feBlend mode="normal" in="SourceGraphic" in2="effect1_dropShadow_118_137" result="shape"/>
<feColorMatrix in="SourceAlpha" type="matrix" values="0 0 0 0 0 0 0 0 0 0 0 0 0 0 0 0 0 0 127 0" result="hardAlpha"/>
<feOffset dy="4"/>
<feGaussianBlur stdDeviation="2"/>
<feComposite in2="hardAlpha" operator="arithmetic" k2="-1" k3="1"/>
<feColorMatrix type="matrix" values="0 0 0 0 0 0 0 0 0 0 0 0 0 0 0 0 0 0 0.25 0"/>
<feBlend mode="normal" in2="shape" result="effect2_innerShadow_118_137"/>
</filter>
<filter id="filter1_di_118_137" x="40" y="21.4774" width="1142" height="197.716" filterUnits="userSpaceOnUse" color-interpolation-filters="sRGB">
<feFlood flood-opacity="0" result="BackgroundImageFix"/>
<feColorMatrix in="SourceAlpha" type="matrix" values="0 0 0 0 0 0 0 0 0 0 0 0 0 0 0 0 0 0 127 0" result="hardAlpha"/>
<feOffset dy="4"/>
<feGaussianBlur stdDeviation="2"/>
<feComposite in2="hardAlpha" operator="out"/>
<feColorMatrix type="matrix" values="0 0 0 0 0 0 0 0 0 0 0 0 0 0 0 0 0 0 0.25 0"/>
<feBlend mode="normal" in2="BackgroundImageFix" result="effect1_dropShadow_118_137"/>
<feBlend mode="normal" in="SourceGraphic" in2="effect1_dropShadow_118_137" result="shape"/>
<feColorMatrix in="SourceAlpha" type="matrix" values="0 0 0 0 0 0 0 0 0 0 0 0 0 0 0 0 0 0 127 0" result="hardAlpha"/>
<feOffset dy="4"/>
<feGaussianBlur stdDeviation="2"/>
<feComposite in2="hardAlpha" operator="arithmetic" k2="-1" k3="1"/>
<feColorMatrix type="matrix" values="0 0 0 0 0 0 0 0 0 0 0 0 0 0 0 0 0 0 0.25 0"/>
<feBlend mode="normal" in2="shape" result="effect2_innerShadow_118_137"/>
</filter>
</defs>
</svg>
