<svg width="1920" height="1080" viewBox="0 0 1920 1080" fill="none" xmlns="http://www.w3.org/2000/svg">
<rect x="396" width="1128" height="638" fill="#FFED9F"/>
<path d="M0 -0.5H-0.5V0V1080V1081.31L0.372797 1080.33L395.873 637.833L396 637.691L396 637.5L396.5 0.000392157L396.5 -0.5H396H0Z" fill="#FFED9F" stroke="black"/>
<path d="M1920 -0.5H1920.5V0V1080V1081.31L1919.63 1080.33L1524.13 637.833L1524 637.691L1524 637.5L1523.5 0.000392157L1523.5 -0.5H1524H1920Z" fill="#FFED9F" stroke="black"/>
<path d="M684.5 133H1251L1311.5 219.5V272L1382 297V362.5L1414 386V446L1467.5 466V539.5L1524.5 560.5V637L397 642.5V554.5L456.5 541V475L509 449V387.884L541.5 360V296.5L605.5 270V218.5L684.5 133Z" fill="#F8C5C5"/>
<rect x="396" y="556" width="1128" height="81" fill="#FFE054"/>
<rect x="453" y="467" width="1013" height="73" fill="#FFE054"/>
<rect x="507" y="382" width="907" height="65" fill="#FFE054"/>
<rect x="541" y="297" width="838" height="65" fill="#FFE054"/>
<rect x="607" y="217" width="706" height="55" fill="#FFE054"/>
<path d="M652.208 0H678.5L414.292 255H388L652.208 0Z" fill="#FFE054"/>
<path d="M1260.29 0H1234L1498.21 255H1524.5L1260.29 0Z" fill="#FFE054"/>
<rect x="687" width="562" height="133" fill="#F1B2DA"/>
</svg>
