<svg width="380" height="63" viewBox="0 0 380 63" fill="none" xmlns="http://www.w3.org/2000/svg">
<rect x="2" y="2" width="376" height="59" rx="11" fill="#FFE4DE" stroke="#EA8585" stroke-width="4"/>
<path d="M37.6658 21.3H39.3658V25.35C39.3658 30.55 36.5658 35.375 32.8658 37.25L31.5908 35.55C34.9408 33.95 37.6658 29.625 37.6658 25.35V21.3ZM38.0158 21.3H39.7158V25.35C39.7158 29.475 42.4158 33.625 45.7658 35.175L44.5158 36.825C40.8408 35.025 38.0158 30.375 38.0158 25.35V21.3ZM48.1158 19.325H50.1908V41.975H48.1158V19.325ZM70.1639 19.35H72.2389V32.6H70.1639V19.35ZM71.6639 25.05H75.5889V26.8H71.6639V25.05ZM63.9139 20.8H66.0889C66.0889 26.5 62.1139 30.575 55.5139 32.375L54.6639 30.75C60.5139 29.15 63.9139 25.875 63.9139 21.7V20.8ZM55.6639 20.8H65.0639V22.475H55.6639V20.8ZM57.5639 33.65H72.2389V41.95H70.1639V35.325H57.5639V33.65ZM83.2619 21.775H84.9619V23.6C84.9619 27.75 82.4619 31.225 78.6619 32.6L77.6119 30.95C81.0119 29.75 83.2619 26.825 83.2619 23.6V21.775ZM83.6369 21.775H85.3369V23.575C85.3369 26.525 87.4869 29.175 90.8119 30.275L89.8119 31.9C86.0369 30.65 83.6369 27.425 83.6369 23.575V21.775ZM78.2369 21.025H90.3119V22.725H78.2369V21.025ZM93.1619 19.35H95.2369V32.975H93.1619V19.35ZM94.6619 25.075H98.5869V26.825H94.6619V25.075ZM88.0369 33.575C92.6369 33.575 95.4619 35.1 95.4619 37.725C95.4619 40.375 92.6369 41.9 88.0369 41.9C83.4369 41.9 80.6119 40.375 80.6119 37.725C80.6119 35.1 83.4369 33.575 88.0369 33.575ZM88.0369 35.25C84.6869 35.25 82.6369 36.15 82.6369 37.725C82.6369 39.325 84.6869 40.275 88.0369 40.275C91.3869 40.275 93.4369 39.325 93.4369 37.725C93.4369 36.15 91.3869 35.25 88.0369 35.25ZM105.785 21.225C108.71 21.225 110.61 24.25 110.61 29.1C110.61 33.95 108.71 36.975 105.785 36.975C102.86 36.975 100.985 33.95 100.985 29.1C100.985 24.25 102.86 21.225 105.785 21.225ZM105.785 23.15C104.01 23.15 102.885 25.45 102.885 29.1C102.885 32.75 104.01 35.05 105.785 35.05C107.56 35.05 108.685 32.75 108.685 29.1C108.685 25.45 107.56 23.15 105.785 23.15ZM117.91 19.35H119.91V41.95H117.91V19.35ZM114.335 28.3H118.66V30H114.335V28.3ZM112.91 19.825H114.885V40.825H112.91V19.825ZM140.133 19.375H142.233V35.875H140.133V19.375ZM127.708 39.75H142.908V41.45H127.708V39.75ZM127.708 34.175H129.758V40.325H127.708V34.175ZM130.108 20.925C133.483 20.925 135.983 23.225 135.983 26.5C135.983 29.75 133.483 32.075 130.108 32.075C126.733 32.075 124.208 29.75 124.208 26.5C124.208 23.225 126.733 20.925 130.108 20.925ZM130.108 22.725C127.908 22.725 126.233 24.275 126.233 26.5C126.233 28.7 127.908 30.25 130.108 30.25C132.308 30.25 133.983 28.7 133.983 26.5C133.983 24.275 132.308 22.725 130.108 22.725ZM155.856 28.125H160.131V29.85H155.856V28.125ZM163.906 19.35H165.906V41.95H163.906V19.35ZM159.431 19.825H161.406V40.825H159.431V19.825ZM151.781 21.225C154.706 21.225 156.606 24.25 156.606 29.1C156.606 33.95 154.706 36.975 151.781 36.975C148.856 36.975 146.981 33.95 146.981 29.1C146.981 24.25 148.856 21.225 151.781 21.225ZM151.781 23.15C150.006 23.15 148.881 25.45 148.881 29.1C148.881 32.75 150.006 35.05 151.781 35.05C153.581 35.05 154.706 32.75 154.706 29.1C154.706 25.45 153.581 23.15 151.781 23.15ZM193.91 19.35H195.91V41.95H193.91V19.35ZM190.085 28.4H194.435V30.125H190.085V28.4ZM188.785 19.85H190.735V40.8H188.785V19.85ZM177.535 34.65H179.01C182.31 34.65 184.56 34.525 187.185 33.975L187.385 35.7C184.685 36.275 182.41 36.375 179.01 36.375H177.535V34.65ZM177.535 22.1H185.935V23.8H179.585V35.425H177.535V22.1ZM199.683 23.2H210.883V24.9H199.683V23.2ZM205.283 26.4C208.108 26.4 210.158 28.525 210.158 31.575C210.158 34.6 208.108 36.725 205.283 36.725C202.483 36.725 200.433 34.6 200.433 31.575C200.433 28.525 202.483 26.4 205.283 26.4ZM205.283 28.175C203.558 28.175 202.308 29.575 202.308 31.575C202.308 33.575 203.558 34.975 205.283 34.975C207.033 34.975 208.308 33.575 208.308 31.575C208.308 29.575 207.033 28.175 205.283 28.175ZM216.858 19.35H218.858V41.95H216.858V19.35ZM213.258 28.85H217.533V30.575H213.258V28.85ZM212.033 19.85H213.983V40.85H212.033V19.85ZM204.283 20H206.333V24.25H204.283V20ZM230.888 34.65H232.613C236.813 34.65 239.513 34.55 242.663 33.95L242.888 35.65C239.638 36.25 236.913 36.4 232.613 36.4H230.888V34.65ZM230.888 21.5H241.163V23.2H232.938V35.3H230.888V21.5ZM246.313 19.35H248.388V42H246.313V19.35ZM239.838 27.525H247.163V29.25H239.838V27.525ZM275.242 19.35H277.317V30.85H275.242V19.35ZM276.417 24.2H280.642V25.925H276.417V24.2ZM262.967 31.925H277.317V37.475H265.067V40.85H263.017V35.9H275.292V33.575H262.967V31.925ZM263.017 39.975H278.142V41.65H263.017V39.975ZM266.017 20.15C269.417 20.15 271.867 22.225 271.867 25.175C271.867 28.15 269.417 30.225 266.017 30.225C262.667 30.225 260.192 28.15 260.192 25.175C260.192 22.225 262.667 20.15 266.017 20.15ZM266.017 21.85C263.842 21.85 262.217 23.225 262.217 25.175C262.217 27.15 263.842 28.525 266.017 28.525C268.242 28.525 269.867 27.15 269.867 25.175C269.867 23.225 268.242 21.85 266.017 21.85ZM288.79 21.075C292.115 21.075 294.465 24.15 294.465 28.95C294.465 33.775 292.115 36.85 288.79 36.85C285.465 36.85 283.115 33.775 283.115 28.95C283.115 24.15 285.465 21.075 288.79 21.075ZM288.79 22.95C286.59 22.95 285.09 25.3 285.09 28.95C285.09 32.625 286.59 35.025 288.79 35.025C290.965 35.025 292.49 32.625 292.49 28.95C292.49 25.3 290.965 22.95 288.79 22.95ZM298.065 19.35H300.165V41.95H298.065V19.35ZM299.665 28.375H303.865V30.125H299.665V28.375ZM305.788 37.35H326.263V39.075H305.788V37.35ZM314.938 31.95H317.013V37.85H314.938V31.95ZM308.188 20.95H310.238V24.975H321.763V20.95H323.813V32.5H308.188V20.95ZM310.238 26.65V30.8H321.763V26.65H310.238ZM345.236 19.35H347.311V41.95H345.236V19.35ZM338.611 21.775H340.661C340.661 28.325 337.711 34.05 330.161 37.75L329.061 36.075C335.586 32.925 338.611 28.125 338.611 22.125V21.775ZM330.086 21.775H339.511V23.475H330.086V21.775Z" fill="black"/>
</svg>
