<svg width="141" height="58" viewBox="0 0 141 58" fill="none" xmlns="http://www.w3.org/2000/svg">
<path d="M2 29C2 14.0883 14.0883 2 29 2H112C126.912 2 139 14.0883 139 29C139 43.9117 126.912 56 112 56H29C14.0883 56 2 43.9117 2 29Z" stroke="#E6CA4E" stroke-width="4"/>
<path d="M39.598 36V21.4545H44.7827C45.9096 21.4545 46.8447 21.6487 47.5881 22.0369C48.3362 22.4252 48.8949 22.9626 49.2642 23.6491C49.6335 24.331 49.8182 25.1193 49.8182 26.0142C49.8182 26.9044 49.6312 27.688 49.2571 28.3651C48.8878 29.0374 48.3291 29.5606 47.581 29.9347C46.8376 30.3087 45.9025 30.4957 44.7756 30.4957H40.848V28.6065H44.5767C45.2869 28.6065 45.8646 28.5047 46.3097 28.3011C46.7595 28.0975 47.0885 27.8016 47.2969 27.4134C47.5052 27.0251 47.6094 26.5587 47.6094 26.0142C47.6094 25.465 47.5028 24.9891 47.2898 24.5866C47.0814 24.1842 46.7524 23.8764 46.3026 23.6634C45.8575 23.4455 45.2727 23.3366 44.5483 23.3366H41.7926V36H39.598ZM46.7784 29.4375L50.3722 36H47.8722L44.3494 29.4375H46.7784ZM56.8832 36.2202C55.8084 36.2202 54.8827 35.9905 54.1062 35.5312C53.3344 35.0672 52.7378 34.4162 52.3164 33.5781C51.8997 32.7353 51.6914 31.7481 51.6914 30.6165C51.6914 29.4991 51.8997 28.5142 52.3164 27.6619C52.7378 26.8097 53.3249 26.1444 54.0778 25.6662C54.8353 25.188 55.7208 24.9489 56.734 24.9489C57.3496 24.9489 57.9461 25.0507 58.5238 25.2543C59.1014 25.4579 59.6199 25.7775 60.0792 26.2131C60.5385 26.6487 60.9007 27.2145 61.1658 27.9105C61.431 28.6018 61.5636 29.4422 61.5636 30.4318V31.1847H52.8917V29.5938H59.4826C59.4826 29.035 59.369 28.5402 59.1417 28.1094C58.9144 27.6738 58.5948 27.3305 58.1829 27.0795C57.7757 26.8286 57.2975 26.7031 56.7482 26.7031C56.1516 26.7031 55.6308 26.8499 55.1857 27.1435C54.7454 27.4323 54.4045 27.8111 54.163 28.2798C53.9263 28.7438 53.8079 29.2481 53.8079 29.7926V31.0355C53.8079 31.7647 53.9357 32.3849 54.1914 32.8963C54.4518 33.4077 54.814 33.7983 55.2781 34.0682C55.7421 34.3333 56.2842 34.4659 56.9045 34.4659C57.3069 34.4659 57.6739 34.4091 58.0053 34.2955C58.3368 34.1771 58.6232 34.0019 58.8647 33.7699C59.1062 33.5379 59.2908 33.2514 59.4187 32.9105L61.4286 33.2727C61.2676 33.8646 60.9788 34.383 60.5621 34.8281C60.1502 35.2685 59.6317 35.6117 59.0067 35.858C58.3865 36.0994 57.6786 36.2202 56.8832 36.2202ZM63.9197 40.0909V25.0909H65.9936V26.8594H66.1712C66.2943 26.6321 66.4718 26.3693 66.7038 26.071C66.9358 25.7727 67.2578 25.5123 67.6697 25.2898C68.0817 25.0625 68.6262 24.9489 69.3033 24.9489C70.1839 24.9489 70.9699 25.1714 71.6612 25.6165C72.3525 26.0616 72.8946 26.7031 73.2876 27.5412C73.6854 28.3793 73.8842 29.3878 73.8842 30.5668C73.8842 31.7457 73.6877 32.7566 73.2947 33.5994C72.9018 34.4375 72.362 35.0838 71.6754 35.5384C70.9889 35.9882 70.2053 36.2131 69.3246 36.2131C68.6617 36.2131 68.1196 36.1018 67.6982 35.8793C67.2815 35.6567 66.9548 35.3963 66.718 35.098C66.4813 34.7997 66.299 34.5346 66.1712 34.3026H66.0433V40.0909H63.9197ZM66.0007 30.5455C66.0007 31.3125 66.112 31.9848 66.3345 32.5625C66.5571 33.1402 66.879 33.5923 67.3004 33.919C67.7218 34.241 68.2379 34.402 68.8487 34.402C69.4832 34.402 70.0135 34.2339 70.4396 33.8977C70.8658 33.5568 71.1877 33.0952 71.4055 32.5128C71.6281 31.9304 71.7393 31.2746 71.7393 30.5455C71.7393 29.8258 71.6304 29.1795 71.4126 28.6065C71.1996 28.0336 70.8776 27.5814 70.4467 27.25C70.0206 26.9186 69.4879 26.7528 68.8487 26.7528C68.2332 26.7528 67.7124 26.9115 67.2862 27.2287C66.8648 27.5459 66.5452 27.9886 66.3274 28.5568C66.1096 29.125 66.0007 29.7879 66.0007 30.5455ZM78.3871 21.4545V36H76.2635V21.4545H78.3871ZM84.4187 36.2415C83.7274 36.2415 83.1024 36.1136 82.5437 35.858C81.985 35.5975 81.5423 35.2211 81.2156 34.7287C80.8936 34.2363 80.7326 33.6326 80.7326 32.9176C80.7326 32.3021 80.851 31.7955 81.0877 31.3977C81.3245 31 81.6441 30.6851 82.0465 30.4531C82.449 30.2211 82.8988 30.0459 83.396 29.9276C83.8931 29.8092 84.3997 29.7192 84.9158 29.6577C85.5692 29.5819 86.0996 29.5204 86.5067 29.473C86.9139 29.4209 87.2099 29.3381 87.3945 29.2244C87.5792 29.1108 87.6715 28.9261 87.6715 28.6705V28.6207C87.6715 28.0005 87.4963 27.5199 87.146 27.179C86.8003 26.8381 86.2842 26.6676 85.5977 26.6676C84.8827 26.6676 84.3192 26.8262 83.9073 27.1435C83.5001 27.456 83.2184 27.804 83.0621 28.1875L81.0664 27.733C81.3031 27.0701 81.6488 26.535 82.1033 26.1278C82.5626 25.7159 83.0906 25.4176 83.6871 25.233C84.2837 25.0436 84.9111 24.9489 85.5692 24.9489C86.0049 24.9489 86.4665 25.0009 86.9542 25.1051C87.4466 25.2045 87.9059 25.3892 88.332 25.6591C88.7629 25.929 89.1156 26.3149 89.3903 26.8168C89.6649 27.3139 89.8022 27.9602 89.8022 28.7557V36H87.7283V34.5085H87.6431C87.5058 34.7831 87.2998 35.053 87.0252 35.3182C86.7506 35.5833 86.3978 35.8035 85.967 35.9787C85.5361 36.1539 85.02 36.2415 84.4187 36.2415ZM84.8803 34.5369C85.4674 34.5369 85.9693 34.4209 86.386 34.1889C86.8074 33.9569 87.127 33.6539 87.3448 33.2798C87.5674 32.901 87.6786 32.4962 87.6786 32.0653V30.6591C87.6029 30.7348 87.4561 30.8059 87.2383 30.8722C87.0252 30.9337 86.7814 30.9882 86.5067 31.0355C86.2321 31.0781 85.9646 31.1184 85.7042 31.1562C85.4438 31.1894 85.226 31.2178 85.0508 31.2415C84.6388 31.2936 84.2624 31.3812 83.9215 31.5043C83.5853 31.6274 83.3155 31.8049 83.1119 32.0369C82.913 32.2642 82.8136 32.5672 82.8136 32.946C82.8136 33.4716 83.0077 33.8693 83.396 34.1392C83.7842 34.4044 84.279 34.5369 84.8803 34.5369ZM93.5824 40.0909C93.2652 40.0909 92.9763 40.0649 92.7159 40.0128C92.4555 39.9654 92.2614 39.9134 92.1335 39.8565L92.6449 38.1165C93.0331 38.2206 93.3788 38.2656 93.6818 38.2514C93.9848 38.2372 94.2524 38.1236 94.4844 37.9105C94.7211 37.6974 94.9295 37.3494 95.1094 36.8665L95.3722 36.142L91.3807 25.0909H93.6534L96.4162 33.5568H96.5298L99.2926 25.0909H101.572L97.0767 37.456C96.8684 38.0241 96.6032 38.5047 96.2812 38.8977C95.9593 39.2955 95.5758 39.5938 95.1307 39.7926C94.6856 39.9915 94.1695 40.0909 93.5824 40.0909Z" fill="#E6CA4E"/>
</svg>
