<svg width="64" height="31" viewBox="0 0 64 31" fill="none" xmlns="http://www.w3.org/2000/svg">
<path d="M9.48 20.024H7.248L4.608 15.764L4.044 15.356L4.224 14.996H4.896C5.44 14.996 5.868 14.86 6.18 14.588C6.5 14.308 6.66 13.928 6.66 13.448C6.66 12.816 6.484 12.292 6.132 11.876C5.78 11.452 5.268 11.24 4.596 11.24C4.148 11.24 3.736 11.372 3.36 11.636V19.112L4.62 19.544L4.38 20.024H0.732V19.652L1.86 18.764V11.468L0.612 11.06L0.852 10.58H2.244C2.972 10.58 3.688 10.556 4.392 10.508C4.904 10.476 5.284 10.46 5.532 10.46C6.068 10.46 6.544 10.568 6.96 10.784C7.384 11 7.708 11.292 7.932 11.66C8.164 12.028 8.28 12.432 8.28 12.872C8.28 13.272 8.156 13.656 7.908 14.024C7.66 14.384 7.332 14.7 6.924 14.972C6.524 15.236 6.1 15.436 5.652 15.572L6.432 15.836L8.292 18.836L9.72 19.544L9.48 20.024ZM17.6231 20H10.4231V19.628L11.5511 18.74V11.468L10.3031 11.048L10.5431 10.568H17.5031L18.1511 10.352V13.112L17.7911 13.232L16.3631 11.108H13.0511V14.912H14.9351L15.8111 13.376H16.1831V17.024L15.7031 17.264L14.9471 15.452H13.0511V19.46H16.3151L17.9111 17.096L18.2711 17.216V20.216L17.6231 20ZM25.5006 17.876C25.5006 17.628 25.4006 17.396 25.2006 17.18C25.0006 16.964 24.7486 16.768 24.4446 16.592C24.1486 16.408 23.7446 16.184 23.2326 15.92C22.6246 15.6 22.1366 15.328 21.7686 15.104C21.4006 14.872 21.0846 14.6 20.8206 14.288C20.5646 13.976 20.4366 13.632 20.4366 13.256C20.4366 12.856 20.6046 12.428 20.9406 11.972C21.2766 11.508 21.6846 11.12 22.1646 10.808C22.6526 10.488 23.1006 10.328 23.5086 10.328C24.0046 10.328 24.5806 10.388 25.2366 10.508C25.8926 10.628 26.3726 10.756 26.6766 10.892V13.22H26.2206C25.8286 12.572 25.3966 12.068 24.9246 11.708C24.4606 11.348 23.9726 11.168 23.4606 11.168C23.0046 11.168 22.6406 11.312 22.3686 11.6C22.1046 11.88 21.9726 12.248 21.9726 12.704C21.9726 12.968 22.0726 13.216 22.2726 13.448C22.4806 13.672 22.7326 13.872 23.0286 14.048C23.3326 14.224 23.7526 14.452 24.2886 14.732C24.8806 15.028 25.3606 15.292 25.7286 15.524C26.0966 15.748 26.4046 16.012 26.6526 16.316C26.9086 16.612 27.0366 16.948 27.0366 17.324C27.0366 17.724 26.8566 18.156 26.4966 18.62C26.1366 19.076 25.6966 19.464 25.1766 19.784C24.6646 20.096 24.1966 20.252 23.7726 20.252C23.2526 20.252 22.6326 20.192 21.9126 20.072C21.2006 19.952 20.6886 19.824 20.3766 19.688V17.36H20.8326C21.2406 18.008 21.7046 18.512 22.2246 18.872C22.7446 19.232 23.2806 19.412 23.8326 19.412C24.1606 19.412 24.4526 19.34 24.7086 19.196C24.9646 19.052 25.1606 18.864 25.2966 18.632C25.4326 18.392 25.5006 18.14 25.5006 17.876ZM35.7989 20H28.5989V19.628L29.7269 18.74V11.468L28.4789 11.048L28.7189 10.568H35.6789L36.3269 10.352V13.112L35.9669 13.232L34.5389 11.108H31.2269V14.912H33.1109L33.9869 13.376H34.3589V17.024L33.8789 17.264L33.1229 15.452H31.2269V19.46H34.4909L36.0869 17.096L36.4469 17.216V20.216L35.7989 20ZM46.7963 13.352L46.4363 13.472L44.8403 11.108H43.3763V19.088L44.6363 19.52L44.3963 20H40.7483V19.628L41.8763 18.74V11.108H40.4483L38.8523 13.472L38.4923 13.352V10.352L39.1403 10.568H46.1483L46.7963 10.352V13.352Z" fill="#BEA32D"/>
<path d="M51 10C66.6179 10 67.3775 27 51.0001 27" stroke="#BEA32D"/>
<path d="M7.64645 26.6464C7.45118 26.8417 7.45118 27.1583 7.64645 27.3536L10.8284 30.5355C11.0237 30.7308 11.3403 30.7308 11.5355 30.5355C11.7308 30.3403 11.7308 30.0237 11.5355 29.8284L8.70711 27L11.5355 24.1716C11.7308 23.9763 11.7308 23.6597 11.5355 23.4645C11.3403 23.2692 11.0237 23.2692 10.8284 23.4645L7.64645 26.6464ZM42 26.5L8 26.5V27.5L42 27.5V26.5Z" fill="#BEA32D"/>
</svg>
