<svg width="670" height="29" viewBox="0 0 670 29" fill="none" xmlns="http://www.w3.org/2000/svg">
<path d="M2.78 3.44H20.39V6.59H2.78V3.44ZM0.23 21.8H25.34V25.04H0.23V21.8ZM18.29 3.44H22.25V6.74C22.25 10.64 22.25 14.42 21.26 20.12L17.27 19.79C18.29 14.45 18.29 10.49 18.29 6.74V3.44ZM46.8777 0.89H50.8977V17.36H46.8777V0.89ZM29.2377 13.22H31.6677C37.0677 13.22 40.5777 13.13 44.5977 12.47L45.0477 15.62C40.9077 16.34 37.2177 16.46 31.6677 16.46H29.2377V13.22ZM29.2077 2.48H41.9877V10.85H33.1677V15.14H29.2377V7.88H38.0577V5.63H29.2077V2.48ZM32.4177 18.62H50.8977V28.37H32.4177V18.62ZM46.9677 21.74H36.3177V25.22H46.9677V21.74ZM67.9653 1.28C74.2953 1.28 78.0153 2.96 78.0153 6.02C78.0153 9.08 74.2953 10.76 67.9653 10.76C61.6053 10.76 57.9153 9.08 57.9153 6.02C57.9153 2.96 61.6053 1.28 67.9653 1.28ZM67.9653 4.19C63.9453 4.19 62.0553 4.79 62.0553 6.02C62.0553 7.31 63.9453 7.85 67.9653 7.85C71.9853 7.85 73.8753 7.31 73.8753 6.02C73.8753 4.79 71.9853 4.19 67.9653 4.19ZM55.3953 12.05H80.5053V15.2H55.3953V12.05ZM58.2753 16.76H77.4753V23.9H62.2353V26.36H58.3053V21.14H73.5453V19.73H58.2753V16.76ZM58.3053 25.49H78.1953V28.49H58.3053V25.49ZM104.624 4.94H111.464V8.12H104.624V4.94ZM109.694 0.89H113.684V14.99H109.694V0.89ZM95.3244 16.16H113.684V23.63H99.3144V27.11H95.3844V20.75H109.724V19.22H95.3244V16.16ZM95.3844 25.28H114.464V28.37H95.3844V25.28ZM96.7944 1.79H100.034V3.77C100.034 9.02 97.5744 13.55 92.2644 15.23L90.2244 12.08C94.8444 10.7 96.7944 7.31 96.7944 3.77V1.79ZM97.5744 1.79H100.814V3.77C100.814 7.07 102.674 10.28 107.054 11.6L105.014 14.69C99.9444 13.04 97.5744 8.75 97.5744 3.77V1.79ZM131.472 4.91H138.552V8.06H131.472V4.91ZM131.472 10.46H138.672V13.64H131.472V10.46ZM137.292 0.89H141.282V17.15H137.292V0.89ZM119.172 2.9H132.312V15.65H119.172V2.9ZM128.382 6.05H123.102V12.53H128.382V6.05ZM131.862 17.87C137.742 17.87 141.372 19.88 141.372 23.27C141.372 26.69 137.742 28.67 131.862 28.67C125.982 28.67 122.352 26.69 122.352 23.27C122.352 19.88 125.982 17.87 131.862 17.87ZM131.862 20.93C128.262 20.93 126.342 21.68 126.342 23.27C126.342 24.86 128.262 25.64 131.862 25.64C135.492 25.64 137.412 24.86 137.412 23.27C137.412 21.68 135.492 20.93 131.862 20.93ZM163.45 0.89H167.41V28.67H163.45V0.89ZM166.51 11.72H171.43V15.05H166.51V11.72ZM145.51 5H161.68V8.18H145.51V5ZM153.64 9.74C157.69 9.74 160.69 12.5 160.69 16.37C160.69 20.24 157.69 23 153.64 23C149.59 23 146.59 20.24 146.59 16.37C146.59 12.5 149.59 9.74 153.64 9.74ZM153.64 12.98C151.75 12.98 150.4 14.24 150.4 16.37C150.4 18.5 151.75 19.76 153.64 19.76C155.53 19.76 156.88 18.5 156.88 16.37C156.88 14.24 155.53 12.98 153.64 12.98ZM151.63 1.34H155.62V6.2H151.63V1.34ZM176.347 8.39H195.607V11.54H176.347V8.39ZM173.227 14.42H198.397V17.6H173.227V14.42ZM176.347 1.88H180.307V9.95H176.347V1.88ZM176.077 24.89H195.757V28.07H176.077V24.89ZM176.077 19.82H180.067V25.73H176.077V19.82ZM228.996 11.39H233.886V14.66H228.996V11.39ZM226.026 0.859998H230.046V28.64H226.026V0.859998ZM209.106 3.53H213.096V20.78H209.106V3.53ZM209.106 18.56H211.506C215.466 18.56 219.756 18.29 224.226 17.39L224.646 20.66C220.056 21.62 215.586 21.86 211.506 21.86H209.106V18.56ZM236.614 18.92H238.594C241.954 18.92 244.924 18.83 248.374 18.23L248.704 21.44C245.134 22.1 242.074 22.19 238.594 22.19H236.614V18.92ZM236.584 3.62H246.394V14.24H240.484V20.18H236.614V11.12H242.554V6.77H236.584V3.62ZM255.934 0.89H259.714V28.67H255.934V0.89ZM247.534 10.34H251.854V13.61H247.534V10.34ZM250.294 1.4H253.984V27.35H250.294V1.4ZM282.512 0.859998H286.532V28.73H282.512V0.859998ZM271.562 2.81C275.762 2.81 278.852 6.65 278.852 12.71C278.852 18.83 275.762 22.67 271.562 22.67C267.362 22.67 264.272 18.83 264.272 12.71C264.272 6.65 267.362 2.81 271.562 2.81ZM271.562 6.44C269.492 6.44 268.082 8.63 268.082 12.71C268.082 16.85 269.492 19.07 271.562 19.07C273.632 19.07 275.012 16.85 275.012 12.71C275.012 8.63 273.632 6.44 271.562 6.44ZM305.729 4.49H311.249V7.7H305.729V4.49ZM305.729 9.86H311.249V13.04H305.729V9.86ZM297.419 2.48H300.629V5.66C300.629 11.42 298.289 16.4 293.039 18.35L290.909 15.23C295.499 13.61 297.419 9.71 297.419 5.66V2.48ZM298.259 2.48H301.469V5.66C301.469 9.47 303.269 13.28 307.649 14.93L305.459 18.02C300.539 16.07 298.259 11.18 298.259 5.66V2.48ZM310.319 0.919999H314.309V21.47H310.319V0.919999ZM295.919 25.01H314.909V28.19H295.919V25.01ZM295.919 19.58H299.939V27.02H295.919V19.58ZM331.227 1.28C337.557 1.28 341.277 2.96 341.277 6.02C341.277 9.08 337.557 10.76 331.227 10.76C324.867 10.76 321.177 9.08 321.177 6.02C321.177 2.96 324.867 1.28 331.227 1.28ZM331.227 4.19C327.207 4.19 325.317 4.79 325.317 6.02C325.317 7.31 327.207 7.85 331.227 7.85C335.247 7.85 337.137 7.31 337.137 6.02C337.137 4.79 335.247 4.19 331.227 4.19ZM318.657 12.05H343.767V15.2H318.657V12.05ZM321.537 16.76H340.737V23.9H325.497V26.36H321.567V21.14H336.807V19.73H321.537V16.76ZM321.567 25.49H341.457V28.49H321.567V25.49ZM353.726 13.34H378.866V16.55H353.726V13.34ZM356.786 8.27H376.106V11.45H356.786V8.27ZM356.786 1.58H375.836V4.79H360.746V10.04H356.786V1.58ZM356.696 25.19H376.166V28.37H356.696V25.19ZM356.696 18.53H375.896V21.68H360.656V26.96H356.696V18.53ZM383.874 3.23H401.484V6.44H383.874V3.23ZM381.324 22.1H406.434V25.34H381.324V22.1ZM390.204 12.56H394.194V23.69H390.204V12.56ZM400.044 3.23H404.034V5.9C404.034 9.38 404.034 13.28 402.924 19.22L398.934 18.77C400.044 13.25 400.044 9.23 400.044 5.9V3.23ZM422.513 3.74H425.783V5.48C425.783 10.73 423.293 15.44 417.983 17.15L415.913 14.06C420.563 12.56 422.513 8.96 422.513 5.48V3.74ZM423.323 3.74H426.563V5.48C426.563 8.75 428.453 12.14 432.953 13.58L430.913 16.67C425.723 14.99 423.323 10.46 423.323 5.48V3.74ZM416.993 2.51H431.993V5.69H416.993V2.51ZM434.213 0.89H438.203V17.63H434.213V0.89ZM437.093 7.61H441.893V10.88H437.093V7.61ZM419.663 18.83H438.203V28.67H434.213V22.04H419.663V18.83ZM454.49 16.16H458.48V20.39H454.49V16.16ZM443.93 13.88H469.04V17.03H443.93V13.88ZM446.12 1.64H466.82V4.82H446.12V1.64ZM446.33 8.99H466.61V12.17H446.33V8.99ZM449.66 2.81H453.65V11.06H449.66V2.81ZM459.29 2.81H463.28V11.06H459.29V2.81ZM446.84 19.34H466.04V28.37H446.84V19.34ZM462.14 22.43H450.77V25.22H462.14V22.43ZM484.098 1.28C490.428 1.28 494.148 2.96 494.148 6.02C494.148 9.08 490.428 10.76 484.098 10.76C477.738 10.76 474.048 9.08 474.048 6.02C474.048 2.96 477.738 1.28 484.098 1.28ZM484.098 4.19C480.078 4.19 478.188 4.79 478.188 6.02C478.188 7.31 480.078 7.85 484.098 7.85C488.118 7.85 490.008 7.31 490.008 6.02C490.008 4.79 488.118 4.19 484.098 4.19ZM471.528 12.05H496.638V15.2H471.528V12.05ZM474.408 16.76H493.608V23.9H478.368V26.36H474.438V21.14H489.678V19.73H474.408V16.76ZM474.438 25.49H494.328V28.49H474.438V25.49ZM512.657 2.39H515.927V4.85C515.927 10.37 513.527 15.23 508.247 17.06L506.117 13.91C510.767 12.35 512.657 8.63 512.657 4.85V2.39ZM513.467 2.39H516.707V5.24C516.707 8.57 518.567 11.81 522.917 13.16L520.847 16.25C515.837 14.57 513.467 10.25 513.467 5.24V2.39ZM524.447 0.89H528.437V17.3H524.447V0.89ZM527.327 7.31H532.127V10.61H527.327V7.31ZM519.377 17.93C525.137 17.93 528.767 19.94 528.767 23.3C528.767 26.69 525.137 28.67 519.377 28.67C513.587 28.67 509.957 26.69 509.957 23.3C509.957 19.94 513.587 17.93 519.377 17.93ZM519.377 21.02C515.837 21.02 513.917 21.77 513.917 23.3C513.917 24.86 515.837 25.58 519.377 25.58C522.917 25.58 524.807 24.86 524.807 23.3C524.807 21.77 522.917 21.02 519.377 21.02ZM540.255 2.39H543.525V4.85C543.525 10.37 541.125 15.23 535.845 17.06L533.715 13.91C538.365 12.35 540.255 8.63 540.255 4.85V2.39ZM541.065 2.39H544.305V5.24C544.305 8.57 546.165 11.81 550.515 13.16L548.445 16.25C543.435 14.57 541.065 10.25 541.065 5.24V2.39ZM552.045 0.89H556.035V17.3H552.045V0.89ZM554.925 7.31H559.725V10.61H554.925V7.31ZM546.975 17.93C552.735 17.93 556.365 19.94 556.365 23.3C556.365 26.69 552.735 28.67 546.975 28.67C541.185 28.67 537.555 26.69 537.555 23.3C537.555 19.94 541.185 17.93 546.975 17.93ZM546.975 21.02C543.435 21.02 541.515 21.77 541.515 23.3C541.515 24.86 543.435 25.58 546.975 25.58C550.515 25.58 552.405 24.86 552.405 23.3C552.405 21.77 550.515 21.02 546.975 21.02ZM561.733 5.06H575.023V8.24H561.733V5.06ZM568.423 9.47C571.963 9.47 574.513 12.2 574.513 16.1C574.513 19.97 571.963 22.7 568.423 22.7C564.913 22.7 562.333 19.97 562.333 16.1C562.333 12.2 564.913 9.47 568.423 9.47ZM568.423 12.8C566.923 12.8 565.873 14 565.873 16.1C565.873 18.2 566.923 19.37 568.423 19.37C569.923 19.37 571.003 18.2 571.003 16.1C571.003 14 569.923 12.8 568.423 12.8ZM581.833 0.89H585.643V28.67H581.833V0.89ZM578.503 12.17H583.093V15.38H578.503V12.17ZM576.013 1.4H579.733V27.5H576.013V1.4ZM566.473 1.64H570.403V7.07H566.473V1.64ZM599.65 3.98H603.1V4.79C603.1 9.68 599.11 13.67 592.06 14.63L590.59 11.51C596.71 10.76 599.65 7.64 599.65 4.79V3.98ZM600.79 3.98H604.24V4.79C604.24 7.64 607.18 10.76 613.3 11.51L611.86 14.63C604.78 13.67 600.79 9.68 600.79 4.79V3.98ZM599.86 18.5H603.82V28.7H599.86V18.5ZM589.39 16.22H614.5V19.4H589.39V16.22ZM591.61 2.3H612.22V5.45H591.61V2.3ZM627.908 10.22H632.498V13.46H627.908V10.22ZM621.968 3.29H625.028V7.97C625.028 14.27 623.288 20.42 618.848 23.15L616.448 20.15C620.528 17.63 621.968 12.68 621.968 7.97V3.29ZM622.838 3.29H625.838V7.79C625.838 12.32 627.008 16.94 630.788 19.4L628.628 22.52C624.218 19.79 622.838 13.79 622.838 7.79V3.29ZM637.028 0.89H640.838V28.67H637.028V0.89ZM631.388 1.31H635.108V27.41H631.388V1.31ZM650.105 14.99H654.065V22.79H650.105V14.99ZM660.185 14.99H664.175V22.79H660.185V14.99ZM644.585 22.22H669.725V25.46H644.585V22.22ZM657.125 2.24C663.095 2.24 667.505 5.18 667.505 9.71C667.505 14.24 663.095 17.15 657.125 17.15C651.125 17.15 646.745 14.24 646.745 9.71C646.745 5.18 651.125 2.24 657.125 2.24ZM657.125 5.36C653.255 5.36 650.675 6.95 650.675 9.71C650.675 12.44 653.255 14.06 657.125 14.06C660.995 14.06 663.575 12.44 663.575 9.71C663.575 6.95 660.995 5.36 657.125 5.36Z" fill="#A98F1B"/>
</svg>
