<svg width="685" height="696" viewBox="0 0 685 696" fill="none" xmlns="http://www.w3.org/2000/svg">
<rect width="685" height="696" rx="108" transform="matrix(1 0 0 -1 0 696)" fill="#FFDAD2"/>
<rect width="685" height="696" rx="108" transform="matrix(1 0 0 -1 0 696)" fill="#FFDAD2"/>
<path fill-rule="evenodd" clip-rule="evenodd" d="M75.5 57C55.3416 57 39 73.3416 39 93.5C39 97.949 39.796 102.212 41.2533 106.155L4 130L75.3896 130C75.4264 130 75.4632 130 75.5 130H618.5C638.658 130 655 113.658 655 93.5C655 73.3416 638.658 57 618.5 57H75.5Z" fill="#F9A996"/>
<path d="M59.484 75.86H69.96V77.066H59.484V75.86ZM57.9 86.786H72.606V88.028H57.9V86.786ZM69.168 75.86H70.626V77.48C70.626 79.568 70.626 81.89 70.014 85.4L68.52 85.256C69.168 81.926 69.168 79.496 69.168 77.48V75.86ZM86.2846 74.132H87.7966V83.78H86.2846V74.132ZM75.2866 81.782H76.6006C79.5526 81.782 81.7306 81.692 84.3406 81.278L84.5026 82.484C81.8206 82.934 79.6246 83.024 76.6006 83.024H75.2866V81.782ZM75.2506 75.104H82.6306V79.55H76.7446V82.52H75.2866V78.398H81.1726V76.328H75.2506V75.104ZM77.2846 84.68H87.7966V90.188H77.2846V84.68ZM86.3206 85.868H78.7426V88.982H86.3206V85.868ZM97.6052 80.45H100.683V81.692H97.6052V80.45ZM103.401 74.132H104.841V90.404H103.401V74.132ZM100.179 74.474H101.601V89.594H100.179V74.474ZM94.6712 75.482C96.7772 75.482 98.1452 77.66 98.1452 81.152C98.1452 84.644 96.7772 86.822 94.6712 86.822C92.5652 86.822 91.2152 84.644 91.2152 81.152C91.2152 77.66 92.5652 75.482 94.6712 75.482ZM94.6712 76.868C93.3932 76.868 92.5832 78.524 92.5832 81.152C92.5832 83.78 93.3932 85.436 94.6712 85.436C95.9672 85.436 96.7772 83.78 96.7772 81.152C96.7772 78.524 95.9672 76.868 94.6712 76.868ZM115.694 79.64H120.23V80.864H115.694V79.64ZM111.77 75.536H112.994V78.434C112.994 82.088 111.068 85.58 108.494 86.966L107.54 85.778C109.934 84.59 111.77 81.458 111.77 78.434V75.536ZM112.058 75.536H113.264V78.434C113.264 81.404 115.1 84.356 117.458 85.472L116.576 86.678C113.948 85.346 112.058 81.998 112.058 78.434V75.536ZM119.492 74.114H120.968V90.422H119.492V74.114ZM133.535 75.374C135.893 75.374 137.585 77.588 137.585 81.044C137.585 84.518 135.893 86.732 133.535 86.732C131.159 86.732 129.485 84.518 129.485 81.044C129.485 77.588 131.159 75.374 133.535 75.374ZM133.535 76.724C131.969 76.724 130.907 78.416 130.907 81.044C130.907 83.69 131.969 85.418 133.535 85.418C135.101 85.418 136.163 83.69 136.163 81.044C136.163 78.416 135.101 76.724 133.535 76.724ZM141.113 74.114H142.589V90.422H141.113V74.114ZM137.099 80.324H141.761V81.548H137.099V80.324ZM148.437 88.82H159.705V90.044H148.437V88.82ZM148.437 85.004H149.949V89.504H148.437V85.004ZM157.815 74.15H159.309V85.994H157.815V74.15ZM154.899 78.596H159.021V79.82H154.899V78.596ZM146.169 82.142H146.889C147.861 82.142 149.085 82.106 150.471 81.8L150.615 83.024C149.121 83.348 147.933 83.366 146.889 83.366H146.169V82.142ZM146.169 75.482H150.291V76.706H147.645V82.502H146.169V75.482ZM151.173 82.142H151.983C153.711 82.142 154.881 82.106 156.267 81.782L156.411 83.006C154.953 83.312 153.765 83.366 151.983 83.366H151.173V82.142ZM151.173 75.482H155.655V76.706H152.631V82.466H151.173V75.482ZM167.953 75.662H169.375V79.64H172.777V75.662H174.163V86.336H167.953V75.662ZM169.375 80.846V85.112H172.777V80.846H169.375ZM179.761 74.132H181.201V90.404H179.761V74.132ZM177.151 80.576H180.283V81.8H177.151V80.576ZM176.161 74.474H177.583V89.594H176.161V74.474ZM191.711 77.12H196.067V78.344H191.711V77.12ZM191.567 80.504H195.959V81.728H191.567V80.504ZM195.815 74.132H197.309V83.888H195.815V74.132ZM190.721 75.356H192.323C192.323 79.55 189.425 82.484 184.745 83.888L184.133 82.682C188.291 81.476 190.721 79.082 190.721 76.004V75.356ZM184.979 75.356H191.747V76.58H184.979V75.356ZM192.017 84.068C195.311 84.068 197.399 85.238 197.399 87.2C197.399 89.162 195.311 90.332 192.017 90.332C188.723 90.332 186.635 89.162 186.635 87.2C186.635 85.238 188.723 84.068 192.017 84.068ZM192.017 85.238C189.641 85.238 188.111 85.976 188.111 87.2C188.111 88.424 189.641 89.144 192.017 89.144C194.411 89.144 195.941 88.424 195.941 87.2C195.941 85.976 194.411 85.238 192.017 85.238ZM212.302 74.114H213.796V90.422H212.302V74.114ZM205.21 75.374C207.622 75.374 209.35 77.588 209.35 81.044C209.35 84.518 207.622 86.732 205.21 86.732C202.816 86.732 201.088 84.518 201.088 81.044C201.088 77.588 202.816 75.374 205.21 75.374ZM205.21 76.724C203.626 76.724 202.51 78.416 202.51 81.044C202.51 83.69 203.626 85.418 205.21 85.418C206.812 85.418 207.91 83.69 207.91 81.044C207.91 78.416 206.812 76.724 205.21 76.724ZM222.115 87.092H236.857V88.334H222.115V87.092ZM228.703 83.204H230.197V87.452H228.703V83.204ZM223.843 75.284H225.319V78.182H233.617V75.284H235.093V83.6H223.843V75.284ZM225.319 79.388V82.376H233.617V79.388H225.319ZM250.481 74.114H251.975V90.422H250.481V74.114ZM243.389 75.374C245.801 75.374 247.529 77.588 247.529 81.044C247.529 84.518 245.801 86.732 243.389 86.732C240.995 86.732 239.267 84.518 239.267 81.044C239.267 77.588 240.995 75.374 243.389 75.374ZM243.389 76.724C241.805 76.724 240.689 78.416 240.689 81.044C240.689 83.69 241.805 85.418 243.389 85.418C244.991 85.418 246.089 83.69 246.089 81.044C246.089 78.416 244.991 76.724 243.389 76.724ZM267.328 80.612H270.334V81.872H267.328V80.612ZM266.23 74.114H267.742V90.404H266.23V74.114ZM255.862 75.716H257.356V85.796H255.862V75.716ZM255.862 85.022H257.158C259.57 85.022 262.036 84.86 264.718 84.302L264.898 85.544C262.126 86.12 259.624 86.282 257.158 86.282H255.862V85.022ZM275.391 82.502H276.867V87.38H275.391V82.502ZM281.403 82.502H282.897V87.38H281.403V82.502ZM271.791 87.092H286.533V88.334H271.791V87.092ZM279.135 75.158C282.573 75.158 285.039 76.796 285.039 79.352C285.039 81.89 282.573 83.528 279.135 83.528C275.679 83.528 273.213 81.89 273.213 79.352C273.213 76.796 275.679 75.158 279.135 75.158ZM279.135 76.346C276.525 76.346 274.653 77.534 274.653 79.352C274.653 81.152 276.525 82.34 279.135 82.34C281.745 82.34 283.599 81.152 283.599 79.352C283.599 77.534 281.745 76.346 279.135 76.346ZM290.799 85.3182V85.2415C290.807 84.4276 290.892 83.7798 291.054 83.2983C291.216 82.8168 291.446 82.4268 291.745 82.1286C292.043 81.8303 292.401 81.5554 292.819 81.304C293.07 81.1506 293.296 80.9695 293.496 80.7607C293.696 80.5476 293.854 80.3026 293.969 80.0256C294.088 79.7486 294.148 79.4418 294.148 79.1051C294.148 78.6875 294.05 78.3253 293.854 78.0185C293.658 77.7116 293.396 77.4751 293.068 77.3089C292.74 77.1428 292.375 77.0597 291.975 77.0597C291.625 77.0597 291.289 77.1321 290.965 77.277C290.641 77.4219 290.37 77.6499 290.153 77.9609C289.936 78.272 289.81 78.679 289.776 79.1818H288.165C288.199 78.4574 288.387 77.8374 288.728 77.3217C289.073 76.8061 289.527 76.4119 290.089 76.1392C290.656 75.8665 291.284 75.7301 291.975 75.7301C292.725 75.7301 293.377 75.8793 293.931 76.1776C294.489 76.4759 294.919 76.8849 295.222 77.4048C295.529 77.9247 295.682 78.517 295.682 79.1818C295.682 79.6506 295.61 80.0746 295.465 80.4538C295.324 80.8331 295.12 81.1719 294.851 81.4702C294.587 81.7685 294.267 82.0327 293.892 82.2628C293.517 82.4972 293.217 82.7443 292.991 83.0043C292.765 83.2599 292.601 83.5646 292.499 83.9183C292.397 84.272 292.341 84.7131 292.333 85.2415V85.3182H290.799ZM291.617 89.1023C291.301 89.1023 291.031 88.9893 290.805 88.7635C290.579 88.5376 290.466 88.267 290.466 87.9517C290.466 87.6364 290.579 87.3658 290.805 87.1399C291.031 86.9141 291.301 86.8011 291.617 86.8011C291.932 86.8011 292.203 86.9141 292.429 87.1399C292.654 87.3658 292.767 87.6364 292.767 87.9517C292.767 88.1605 292.714 88.3523 292.608 88.527C292.505 88.7017 292.367 88.8423 292.192 88.9489C292.022 89.0511 291.83 89.1023 291.617 89.1023ZM58.9176 105.477C58.9176 103.866 59.1264 102.386 59.544 101.035C59.9659 99.6797 60.5668 98.4332 61.3466 97.2955H62.6761C62.3693 97.7173 62.0817 98.2372 61.8132 98.8551C61.549 99.4687 61.3168 100.144 61.1165 100.881C60.9162 101.614 60.7585 102.373 60.6435 103.157C60.5327 103.941 60.4773 104.714 60.4773 105.477C60.4773 106.491 60.5753 107.521 60.7713 108.565C60.9673 109.609 61.2315 110.578 61.5639 111.473C61.8963 112.368 62.267 113.097 62.6761 113.659H61.3466C60.5668 112.521 59.9659 111.277 59.544 109.926C59.1264 108.571 58.9176 107.088 58.9176 105.477ZM75.5455 96.132H77.0395V104.34H75.5455V96.132ZM76.6255 99.498H79.4515V100.74H76.6255V99.498ZM65.1955 96.834H66.6895V103.08H65.1955V96.834ZM65.1955 102.288H66.4735C68.7955 102.288 71.2255 102.126 73.8715 101.586L74.0515 102.828C71.3155 103.386 68.8855 103.548 66.4735 103.548H65.1955V102.288ZM66.7075 105.114H77.0395V109.128H68.2195V111.594H66.7435V107.976H75.5635V106.32H66.7075V105.114ZM66.7435 110.982H77.6335V112.188H66.7435V110.982ZM93.0041 96.132H94.5161V112.404H93.0041V96.132ZM83.2841 97.572H84.4001V101.226C84.4001 103.818 83.7701 107.112 81.7181 108.678L80.7461 107.616C82.7261 106.158 83.2841 103.314 83.2841 101.226V97.572ZM83.6081 97.572H84.7061V101.226C84.7061 103.188 85.1201 106.176 87.1181 107.724L86.2901 108.858C84.0941 107.22 83.6081 103.674 83.6081 101.226V97.572ZM87.8921 97.572H88.9901V101.226C88.9901 103.782 88.4861 107.256 86.2901 108.858L85.4621 107.724C87.4601 106.23 87.8921 103.296 87.8921 101.226V97.572ZM88.1981 97.572H89.3141V101.226C89.3141 103.386 89.8721 106.194 91.8521 107.616L90.9341 108.714C88.8101 107.166 88.1981 103.908 88.1981 101.226V97.572ZM101.643 104.34H103.137V108.228H101.643V104.34ZM102.381 97.176C104.883 97.176 106.683 98.742 106.683 101.01C106.683 103.278 104.883 104.844 102.381 104.844C99.8787 104.844 98.0787 103.278 98.0787 101.01C98.0787 98.742 99.8787 97.176 102.381 97.176ZM102.381 98.454C100.725 98.454 99.5367 99.498 99.5367 101.01C99.5367 102.522 100.725 103.566 102.381 103.566C104.037 103.566 105.225 102.522 105.225 101.01C105.225 99.498 104.037 98.454 102.381 98.454ZM108.537 96.132H110.031V112.404H108.537V96.132ZM109.599 102.828H112.605V104.088H109.599V102.828ZM97.5567 108.894L97.3407 107.652C100.275 107.634 104.199 107.616 107.511 107.166L107.637 108.282C104.199 108.858 100.401 108.894 97.5567 108.894ZM125.46 100.65H129.078V101.856H125.46V100.65ZM125.334 104.736H129.042V105.942H125.334V104.736ZM131.544 96.132H132.984V112.404H131.544V96.132ZM128.286 96.546H129.69V111.576H128.286V96.546ZM124.65 98.184H126.09C126.09 102.45 124.38 106.284 120.006 108.894L119.142 107.832C122.94 105.528 124.65 102.288 124.65 98.454V98.184ZM119.862 98.184H125.244V99.408H119.862V98.184ZM144.394 99.75H148.588V100.974H144.394V99.75ZM139.822 97.518H141.046V98.598C141.046 101.334 139.21 103.8 136.492 104.718L135.772 103.548C138.148 102.738 139.822 100.686 139.822 98.598V97.518ZM140.11 97.518H141.334V98.616C141.334 100.56 142.918 102.432 145.258 103.17L144.538 104.34C141.874 103.476 140.11 101.208 140.11 98.616V97.518ZM136.222 96.96H144.916V98.184H136.222V96.96ZM147.598 96.132H149.092V104.52H147.598V96.132ZM138.616 105.348H149.092V109.254H140.11V111.774H138.652V108.138H147.616V106.536H138.616V105.348ZM138.652 111.036H149.686V112.224H138.652V111.036ZM152.259 104.682H166.965V105.906H152.259V104.682ZM154.167 110.82H165.345V112.044H154.167V110.82ZM154.167 107.328H155.661V111.198H154.167V107.328ZM159.621 96.672C163.095 96.672 165.345 97.896 165.345 99.93C165.345 101.946 163.095 103.17 159.621 103.17C156.129 103.17 153.897 101.946 153.897 99.93C153.897 97.896 156.129 96.672 159.621 96.672ZM159.621 97.896C157.065 97.896 155.427 98.652 155.427 99.93C155.427 101.208 157.065 101.964 159.621 101.964C162.177 101.964 163.815 101.208 163.815 99.93C163.815 98.652 162.177 97.896 159.621 97.896ZM178.236 97.374C180.594 97.374 182.286 99.588 182.286 103.044C182.286 106.518 180.594 108.732 178.236 108.732C175.86 108.732 174.186 106.518 174.186 103.044C174.186 99.588 175.86 97.374 178.236 97.374ZM178.236 98.724C176.67 98.724 175.608 100.416 175.608 103.044C175.608 105.69 176.67 107.418 178.236 107.418C179.802 107.418 180.864 105.69 180.864 103.044C180.864 100.416 179.802 98.724 178.236 98.724ZM185.814 96.114H187.29V112.422H185.814V96.114ZM181.8 102.324H186.462V103.548H181.8V102.324ZM193.139 110.82H204.407V112.044H193.139V110.82ZM193.139 107.004H194.651V111.504H193.139V107.004ZM202.517 96.15H204.011V107.994H202.517V96.15ZM199.601 100.596H203.723V101.82H199.601V100.596ZM190.871 104.142H191.591C192.563 104.142 193.787 104.106 195.173 103.8L195.317 105.024C193.823 105.348 192.635 105.366 191.591 105.366H190.871V104.142ZM190.871 97.482H194.993V98.706H192.347V104.502H190.871V97.482ZM195.875 104.142H196.685C198.413 104.142 199.583 104.106 200.969 103.782L201.113 105.006C199.655 105.312 198.467 105.366 196.685 105.366H195.875V104.142ZM195.875 97.482H200.357V98.706H197.333V104.466H195.875V97.482ZM211.317 98.454H212.523V101.1C212.523 104.538 210.453 107.994 207.861 109.272L206.997 108.084C209.355 106.968 211.317 103.908 211.317 101.1V98.454ZM211.605 98.454H212.811V101.1C212.811 103.854 214.773 106.662 217.167 107.688L216.321 108.876C213.693 107.652 211.605 104.484 211.605 101.1V98.454ZM207.537 97.788H216.627V99.048H207.537V97.788ZM218.823 96.132H220.317V112.404H218.823V96.132ZM226.305 109.21L226.202 109.901C226.13 110.386 226.019 110.906 225.87 111.46C225.725 112.014 225.574 112.536 225.416 113.026C225.258 113.516 225.128 113.906 225.026 114.196H223.876C223.931 113.923 224.003 113.563 224.093 113.116C224.182 112.668 224.272 112.168 224.361 111.614C224.455 111.064 224.532 110.501 224.591 109.926L224.668 109.21H226.305ZM237.083 97.104H238.271V99.282C238.271 101.73 236.885 104.304 234.491 105.402L233.681 104.232C235.805 103.278 237.083 101.136 237.083 99.282V97.104ZM237.317 97.104H238.505V99.282C238.505 101.136 239.711 102.99 241.799 103.836L241.007 104.988C238.649 103.998 237.317 101.712 237.317 99.282V97.104ZM245.957 96.15H247.379V105.978H245.957V96.15ZM243.329 100.362H246.407V101.604H243.329V100.362ZM242.465 96.42H243.887V105.888H242.465V96.42ZM236.471 106.86H247.379V112.404H245.903V108.084H236.471V106.86ZM250.222 104.682H264.928V105.906H250.222V104.682ZM252.13 110.82H263.308V112.044H252.13V110.82ZM252.13 107.328H253.624V111.198H252.13V107.328ZM257.584 96.672C261.058 96.672 263.308 97.896 263.308 99.93C263.308 101.946 261.058 103.17 257.584 103.17C254.092 103.17 251.86 101.946 251.86 99.93C251.86 97.896 254.092 96.672 257.584 96.672ZM257.584 97.896C255.028 97.896 253.39 98.652 253.39 99.93C253.39 101.208 255.028 101.964 257.584 101.964C260.14 101.964 261.778 101.208 261.778 99.93C261.778 98.652 260.14 97.896 257.584 97.896ZM276.199 97.374C278.557 97.374 280.249 99.588 280.249 103.044C280.249 106.518 278.557 108.732 276.199 108.732C273.823 108.732 272.149 106.518 272.149 103.044C272.149 99.588 273.823 97.374 276.199 97.374ZM276.199 98.724C274.633 98.724 273.571 100.416 273.571 103.044C273.571 105.69 274.633 107.418 276.199 107.418C277.765 107.418 278.827 105.69 278.827 103.044C278.827 100.416 277.765 98.724 276.199 98.724ZM283.777 96.114H285.253V112.422H283.777V96.114ZM279.763 102.324H284.425V103.548H279.763V102.324ZM288.906 106.986H289.608C290.58 106.986 291.714 106.968 292.992 106.644L293.172 107.886C291.786 108.21 290.67 108.228 289.608 108.228H288.906V106.986ZM288.906 97.77H292.92V98.994H290.382V107.562H288.906V97.77ZM293.802 106.986H294.63C296.25 106.986 297.456 106.932 298.86 106.59L299.004 107.832C297.528 108.192 296.322 108.228 294.63 108.228H293.802V106.986ZM293.802 97.77H298.212V98.994H295.278V107.58H293.802V97.77ZM300.48 96.132H301.974V112.404H300.48V96.132ZM297.402 102.072H301.02V103.314H297.402V102.072ZM316.102 96.15H317.596V108.354H316.102V96.15ZM317.128 101.478H320.008V102.738H317.128V101.478ZM305.014 98.112H314.626V99.318H305.014V98.112ZM309.82 100.218C312.124 100.218 313.708 101.424 313.708 103.26C313.708 105.078 312.124 106.284 309.82 106.284C307.498 106.284 305.914 105.078 305.914 103.26C305.914 101.424 307.498 100.218 309.82 100.218ZM309.82 101.388C308.344 101.388 307.336 102.126 307.336 103.26C307.336 104.376 308.344 105.114 309.82 105.114C311.278 105.114 312.286 104.376 312.286 103.26C312.286 102.126 311.278 101.388 309.82 101.388ZM309.064 96.132H310.558V98.742H309.064V96.132ZM307.462 110.82H318.334V112.044H307.462V110.82ZM307.462 107.382H308.956V111.342H307.462V107.382ZM325.839 98.454H327.045V101.1C327.045 104.538 324.975 107.994 322.383 109.272L321.519 108.084C323.877 106.968 325.839 103.908 325.839 101.1V98.454ZM326.127 98.454H327.333V101.1C327.333 103.854 329.295 106.662 331.689 107.688L330.843 108.876C328.215 107.652 326.127 104.484 326.127 101.1V98.454ZM322.059 97.788H331.149V99.048H322.059V97.788ZM333.345 96.132H334.839V112.404H333.345V96.132ZM354.282 96.132H355.776V104.412H354.282V96.132ZM355.128 99.624H358.17V100.866H355.128V99.624ZM345.444 105.186H355.776V109.182H346.956V111.612H345.48V108.048H354.318V106.374H345.444V105.186ZM345.48 110.982H356.37V112.188H345.48V110.982ZM347.64 96.708C350.088 96.708 351.852 98.202 351.852 100.326C351.852 102.468 350.088 103.962 347.64 103.962C345.228 103.962 343.446 102.468 343.446 100.326C343.446 98.202 345.228 96.708 347.64 96.708ZM347.64 97.932C346.074 97.932 344.904 98.922 344.904 100.326C344.904 101.748 346.074 102.738 347.64 102.738C349.242 102.738 350.412 101.748 350.412 100.326C350.412 98.922 349.242 97.932 347.64 97.932ZM371.596 96.114H373.09V112.422H371.596V96.114ZM368.392 99.84H371.992V101.064H368.392V99.84ZM360.31 107.382H361.516C364.036 107.382 366.106 107.31 368.59 106.914L368.734 108.156C366.178 108.552 364.09 108.642 361.516 108.642H360.31V107.382ZM360.274 97.59H367.384V103.422H361.786V107.67H360.31V102.198H365.908V98.832H360.274V97.59ZM368.284 104.286H371.884V105.51H368.284V104.286ZM382.791 97.734H384.087V98.418C384.087 101.334 380.991 103.476 377.715 104.034L377.139 102.846C380.001 102.432 382.791 100.56 382.791 98.418V97.734ZM383.169 97.734H384.447V98.418C384.447 100.56 387.255 102.432 390.099 102.846L389.541 104.034C386.247 103.476 383.169 101.334 383.169 98.418V97.734ZM382.845 106.194H384.321V112.404H382.845V106.194ZM376.275 105.402H390.981V106.626H376.275V105.402ZM377.643 97.14H389.559V98.346H377.643V97.14ZM399.242 101.946H402.356V103.188H399.242V101.946ZM396.2 97.662H397.37V100.758C397.37 104.16 395.948 107.454 393.572 108.912L392.636 107.778C394.868 106.464 396.2 103.548 396.2 100.758V97.662ZM396.488 97.662H397.64V100.704C397.64 103.314 398.864 106.086 401.006 107.382L400.142 108.552C397.802 107.112 396.488 103.872 396.488 100.704V97.662ZM405.218 96.132H406.658V112.404H405.218V96.132ZM401.924 96.474H403.328V111.594H401.924V96.474ZM412.992 104.502H414.468V109.38H412.992V104.502ZM419.004 104.502H420.498V109.38H419.004V104.502ZM409.392 109.092H424.134V110.334H409.392V109.092ZM416.736 97.158C420.174 97.158 422.64 98.796 422.64 101.352C422.64 103.89 420.174 105.528 416.736 105.528C413.28 105.528 410.814 103.89 410.814 101.352C410.814 98.796 413.28 97.158 416.736 97.158ZM416.736 98.346C414.126 98.346 412.254 99.534 412.254 101.352C412.254 103.152 414.126 104.34 416.736 104.34C419.346 104.34 421.2 103.152 421.2 101.352C421.2 99.534 419.346 98.346 416.736 98.346ZM427.531 111.102C427.216 111.102 426.945 110.989 426.719 110.763C426.493 110.538 426.38 110.267 426.38 109.952C426.38 109.636 426.493 109.366 426.719 109.14C426.945 108.914 427.216 108.801 427.531 108.801C427.846 108.801 428.117 108.914 428.343 109.14C428.569 109.366 428.681 109.636 428.681 109.952C428.681 110.161 428.628 110.352 428.522 110.527C428.419 110.702 428.281 110.842 428.106 110.949C427.936 111.051 427.744 111.102 427.531 111.102ZM434.61 105.477C434.61 107.088 434.399 108.571 433.977 109.926C433.56 111.277 432.961 112.521 432.181 113.659H430.852C431.158 113.237 431.444 112.717 431.708 112.099C431.977 111.486 432.211 110.812 432.411 110.08C432.612 109.342 432.767 108.582 432.878 107.798C432.993 107.009 433.05 106.236 433.05 105.477C433.05 104.463 432.952 103.434 432.756 102.39C432.56 101.346 432.296 100.376 431.964 99.4815C431.631 98.5866 431.261 97.858 430.852 97.2955H432.181C432.961 98.4332 433.56 99.6797 433.977 101.035C434.399 102.386 434.61 103.866 434.61 105.477Z" fill="black"/>
<path fill-rule="evenodd" clip-rule="evenodd" d="M75.5 262C55.3416 262 39 278.342 39 298.5C39 302.949 39.796 307.212 41.2533 311.155L4 335L75.3896 335C75.4264 335 75.4632 335 75.5 335H618.5C638.658 335 655 318.658 655 298.5C655 278.342 638.658 262 618.5 262H75.5Z" fill="#F9A996"/>
<path d="M59.484 280.86H69.96V282.066H59.484V280.86ZM57.9 291.786H72.606V293.028H57.9V291.786ZM69.168 280.86H70.626V282.48C70.626 284.568 70.626 286.89 70.014 290.4L68.52 290.256C69.168 286.926 69.168 284.496 69.168 282.48V280.86ZM86.2846 279.132H87.7966V288.78H86.2846V279.132ZM75.2866 286.782H76.6006C79.5526 286.782 81.7306 286.692 84.3406 286.278L84.5026 287.484C81.8206 287.934 79.6246 288.024 76.6006 288.024H75.2866V286.782ZM75.2506 280.104H82.6306V284.55H76.7446V287.52H75.2866V283.398H81.1726V281.328H75.2506V280.104ZM77.2846 289.68H87.7966V295.188H77.2846V289.68ZM86.3206 290.868H78.7426V293.982H86.3206V290.868ZM97.6052 285.45H100.683V286.692H97.6052V285.45ZM103.401 279.132H104.841V295.404H103.401V279.132ZM100.179 279.474H101.601V294.594H100.179V279.474ZM94.6712 280.482C96.7772 280.482 98.1452 282.66 98.1452 286.152C98.1452 289.644 96.7772 291.822 94.6712 291.822C92.5652 291.822 91.2152 289.644 91.2152 286.152C91.2152 282.66 92.5652 280.482 94.6712 280.482ZM94.6712 281.868C93.3932 281.868 92.5832 283.524 92.5832 286.152C92.5832 288.78 93.3932 290.436 94.6712 290.436C95.9672 290.436 96.7772 288.78 96.7772 286.152C96.7772 283.524 95.9672 281.868 94.6712 281.868ZM115.694 284.64H120.23V285.864H115.694V284.64ZM111.77 280.536H112.994V283.434C112.994 287.088 111.068 290.58 108.494 291.966L107.54 290.778C109.934 289.59 111.77 286.458 111.77 283.434V280.536ZM112.058 280.536H113.264V283.434C113.264 286.404 115.1 289.356 117.458 290.472L116.576 291.678C113.948 290.346 112.058 286.998 112.058 283.434V280.536ZM119.492 279.114H120.968V295.422H119.492V279.114ZM129.197 292.092H143.939V293.334H129.197V292.092ZM135.785 288.204H137.279V292.452H135.785V288.204ZM130.925 280.284H132.401V283.182H140.699V280.284H142.175V288.6H130.925V280.284ZM132.401 284.388V287.376H140.699V284.388H132.401ZM157.563 279.114H159.057V295.422H157.563V279.114ZM150.471 280.374C152.883 280.374 154.611 282.588 154.611 286.044C154.611 289.518 152.883 291.732 150.471 291.732C148.077 291.732 146.349 289.518 146.349 286.044C146.349 282.588 148.077 280.374 150.471 280.374ZM150.471 281.724C148.887 281.724 147.771 283.416 147.771 286.044C147.771 288.69 148.887 290.418 150.471 290.418C152.073 290.418 153.171 288.69 153.171 286.044C153.171 283.416 152.073 281.724 150.471 281.724ZM164.294 284.01H175.346V285.234H164.294V284.01ZM162.296 287.412H177.056V288.636H162.296V287.412ZM164.294 279.726H165.77V284.622H164.294V279.726ZM164.186 293.784H175.436V295.008H164.186V293.784ZM164.186 290.256H165.662V294.108H164.186V290.256ZM187.913 280.536H189.137V283.452C189.137 287.052 187.193 290.562 184.619 291.93L183.701 290.742C186.059 289.554 187.913 286.422 187.913 283.452V280.536ZM188.183 280.536H189.389V283.452C189.389 286.314 191.207 289.284 193.511 290.436L192.593 291.624C190.073 290.274 188.183 286.944 188.183 283.452V280.536ZM194.933 279.132H196.445V295.404H194.933V279.132ZM196.085 285.72H199.109V286.98H196.085V285.72ZM207.082 286.818H208.558V289.32H207.082V286.818ZM200.476 285.99H215.182V287.196H200.476V285.99ZM202.384 279.672H213.274V284.622H202.384V279.672ZM211.816 280.86H203.86V283.434H211.816V280.86ZM202.258 288.78H213.31V292.434H203.77V294.414H202.294V291.354H211.834V289.932H202.258V288.78ZM202.294 294.054H213.796V295.224H202.294V294.054ZM217.052 285.918H231.758V287.142H217.052V285.918ZM218.996 283.398H230.012V284.604H218.996V283.398ZM218.996 279.654H229.832V280.878H220.472V284.37H218.996V279.654ZM218.816 288.546H229.868V292.38H220.328V294.432H218.852V291.264H228.392V289.716H218.816V288.546ZM218.852 294.036H230.354V295.224H218.852V294.036ZM240.199 285.45H243.277V286.692H240.199V285.45ZM245.995 279.132H247.435V295.404H245.995V279.132ZM242.773 279.474H244.195V294.594H242.773V279.474ZM237.265 280.482C239.371 280.482 240.739 282.66 240.739 286.152C240.739 289.644 239.371 291.822 237.265 291.822C235.159 291.822 233.809 289.644 233.809 286.152C233.809 282.66 235.159 280.482 237.265 280.482ZM237.265 281.868C235.987 281.868 235.177 283.524 235.177 286.152C235.177 288.78 235.987 290.436 237.265 290.436C238.561 290.436 239.371 288.78 239.371 286.152C239.371 283.524 238.561 281.868 237.265 281.868ZM252.15 284.01H263.202V285.234H252.15V284.01ZM250.152 287.412H264.912V288.636H250.152V287.412ZM252.15 279.726H253.626V284.622H252.15V279.726ZM252.042 293.784H263.292V295.008H252.042V293.784ZM252.042 290.256H253.518V294.108H252.042V290.256ZM276.129 280.374C278.487 280.374 280.179 282.588 280.179 286.044C280.179 289.518 278.487 291.732 276.129 291.732C273.753 291.732 272.079 289.518 272.079 286.044C272.079 282.588 273.753 280.374 276.129 280.374ZM276.129 281.724C274.563 281.724 273.501 283.416 273.501 286.044C273.501 288.69 274.563 290.418 276.129 290.418C277.695 290.418 278.757 288.69 278.757 286.044C278.757 283.416 277.695 281.724 276.129 281.724ZM283.707 279.114H285.183V295.422H283.707V279.114ZM279.693 285.324H284.355V286.548H279.693V285.324ZM291.031 293.82H302.299V295.044H291.031V293.82ZM291.031 290.004H292.543V294.504H291.031V290.004ZM300.409 279.15H301.903V290.994H300.409V279.15ZM297.493 283.596H301.615V284.82H297.493V283.596ZM288.763 287.142H289.483C290.455 287.142 291.679 287.106 293.065 286.8L293.209 288.024C291.715 288.348 290.527 288.366 289.483 288.366H288.763V287.142ZM288.763 280.482H292.885V281.706H290.239V287.502H288.763V280.482ZM293.767 287.142H294.577C296.305 287.142 297.475 287.106 298.861 286.782L299.005 288.006C297.547 288.312 296.359 288.366 294.577 288.366H293.767V287.142ZM293.767 280.482H298.249V281.706H295.225V287.466H293.767V280.482ZM321.85 279.132H323.344V290.148H321.85V279.132ZM318.358 283.722H322.156V284.946H318.358V283.722ZM316.738 280.41H318.304C318.304 284.622 315.532 287.61 310.87 289.122L310.24 287.934C314.362 286.638 316.738 284.19 316.738 281.004V280.41ZM311.014 280.41H317.8V281.634H311.014V280.41ZM317.35 288.744H318.628V289.482C318.628 292.596 315.784 294.702 312.526 295.368L311.932 294.18C314.812 293.658 317.35 291.858 317.35 289.482V288.744ZM317.566 288.744H318.844V289.482C318.844 291.822 321.346 293.622 324.244 294.144L323.614 295.332C320.374 294.684 317.566 292.578 317.566 289.482V288.744ZM326.529 285.918H341.235V287.142H326.529V285.918ZM328.473 283.398H339.489V284.604H328.473V283.398ZM328.473 279.654H339.309V280.878H329.949V284.37H328.473V279.654ZM328.293 288.546H339.345V292.38H329.805V294.432H328.329V291.264H337.869V289.716H328.293V288.546ZM328.329 294.036H339.831V295.224H328.329V294.036ZM354.896 279.114H356.39V295.422H354.896V279.114ZM347.804 280.374C350.216 280.374 351.944 282.588 351.944 286.044C351.944 289.518 350.216 291.732 347.804 291.732C345.41 291.732 343.682 289.518 343.682 286.044C343.682 282.588 345.41 280.374 347.804 280.374ZM347.804 281.724C346.22 281.724 345.104 283.416 345.104 286.044C345.104 288.69 346.22 290.418 347.804 290.418C349.406 290.418 350.504 288.69 350.504 286.044C350.504 283.416 349.406 281.724 347.804 281.724ZM368.759 289.14H369.911V290.022C369.911 292.146 368.579 294.288 366.239 295.188L365.483 294.072C367.535 293.334 368.759 291.588 368.759 290.022V289.14ZM369.083 289.14H370.199V290.022C370.199 291.66 371.171 293.406 373.115 294.198L372.485 295.332C370.145 294.414 369.083 292.182 369.083 290.022V289.14ZM374.771 289.14H375.887V290.022C375.887 291.93 374.807 294.342 372.485 295.332L371.855 294.198C373.781 293.316 374.771 291.426 374.771 290.022V289.14ZM375.077 289.14H376.229V290.022C376.229 291.696 377.435 293.37 379.505 294.072L378.749 295.188C376.373 294.324 375.077 292.272 375.077 290.022V289.14ZM376.535 279.15H378.047V288.438H376.535V279.15ZM369.317 280.086C371.783 280.086 373.547 281.634 373.547 283.884C373.547 286.134 371.783 287.664 369.317 287.664C366.851 287.664 365.069 286.134 365.069 283.884C365.069 281.634 366.851 280.086 369.317 280.086ZM369.317 281.328C367.697 281.328 366.527 282.372 366.527 283.884C366.527 285.396 367.697 286.422 369.317 286.422C370.937 286.422 372.107 285.396 372.107 283.884C372.107 282.372 370.937 281.328 369.317 281.328ZM393.363 285.612H396.369V286.872H393.363V285.612ZM392.265 279.114H393.777V295.404H392.265V279.114ZM381.897 280.716H383.391V290.796H381.897V280.716ZM381.897 290.022H383.193C385.605 290.022 388.071 289.86 390.753 289.302L390.933 290.544C388.161 291.12 385.659 291.282 383.193 291.282H381.897V290.022ZM401.426 287.502H402.902V292.38H401.426V287.502ZM407.438 287.502H408.932V292.38H407.438V287.502ZM397.826 292.092H412.568V293.334H397.826V292.092ZM405.17 280.158C408.608 280.158 411.074 281.796 411.074 284.352C411.074 286.89 408.608 288.528 405.17 288.528C401.714 288.528 399.248 286.89 399.248 284.352C399.248 281.796 401.714 280.158 405.17 280.158ZM405.17 281.346C402.56 281.346 400.688 282.534 400.688 284.352C400.688 286.152 402.56 287.34 405.17 287.34C407.78 287.34 409.634 286.152 409.634 284.352C409.634 282.534 407.78 281.346 405.17 281.346ZM416.834 290.318V290.241C416.842 289.428 416.928 288.78 417.089 288.298C417.251 287.817 417.482 287.427 417.78 287.129C418.078 286.83 418.436 286.555 418.854 286.304C419.105 286.151 419.331 285.969 419.531 285.761C419.732 285.548 419.889 285.303 420.004 285.026C420.124 284.749 420.183 284.442 420.183 284.105C420.183 283.687 420.085 283.325 419.889 283.018C419.693 282.712 419.431 282.475 419.103 282.309C418.775 282.143 418.411 282.06 418.01 282.06C417.661 282.06 417.324 282.132 417 282.277C416.676 282.422 416.406 282.65 416.188 282.961C415.971 283.272 415.845 283.679 415.811 284.182H414.2C414.234 283.457 414.422 282.837 414.763 282.322C415.108 281.806 415.562 281.412 416.124 281.139C416.691 280.866 417.32 280.73 418.01 280.73C418.76 280.73 419.412 280.879 419.966 281.178C420.524 281.476 420.955 281.885 421.257 282.405C421.564 282.925 421.717 283.517 421.717 284.182C421.717 284.651 421.645 285.075 421.5 285.454C421.359 285.833 421.155 286.172 420.886 286.47C420.622 286.768 420.303 287.033 419.928 287.263C419.553 287.497 419.252 287.744 419.026 288.004C418.8 288.26 418.636 288.565 418.534 288.918C418.432 289.272 418.376 289.713 418.368 290.241V290.318H416.834ZM417.652 294.102C417.337 294.102 417.066 293.989 416.84 293.763C416.614 293.538 416.501 293.267 416.501 292.952C416.501 292.636 416.614 292.366 416.84 292.14C417.066 291.914 417.337 291.801 417.652 291.801C417.967 291.801 418.238 291.914 418.464 292.14C418.69 292.366 418.803 292.636 418.803 292.952C418.803 293.161 418.749 293.352 418.643 293.527C418.54 293.702 418.402 293.842 418.227 293.949C418.057 294.051 417.865 294.102 417.652 294.102ZM58.9176 310.477C58.9176 308.866 59.1264 307.386 59.544 306.035C59.9659 304.68 60.5668 303.433 61.3466 302.295H62.6761C62.3693 302.717 62.0817 303.237 61.8132 303.855C61.549 304.469 61.3168 305.144 61.1165 305.881C60.9162 306.614 60.7585 307.373 60.6435 308.157C60.5327 308.941 60.4773 309.714 60.4773 310.477C60.4773 311.491 60.5753 312.521 60.7713 313.565C60.9673 314.609 61.2315 315.578 61.5639 316.473C61.8963 317.368 62.267 318.097 62.6761 318.659H61.3466C60.5668 317.521 59.9659 316.277 59.544 314.926C59.1264 313.571 58.9176 312.088 58.9176 310.477ZM68.3995 302.536H69.6235V305.452C69.6235 309.052 67.6795 312.562 65.1055 313.93L64.1875 312.742C66.5455 311.554 68.3995 308.422 68.3995 305.452V302.536ZM68.6695 302.536H69.8755V305.452C69.8755 308.314 71.6935 311.284 73.9975 312.436L73.0795 313.624C70.5595 312.274 68.6695 308.944 68.6695 305.452V302.536ZM75.4195 301.132H76.9315V317.404H75.4195V301.132ZM76.5715 307.72H79.5955V308.98H76.5715V307.72ZM92.1041 301.15H93.5981V310.834H92.1041V301.15ZM93.1481 305.29H96.0101V306.55H93.1481V305.29ZM83.3381 311.644H93.5981V317.188H83.3381V311.644ZM92.1401 312.832H84.8141V315.982H92.1401V312.832ZM81.6821 308.764H82.9601C85.9121 308.764 88.0181 308.692 90.5561 308.242L90.6821 309.466C88.1081 309.898 85.9661 310.006 82.9601 310.006H81.6821V308.764ZM81.6461 302.014H88.9721V306.478H83.1401V309.466H81.6821V305.326H87.4961V303.238H81.6461V302.014ZM109.347 301.114H110.841V317.422H109.347V301.114ZM102.255 302.374C104.667 302.374 106.395 304.588 106.395 308.044C106.395 311.518 104.667 313.732 102.255 313.732C99.8607 313.732 98.1327 311.518 98.1327 308.044C98.1327 304.588 99.8607 302.374 102.255 302.374ZM102.255 303.724C100.671 303.724 99.5547 305.416 99.5547 308.044C99.5547 310.69 100.671 312.418 102.255 312.418C103.857 312.418 104.955 310.69 104.955 308.044C104.955 305.416 103.857 303.724 102.255 303.724ZM123.21 311.14H124.362V312.022C124.362 314.146 123.03 316.288 120.69 317.188L119.934 316.072C121.986 315.334 123.21 313.588 123.21 312.022V311.14ZM123.534 311.14H124.65V312.022C124.65 313.66 125.622 315.406 127.566 316.198L126.936 317.332C124.596 316.414 123.534 314.182 123.534 312.022V311.14ZM129.222 311.14H130.338V312.022C130.338 313.93 129.258 316.342 126.936 317.332L126.306 316.198C128.232 315.316 129.222 313.426 129.222 312.022V311.14ZM129.528 311.14H130.68V312.022C130.68 313.696 131.886 315.37 133.956 316.072L133.2 317.188C130.824 316.324 129.528 314.272 129.528 312.022V311.14ZM130.986 301.15H132.498V310.438H130.986V301.15ZM123.768 302.086C126.234 302.086 127.998 303.634 127.998 305.884C127.998 308.134 126.234 309.664 123.768 309.664C121.302 309.664 119.52 308.134 119.52 305.884C119.52 303.634 121.302 302.086 123.768 302.086ZM123.768 303.328C122.148 303.328 120.978 304.372 120.978 305.884C120.978 307.396 122.148 308.422 123.768 308.422C125.388 308.422 126.558 307.396 126.558 305.884C126.558 304.372 125.388 303.328 123.768 303.328ZM146.716 301.114H148.228V317.422H146.716V301.114ZM147.868 307.54H150.892V308.8H147.868V307.54ZM136.402 312.112H137.68C140.686 312.112 142.792 312.004 145.222 311.554L145.384 312.814C142.882 313.282 140.74 313.372 137.68 313.372H136.402V312.112ZM136.402 302.698H143.962V303.922H137.878V312.67H136.402V302.698ZM160.071 303.994H164.625V305.218H160.071V303.994ZM160.071 307.468H164.661V308.71H160.071V307.468ZM153.015 302.536H160.449V310.168H153.015V302.536ZM158.973 303.742H154.473V308.962H158.973V303.742ZM164.157 301.15H165.651V313.03H164.157V301.15ZM155.193 315.82H166.047V317.044H155.193V315.82ZM155.193 311.95H156.687V316.378H155.193V311.95ZM177.966 309.952H179.46V314.596H177.966V309.952ZM182.988 309.952H184.464V314.596H182.988V309.952ZM173.898 314.2H188.64V315.442H173.898V314.2ZM175.176 302.626H187.254V303.85H175.176V302.626ZM175.212 309.142H187.236V310.348H175.212V309.142ZM177.714 303.616H179.208V309.394H177.714V303.616ZM183.258 303.616H184.734V309.394H183.258V303.616ZM199.133 305.344H202.805V306.586H199.133V305.344ZM202.337 301.132H203.831V310.834H202.337V301.132ZM198.485 311.32C201.833 311.32 203.903 312.454 203.903 314.362C203.903 316.288 201.833 317.386 198.485 317.386C195.119 317.386 193.049 316.288 193.049 314.362C193.049 312.454 195.119 311.32 198.485 311.32ZM198.485 312.49C196.037 312.49 194.543 313.174 194.543 314.362C194.543 315.532 196.037 316.216 198.485 316.216C200.933 316.216 202.427 315.532 202.427 314.362C202.427 313.174 200.933 312.49 198.485 312.49ZM194.597 302.77H195.821V304.084C195.821 307.09 193.985 309.664 191.285 310.672L190.511 309.484C192.923 308.602 194.597 306.424 194.597 304.084V302.77ZM194.885 302.77H196.091V304.084C196.091 306.19 197.675 308.206 200.033 309.034L199.277 310.222C196.631 309.268 194.885 306.82 194.885 304.084V302.77ZM190.961 302.32H199.655V303.544H190.961V302.32ZM207.735 302.914H215.097V304.12H207.735V302.914ZM210.273 307.558H211.749V313.066H210.273V307.558ZM214.485 302.914H215.943V303.778C215.943 305.11 215.943 307.234 215.475 310.258L213.999 310.114C214.485 307.18 214.485 305.092 214.485 303.778V302.914ZM217.995 301.132H219.471V317.404H217.995V301.132ZM219.075 307.936H222.081V309.196H219.075V307.936ZM207.015 313.858L206.835 312.598C209.787 312.598 213.711 312.544 217.005 312.13L217.077 313.228C213.711 313.768 209.895 313.84 207.015 313.858ZM232.65 303.454H233.838V306.1C233.838 309.484 231.768 312.976 229.23 314.272L228.366 313.084C230.688 311.95 232.65 308.854 232.65 306.1V303.454ZM232.92 303.454H234.108V306.1C234.108 308.674 235.944 311.572 238.302 312.688L237.456 313.876C234.882 312.598 232.92 309.322 232.92 306.1V303.454ZM228.942 302.788H237.708V304.048H228.942V302.788ZM239.634 301.132H241.146V317.404H239.634V301.132ZM240.786 307.702H243.81V308.962H240.786V307.702ZM251.603 306.946H254.717V308.188H251.603V306.946ZM248.561 302.662H249.731V305.758C249.731 309.16 248.309 312.454 245.933 313.912L244.997 312.778C247.229 311.464 248.561 308.548 248.561 305.758V302.662ZM248.849 302.662H250.001V305.704C250.001 308.314 251.225 311.086 253.367 312.382L252.503 313.552C250.163 312.112 248.849 308.872 248.849 305.704V302.662ZM257.579 301.132H259.019V317.404H257.579V301.132ZM254.285 301.474H255.689V316.594H254.285V301.474ZM261.736 308.692H276.496V309.826H261.736V308.692ZM263.482 311.14H274.642V314.614H265.012V316.522H263.536V313.588H273.184V312.202H263.482V311.14ZM263.536 316.126H275.164V317.206H263.536V316.126ZM263.608 301.6H274.588V304.984H265.12V306.748H263.644V303.976H273.13V302.662H263.608V301.6ZM263.644 306.388H274.894V307.468H263.644V306.388ZM281.043 314.21L280.941 314.901C280.868 315.386 280.757 315.906 280.608 316.46C280.463 317.014 280.312 317.536 280.154 318.026C279.997 318.516 279.867 318.906 279.764 319.196H278.614C278.669 318.923 278.742 318.563 278.831 318.116C278.921 317.668 279.01 317.168 279.1 316.614C279.193 316.064 279.27 315.501 279.33 314.926L279.406 314.21H281.043ZM292.398 302.536H293.622V305.452C293.622 309.052 291.678 312.562 289.104 313.93L288.186 312.742C290.544 311.554 292.398 308.422 292.398 305.452V302.536ZM292.668 302.536H293.874V305.452C293.874 308.314 295.692 311.284 297.996 312.436L297.078 313.624C294.558 312.274 292.668 308.944 292.668 305.452V302.536ZM299.418 301.132H300.93V317.404H299.418V301.132ZM300.57 307.72H303.594V308.98H300.57V307.72ZM311.566 308.818H313.042V311.32H311.566V308.818ZM304.96 307.99H319.666V309.196H304.96V307.99ZM306.868 301.672H317.758V306.622H306.868V301.672ZM316.3 302.86H308.344V305.434H316.3V302.86ZM306.742 310.78H317.794V314.434H308.254V316.414H306.778V313.354H316.318V311.932H306.742V310.78ZM306.778 316.054H318.28V317.224H306.778V316.054ZM333.345 301.114H334.839V317.422H333.345V301.114ZM326.253 302.374C328.665 302.374 330.393 304.588 330.393 308.044C330.393 311.518 328.665 313.732 326.253 313.732C323.859 313.732 322.131 311.518 322.131 308.044C322.131 304.588 323.859 302.374 326.253 302.374ZM326.253 303.724C324.669 303.724 323.553 305.416 323.553 308.044C323.553 310.69 324.669 312.418 326.253 312.418C327.855 312.418 328.953 310.69 328.953 308.044C328.953 305.416 327.855 303.724 326.253 303.724ZM347.208 311.14H348.36V312.022C348.36 314.146 347.028 316.288 344.688 317.188L343.932 316.072C345.984 315.334 347.208 313.588 347.208 312.022V311.14ZM347.532 311.14H348.648V312.022C348.648 313.66 349.62 315.406 351.564 316.198L350.934 317.332C348.594 316.414 347.532 314.182 347.532 312.022V311.14ZM353.22 311.14H354.336V312.022C354.336 313.93 353.256 316.342 350.934 317.332L350.304 316.198C352.23 315.316 353.22 313.426 353.22 312.022V311.14ZM353.526 311.14H354.678V312.022C354.678 313.696 355.884 315.37 357.954 316.072L357.198 317.188C354.822 316.324 353.526 314.272 353.526 312.022V311.14ZM354.984 301.15H356.496V310.438H354.984V301.15ZM347.766 302.086C350.232 302.086 351.996 303.634 351.996 305.884C351.996 308.134 350.232 309.664 347.766 309.664C345.3 309.664 343.518 308.134 343.518 305.884C343.518 303.634 345.3 302.086 347.766 302.086ZM347.766 303.328C346.146 303.328 344.976 304.372 344.976 305.884C344.976 307.396 346.146 308.422 347.766 308.422C349.386 308.422 350.556 307.396 350.556 305.884C350.556 304.372 349.386 303.328 347.766 303.328ZM370.714 301.114H372.226V317.422H370.714V301.114ZM371.866 307.54H374.89V308.8H371.866V307.54ZM360.4 312.112H361.678C364.684 312.112 366.79 312.004 369.22 311.554L369.382 312.814C366.88 313.282 364.738 313.372 361.678 313.372H360.4V312.112ZM360.4 302.698H367.96V303.922H361.876V312.67H360.4V302.698ZM384.069 303.994H388.623V305.218H384.069V303.994ZM384.069 307.468H388.659V308.71H384.069V307.468ZM377.013 302.536H384.447V310.168H377.013V302.536ZM382.971 303.742H378.471V308.962H382.971V303.742ZM388.155 301.15H389.649V313.03H388.155V301.15ZM379.191 315.82H390.045V317.044H379.191V315.82ZM379.191 311.95H380.685V316.378H379.191V311.95ZM401.298 302.104H402.486V304.282C402.486 306.73 401.1 309.304 398.706 310.402L397.896 309.232C400.02 308.278 401.298 306.136 401.298 304.282V302.104ZM401.532 302.104H402.72V304.282C402.72 306.136 403.926 307.99 406.014 308.836L405.222 309.988C402.864 308.998 401.532 306.712 401.532 304.282V302.104ZM410.172 301.15H411.594V310.978H410.172V301.15ZM407.544 305.362H410.622V306.604H407.544V305.362ZM406.68 301.42H408.102V310.888H406.68V301.42ZM400.686 311.86H411.594V317.404H410.118V313.084H400.686V311.86ZM426.263 301.114H427.757V317.422H426.263V301.114ZM419.171 302.374C421.583 302.374 423.311 304.588 423.311 308.044C423.311 311.518 421.583 313.732 419.171 313.732C416.777 313.732 415.049 311.518 415.049 308.044C415.049 304.588 416.777 302.374 419.171 302.374ZM419.171 303.724C417.587 303.724 416.471 305.416 416.471 308.044C416.471 310.69 417.587 312.418 419.171 312.418C420.773 312.418 421.871 310.69 421.871 308.044C421.871 305.416 420.773 303.724 419.171 303.724ZM443.109 307.612H446.115V308.872H443.109V307.612ZM442.011 301.114H443.523V317.404H442.011V301.114ZM431.643 302.716H433.137V312.796H431.643V302.716ZM431.643 312.022H432.939C435.351 312.022 437.817 311.86 440.499 311.302L440.679 312.544C437.907 313.12 435.405 313.282 432.939 313.282H431.643V312.022ZM452.634 314.092H467.376V315.334H452.634V314.092ZM459.222 309.88H460.716V314.434H459.222V309.88ZM454.344 302.482H465.576V310.15H454.344V302.482ZM464.136 303.688H455.802V308.944H464.136V303.688ZM481.361 303.562H484.187V304.804H481.361V303.562ZM481.361 307.018H484.187V308.26H481.361V307.018ZM473.729 302.086C476.177 302.086 477.977 303.67 477.977 305.938C477.977 308.188 476.177 309.754 473.729 309.754C471.281 309.754 469.481 308.188 469.481 305.938C469.481 303.67 471.281 302.086 473.729 302.086ZM473.729 303.346C472.109 303.346 470.939 304.408 470.939 305.938C470.939 307.468 472.109 308.512 473.729 308.512C475.349 308.512 476.519 307.468 476.519 305.938C476.519 304.408 475.349 303.346 473.729 303.346ZM480.317 301.132H481.811V310.762H480.317V301.132ZM476.627 311.284C479.939 311.284 481.973 312.418 481.973 314.326C481.973 316.252 479.939 317.368 476.627 317.368C473.315 317.368 471.281 316.252 471.281 314.326C471.281 312.418 473.315 311.284 476.627 311.284ZM476.627 312.49C474.215 312.49 472.739 313.156 472.739 314.326C472.739 315.496 474.215 316.18 476.627 316.18C479.039 316.18 480.515 315.496 480.515 314.326C480.515 313.156 479.039 312.49 476.627 312.49ZM493.096 301.402C496.678 301.402 498.82 302.41 498.82 304.228C498.82 306.046 496.678 307.054 493.096 307.054C489.496 307.054 487.372 306.046 487.372 304.228C487.372 302.41 489.496 301.402 493.096 301.402ZM493.096 302.536C490.432 302.536 488.902 303.148 488.902 304.228C488.902 305.308 490.432 305.92 493.096 305.92C495.742 305.92 497.272 305.308 497.272 304.228C497.272 303.148 495.742 302.536 493.096 302.536ZM485.734 308.134H500.44V309.34H485.734V308.134ZM487.516 310.726H498.568V314.398H489.028V316.378H487.552V313.318H497.092V311.878H487.516V310.726ZM487.552 316.054H499.054V317.224H487.552V316.054ZM518.497 301.132H519.991V309.412H518.497V301.132ZM519.343 304.624H522.385V305.866H519.343V304.624ZM509.659 310.186H519.991V314.182H511.171V316.612H509.695V313.048H518.533V311.374H509.659V310.186ZM509.695 315.982H520.585V317.188H509.695V315.982ZM511.855 301.708C514.303 301.708 516.067 303.202 516.067 305.326C516.067 307.468 514.303 308.962 511.855 308.962C509.443 308.962 507.661 307.468 507.661 305.326C507.661 303.202 509.443 301.708 511.855 301.708ZM511.855 302.932C510.289 302.932 509.119 303.922 509.119 305.326C509.119 306.748 510.289 307.738 511.855 307.738C513.457 307.738 514.627 306.748 514.627 305.326C514.627 303.922 513.457 302.932 511.855 302.932ZM535.811 301.114H537.305V317.422H535.811V301.114ZM532.607 304.84H536.207V306.064H532.607V304.84ZM524.525 312.382H525.731C528.251 312.382 530.321 312.31 532.805 311.914L532.949 313.156C530.393 313.552 528.305 313.642 525.731 313.642H524.525V312.382ZM524.489 302.59H531.599V308.422H526.001V312.67H524.525V307.198H530.123V303.832H524.489V302.59ZM532.499 309.286H536.099V310.51H532.499V309.286ZM547.006 302.734H548.302V303.418C548.302 306.334 545.206 308.476 541.93 309.034L541.354 307.846C544.216 307.432 547.006 305.56 547.006 303.418V302.734ZM547.384 302.734H548.662V303.418C548.662 305.56 551.47 307.432 554.314 307.846L553.756 309.034C550.462 308.476 547.384 306.334 547.384 303.418V302.734ZM547.06 311.194H548.536V317.404H547.06V311.194ZM540.49 310.402H555.196V311.626H540.49V310.402ZM541.858 302.14H553.774V303.346H541.858V302.14ZM563.456 306.946H566.57V308.188H563.456V306.946ZM560.414 302.662H561.584V305.758C561.584 309.16 560.162 312.454 557.786 313.912L556.85 312.778C559.082 311.464 560.414 308.548 560.414 305.758V302.662ZM560.702 302.662H561.854V305.704C561.854 308.314 563.078 311.086 565.22 312.382L564.356 313.552C562.016 312.112 560.702 308.872 560.702 305.704V302.662ZM569.432 301.132H570.872V317.404H569.432V301.132ZM566.138 301.474H567.542V316.594H566.138V301.474ZM577.207 309.502H578.683V314.38H577.207V309.502ZM583.219 309.502H584.713V314.38H583.219V309.502ZM573.607 314.092H588.349V315.334H573.607V314.092ZM580.951 302.158C584.389 302.158 586.855 303.796 586.855 306.352C586.855 308.89 584.389 310.528 580.951 310.528C577.495 310.528 575.029 308.89 575.029 306.352C575.029 303.796 577.495 302.158 580.951 302.158ZM580.951 303.346C578.341 303.346 576.469 304.534 576.469 306.352C576.469 308.152 578.341 309.34 580.951 309.34C583.561 309.34 585.415 308.152 585.415 306.352C585.415 304.534 583.561 303.346 580.951 303.346ZM591.746 316.102C591.43 316.102 591.16 315.989 590.934 315.763C590.708 315.538 590.595 315.267 590.595 314.952C590.595 314.636 590.708 314.366 590.934 314.14C591.16 313.914 591.43 313.801 591.746 313.801C592.061 313.801 592.332 313.914 592.558 314.14C592.783 314.366 592.896 314.636 592.896 314.952C592.896 315.161 592.843 315.352 592.737 315.527C592.634 315.702 592.496 315.842 592.321 315.949C592.151 316.051 591.959 316.102 591.746 316.102ZM598.825 310.477C598.825 312.088 598.614 313.571 598.192 314.926C597.775 316.277 597.176 317.521 596.396 318.659H595.066C595.373 318.237 595.659 317.717 595.923 317.099C596.191 316.486 596.426 315.812 596.626 315.08C596.826 314.342 596.982 313.582 597.093 312.798C597.208 312.009 597.265 311.236 597.265 310.477C597.265 309.463 597.167 308.434 596.971 307.39C596.775 306.346 596.511 305.376 596.179 304.482C595.846 303.587 595.475 302.858 595.066 302.295H596.396C597.176 303.433 597.775 304.68 598.192 306.035C598.614 307.386 598.825 308.866 598.825 310.477Z" fill="black"/>
<path fill-rule="evenodd" clip-rule="evenodd" d="M75.5 467C55.3416 467 39 483.342 39 503.5C39 507.949 39.796 512.212 41.2533 516.155L4 540L75.3896 540C75.4264 540 75.4632 540 75.5 540H618.5C638.658 540 655 523.658 655 503.5C655 483.342 638.658 467 618.5 467H75.5Z" fill="#F9A996"/>
<path d="M59.484 485.86H69.96V487.066H59.484V485.86ZM57.9 496.786H72.606V498.028H57.9V496.786ZM69.168 485.86H70.626V487.48C70.626 489.568 70.626 491.89 70.014 495.4L68.52 495.256C69.168 491.926 69.168 489.496 69.168 487.48V485.86ZM86.2846 484.132H87.7966V493.78H86.2846V484.132ZM75.2866 491.782H76.6006C79.5526 491.782 81.7306 491.692 84.3406 491.278L84.5026 492.484C81.8206 492.934 79.6246 493.024 76.6006 493.024H75.2866V491.782ZM75.2506 485.104H82.6306V489.55H76.7446V492.52H75.2866V488.398H81.1726V486.328H75.2506V485.104ZM77.2846 494.68H87.7966V500.188H77.2846V494.68ZM86.3206 495.868H78.7426V498.982H86.3206V495.868ZM90.9992 492.682H105.705V493.906H90.9992V492.682ZM92.9072 498.82H104.085V500.044H92.9072V498.82ZM92.9072 495.328H94.4012V499.198H92.9072V495.328ZM98.3612 484.672C101.835 484.672 104.085 485.896 104.085 487.93C104.085 489.946 101.835 491.17 98.3612 491.17C94.8692 491.17 92.6372 489.946 92.6372 487.93C92.6372 485.896 94.8692 484.672 98.3612 484.672ZM98.3612 485.896C95.8052 485.896 94.1672 486.652 94.1672 487.93C94.1672 489.208 95.8052 489.964 98.3612 489.964C100.917 489.964 102.555 489.208 102.555 487.93C102.555 486.652 100.917 485.896 98.3612 485.896ZM116.976 485.374C119.334 485.374 121.026 487.588 121.026 491.044C121.026 494.518 119.334 496.732 116.976 496.732C114.6 496.732 112.926 494.518 112.926 491.044C112.926 487.588 114.6 485.374 116.976 485.374ZM116.976 486.724C115.41 486.724 114.348 488.416 114.348 491.044C114.348 493.69 115.41 495.418 116.976 495.418C118.542 495.418 119.604 493.69 119.604 491.044C119.604 488.416 118.542 486.724 116.976 486.724ZM124.554 484.114H126.03V500.422H124.554V484.114ZM120.54 490.324H125.202V491.548H120.54V490.324ZM129.683 494.986H130.385C131.357 494.986 132.491 494.968 133.769 494.644L133.949 495.886C132.563 496.21 131.447 496.228 130.385 496.228H129.683V494.986ZM129.683 485.77H133.697V486.994H131.159V495.562H129.683V485.77ZM134.579 494.986H135.407C137.027 494.986 138.233 494.932 139.637 494.59L139.781 495.832C138.305 496.192 137.099 496.228 135.407 496.228H134.579V494.986ZM134.579 485.77H138.989V486.994H136.055V495.58H134.579V485.77ZM141.257 484.132H142.751V500.404H141.257V484.132ZM138.179 490.072H141.797V491.314H138.179V490.072ZM156.879 484.15H158.373V496.354H156.879V484.15ZM157.905 489.478H160.785V490.738H157.905V489.478ZM145.791 486.112H155.403V487.318H145.791V486.112ZM150.597 488.218C152.901 488.218 154.485 489.424 154.485 491.26C154.485 493.078 152.901 494.284 150.597 494.284C148.275 494.284 146.691 493.078 146.691 491.26C146.691 489.424 148.275 488.218 150.597 488.218ZM150.597 489.388C149.121 489.388 148.113 490.126 148.113 491.26C148.113 492.376 149.121 493.114 150.597 493.114C152.055 493.114 153.063 492.376 153.063 491.26C153.063 490.126 152.055 489.388 150.597 489.388ZM149.841 484.132H151.335V486.742H149.841V484.132ZM148.239 498.82H159.111V500.044H148.239V498.82ZM148.239 495.382H149.733V499.342H148.239V495.382ZM167.359 492.718H182.101V493.942H167.359V492.718ZM174.091 493.33H175.585V497.074H174.091V493.33ZM169.231 498.82H180.463V500.044H169.231V498.82ZM169.231 495.634H170.707V499.288H169.231V495.634ZM169.321 484.636H170.797V486.706H178.663V484.636H180.157V491.152H169.321V484.636ZM170.797 487.876V489.946H178.663V487.876H170.797ZM189.245 484.888C191.675 484.888 193.403 486.238 193.403 488.236C193.403 490.216 191.675 491.602 189.245 491.602C186.833 491.602 185.105 490.216 185.105 488.236C185.105 486.238 186.833 484.888 189.245 484.888ZM189.245 486.13C187.661 486.13 186.527 486.994 186.527 488.236C186.527 489.496 187.661 490.342 189.245 490.342C190.829 490.342 191.963 489.496 191.963 488.236C191.963 486.994 190.829 486.13 189.245 486.13ZM188.579 493.402H190.073V499.9H188.579V493.402ZM195.779 484.132H197.255V500.422H195.779V484.132ZM184.097 494.212L183.899 492.952C186.923 492.952 191.045 492.916 194.627 492.376L194.735 493.492C191.063 494.158 187.067 494.212 184.097 494.212ZM212.338 484.132H213.832V500.404H212.338V484.132ZM207.568 485.878H209.044C209.044 490.594 206.92 494.716 201.484 497.38L200.692 496.174C205.39 493.906 207.568 490.45 207.568 486.13V485.878ZM201.43 485.878H208.216V487.102H201.43V485.878ZM217.034 491.692H231.794V492.826H217.034V491.692ZM218.78 494.14H229.94V497.614H220.31V499.522H218.834V496.588H228.482V495.202H218.78V494.14ZM218.834 499.126H230.462V500.206H218.834V499.126ZM218.906 484.6H229.886V487.984H220.418V489.748H218.942V486.976H228.428V485.662H218.906V484.6ZM218.942 489.388H230.192V490.468H218.942V489.388ZM249.671 484.114H251.183V500.404H249.671V484.114ZM250.769 490.72H253.775V491.962H250.769V490.72ZM245.513 485.878H246.971C246.971 490.504 244.847 494.68 239.591 497.326L238.763 496.174C243.263 493.888 245.513 490.414 245.513 486.112V485.878ZM239.519 485.878H246.287V487.102H239.519V485.878ZM259.534 486.454H260.74V489.1C260.74 492.538 258.67 495.994 256.078 497.272L255.214 496.084C257.572 494.968 259.534 491.908 259.534 489.1V486.454ZM259.822 486.454H261.028V489.1C261.028 491.854 262.99 494.662 265.384 495.688L264.538 496.876C261.91 495.652 259.822 492.484 259.822 489.1V486.454ZM255.754 485.788H264.844V487.048H255.754V485.788ZM267.04 484.132H268.534V500.404H267.04V484.132ZM273.339 485.752H283.815V486.994H273.339V485.752ZM271.791 496.894H286.497V498.136H271.791V496.894ZM277.497 491.08H278.991V497.506H277.497V491.08ZM283.257 485.752H284.733V487.372C284.733 489.388 284.733 491.62 284.139 494.914L282.645 494.716C283.257 491.602 283.257 489.316 283.257 487.372V485.752ZM297.462 494.14H298.614V495.022C298.614 497.146 297.282 499.288 294.942 500.188L294.186 499.072C296.238 498.334 297.462 496.588 297.462 495.022V494.14ZM297.786 494.14H298.902V495.022C298.902 496.66 299.874 498.406 301.818 499.198L301.188 500.332C298.848 499.414 297.786 497.182 297.786 495.022V494.14ZM303.474 494.14H304.59V495.022C304.59 496.93 303.51 499.342 301.188 500.332L300.558 499.198C302.484 498.316 303.474 496.426 303.474 495.022V494.14ZM303.78 494.14H304.932V495.022C304.932 496.696 306.138 498.37 308.208 499.072L307.452 500.188C305.076 499.324 303.78 497.272 303.78 495.022V494.14ZM305.238 484.15H306.75V493.438H305.238V484.15ZM298.02 485.086C300.486 485.086 302.25 486.634 302.25 488.884C302.25 491.134 300.486 492.664 298.02 492.664C295.554 492.664 293.772 491.134 293.772 488.884C293.772 486.634 295.554 485.086 298.02 485.086ZM298.02 486.328C296.4 486.328 295.23 487.372 295.23 488.884C295.23 490.396 296.4 491.422 298.02 491.422C299.64 491.422 300.81 490.396 300.81 488.884C300.81 487.372 299.64 486.328 298.02 486.328ZM322.066 490.612H325.072V491.872H322.066V490.612ZM320.968 484.114H322.48V500.404H320.968V484.114ZM310.6 485.716H312.094V495.796H310.6V485.716ZM310.6 495.022H311.896C314.308 495.022 316.774 494.86 319.456 494.302L319.636 495.544C316.864 496.12 314.362 496.282 311.896 496.282H310.6V495.022ZM330.129 492.502H331.605V497.38H330.129V492.502ZM336.141 492.502H337.635V497.38H336.141V492.502ZM326.529 497.092H341.271V498.334H326.529V497.092ZM333.873 485.158C337.311 485.158 339.777 486.796 339.777 489.352C339.777 491.89 337.311 493.528 333.873 493.528C330.417 493.528 327.951 491.89 327.951 489.352C327.951 486.796 330.417 485.158 333.873 485.158ZM333.873 486.346C331.263 486.346 329.391 487.534 329.391 489.352C329.391 491.152 331.263 492.34 333.873 492.34C336.483 492.34 338.337 491.152 338.337 489.352C338.337 487.534 336.483 486.346 333.873 486.346ZM345.537 495.318V495.241C345.545 494.428 345.631 493.78 345.793 493.298C345.955 492.817 346.185 492.427 346.483 492.129C346.781 491.83 347.139 491.555 347.557 491.304C347.808 491.151 348.034 490.969 348.234 490.761C348.435 490.548 348.592 490.303 348.707 490.026C348.827 489.749 348.886 489.442 348.886 489.105C348.886 488.687 348.788 488.325 348.592 488.018C348.396 487.712 348.134 487.475 347.806 487.309C347.478 487.143 347.114 487.06 346.713 487.06C346.364 487.06 346.027 487.132 345.703 487.277C345.379 487.422 345.109 487.65 344.891 487.961C344.674 488.272 344.548 488.679 344.514 489.182H342.903C342.938 488.457 343.125 487.837 343.466 487.322C343.811 486.806 344.265 486.412 344.827 486.139C345.394 485.866 346.023 485.73 346.713 485.73C347.463 485.73 348.115 485.879 348.669 486.178C349.227 486.476 349.658 486.885 349.96 487.405C350.267 487.925 350.42 488.517 350.42 489.182C350.42 489.651 350.348 490.075 350.203 490.454C350.062 490.833 349.858 491.172 349.589 491.47C349.325 491.768 349.006 492.033 348.631 492.263C348.256 492.497 347.955 492.744 347.729 493.004C347.504 493.26 347.339 493.565 347.237 493.918C347.135 494.272 347.08 494.713 347.071 495.241V495.318H345.537ZM346.355 499.102C346.04 499.102 345.769 498.989 345.543 498.763C345.317 498.538 345.205 498.267 345.205 497.952C345.205 497.636 345.317 497.366 345.543 497.14C345.769 496.914 346.04 496.801 346.355 496.801C346.67 496.801 346.941 496.914 347.167 497.14C347.393 497.366 347.506 497.636 347.506 497.952C347.506 498.161 347.452 498.352 347.346 498.527C347.244 498.702 347.105 498.842 346.93 498.949C346.76 499.051 346.568 499.102 346.355 499.102ZM58.9176 515.477C58.9176 513.866 59.1264 512.386 59.544 511.035C59.9659 509.68 60.5668 508.433 61.3466 507.295H62.6761C62.3693 507.717 62.0817 508.237 61.8132 508.855C61.549 509.469 61.3168 510.144 61.1165 510.881C60.9162 511.614 60.7585 512.373 60.6435 513.157C60.5327 513.941 60.4773 514.714 60.4773 515.477C60.4773 516.491 60.5753 517.521 60.7713 518.565C60.9673 519.609 61.2315 520.578 61.5639 521.473C61.8963 522.368 62.267 523.097 62.6761 523.659H61.3466C60.5668 522.521 59.9659 521.277 59.544 519.926C59.1264 518.571 58.9176 517.088 58.9176 515.477ZM66.0055 507.86H76.4815V509.066H66.0055V507.86ZM64.4215 518.786H79.1275V520.028H64.4215V518.786ZM75.6895 507.86H77.1475V509.48C77.1475 511.568 77.1475 513.89 76.5355 517.4L75.0415 517.256C75.6895 513.926 75.6895 511.496 75.6895 509.48V507.86ZM92.8061 506.132H94.3181V515.78H92.8061V506.132ZM81.8081 513.782H83.1221C86.0741 513.782 88.2521 513.692 90.8621 513.278L91.0241 514.484C88.3421 514.934 86.1461 515.024 83.1221 515.024H81.8081V513.782ZM81.7721 507.104H89.1521V511.55H83.2661V514.52H81.8081V510.398H87.6941V508.328H81.7721V507.104ZM83.8061 516.68H94.3181V522.188H83.8061V516.68ZM92.8421 517.868H85.2641V520.982H92.8421V517.868ZM104.127 512.45H107.205V513.692H104.127V512.45ZM109.923 506.132H111.363V522.404H109.923V506.132ZM106.701 506.474H108.123V521.594H106.701V506.474ZM101.193 507.482C103.299 507.482 104.667 509.66 104.667 513.152C104.667 516.644 103.299 518.822 101.193 518.822C99.0867 518.822 97.7367 516.644 97.7367 513.152C97.7367 509.66 99.0867 507.482 101.193 507.482ZM101.193 508.868C99.9147 508.868 99.1047 510.524 99.1047 513.152C99.1047 515.78 99.9147 517.436 101.193 517.436C102.489 517.436 103.299 515.78 103.299 513.152C103.299 510.524 102.489 508.868 101.193 508.868ZM122.215 511.64H126.751V512.864H122.215V511.64ZM118.291 507.536H119.515V510.434C119.515 514.088 117.589 517.58 115.015 518.966L114.061 517.778C116.455 516.59 118.291 513.458 118.291 510.434V507.536ZM118.579 507.536H119.785V510.434C119.785 513.404 121.621 516.356 123.979 517.472L123.097 518.678C120.469 517.346 118.579 513.998 118.579 510.434V507.536ZM126.013 506.114H127.489V522.422H126.013V506.114ZM137.518 513.476H148.786V514.718H137.518V513.476ZM135.718 518.93H150.46V520.172H135.718V518.93ZM137.518 507.554H139.012V514.034H137.518V507.554ZM164.103 506.132H165.597V522.404H164.103V506.132ZM160.917 510.524H164.733V511.748H160.917V510.524ZM159.891 514.862H164.571V516.086H159.891V514.862ZM155.715 507.896H157.101C157.101 511.766 156.201 515.582 153.285 518.696L152.115 517.832C154.743 515.078 155.715 511.712 155.715 508.04V507.896ZM152.673 507.896H156.291V509.12H152.673V507.896ZM160.089 507.896H161.475C161.475 511.766 160.881 516.284 157.929 519.794L156.705 518.984C159.405 515.798 160.089 511.766 160.089 508.022V507.896ZM157.605 507.896H160.719V509.12H157.605V507.896ZM164.103 506.132H165.597V522.404H164.103V506.132ZM173.138 508.454H174.344V511.1C174.344 514.538 172.274 517.994 169.682 519.272L168.818 518.084C171.176 516.968 173.138 513.908 173.138 511.1V508.454ZM173.426 508.454H174.632V511.1C174.632 513.854 176.594 516.662 178.988 517.688L178.142 518.876C175.514 517.652 173.426 514.484 173.426 511.1V508.454ZM169.358 507.788H178.448V509.048H169.358V507.788ZM180.644 506.132H182.138V522.404H180.644V506.132ZM187.374 511.01H198.426V512.234H187.374V511.01ZM185.376 514.412H200.136V515.636H185.376V514.412ZM187.374 506.726H188.85V511.622H187.374V506.726ZM187.266 520.784H198.516V522.008H187.266V520.784ZM187.266 517.256H188.742V521.108H187.266V517.256ZM218.841 506.15H220.353V518.03H218.841V506.15ZM209.895 520.82H220.839V522.044H209.895V520.82ZM209.895 516.806H211.371V521.234H209.895V516.806ZM211.623 507.266C214.053 507.266 215.853 508.922 215.853 511.28C215.853 513.62 214.053 515.294 211.623 515.294C209.193 515.294 207.375 513.62 207.375 511.28C207.375 508.922 209.193 507.266 211.623 507.266ZM211.623 508.562C210.039 508.562 208.833 509.678 208.833 511.28C208.833 512.864 210.039 513.98 211.623 513.98C213.207 513.98 214.413 512.864 214.413 511.28C214.413 509.678 213.207 508.562 211.623 508.562ZM227.516 506.978H228.758V508.634C228.758 511.766 226.994 514.358 224.276 515.42L223.484 514.214C225.932 513.314 227.516 511.118 227.516 508.634V506.978ZM227.786 506.978H229.01V508.742C229.01 510.938 230.63 512.972 232.97 513.782L232.178 514.952C229.568 513.98 227.786 511.568 227.786 508.742V506.978ZM234.698 506.132H236.192V515.996H234.698V506.132ZM235.778 510.326H238.604V511.586H235.778V510.326ZM231.008 516.446C234.338 516.446 236.354 517.544 236.354 519.416C236.354 521.288 234.338 522.368 231.008 522.368C227.678 522.368 225.662 521.288 225.662 519.416C225.662 517.544 227.678 516.446 231.008 516.446ZM231.008 517.634C228.596 517.634 227.12 518.282 227.12 519.416C227.12 520.55 228.596 521.198 231.008 521.198C233.42 521.198 234.896 520.55 234.896 519.416C234.896 518.282 233.42 517.634 231.008 517.634ZM240.852 507.914H248.214V509.12H240.852V507.914ZM243.39 512.558H244.866V518.066H243.39V512.558ZM247.602 507.914H249.06V508.778C249.06 510.11 249.06 512.234 248.592 515.258L247.116 515.114C247.602 512.18 247.602 510.092 247.602 508.778V507.914ZM251.112 506.132H252.588V522.404H251.112V506.132ZM252.192 512.936H255.198V514.196H252.192V512.936ZM240.132 518.858L239.952 517.598C242.904 517.598 246.828 517.544 250.122 517.13L250.194 518.228C246.828 518.768 243.012 518.84 240.132 518.858ZM261.736 514.718H276.478V515.942H261.736V514.718ZM268.468 515.33H269.962V519.074H268.468V515.33ZM263.608 520.82H274.84V522.044H263.608V520.82ZM263.608 517.634H265.084V521.288H263.608V517.634ZM263.698 506.636H265.174V508.706H273.04V506.636H274.534V513.152H263.698V506.636ZM265.174 509.876V511.946H273.04V509.876H265.174ZM283.622 506.888C286.052 506.888 287.78 508.238 287.78 510.236C287.78 512.216 286.052 513.602 283.622 513.602C281.21 513.602 279.482 512.216 279.482 510.236C279.482 508.238 281.21 506.888 283.622 506.888ZM283.622 508.13C282.038 508.13 280.904 508.994 280.904 510.236C280.904 511.496 282.038 512.342 283.622 512.342C285.206 512.342 286.34 511.496 286.34 510.236C286.34 508.994 285.206 508.13 283.622 508.13ZM282.956 515.402H284.45V521.9H282.956V515.402ZM290.156 506.132H291.632V522.422H290.156V506.132ZM278.474 516.212L278.276 514.952C281.3 514.952 285.422 514.916 289.004 514.376L289.112 515.492C285.44 516.158 281.444 516.212 278.474 516.212ZM306.715 506.132H308.209V522.404H306.715V506.132ZM301.945 507.878H303.421C303.421 512.594 301.297 516.716 295.861 519.38L295.069 518.174C299.767 515.906 301.945 512.45 301.945 508.13V507.878ZM295.807 507.878H302.593V509.102H295.807V507.878ZM311.411 513.692H326.171V514.826H311.411V513.692ZM313.157 516.14H324.317V519.614H314.687V521.522H313.211V518.588H322.859V517.202H313.157V516.14ZM313.211 521.126H324.839V522.206H313.211V521.126ZM313.283 506.6H324.263V509.984H314.795V511.748H313.319V508.976H322.805V507.662H313.283V506.6ZM313.319 511.388H324.569V512.468H313.319V511.388ZM337.19 507.788H338.414V509.102C338.414 512.072 336.578 514.61 333.86 515.618L333.086 514.43C335.516 513.566 337.19 511.406 337.19 509.102V507.788ZM337.478 507.788H338.684V509.102C338.684 511.19 340.268 513.224 342.626 514.052L341.87 515.24C339.224 514.268 337.478 511.82 337.478 509.102V507.788ZM341.744 510.362H345.362V511.604H341.744V510.362ZM333.554 507.248H342.248V508.454H333.554V507.248ZM335.57 516.752H346.424V522.404H344.93V517.976H335.57V516.752ZM344.93 506.132H346.424V515.87H344.93V506.132ZM353.947 507.374C356.305 507.374 357.997 509.588 357.997 513.044C357.997 516.518 356.305 518.732 353.947 518.732C351.571 518.732 349.897 516.518 349.897 513.044C349.897 509.588 351.571 507.374 353.947 507.374ZM353.947 508.724C352.381 508.724 351.319 510.416 351.319 513.044C351.319 515.69 352.381 517.418 353.947 517.418C355.513 517.418 356.575 515.69 356.575 513.044C356.575 510.416 355.513 508.724 353.947 508.724ZM361.525 506.114H363.001V522.422H361.525V506.114ZM357.511 512.324H362.173V513.548H357.511V512.324ZM372.684 507.734H373.98V508.418C373.98 511.334 370.884 513.476 367.608 514.034L367.032 512.846C369.894 512.432 372.684 510.56 372.684 508.418V507.734ZM373.062 507.734H374.34V508.418C374.34 510.56 377.148 512.432 379.992 512.846L379.434 514.034C376.14 513.476 373.062 511.334 373.062 508.418V507.734ZM372.738 516.194H374.214V522.404H372.738V516.194ZM366.168 515.402H380.874V516.626H366.168V515.402ZM367.536 507.14H379.452V508.346H367.536V507.14ZM389.134 511.946H392.248V513.188H389.134V511.946ZM386.092 507.662H387.262V510.758C387.262 514.16 385.84 517.454 383.464 518.912L382.528 517.778C384.76 516.464 386.092 513.548 386.092 510.758V507.662ZM386.38 507.662H387.532V510.704C387.532 513.314 388.756 516.086 390.898 517.382L390.034 518.552C387.694 517.112 386.38 513.872 386.38 510.704V507.662ZM395.11 506.132H396.55V522.404H395.11V506.132ZM391.816 506.474H393.22V521.594H391.816V506.474ZM402.885 514.502H404.361V519.38H402.885V514.502ZM408.897 514.502H410.391V519.38H408.897V514.502ZM399.285 519.092H414.027V520.334H399.285V519.092ZM406.629 507.158C410.067 507.158 412.533 508.796 412.533 511.352C412.533 513.89 410.067 515.528 406.629 515.528C403.173 515.528 400.707 513.89 400.707 511.352C400.707 508.796 403.173 507.158 406.629 507.158ZM406.629 508.346C404.019 508.346 402.147 509.534 402.147 511.352C402.147 513.152 404.019 514.34 406.629 514.34C409.239 514.34 411.093 513.152 411.093 511.352C411.093 509.534 409.239 508.346 406.629 508.346ZM417.423 521.102C417.108 521.102 416.838 520.989 416.612 520.763C416.386 520.538 416.273 520.267 416.273 519.952C416.273 519.636 416.386 519.366 416.612 519.14C416.838 518.914 417.108 518.801 417.423 518.801C417.739 518.801 418.009 518.914 418.235 519.14C418.461 519.366 418.574 519.636 418.574 519.952C418.574 520.161 418.521 520.352 418.414 520.527C418.312 520.702 418.173 520.842 417.999 520.949C417.828 521.051 417.637 521.102 417.423 521.102ZM424.503 515.477C424.503 517.088 424.292 518.571 423.87 519.926C423.452 521.277 422.854 522.521 422.074 523.659H420.744C421.051 523.237 421.336 522.717 421.601 522.099C421.869 521.486 422.104 520.812 422.304 520.08C422.504 519.342 422.66 518.582 422.77 517.798C422.885 517.009 422.943 516.236 422.943 515.477C422.943 514.463 422.845 513.434 422.649 512.39C422.453 511.346 422.189 510.376 421.856 509.482C421.524 508.587 421.153 507.858 420.744 507.295H422.074C422.854 508.433 423.452 509.68 423.87 511.035C424.292 512.386 424.503 513.866 424.503 515.477Z" fill="black"/>
</svg>
