<svg width="2077" height="373" viewBox="0 0 2077 373" fill="none" xmlns="http://www.w3.org/2000/svg">
<path d="M922.852 98.6239C925.201 93.5686 926.43 88.3525 926.43 83.0187C926.43 37.1688 835.697 0 723.77 0C655.288 0 594.739 13.9149 558.056 35.2197C522.837 23.1077 477.413 15.8131 427.831 15.8131C316.98 15.8131 226.917 52.2714 225.199 97.5132H225.174C100.813 97.5132 0 138.811 0 189.757C0 240.702 100.813 282 225.174 282H887.829C1012.19 282 1113 240.702 1113 189.757C1113 143.692 1030.58 105.516 922.852 98.6239Z" fill="#DAE0E9" fill-opacity="0.15"/>
<path d="M1949.38 151.908C1950.96 145.813 1951.78 139.524 1951.78 133.093C1951.78 77.8135 1890.89 33 1815.76 33C1769.8 33 1729.16 49.7768 1704.54 75.4635C1680.91 60.8604 1650.42 52.0654 1617.14 52.0654C1542.74 52.0654 1482.3 96.0222 1481.14 150.569H1481.13C1397.66 150.569 1330 200.361 1330 261.785C1330 323.208 1397.66 373 1481.13 373H1925.87C2009.34 373 2077 323.208 2077 261.785C2077 206.246 2021.68 160.218 1949.38 151.908Z" fill="white" fill-opacity="0.12"/>
</svg>
