<svg width="1223" height="242" viewBox="0 0 1223 242" fill="none" xmlns="http://www.w3.org/2000/svg">
<rect width="1223" height="242" fill="#FFD0C5"/>
<g filter="url(#filter0_di_111_81)">
<rect x="13" y="7.875" width="1197" height="219.068" fill="#FFB5A4"/>
</g>
<g filter="url(#filter1_di_111_81)">
<rect width="1134" height="189.716" transform="matrix(1 0 0 -1 44 211.193)" fill="#FFD0C5"/>
</g>
<rect x="219" y="139" width="210" height="36" fill="#EA8585"/>
<path d="M273.732 73.86H286.212V91.53H273.732V73.86ZM283.782 75.87H276.162V89.52H283.782V75.87ZM291.882 71.19H294.372V98.37H291.882V71.19ZM310.78 71.34H312.88V72.33C312.88 76.95 307.6 80.04 301.96 80.76L301.12 78.84C306.04 78.3 310.78 75.69 310.78 72.33V71.34ZM311.2 71.34H313.3V72.33C313.3 75.69 318.04 78.3 322.96 78.84L322.09 80.76C316.48 80.04 311.2 76.95 311.2 72.33V71.34ZM310.78 84H313.24V88.14H310.78V84ZM299.77 82.53H324.28V84.54H299.77V82.53ZM302.74 87.21H321.16V93.39H305.26V96.66H302.8V91.59H318.7V89.13H302.74V87.21ZM302.8 96.09H321.97V98.04H302.8V96.09ZM328.837 73.32H340.837V75.36H328.837V73.32ZM332.917 79.38H335.377V86.16H332.917V79.38ZM339.847 73.32H342.307V74.76C342.307 76.53 342.307 79.23 341.587 82.8L339.157 82.53C339.847 78.96 339.847 76.5 339.847 74.76V73.32ZM345.997 71.22H348.487V91.65H345.997V71.22ZM347.347 80.04H352.357V82.11H347.347V80.04ZM331.357 95.7H349.357V97.74H331.357V95.7ZM331.357 89.76H333.817V96.33H331.357V89.76ZM327.457 87.33L327.187 85.29C332.017 85.29 338.677 85.17 344.167 84.42L344.347 86.22C338.707 87.21 332.227 87.33 327.457 87.33ZM364.873 73.32H376.873V75.36H364.873V73.32ZM368.953 79.38H371.413V86.16H368.953V79.38ZM375.883 73.32H378.343V74.76C378.343 76.53 378.343 79.23 377.623 82.8L375.193 82.53C375.883 78.96 375.883 76.5 375.883 74.76V73.32ZM382.033 71.22H384.523V91.65H382.033V71.22ZM383.383 80.04H388.393V82.11H383.383V80.04ZM367.393 95.7H385.393V97.74H367.393V95.7ZM367.393 89.76H369.853V96.33H367.393V89.76ZM363.493 87.33L363.223 85.29C368.053 85.29 374.713 85.17 380.203 84.42L380.383 86.22C374.743 87.21 368.263 87.33 363.493 87.33ZM409.57 71.25H412.06V87.39H409.57V71.25ZM411.31 78.15H416.08V80.25H411.31V78.15ZM394.96 88.74H412.06V97.98H394.96V88.74ZM409.63 90.72H397.42V95.97H409.63V90.72ZM392.2 83.94H394.33C399.25 83.94 402.76 83.82 406.99 83.07L407.2 85.11C402.91 85.83 399.34 86.01 394.33 86.01H392.2V83.94ZM392.14 72.69H404.35V80.13H394.63V85.11H392.2V78.21H401.89V74.73H392.14V72.69ZM438.308 71.19H440.798V98.37H438.308V71.19ZM426.488 73.29C430.508 73.29 433.388 76.98 433.388 82.74C433.388 88.53 430.508 92.22 426.488 92.22C422.498 92.22 419.618 88.53 419.618 82.74C419.618 76.98 422.498 73.29 426.488 73.29ZM426.488 75.54C423.848 75.54 421.988 78.36 421.988 82.74C421.988 87.15 423.848 90.03 426.488 90.03C429.158 90.03 430.988 87.15 430.988 82.74C430.988 78.36 429.158 75.54 426.488 75.54ZM454.663 92.82H479.233V94.89H454.663V92.82ZM465.643 85.8H468.133V93.39H465.643V85.8ZM457.513 73.47H476.233V86.25H457.513V73.47ZM473.833 75.48H459.943V84.24H473.833V75.48ZM485.621 81.3H503.741V83.34H485.621V81.3ZM482.231 86.85H506.831V88.92H482.231V86.85ZM493.211 87.99H495.671V98.25H493.211V87.99ZM485.621 72.81H503.381V74.85H488.141V82.29H485.621V72.81ZM518.266 81.66H542.866V83.67H518.266V81.66ZM520.546 72.27H527.746V74.28H520.546V72.27ZM526.906 72.27H529.336V73.05C529.336 74.55 529.336 77.88 528.076 82.41L525.646 82.11C526.906 77.61 526.906 74.61 526.906 73.05V72.27ZM531.166 72.27H538.486V74.28H531.166V72.27ZM537.376 72.27H539.806V73.44C539.806 75.21 539.806 78.3 538.726 82.53L536.296 82.17C537.376 78.03 537.376 75.18 537.376 73.44V72.27ZM521.356 86.52H539.866V88.44H523.846V96.57H521.356V86.52ZM521.356 96.06H540.046V97.98H521.356V96.06ZM522.796 91.26H539.176V93.12H522.796V91.26ZM564.434 71.22H566.924V86.4H564.434V71.22ZM566.264 77.64H570.944V79.71H566.264V77.64ZM547.184 72.93H549.674V83.94H547.184V72.93ZM547.184 82.59H549.314C553.214 82.59 557.264 82.32 561.704 81.42L562.004 83.46C557.414 84.39 553.364 84.69 549.314 84.69H547.184V82.59ZM552.404 87.51H554.294V89.46C554.294 93.03 552.104 96.66 548.234 98.13L546.974 96.3C550.364 95.04 552.404 92.1 552.404 89.46V87.51ZM552.974 87.51H554.804V89.46C554.804 92.22 556.394 95.16 559.664 96.51L558.584 98.37C554.684 96.84 552.974 93.06 552.974 89.46V87.51ZM562.394 87.51H564.254V89.46C564.254 92.64 562.484 96.72 558.584 98.37L557.534 96.51C560.804 95.01 562.394 91.8 562.394 89.46V87.51ZM562.904 87.51H564.824V89.46C564.824 92.28 566.804 95.13 570.224 96.3L568.994 98.13C565.064 96.69 562.904 93.21 562.904 89.46V87.51ZM576.581 87.48H579.041V90.63H592.301V87.48H594.791V97.98H576.581V87.48ZM579.041 92.55V95.97H592.301V92.55H579.041ZM573.461 83.58H597.971V85.59H573.461V83.58ZM584.471 71.52H586.601V72.72C586.601 77.43 581.351 80.82 575.771 81.66L574.871 79.71C579.761 79.05 584.471 76.14 584.471 72.72V71.52ZM584.861 71.52H586.991V72.72C586.991 76.08 591.761 79.05 596.591 79.71L595.661 81.66C590.141 80.82 584.861 77.37 584.861 72.72V71.52ZM620.799 71.22H623.289V98.34H620.799V71.22ZM602.799 73.86H605.259V90.66H602.799V73.86ZM602.799 89.19H605.019C609.129 89.19 613.419 88.89 618.009 87.93L618.309 90.06C613.599 91.02 609.309 91.35 605.019 91.35H602.799V89.19ZM647.017 71.19H649.537V98.37H647.017V71.19ZM648.937 81.9H653.977V84H648.937V81.9ZM629.827 89.52H631.957C636.967 89.52 640.477 89.34 644.527 88.59L644.797 90.69C640.627 91.47 637.057 91.62 631.957 91.62H629.827V89.52ZM629.827 73.83H642.427V75.87H632.287V90.45H629.827V73.83ZM658.918 96.1705C658.392 96.1705 657.941 95.9822 657.565 95.6058C657.188 95.2294 657 94.7784 657 94.2528C657 93.7273 657.188 93.2763 657.565 92.8999C657.941 92.5234 658.392 92.3352 658.918 92.3352C659.443 92.3352 659.894 92.5234 660.271 92.8999C660.647 93.2763 660.835 93.7273 660.835 94.2528C660.835 94.6009 660.747 94.9205 660.569 95.2116C660.399 95.5028 660.168 95.7372 659.877 95.9148C659.592 96.0852 659.273 96.1705 658.918 96.1705ZM674.423 73.32H686.423V75.36H674.423V73.32ZM678.503 79.38H680.963V86.16H678.503V79.38ZM685.433 73.32H687.893V74.76C687.893 76.53 687.893 79.23 687.173 82.8L684.743 82.53C685.433 78.96 685.433 76.5 685.433 74.76V73.32ZM691.583 71.22H694.073V91.65H691.583V71.22ZM692.933 80.04H697.943V82.11H692.933V80.04ZM676.943 95.7H694.943V97.74H676.943V95.7ZM676.943 89.76H679.403V96.33H676.943V89.76ZM673.043 87.33L672.773 85.29C677.603 85.29 684.263 85.17 689.753 84.42L689.933 86.22C684.293 87.21 677.813 87.33 673.043 87.33ZM719.121 71.25H721.611V87.39H719.121V71.25ZM720.861 78.15H725.631V80.25H720.861V78.15ZM704.511 88.74H721.611V97.98H704.511V88.74ZM719.181 90.72H706.971V95.97H719.181V90.72ZM701.751 83.94H703.881C708.801 83.94 712.311 83.82 716.541 83.07L716.751 85.11C712.461 85.83 708.891 86.01 703.881 86.01H701.751V83.94ZM701.691 72.69H713.901V80.13H704.181V85.11H701.751V78.21H711.441V74.73H701.691V72.69ZM728.149 85.47H752.659V87.51H728.149V85.47ZM731.329 95.7H749.959V97.74H731.329V95.7ZM731.329 89.88H733.819V96.33H731.329V89.88ZM740.419 72.12C746.209 72.12 749.959 74.16 749.959 77.55C749.959 80.91 746.209 82.95 740.419 82.95C734.599 82.95 730.879 80.91 730.879 77.55C730.879 74.16 734.599 72.12 740.419 72.12ZM740.419 74.16C736.159 74.16 733.429 75.42 733.429 77.55C733.429 79.68 736.159 80.94 740.419 80.94C744.679 80.94 747.409 79.68 747.409 77.55C747.409 75.42 744.679 74.16 740.419 74.16ZM764.184 82.77H788.694V84.78H764.184V82.77ZM767.154 87.21H785.574V93.42H769.674V96.72H767.214V91.59H783.114V89.13H767.154V87.21ZM767.214 96.12H786.384V98.04H767.214V96.12ZM775.014 73.08H777.204V73.95C777.204 78.12 772.104 80.85 766.314 81.39L765.504 79.5C770.514 79.05 775.014 76.86 775.014 73.95V73.08ZM775.734 73.08H777.894V73.95C777.894 76.86 782.394 79.05 787.404 79.5L786.594 81.39C780.834 80.85 775.734 78.12 775.734 73.95V73.08ZM766.434 72.24H786.504V74.22H766.434V72.24ZM811.612 71.22H814.102V98.34H811.612V71.22ZM805.282 82.08H812.722V84.15H805.282V82.08ZM802.912 74.13H805.372C805.372 81.87 802.162 88.71 793.162 93.21L791.782 91.26C799.672 87.39 802.912 81.63 802.912 74.55V74.13ZM792.952 74.13H804.232V76.17H792.952V74.13ZM819.379 86.76H843.979V88.8H819.379V86.76ZM830.359 88.02H832.819V98.34H830.359V88.02ZM831.619 72.3C837.289 72.3 841.099 74.61 841.099 78.24C841.099 81.87 837.289 84.18 831.619 84.18C825.979 84.18 822.139 81.87 822.139 78.24C822.139 74.61 825.979 72.3 831.619 72.3ZM831.619 74.31C827.479 74.31 824.659 75.84 824.659 78.24C824.659 80.64 827.479 82.17 831.619 82.17C835.759 82.17 838.549 80.64 838.549 78.24C838.549 75.84 835.759 74.31 831.619 74.31ZM861.467 74.46H867.587V76.5H861.467V74.46ZM861.467 79.8H867.587V81.81H861.467V79.8ZM866.807 71.22H869.297V87.12H866.807V71.22ZM853.757 72.18H855.797V75C855.797 80.34 852.917 84.75 848.387 86.55L847.037 84.6C851.147 83.04 853.757 79.26 853.757 75V72.18ZM854.177 72.18H856.187V75C856.187 78.93 858.827 82.62 862.757 84.15L861.377 86.13C857.057 84.33 854.177 80.01 854.177 75V72.18ZM853.907 88.11H855.857V89.31C855.857 92.88 853.637 96.51 849.737 98.01L848.477 96.15C851.897 94.89 853.907 91.95 853.907 89.31V88.11ZM854.477 88.11H856.337V89.31C856.337 92.07 857.927 95.04 861.197 96.36L860.147 98.25C856.217 96.72 854.477 92.94 854.477 89.31V88.11ZM863.957 88.11H865.787V89.31C865.787 92.52 864.017 96.6 860.147 98.25L859.067 96.36C862.307 94.86 863.957 91.68 863.957 89.31V88.11ZM864.437 88.11H866.387V89.31C866.387 92.16 868.367 94.98 871.847 96.15L870.557 98.01C866.627 96.57 864.437 93.09 864.437 89.31V88.11ZM894.764 82.02H899.774V84.12H894.764V82.02ZM892.934 71.19H895.454V98.34H892.934V71.19ZM875.654 73.86H878.144V90.66H875.654V73.86ZM875.654 89.37H877.814C881.834 89.37 885.944 89.1 890.414 88.17L890.714 90.24C886.094 91.2 881.924 91.47 877.814 91.47H875.654V89.37ZM908.202 85.17H910.662V93.3H908.202V85.17ZM918.222 85.17H920.712V93.3H918.222V85.17ZM902.202 92.82H926.772V94.89H902.202V92.82ZM914.442 72.93C920.172 72.93 924.282 75.66 924.282 79.92C924.282 84.15 920.172 86.88 914.442 86.88C908.682 86.88 904.572 84.15 904.572 79.92C904.572 75.66 908.682 72.93 914.442 72.93ZM914.442 74.91C910.092 74.91 906.972 76.89 906.972 79.92C906.972 82.92 910.092 84.9 914.442 84.9C918.792 84.9 921.882 82.92 921.882 79.92C921.882 76.89 918.792 74.91 914.442 74.91ZM933.882 89.8636V89.7358C933.896 88.3793 934.038 87.2997 934.308 86.4972C934.578 85.6946 934.962 85.0447 935.459 84.5476C935.956 84.0504 936.553 83.5923 937.249 83.1733C937.668 82.9176 938.044 82.6158 938.378 82.2678C938.712 81.9126 938.975 81.5043 939.166 81.0426C939.365 80.581 939.465 80.0696 939.465 79.5085C939.465 78.8125 939.301 78.2088 938.975 77.6974C938.648 77.1861 938.211 76.7919 937.664 76.5149C937.117 76.2379 936.51 76.0994 935.842 76.0994C935.26 76.0994 934.699 76.2202 934.159 76.4616C933.619 76.7031 933.168 77.0831 932.806 77.6016C932.444 78.12 932.234 78.7983 932.178 79.6364H929.493C929.55 78.429 929.862 77.3956 930.43 76.5362C931.006 75.6768 931.762 75.0199 932.7 74.5653C933.644 74.1108 934.692 73.8835 935.842 73.8835C937.092 73.8835 938.179 74.1321 939.102 74.6293C940.033 75.1264 940.75 75.8082 941.254 76.6747C941.766 77.5412 942.021 78.5284 942.021 79.6364C942.021 80.4176 941.901 81.1243 941.659 81.7564C941.425 82.3885 941.084 82.9531 940.636 83.4503C940.196 83.9474 939.663 84.3878 939.038 84.7713C938.413 85.1619 937.913 85.5739 937.536 86.0071C937.16 86.4332 936.886 86.9411 936.716 87.5305C936.546 88.12 936.453 88.8551 936.439 89.7358V89.8636H933.882ZM935.246 96.1705C934.72 96.1705 934.269 95.9822 933.893 95.6058C933.516 95.2294 933.328 94.7784 933.328 94.2528C933.328 93.7273 933.516 93.2763 933.893 92.8999C934.269 92.5234 934.72 92.3352 935.246 92.3352C935.771 92.3352 936.222 92.5234 936.599 92.8999C936.975 93.2763 937.163 93.7273 937.163 94.2528C937.163 94.6009 937.075 94.9205 936.897 95.2116C936.727 95.5028 936.496 95.7372 936.205 95.9148C935.921 96.0852 935.601 96.1705 935.246 96.1705ZM131.759 109.56H133.799V114.42C133.799 120.66 130.439 126.45 125.999 128.7L124.469 126.66C128.489 124.74 131.759 119.55 131.759 114.42V109.56ZM132.179 109.56H134.219V114.42C134.219 119.37 137.459 124.35 141.479 126.21L139.979 128.19C135.569 126.03 132.179 120.45 132.179 114.42V109.56ZM144.299 107.19H146.789V134.37H144.299V107.19ZM170.757 107.22H173.247V123.12H170.757V107.22ZM172.557 114.06H177.267V116.16H172.557V114.06ZM163.257 108.96H165.867C165.867 115.8 161.097 120.69 153.177 122.85L152.157 120.9C159.177 118.98 163.257 115.05 163.257 110.04V108.96ZM153.357 108.96H164.637V110.97H153.357V108.96ZM155.637 124.38H173.247V134.34H170.757V126.39H155.637V124.38ZM186.474 110.13H188.514V112.32C188.514 117.3 185.514 121.47 180.954 123.12L179.694 121.14C183.774 119.7 186.474 116.19 186.474 112.32V110.13ZM186.924 110.13H188.964V112.29C188.964 115.83 191.544 119.01 195.534 120.33L194.334 122.28C189.804 120.78 186.924 116.91 186.924 112.29V110.13ZM180.444 109.23H194.934V111.27H180.444V109.23ZM198.354 107.22H200.844V123.57H198.354V107.22ZM200.154 114.09H204.864V116.19H200.154V114.09ZM192.204 124.29C197.724 124.29 201.114 126.12 201.114 129.27C201.114 132.45 197.724 134.28 192.204 134.28C186.684 134.28 183.294 132.45 183.294 129.27C183.294 126.12 186.684 124.29 192.204 124.29ZM192.204 126.3C188.184 126.3 185.724 127.38 185.724 129.27C185.724 131.19 188.184 132.33 192.204 132.33C196.224 132.33 198.684 131.19 198.684 129.27C198.684 127.38 196.224 126.3 192.204 126.3ZM213.502 109.47C217.012 109.47 219.292 113.1 219.292 118.92C219.292 124.74 217.012 128.37 213.502 128.37C209.992 128.37 207.742 124.74 207.742 118.92C207.742 113.1 209.992 109.47 213.502 109.47ZM213.502 111.78C211.372 111.78 210.022 114.54 210.022 118.92C210.022 123.3 211.372 126.06 213.502 126.06C215.632 126.06 216.982 123.3 216.982 118.92C216.982 114.54 215.632 111.78 213.502 111.78ZM228.052 107.22H230.452V134.34H228.052V107.22ZM223.762 117.96H228.952V120H223.762V117.96ZM222.052 107.79H224.422V132.99H222.052V107.79ZM254.72 107.25H257.24V127.05H254.72V107.25ZM239.81 131.7H258.05V133.74H239.81V131.7ZM239.81 125.01H242.27V132.39H239.81V125.01ZM242.69 109.11C246.74 109.11 249.74 111.87 249.74 115.8C249.74 119.7 246.74 122.49 242.69 122.49C238.64 122.49 235.61 119.7 235.61 115.8C235.61 111.87 238.64 109.11 242.69 109.11ZM242.69 111.27C240.05 111.27 238.04 113.13 238.04 115.8C238.04 118.44 240.05 120.3 242.69 120.3C245.33 120.3 247.34 118.44 247.34 115.8C247.34 113.13 245.33 111.27 242.69 111.27ZM273.587 117.75H278.717V119.82H273.587V117.75ZM283.247 107.22H285.647V134.34H283.247V107.22ZM277.877 107.79H280.247V132.99H277.877V107.79ZM268.697 109.47C272.207 109.47 274.487 113.1 274.487 118.92C274.487 124.74 272.207 128.37 268.697 128.37C265.187 128.37 262.937 124.74 262.937 118.92C262.937 113.1 265.187 109.47 268.697 109.47ZM268.697 111.78C266.567 111.78 265.217 114.54 265.217 118.92C265.217 123.3 266.567 126.06 268.697 126.06C270.857 126.06 272.207 123.3 272.207 118.92C272.207 114.54 270.857 111.78 268.697 111.78ZM319.253 107.22H321.653V134.34H319.253V107.22ZM314.663 118.08H319.883V120.15H314.663V118.08ZM313.103 107.82H315.443V132.96H313.103V107.82ZM299.603 125.58H301.373C305.333 125.58 308.033 125.43 311.183 124.77L311.423 126.84C308.183 127.53 305.453 127.65 301.373 127.65H299.603V125.58ZM299.603 110.52H309.683V112.56H302.063V126.51H299.603V110.52ZM344.78 107.25H347.27V127.59H344.78V107.25ZM346.49 116.13H351.29V118.23H346.49V116.13ZM326.3 110.52H342.32V112.53H326.3V110.52ZM334.31 114.03C338.15 114.03 340.79 116.04 340.79 119.1C340.79 122.13 338.15 124.14 334.31 124.14C330.44 124.14 327.8 122.13 327.8 119.1C327.8 116.04 330.44 114.03 334.31 114.03ZM334.31 115.98C331.85 115.98 330.17 117.21 330.17 119.1C330.17 120.96 331.85 122.19 334.31 122.19C336.74 122.19 338.42 120.96 338.42 119.1C338.42 117.21 336.74 115.98 334.31 115.98ZM333.05 107.22H335.54V111.57H333.05V107.22ZM330.38 131.7H348.5V133.74H330.38V131.7ZM330.38 125.97H332.87V132.57H330.38V125.97ZM368.965 111.09H370.945V115.5C370.945 121.14 367.495 126.96 363.265 129.12L361.825 127.14C365.695 125.25 368.965 120.09 368.965 115.5V111.09ZM369.415 111.09H371.395V115.5C371.395 119.79 374.455 124.62 378.385 126.48L376.975 128.46C372.685 126.33 369.415 120.87 369.415 115.5V111.09ZM362.785 109.98H377.395V112.08H362.785V109.98ZM380.605 107.22H383.125V134.34H380.605V107.22ZM382.525 118.17H387.565V120.27H382.525V118.17ZM400.553 116.91H405.743V118.98H400.553V116.91ZM395.483 109.77H397.433V114.93C397.433 120.6 395.063 126.09 391.103 128.52L389.543 126.63C393.263 124.44 395.483 119.58 395.483 114.93V109.77ZM395.963 109.77H397.883V114.84C397.883 119.19 399.923 123.81 403.493 125.97L402.053 127.92C398.153 125.52 395.963 120.12 395.963 114.84V109.77ZM410.513 107.22H412.913V134.34H410.513V107.22ZM405.023 107.79H407.363V132.99H405.023V107.79ZM436.011 107.25H438.501V127.59H436.011V107.25ZM437.721 116.13H442.521V118.23H437.721V116.13ZM417.531 110.52H433.551V112.53H417.531V110.52ZM425.541 114.03C429.381 114.03 432.021 116.04 432.021 119.1C432.021 122.13 429.381 124.14 425.541 124.14C421.671 124.14 419.031 122.13 419.031 119.1C419.031 116.04 421.671 114.03 425.541 114.03ZM425.541 115.98C423.081 115.98 421.401 117.21 421.401 119.1C421.401 120.96 423.081 122.19 425.541 122.19C427.971 122.19 429.651 120.96 429.651 119.1C429.651 117.21 427.971 115.98 425.541 115.98ZM424.281 107.22H426.771V111.57H424.281V107.22ZM421.611 131.7H439.731V133.74H421.611V131.7ZM421.611 125.97H424.101V132.57H421.611V125.97ZM473.186 107.19H475.676V134.37H473.186V107.19ZM461.366 109.29C465.386 109.29 468.266 112.98 468.266 118.74C468.266 124.53 465.386 128.22 461.366 128.22C457.376 128.22 454.496 124.53 454.496 118.74C454.496 112.98 457.376 109.29 461.366 109.29ZM461.366 111.54C458.726 111.54 456.866 114.36 456.866 118.74C456.866 123.15 458.726 126.03 461.366 126.03C464.036 126.03 465.866 123.15 465.866 118.74C465.866 114.36 464.036 111.54 461.366 111.54ZM481.044 111.84H494.484V113.88H481.044V111.84ZM487.764 115.68C491.154 115.68 493.614 118.23 493.614 121.89C493.614 125.52 491.154 128.07 487.764 128.07C484.404 128.07 481.944 125.52 481.944 121.89C481.944 118.23 484.404 115.68 487.764 115.68ZM487.764 117.81C485.694 117.81 484.194 119.49 484.194 121.89C484.194 124.29 485.694 125.97 487.764 125.97C489.864 125.97 491.394 124.29 491.394 121.89C491.394 119.49 489.864 117.81 487.764 117.81ZM501.654 107.22H504.054V134.34H501.654V107.22ZM497.334 118.62H502.464V120.69H497.334V118.62ZM495.864 107.82H498.204V133.02H495.864V107.82ZM486.564 108H489.024V113.1H486.564V108ZM512.001 115.35H530.421V117.39H512.001V115.35ZM508.671 121.02H533.271V123.06H508.671V121.02ZM512.001 108.21H514.461V116.37H512.001V108.21ZM511.821 131.64H530.571V133.68H511.821V131.64ZM511.821 125.76H514.281V132.18H511.821V125.76ZM546.086 125.58H548.156C553.196 125.58 556.436 125.46 560.216 124.74L560.486 126.78C556.586 127.5 553.316 127.68 548.156 127.68H546.086V125.58ZM546.086 109.8H558.416V111.84H548.546V126.36H546.086V109.8ZM564.596 107.22H567.086V134.4H564.596V107.22ZM556.826 117.03H565.616V119.1H556.826V117.03ZM591.751 115.26H594.211V119.4H591.751V115.26ZM591.391 108.87H593.581V109.71C593.581 113.79 588.541 116.4 582.841 116.94L582.031 115.05C586.921 114.66 591.391 112.56 591.391 109.71V108.87ZM592.471 108.87H594.631V109.71C594.631 112.53 599.101 114.66 603.991 115.05L603.181 116.94C597.511 116.4 592.471 113.79 592.471 109.71V108.87ZM582.991 108.06H603.061V110.01H582.991V108.06ZM583.021 124.05H603.001V126.03H583.021V124.05ZM580.741 118.47H605.341V120.48H580.741V118.47ZM593.011 127.35C598.231 127.35 601.141 128.58 601.141 130.92C601.141 133.29 598.231 134.49 593.011 134.49C587.791 134.49 584.851 133.29 584.851 130.92C584.851 128.58 587.791 127.35 593.011 127.35ZM593.011 129.06C589.411 129.06 587.401 129.69 587.401 130.92C587.401 132.15 589.411 132.78 593.011 132.78C596.581 132.78 598.621 132.15 598.621 130.92C598.621 129.69 596.581 129.06 593.011 129.06ZM591.781 121.56H594.241V125.31H591.781V121.56ZM608.339 121.47H632.849V123.51H608.339V121.47ZM611.519 131.7H630.149V133.74H611.519V131.7ZM611.519 125.88H614.009V132.33H611.519V125.88ZM620.609 108.12C626.399 108.12 630.149 110.16 630.149 113.55C630.149 116.91 626.399 118.95 620.609 118.95C614.789 118.95 611.069 116.91 611.069 113.55C611.069 110.16 614.789 108.12 620.609 108.12ZM620.609 110.16C616.349 110.16 613.619 111.42 613.619 113.55C613.619 115.68 616.349 116.94 620.609 116.94C624.869 116.94 627.599 115.68 627.599 113.55C627.599 111.42 624.869 110.16 620.609 110.16ZM665.014 107.22H667.414V134.34H665.014V107.22ZM660.424 118.08H665.644V120.15H660.424V118.08ZM658.864 107.82H661.204V132.96H658.864V107.82ZM645.364 125.58H647.134C651.094 125.58 653.794 125.43 656.944 124.77L657.184 126.84C653.944 127.53 651.214 127.65 647.134 127.65H645.364V125.58ZM645.364 110.52H655.444V112.56H647.824V126.51H645.364V110.52ZM679.022 123.39H681.512V127.8H679.022V123.39ZM690.422 107.22H692.912V134.34H690.422V107.22ZM692.102 118.74H697.112V120.84H692.102V118.74ZM672.032 129.18L671.672 127.11C676.532 127.11 683.162 127.05 688.772 126.24L688.982 128.1C683.132 129.15 676.772 129.18 672.032 129.18ZM672.122 110.49H688.352V112.5H672.122V110.49ZM680.252 114.09C684.032 114.09 686.642 116.07 686.642 119.1C686.642 122.16 684.032 124.11 680.252 124.11C676.472 124.11 673.892 122.16 673.892 119.1C673.892 116.07 676.472 114.09 680.252 114.09ZM680.252 116.01C677.822 116.01 676.232 117.24 676.232 119.1C676.232 120.96 677.822 122.19 680.252 122.19C682.682 122.19 684.302 120.96 684.302 119.1C684.302 117.24 682.682 116.01 680.252 116.01ZM679.022 107.25H681.512V111.84H679.022V107.25ZM714.84 113.73H720.36V115.77H714.84V113.73ZM714.81 119.01H720.33V121.05H714.81V119.01ZM699.63 110.19H714.81V112.2H699.63V110.19ZM707.31 113.61C710.94 113.61 713.43 115.59 713.43 118.62C713.43 121.65 710.94 123.66 707.31 123.66C703.68 123.66 701.16 121.65 701.16 118.62C701.16 115.59 703.68 113.61 707.31 113.61ZM707.31 115.53C705.03 115.53 703.5 116.73 703.5 118.62C703.5 120.51 705.03 121.74 707.31 121.74C709.56 121.74 711.12 120.51 711.12 118.62C711.12 116.73 709.56 115.53 707.31 115.53ZM706.08 106.98H708.57V111.6H706.08V106.98ZM719.4 107.22H721.89V124.74H719.4V107.22ZM713.01 125.01C718.62 125.01 722.04 126.72 722.04 129.66C722.04 132.6 718.62 134.28 713.01 134.28C707.37 134.28 703.98 132.6 703.98 129.66C703.98 126.72 707.37 125.01 713.01 125.01ZM713.01 126.99C709.02 126.99 706.56 127.92 706.56 129.66C706.56 131.37 709.02 132.36 713.01 132.36C717 132.36 719.46 131.37 719.46 129.66C719.46 127.92 717 126.99 713.01 126.99ZM754.175 107.22H756.665V122.58H754.175V107.22ZM755.975 113.82H760.685V115.89H755.975V113.82ZM746.675 108.96H749.315C749.315 115.8 744.545 120.72 736.565 122.88L735.605 120.9C742.625 118.98 746.675 115.05 746.675 110.07V108.96ZM736.775 108.96H748.055V110.97H736.775V108.96ZM739.595 123.87H756.665V133.98H739.595V123.87ZM754.205 125.88H742.055V131.94H754.205V125.88ZM769.802 108.63H771.872V111.39C771.872 116.61 768.932 120.93 764.402 122.7L763.082 120.69C767.162 119.19 769.802 115.53 769.802 111.39V108.63ZM770.252 108.63H772.292V111.57C772.292 115.23 774.992 118.62 778.892 119.97L777.572 121.92C773.222 120.3 770.252 116.28 770.252 111.57V108.63ZM781.772 107.22H784.262V123.66H781.772V107.22ZM783.572 114.21H788.282V116.31H783.572V114.21ZM775.622 124.41C781.172 124.41 784.532 126.24 784.532 129.36C784.532 132.48 781.172 134.28 775.622 134.28C770.072 134.28 766.712 132.48 766.712 129.36C766.712 126.24 770.072 124.41 775.622 124.41ZM775.622 126.39C771.602 126.39 769.142 127.47 769.142 129.36C769.142 131.25 771.602 132.33 775.622 132.33C779.642 132.33 782.102 131.25 782.102 129.36C782.102 127.47 779.642 126.39 775.622 126.39ZM792.15 108.6H794.61V112.77H801.96V108.6H804.39V121.02H792.15V108.6ZM794.61 114.72V118.98H801.96V114.72H794.61ZM803.7 113.88H811.38V115.92H803.7V113.88ZM810.63 107.22H813.12V122.04H810.63V107.22ZM795.75 123.36H798.21V126.63H810.66V123.36H813.12V133.98H795.75V123.36ZM798.21 128.61V131.94H810.66V128.61H798.21ZM841.235 114.69H848.075V116.73H841.235V114.69ZM846.665 107.25H849.155V127.11H846.665V107.25ZM831.845 131.7H849.905V133.74H831.845V131.7ZM831.845 125.37H834.335V132.75H831.845V125.37ZM833.765 110.61H835.805V112.8C835.805 117.72 832.745 121.98 828.215 123.66L826.925 121.68C830.975 120.24 833.765 116.64 833.765 112.8V110.61ZM834.245 110.61H836.255V112.77C836.255 116.28 838.895 119.7 842.825 121.08L841.565 123.03C837.155 121.44 834.245 117.36 834.245 112.77V110.61ZM827.705 109.44H842.195V111.45H827.705V109.44ZM855.663 117.84H857.763C863.223 117.84 866.433 117.66 870.153 116.91L870.453 118.92C866.613 119.7 863.313 119.88 857.763 119.88H855.663V117.84ZM855.663 108.78H867.633V110.79H858.123V119.04H855.663V108.78ZM873.003 107.22H875.493V120.87H873.003V107.22ZM874.803 112.92H879.513V114.99H874.803V112.92ZM858.273 122.25H875.493V128.94H860.793V133.14H858.333V127.02H873.063V124.23H858.273V122.25ZM858.333 131.97H876.483V133.98H858.333V131.97ZM893.041 117.75H898.171V119.82H893.041V117.75ZM902.701 107.22H905.101V134.34H902.701V107.22ZM897.331 107.79H899.701V132.99H897.331V107.79ZM888.151 109.47C891.661 109.47 893.941 113.1 893.941 118.92C893.941 124.74 891.661 128.37 888.151 128.37C884.641 128.37 882.391 124.74 882.391 118.92C882.391 113.1 884.641 109.47 888.151 109.47ZM888.151 111.78C886.021 111.78 884.671 114.54 884.671 118.92C884.671 123.3 886.021 126.06 888.151 126.06C890.311 126.06 891.661 123.3 891.661 118.92C891.661 114.54 890.311 111.78 888.151 111.78ZM921.186 119.88H939.816V121.92H921.186V119.88ZM918.096 128.85H942.666V130.95H918.096V128.85ZM929.076 120.75H931.566V129.69H929.076V120.75ZM921.186 109.38H939.546V111.42H923.676V120.78H921.186V109.38ZM956.703 121.05H959.163V125.76H956.703V121.05ZM957.933 107.73C963.783 107.73 967.473 109.62 967.473 112.83C967.473 116.04 963.783 117.9 957.933 117.9C952.053 117.9 948.393 116.04 948.393 112.83C948.393 109.62 952.053 107.73 957.933 107.73ZM957.933 109.68C953.613 109.68 950.943 110.85 950.943 112.83C950.943 114.81 953.613 115.95 957.933 115.95C962.223 115.95 964.923 114.81 964.923 112.83C964.923 110.85 962.223 109.68 957.933 109.68ZM948.663 125.04H967.173V133.98H948.663V125.04ZM964.743 127.05H951.123V131.97H964.743V127.05ZM945.663 119.97H970.173V122.01H945.663V119.97ZM992.971 107.19H995.461V134.37H992.971V107.19ZM981.151 109.29C985.171 109.29 988.051 112.98 988.051 118.74C988.051 124.53 985.171 128.22 981.151 128.22C977.161 128.22 974.281 124.53 974.281 118.74C974.281 112.98 977.161 109.29 981.151 109.29ZM981.151 111.54C978.511 111.54 976.651 114.36 976.651 118.74C976.651 123.15 978.511 126.03 981.151 126.03C983.821 126.03 985.651 123.15 985.651 118.74C985.651 114.36 983.821 111.54 981.151 111.54ZM1017.04 116.4H1019.56V120.9H1017.04V116.4ZM1029.07 107.22H1031.56V122.85H1029.07V107.22ZM1009.78 122.19L1009.42 120.18C1014.37 120.18 1021.12 120.12 1026.85 119.28L1027.03 121.05C1021.12 122.1 1014.61 122.19 1009.78 122.19ZM1011.85 115.14H1024.87V117.15H1011.85V115.14ZM1011.85 108.57H1024.63V110.61H1014.34V115.92H1011.85V108.57ZM1013.77 124.05H1016.26V126.9H1029.1V124.05H1031.56V133.98H1013.77V124.05ZM1016.26 128.85V131.97H1029.1V128.85H1016.26ZM1056.63 107.22H1059.12V134.34H1056.63V107.22ZM1038.63 109.86H1041.09V126.66H1038.63V109.86ZM1038.63 125.19H1040.85C1044.96 125.19 1049.25 124.89 1053.84 123.93L1054.14 126.06C1049.43 127.02 1045.14 127.35 1040.85 127.35H1038.63V125.19ZM1082.85 107.19H1085.37V134.37H1082.85V107.19ZM1084.77 117.9H1089.81V120H1084.77V117.9ZM1065.66 125.52H1067.79C1072.8 125.52 1076.31 125.34 1080.36 124.59L1080.63 126.69C1076.46 127.47 1072.89 127.62 1067.79 127.62H1065.66V125.52ZM1065.66 109.83H1078.26V111.87H1068.12V126.45H1065.66V109.83ZM1094.75 132.17C1094.23 132.17 1093.78 131.982 1093.4 131.606C1093.02 131.229 1092.84 130.778 1092.84 130.253C1092.84 129.727 1093.02 129.276 1093.4 128.9C1093.78 128.523 1094.23 128.335 1094.75 128.335C1095.28 128.335 1095.73 128.523 1096.11 128.9C1096.48 129.276 1096.67 129.727 1096.67 130.253C1096.67 130.601 1096.58 130.92 1096.4 131.212C1096.23 131.503 1096 131.737 1095.71 131.915C1095.43 132.085 1095.11 132.17 1094.75 132.17ZM221.418 161.58H223.488C228.528 161.58 231.768 161.46 235.548 160.74L235.818 162.78C231.918 163.5 228.648 163.68 223.488 163.68H221.418V161.58ZM221.418 145.8H233.748V147.84H223.878V162.36H221.418V145.8ZM239.928 143.22H242.418V170.4H239.928V143.22ZM232.158 153.03H240.948V155.1H232.158V153.03ZM274.644 143.22H277.134V157.02H274.644V143.22ZM276.054 149.04H281.124V151.11H276.054V149.04ZM259.914 158.31H277.134V164.97H262.434V169.02H259.974V163.08H274.704V160.29H259.914V158.31ZM259.974 167.97H278.124V169.98H259.974V167.97ZM263.574 144.18C267.654 144.18 270.594 146.67 270.594 150.21C270.594 153.78 267.654 156.27 263.574 156.27C259.554 156.27 256.584 153.78 256.584 150.21C256.584 146.67 259.554 144.18 263.574 144.18ZM263.574 146.22C260.964 146.22 259.014 147.87 259.014 150.21C259.014 152.58 260.964 154.23 263.574 154.23C266.244 154.23 268.194 152.58 268.194 150.21C268.194 147.87 266.244 146.22 263.574 146.22ZM290.901 145.29C294.891 145.29 297.711 148.98 297.711 154.74C297.711 160.53 294.891 164.22 290.901 164.22C286.911 164.22 284.091 160.53 284.091 154.74C284.091 148.98 286.911 145.29 290.901 145.29ZM290.901 147.54C288.261 147.54 286.461 150.36 286.461 154.74C286.461 159.15 288.261 162.03 290.901 162.03C293.511 162.03 295.341 159.15 295.341 154.74C295.341 150.36 293.511 147.54 290.901 147.54ZM302.031 143.22H304.551V170.34H302.031V143.22ZM303.951 154.05H308.991V156.15H303.951V154.05ZM311.299 164.82H335.869V166.89H311.299V164.82ZM322.279 158.34H324.769V165.42H322.279V158.34ZM314.179 145.14H316.639V149.97H330.469V145.14H332.929V159H314.179V145.14ZM316.639 151.98V156.96H330.469V151.98H316.639ZM358.636 143.22H361.126V170.34H358.636V143.22ZM350.686 146.13H353.146C353.146 153.99 349.606 160.86 340.546 165.3L339.226 163.29C347.056 159.51 350.686 153.75 350.686 146.55V146.13ZM340.456 146.13H351.766V148.17H340.456V146.13ZM394.792 143.19H397.252V170.37H394.792V143.19ZM387.622 153.27H395.512V155.31H387.622V153.27ZM376.012 145.35H378.472V152.4H386.002V145.35H388.462V163.56H376.012V145.35ZM378.472 154.38V161.49H386.002V154.38H378.472ZM402.499 158.22H427.009V160.26H402.499V158.22ZM405.649 167.7H424.459V169.74H405.649V167.7ZM405.649 162.24H408.139V168.48H405.649V162.24ZM405.739 153.78H424.129V155.73H405.739V153.78ZM405.739 144.21H424.009V146.19H408.199V154.53H405.739V144.21ZM407.479 148.98H423.289V150.87H407.479V148.98ZM442.367 143.67C448.337 143.67 451.907 145.35 451.907 148.38C451.907 151.41 448.337 153.09 442.367 153.09C436.367 153.09 432.827 151.41 432.827 148.38C432.827 145.35 436.367 143.67 442.367 143.67ZM442.367 145.56C437.927 145.56 435.377 146.58 435.377 148.38C435.377 150.18 437.927 151.2 442.367 151.2C446.777 151.2 449.327 150.18 449.327 148.38C449.327 146.58 446.777 145.56 442.367 145.56ZM430.097 154.89H454.607V156.9H430.097V154.89ZM433.067 159.21H451.487V165.33H435.587V168.63H433.127V163.53H449.027V161.13H433.067V159.21ZM433.127 168.09H452.297V170.04H433.127V168.09ZM477.142 155.1H479.602V159.96H477.142V155.1ZM469.462 149.67H487.852V151.71H469.462V149.67ZM466.132 154.05H490.732V156.06H466.132V154.05ZM469.462 143.61H471.892V150.6H469.462V143.61ZM469.192 158.91H487.612V165.18H471.712V168.78H469.252V163.35H485.122V160.86H469.192V158.91ZM469.252 168.09H488.512V170.04H469.252V168.09ZM513.56 143.19H516.05V170.37H513.56V143.19ZM508.4 153.63H514.16V155.67H508.4V153.63ZM494.75 161.79H496.82C501.62 161.79 505.01 161.64 509 160.92L509.24 162.99C505.16 163.71 501.71 163.89 496.82 163.89H494.75V161.79ZM494.69 145.74H506.81V155.25H497.21V162.42H494.75V153.21H504.35V147.78H494.69V145.74ZM536.935 145.56H538.975V150.42C538.975 156.66 535.615 162.45 531.175 164.7L529.645 162.66C533.665 160.74 536.935 155.55 536.935 150.42V145.56ZM537.355 145.56H539.395V150.42C539.395 155.37 542.635 160.35 546.655 162.21L545.155 164.19C540.745 162.03 537.355 156.45 537.355 150.42V145.56ZM549.475 143.19H551.965V170.37H549.475V143.19ZM575.933 143.22H578.423V159.12H575.933V143.22ZM577.733 150.06H582.443V152.16H577.733V150.06ZM568.433 144.96H571.043C571.043 151.8 566.273 156.69 558.353 158.85L557.333 156.9C564.353 154.98 568.433 151.05 568.433 146.04V144.96ZM558.533 144.96H569.813V146.97H558.533V144.96ZM560.813 160.38H578.423V170.34H575.933V162.39H560.813V160.38ZM591.65 146.13H593.69V148.32C593.69 153.3 590.69 157.47 586.13 159.12L584.87 157.14C588.95 155.7 591.65 152.19 591.65 148.32V146.13ZM592.1 146.13H594.14V148.29C594.14 151.83 596.72 155.01 600.71 156.33L599.51 158.28C594.98 156.78 592.1 152.91 592.1 148.29V146.13ZM585.62 145.23H600.11V147.27H585.62V145.23ZM603.53 143.22H606.02V159.57H603.53V143.22ZM605.33 150.09H610.04V152.19H605.33V150.09ZM597.38 160.29C602.9 160.29 606.29 162.12 606.29 165.27C606.29 168.45 602.9 170.28 597.38 170.28C591.86 170.28 588.47 168.45 588.47 165.27C588.47 162.12 591.86 160.29 597.38 160.29ZM597.38 162.3C593.36 162.3 590.9 163.38 590.9 165.27C590.9 167.19 593.36 168.33 597.38 168.33C601.4 168.33 603.86 167.19 603.86 165.27C603.86 163.38 601.4 162.3 597.38 162.3ZM618.678 145.47C622.188 145.47 624.468 149.1 624.468 154.92C624.468 160.74 622.188 164.37 618.678 164.37C615.168 164.37 612.918 160.74 612.918 154.92C612.918 149.1 615.168 145.47 618.678 145.47ZM618.678 147.78C616.548 147.78 615.198 150.54 615.198 154.92C615.198 159.3 616.548 162.06 618.678 162.06C620.808 162.06 622.158 159.3 622.158 154.92C622.158 150.54 620.808 147.78 618.678 147.78ZM633.228 143.22H635.628V170.34H633.228V143.22ZM628.938 153.96H634.128V156H628.938V153.96ZM627.228 143.79H629.598V168.99H627.228V143.79ZM659.896 143.25H662.416V163.05H659.896V143.25ZM644.986 167.7H663.226V169.74H644.986V167.7ZM644.986 161.01H647.446V168.39H644.986V161.01ZM647.866 145.11C651.916 145.11 654.916 147.87 654.916 151.8C654.916 155.7 651.916 158.49 647.866 158.49C643.816 158.49 640.786 155.7 640.786 151.8C640.786 147.87 643.816 145.11 647.866 145.11ZM647.866 147.27C645.226 147.27 643.216 149.13 643.216 151.8C643.216 154.44 645.226 156.3 647.866 156.3C650.506 156.3 652.516 154.44 652.516 151.8C652.516 149.13 650.506 147.27 647.866 147.27ZM678.763 153.75H683.893V155.82H678.763V153.75ZM688.423 143.22H690.823V170.34H688.423V143.22ZM683.053 143.79H685.423V168.99H683.053V143.79ZM673.873 145.47C677.383 145.47 679.663 149.1 679.663 154.92C679.663 160.74 677.383 164.37 673.873 164.37C670.363 164.37 668.113 160.74 668.113 154.92C668.113 149.1 670.363 145.47 673.873 145.47ZM673.873 147.78C671.743 147.78 670.393 150.54 670.393 154.92C670.393 159.3 671.743 162.06 673.873 162.06C676.033 162.06 677.383 159.3 677.383 154.92C677.383 150.54 676.033 147.78 673.873 147.78ZM724.428 143.22H726.828V170.34H724.428V143.22ZM719.838 154.08H725.058V156.15H719.838V154.08ZM718.278 143.82H720.618V168.96H718.278V143.82ZM704.778 161.58H706.548C710.508 161.58 713.208 161.43 716.358 160.77L716.598 162.84C713.358 163.53 710.628 163.65 706.548 163.65H704.778V161.58ZM704.778 146.52H714.858V148.56H707.238V162.51H704.778V146.52ZM749.956 143.25H752.446V163.59H749.956V143.25ZM751.666 152.13H756.466V154.23H751.666V152.13ZM731.476 146.52H747.496V148.53H731.476V146.52ZM739.486 150.03C743.326 150.03 745.966 152.04 745.966 155.1C745.966 158.13 743.326 160.14 739.486 160.14C735.616 160.14 732.976 158.13 732.976 155.1C732.976 152.04 735.616 150.03 739.486 150.03ZM739.486 151.98C737.026 151.98 735.346 153.21 735.346 155.1C735.346 156.96 737.026 158.19 739.486 158.19C741.916 158.19 743.596 156.96 743.596 155.1C743.596 153.21 741.916 151.98 739.486 151.98ZM738.226 143.22H740.716V147.57H738.226V143.22ZM735.556 167.7H753.676V169.74H735.556V167.7ZM735.556 161.97H738.046V168.57H735.556V161.97ZM781.911 150.24H788.031V152.31H781.911V150.24ZM787.251 143.22H789.741V159.39H787.251V143.22ZM780.831 160.2C786.411 160.2 789.861 162.09 789.861 165.27C789.861 168.48 786.411 170.31 780.831 170.31C775.221 170.31 771.771 168.48 771.771 165.27C771.771 162.09 775.221 160.2 780.831 160.2ZM780.831 162.15C776.751 162.15 774.261 163.29 774.261 165.27C774.261 167.22 776.751 168.36 780.831 168.36C784.911 168.36 787.401 167.22 787.401 165.27C787.401 163.29 784.911 162.15 780.831 162.15ZM774.351 145.95H776.391V148.14C776.391 153.15 773.331 157.44 768.831 159.12L767.541 157.14C771.561 155.67 774.351 152.04 774.351 148.14V145.95ZM774.831 145.95H776.841V148.14C776.841 151.65 779.481 155.01 783.411 156.39L782.151 158.37C777.741 156.78 774.831 152.7 774.831 148.14V145.95ZM768.291 145.2H782.781V147.24H768.291V145.2ZM795.049 164.82H819.619V166.89H795.049V164.82ZM806.029 158.34H808.519V165.42H806.029V158.34ZM797.929 145.14H800.389V149.97H814.219V145.14H816.679V159H797.929V145.14ZM800.389 151.98V156.96H814.219V151.98H800.389ZM822.616 155.82H847.216V157.71H822.616V155.82ZM825.526 159.9H844.126V165.69H828.076V168.87H825.616V163.98H841.696V161.67H825.526V159.9ZM825.616 168.21H844.996V170.01H825.616V168.21ZM825.736 144H844.036V149.64H828.256V152.58H825.796V147.96H841.606V145.77H825.736V144ZM825.796 151.98H844.546V153.78H825.796V151.98ZM877.222 143.22H879.712V157.02H877.222V143.22ZM878.632 149.04H883.702V151.11H878.632V149.04ZM862.492 158.31H879.712V164.97H865.012V169.02H862.552V163.08H877.282V160.29H862.492V158.31ZM862.552 167.97H880.702V169.98H862.552V167.97ZM866.152 144.18C870.232 144.18 873.172 146.67 873.172 150.21C873.172 153.78 870.232 156.27 866.152 156.27C862.132 156.27 859.162 153.78 859.162 150.21C859.162 146.67 862.132 144.18 866.152 144.18ZM866.152 146.22C863.542 146.22 861.592 147.87 861.592 150.21C861.592 152.58 863.542 154.23 866.152 154.23C868.822 154.23 870.772 152.58 870.772 150.21C870.772 147.87 868.822 146.22 866.152 146.22ZM893.479 145.29C897.469 145.29 900.289 148.98 900.289 154.74C900.289 160.53 897.469 164.22 893.479 164.22C889.489 164.22 886.669 160.53 886.669 154.74C886.669 148.98 889.489 145.29 893.479 145.29ZM893.479 147.54C890.839 147.54 889.039 150.36 889.039 154.74C889.039 159.15 890.839 162.03 893.479 162.03C896.089 162.03 897.919 159.15 897.919 154.74C897.919 150.36 896.089 147.54 893.479 147.54ZM904.609 143.22H907.129V170.34H904.609V143.22ZM906.529 154.05H911.569V156.15H906.529V154.05ZM913.877 164.82H938.447V166.89H913.877V164.82ZM924.857 158.34H927.347V165.42H924.857V158.34ZM916.757 145.14H919.217V149.97H933.047V145.14H935.507V159H916.757V145.14ZM919.217 151.98V156.96H933.047V151.98H919.217ZM952.155 152.91H957.345V154.98H952.155V152.91ZM947.085 145.77H949.035V150.93C949.035 156.6 946.665 162.09 942.705 164.52L941.145 162.63C944.865 160.44 947.085 155.58 947.085 150.93V145.77ZM947.565 145.77H949.485V150.84C949.485 155.19 951.525 159.81 955.095 161.97L953.655 163.92C949.755 161.52 947.565 156.12 947.565 150.84V145.77ZM962.115 143.22H964.515V170.34H962.115V143.22ZM956.625 143.79H958.965V168.99H956.625V143.79ZM975.072 157.17H977.532V165.3H975.072V157.17ZM985.092 157.17H987.582V165.3H985.092V157.17ZM969.072 164.82H993.642V166.89H969.072V164.82ZM981.312 144.93C987.042 144.93 991.152 147.66 991.152 151.92C991.152 156.15 987.042 158.88 981.312 158.88C975.552 158.88 971.442 156.15 971.442 151.92C971.442 147.66 975.552 144.93 981.312 144.93ZM981.312 146.91C976.962 146.91 973.842 148.89 973.842 151.92C973.842 154.92 976.962 156.9 981.312 156.9C985.662 156.9 988.752 154.92 988.752 151.92C988.752 148.89 985.662 146.91 981.312 146.91ZM999.303 168.17C998.778 168.17 998.327 167.982 997.95 167.606C997.574 167.229 997.386 166.778 997.386 166.253C997.386 165.727 997.574 165.276 997.95 164.9C998.327 164.523 998.778 164.335 999.303 164.335C999.829 164.335 1000.28 164.523 1000.66 164.9C1001.03 165.276 1001.22 165.727 1001.22 166.253C1001.22 166.601 1001.13 166.92 1000.95 167.212C1000.78 167.503 1000.55 167.737 1000.26 167.915C999.978 168.085 999.659 168.17 999.303 168.17Z" fill="black"/>
<defs>
<filter id="filter0_di_111_81" x="9" y="7.875" width="1205" height="227.068" filterUnits="userSpaceOnUse" color-interpolation-filters="sRGB">
<feFlood flood-opacity="0" result="BackgroundImageFix"/>
<feColorMatrix in="SourceAlpha" type="matrix" values="0 0 0 0 0 0 0 0 0 0 0 0 0 0 0 0 0 0 127 0" result="hardAlpha"/>
<feOffset dy="4"/>
<feGaussianBlur stdDeviation="2"/>
<feComposite in2="hardAlpha" operator="out"/>
<feColorMatrix type="matrix" values="0 0 0 0 0 0 0 0 0 0 0 0 0 0 0 0 0 0 0.25 0"/>
<feBlend mode="normal" in2="BackgroundImageFix" result="effect1_dropShadow_111_81"/>
<feBlend mode="normal" in="SourceGraphic" in2="effect1_dropShadow_111_81" result="shape"/>
<feColorMatrix in="SourceAlpha" type="matrix" values="0 0 0 0 0 0 0 0 0 0 0 0 0 0 0 0 0 0 127 0" result="hardAlpha"/>
<feOffset dy="4"/>
<feGaussianBlur stdDeviation="2"/>
<feComposite in2="hardAlpha" operator="arithmetic" k2="-1" k3="1"/>
<feColorMatrix type="matrix" values="0 0 0 0 0 0 0 0 0 0 0 0 0 0 0 0 0 0 0.25 0"/>
<feBlend mode="normal" in2="shape" result="effect2_innerShadow_111_81"/>
</filter>
<filter id="filter1_di_111_81" x="40" y="21.4775" width="1142" height="197.716" filterUnits="userSpaceOnUse" color-interpolation-filters="sRGB">
<feFlood flood-opacity="0" result="BackgroundImageFix"/>
<feColorMatrix in="SourceAlpha" type="matrix" values="0 0 0 0 0 0 0 0 0 0 0 0 0 0 0 0 0 0 127 0" result="hardAlpha"/>
<feOffset dy="4"/>
<feGaussianBlur stdDeviation="2"/>
<feComposite in2="hardAlpha" operator="out"/>
<feColorMatrix type="matrix" values="0 0 0 0 0 0 0 0 0 0 0 0 0 0 0 0 0 0 0.25 0"/>
<feBlend mode="normal" in2="BackgroundImageFix" result="effect1_dropShadow_111_81"/>
<feBlend mode="normal" in="SourceGraphic" in2="effect1_dropShadow_111_81" result="shape"/>
<feColorMatrix in="SourceAlpha" type="matrix" values="0 0 0 0 0 0 0 0 0 0 0 0 0 0 0 0 0 0 127 0" result="hardAlpha"/>
<feOffset dy="4"/>
<feGaussianBlur stdDeviation="2"/>
<feComposite in2="hardAlpha" operator="arithmetic" k2="-1" k3="1"/>
<feColorMatrix type="matrix" values="0 0 0 0 0 0 0 0 0 0 0 0 0 0 0 0 0 0 0.25 0"/>
<feBlend mode="normal" in2="shape" result="effect2_innerShadow_111_81"/>
</filter>
</defs>
</svg>
