<svg width="1209" height="693" viewBox="0 0 1209 693" fill="none" xmlns="http://www.w3.org/2000/svg">
<rect x="29" y="15" width="1151" height="678" fill="#EA8585"/>
<line x1="31" y1="62.5" x2="1180" y2="62.5" stroke="#FFE882" stroke-width="5"/>
<line x1="31" y1="642.5" x2="1180" y2="642.5" stroke="#FFE882" stroke-width="5"/>
<g filter="url(#filter0_d_68_289)">
<path fill-rule="evenodd" clip-rule="evenodd" d="M562.077 62.4565C582.486 73.8253 602.466 70.5794 606.703 55.2067C610.94 39.8339 597.83 18.1557 577.422 6.78699C557.013 -4.58174 537.033 -1.33586 532.796 14.0369C528.558 29.4096 541.668 51.0878 562.077 62.4565ZM571.302 58.075C585.355 65.9028 599.111 63.6679 602.029 53.0832C604.947 42.4986 595.92 27.5723 581.868 19.7445C567.815 11.9168 554.059 14.1517 551.141 24.7363C548.224 35.321 557.25 50.2473 571.302 58.075Z" fill="#FFE882"/>
<path fill-rule="evenodd" clip-rule="evenodd" d="M646.923 62.4565C626.514 73.8253 606.534 70.5794 602.297 55.2067C598.06 39.8339 611.17 18.1557 631.578 6.78699C651.987 -4.58174 671.967 -1.33586 676.204 14.0369C680.442 29.4096 667.332 51.0878 646.923 62.4565ZM637.698 58.075C623.645 65.9028 609.889 63.6679 606.971 53.0832C604.053 42.4986 613.08 27.5723 627.132 19.7445C641.185 11.9168 654.941 14.1517 657.859 24.7363C660.776 35.321 651.75 50.2473 637.698 58.075Z" fill="#FFE882"/>
<ellipse cx="604.5" cy="62.7832" rx="14.5" ry="14" fill="#FFE882"/>
<g filter="url(#filter1_d_68_289)">
<path d="M594.453 67.2474C594.453 67.2474 618.331 71.4379 638.461 83.7804C660.954 97.5719 681.798 101.989 681.798 101.989L690.629 79.9082C690.629 79.9082 666.367 84.0277 643.876 70.2409C623.741 57.8979 600.237 52.7868 600.237 52.7868L594.453 67.2474Z" fill="#FFE882"/>
<path d="M615.176 67.2474C615.176 67.2474 591.298 71.4379 571.168 83.7804C548.675 97.5719 527.831 101.989 527.831 101.989L519 79.9082C519 79.9082 543.262 84.0277 565.753 70.2409C585.888 57.8979 609.392 52.7868 609.392 52.7868L615.176 67.2474Z" fill="#FFE882"/>
</g>
</g>
<rect x="98" y="111" width="1012" height="496" fill="#FFFCF1"/>
<path d="M384.214 234.668H402.232V236.186H384.214V234.668ZM392.266 229.52H394.092V235.086H392.266V229.52ZM386.304 220.478H400.032V229.85H386.304V220.478ZM398.272 221.952H388.086V228.376H398.272V221.952ZM406.917 226.22H420.205V227.716H406.917V226.22ZM404.431 230.29H422.471V231.808H404.431V230.29ZM412.483 231.126H414.287V238.65H412.483V231.126ZM406.917 219.994H419.941V221.49H408.765V226.946H406.917V219.994ZM431.137 220.258C434.239 220.258 436.461 222.172 436.461 224.944C436.461 227.738 434.239 229.652 431.137 229.652C428.035 229.652 425.791 227.738 425.791 224.944C425.791 222.172 428.035 220.258 431.137 220.258ZM431.137 221.842C429.069 221.842 427.573 223.096 427.573 224.944C427.573 226.792 429.069 228.068 431.137 228.068C433.183 228.068 434.679 226.792 434.679 224.944C434.679 223.096 433.183 221.842 431.137 221.842ZM439.057 218.806H440.883V238.738H439.057V218.806ZM425.043 234.382L424.779 232.864C428.409 232.864 433.425 232.842 437.759 232.16L437.913 233.502C433.447 234.36 428.585 234.382 425.043 234.382ZM452.239 220.764H461.391V233.722H452.239V220.764ZM459.609 222.238H454.021V232.248H459.609V222.238ZM465.549 218.806H467.375V238.738H465.549V218.806ZM479.407 218.916H480.947V219.642C480.947 223.03 477.075 225.296 472.939 225.824L472.323 224.416C475.931 224.02 479.407 222.106 479.407 219.642V218.916ZM479.715 218.916H481.255V219.642C481.255 222.106 484.731 224.02 488.339 224.416L487.701 225.824C483.587 225.296 479.715 223.03 479.715 219.642V218.916ZM479.407 228.2H481.211V231.236H479.407V228.2ZM471.333 227.122H489.307V228.596H471.333V227.122ZM473.511 230.554H487.019V235.086H475.359V237.484H473.555V233.766H485.215V231.962H473.511V230.554ZM473.555 237.066H487.613V238.496H473.555V237.066ZM492.649 220.368H501.449V221.864H492.649V220.368ZM495.641 224.812H497.445V229.784H495.641V224.812ZM500.723 220.368H502.527V221.424C502.527 222.722 502.527 224.702 501.999 227.32L500.217 227.122C500.723 224.504 500.723 222.7 500.723 221.424V220.368ZM505.233 218.828H507.059V233.81H505.233V218.828ZM506.223 225.296H509.897V226.814H506.223V225.296ZM494.497 236.78H507.697V238.276H494.497V236.78ZM494.497 232.424H496.301V237.242H494.497V232.424ZM491.637 230.642L491.439 229.146C494.981 229.146 499.865 229.058 503.891 228.508L504.023 229.828C499.887 230.554 495.135 230.642 491.637 230.642ZM518.856 221H521.169L526.606 234.281H526.794L532.231 221H534.544V237H532.731V224.844H532.575L527.575 237H525.825L520.825 224.844H520.669V237H518.856V221ZM551.929 229C551.929 230.687 551.624 232.146 551.015 233.375C550.405 234.604 549.569 235.552 548.507 236.219C547.444 236.885 546.231 237.219 544.866 237.219C543.502 237.219 542.288 236.885 541.226 236.219C540.163 235.552 539.327 234.604 538.718 233.375C538.108 232.146 537.804 230.687 537.804 229C537.804 227.312 538.108 225.854 538.718 224.625C539.327 223.396 540.163 222.448 541.226 221.781C542.288 221.115 543.502 220.781 544.866 220.781C546.231 220.781 547.444 221.115 548.507 221.781C549.569 222.448 550.405 223.396 551.015 224.625C551.624 225.854 551.929 227.312 551.929 229ZM550.054 229C550.054 227.615 549.822 226.445 549.358 225.492C548.9 224.539 548.278 223.818 547.491 223.328C546.71 222.839 545.835 222.594 544.866 222.594C543.897 222.594 543.02 222.839 542.233 223.328C541.452 223.818 540.83 224.539 540.366 225.492C539.908 226.445 539.679 227.615 539.679 229C539.679 230.385 539.908 231.555 540.366 232.508C540.83 233.461 541.452 234.182 542.233 234.672C543.02 235.161 543.897 235.406 544.866 235.406C545.835 235.406 546.71 235.161 547.491 234.672C548.278 234.182 548.9 233.461 549.358 232.508C549.822 231.555 550.054 230.385 550.054 229ZM555.187 221H557.499L562.937 234.281H563.124L568.562 221H570.874V237H569.062V224.844H568.905L563.905 237H562.155L557.155 224.844H556.999V237H555.187V221ZM576.696 221V237H574.759V221H576.696ZM587.796 226.55H591.558V228.068H587.796V226.55ZM594.88 218.828H596.64V238.716H594.88V218.828ZM590.942 219.246H592.68V237.726H590.942V219.246ZM584.21 220.478C586.784 220.478 588.456 223.14 588.456 227.408C588.456 231.676 586.784 234.338 584.21 234.338C581.636 234.338 579.986 231.676 579.986 227.408C579.986 223.14 581.636 220.478 584.21 220.478ZM584.21 222.172C582.648 222.172 581.658 224.196 581.658 227.408C581.658 230.62 582.648 232.644 584.21 232.644C585.794 232.644 586.784 230.62 586.784 227.408C586.784 224.196 585.794 222.172 584.21 222.172ZM614.221 230.07H616.047V235.02H614.221V230.07ZM615.145 220.126C619.347 220.126 622.361 222.172 622.361 225.34C622.361 228.508 619.347 230.554 615.145 230.554C610.943 230.554 607.907 228.508 607.907 225.34C607.907 222.172 610.943 220.126 615.145 220.126ZM615.145 221.578C611.977 221.578 609.667 223.074 609.667 225.34C609.667 227.606 611.977 229.102 615.145 229.102C618.291 229.102 620.601 227.606 620.601 225.34C620.601 223.074 618.291 221.578 615.145 221.578ZM606.169 234.668H624.187V236.186H606.169V234.668ZM640.862 218.85H642.71V233.414H640.862V218.85ZM629.928 236.78H643.304V238.276H629.928V236.78ZM629.928 232.072H631.732V237.484H629.928V232.072ZM631.578 219.928H633.096V221.952C633.096 225.824 630.896 229.212 627.552 230.576L626.606 229.102C629.598 227.936 631.578 225.032 631.578 221.952V219.928ZM631.908 219.928H633.404V221.952C633.404 224.944 635.406 227.65 638.376 228.728L637.408 230.202C634.108 228.926 631.908 225.736 631.908 221.952V219.928ZM661.787 223.25H667.793V224.768H661.787V223.25ZM661.787 229.542H667.793V231.06H661.787V229.542ZM658.135 220.346C661.017 220.346 663.085 223.052 663.085 227.276C663.085 231.522 661.017 234.228 658.135 234.228C655.231 234.228 653.185 231.522 653.185 227.276C653.185 223.052 655.231 220.346 658.135 220.346ZM658.135 221.996C656.221 221.996 654.901 224.064 654.901 227.276C654.901 230.51 656.221 232.622 658.135 232.622C660.049 232.622 661.369 230.51 661.369 227.276C661.369 224.064 660.049 221.996 658.135 221.996ZM667.397 218.806H669.201V238.738H667.397V218.806ZM687.592 218.806H689.418V238.738H687.592V218.806ZM683.808 226.462H688.032V227.958H683.808V226.462ZM673.798 232.446H675.316C678.836 232.446 681.322 232.336 684.248 231.808L684.424 233.326C681.432 233.854 678.902 233.986 675.316 233.986H673.798V232.446ZM673.754 220.676H682.642V227.65H675.602V232.908H673.798V226.154H680.838V222.172H673.754V220.676ZM693.288 229.322H711.306V230.818H693.288V229.322ZM701.516 230.07H703.342V234.646H701.516V230.07ZM695.576 236.78H709.304V238.276H695.576V236.78ZM695.576 232.886H697.38V237.352H695.576V232.886ZM695.686 219.444H697.49V221.974H707.104V219.444H708.93V227.408H695.686V219.444ZM697.49 223.404V225.934H707.104V223.404H697.49ZM733.31 218.828H735.136V234.404H733.31V218.828ZM734.366 225.758H738.04V227.276H734.366V225.758ZM722.552 236.78H735.84V238.276H722.552V236.78ZM722.552 233.37H724.378V237.242H722.552V233.37ZM724.928 228.552H726.754V231.258H724.928V228.552ZM719.846 232.116L719.604 230.642C723.124 230.642 728.03 230.576 732.122 229.938L732.276 231.236C728.074 232.006 723.3 232.094 719.846 232.116ZM720.11 220.764H731.528V222.15H720.11V220.764ZM725.83 222.964C728.624 222.964 730.45 224.13 730.45 226.022C730.45 227.936 728.624 229.102 725.83 229.102C723.036 229.102 721.188 227.936 721.188 226.022C721.188 224.13 723.036 222.964 725.83 222.964ZM725.83 224.262C724.048 224.262 722.904 224.944 722.904 226.022C722.904 227.122 724.048 227.782 725.83 227.782C727.59 227.782 728.734 227.122 728.734 226.022C728.734 224.944 727.59 224.262 725.83 224.262ZM724.928 218.74H726.754V221.38H724.928V218.74ZM749.016 221.688H755.088V223.184H749.016V221.688ZM749.016 226.264H755.088V227.782H749.016V226.264ZM745.386 219.994C748.312 219.994 750.512 221.974 750.512 224.724C750.512 227.496 748.312 229.454 745.386 229.454C742.438 229.454 740.26 227.496 740.26 224.724C740.26 221.974 742.438 219.994 745.386 219.994ZM745.386 221.556C743.45 221.556 742.02 222.854 742.02 224.724C742.02 226.594 743.45 227.892 745.386 227.892C747.322 227.892 748.774 226.594 748.774 224.724C748.774 222.854 747.322 221.556 745.386 221.556ZM754.494 218.828H756.32V230.598H754.494V218.828ZM749.786 231.06C753.878 231.06 756.408 232.468 756.408 234.866C756.408 237.286 753.878 238.672 749.786 238.672C745.672 238.672 743.142 237.286 743.142 234.866C743.142 232.468 745.672 231.06 749.786 231.06ZM749.786 232.512C746.772 232.512 744.946 233.392 744.946 234.866C744.946 236.362 746.772 237.242 749.786 237.242C752.778 237.242 754.604 236.362 754.604 234.866C754.604 233.392 752.778 232.512 749.786 232.512ZM773.808 218.828H775.634V230.378H773.808V218.828ZM774.842 223.888H778.582V225.428H774.842V223.888ZM763.138 231.258H764.92V233.37H773.83V231.258H775.634V238.452H763.138V231.258ZM764.92 234.778V236.978H773.83V234.778H764.92ZM760.256 220.852H772.004V222.348H760.256V220.852ZM766.13 223.25C768.968 223.25 770.882 224.636 770.882 226.748C770.882 228.86 768.968 230.246 766.13 230.246C763.27 230.246 761.356 228.86 761.356 226.748C761.356 224.636 763.27 223.25 766.13 223.25ZM766.13 224.636C764.304 224.636 763.094 225.472 763.094 226.748C763.094 228.024 764.304 228.86 766.13 228.86C767.912 228.86 769.144 228.024 769.144 226.748C769.144 225.472 767.912 224.636 766.13 224.636ZM765.206 218.63H767.032V221.666H765.206V218.63ZM794.905 218.828H796.731V238.716H794.905V218.828ZM781.705 220.764H783.509V233.084H781.705V220.764ZM781.705 232.006H783.333C786.347 232.006 789.493 231.786 792.859 231.082L793.079 232.644C789.625 233.348 786.479 233.59 783.333 233.59H781.705V232.006ZM814.131 218.806H815.979V238.738H814.131V218.806ZM815.539 226.66H819.235V228.2H815.539V226.66ZM801.525 232.248H803.087C806.761 232.248 809.335 232.116 812.305 231.566L812.503 233.106C809.445 233.678 806.827 233.788 803.087 233.788H801.525V232.248ZM801.525 220.742H810.765V222.238H803.329V232.93H801.525V220.742ZM822.858 237.125C822.473 237.125 822.142 236.987 821.866 236.711C821.59 236.435 821.452 236.104 821.452 235.719C821.452 235.333 821.59 235.003 821.866 234.727C822.142 234.451 822.473 234.312 822.858 234.312C823.244 234.312 823.575 234.451 823.851 234.727C824.127 235.003 824.265 235.333 824.265 235.719C824.265 235.974 824.2 236.208 824.069 236.422C823.944 236.635 823.775 236.807 823.562 236.937C823.353 237.063 823.119 237.125 822.858 237.125ZM181.187 248H183.499L188.937 261.281H189.124L194.562 248H196.874V264H195.062V251.844H194.905L189.905 264H188.155L183.155 251.844H182.999V264H181.187V248ZM214.259 256C214.259 257.687 213.954 259.146 213.345 260.375C212.735 261.604 211.899 262.552 210.837 263.219C209.774 263.885 208.561 264.219 207.196 264.219C205.832 264.219 204.618 263.885 203.556 263.219C202.493 262.552 201.657 261.604 201.048 260.375C200.438 259.146 200.134 257.687 200.134 256C200.134 254.312 200.438 252.854 201.048 251.625C201.657 250.396 202.493 249.448 203.556 248.781C204.618 248.115 205.832 247.781 207.196 247.781C208.561 247.781 209.774 248.115 210.837 248.781C211.899 249.448 212.735 250.396 213.345 251.625C213.954 252.854 214.259 254.312 214.259 256ZM212.384 256C212.384 254.615 212.152 253.445 211.688 252.492C211.23 251.539 210.608 250.818 209.821 250.328C209.04 249.839 208.165 249.594 207.196 249.594C206.228 249.594 205.35 249.839 204.563 250.328C203.782 250.818 203.16 251.539 202.696 252.492C202.238 253.445 202.009 254.615 202.009 256C202.009 257.385 202.238 258.555 202.696 259.508C203.16 260.461 203.782 261.182 204.563 261.672C205.35 262.161 206.228 262.406 207.196 262.406C208.165 262.406 209.04 262.161 209.821 261.672C210.608 261.182 211.23 260.461 211.688 259.508C212.152 258.555 212.384 257.385 212.384 256ZM217.517 248H219.829L225.267 261.281H225.454L230.892 248H233.204V264H231.392V251.844H231.235L226.235 264H224.485L219.485 251.844H219.329V264H217.517V248ZM239.026 248V264H237.089V248H239.026ZM244.494 251.79H258.002V253.286H244.494V251.79ZM242.052 255.948H260.092V257.444H242.052V255.948ZM244.494 246.554H246.298V252.538H244.494V246.554ZM244.362 263.736H258.112V265.232H244.362V263.736ZM244.362 259.424H246.166V264.132H244.362V259.424ZM273.383 247.874H274.879V249.48C274.879 253.132 272.679 256.168 269.357 257.356L268.389 255.926C271.403 254.87 273.383 252.318 273.383 249.48V247.874ZM273.713 247.874H275.209V249.458C275.209 252.098 277.123 254.54 280.049 255.53L279.103 256.96C275.825 255.816 273.713 252.89 273.713 249.458V247.874ZM268.961 247.214H279.587V248.71H268.961V247.214ZM282.095 245.828H283.921V257.796H282.095V245.828ZM283.415 251.064H286.869V252.582H283.415V251.064ZM271.007 258.852H283.921V265.716H282.095V260.37H271.007V258.852ZM296.812 256.388H298.616V259.82H296.812V256.388ZM288.716 255.42H306.69V256.916H288.716V255.42ZM290.388 246.444H304.996V247.94H290.388V246.444ZM290.476 252.098H304.908V253.594H290.476V252.098ZM293.402 247.104H295.228V253.066H293.402V247.104ZM300.178 247.104H301.982V253.066H300.178V247.104ZM290.916 259.226H304.49V265.452H290.916V259.226ZM302.708 260.678H292.72V263.978H302.708V260.678ZM317.952 246.158C322.33 246.158 324.948 247.39 324.948 249.612C324.948 251.834 322.33 253.066 317.952 253.066C313.552 253.066 310.956 251.834 310.956 249.612C310.956 247.39 313.552 246.158 317.952 246.158ZM317.952 247.544C314.696 247.544 312.826 248.292 312.826 249.612C312.826 250.932 314.696 251.68 317.952 251.68C321.186 251.68 323.056 250.932 323.056 249.612C323.056 248.292 321.186 247.544 317.952 247.544ZM308.954 254.386H326.928V255.86H308.954V254.386ZM311.132 257.554H324.64V262.042H312.98V264.462H311.176V260.722H322.836V258.962H311.132V257.554ZM311.176 264.066H325.234V265.496H311.176V264.066ZM337.844 251.856H351.352V253.308H337.844V251.856ZM337.844 246.576H339.648V252.45H337.844V246.576ZM335.402 255.64H353.376V257.136H335.402V255.64ZM343.63 256.608H345.434V261.228H343.63V256.608ZM337.69 263.78H351.462V265.276H337.69V263.78ZM337.69 259.468H339.494V264.484H337.69V259.468ZM364.616 247.082C368.752 247.082 371.832 249.282 371.832 252.582C371.832 255.904 368.752 258.082 364.616 258.082C360.48 258.082 357.378 255.904 357.378 252.582C357.378 249.282 360.48 247.082 364.616 247.082ZM364.616 248.578C361.47 248.578 359.138 250.184 359.138 252.582C359.138 254.958 361.47 256.586 364.616 256.586C367.762 256.586 370.094 254.958 370.094 252.582C370.094 250.184 367.762 248.578 364.616 248.578ZM355.64 261.558H373.658V263.098H355.64V261.558ZM375.878 261.756H393.896V263.274H375.878V261.756ZM383.93 257.488H385.756V262.394H383.93V257.488ZM378.056 247.302H391.674V253.33H379.926V257.312H378.122V251.856H389.87V248.776H378.056V247.302ZM378.122 256.542H392.136V258.038H378.122V256.542ZM396.931 247.61H406.061V256.828H396.931V247.61ZM404.279 249.084H398.713V255.354H404.279V249.084ZM409.713 245.806H411.539V260.392H409.713V245.806ZM410.967 251.878H414.487V253.396H410.967V251.878ZM399.153 263.78H412.441V265.276H399.153V263.78ZM399.153 259.006H400.979V264.418H399.153V259.006ZM436.138 245.828H437.964V257.092H436.138V245.828ZM437.458 250.668H440.912V252.186H437.458V250.668ZM430.638 247.104H432.574C432.574 252.12 429.076 255.728 423.224 257.312L422.52 255.86C427.668 254.452 430.638 251.57 430.638 247.918V247.104ZM423.378 247.104H431.65V248.578H423.378V247.104ZM425.446 258.038H437.964V265.452H425.446V258.038ZM436.16 259.512H427.25V263.956H436.16V259.512ZM447.599 246.862H449.117V248.886C449.117 252.714 446.961 255.882 443.639 257.18L442.671 255.706C445.663 254.606 447.599 251.922 447.599 248.886V246.862ZM447.929 246.862H449.425V249.018C449.425 251.702 451.405 254.188 454.265 255.178L453.297 256.608C450.107 255.42 447.929 252.472 447.929 249.018V246.862ZM456.377 245.828H458.203V257.884H456.377V245.828ZM457.697 250.954H461.151V252.494H457.697V250.954ZM451.867 258.434C455.937 258.434 458.401 259.776 458.401 262.064C458.401 264.352 455.937 265.672 451.867 265.672C447.797 265.672 445.333 264.352 445.333 262.064C445.333 259.776 447.797 258.434 451.867 258.434ZM451.867 259.886C448.919 259.886 447.115 260.678 447.115 262.064C447.115 263.45 448.919 264.242 451.867 264.242C454.815 264.242 456.619 263.45 456.619 262.064C456.619 260.678 454.815 259.886 451.867 259.886ZM476.483 245.828H478.309V265.716H476.483V245.828ZM477.869 253.99H481.565V255.53H477.869V253.99ZM462.909 248.996H474.635V250.492H462.909V248.996ZM468.849 252.142C471.665 252.142 473.689 254.034 473.689 256.718C473.689 259.402 471.665 261.294 468.849 261.294C466.055 261.294 464.009 259.402 464.009 256.718C464.009 254.034 466.055 252.142 468.849 252.142ZM468.849 253.66C467.045 253.66 465.747 254.914 465.747 256.718C465.747 258.5 467.045 259.776 468.849 259.776C470.653 259.776 471.951 258.5 471.951 256.718C471.951 254.914 470.653 253.66 468.849 253.66ZM467.903 246.07H469.729V249.678H467.903V246.07ZM485.677 251.79H499.185V253.286H485.677V251.79ZM483.235 255.948H501.275V257.444H483.235V255.948ZM485.677 246.554H487.481V252.538H485.677V246.554ZM485.545 263.736H499.295V265.232H485.545V263.736ZM485.545 259.424H487.349V264.132H485.545V259.424ZM524.203 245.828H526.029V259.292H524.203V245.828ZM519.935 251.438H524.577V252.934H519.935V251.438ZM517.955 247.39H519.869C519.869 252.538 516.481 256.19 510.783 258.038L510.013 256.586C515.051 255.002 517.955 252.01 517.955 248.116V247.39ZM510.959 247.39H519.253V248.886H510.959V247.39ZM518.703 257.576H520.265V258.478C520.265 262.284 516.789 264.858 512.807 265.672L512.081 264.22C515.601 263.582 518.703 261.382 518.703 258.478V257.576ZM518.967 257.576H520.529V258.478C520.529 261.338 523.587 263.538 527.129 264.176L526.359 265.628C522.399 264.836 518.967 262.262 518.967 258.478V257.576ZM538.897 246.158C543.275 246.158 545.893 247.39 545.893 249.612C545.893 251.834 543.275 253.066 538.897 253.066C534.497 253.066 531.901 251.834 531.901 249.612C531.901 247.39 534.497 246.158 538.897 246.158ZM538.897 247.544C535.641 247.544 533.771 248.292 533.771 249.612C533.771 250.932 535.641 251.68 538.897 251.68C542.131 251.68 544.001 250.932 544.001 249.612C544.001 248.292 542.131 247.544 538.897 247.544ZM529.899 254.386H547.873V255.86H529.899V254.386ZM532.077 257.554H545.585V262.042H533.925V264.462H532.121V260.722H543.781V258.962H532.077V257.554ZM532.121 264.066H546.179V265.496H532.121V264.066ZM559.889 258.258H572.693V265.452H559.889V258.258ZM570.911 259.71H561.671V263.978H570.911V259.71ZM557.491 247.016H559.317V255.266H557.491V247.016ZM557.491 254.474H559.009C562.199 254.474 564.883 254.298 567.831 253.682L568.051 255.222C565.015 255.838 562.265 256.036 559.009 256.036H557.491V254.474ZM570.867 245.828H572.693V257.268H570.867V245.828ZM565.257 249.546H571.329V251.042H565.257V249.546ZM581.887 247.346C584.769 247.346 586.837 250.052 586.837 254.276C586.837 258.522 584.769 261.228 581.887 261.228C578.983 261.228 576.937 258.522 576.937 254.276C576.937 250.052 578.983 247.346 581.887 247.346ZM581.887 248.996C579.973 248.996 578.675 251.064 578.675 254.276C578.675 257.51 579.973 259.622 581.887 259.622C583.801 259.622 585.099 257.51 585.099 254.276C585.099 251.064 583.801 248.996 581.887 248.996ZM591.149 245.806H592.953V265.738H591.149V245.806ZM586.243 253.396H591.941V254.892H586.243V253.396ZM607.01 250.514H612.026V252.032H607.01V250.514ZM601.796 247.038H603.27V249.48C603.27 253.33 601.114 256.542 597.792 257.884L596.846 256.432C599.794 255.332 601.796 252.516 601.796 249.48V247.038ZM602.148 247.038H603.622V249.546C603.622 252.318 605.558 254.936 608.44 255.992L607.45 257.4C604.282 256.168 602.148 253.088 602.148 249.546V247.038ZM611.344 245.85H613.17V260.722H611.344V245.85ZM600.388 263.78H613.654V265.276H600.388V263.78ZM600.388 259.072H602.214V264.484H600.388V259.072ZM631.345 253.682H635.107V255.178H631.345V253.682ZM627.297 250.91H628.705V251.944C628.705 255.904 627.055 259.908 624.151 261.646L623.073 260.26C625.757 258.698 627.297 255.2 627.297 251.944V250.91ZM627.627 250.91H629.035V251.944C629.035 255.112 630.619 258.39 633.303 259.842L632.269 261.206C629.343 259.578 627.627 255.816 627.627 251.944V250.91ZM623.623 249.48H632.709V250.998H623.623V249.48ZM627.297 246.532H629.057V250.646H627.297V246.532ZM638.363 245.828H640.123V265.716H638.363V245.828ZM634.381 246.29H636.097V264.704H634.381V246.29ZM658.008 245.828H659.834V257.862H658.008V245.828ZM654.708 251.856H658.822V253.374H654.708V251.856ZM646.942 258.918H659.834V265.452H646.942V258.918ZM658.052 260.392H648.724V263.978H658.052V260.392ZM643.51 247.896H655.016V249.37H643.51V247.896ZM649.252 250.382C651.936 250.382 653.85 251.834 653.85 253.946C653.85 256.058 651.936 257.466 649.252 257.466C646.568 257.466 644.654 256.058 644.654 253.946C644.654 251.834 646.568 250.382 649.252 250.382ZM649.252 251.79C647.58 251.79 646.392 252.648 646.392 253.946C646.392 255.222 647.58 256.08 649.252 256.08C650.924 256.08 652.112 255.222 652.112 253.946C652.112 252.648 650.924 251.79 649.252 251.79ZM648.35 245.63H650.176V248.952H648.35V245.63ZM672.702 246.158C677.08 246.158 679.698 247.39 679.698 249.612C679.698 251.834 677.08 253.066 672.702 253.066C668.302 253.066 665.706 251.834 665.706 249.612C665.706 247.39 668.302 246.158 672.702 246.158ZM672.702 247.544C669.446 247.544 667.576 248.292 667.576 249.612C667.576 250.932 669.446 251.68 672.702 251.68C675.936 251.68 677.806 250.932 677.806 249.612C677.806 248.292 675.936 247.544 672.702 247.544ZM663.704 254.386H681.678V255.86H663.704V254.386ZM665.882 257.554H679.39V262.042H667.73V264.462H665.926V260.722H677.586V258.962H665.882V257.554ZM665.926 264.066H679.984V265.496H665.926V264.066ZM703.748 245.762H705.574V256.74H703.748V245.762ZM704.804 250.536H708.522V252.076H704.804V250.536ZM692.946 257.752H705.574V262.196H694.794V264.616H692.99V260.876H703.792V259.138H692.946V257.752ZM692.99 264.088H706.3V265.496H692.99V264.088ZM690.196 247.61H701.944V249.04H690.196V247.61ZM696.07 249.92C698.93 249.92 700.822 251.174 700.822 253.198C700.822 255.2 698.93 256.432 696.07 256.432C693.166 256.432 691.296 255.2 691.296 253.198C691.296 251.174 693.166 249.92 696.07 249.92ZM696.07 251.262C694.222 251.262 693.034 252.01 693.034 253.198C693.034 254.364 694.222 255.112 696.07 255.112C697.896 255.112 699.084 254.364 699.084 253.198C699.084 252.01 697.896 251.262 696.07 251.262ZM695.146 245.608H696.972V248.6H695.146V245.608ZM724.608 246.532H726.214V247.632C726.214 251.438 722.342 254.166 718.206 254.87L717.48 253.396C721.11 252.846 724.608 250.47 724.608 247.632V246.532ZM724.938 246.532H726.522V247.632C726.522 250.404 730.064 252.846 733.65 253.396L732.924 254.87C728.832 254.166 724.938 251.394 724.938 247.632V246.532ZM724.608 258.148H726.412V265.716H724.608V258.148ZM716.578 257.026H734.552V258.544H716.578V257.026ZM747.953 258.06H749.361V259.138C749.361 261.734 747.733 264.352 744.873 265.452L743.949 264.088C746.457 263.186 747.953 261.052 747.953 259.138V258.06ZM748.349 258.06H749.713V259.138C749.713 261.14 750.901 263.274 753.277 264.242L752.507 265.628C749.647 264.506 748.349 261.778 748.349 259.138V258.06ZM755.301 258.06H756.665V259.138C756.665 261.47 755.345 264.418 752.507 265.628L751.737 264.242C754.091 263.164 755.301 260.854 755.301 259.138V258.06ZM755.675 258.06H757.083V259.138C757.083 261.184 758.557 263.23 761.087 264.088L760.163 265.452C757.259 264.396 755.675 261.888 755.675 259.138V258.06ZM757.457 245.85H759.305V257.202H757.457V245.85ZM748.635 246.994C751.649 246.994 753.805 248.886 753.805 251.636C753.805 254.386 751.649 256.256 748.635 256.256C745.621 256.256 743.443 254.386 743.443 251.636C743.443 248.886 745.621 246.994 748.635 246.994ZM748.635 248.512C746.655 248.512 745.225 249.788 745.225 251.636C745.225 253.484 746.655 254.738 748.635 254.738C750.615 254.738 752.045 253.484 752.045 251.636C752.045 249.788 750.615 248.512 748.635 248.512ZM765.662 251.79H779.17V253.286H765.662V251.79ZM763.22 255.948H781.26V257.444H763.22V255.948ZM765.662 246.554H767.466V252.538H765.662V246.554ZM765.53 263.736H779.28V265.232H765.53V263.736ZM765.53 259.424H767.334V264.132H765.53V259.424ZM793.825 247.698H795.255V251.482C795.255 255.64 793.495 259.666 790.591 261.426L789.425 260.062C792.175 258.456 793.825 254.892 793.825 251.482V247.698ZM794.155 247.698H795.585V251.372C795.585 254.65 797.125 258.016 799.765 259.49L798.665 260.92C795.761 259.248 794.155 255.376 794.155 251.372V247.698ZM804.803 245.828H806.563V265.716H804.803V245.828ZM801.657 253.814H805.463V255.332H801.657V253.814ZM800.425 246.246H802.163V264.726H800.425V246.246ZM809.906 261.756H827.924V263.274H809.906V261.756ZM817.958 257.488H819.784V262.394H817.958V257.488ZM812.084 247.302H825.702V253.33H813.954V257.312H812.15V251.856H823.898V248.776H812.084V247.302ZM812.15 256.542H826.164V258.038H812.15V256.542ZM830.122 255.904H848.162V257.4H830.122V255.904ZM838.35 256.85H840.198V261.426H838.35V256.85ZM832.41 263.758H846.16V265.276H832.41V263.758ZM832.41 259.468H834.236V264.176H832.41V259.468ZM839.12 246.312C843.322 246.312 846.094 247.852 846.094 250.316C846.094 252.78 843.322 254.32 839.12 254.32C834.896 254.32 832.146 252.78 832.146 250.316C832.146 247.852 834.896 246.312 839.12 246.312ZM839.12 247.808C836.084 247.808 834.082 248.776 834.082 250.316C834.082 251.878 836.084 252.824 839.12 252.824C842.156 252.824 844.158 251.878 844.158 250.316C844.158 248.776 842.156 247.808 839.12 247.808ZM867.746 250.602H871.794V252.098H867.746V250.602ZM867.724 254.474H871.772V255.97H867.724V254.474ZM856.592 248.006H867.724V249.48H856.592V248.006ZM862.224 250.514C864.886 250.514 866.712 251.966 866.712 254.188C866.712 256.41 864.886 257.884 862.224 257.884C859.562 257.884 857.714 256.41 857.714 254.188C857.714 251.966 859.562 250.514 862.224 250.514ZM862.224 251.922C860.552 251.922 859.43 252.802 859.43 254.188C859.43 255.574 860.552 256.476 862.224 256.476C863.874 256.476 865.018 255.574 865.018 254.188C865.018 252.802 863.874 251.922 862.224 251.922ZM861.322 245.652H863.148V249.04H861.322V245.652ZM871.09 245.828H872.916V258.676H871.09V245.828ZM866.404 258.874C870.518 258.874 873.026 260.128 873.026 262.284C873.026 264.44 870.518 265.672 866.404 265.672C862.268 265.672 859.782 264.44 859.782 262.284C859.782 260.128 862.268 258.874 866.404 258.874ZM866.404 260.326C863.478 260.326 861.674 261.008 861.674 262.284C861.674 263.538 863.478 264.264 866.404 264.264C869.33 264.264 871.134 263.538 871.134 262.284C871.134 261.008 869.33 260.326 866.404 260.326ZM877.578 259.27H878.876C882.022 259.27 883.892 259.204 886.114 258.764L886.312 260.282C884.002 260.744 882.066 260.81 878.876 260.81H877.578V259.27ZM877.578 248.094H885.41V249.59H879.316V259.842H877.578V248.094ZM878.788 253.352H885.102V254.826H878.788V253.352ZM891.944 245.828H893.704V265.716H891.944V245.828ZM888.798 253.792H892.604V255.31H888.798V253.792ZM887.566 246.246H889.304V264.726H887.566V246.246ZM903.492 247.258C906.594 247.258 908.816 249.172 908.816 251.944C908.816 254.738 906.594 256.652 903.492 256.652C900.39 256.652 898.146 254.738 898.146 251.944C898.146 249.172 900.39 247.258 903.492 247.258ZM903.492 248.842C901.424 248.842 899.928 250.096 899.928 251.944C899.928 253.792 901.424 255.068 903.492 255.068C905.538 255.068 907.034 253.792 907.034 251.944C907.034 250.096 905.538 248.842 903.492 248.842ZM911.412 245.806H913.238V265.738H911.412V245.806ZM897.398 261.382L897.134 259.864C900.764 259.864 905.78 259.842 910.114 259.16L910.268 260.502C905.802 261.36 900.94 261.382 897.398 261.382ZM924.594 247.764H933.746V260.722H924.594V247.764ZM931.964 249.238H926.376V259.248H931.964V249.238ZM937.904 245.806H939.73V265.738H937.904V245.806ZM951.762 245.916H953.302V246.642C953.302 250.03 949.43 252.296 945.294 252.824L944.678 251.416C948.286 251.02 951.762 249.106 951.762 246.642V245.916ZM952.07 245.916H953.61V246.642C953.61 249.106 957.086 251.02 960.694 251.416L960.056 252.824C955.942 252.296 952.07 250.03 952.07 246.642V245.916ZM951.762 255.2H953.566V258.236H951.762V255.2ZM943.688 254.122H961.662V255.596H943.688V254.122ZM945.866 257.554H959.374V262.086H947.714V264.484H945.91V260.766H957.57V258.962H945.866V257.554ZM945.91 264.066H959.968V265.496H945.91V264.066ZM965.005 247.368H973.805V248.864H965.005V247.368ZM967.997 251.812H969.801V256.784H967.997V251.812ZM973.079 247.368H974.883V248.424C974.883 249.722 974.883 251.702 974.355 254.32L972.573 254.122C973.079 251.504 973.079 249.7 973.079 248.424V247.368ZM977.589 245.828H979.415V260.81H977.589V245.828ZM978.579 252.296H982.253V253.814H978.579V252.296ZM966.853 263.78H980.053V265.276H966.853V263.78ZM966.853 259.424H968.657V264.242H966.853V259.424ZM963.993 257.642L963.795 256.146C967.337 256.146 972.221 256.058 976.247 255.508L976.379 256.828C972.243 257.554 967.491 257.642 963.993 257.642ZM993.163 247.082C997.299 247.082 1000.38 249.282 1000.38 252.582C1000.38 255.904 997.299 258.082 993.163 258.082C989.027 258.082 985.925 255.904 985.925 252.582C985.925 249.282 989.027 247.082 993.163 247.082ZM993.163 248.578C990.017 248.578 987.685 250.184 987.685 252.582C987.685 254.958 990.017 256.586 993.163 256.586C996.309 256.586 998.641 254.958 998.641 252.582C998.641 250.184 996.309 248.578 993.163 248.578ZM984.187 261.558H1002.2V263.098H984.187V261.558ZM1004.43 261.756H1022.44V263.274H1004.43V261.756ZM1012.48 257.488H1014.3V262.394H1012.48V257.488ZM1006.6 247.302H1020.22V253.33H1008.47V257.312H1006.67V251.856H1018.42V248.776H1006.6V247.302ZM1006.67 256.542H1020.68V258.038H1006.67V256.542ZM464.205 280.22H477.493V281.716H464.205V280.22ZM461.719 284.29H479.759V285.808H461.719V284.29ZM469.771 285.126H471.575V292.65H469.771V285.126ZM464.205 273.994H477.229V275.49H466.053V280.946H464.205V273.994ZM498.704 278.306H503.72V279.802H498.704V278.306ZM502.686 272.85H504.512V287.414H502.686V272.85ZM491.818 290.78H505.062V292.276H491.818V290.78ZM491.818 286.138H493.644V291.55H491.818V286.138ZM493.226 275.314H494.722V276.92C494.722 280.528 492.478 283.652 489.156 284.884L488.21 283.432C491.18 282.376 493.226 279.736 493.226 276.92V275.314ZM493.578 275.314H495.052V276.898C495.052 279.472 496.988 281.98 499.87 282.992L498.946 284.422C495.712 283.256 493.578 280.264 493.578 276.898V275.314ZM488.782 274.456H499.408V275.93H488.782V274.456ZM513.641 274.544H515.137V278.108C515.137 282.684 512.673 286.93 509.417 288.58L508.295 287.084C511.243 285.676 513.641 281.87 513.641 278.108V274.544ZM513.949 274.544H515.445V278.108C515.445 281.738 517.821 285.39 520.769 286.754L519.669 288.206C516.435 286.622 513.949 282.53 513.949 278.108V274.544ZM522.837 272.806H524.663V292.738H522.837V272.806ZM529.699 274.368H538.499V275.864H529.699V274.368ZM532.691 278.812H534.495V283.784H532.691V278.812ZM537.773 274.368H539.577V275.424C539.577 276.722 539.577 278.702 539.049 281.32L537.267 281.122C537.773 278.504 537.773 276.7 537.773 275.424V274.368ZM542.283 272.828H544.109V287.81H542.283V272.828ZM543.273 279.296H546.947V280.814H543.273V279.296ZM531.547 290.78H544.747V292.276H531.547V290.78ZM531.547 286.424H533.351V291.242H531.547V286.424ZM528.687 284.642L528.489 283.146C532.031 283.146 536.915 283.058 540.941 282.508L541.073 283.828C536.937 284.554 532.185 284.642 528.687 284.642ZM557.857 274.082C561.993 274.082 565.073 276.282 565.073 279.582C565.073 282.904 561.993 285.082 557.857 285.082C553.721 285.082 550.619 282.904 550.619 279.582C550.619 276.282 553.721 274.082 557.857 274.082ZM557.857 275.578C554.711 275.578 552.379 277.184 552.379 279.582C552.379 281.958 554.711 283.586 557.857 283.586C561.003 283.586 563.335 281.958 563.335 279.582C563.335 277.184 561.003 275.578 557.857 275.578ZM548.881 288.558H566.899V290.098H548.881V288.558ZM569.12 288.756H587.138V290.274H569.12V288.756ZM577.172 284.488H578.998V289.394H577.172V284.488ZM571.298 274.302H584.916V280.33H573.168V284.312H571.364V278.856H583.112V275.776H571.298V274.302ZM571.364 283.542H585.378V285.038H571.364V283.542ZM609.977 272.806H611.803V292.738H609.977V272.806ZM601.309 274.346C604.257 274.346 606.369 277.052 606.369 281.276C606.369 285.522 604.257 288.228 601.309 288.228C598.383 288.228 596.271 285.522 596.271 281.276C596.271 277.052 598.383 274.346 601.309 274.346ZM601.309 275.996C599.373 275.996 598.009 278.064 598.009 281.276C598.009 284.51 599.373 286.622 601.309 286.622C603.267 286.622 604.609 284.51 604.609 281.276C604.609 278.064 603.267 275.996 601.309 275.996ZM621.196 284.774H623.044V292.1H621.196V284.774ZM630.304 272.828H632.13V292.738H630.304V272.828ZM615.938 285.544L615.696 284.004C619.722 283.982 624.54 283.938 628.83 283.542L628.94 284.906C624.54 285.456 619.832 285.544 615.938 285.544ZM625.816 286.842H630.788V288.272H625.816V286.842ZM617.28 273.95H627.246V278.592H619.172V281.056H617.324V277.272H625.398V275.358H617.28V273.95ZM617.324 280.572H627.62V282.002H617.324V280.572ZM650.564 272.828H652.368V292.716H650.564V272.828ZM641.06 275.666H642.512V278.636C642.512 282.97 640.07 287.216 637.078 288.866L635.868 287.48C638.706 286.05 641.06 282.2 641.06 278.636V275.666ZM641.434 275.666H642.886V278.636C642.886 281.782 645.196 285.522 648.012 286.974L646.956 288.404C643.898 286.798 641.434 282.552 641.434 278.636V275.666ZM636.594 274.852H647.33V276.37H636.594V274.852ZM646.582 278.416H651.73V279.934H646.582V278.416ZM646.582 282.662H651.73V284.202H646.582V282.662ZM667.398 285.06H668.806V286.138C668.806 288.734 667.178 291.352 664.318 292.452L663.394 291.088C665.902 290.186 667.398 288.052 667.398 286.138V285.06ZM667.794 285.06H669.158V286.138C669.158 288.14 670.346 290.274 672.722 291.242L671.952 292.628C669.092 291.506 667.794 288.778 667.794 286.138V285.06ZM674.746 285.06H676.11V286.138C676.11 288.47 674.79 291.418 671.952 292.628L671.182 291.242C673.536 290.164 674.746 287.854 674.746 286.138V285.06ZM675.12 285.06H676.528V286.138C676.528 288.184 678.002 290.23 680.532 291.088L679.608 292.452C676.704 291.396 675.12 288.888 675.12 286.138V285.06ZM676.902 272.85H678.75V284.202H676.902V272.85ZM668.08 273.994C671.094 273.994 673.25 275.886 673.25 278.636C673.25 281.386 671.094 283.256 668.08 283.256C665.066 283.256 662.888 281.386 662.888 278.636C662.888 275.886 665.066 273.994 668.08 273.994ZM668.08 275.512C666.1 275.512 664.67 276.788 664.67 278.636C664.67 280.484 666.1 281.738 668.08 281.738C670.06 281.738 671.49 280.484 671.49 278.636C671.49 276.788 670.06 275.512 668.08 275.512ZM684.952 284.752H686.756V287.062H696.48V284.752H698.306V292.452H684.952V284.752ZM686.756 288.47V290.978H696.48V288.47H686.756ZM682.664 281.892H700.638V283.366H682.664V281.892ZM690.738 273.048H692.3V273.928C692.3 277.382 688.45 279.868 684.358 280.484L683.698 279.054C687.284 278.57 690.738 276.436 690.738 273.928V273.048ZM691.024 273.048H692.586V273.928C692.586 276.392 696.084 278.57 699.626 279.054L698.944 280.484C694.896 279.868 691.024 277.338 691.024 273.928V273.048ZM717.378 272.828H719.204V292.716H717.378V272.828ZM704.178 274.764H705.982V287.084H704.178V274.764ZM704.178 286.006H705.806C708.82 286.006 711.966 285.786 715.332 285.082L715.552 286.644C712.098 287.348 708.952 287.59 705.806 287.59H704.178V286.006ZM736.605 272.806H738.453V292.738H736.605V272.806ZM738.013 280.66H741.709V282.2H738.013V280.66ZM723.999 286.248H725.561C729.235 286.248 731.809 286.116 734.779 285.566L734.977 287.106C731.919 287.678 729.301 287.788 725.561 287.788H723.999V286.248ZM723.999 274.742H733.239V276.238H725.803V286.93H723.999V274.742ZM745.332 291.125C744.947 291.125 744.616 290.987 744.34 290.711C744.064 290.435 743.926 290.104 743.926 289.719C743.926 289.333 744.064 289.003 744.34 288.727C744.616 288.451 744.947 288.312 745.332 288.312C745.717 288.312 746.048 288.451 746.324 288.727C746.6 289.003 746.738 289.333 746.738 289.719C746.738 289.974 746.673 290.208 746.543 290.422C746.418 290.635 746.249 290.807 746.035 290.937C745.827 291.063 745.592 291.125 745.332 291.125Z" fill="black"/>
<path d="M160.211 352V350.312C160.211 349.833 160.305 349.344 160.492 348.844C160.68 348.344 160.927 347.872 161.234 347.43C161.542 346.987 161.875 346.617 162.234 346.32L163.703 347.188C163.411 347.646 163.172 348.125 162.984 348.625C162.802 349.125 162.711 349.682 162.711 350.297V352H160.211ZM172.586 347V363H169.203V350.211H169.109L165.445 352.508V349.508L169.406 347H172.586ZM186.884 349.844H191.636V352.198H186.884V349.844ZM190.096 344.608H193.022V359.458H190.096V344.608ZM179.58 362.274H193.484V364.606H179.58V362.274ZM179.58 358.204H182.506V363.66H179.58V358.204ZM180.68 347.27H183.056V348.546C183.056 352.374 181.252 355.916 177.336 357.214L175.862 354.882C179.228 353.782 180.68 351.12 180.68 348.546V347.27ZM181.296 347.27H183.65V348.546C183.65 350.922 185.036 353.452 188.248 354.53L186.818 356.818C183.034 355.564 181.296 352.176 181.296 348.546V347.27ZM176.654 345.972H187.61V348.282H176.654V345.972ZM201.182 346.148H203.558V349.118C203.558 354.354 201.754 359.084 197.706 360.954L195.968 358.534C199.51 356.994 201.182 353.078 201.182 349.118V346.148ZM201.754 346.148H204.13V349.118C204.13 352.88 205.736 356.62 209.212 358.116L207.496 360.47C203.558 358.666 201.754 354.134 201.754 349.118V346.148ZM210.18 344.564H213.128V365.002H210.18V344.564ZM217.35 346.06H226.062V348.414H217.35V346.06ZM219.858 350.812H222.762V355.916H219.858V350.812ZM224.918 346.06H227.8V347.336C227.8 348.766 227.8 350.79 227.316 353.32L224.478 353.012C224.918 350.504 224.918 348.744 224.918 347.336V346.06ZM229.78 344.586H232.728V359.832H229.78V344.586ZM231.562 350.79H235.148V353.188H231.562V350.79ZM219.132 362.274H233.366V364.606H219.132V362.274ZM219.132 358.468H222.058V363H219.132V358.468ZM216.426 357.104L216.162 354.794C219.682 354.794 224.588 354.728 228.68 354.156L228.856 356.224C224.654 357.016 219.924 357.104 216.426 357.104ZM239.08 363.203C238.564 363.203 238.122 363.021 237.752 362.656C237.387 362.286 237.205 361.844 237.205 361.328C237.205 360.818 237.387 360.38 237.752 360.016C238.122 359.651 238.564 359.469 239.08 359.469C239.58 359.469 240.018 359.651 240.393 360.016C240.768 360.38 240.955 360.818 240.955 361.328C240.955 361.672 240.867 361.987 240.689 362.273C240.518 362.555 240.291 362.781 240.01 362.953C239.729 363.12 239.419 363.203 239.08 363.203ZM239.08 354.797C238.564 354.797 238.122 354.615 237.752 354.25C237.387 353.885 237.205 353.443 237.205 352.922C237.205 352.411 237.387 351.977 237.752 351.617C238.122 351.253 238.564 351.07 239.08 351.07C239.58 351.07 240.018 351.253 240.393 351.617C240.768 351.977 240.955 352.411 240.955 352.922C240.955 353.271 240.867 353.589 240.689 353.875C240.518 354.156 240.291 354.38 240.01 354.547C239.729 354.714 239.419 354.797 239.08 354.797ZM248.353 360.228H266.789V362.604H248.353V360.228ZM256.075 355.718H259.001V360.778H256.075V355.718ZM250.267 346.082H264.765V356.092H250.267V346.082ZM261.905 348.414H253.149V353.782H261.905V348.414ZM270.901 351.78H284.893V354.112H270.901V351.78ZM268.569 356.114H287.027V358.468H268.569V356.114ZM276.269 357.478H279.173V364.936H276.269V357.478ZM270.901 345.664H284.695V347.996H273.893V352.902H270.901V345.664ZM295.364 345.928C298.576 345.928 300.974 348.018 300.974 350.944C300.974 353.892 298.576 355.982 295.364 355.982C292.174 355.982 289.732 353.892 289.732 350.944C289.732 348.018 292.174 345.928 295.364 345.928ZM295.364 348.436C293.802 348.436 292.614 349.36 292.614 350.944C292.614 352.55 293.802 353.474 295.364 353.474C296.926 353.474 298.114 352.55 298.114 350.944C298.114 349.36 296.926 348.436 295.364 348.436ZM302.888 344.564H305.814V365.002H302.888V344.564ZM289.248 360.866L288.896 358.512C292.482 358.512 297.476 358.468 301.766 357.83L301.986 359.942C297.564 360.822 292.768 360.866 289.248 360.866ZM315.15 346.412H324.94V360.118H315.15V346.412ZM322.08 348.7H318.032V357.808H322.08V348.7ZM328.108 344.564H331.056V365.002H328.108V344.564ZM342.098 344.696H344.562V345.07C344.562 348.48 341.504 351.164 336.246 351.736L335.278 349.536C339.876 349.074 342.098 347.05 342.098 345.07V344.696ZM342.604 344.696H345.09V345.07C345.09 347.05 347.312 349.074 351.888 349.536L350.92 351.736C345.662 351.164 342.604 348.48 342.604 345.07V344.696ZM342.098 354.354H345.024V357.192H342.098V354.354ZM334.376 352.572H352.79V354.86H334.376V352.572ZM336.488 356.18H350.568V361.46H339.392V363.22H336.51V359.436H347.686V358.358H336.488V356.18ZM336.51 362.626H351.096V364.826H336.51V362.626ZM355.516 346.06H364.228V348.414H355.516V346.06ZM358.024 350.812H360.928V355.916H358.024V350.812ZM363.084 346.06H365.966V347.336C365.966 348.766 365.966 350.79 365.482 353.32L362.644 353.012C363.084 350.504 363.084 348.744 363.084 347.336V346.06ZM367.946 344.586H370.894V359.832H367.946V344.586ZM369.728 350.79H373.314V353.188H369.728V350.79ZM357.298 362.274H371.532V364.606H357.298V362.274ZM357.298 358.468H360.224V363H357.298V358.468ZM354.592 357.104L354.328 354.794C357.848 354.794 362.754 354.728 366.846 354.156L367.022 356.224C362.82 357.016 358.09 357.104 354.592 357.104ZM378.09 347V348.687C378.09 349.167 377.996 349.656 377.809 350.156C377.626 350.651 377.382 351.12 377.074 351.562C376.767 352 376.431 352.372 376.066 352.68L374.598 351.812C374.858 351.401 375.087 350.945 375.285 350.445C375.488 349.945 375.59 349.365 375.59 348.703V347H378.09ZM387.999 352.088H391.343V354.442H387.999V352.088ZM394.577 344.586H397.371V364.958H394.577V344.586ZM390.419 344.894H393.169V364.034H390.419V344.894ZM384.435 346.016C387.141 346.016 388.879 348.81 388.879 353.408C388.879 358.028 387.141 360.822 384.435 360.822C381.751 360.822 380.035 358.028 380.035 353.408C380.035 348.81 381.751 346.016 384.435 346.016ZM384.435 348.766C383.335 348.766 382.697 350.306 382.697 353.408C382.697 356.532 383.335 358.05 384.435 358.05C385.579 358.05 386.217 356.532 386.217 353.408C386.217 350.306 385.579 348.766 384.435 348.766ZM410.371 350.944H415.739V353.298H410.371V350.944ZM404.827 346.148H407.203V349.096C407.203 354.222 405.465 358.952 401.637 360.866L399.811 358.512C403.287 356.906 404.827 352.968 404.827 349.096V346.148ZM405.443 346.148H407.775V349.096C407.775 352.968 409.249 356.686 412.615 358.182L410.877 360.514C407.049 358.666 405.443 354.178 405.443 349.096V346.148ZM414.287 344.564H417.191V365.002H414.287V344.564ZM422.623 350.086H436.747V352.396H422.623V350.086ZM420.335 354.508H438.793V356.84H420.335V354.508ZM422.623 345.312H425.527V351.23H422.623V345.312ZM422.425 362.186H436.857V364.518H422.425V362.186ZM422.425 358.468H425.351V362.802H422.425V358.468ZM450.637 346.148H453.013V349.118C453.013 354.354 451.209 359.084 447.161 360.954L445.423 358.534C448.965 356.994 450.637 353.078 450.637 349.118V346.148ZM451.209 346.148H453.585V349.118C453.585 352.88 455.191 356.62 458.667 358.116L456.951 360.47C453.013 358.666 451.209 354.134 451.209 349.118V346.148ZM459.635 344.564H462.583V365.002H459.635V344.564ZM479.015 344.586H481.941V356.4H479.015V344.586ZM481.127 349.316H484.647V351.736H481.127V349.316ZM473.163 345.73H476.265C476.265 351.164 472.877 354.838 466.827 356.4L465.639 354.156C470.655 352.88 473.163 350.262 473.163 347.182V345.73ZM466.651 345.73H474.923V348.04H466.651V345.73ZM468.345 357.258H481.941V364.958H479.015V359.568H468.345V357.258ZM490.674 346.852H493.072V348.128C493.072 352.022 491.246 355.52 487.308 356.818L485.856 354.508C489.244 353.386 490.674 350.724 490.674 348.128V346.852ZM491.268 346.852H493.644V348.128C493.644 350.504 495.008 352.836 498.286 353.826L496.9 356.114C493.028 354.948 491.268 351.758 491.268 348.128V346.852ZM486.626 345.95H497.626V348.282H486.626V345.95ZM499.254 344.586H502.18V356.664H499.254V344.586ZM501.366 349.272H504.886V351.67H501.366V349.272ZM495.536 357.038C499.76 357.038 502.422 358.512 502.422 360.998C502.422 363.484 499.76 364.958 495.536 364.958C491.29 364.958 488.628 363.484 488.628 360.998C488.628 358.512 491.29 357.038 495.536 357.038ZM495.536 359.326C492.94 359.326 491.532 359.854 491.532 360.998C491.532 362.142 492.94 362.714 495.536 362.714C498.132 362.714 499.518 362.142 499.518 360.998C499.518 359.854 498.132 359.326 495.536 359.326ZM510.956 346.016C513.662 346.016 515.4 348.81 515.4 353.408C515.4 358.028 513.662 360.822 510.956 360.822C508.272 360.822 506.556 358.028 506.556 353.408C506.556 348.81 508.272 346.016 510.956 346.016ZM510.956 348.766C509.856 348.766 509.218 350.306 509.218 353.408C509.218 356.532 509.856 358.05 510.956 358.05C512.078 358.05 512.716 356.532 512.716 353.408C512.716 350.306 512.078 348.766 510.956 348.766ZM521.098 344.586H523.892V364.958H521.098V344.586ZM518.656 352.352H522.022V354.706H518.656V352.352ZM516.632 344.894H519.382V364.034H516.632V344.894ZM540.61 344.608H543.558V359.238H540.61V344.608ZM529.984 362.274H544.064V364.606H529.984V362.274ZM529.984 357.764H532.91V363.22H529.984V357.764ZM532.47 345.884C535.594 345.884 537.992 348.04 537.992 351.054C537.992 354.046 535.594 356.224 532.47 356.224C529.346 356.224 526.926 354.046 526.926 351.054C526.926 348.04 529.346 345.884 532.47 345.884ZM532.47 348.414C530.952 348.414 529.786 349.382 529.786 351.054C529.786 352.704 530.952 353.672 532.47 353.672C533.966 353.672 535.132 352.704 535.132 351.054C535.132 349.382 533.966 348.414 532.47 348.414ZM553.413 345.928C556.625 345.928 559.023 348.018 559.023 350.944C559.023 353.892 556.625 355.982 553.413 355.982C550.223 355.982 547.781 353.892 547.781 350.944C547.781 348.018 550.223 345.928 553.413 345.928ZM553.413 348.436C551.851 348.436 550.663 349.36 550.663 350.944C550.663 352.55 551.851 353.474 553.413 353.474C554.975 353.474 556.163 352.55 556.163 350.944C556.163 349.36 554.975 348.436 553.413 348.436ZM560.937 344.564H563.863V365.002H560.937V344.564ZM547.297 360.866L546.945 358.512C550.531 358.512 555.525 358.468 559.815 357.83L560.035 359.942C555.613 360.822 550.817 360.866 547.297 360.866ZM586.179 344.586H589.127V355.542H586.179V344.586ZM575.575 356.422H578.457V358.314H586.223V356.422H589.127V364.738H575.575V356.422ZM578.457 360.558V362.406H586.223V360.558H578.457ZM578.039 345.422C581.207 345.422 583.561 347.424 583.561 350.24C583.561 353.056 581.207 355.058 578.039 355.058C574.871 355.058 572.495 353.056 572.495 350.24C572.495 347.424 574.871 345.422 578.039 345.422ZM578.039 347.842C576.477 347.842 575.355 348.744 575.355 350.24C575.355 351.758 576.477 352.638 578.039 352.638C579.579 352.638 580.701 351.758 580.701 350.24C580.701 348.744 579.579 347.842 578.039 347.842ZM596.957 346.852H599.355V348.128C599.355 352.022 597.529 355.52 593.591 356.818L592.139 354.508C595.527 353.386 596.957 350.724 596.957 348.128V346.852ZM597.551 346.852H599.927V348.128C599.927 350.504 601.291 352.836 604.569 353.826L603.183 356.114C599.311 354.948 597.551 351.758 597.551 348.128V346.852ZM592.909 345.95H603.909V348.282H592.909V345.95ZM605.537 344.586H608.463V356.664H605.537V344.586ZM607.649 349.272H611.169V351.67H607.649V349.272ZM601.819 357.038C606.043 357.038 608.705 358.512 608.705 360.998C608.705 363.484 606.043 364.958 601.819 364.958C597.573 364.958 594.911 363.484 594.911 360.998C594.911 358.512 597.573 357.038 601.819 357.038ZM601.819 359.326C599.223 359.326 597.815 359.854 597.815 360.998C597.815 362.142 599.223 362.714 601.819 362.714C604.415 362.714 605.801 362.142 605.801 360.998C605.801 359.854 604.415 359.326 601.819 359.326ZM626.633 344.564H629.581V365.002H626.633V344.564ZM618.603 345.994C621.683 345.994 623.949 348.81 623.949 353.254C623.949 357.742 621.683 360.558 618.603 360.558C615.523 360.558 613.257 357.742 613.257 353.254C613.257 348.81 615.523 345.994 618.603 345.994ZM618.603 348.656C617.085 348.656 616.051 350.262 616.051 353.254C616.051 356.29 617.085 357.918 618.603 357.918C620.121 357.918 621.133 356.29 621.133 353.254C621.133 350.262 620.121 348.656 618.603 348.656ZM639.379 352.836H650.027V355.168H639.379V352.836ZM643.207 354.728H646.155V359.018H643.207V354.728ZM639.379 346.39H649.895V348.7H642.305V353.562H639.379V346.39ZM652.073 344.564H654.999V365.002H652.073V344.564ZM638.433 360.976L638.081 358.622C641.975 358.622 646.771 358.6 650.951 358.138L651.171 360.272C646.771 360.954 642.217 360.998 638.433 360.976ZM663.82 345.994C666.856 345.994 669.078 348.81 669.078 353.254C669.078 357.742 666.856 360.558 663.82 360.558C660.762 360.558 658.562 357.742 658.562 353.254C658.562 348.81 660.762 345.994 663.82 345.994ZM663.82 348.656C662.346 348.656 661.356 350.262 661.356 353.254C661.356 356.29 662.346 357.918 663.82 357.918C665.316 357.918 666.284 356.29 666.284 353.254C666.284 350.262 665.316 348.656 663.82 348.656ZM672.422 344.564H675.326V365.002H672.422V344.564ZM668.22 351.912H673.654V354.266H668.22V351.912ZM698.764 352.286H702.35V354.684H698.764V352.286ZM696.586 344.564H699.534V364.936H696.586V344.564ZM684.178 346.522H687.104V359.172H684.178V346.522ZM684.178 357.544H685.938C688.842 357.544 691.988 357.346 695.266 356.686L695.574 359.084C692.208 359.788 688.93 359.964 685.938 359.964H684.178V357.544ZM704.35 357.808H705.802C708.266 357.808 710.444 357.742 712.974 357.302L713.216 359.656C710.598 360.14 708.354 360.206 705.802 360.206H704.35V357.808ZM704.328 346.588H711.522V354.376H707.188V358.732H704.35V352.088H708.706V348.898H704.328V346.588ZM718.518 344.586H721.29V364.958H718.518V344.586ZM712.358 351.516H715.526V353.914H712.358V351.516ZM714.382 344.96H717.088V363.99H714.382V344.96ZM738.008 344.564H740.956V365.002H738.008V344.564ZM729.978 345.994C733.058 345.994 735.324 348.81 735.324 353.254C735.324 357.742 733.058 360.558 729.978 360.558C726.898 360.558 724.632 357.742 724.632 353.254C724.632 348.81 726.898 345.994 729.978 345.994ZM729.978 348.656C728.46 348.656 727.426 350.262 727.426 353.254C727.426 356.29 728.46 357.918 729.978 357.918C731.496 357.918 732.508 356.29 732.508 353.254C732.508 350.262 731.496 348.656 729.978 348.656ZM755.034 347.226H759.082V349.58H755.034V347.226ZM755.034 351.164H759.082V353.496H755.034V351.164ZM748.94 345.752H751.294V348.084C751.294 352.308 749.578 355.96 745.728 357.39L744.166 355.102C747.532 353.914 748.94 351.054 748.94 348.084V345.752ZM749.556 345.752H751.91V348.084C751.91 350.878 753.23 353.672 756.442 354.882L754.836 357.148C751.228 355.718 749.556 352.132 749.556 348.084V345.752ZM758.4 344.608H761.326V359.678H758.4V344.608ZM747.84 362.274H761.766V364.606H747.84V362.274ZM747.84 358.292H750.788V363.748H747.84V358.292ZM773.733 344.872C778.375 344.872 781.103 346.104 781.103 348.348C781.103 350.592 778.375 351.824 773.733 351.824C769.069 351.824 766.363 350.592 766.363 348.348C766.363 346.104 769.069 344.872 773.733 344.872ZM773.733 347.006C770.785 347.006 769.399 347.446 769.399 348.348C769.399 349.294 770.785 349.69 773.733 349.69C776.681 349.69 778.067 349.294 778.067 348.348C778.067 347.446 776.681 347.006 773.733 347.006ZM764.515 352.77H782.929V355.08H764.515V352.77ZM766.627 356.224H780.707V361.46H769.531V363.264H766.649V359.436H777.825V358.402H766.627V356.224ZM766.649 362.626H781.235V364.826H766.649V362.626ZM789.823 355.08H808.259V357.368H789.823V355.08ZM797.567 352.902H800.493V355.916H797.567V352.902ZM792.111 351.626H806.301V353.848H792.111V351.626ZM792.111 345.092H806.147V347.314H795.015V352.88H792.111V345.092ZM794.201 348.392H805.685V350.526H794.201V348.392ZM799.019 358.27C803.485 358.27 806.081 359.458 806.081 361.614C806.081 363.792 803.485 364.958 799.019 364.958C794.531 364.958 791.935 363.792 791.935 361.614C791.935 359.458 794.531 358.27 799.019 358.27ZM799.019 360.426C796.181 360.426 794.883 360.778 794.883 361.614C794.883 362.472 796.181 362.824 799.019 362.824C801.835 362.824 803.133 362.472 803.133 361.614C803.133 360.778 801.835 360.426 799.019 360.426ZM810.061 347.644H819.807V349.976H810.061V347.644ZM814.967 350.878C817.563 350.878 819.433 352.88 819.433 355.74C819.433 358.578 817.563 360.58 814.967 360.58C812.393 360.58 810.501 358.578 810.501 355.74C810.501 352.88 812.393 350.878 814.967 350.878ZM814.967 353.32C813.867 353.32 813.097 354.2 813.097 355.74C813.097 357.28 813.867 358.138 814.967 358.138C816.067 358.138 816.859 357.28 816.859 355.74C816.859 354.2 816.067 353.32 814.967 353.32ZM824.801 344.586H827.595V364.958H824.801V344.586ZM822.359 352.858H825.725V355.212H822.359V352.858ZM820.533 344.96H823.261V364.1H820.533V344.96ZM813.537 345.136H816.419V349.118H813.537V345.136ZM839.945 346.676H842.343V347.952C842.343 351.802 840.517 355.256 836.623 356.51L835.105 354.244C838.515 353.144 839.945 350.504 839.945 347.952V346.676ZM840.539 346.676H842.915V347.952C842.915 350.35 844.301 352.836 847.601 353.892L846.105 356.158C842.299 354.926 840.539 351.604 840.539 347.952V346.676ZM835.897 345.774H846.897V348.106H835.897V345.774ZM848.525 344.586H851.451V356.862H848.525V344.586ZM850.637 349.514H854.157V351.912H850.637V349.514ZM837.855 357.742H851.451V364.958H848.525V360.096H837.855V357.742ZM863.395 355.784H866.321V358.886H863.395V355.784ZM855.651 354.112H874.065V356.422H855.651V354.112ZM857.257 345.136H872.437V347.468H857.257V345.136ZM857.411 350.526H872.283V352.858H857.411V350.526ZM859.853 345.994H862.779V352.044H859.853V345.994ZM866.915 345.994H869.841V352.044H866.915V345.994ZM857.785 358.116H871.865V364.738H857.785V358.116ZM869.005 360.382H860.667V362.428H869.005V360.382ZM885.108 344.872C889.75 344.872 892.478 346.104 892.478 348.348C892.478 350.592 889.75 351.824 885.108 351.824C880.444 351.824 877.738 350.592 877.738 348.348C877.738 346.104 880.444 344.872 885.108 344.872ZM885.108 347.006C882.16 347.006 880.774 347.446 880.774 348.348C880.774 349.294 882.16 349.69 885.108 349.69C888.056 349.69 889.442 349.294 889.442 348.348C889.442 347.446 888.056 347.006 885.108 347.006ZM875.89 352.77H894.304V355.08H875.89V352.77ZM878.002 356.224H892.082V361.46H880.906V363.264H878.024V359.436H889.2V358.402H878.002V356.224ZM878.024 362.626H892.61V364.826H878.024V362.626ZM902.122 346.06H910.834V348.414H902.122V346.06ZM904.63 350.812H907.534V355.916H904.63V350.812ZM909.69 346.06H912.572V347.336C912.572 348.766 912.572 350.79 912.088 353.32L909.25 353.012C909.69 350.504 909.69 348.744 909.69 347.336V346.06ZM914.552 344.586H917.5V359.832H914.552V344.586ZM916.334 350.79H919.92V353.188H916.334V350.79ZM903.904 362.274H918.138V364.606H903.904V362.274ZM903.904 358.468H906.83V363H903.904V358.468ZM901.198 357.104L900.934 354.794C904.454 354.794 909.36 354.728 913.452 354.156L913.628 356.224C909.426 357.016 904.696 357.104 901.198 357.104ZM934.57 344.608H937.496V356.686H934.57V344.608ZM936.66 349.382H940.202V351.802H936.66V349.382ZM924.23 357.566H937.496V364.738H924.23V357.566ZM934.636 359.854H927.112V362.428H934.636V359.854ZM922.184 353.606H923.9C927.904 353.606 930.368 353.54 933.184 353.012L933.448 355.322C930.588 355.872 928.014 355.982 923.9 355.982H922.184V353.606ZM922.162 345.598H931.468V351.802H925.088V354.904H922.184V349.624H928.586V347.93H922.162V345.598ZM954.808 344.586H957.734V356.51H954.808V344.586ZM956.568 349.47H960.44V351.89H956.568V349.47ZM944.49 357.302H947.372V358.842H954.83V357.302H957.734V364.738H944.49V357.302ZM947.372 361.042V362.45H954.83V361.042H947.372ZM941.696 346.346H953.686V348.656H941.696V346.346ZM947.702 349.206C950.65 349.206 952.696 350.658 952.696 352.814C952.696 354.97 950.65 356.422 947.702 356.422C944.732 356.422 942.686 354.97 942.686 352.814C942.686 350.658 944.732 349.206 947.702 349.206ZM947.702 351.34C946.382 351.34 945.502 351.868 945.502 352.814C945.502 353.782 946.382 354.288 947.702 354.288C949 354.288 949.902 353.782 949.902 352.814C949.902 351.868 949 351.34 947.702 351.34ZM946.228 344.432H949.154V347.644H946.228V344.432ZM976.037 344.586H978.963V364.958H976.037V344.586ZM963.013 346.522H965.917V359.172H963.013V346.522ZM963.013 357.456H964.817C967.787 357.456 971.087 357.236 974.453 356.576L974.783 358.996C971.285 359.722 967.919 359.942 964.817 359.942H963.013V357.456ZM995.197 344.564H998.145V365.002H995.197V344.564ZM997.485 352.11H1001.09V354.508H997.485V352.11ZM982.965 357.676H984.681C988.113 357.676 990.819 357.566 993.811 357.038L994.097 359.458C991.017 360.008 988.223 360.096 984.681 360.096H982.965V357.676ZM982.965 346.456H992.469V348.81H985.869V358.842H982.965V346.456ZM1004.8 363.203C1004.29 363.203 1003.85 363.021 1003.48 362.656C1003.11 362.286 1002.93 361.844 1002.93 361.328C1002.93 360.818 1003.11 360.38 1003.48 360.016C1003.85 359.651 1004.29 359.469 1004.8 359.469C1005.3 359.469 1005.74 359.651 1006.12 360.016C1006.49 360.38 1006.68 360.818 1006.68 361.328C1006.68 361.672 1006.59 361.987 1006.41 362.273C1006.24 362.555 1006.02 362.781 1005.73 362.953C1005.45 363.12 1005.14 363.203 1004.8 363.203Z" fill="black"/>
<path d="M418.249 423V421.312C418.249 420.833 418.343 420.344 418.53 419.844C418.718 419.344 418.965 418.872 419.272 418.43C419.58 417.987 419.913 417.617 420.272 417.32L421.741 418.188C421.45 418.646 421.21 419.125 421.022 419.625C420.84 420.125 420.749 420.682 420.749 421.297V423H418.249ZM423.663 434V431.562L429.358 426.289C429.843 425.82 430.249 425.398 430.577 425.023C430.91 424.648 431.163 424.281 431.335 423.922C431.507 423.557 431.593 423.164 431.593 422.742C431.593 422.273 431.486 421.87 431.272 421.531C431.059 421.187 430.767 420.924 430.397 420.742C430.028 420.555 429.608 420.461 429.14 420.461C428.65 420.461 428.223 420.56 427.858 420.758C427.494 420.956 427.213 421.24 427.015 421.609C426.817 421.979 426.718 422.419 426.718 422.93H423.507C423.507 421.883 423.744 420.974 424.218 420.203C424.692 419.432 425.356 418.836 426.21 418.414C427.064 417.992 428.049 417.781 429.163 417.781C430.309 417.781 431.306 417.984 432.155 418.391C433.009 418.792 433.674 419.349 434.147 420.062C434.621 420.776 434.858 421.594 434.858 422.516C434.858 423.12 434.739 423.716 434.499 424.305C434.265 424.893 433.845 425.547 433.241 426.266C432.637 426.979 431.785 427.836 430.687 428.836L428.351 431.125V431.234H435.069V434H423.663ZM448.016 420.844H452.768V423.198H448.016V420.844ZM451.228 415.608H454.154V430.458H451.228V415.608ZM440.712 433.274H454.616V435.606H440.712V433.274ZM440.712 429.204H443.638V434.66H440.712V429.204ZM441.812 418.27H444.188V419.546C444.188 423.374 442.384 426.916 438.468 428.214L436.994 425.882C440.36 424.782 441.812 422.12 441.812 419.546V418.27ZM442.428 418.27H444.782V419.546C444.782 421.922 446.168 424.452 449.38 425.53L447.95 427.818C444.166 426.564 442.428 423.176 442.428 419.546V418.27ZM437.786 416.972H448.742V419.282H437.786V416.972ZM462.314 417.148H464.69V420.118C464.69 425.354 462.886 430.084 458.838 431.954L457.1 429.534C460.642 427.994 462.314 424.078 462.314 420.118V417.148ZM462.886 417.148H465.262V420.118C465.262 423.88 466.868 427.62 470.344 429.116L468.628 431.47C464.69 429.666 462.886 425.134 462.886 420.118V417.148ZM471.312 415.564H474.26V436.002H471.312V415.564ZM478.482 417.06H487.194V419.414H478.482V417.06ZM480.99 421.812H483.894V426.916H480.99V421.812ZM486.05 417.06H488.932V418.336C488.932 419.766 488.932 421.79 488.448 424.32L485.61 424.012C486.05 421.504 486.05 419.744 486.05 418.336V417.06ZM490.912 415.586H493.86V430.832H490.912V415.586ZM492.694 421.79H496.28V424.188H492.694V421.79ZM480.264 433.274H494.498V435.606H480.264V433.274ZM480.264 429.468H483.19V434H480.264V429.468ZM477.558 428.104L477.294 425.794C480.814 425.794 485.72 425.728 489.812 425.156L489.988 427.224C485.786 428.016 481.056 428.104 477.558 428.104ZM500.212 434.203C499.696 434.203 499.254 434.021 498.884 433.656C498.519 433.286 498.337 432.844 498.337 432.328C498.337 431.818 498.519 431.38 498.884 431.016C499.254 430.651 499.696 430.469 500.212 430.469C500.712 430.469 501.149 430.651 501.524 431.016C501.899 431.38 502.087 431.818 502.087 432.328C502.087 432.672 501.998 432.987 501.821 433.273C501.649 433.555 501.423 433.781 501.142 433.953C500.86 434.12 500.55 434.203 500.212 434.203ZM500.212 425.797C499.696 425.797 499.254 425.615 498.884 425.25C498.519 424.885 498.337 424.443 498.337 423.922C498.337 423.411 498.519 422.977 498.884 422.617C499.254 422.253 499.696 422.07 500.212 422.07C500.712 422.07 501.149 422.253 501.524 422.617C501.899 422.977 502.087 423.411 502.087 423.922C502.087 424.271 501.998 424.589 501.821 424.875C501.649 425.156 501.423 425.38 501.142 425.547C500.86 425.714 500.55 425.797 500.212 425.797ZM509.485 431.228H527.921V433.604H509.485V431.228ZM517.207 426.718H520.133V431.778H517.207V426.718ZM511.399 417.082H525.897V427.092H511.399V417.082ZM523.037 419.414H514.281V424.782H523.037V419.414ZM532.033 422.78H546.025V425.112H532.033V422.78ZM529.701 427.114H548.159V429.468H529.701V427.114ZM537.401 428.478H540.305V435.936H537.401V428.478ZM532.033 416.664H545.827V418.996H535.025V423.902H532.033V416.664ZM562.964 415.564H565.912V435.936H562.964V415.564ZM565.142 423.352H568.728V425.75H565.142V423.352ZM557.618 417.676H560.478C560.478 423.792 558.146 429.028 551.37 432.438L549.742 430.216C555.088 427.444 557.618 423.704 557.618 418.182V417.676ZM550.864 417.676H559.114V420.03H550.864V417.676ZM577.162 417.302H590.076V419.656H577.162V417.302ZM575.292 431.14H593.706V433.516H575.292V431.14ZM581.804 424.144H584.73V432.306H581.804V424.144ZM589.02 417.302H591.946V419.26C591.946 421.812 591.946 424.672 591.132 429.028L588.206 428.698C589.02 424.65 589.02 421.702 589.02 419.26V417.302ZM596.542 417.192H606.42V427.048H596.542V417.192ZM603.56 419.502H599.402V424.738H603.56V419.502ZM609.5 415.608H612.448V430.084H609.5V415.608ZM598.874 433.186H612.954V435.54H598.874V433.186ZM598.874 428.764H601.8V434.22H598.874V428.764ZM628.814 415.586H631.718V435.958H628.814V415.586ZM631.058 423.528H634.666V425.97H631.058V423.528ZM615.658 418.6H627.516V420.932H615.658V418.6ZM621.62 422.076C624.59 422.076 626.79 424.1 626.79 426.938C626.79 429.776 624.59 431.8 621.62 431.8C618.65 431.8 616.45 429.776 616.45 426.938C616.45 424.1 618.65 422.076 621.62 422.076ZM621.62 424.452C620.234 424.452 619.244 425.376 619.244 426.938C619.244 428.5 620.234 429.424 621.62 429.424C623.006 429.424 623.996 428.5 623.996 426.938C623.996 425.376 623.006 424.452 621.62 424.452ZM620.146 415.916H623.072V419.48H620.146V415.916ZM638.272 421.086H652.396V423.396H638.272V421.086ZM635.984 425.508H654.442V427.84H635.984V425.508ZM638.272 416.312H641.176V422.23H638.272V416.312ZM638.074 433.186H652.506V435.518H638.074V433.186ZM638.074 429.468H641V433.802H638.074V429.468ZM662.327 417.412H672.117V431.118H662.327V417.412ZM669.257 419.7H665.209V428.808H669.257V419.7ZM675.285 415.564H678.233V436.002H675.285V415.564ZM689.275 415.696H691.739V416.07C691.739 419.48 688.681 422.164 683.423 422.736L682.455 420.536C687.053 420.074 689.275 418.05 689.275 416.07V415.696ZM689.781 415.696H692.267V416.07C692.267 418.05 694.489 420.074 699.065 420.536L698.097 422.736C692.839 422.164 689.781 419.48 689.781 416.07V415.696ZM689.275 425.354H692.201V428.192H689.275V425.354ZM681.553 423.572H699.967V425.86H681.553V423.572ZM683.665 427.18H697.745V432.46H686.569V434.22H683.687V430.436H694.863V429.358H683.665V427.18ZM683.687 433.626H698.273V435.826H683.687V433.626ZM702.693 417.06H711.405V419.414H702.693V417.06ZM705.201 421.812H708.105V426.916H705.201V421.812ZM710.261 417.06H713.143V418.336C713.143 419.766 713.143 421.79 712.659 424.32L709.821 424.012C710.261 421.504 710.261 419.744 710.261 418.336V417.06ZM715.123 415.586H718.071V430.832H715.123V415.586ZM716.905 421.79H720.491V424.188H716.905V421.79ZM704.475 433.274H718.709V435.606H704.475V433.274ZM704.475 429.468H707.401V434H704.475V429.468ZM701.769 428.104L701.505 425.794C705.025 425.794 709.931 425.728 714.023 425.156L714.199 427.224C709.997 428.016 705.267 428.104 701.769 428.104ZM725.267 418V419.687C725.267 420.167 725.173 420.656 724.985 421.156C724.803 421.651 724.558 422.12 724.251 422.562C723.944 423 723.608 423.372 723.243 423.68L721.774 422.812C722.035 422.401 722.264 421.945 722.462 421.445C722.665 420.945 722.767 420.365 722.767 419.703V418H725.267ZM735.175 423.088H738.519V425.442H735.175V423.088ZM741.753 415.586H744.547V435.958H741.753V415.586ZM737.595 415.894H740.345V435.034H737.595V415.894ZM731.611 417.016C734.317 417.016 736.055 419.81 736.055 424.408C736.055 429.028 734.317 431.822 731.611 431.822C728.927 431.822 727.211 429.028 727.211 424.408C727.211 419.81 728.927 417.016 731.611 417.016ZM731.611 419.766C730.511 419.766 729.873 421.306 729.873 424.408C729.873 427.532 730.511 429.05 731.611 429.05C732.755 429.05 733.393 427.532 733.393 424.408C733.393 421.306 732.755 419.766 731.611 419.766ZM757.548 421.944H762.916V424.298H757.548V421.944ZM752.004 417.148H754.38V420.096C754.38 425.222 752.642 429.952 748.814 431.866L746.988 429.512C750.464 427.906 752.004 423.968 752.004 420.096V417.148ZM752.62 417.148H754.952V420.096C754.952 423.968 756.426 427.686 759.792 429.182L758.054 431.514C754.226 429.666 752.62 425.178 752.62 420.096V417.148ZM761.464 415.564H764.368V436.002H761.464V415.564ZM769.8 421.086H783.924V423.396H769.8V421.086ZM767.512 425.508H785.97V427.84H767.512V425.508ZM769.8 416.312H772.704V422.23H769.8V416.312ZM769.602 433.186H784.034V435.518H769.602V433.186ZM769.602 429.468H772.528V433.802H769.602V429.468ZM288.226 444.148H290.602V447.118C290.602 452.354 288.798 457.084 284.75 458.954L283.012 456.534C286.554 454.994 288.226 451.078 288.226 447.118V444.148ZM288.798 444.148H291.174V447.118C291.174 450.88 292.78 454.62 296.256 456.116L294.54 458.47C290.602 456.666 288.798 452.134 288.798 447.118V444.148ZM297.224 442.564H300.172V463.002H297.224V442.564ZM316.604 442.586H319.53V454.4H316.604V442.586ZM318.716 447.316H322.236V449.736H318.716V447.316ZM310.752 443.73H313.854C313.854 449.164 310.466 452.838 304.416 454.4L303.228 452.156C308.244 450.88 310.752 448.262 310.752 445.182V443.73ZM304.24 443.73H312.512V446.04H304.24V443.73ZM305.934 455.258H319.53V462.958H316.604V457.568H305.934V455.258ZM328.263 444.852H330.661V446.128C330.661 450.022 328.835 453.52 324.897 454.818L323.445 452.508C326.833 451.386 328.263 448.724 328.263 446.128V444.852ZM328.857 444.852H331.233V446.128C331.233 448.504 332.597 450.836 335.875 451.826L334.489 454.114C330.617 452.948 328.857 449.758 328.857 446.128V444.852ZM324.215 443.95H335.215V446.282H324.215V443.95ZM336.843 442.586H339.769V454.664H336.843V442.586ZM338.955 447.272H342.475V449.67H338.955V447.272ZM333.125 455.038C337.349 455.038 340.011 456.512 340.011 458.998C340.011 461.484 337.349 462.958 333.125 462.958C328.879 462.958 326.217 461.484 326.217 458.998C326.217 456.512 328.879 455.038 333.125 455.038ZM333.125 457.326C330.529 457.326 329.121 457.854 329.121 458.998C329.121 460.142 330.529 460.714 333.125 460.714C335.721 460.714 337.107 460.142 337.107 458.998C337.107 457.854 335.721 457.326 333.125 457.326ZM348.545 444.016C351.251 444.016 352.989 446.81 352.989 451.408C352.989 456.028 351.251 458.822 348.545 458.822C345.861 458.822 344.145 456.028 344.145 451.408C344.145 446.81 345.861 444.016 348.545 444.016ZM348.545 446.766C347.445 446.766 346.807 448.306 346.807 451.408C346.807 454.532 347.445 456.05 348.545 456.05C349.667 456.05 350.305 454.532 350.305 451.408C350.305 448.306 349.667 446.766 348.545 446.766ZM358.687 442.586H361.481V462.958H358.687V442.586ZM356.245 450.352H359.611V452.706H356.245V450.352ZM354.221 442.894H356.971V462.034H354.221V442.894ZM378.199 442.608H381.147V457.238H378.199V442.608ZM367.573 460.274H381.653V462.606H367.573V460.274ZM367.573 455.764H370.499V461.22H367.573V455.764ZM370.059 443.884C373.183 443.884 375.581 446.04 375.581 449.054C375.581 452.046 373.183 454.224 370.059 454.224C366.935 454.224 364.515 452.046 364.515 449.054C364.515 446.04 366.935 443.884 370.059 443.884ZM370.059 446.414C368.541 446.414 367.375 447.382 367.375 449.054C367.375 450.704 368.541 451.672 370.059 451.672C371.555 451.672 372.721 450.704 372.721 449.054C372.721 447.382 371.555 446.414 370.059 446.414ZM392.585 450.088H395.929V452.442H392.585V450.088ZM399.163 442.586H401.957V462.958H399.163V442.586ZM395.005 442.894H397.755V462.034H395.005V442.894ZM389.021 444.016C391.727 444.016 393.465 446.81 393.465 451.408C393.465 456.028 391.727 458.822 389.021 458.822C386.337 458.822 384.621 456.028 384.621 451.408C384.621 446.81 386.337 444.016 389.021 444.016ZM389.021 446.766C387.921 446.766 387.283 448.306 387.283 451.408C387.283 454.532 387.921 456.05 389.021 456.05C390.165 456.05 390.803 454.532 390.803 451.408C390.803 448.306 390.165 446.766 389.021 446.766ZM419.446 442.586H422.24V462.958H419.446V442.586ZM411.372 450.396H415.728V452.706H411.372V450.396ZM415.156 443.026H417.884V462.056H415.156V443.026ZM410.712 444.984H413.528C413.528 450.792 411.79 455.412 406.07 458.734L404.42 456.688C409.062 453.894 410.712 450.506 410.712 445.578V444.984ZM405.564 444.984H411.636V447.316H405.564V444.984ZM434.546 444.676H436.944V445.952C436.944 449.802 435.118 453.256 431.224 454.51L429.706 452.244C433.116 451.144 434.546 448.504 434.546 445.952V444.676ZM435.14 444.676H437.516V445.952C437.516 448.35 438.902 450.836 442.202 451.892L440.706 454.158C436.9 452.926 435.14 449.604 435.14 445.952V444.676ZM430.498 443.774H441.498V446.106H430.498V443.774ZM443.126 442.586H446.052V454.862H443.126V442.586ZM445.238 447.514H448.758V449.912H445.238V447.514ZM432.456 455.742H446.052V462.958H443.126V458.096H432.456V455.742ZM457.996 453.784H460.922V456.886H457.996V453.784ZM450.252 452.112H468.666V454.422H450.252V452.112ZM451.858 443.136H467.038V445.468H451.858V443.136ZM452.012 448.526H466.884V450.858H452.012V448.526ZM454.454 443.994H457.38V450.044H454.454V443.994ZM461.516 443.994H464.442V450.044H461.516V443.994ZM452.386 456.116H466.466V462.738H452.386V456.116ZM463.606 458.382H455.268V460.428H463.606V458.382ZM479.708 442.872C484.35 442.872 487.078 444.104 487.078 446.348C487.078 448.592 484.35 449.824 479.708 449.824C475.044 449.824 472.338 448.592 472.338 446.348C472.338 444.104 475.044 442.872 479.708 442.872ZM479.708 445.006C476.76 445.006 475.374 445.446 475.374 446.348C475.374 447.294 476.76 447.69 479.708 447.69C482.656 447.69 484.042 447.294 484.042 446.348C484.042 445.446 482.656 445.006 479.708 445.006ZM470.49 450.77H488.904V453.08H470.49V450.77ZM472.602 454.224H486.682V459.46H475.506V461.264H472.624V457.436H483.8V456.402H472.602V454.224ZM472.624 460.626H487.21V462.826H472.624V460.626ZM506.226 445.556H511.242V447.888H506.226V445.556ZM509.944 442.586H512.87V452.926H509.944V442.586ZM499.406 453.784H512.87V459.262H502.332V461.814H499.45V457.15H509.966V456.028H499.406V453.784ZM499.45 460.472H513.442V462.738H499.45V460.472ZM500.484 443.246H502.86V444.698C502.86 448.548 501.056 451.87 497.162 453.102L495.666 450.792C499.054 449.78 500.484 447.294 500.484 444.698V443.246ZM501.056 443.246H503.432V444.698C503.432 447.118 504.796 449.472 508.008 450.44L506.512 452.706C502.794 451.496 501.056 448.35 501.056 444.698V443.246ZM525.915 445.534H531.107V447.844H525.915V445.534ZM525.915 449.604H531.195V451.936H525.915V449.604ZM530.183 442.586H533.109V454.51H530.183V442.586ZM516.895 444.06H526.531V453.41H516.895V444.06ZM523.649 446.37H519.777V451.122H523.649V446.37ZM526.201 455.038C530.513 455.038 533.175 456.512 533.175 458.998C533.175 461.506 530.513 462.958 526.201 462.958C521.889 462.958 519.227 461.506 519.227 458.998C519.227 456.512 521.889 455.038 526.201 455.038ZM526.201 457.282C523.561 457.282 522.153 457.832 522.153 458.998C522.153 460.164 523.561 460.736 526.201 460.736C528.863 460.736 530.271 460.164 530.271 458.998C530.271 457.832 528.863 457.282 526.201 457.282ZM549.365 442.586H552.269V462.958H549.365V442.586ZM551.609 450.528H555.217V452.97H551.609V450.528ZM536.209 445.6H548.067V447.932H536.209V445.6ZM542.171 449.076C545.141 449.076 547.341 451.1 547.341 453.938C547.341 456.776 545.141 458.8 542.171 458.8C539.201 458.8 537.001 456.776 537.001 453.938C537.001 451.1 539.201 449.076 542.171 449.076ZM542.171 451.452C540.785 451.452 539.795 452.376 539.795 453.938C539.795 455.5 540.785 456.424 542.171 456.424C543.557 456.424 544.547 455.5 544.547 453.938C544.547 452.376 543.557 451.452 542.171 451.452ZM540.697 442.916H543.623V446.48H540.697V442.916ZM566.127 447.184H571.715V449.516H566.127V447.184ZM566.127 452.684H571.715V455.038H566.127V452.684ZM557.283 444.368H567.007V458.008H557.283V444.368ZM564.125 446.678H560.165V455.72H564.125V446.678ZM570.725 442.564H573.629V463.002H570.725V442.564ZM592.777 447.844H597.529V450.198H592.777V447.844ZM595.989 442.608H598.915V457.458H595.989V442.608ZM585.473 460.274H599.377V462.606H585.473V460.274ZM585.473 456.204H588.399V461.66H585.473V456.204ZM586.573 445.27H588.949V446.546C588.949 450.374 587.145 453.916 583.229 455.214L581.755 452.882C585.121 451.782 586.573 449.12 586.573 446.546V445.27ZM587.189 445.27H589.543V446.546C589.543 448.922 590.929 451.452 594.141 452.53L592.711 454.818C588.927 453.564 587.189 450.176 587.189 446.546V445.27ZM582.547 443.972H593.503V446.282H582.547V443.972ZM602.808 449.978H604.502C608.748 449.978 611.058 449.846 613.632 449.318L613.94 451.584C611.322 452.178 608.858 452.266 604.502 452.266H602.808V449.978ZM602.808 443.642H611.916V445.93H605.712V451.254H602.808V443.642ZM615.216 442.586H618.142V452.706H615.216V442.586ZM617.328 446.414H620.848V448.79H617.328V446.414ZM604.678 453.542H618.142V459.174H607.626V461.616H604.722V457.018H615.26V455.83H604.678V453.542ZM604.722 460.428H618.736V462.738H604.722V460.428ZM635.41 442.586H638.314V462.958H635.41V442.586ZM637.654 450.528H641.262V452.97H637.654V450.528ZM622.254 445.6H634.112V447.932H622.254V445.6ZM628.216 449.076C631.186 449.076 633.386 451.1 633.386 453.938C633.386 456.776 631.186 458.8 628.216 458.8C625.246 458.8 623.046 456.776 623.046 453.938C623.046 451.1 625.246 449.076 628.216 449.076ZM628.216 451.452C626.83 451.452 625.84 452.376 625.84 453.938C625.84 455.5 626.83 456.424 628.216 456.424C629.602 456.424 630.592 455.5 630.592 453.938C630.592 452.376 629.602 451.452 628.216 451.452ZM626.742 442.916H629.668V446.48H626.742V442.916ZM644.868 448.086H658.992V450.396H644.868V448.086ZM642.58 452.508H661.038V454.84H642.58V452.508ZM644.868 443.312H647.772V449.23H644.868V443.312ZM644.67 460.186H659.102V462.518H644.67V460.186ZM644.67 456.468H647.596V460.802H644.67V456.468ZM682.628 442.586H685.4V462.958H682.628V442.586ZM679.9 450.418H683.288V452.772H679.9V450.418ZM678.074 442.938H680.78V461.99H678.074V442.938ZM668.482 455.962H669.912C672.42 455.962 674.51 455.874 676.93 455.434L677.15 457.81C674.686 458.294 672.53 458.36 669.912 458.36H668.482V455.962ZM668.482 444.94H676.006V447.294H671.386V457.106H668.482V444.94ZM692.857 454.642H695.783V457.942H692.857V454.642ZM701.415 442.586H704.363V462.958H701.415V442.586ZM703.329 450.858H706.915V453.278H703.329V450.858ZM688.281 459.57L687.929 457.216C691.449 457.216 696.289 457.194 700.403 456.622L700.623 458.734C696.333 459.57 691.713 459.57 688.281 459.57ZM688.303 444.83H700.293V447.118H688.303V444.83ZM694.331 447.932C697.235 447.932 699.303 449.472 699.303 451.738C699.303 454.026 697.235 455.566 694.331 455.566C691.405 455.566 689.359 454.026 689.359 451.738C689.359 449.472 691.405 447.932 694.331 447.932ZM694.331 450.132C692.989 450.132 692.131 450.704 692.131 451.738C692.131 452.794 692.989 453.366 694.331 453.366C695.651 453.366 696.531 452.794 696.531 451.738C696.531 450.704 695.651 450.132 694.331 450.132ZM692.857 442.696H695.783V446.546H692.857V442.696ZM719.893 447.052H723.633V449.384H719.893V447.052ZM719.849 451.122H723.567V453.454H719.849V451.122ZM708.453 444.412H719.629V446.722H708.453V444.412ZM714.173 447.426C716.967 447.426 718.947 448.966 718.947 451.232C718.947 453.498 716.967 455.038 714.173 455.038C711.379 455.038 709.399 453.498 709.399 451.232C709.399 448.966 711.379 447.426 714.173 447.426ZM714.173 449.604C712.941 449.604 712.127 450.154 712.127 451.232C712.127 452.31 712.941 452.86 714.173 452.86C715.383 452.86 716.241 452.31 716.241 451.232C716.241 450.154 715.383 449.604 714.173 449.604ZM712.721 442.41H715.647V446.018H712.721V442.41ZM722.511 442.586H725.437V455.566H722.511V442.586ZM718.551 455.808C722.841 455.808 725.525 457.15 725.525 459.394C725.525 461.638 722.841 462.958 718.551 462.958C714.239 462.958 711.577 461.638 711.577 459.394C711.577 457.15 714.239 455.808 718.551 455.808ZM718.551 458.052C716.043 458.052 714.657 458.448 714.657 459.394C714.657 460.318 716.043 460.758 718.551 460.758C721.059 460.758 722.423 460.318 722.423 459.394C722.423 458.448 721.059 458.052 718.551 458.052ZM746.829 442.586H749.755V453.938H746.829V442.586ZM748.941 447.008H752.461V449.406H748.941V447.008ZM740.977 443.752H744.101C744.101 449.164 740.713 452.838 734.641 454.422L733.497 452.112C738.491 450.858 740.977 448.262 740.977 445.204V443.752ZM734.465 443.752H742.737V446.062H734.465V443.752ZM736.533 454.752H749.755V462.738H736.533V454.752ZM746.873 457.062H739.415V460.428H746.873V457.062ZM758.421 443.686H760.819V445.49C760.819 449.538 759.059 453.102 755.187 454.444L753.625 452.134C757.035 450.99 758.421 448.262 758.421 445.49V443.686ZM759.015 443.686H761.391V445.776C761.391 448.218 762.755 450.594 765.945 451.584L764.427 453.85C760.753 452.618 759.015 449.45 759.015 445.776V443.686ZM767.067 442.586H769.993V454.62H767.067V442.586ZM769.179 447.294H772.699V449.714H769.179V447.294ZM763.349 455.082C767.573 455.082 770.235 456.556 770.235 459.02C770.235 461.506 767.573 462.958 763.349 462.958C759.103 462.958 756.441 461.506 756.441 459.02C756.441 456.556 759.103 455.082 763.349 455.082ZM763.349 457.348C760.753 457.348 759.345 457.898 759.345 459.02C759.345 460.164 760.753 460.692 763.349 460.692C765.945 460.692 767.331 460.164 767.331 459.02C767.331 457.898 765.945 457.348 763.349 457.348ZM775.051 443.62H777.955V446.194H781.827V443.62H784.687V453.146H775.051V443.62ZM777.955 448.416V450.814H781.827V448.416H777.955ZM784.027 447.228H788.977V449.582H784.027V447.228ZM788.317 442.586H791.243V453.74H788.317V442.586ZM777.713 454.598H780.617V456.424H788.339V454.598H791.243V462.716H777.713V454.598ZM780.617 458.668V460.384H788.339V458.668H780.617ZM803.65 442.872C808.292 442.872 811.02 444.104 811.02 446.348C811.02 448.592 808.292 449.824 803.65 449.824C798.986 449.824 796.28 448.592 796.28 446.348C796.28 444.104 798.986 442.872 803.65 442.872ZM803.65 445.006C800.702 445.006 799.316 445.446 799.316 446.348C799.316 447.294 800.702 447.69 803.65 447.69C806.598 447.69 807.984 447.294 807.984 446.348C807.984 445.446 806.598 445.006 803.65 445.006ZM794.432 450.77H812.846V453.08H794.432V450.77ZM796.544 454.224H810.624V459.46H799.448V461.264H796.566V457.436H807.742V456.402H796.544V454.224ZM796.566 460.626H811.152V462.826H796.566V460.626ZM828.056 450.308H831.29V452.662H828.056V450.308ZM823.326 448.24H825.526V448.768C825.526 453.014 824.294 457.26 821.038 459.13L819.388 456.93C822.292 455.236 823.326 451.892 823.326 448.768V448.24ZM823.898 448.24H826.098V448.768C826.098 451.848 827.154 454.95 830.036 456.49L828.452 458.646C825.152 456.93 823.898 452.948 823.898 448.768V448.24ZM820.158 445.996H829.244V448.35H820.158V445.996ZM823.326 443.268H826.098V447.91H823.326V443.268ZM834.48 442.586H837.252V462.958H834.48V442.586ZM830.366 442.916H833.094V462.034H830.366V442.916ZM854.124 442.586H857.05V454.884H854.124V442.586ZM851.572 448.548H855.312V450.924H851.572V448.548ZM843.476 455.742H857.05V462.738H843.476V455.742ZM854.19 458.052H846.358V460.428H854.19V458.052ZM840.066 444.346H851.968V446.656H840.066V444.346ZM846.028 447.316C848.866 447.316 850.89 448.834 850.89 450.99C850.89 453.168 848.866 454.642 846.028 454.642C843.19 454.642 841.144 453.168 841.144 450.99C841.144 448.834 843.19 447.316 846.028 447.316ZM846.028 449.494C844.774 449.494 843.938 450 843.938 450.99C843.938 451.98 844.774 452.508 846.028 452.508C847.26 452.508 848.096 451.98 848.096 450.99C848.096 450 847.26 449.494 846.028 449.494ZM844.554 442.41H847.48V445.996H844.554V442.41ZM873.35 442.586H876.276V454.51H873.35V442.586ZM875.11 447.47H878.982V449.89H875.11V447.47ZM863.032 455.302H865.914V456.842H873.372V455.302H876.276V462.738H863.032V455.302ZM865.914 459.042V460.45H873.372V459.042H865.914ZM860.238 444.346H872.228V446.656H860.238V444.346ZM866.244 447.206C869.192 447.206 871.238 448.658 871.238 450.814C871.238 452.97 869.192 454.422 866.244 454.422C863.274 454.422 861.228 452.97 861.228 450.814C861.228 448.658 863.274 447.206 866.244 447.206ZM866.244 449.34C864.924 449.34 864.044 449.868 864.044 450.814C864.044 451.782 864.924 452.288 866.244 452.288C867.542 452.288 868.444 451.782 868.444 450.814C868.444 449.868 867.542 449.34 866.244 449.34ZM864.77 442.432H867.696V445.644H864.77V442.432ZM894.579 442.586H897.505V462.958H894.579V442.586ZM881.555 444.522H884.459V457.172H881.555V444.522ZM881.555 455.456H883.359C886.329 455.456 889.629 455.236 892.995 454.576L893.325 456.996C889.827 457.722 886.461 457.942 883.359 457.942H881.555V455.456ZM913.739 442.564H916.687V463.002H913.739V442.564ZM916.027 450.11H919.635V452.508H916.027V450.11ZM901.507 455.676H903.223C906.655 455.676 909.361 455.566 912.353 455.038L912.639 457.458C909.559 458.008 906.765 458.096 903.223 458.096H901.507V455.676ZM901.507 444.456H911.011V446.81H904.411V456.842H901.507V444.456ZM923.347 461.203C922.831 461.203 922.388 461.021 922.019 460.656C921.654 460.286 921.472 459.844 921.472 459.328C921.472 458.818 921.654 458.38 922.019 458.016C922.388 457.651 922.831 457.469 923.347 457.469C923.847 457.469 924.284 457.651 924.659 458.016C925.034 458.38 925.222 458.818 925.222 459.328C925.222 459.672 925.133 459.987 924.956 460.273C924.784 460.555 924.558 460.781 924.276 460.953C923.995 461.12 923.685 461.203 923.347 461.203Z" fill="black"/>
<path d="M408.281 525V541H406.344V527.031H406.25L402.344 529.625V527.656L406.344 525H408.281ZM422.865 528.306H427.881V529.802H422.865V528.306ZM426.847 522.85H428.673V537.414H426.847V522.85ZM415.979 540.78H429.223V542.276H415.979V540.78ZM415.979 536.138H417.805V541.55H415.979V536.138ZM417.387 525.314H418.883V526.92C418.883 530.528 416.639 533.652 413.317 534.884L412.371 533.432C415.341 532.376 417.387 529.736 417.387 526.92V525.314ZM417.739 525.314H419.213V526.898C419.213 529.472 421.149 531.98 424.031 532.992L423.107 534.422C419.873 533.256 417.739 530.264 417.739 526.898V525.314ZM412.943 524.456H423.569V525.93H412.943V524.456ZM437.801 524.544H439.297V528.108C439.297 532.684 436.833 536.93 433.577 538.58L432.455 537.084C435.403 535.676 437.801 531.87 437.801 528.108V524.544ZM438.109 524.544H439.605V528.108C439.605 531.738 441.981 535.39 444.929 536.754L443.829 538.206C440.595 536.622 438.109 532.53 438.109 528.108V524.544ZM446.997 522.806H448.823V542.738H446.997V522.806ZM453.859 524.368H462.659V525.864H453.859V524.368ZM456.851 528.812H458.655V533.784H456.851V528.812ZM461.933 524.368H463.737V525.424C463.737 526.722 463.737 528.702 463.209 531.32L461.427 531.122C461.933 528.504 461.933 526.7 461.933 525.424V524.368ZM466.443 522.828H468.269V537.81H466.443V522.828ZM467.433 529.296H471.107V530.814H467.433V529.296ZM455.707 540.78H468.907V542.276H455.707V540.78ZM455.707 536.424H457.511V541.242H455.707V536.424ZM452.847 534.642L452.649 533.146C456.191 533.146 461.075 533.058 465.101 532.508L465.233 533.828C461.097 534.554 456.345 534.642 452.847 534.642ZM493.793 522.806H495.597V542.738H493.793V522.806ZM488.535 530.198H494.321V531.694H488.535V530.198ZM480.021 524.39H481.825V529.56H487.347V524.39H489.151V537.744H480.021V524.39ZM481.825 531.012V536.226H487.347V531.012H481.825ZM499.445 533.828H517.419V535.324H499.445V533.828ZM501.755 540.78H515.549V542.276H501.755V540.78ZM501.755 536.776H503.581V541.352H501.755V536.776ZM501.821 530.572H515.307V532.002H501.821V530.572ZM501.821 523.554H515.219V525.006H503.625V531.122H501.821V523.554ZM503.097 527.052H514.691V528.438H503.097V527.052ZM528.681 523.158C533.059 523.158 535.677 524.39 535.677 526.612C535.677 528.834 533.059 530.066 528.681 530.066C524.281 530.066 521.685 528.834 521.685 526.612C521.685 524.39 524.281 523.158 528.681 523.158ZM528.681 524.544C525.425 524.544 523.555 525.292 523.555 526.612C523.555 527.932 525.425 528.68 528.681 528.68C531.915 528.68 533.785 527.932 533.785 526.612C533.785 525.292 531.915 524.544 528.681 524.544ZM519.683 531.386H537.657V532.86H519.683V531.386ZM521.861 534.554H535.369V539.042H523.709V541.462H521.905V537.722H533.565V535.962H521.861V534.554ZM521.905 541.066H535.963V542.496H521.905V541.066ZM554.183 531.54H555.987V535.104H554.183V531.54ZM548.551 527.558H562.037V529.054H548.551V527.558ZM546.109 530.77H564.149V532.244H546.109V530.77ZM548.551 523.114H550.333V528.24H548.551V523.114ZM548.353 534.334H561.861V538.932H550.201V541.572H548.397V537.59H560.035V535.764H548.353V534.334ZM548.397 541.066H562.521V542.496H548.397V541.066ZM580.89 522.806H582.716V542.738H580.89V522.806ZM577.106 530.462H581.33V531.958H577.106V530.462ZM567.096 536.446H568.614C572.134 536.446 574.62 536.336 577.546 535.808L577.722 537.326C574.73 537.854 572.2 537.986 568.614 537.986H567.096V536.446ZM567.052 524.676H575.94V531.65H568.9V536.908H567.096V530.154H574.136V526.172H567.052V524.676ZM593.633 525H595.945L601.383 538.281H601.57L607.008 525H609.32V541H607.508V528.844H607.352L602.352 541H600.602L595.602 528.844H595.445V541H593.633V525ZM626.705 533C626.705 534.687 626.4 536.146 625.791 537.375C625.182 538.604 624.346 539.552 623.283 540.219C622.221 540.885 621.007 541.219 619.643 541.219C618.278 541.219 617.064 540.885 616.002 540.219C614.939 539.552 614.104 538.604 613.494 537.375C612.885 536.146 612.58 534.687 612.58 533C612.58 531.312 612.885 529.854 613.494 528.625C614.104 527.396 614.939 526.448 616.002 525.781C617.064 525.115 618.278 524.781 619.643 524.781C621.007 524.781 622.221 525.115 623.283 525.781C624.346 526.448 625.182 527.396 625.791 528.625C626.4 529.854 626.705 531.312 626.705 533ZM624.83 533C624.83 531.615 624.598 530.445 624.135 529.492C623.676 528.539 623.054 527.818 622.268 527.328C621.486 526.839 620.611 526.594 619.643 526.594C618.674 526.594 617.796 526.839 617.01 527.328C616.229 527.818 615.606 528.539 615.143 529.492C614.684 530.445 614.455 531.615 614.455 533C614.455 534.385 614.684 535.555 615.143 536.508C615.606 537.461 616.229 538.182 617.01 538.672C617.796 539.161 618.674 539.406 619.643 539.406C620.611 539.406 621.486 539.161 622.268 538.672C623.054 538.182 623.676 537.461 624.135 536.508C624.598 535.555 624.83 534.385 624.83 533ZM629.963 525H632.275L637.713 538.281H637.9L643.338 525H645.65V541H643.838V528.844H643.682L638.682 541H636.932L631.932 528.844H631.775V541H629.963V525ZM651.473 525V541H649.535V525H651.473ZM654.498 532.068H672.538V533.454H654.498V532.068ZM656.632 535.06H670.272V539.306H658.502V541.638H656.698V538.052H668.49V536.358H656.632V535.06ZM656.698 541.154H670.91V542.474H656.698V541.154ZM656.786 523.4H670.206V527.536H658.634V529.692H656.83V526.304H668.424V524.698H656.786V523.4ZM656.83 529.252H670.58V530.572H656.83V529.252ZM682.002 524.368H690.802V525.864H682.002V524.368ZM684.994 528.812H686.798V533.784H684.994V528.812ZM690.076 524.368H691.88V525.424C691.88 526.722 691.88 528.702 691.352 531.32L689.57 531.122C690.076 528.504 690.076 526.7 690.076 525.424V524.368ZM694.586 522.828H696.412V537.81H694.586V522.828ZM695.576 529.296H699.25V530.814H695.576V529.296ZM683.85 540.78H697.05V542.276H683.85V540.78ZM683.85 536.424H685.654V541.242H683.85V536.424ZM680.99 534.642L680.792 533.146C684.334 533.146 689.218 533.058 693.244 532.508L693.376 533.828C689.24 534.554 684.488 534.642 680.99 534.642ZM714.78 522.85H716.606V534.686H714.78V522.85ZM716.056 527.91H719.554V529.45H716.056V527.91ZM704.066 535.676H716.606V542.452H704.066V535.676ZM714.824 537.128H705.87V540.978H714.824V537.128ZM702.042 532.156H703.604C707.212 532.156 709.786 532.068 712.888 531.518L713.042 533.014C709.896 533.542 707.278 533.674 703.604 533.674H702.042V532.156ZM701.998 523.906H710.952V529.362H703.824V533.014H702.042V527.954H709.148V525.402H701.998V523.906ZM721.378 526.216H731.234V527.712H721.378V526.216ZM726.306 529.032C728.792 529.032 730.596 530.902 730.596 533.586C730.596 536.248 728.792 538.118 726.306 538.118C723.842 538.118 722.038 536.248 722.038 533.586C722.038 530.902 723.842 529.032 726.306 529.032ZM726.306 530.594C724.788 530.594 723.688 531.826 723.688 533.586C723.688 535.346 724.788 536.578 726.306 536.578C727.846 536.578 728.968 535.346 728.968 533.586C728.968 531.826 727.846 530.594 726.306 530.594ZM736.492 522.828H738.252V542.716H736.492V522.828ZM733.324 531.188H737.086V532.706H733.324V531.188ZM732.246 523.268H733.962V541.748H732.246V523.268ZM725.426 523.4H727.23V527.14H725.426V523.4ZM741.661 538.668H759.679V540.186H741.661V538.668ZM749.713 533.916H751.539V539.108H749.713V533.916ZM743.773 524.236H745.577V527.778H755.719V524.236H757.523V534.4H743.773V524.236ZM745.577 529.252V532.904H755.719V529.252H745.577ZM769.731 529.934H773.537V531.452H769.731V529.934ZM766.013 524.698H767.443V528.482C767.443 532.64 765.705 536.666 762.801 538.448L761.657 537.062C764.385 535.456 766.013 531.892 766.013 528.482V524.698ZM766.365 524.698H767.773V528.416C767.773 531.606 769.269 534.994 771.887 536.578L770.831 538.008C767.971 536.248 766.365 532.288 766.365 528.416V524.698ZM777.035 522.828H778.795V542.716H777.035V522.828ZM773.009 523.246H774.725V541.726H773.009V523.246ZM786.537 533.058H788.341V539.02H786.537V533.058ZM793.885 533.058H795.711V539.02H793.885V533.058ZM782.137 538.668H800.155V540.186H782.137V538.668ZM791.113 524.082C795.315 524.082 798.329 526.084 798.329 529.208C798.329 532.31 795.315 534.312 791.113 534.312C786.889 534.312 783.875 532.31 783.875 529.208C783.875 526.084 786.889 524.082 791.113 524.082ZM791.113 525.534C787.923 525.534 785.635 526.986 785.635 529.208C785.635 531.408 787.923 532.86 791.113 532.86C794.303 532.86 796.569 531.408 796.569 529.208C796.569 526.986 794.303 525.534 791.113 525.534ZM804.307 541.125C803.921 541.125 803.59 540.987 803.314 540.711C803.038 540.435 802.9 540.104 802.9 539.719C802.9 539.333 803.038 539.003 803.314 538.727C803.59 538.451 803.921 538.312 804.307 538.312C804.692 538.312 805.023 538.451 805.299 538.727C805.575 539.003 805.713 539.333 805.713 539.719C805.713 539.974 805.648 540.208 805.518 540.422C805.393 540.635 805.223 540.807 805.01 540.937C804.801 541.063 804.567 541.125 804.307 541.125Z" fill="black"/>
<path d="M467.904 147.174H473.588L479.594 161.837H479.843L485.863 147.174H491.591V169H487.064V154.791H486.903L481.234 168.897H478.173L472.562 154.762H472.372V169H467.904V147.174ZM505.214 169.293C503.28 169.293 501.542 168.854 499.999 167.975C498.456 167.096 497.235 165.821 496.337 164.151C495.438 162.481 494.989 160.465 494.989 158.102C494.989 155.719 495.438 153.692 496.337 152.022C497.235 150.353 498.456 149.078 499.999 148.199C501.542 147.32 503.28 146.881 505.214 146.881C507.147 146.881 508.881 147.32 510.414 148.199C511.957 149.078 513.178 150.353 514.076 152.022C514.975 153.692 515.424 155.719 515.424 158.102C515.424 160.484 514.975 162.511 514.076 164.181C513.178 165.841 511.957 167.11 510.414 167.989C508.881 168.858 507.147 169.293 505.214 169.293ZM499.662 158.102C499.662 160.406 500.165 162.169 501.171 163.39C502.187 164.61 503.534 165.221 505.214 165.221C506.884 165.221 508.222 164.61 509.228 163.39C510.243 162.169 510.751 160.406 510.751 158.102C510.751 155.787 510.243 154.02 509.228 152.799C508.222 151.568 506.884 150.953 505.214 150.953C503.534 150.953 502.187 151.568 501.171 152.799C500.165 154.02 499.662 155.787 499.662 158.102ZM518.852 147.174H524.535L530.541 161.837H530.79L536.811 147.174H542.538V169H538.012V154.791H537.851L532.182 168.897H529.12L523.51 154.762H523.319V169H518.852V147.174ZM550.932 147.174V169H546.332V147.174H550.932ZM557.904 169.278C557.182 169.278 556.571 169.034 556.073 168.546C555.575 168.048 555.326 167.442 555.326 166.729C555.326 166.007 555.575 165.401 556.073 164.913C556.571 164.425 557.182 164.181 557.904 164.181C558.627 164.181 559.237 164.425 559.735 164.913C560.233 165.401 560.482 166.007 560.482 166.729C560.482 167.442 560.233 168.048 559.735 168.546C559.237 169.034 558.627 169.278 557.904 169.278ZM557.904 158.512C557.182 158.512 556.571 158.268 556.073 157.779C555.575 157.281 555.326 156.676 555.326 155.963C555.326 155.24 555.575 154.635 556.073 154.146C556.571 153.658 557.182 153.414 557.904 153.414C558.627 153.414 559.237 153.658 559.735 154.146C560.233 154.635 560.482 155.24 560.482 155.963C560.482 156.676 560.233 157.281 559.735 157.779C559.237 158.268 558.627 158.512 557.904 158.512ZM571.445 165.82H596.015V167.89H571.445V165.82ZM582.425 158.8H584.915V166.39H582.425V158.8ZM574.295 146.47H593.015V159.25H574.295V146.47ZM590.615 148.48H576.725V157.24H590.615V148.48ZM602.403 154.3H620.523V156.34H602.403V154.3ZM599.013 159.85H623.613V161.92H599.013V159.85ZM609.993 160.99H612.453V171.25H609.993V160.99ZM602.403 145.81H620.163V147.85H604.923V155.29H602.403V145.81ZM635.431 146.17C639.661 146.17 642.691 148.78 642.691 152.56C642.691 156.37 639.661 158.98 635.431 158.98C631.201 158.98 628.141 156.37 628.141 152.56C628.141 148.78 631.201 146.17 635.431 146.17ZM635.431 148.33C632.611 148.33 630.571 150.04 630.571 152.56C630.571 155.08 632.611 156.82 635.431 156.82C638.221 156.82 640.261 155.08 640.261 152.56C640.261 150.04 638.221 148.33 635.431 148.33ZM646.231 144.19H648.721V171.37H646.231V144.19ZM627.121 165.43L626.761 163.36C631.711 163.36 638.551 163.33 644.461 162.4L644.671 164.23C638.581 165.4 631.951 165.43 627.121 165.43ZM662.741 146.86H675.221V164.53H662.741V146.86ZM672.791 148.87H665.171V162.52H672.791V148.87ZM680.891 144.19H683.381V171.37H680.891V144.19ZM699.789 144.34H701.889V145.33C701.889 149.95 696.609 153.04 690.969 153.76L690.129 151.84C695.049 151.3 699.789 148.69 699.789 145.33V144.34ZM700.209 144.34H702.309V145.33C702.309 148.69 707.049 151.3 711.969 151.84L711.099 153.76C705.489 153.04 700.209 149.95 700.209 145.33V144.34ZM699.789 157H702.249V161.14H699.789V157ZM688.779 155.53H713.289V157.54H688.779V155.53ZM691.749 160.21H710.169V166.39H694.269V169.66H691.809V164.59H707.709V162.13H691.749V160.21ZM691.809 169.09H710.979V171.04H691.809V169.09ZM717.846 146.32H729.846V148.36H717.846V146.32ZM721.926 152.38H724.386V159.16H721.926V152.38ZM728.856 146.32H731.316V147.76C731.316 149.53 731.316 152.23 730.596 155.8L728.166 155.53C728.856 151.96 728.856 149.5 728.856 147.76V146.32ZM735.006 144.22H737.496V164.65H735.006V144.22ZM736.356 153.04H741.366V155.11H736.356V153.04ZM720.366 168.7H738.366V170.74H720.366V168.7ZM720.366 162.76H722.826V169.33H720.366V162.76ZM716.466 160.33L716.196 158.29C721.026 158.29 727.686 158.17 733.176 157.42L733.356 159.22C727.716 160.21 721.236 160.33 716.466 160.33Z" fill="black"/>
<path fill-rule="evenodd" clip-rule="evenodd" d="M469 129C459.611 129 452 136.611 452 146V172C452 181.389 459.611 189 469 189H740C749.389 189 757 181.389 757 172V146C757 136.611 749.389 129 740 129H469ZM474.865 132.692C465.477 132.692 457.865 140.303 457.865 149.692V167.385C457.865 176.773 465.477 184.385 474.865 184.385H736.09C745.479 184.385 753.09 176.773 753.09 167.385V149.692C753.09 140.303 745.479 132.692 736.09 132.692H474.865Z" fill="#FFE882"/>
<ellipse cx="604.5" cy="63" rx="14.5" ry="14" fill="#FFE882"/>
<defs>
<filter id="filter0_d_68_289" x="515" y="0" width="179.629" height="109.989" filterUnits="userSpaceOnUse" color-interpolation-filters="sRGB">
<feFlood flood-opacity="0" result="BackgroundImageFix"/>
<feColorMatrix in="SourceAlpha" type="matrix" values="0 0 0 0 0 0 0 0 0 0 0 0 0 0 0 0 0 0 127 0" result="hardAlpha"/>
<feOffset dy="4"/>
<feGaussianBlur stdDeviation="2"/>
<feComposite in2="hardAlpha" operator="out"/>
<feColorMatrix type="matrix" values="0 0 0 0 0 0 0 0 0 0 0 0 0 0 0 0 0 0 0.25 0"/>
<feBlend mode="normal" in2="BackgroundImageFix" result="effect1_dropShadow_68_289"/>
<feBlend mode="normal" in="SourceGraphic" in2="effect1_dropShadow_68_289" result="shape"/>
</filter>
<filter id="filter1_d_68_289" x="515" y="52.7866" width="179.629" height="57.2021" filterUnits="userSpaceOnUse" color-interpolation-filters="sRGB">
<feFlood flood-opacity="0" result="BackgroundImageFix"/>
<feColorMatrix in="SourceAlpha" type="matrix" values="0 0 0 0 0 0 0 0 0 0 0 0 0 0 0 0 0 0 127 0" result="hardAlpha"/>
<feOffset dy="4"/>
<feGaussianBlur stdDeviation="2"/>
<feComposite in2="hardAlpha" operator="out"/>
<feColorMatrix type="matrix" values="0 0 0 0 0 0 0 0 0 0 0 0 0 0 0 0 0 0 0.25 0"/>
<feBlend mode="normal" in2="BackgroundImageFix" result="effect1_dropShadow_68_289"/>
<feBlend mode="normal" in="SourceGraphic" in2="effect1_dropShadow_68_289" result="shape"/>
</filter>
</defs>
</svg>
