<svg width="1209" height="693" viewBox="0 0 1209 693" fill="none" xmlns="http://www.w3.org/2000/svg">
<rect x="29" y="15" width="1151" height="678" fill="#EA8585"/>
<line x1="31" y1="62.5" x2="1180" y2="62.5" stroke="#FFE882" stroke-width="5"/>
<line x1="31" y1="642.5" x2="1180" y2="642.5" stroke="#FFE882" stroke-width="5"/>
<g filter="url(#filter0_d_95_278)">
<path fill-rule="evenodd" clip-rule="evenodd" d="M562.077 62.4565C582.486 73.8253 602.466 70.5794 606.703 55.2067C610.94 39.834 597.83 18.1557 577.422 6.78699C557.013 -4.58174 537.033 -1.33586 532.796 14.0369C528.558 29.4096 541.668 51.0878 562.077 62.4565ZM571.302 58.075C585.355 65.9028 599.111 63.6679 602.029 53.0832C604.947 42.4986 595.92 27.5723 581.868 19.7445C567.815 11.9168 554.059 14.1517 551.141 24.7363C548.224 35.321 557.25 50.2473 571.302 58.075Z" fill="#FFE882"/>
<path fill-rule="evenodd" clip-rule="evenodd" d="M646.923 62.4565C626.514 73.8253 606.534 70.5794 602.297 55.2067C598.06 39.834 611.17 18.1557 631.578 6.78699C651.987 -4.58174 671.967 -1.33586 676.204 14.0369C680.442 29.4096 667.332 51.0878 646.923 62.4565ZM637.698 58.075C623.645 65.9028 609.889 63.6679 606.971 53.0832C604.053 42.4986 613.08 27.5723 627.132 19.7445C641.185 11.9168 654.941 14.1517 657.859 24.7363C660.776 35.321 651.75 50.2473 637.698 58.075Z" fill="#FFE882"/>
<ellipse cx="604.5" cy="62.7832" rx="14.5" ry="14" fill="#FFE882"/>
<g filter="url(#filter1_d_95_278)">
<path d="M594.453 67.2474C594.453 67.2474 618.331 71.4379 638.461 83.7804C660.954 97.5719 681.798 101.989 681.798 101.989L690.629 79.9082C690.629 79.9082 666.367 84.0277 643.876 70.2409C623.741 57.8979 600.237 52.7868 600.237 52.7868L594.453 67.2474Z" fill="#FFE882"/>
<path d="M615.176 67.2474C615.176 67.2474 591.298 71.4379 571.168 83.7804C548.675 97.5719 527.831 101.989 527.831 101.989L519 79.9082C519 79.9082 543.262 84.0277 565.753 70.2409C585.888 57.8979 609.392 52.7868 609.392 52.7868L615.176 67.2474Z" fill="#FFE882"/>
</g>
</g>
<rect x="98" y="111" width="1012" height="496" fill="#FFFCF1"/>
<path d="M384.214 234.668H402.232V236.186H384.214V234.668ZM392.266 229.52H394.092V235.086H392.266V229.52ZM386.304 220.478H400.032V229.85H386.304V220.478ZM398.272 221.952H388.086V228.376H398.272V221.952ZM406.917 226.22H420.205V227.716H406.917V226.22ZM404.431 230.29H422.471V231.808H404.431V230.29ZM412.483 231.126H414.287V238.65H412.483V231.126ZM406.917 219.994H419.941V221.49H408.765V226.946H406.917V219.994ZM431.137 220.258C434.239 220.258 436.461 222.172 436.461 224.944C436.461 227.738 434.239 229.652 431.137 229.652C428.035 229.652 425.791 227.738 425.791 224.944C425.791 222.172 428.035 220.258 431.137 220.258ZM431.137 221.842C429.069 221.842 427.573 223.096 427.573 224.944C427.573 226.792 429.069 228.068 431.137 228.068C433.183 228.068 434.679 226.792 434.679 224.944C434.679 223.096 433.183 221.842 431.137 221.842ZM439.057 218.806H440.883V238.738H439.057V218.806ZM425.043 234.382L424.779 232.864C428.409 232.864 433.425 232.842 437.759 232.16L437.913 233.502C433.447 234.36 428.585 234.382 425.043 234.382ZM452.239 220.764H461.391V233.722H452.239V220.764ZM459.609 222.238H454.021V232.248H459.609V222.238ZM465.549 218.806H467.375V238.738H465.549V218.806ZM479.407 218.916H480.947V219.642C480.947 223.03 477.075 225.296 472.939 225.824L472.323 224.416C475.931 224.02 479.407 222.106 479.407 219.642V218.916ZM479.715 218.916H481.255V219.642C481.255 222.106 484.731 224.02 488.339 224.416L487.701 225.824C483.587 225.296 479.715 223.03 479.715 219.642V218.916ZM479.407 228.2H481.211V231.236H479.407V228.2ZM471.333 227.122H489.307V228.596H471.333V227.122ZM473.511 230.554H487.019V235.086H475.359V237.484H473.555V233.766H485.215V231.962H473.511V230.554ZM473.555 237.066H487.613V238.496H473.555V237.066ZM492.649 220.368H501.449V221.864H492.649V220.368ZM495.641 224.812H497.445V229.784H495.641V224.812ZM500.723 220.368H502.527V221.424C502.527 222.722 502.527 224.702 501.999 227.32L500.217 227.122C500.723 224.504 500.723 222.7 500.723 221.424V220.368ZM505.233 218.828H507.059V233.81H505.233V218.828ZM506.223 225.296H509.897V226.814H506.223V225.296ZM494.497 236.78H507.697V238.276H494.497V236.78ZM494.497 232.424H496.301V237.242H494.497V232.424ZM491.637 230.642L491.439 229.146C494.981 229.146 499.865 229.058 503.891 228.508L504.023 229.828C499.887 230.554 495.135 230.642 491.637 230.642ZM518.856 221H521.169L526.606 234.281H526.794L532.231 221H534.544V237H532.731V224.844H532.575L527.575 237H525.825L520.825 224.844H520.669V237H518.856V221ZM551.929 229C551.929 230.687 551.624 232.146 551.015 233.375C550.405 234.604 549.569 235.552 548.507 236.219C547.444 236.885 546.231 237.219 544.866 237.219C543.502 237.219 542.288 236.885 541.226 236.219C540.163 235.552 539.327 234.604 538.718 233.375C538.108 232.146 537.804 230.687 537.804 229C537.804 227.312 538.108 225.854 538.718 224.625C539.327 223.396 540.163 222.448 541.226 221.781C542.288 221.115 543.502 220.781 544.866 220.781C546.231 220.781 547.444 221.115 548.507 221.781C549.569 222.448 550.405 223.396 551.015 224.625C551.624 225.854 551.929 227.312 551.929 229ZM550.054 229C550.054 227.615 549.822 226.445 549.358 225.492C548.9 224.539 548.278 223.818 547.491 223.328C546.71 222.839 545.835 222.594 544.866 222.594C543.897 222.594 543.02 222.839 542.233 223.328C541.452 223.818 540.83 224.539 540.366 225.492C539.908 226.445 539.679 227.615 539.679 229C539.679 230.385 539.908 231.555 540.366 232.508C540.83 233.461 541.452 234.182 542.233 234.672C543.02 235.161 543.897 235.406 544.866 235.406C545.835 235.406 546.71 235.161 547.491 234.672C548.278 234.182 548.9 233.461 549.358 232.508C549.822 231.555 550.054 230.385 550.054 229ZM555.187 221H557.499L562.937 234.281H563.124L568.562 221H570.874V237H569.062V224.844H568.905L563.905 237H562.155L557.155 224.844H556.999V237H555.187V221ZM576.696 221V237H574.759V221H576.696ZM587.796 226.55H591.558V228.068H587.796V226.55ZM594.88 218.828H596.64V238.716H594.88V218.828ZM590.942 219.246H592.68V237.726H590.942V219.246ZM584.21 220.478C586.784 220.478 588.456 223.14 588.456 227.408C588.456 231.676 586.784 234.338 584.21 234.338C581.636 234.338 579.986 231.676 579.986 227.408C579.986 223.14 581.636 220.478 584.21 220.478ZM584.21 222.172C582.648 222.172 581.658 224.196 581.658 227.408C581.658 230.62 582.648 232.644 584.21 232.644C585.794 232.644 586.784 230.62 586.784 227.408C586.784 224.196 585.794 222.172 584.21 222.172ZM614.221 230.07H616.047V235.02H614.221V230.07ZM615.145 220.126C619.347 220.126 622.361 222.172 622.361 225.34C622.361 228.508 619.347 230.554 615.145 230.554C610.943 230.554 607.907 228.508 607.907 225.34C607.907 222.172 610.943 220.126 615.145 220.126ZM615.145 221.578C611.977 221.578 609.667 223.074 609.667 225.34C609.667 227.606 611.977 229.102 615.145 229.102C618.291 229.102 620.601 227.606 620.601 225.34C620.601 223.074 618.291 221.578 615.145 221.578ZM606.169 234.668H624.187V236.186H606.169V234.668ZM640.862 218.85H642.71V233.414H640.862V218.85ZM629.928 236.78H643.304V238.276H629.928V236.78ZM629.928 232.072H631.732V237.484H629.928V232.072ZM631.578 219.928H633.096V221.952C633.096 225.824 630.896 229.212 627.552 230.576L626.606 229.102C629.598 227.936 631.578 225.032 631.578 221.952V219.928ZM631.908 219.928H633.404V221.952C633.404 224.944 635.406 227.65 638.376 228.728L637.408 230.202C634.108 228.926 631.908 225.736 631.908 221.952V219.928ZM661.787 223.25H667.793V224.768H661.787V223.25ZM661.787 229.542H667.793V231.06H661.787V229.542ZM658.135 220.346C661.017 220.346 663.085 223.052 663.085 227.276C663.085 231.522 661.017 234.228 658.135 234.228C655.231 234.228 653.185 231.522 653.185 227.276C653.185 223.052 655.231 220.346 658.135 220.346ZM658.135 221.996C656.221 221.996 654.901 224.064 654.901 227.276C654.901 230.51 656.221 232.622 658.135 232.622C660.049 232.622 661.369 230.51 661.369 227.276C661.369 224.064 660.049 221.996 658.135 221.996ZM667.397 218.806H669.201V238.738H667.397V218.806ZM687.592 218.806H689.418V238.738H687.592V218.806ZM683.808 226.462H688.032V227.958H683.808V226.462ZM673.798 232.446H675.316C678.836 232.446 681.322 232.336 684.248 231.808L684.424 233.326C681.432 233.854 678.902 233.986 675.316 233.986H673.798V232.446ZM673.754 220.676H682.642V227.65H675.602V232.908H673.798V226.154H680.838V222.172H673.754V220.676ZM693.288 229.322H711.306V230.818H693.288V229.322ZM701.516 230.07H703.342V234.646H701.516V230.07ZM695.576 236.78H709.304V238.276H695.576V236.78ZM695.576 232.886H697.38V237.352H695.576V232.886ZM695.686 219.444H697.49V221.974H707.104V219.444H708.93V227.408H695.686V219.444ZM697.49 223.404V225.934H707.104V223.404H697.49ZM733.31 218.828H735.136V234.404H733.31V218.828ZM734.366 225.758H738.04V227.276H734.366V225.758ZM722.552 236.78H735.84V238.276H722.552V236.78ZM722.552 233.37H724.378V237.242H722.552V233.37ZM724.928 228.552H726.754V231.258H724.928V228.552ZM719.846 232.116L719.604 230.642C723.124 230.642 728.03 230.576 732.122 229.938L732.276 231.236C728.074 232.006 723.3 232.094 719.846 232.116ZM720.11 220.764H731.528V222.15H720.11V220.764ZM725.83 222.964C728.624 222.964 730.45 224.13 730.45 226.022C730.45 227.936 728.624 229.102 725.83 229.102C723.036 229.102 721.188 227.936 721.188 226.022C721.188 224.13 723.036 222.964 725.83 222.964ZM725.83 224.262C724.048 224.262 722.904 224.944 722.904 226.022C722.904 227.122 724.048 227.782 725.83 227.782C727.59 227.782 728.734 227.122 728.734 226.022C728.734 224.944 727.59 224.262 725.83 224.262ZM724.928 218.74H726.754V221.38H724.928V218.74ZM749.016 221.688H755.088V223.184H749.016V221.688ZM749.016 226.264H755.088V227.782H749.016V226.264ZM745.386 219.994C748.312 219.994 750.512 221.974 750.512 224.724C750.512 227.496 748.312 229.454 745.386 229.454C742.438 229.454 740.26 227.496 740.26 224.724C740.26 221.974 742.438 219.994 745.386 219.994ZM745.386 221.556C743.45 221.556 742.02 222.854 742.02 224.724C742.02 226.594 743.45 227.892 745.386 227.892C747.322 227.892 748.774 226.594 748.774 224.724C748.774 222.854 747.322 221.556 745.386 221.556ZM754.494 218.828H756.32V230.598H754.494V218.828ZM749.786 231.06C753.878 231.06 756.408 232.468 756.408 234.866C756.408 237.286 753.878 238.672 749.786 238.672C745.672 238.672 743.142 237.286 743.142 234.866C743.142 232.468 745.672 231.06 749.786 231.06ZM749.786 232.512C746.772 232.512 744.946 233.392 744.946 234.866C744.946 236.362 746.772 237.242 749.786 237.242C752.778 237.242 754.604 236.362 754.604 234.866C754.604 233.392 752.778 232.512 749.786 232.512ZM773.808 218.828H775.634V230.378H773.808V218.828ZM774.842 223.888H778.582V225.428H774.842V223.888ZM763.138 231.258H764.92V233.37H773.83V231.258H775.634V238.452H763.138V231.258ZM764.92 234.778V236.978H773.83V234.778H764.92ZM760.256 220.852H772.004V222.348H760.256V220.852ZM766.13 223.25C768.968 223.25 770.882 224.636 770.882 226.748C770.882 228.86 768.968 230.246 766.13 230.246C763.27 230.246 761.356 228.86 761.356 226.748C761.356 224.636 763.27 223.25 766.13 223.25ZM766.13 224.636C764.304 224.636 763.094 225.472 763.094 226.748C763.094 228.024 764.304 228.86 766.13 228.86C767.912 228.86 769.144 228.024 769.144 226.748C769.144 225.472 767.912 224.636 766.13 224.636ZM765.206 218.63H767.032V221.666H765.206V218.63ZM794.905 218.828H796.731V238.716H794.905V218.828ZM781.705 220.764H783.509V233.084H781.705V220.764ZM781.705 232.006H783.333C786.347 232.006 789.493 231.786 792.859 231.082L793.079 232.644C789.625 233.348 786.479 233.59 783.333 233.59H781.705V232.006ZM814.131 218.806H815.979V238.738H814.131V218.806ZM815.539 226.66H819.235V228.2H815.539V226.66ZM801.525 232.248H803.087C806.761 232.248 809.335 232.116 812.305 231.566L812.503 233.106C809.445 233.678 806.827 233.788 803.087 233.788H801.525V232.248ZM801.525 220.742H810.765V222.238H803.329V232.93H801.525V220.742ZM822.858 237.125C822.473 237.125 822.142 236.987 821.866 236.711C821.59 236.435 821.452 236.104 821.452 235.719C821.452 235.333 821.59 235.003 821.866 234.727C822.142 234.451 822.473 234.312 822.858 234.312C823.244 234.312 823.575 234.451 823.851 234.727C824.127 235.003 824.265 235.333 824.265 235.719C824.265 235.974 824.2 236.208 824.069 236.422C823.944 236.635 823.775 236.807 823.562 236.937C823.353 237.063 823.119 237.125 822.858 237.125ZM217.796 248H220.108L225.546 261.281H225.733L231.171 248H233.483V264H231.671V251.844H231.515L226.515 264H224.765L219.765 251.844H219.608V264H217.796V248ZM250.868 256C250.868 257.687 250.563 259.146 249.954 260.375C249.345 261.604 248.509 262.552 247.446 263.219C246.384 263.885 245.17 264.219 243.806 264.219C242.441 264.219 241.228 263.885 240.165 263.219C239.103 262.552 238.267 261.604 237.657 260.375C237.048 259.146 236.743 257.687 236.743 256C236.743 254.312 237.048 252.854 237.657 251.625C238.267 250.396 239.103 249.448 240.165 248.781C241.228 248.115 242.441 247.781 243.806 247.781C245.17 247.781 246.384 248.115 247.446 248.781C248.509 249.448 249.345 250.396 249.954 251.625C250.563 252.854 250.868 254.312 250.868 256ZM248.993 256C248.993 254.615 248.761 253.445 248.298 252.492C247.84 251.539 247.217 250.818 246.431 250.328C245.649 249.839 244.774 249.594 243.806 249.594C242.837 249.594 241.959 249.839 241.173 250.328C240.392 250.818 239.769 251.539 239.306 252.492C238.847 253.445 238.618 254.615 238.618 256C238.618 257.385 238.847 258.555 239.306 259.508C239.769 260.461 240.392 261.182 241.173 261.672C241.959 262.161 242.837 262.406 243.806 262.406C244.774 262.406 245.649 262.161 246.431 261.672C247.217 261.182 247.84 260.461 248.298 259.508C248.761 258.555 248.993 257.385 248.993 256ZM254.126 248H256.438L261.876 261.281H262.063L267.501 248H269.813V264H268.001V251.844H267.845L262.845 264H261.095L256.095 251.844H255.938V264H254.126V248ZM275.636 248V264H273.698V248H275.636ZM281.103 251.79H294.611V253.286H281.103V251.79ZM278.661 255.948H296.701V257.444H278.661V255.948ZM281.103 246.554H282.907V252.538H281.103V246.554ZM280.971 263.736H294.721V265.232H280.971V263.736ZM280.971 259.424H282.775V264.132H280.971V259.424ZM309.993 247.874H311.489V249.48C311.489 253.132 309.289 256.168 305.967 257.356L304.999 255.926C308.013 254.87 309.993 252.318 309.993 249.48V247.874ZM310.323 247.874H311.819V249.458C311.819 252.098 313.733 254.54 316.659 255.53L315.713 256.96C312.435 255.816 310.323 252.89 310.323 249.458V247.874ZM305.571 247.214H316.197V248.71H305.571V247.214ZM318.705 245.828H320.531V257.796H318.705V245.828ZM320.025 251.064H323.479V252.582H320.025V251.064ZM307.617 258.852H320.531V265.716H318.705V260.37H307.617V258.852ZM333.421 256.388H335.225V259.82H333.421V256.388ZM325.325 255.42H343.299V256.916H325.325V255.42ZM326.997 246.444H341.605V247.94H326.997V246.444ZM327.085 252.098H341.517V253.594H327.085V252.098ZM330.011 247.104H331.837V253.066H330.011V247.104ZM336.787 247.104H338.591V253.066H336.787V247.104ZM327.525 259.226H341.099V265.452H327.525V259.226ZM339.317 260.678H329.329V263.978H339.317V260.678ZM354.561 246.158C358.939 246.158 361.557 247.39 361.557 249.612C361.557 251.834 358.939 253.066 354.561 253.066C350.161 253.066 347.565 251.834 347.565 249.612C347.565 247.39 350.161 246.158 354.561 246.158ZM354.561 247.544C351.305 247.544 349.435 248.292 349.435 249.612C349.435 250.932 351.305 251.68 354.561 251.68C357.795 251.68 359.665 250.932 359.665 249.612C359.665 248.292 357.795 247.544 354.561 247.544ZM345.563 254.386H363.537V255.86H345.563V254.386ZM347.741 257.554H361.249V262.042H349.589V264.462H347.785V260.722H359.445V258.962H347.741V257.554ZM347.785 264.066H361.843V265.496H347.785V264.066ZM376.169 247.698H377.599V251.482C377.599 255.64 375.839 259.666 372.935 261.426L371.769 260.062C374.519 258.456 376.169 254.892 376.169 251.482V247.698ZM376.499 247.698H377.929V251.372C377.929 254.65 379.469 258.016 382.109 259.49L381.009 260.92C378.105 259.248 376.499 255.376 376.499 251.372V247.698ZM387.147 245.828H388.907V265.716H387.147V245.828ZM384.001 253.814H387.807V255.332H384.001V253.814ZM382.769 246.246H384.507V264.726H382.769V246.246ZM392.227 255.992H410.267V257.488H392.227V255.992ZM400.323 253.594H402.149V256.74H400.323V253.594ZM394.647 258.478H396.451V260.392H406.153V258.478H407.957V265.452H394.647V258.478ZM396.451 261.822V264H406.153V261.822H396.451ZM394.515 246.246H407.935V250.822H396.363V253.44H394.559V249.458H406.153V247.654H394.515V246.246ZM394.559 252.692H408.375V254.122H394.559V252.692ZM427.624 245.828H429.384V265.716H427.624V245.828ZM419 253.946H424.016V255.42H419V253.946ZM423.488 246.334H425.204V264.704H423.488V246.334ZM419.242 248.336H421.002C421.002 253.55 418.912 258.236 413.544 261.426L412.466 260.128C417.152 257.312 419.242 253.352 419.242 248.666V248.336ZM413.346 248.336H419.924V249.832H413.346V248.336ZM452.509 245.828H454.335V257.092H452.509V245.828ZM453.829 250.668H457.283V252.186H453.829V250.668ZM447.009 247.104H448.945C448.945 252.12 445.447 255.728 439.595 257.312L438.891 255.86C444.039 254.452 447.009 251.57 447.009 247.918V247.104ZM439.749 247.104H448.021V248.578H439.749V247.104ZM441.817 258.038H454.335V265.452H441.817V258.038ZM452.531 259.512H443.621V263.956H452.531V259.512ZM463.97 246.862H465.488V248.886C465.488 252.714 463.332 255.882 460.01 257.18L459.042 255.706C462.034 254.606 463.97 251.922 463.97 248.886V246.862ZM464.3 246.862H465.796V249.018C465.796 251.702 467.776 254.188 470.636 255.178L469.668 256.608C466.478 255.42 464.3 252.472 464.3 249.018V246.862ZM472.748 245.828H474.574V257.884H472.748V245.828ZM474.068 250.954H477.522V252.494H474.068V250.954ZM468.238 258.434C472.308 258.434 474.772 259.776 474.772 262.064C474.772 264.352 472.308 265.672 468.238 265.672C464.168 265.672 461.704 264.352 461.704 262.064C461.704 259.776 464.168 258.434 468.238 258.434ZM468.238 259.886C465.29 259.886 463.486 260.678 463.486 262.064C463.486 263.45 465.29 264.242 468.238 264.242C471.186 264.242 472.99 263.45 472.99 262.064C472.99 260.678 471.186 259.886 468.238 259.886ZM492.986 245.762H494.812V256.74H492.986V245.762ZM494.042 250.536H497.76V252.076H494.042V250.536ZM482.184 257.752H494.812V262.196H484.032V264.616H482.228V260.876H493.03V259.138H482.184V257.752ZM482.228 264.088H495.538V265.496H482.228V264.088ZM479.434 247.61H491.182V249.04H479.434V247.61ZM485.308 249.92C488.168 249.92 490.06 251.174 490.06 253.198C490.06 255.2 488.168 256.432 485.308 256.432C482.404 256.432 480.534 255.2 480.534 253.198C480.534 251.174 482.404 249.92 485.308 249.92ZM485.308 251.262C483.46 251.262 482.272 252.01 482.272 253.198C482.272 254.364 483.46 255.112 485.308 255.112C487.134 255.112 488.322 254.364 488.322 253.198C488.322 252.01 487.134 251.262 485.308 251.262ZM484.384 245.608H486.21V248.6H484.384V245.608ZM513.846 246.532H515.452V247.632C515.452 251.438 511.58 254.166 507.444 254.87L506.718 253.396C510.348 252.846 513.846 250.47 513.846 247.632V246.532ZM514.176 246.532H515.76V247.632C515.76 250.404 519.302 252.846 522.888 253.396L522.162 254.87C518.07 254.166 514.176 251.394 514.176 247.632V246.532ZM513.846 258.148H515.65V265.716H513.846V258.148ZM505.816 257.026H523.79V258.544H505.816V257.026ZM537.192 258.06H538.6V259.138C538.6 261.734 536.972 264.352 534.112 265.452L533.188 264.088C535.696 263.186 537.192 261.052 537.192 259.138V258.06ZM537.588 258.06H538.952V259.138C538.952 261.14 540.14 263.274 542.516 264.242L541.746 265.628C538.886 264.506 537.588 261.778 537.588 259.138V258.06ZM544.54 258.06H545.904V259.138C545.904 261.47 544.584 264.418 541.746 265.628L540.976 264.242C543.33 263.164 544.54 260.854 544.54 259.138V258.06ZM544.914 258.06H546.322V259.138C546.322 261.184 547.796 263.23 550.326 264.088L549.402 265.452C546.498 264.396 544.914 261.888 544.914 259.138V258.06ZM546.696 245.85H548.544V257.202H546.696V245.85ZM537.874 246.994C540.888 246.994 543.044 248.886 543.044 251.636C543.044 254.386 540.888 256.256 537.874 256.256C534.86 256.256 532.682 254.386 532.682 251.636C532.682 248.886 534.86 246.994 537.874 246.994ZM537.874 248.512C535.894 248.512 534.464 249.788 534.464 251.636C534.464 253.484 535.894 254.738 537.874 254.738C539.854 254.738 541.284 253.484 541.284 251.636C541.284 249.788 539.854 248.512 537.874 248.512ZM554.9 251.79H568.408V253.286H554.9V251.79ZM552.458 255.948H570.498V257.444H552.458V255.948ZM554.9 246.554H556.704V252.538H554.9V246.554ZM554.768 263.736H568.518V265.232H554.768V263.736ZM554.768 259.424H556.572V264.132H554.768V259.424ZM580.028 247.764H589.18V260.722H580.028V247.764ZM587.398 249.238H581.81V259.248H587.398V249.238ZM593.338 245.806H595.164V265.738H593.338V245.806ZM607.196 245.916H608.736V246.642C608.736 250.03 604.864 252.296 600.728 252.824L600.112 251.416C603.72 251.02 607.196 249.106 607.196 246.642V245.916ZM607.504 245.916H609.044V246.642C609.044 249.106 612.52 251.02 616.128 251.416L615.49 252.824C611.376 252.296 607.504 250.03 607.504 246.642V245.916ZM607.196 255.2H609V258.236H607.196V255.2ZM599.122 254.122H617.096V255.596H599.122V254.122ZM601.3 257.554H614.808V262.086H603.148V264.484H601.344V260.766H613.004V258.962H601.3V257.554ZM601.344 264.066H615.402V265.496H601.344V264.066ZM620.438 247.368H629.238V248.864H620.438V247.368ZM623.43 251.812H625.234V256.784H623.43V251.812ZM628.512 247.368H630.316V248.424C630.316 249.722 630.316 251.702 629.788 254.32L628.006 254.122C628.512 251.504 628.512 249.7 628.512 248.424V247.368ZM633.022 245.828H634.848V260.81H633.022V245.828ZM634.012 252.296H637.686V253.814H634.012V252.296ZM622.286 263.78H635.486V265.276H622.286V263.78ZM622.286 259.424H624.09V264.242H622.286V259.424ZM619.426 257.642L619.228 256.146C622.77 256.146 627.654 256.058 631.68 255.508L631.812 256.828C627.676 257.554 622.924 257.642 619.426 257.642ZM648.597 247.082C652.733 247.082 655.813 249.282 655.813 252.582C655.813 255.904 652.733 258.082 648.597 258.082C644.461 258.082 641.359 255.904 641.359 252.582C641.359 249.282 644.461 247.082 648.597 247.082ZM648.597 248.578C645.451 248.578 643.119 250.184 643.119 252.582C643.119 254.958 645.451 256.586 648.597 256.586C651.743 256.586 654.075 254.958 654.075 252.582C654.075 250.184 651.743 248.578 648.597 248.578ZM639.621 261.558H657.639V263.098H639.621V261.558ZM659.859 261.756H677.877V263.274H659.859V261.756ZM667.911 257.488H669.737V262.394H667.911V257.488ZM662.037 247.302H675.655V253.33H663.907V257.312H662.103V251.856H673.851V248.776H662.037V247.302ZM662.103 256.542H676.117V258.038H662.103V256.542ZM690.019 252.56H695.563V254.056H690.019V252.56ZM685.223 247.544H686.719V251.086C686.719 255.552 684.365 259.82 681.219 261.514L680.053 260.062C682.979 258.61 685.223 254.782 685.223 251.086V247.544ZM685.575 247.544H687.049V251.086C687.049 254.716 689.293 258.324 692.175 259.688L691.097 261.162C687.885 259.534 685.575 255.442 685.575 251.086V247.544ZM694.661 245.806H696.465V265.738H694.661V245.806ZM708.987 253.22H722.275V254.716H708.987V253.22ZM706.501 257.29H724.541V258.808H706.501V257.29ZM714.553 258.126H716.357V265.65H714.553V258.126ZM708.987 246.994H722.011V248.49H710.835V253.946H708.987V246.994ZM743.487 251.306H748.503V252.802H743.487V251.306ZM747.469 245.85H749.295V260.414H747.469V245.85ZM736.601 263.78H749.845V265.276H736.601V263.78ZM736.601 259.138H738.427V264.55H736.601V259.138ZM738.009 248.314H739.505V249.92C739.505 253.528 737.261 256.652 733.939 257.884L732.993 256.432C735.963 255.376 738.009 252.736 738.009 249.92V248.314ZM738.361 248.314H739.835V249.898C739.835 252.472 741.771 254.98 744.653 255.992L743.729 257.422C740.495 256.256 738.361 253.264 738.361 249.898V248.314ZM733.565 247.456H744.191V248.93H733.565V247.456ZM758.423 247.544H759.919V251.108C759.919 255.684 757.455 259.93 754.199 261.58L753.077 260.084C756.025 258.676 758.423 254.87 758.423 251.108V247.544ZM758.731 247.544H760.227V251.108C760.227 254.738 762.603 258.39 765.551 259.754L764.451 261.206C761.217 259.622 758.731 255.53 758.731 251.108V247.544ZM767.619 245.806H769.445V265.738H767.619V245.806ZM774.481 247.368H783.281V248.864H774.481V247.368ZM777.473 251.812H779.277V256.784H777.473V251.812ZM782.555 247.368H784.359V248.424C784.359 249.722 784.359 251.702 783.831 254.32L782.049 254.122C782.555 251.504 782.555 249.7 782.555 248.424V247.368ZM787.065 245.828H788.891V260.81H787.065V245.828ZM788.055 252.296H791.729V253.814H788.055V252.296ZM776.329 263.78H789.529V265.276H776.329V263.78ZM776.329 259.424H778.133V264.242H776.329V259.424ZM773.469 257.642L773.271 256.146C776.813 256.146 781.697 256.058 785.723 255.508L785.855 256.828C781.719 257.554 776.967 257.642 773.469 257.642ZM802.639 247.082C806.775 247.082 809.855 249.282 809.855 252.582C809.855 255.904 806.775 258.082 802.639 258.082C798.503 258.082 795.401 255.904 795.401 252.582C795.401 249.282 798.503 247.082 802.639 247.082ZM802.639 248.578C799.493 248.578 797.161 250.184 797.161 252.582C797.161 254.958 799.493 256.586 802.639 256.586C805.785 256.586 808.117 254.958 808.117 252.582C808.117 250.184 805.785 248.578 802.639 248.578ZM793.663 261.558H811.681V263.098H793.663V261.558ZM813.902 261.756H831.92V263.274H813.902V261.756ZM821.954 257.488H823.78V262.394H821.954V257.488ZM816.08 247.302H829.698V253.33H817.95V257.312H816.146V251.856H827.894V248.776H816.08V247.302ZM816.146 256.542H830.16V258.038H816.146V256.542ZM854.76 245.806H856.586V265.738H854.76V245.806ZM846.092 247.346C849.04 247.346 851.152 250.052 851.152 254.276C851.152 258.522 849.04 261.228 846.092 261.228C843.166 261.228 841.054 258.522 841.054 254.276C841.054 250.052 843.166 247.346 846.092 247.346ZM846.092 248.996C844.156 248.996 842.792 251.064 842.792 254.276C842.792 257.51 844.156 259.622 846.092 259.622C848.05 259.622 849.392 257.51 849.392 254.276C849.392 251.064 848.05 248.996 846.092 248.996ZM865.978 257.774H867.826V265.1H865.978V257.774ZM875.086 245.828H876.912V265.738H875.086V245.828ZM860.72 258.544L860.478 257.004C864.504 256.982 869.322 256.938 873.612 256.542L873.722 257.906C869.322 258.456 864.614 258.544 860.72 258.544ZM870.598 259.842H875.57V261.272H870.598V259.842ZM862.062 246.95H872.028V251.592H863.954V254.056H862.106V250.272H870.18V248.358H862.062V246.95ZM862.106 253.572H872.402V255.002H862.106V253.572ZM895.346 245.828H897.15V265.716H895.346V245.828ZM885.842 248.666H887.294V251.636C887.294 255.97 884.852 260.216 881.86 261.866L880.65 260.48C883.488 259.05 885.842 255.2 885.842 251.636V248.666ZM886.216 248.666H887.668V251.636C887.668 254.782 889.978 258.522 892.794 259.974L891.738 261.404C888.68 259.798 886.216 255.552 886.216 251.636V248.666ZM881.376 247.852H892.112V249.37H881.376V247.852ZM891.364 251.416H896.512V252.934H891.364V251.416ZM891.364 255.662H896.512V257.202H891.364V255.662ZM912.18 258.06H913.588V259.138C913.588 261.734 911.96 264.352 909.1 265.452L908.176 264.088C910.684 263.186 912.18 261.052 912.18 259.138V258.06ZM912.576 258.06H913.94V259.138C913.94 261.14 915.128 263.274 917.504 264.242L916.734 265.628C913.874 264.506 912.576 261.778 912.576 259.138V258.06ZM919.528 258.06H920.892V259.138C920.892 261.47 919.572 264.418 916.734 265.628L915.964 264.242C918.318 263.164 919.528 260.854 919.528 259.138V258.06ZM919.902 258.06H921.31V259.138C921.31 261.184 922.784 263.23 925.314 264.088L924.39 265.452C921.486 264.396 919.902 261.888 919.902 259.138V258.06ZM921.684 245.85H923.532V257.202H921.684V245.85ZM912.862 246.994C915.876 246.994 918.032 248.886 918.032 251.636C918.032 254.386 915.876 256.256 912.862 256.256C909.848 256.256 907.67 254.386 907.67 251.636C907.67 248.886 909.848 246.994 912.862 246.994ZM912.862 248.512C910.882 248.512 909.452 249.788 909.452 251.636C909.452 253.484 910.882 254.738 912.862 254.738C914.842 254.738 916.272 253.484 916.272 251.636C916.272 249.788 914.842 248.512 912.862 248.512ZM929.734 257.752H931.538V260.062H941.262V257.752H943.088V265.452H929.734V257.752ZM931.538 261.47V263.978H941.262V261.47H931.538ZM927.446 254.892H945.42V256.366H927.446V254.892ZM935.52 246.048H937.082V246.928C937.082 250.382 933.232 252.868 929.14 253.484L928.48 252.054C932.066 251.57 935.52 249.436 935.52 246.928V246.048ZM935.806 246.048H937.368V246.928C937.368 249.392 940.866 251.57 944.408 252.054L943.726 253.484C939.678 252.868 935.806 250.338 935.806 246.928V246.048ZM962.16 245.828H963.986V265.716H962.16V245.828ZM948.96 247.764H950.764V260.084H948.96V247.764ZM948.96 259.006H950.588C953.602 259.006 956.748 258.786 960.114 258.082L960.334 259.644C956.88 260.348 953.734 260.59 950.588 260.59H948.96V259.006ZM981.387 245.806H983.235V265.738H981.387V245.806ZM982.795 253.66H986.491V255.2H982.795V253.66ZM968.781 259.248H970.343C974.017 259.248 976.591 259.116 979.561 258.566L979.759 260.106C976.701 260.678 974.083 260.788 970.343 260.788H968.781V259.248ZM968.781 247.742H978.021V249.238H970.585V259.93H968.781V247.742ZM990.114 264.125C989.729 264.125 989.398 263.987 989.122 263.711C988.846 263.435 988.708 263.104 988.708 262.719C988.708 262.333 988.846 262.003 989.122 261.727C989.398 261.451 989.729 261.312 990.114 261.312C990.5 261.312 990.83 261.451 991.106 261.727C991.382 262.003 991.521 262.333 991.521 262.719C991.521 262.974 991.455 263.208 991.325 263.422C991.2 263.635 991.031 263.807 990.817 263.937C990.609 264.063 990.375 264.125 990.114 264.125Z" fill="black"/>
<path d="M464.864 321V319.312C464.864 318.833 464.958 318.344 465.146 317.844C465.333 317.344 465.58 316.872 465.888 316.43C466.195 315.987 466.528 315.617 466.888 315.32L468.356 316.188C468.065 316.646 467.825 317.125 467.638 317.625C467.455 318.125 467.364 318.682 467.364 319.297V321H464.864ZM477.239 316V332H473.856V319.211H473.763L470.099 321.508V318.508L474.06 316H477.239ZM491.537 318.844H496.289V321.198H491.537V318.844ZM494.749 313.608H497.675V328.458H494.749V313.608ZM484.233 331.274H498.137V333.606H484.233V331.274ZM484.233 327.204H487.159V332.66H484.233V327.204ZM485.333 316.27H487.709V317.546C487.709 321.374 485.905 324.916 481.989 326.214L480.515 323.882C483.881 322.782 485.333 320.12 485.333 317.546V316.27ZM485.949 316.27H488.303V317.546C488.303 319.922 489.689 322.452 492.901 323.53L491.471 325.818C487.687 324.564 485.949 321.176 485.949 317.546V316.27ZM481.307 314.972H492.263V317.282H481.307V314.972ZM505.835 315.148H508.211V318.118C508.211 323.354 506.407 328.084 502.359 329.954L500.621 327.534C504.163 325.994 505.835 322.078 505.835 318.118V315.148ZM506.407 315.148H508.783V318.118C508.783 321.88 510.389 325.62 513.865 327.116L512.149 329.47C508.211 327.666 506.407 323.134 506.407 318.118V315.148ZM514.833 313.564H517.781V334.002H514.833V313.564ZM522.004 315.06H530.716V317.414H522.004V315.06ZM524.512 319.812H527.416V324.916H524.512V319.812ZM529.572 315.06H532.454V316.336C532.454 317.766 532.454 319.79 531.97 322.32L529.132 322.012C529.572 319.504 529.572 317.744 529.572 316.336V315.06ZM534.434 313.586H537.382V328.832H534.434V313.586ZM536.216 319.79H539.802V322.188H536.216V319.79ZM523.786 331.274H538.02V333.606H523.786V331.274ZM523.786 327.468H526.712V332H523.786V327.468ZM521.08 326.104L520.816 323.794C524.336 323.794 529.242 323.728 533.334 323.156L533.51 325.224C529.308 326.016 524.578 326.104 521.08 326.104ZM543.733 332.203C543.218 332.203 542.775 332.021 542.405 331.656C542.041 331.286 541.858 330.844 541.858 330.328C541.858 329.818 542.041 329.38 542.405 329.016C542.775 328.651 543.218 328.469 543.733 328.469C544.233 328.469 544.671 328.651 545.046 329.016C545.421 329.38 545.608 329.818 545.608 330.328C545.608 330.672 545.52 330.987 545.343 331.273C545.171 331.555 544.944 331.781 544.663 331.953C544.382 332.12 544.072 332.203 543.733 332.203ZM543.733 323.797C543.218 323.797 542.775 323.615 542.405 323.25C542.041 322.885 541.858 322.443 541.858 321.922C541.858 321.411 542.041 320.977 542.405 320.617C542.775 320.253 543.218 320.07 543.733 320.07C544.233 320.07 544.671 320.253 545.046 320.617C545.421 320.977 545.608 321.411 545.608 321.922C545.608 322.271 545.52 322.589 545.343 322.875C545.171 323.156 544.944 323.38 544.663 323.547C544.382 323.714 544.072 323.797 543.733 323.797ZM553.006 329.228H571.442V331.604H553.006V329.228ZM560.728 324.718H563.654V329.778H560.728V324.718ZM554.92 315.082H569.418V325.092H554.92V315.082ZM566.558 317.414H557.802V322.782H566.558V317.414ZM575.555 320.78H589.547V323.112H575.555V320.78ZM573.223 325.114H591.681V327.468H573.223V325.114ZM580.923 326.478H583.827V333.936H580.923V326.478ZM575.555 314.664H589.349V316.996H578.547V321.902H575.555V314.664ZM600.017 314.928C603.229 314.928 605.627 317.018 605.627 319.944C605.627 322.892 603.229 324.982 600.017 324.982C596.827 324.982 594.385 322.892 594.385 319.944C594.385 317.018 596.827 314.928 600.017 314.928ZM600.017 317.436C598.455 317.436 597.267 318.36 597.267 319.944C597.267 321.55 598.455 322.474 600.017 322.474C601.579 322.474 602.767 321.55 602.767 319.944C602.767 318.36 601.579 317.436 600.017 317.436ZM607.541 313.564H610.467V334.002H607.541V313.564ZM593.901 329.866L593.549 327.512C597.135 327.512 602.129 327.468 606.419 326.83L606.639 328.942C602.217 329.822 597.421 329.866 593.901 329.866ZM619.803 315.412H629.593V329.118H619.803V315.412ZM626.733 317.7H622.685V326.808H626.733V317.7ZM632.761 313.564H635.709V334.002H632.761V313.564ZM646.751 313.696H649.215V314.07C649.215 317.48 646.157 320.164 640.899 320.736L639.931 318.536C644.529 318.074 646.751 316.05 646.751 314.07V313.696ZM647.257 313.696H649.743V314.07C649.743 316.05 651.965 318.074 656.541 318.536L655.573 320.736C650.315 320.164 647.257 317.48 647.257 314.07V313.696ZM646.751 323.354H649.677V326.192H646.751V323.354ZM639.029 321.572H657.443V323.86H639.029V321.572ZM641.141 325.18H655.221V330.46H644.045V332.22H641.163V328.436H652.339V327.358H641.141V325.18ZM641.163 331.626H655.749V333.826H641.163V331.626ZM660.17 315.06H668.882V317.414H660.17V315.06ZM662.678 319.812H665.582V324.916H662.678V319.812ZM667.738 315.06H670.62V316.336C670.62 317.766 670.62 319.79 670.136 322.32L667.298 322.012C667.738 319.504 667.738 317.744 667.738 316.336V315.06ZM672.6 313.586H675.548V328.832H672.6V313.586ZM674.382 319.79H677.968V322.188H674.382V319.79ZM661.952 331.274H676.186V333.606H661.952V331.274ZM661.952 327.468H664.878V332H661.952V327.468ZM659.246 326.104L658.982 323.794C662.502 323.794 667.408 323.728 671.5 323.156L671.676 325.224C667.474 326.016 662.744 326.104 659.246 326.104ZM682.743 316V317.687C682.743 318.167 682.649 318.656 682.462 319.156C682.28 319.651 682.035 320.12 681.728 320.562C681.42 321 681.084 321.372 680.72 321.68L679.251 320.812C679.511 320.401 679.741 319.945 679.938 319.445C680.142 318.945 680.243 318.365 680.243 317.703V316H682.743ZM692.652 321.088H695.996V323.442H692.652V321.088ZM699.23 313.586H702.024V333.958H699.23V313.586ZM695.072 313.894H697.822V333.034H695.072V313.894ZM689.088 315.016C691.794 315.016 693.532 317.81 693.532 322.408C693.532 327.028 691.794 329.822 689.088 329.822C686.404 329.822 684.688 327.028 684.688 322.408C684.688 317.81 686.404 315.016 689.088 315.016ZM689.088 317.766C687.988 317.766 687.35 319.306 687.35 322.408C687.35 325.532 687.988 327.05 689.088 327.05C690.232 327.05 690.87 325.532 690.87 322.408C690.87 319.306 690.232 317.766 689.088 317.766ZM715.024 319.944H720.392V322.298H715.024V319.944ZM709.48 315.148H711.856V318.096C711.856 323.222 710.118 327.952 706.29 329.866L704.464 327.512C707.94 325.906 709.48 321.968 709.48 318.096V315.148ZM710.096 315.148H712.428V318.096C712.428 321.968 713.902 325.686 717.268 327.182L715.53 329.514C711.702 327.666 710.096 323.178 710.096 318.096V315.148ZM718.94 313.564H721.844V334.002H718.94V313.564ZM727.276 319.086H741.4V321.396H727.276V319.086ZM724.988 323.508H743.446V325.84H724.988V323.508ZM727.276 314.312H730.18V320.23H727.276V314.312ZM727.078 331.186H741.51V333.518H727.078V331.186ZM727.078 327.468H730.004V331.802H727.078V327.468ZM328.203 342.148H330.579V345.118C330.579 350.354 328.775 355.084 324.727 356.954L322.989 354.534C326.531 352.994 328.203 349.078 328.203 345.118V342.148ZM328.775 342.148H331.151V345.118C331.151 348.88 332.757 352.62 336.233 354.116L334.517 356.47C330.579 354.666 328.775 350.134 328.775 345.118V342.148ZM337.201 340.564H340.149V361.002H337.201V340.564ZM356.581 340.586H359.507V352.4H356.581V340.586ZM358.693 345.316H362.213V347.736H358.693V345.316ZM350.729 341.73H353.831C353.831 347.164 350.443 350.838 344.393 352.4L343.205 350.156C348.221 348.88 350.729 346.262 350.729 343.182V341.73ZM344.217 341.73H352.489V344.04H344.217V341.73ZM345.911 353.258H359.507V360.958H356.581V355.568H345.911V353.258ZM368.239 342.852H370.637V344.128C370.637 348.022 368.811 351.52 364.873 352.818L363.421 350.508C366.809 349.386 368.239 346.724 368.239 344.128V342.852ZM368.833 342.852H371.209V344.128C371.209 346.504 372.573 348.836 375.851 349.826L374.465 352.114C370.593 350.948 368.833 347.758 368.833 344.128V342.852ZM364.191 341.95H375.191V344.282H364.191V341.95ZM376.819 340.586H379.745V352.664H376.819V340.586ZM378.931 345.272H382.451V347.67H378.931V345.272ZM373.101 353.038C377.325 353.038 379.987 354.512 379.987 356.998C379.987 359.484 377.325 360.958 373.101 360.958C368.855 360.958 366.193 359.484 366.193 356.998C366.193 354.512 368.855 353.038 373.101 353.038ZM373.101 355.326C370.505 355.326 369.097 355.854 369.097 356.998C369.097 358.142 370.505 358.714 373.101 358.714C375.697 358.714 377.083 358.142 377.083 356.998C377.083 355.854 375.697 355.326 373.101 355.326ZM388.521 342.016C391.227 342.016 392.965 344.81 392.965 349.408C392.965 354.028 391.227 356.822 388.521 356.822C385.837 356.822 384.121 354.028 384.121 349.408C384.121 344.81 385.837 342.016 388.521 342.016ZM388.521 344.766C387.421 344.766 386.783 346.306 386.783 349.408C386.783 352.532 387.421 354.05 388.521 354.05C389.643 354.05 390.281 352.532 390.281 349.408C390.281 346.306 389.643 344.766 388.521 344.766ZM398.663 340.586H401.457V360.958H398.663V340.586ZM396.221 348.352H399.587V350.706H396.221V348.352ZM394.197 340.894H396.947V360.034H394.197V340.894ZM418.176 340.608H421.124V355.238H418.176V340.608ZM407.55 358.274H421.63V360.606H407.55V358.274ZM407.55 353.764H410.476V359.22H407.55V353.764ZM410.036 341.884C413.16 341.884 415.558 344.04 415.558 347.054C415.558 350.046 413.16 352.224 410.036 352.224C406.912 352.224 404.492 350.046 404.492 347.054C404.492 344.04 406.912 341.884 410.036 341.884ZM410.036 344.414C408.518 344.414 407.352 345.382 407.352 347.054C407.352 348.704 408.518 349.672 410.036 349.672C411.532 349.672 412.698 348.704 412.698 347.054C412.698 345.382 411.532 344.414 410.036 344.414ZM430.978 341.928C434.19 341.928 436.588 344.018 436.588 346.944C436.588 349.892 434.19 351.982 430.978 351.982C427.788 351.982 425.346 349.892 425.346 346.944C425.346 344.018 427.788 341.928 430.978 341.928ZM430.978 344.436C429.416 344.436 428.228 345.36 428.228 346.944C428.228 348.55 429.416 349.474 430.978 349.474C432.54 349.474 433.728 348.55 433.728 346.944C433.728 345.36 432.54 344.436 430.978 344.436ZM438.502 340.564H441.428V361.002H438.502V340.564ZM424.862 356.866L424.51 354.512C428.096 354.512 433.09 354.468 437.38 353.83L437.6 355.942C433.178 356.822 428.382 356.866 424.862 356.866ZM463.744 340.586H466.692V351.542H463.744V340.586ZM453.14 352.422H456.022V354.314H463.788V352.422H466.692V360.738H453.14V352.422ZM456.022 356.558V358.406H463.788V356.558H456.022ZM455.604 341.422C458.772 341.422 461.126 343.424 461.126 346.24C461.126 349.056 458.772 351.058 455.604 351.058C452.436 351.058 450.06 349.056 450.06 346.24C450.06 343.424 452.436 341.422 455.604 341.422ZM455.604 343.842C454.042 343.842 452.92 344.744 452.92 346.24C452.92 347.758 454.042 348.638 455.604 348.638C457.144 348.638 458.266 347.758 458.266 346.24C458.266 344.744 457.144 343.842 455.604 343.842ZM474.522 342.852H476.92V344.128C476.92 348.022 475.094 351.52 471.156 352.818L469.704 350.508C473.092 349.386 474.522 346.724 474.522 344.128V342.852ZM475.116 342.852H477.492V344.128C477.492 346.504 478.856 348.836 482.134 349.826L480.748 352.114C476.876 350.948 475.116 347.758 475.116 344.128V342.852ZM470.474 341.95H481.474V344.282H470.474V341.95ZM483.102 340.586H486.028V352.664H483.102V340.586ZM485.214 345.272H488.734V347.67H485.214V345.272ZM479.384 353.038C483.608 353.038 486.27 354.512 486.27 356.998C486.27 359.484 483.608 360.958 479.384 360.958C475.138 360.958 472.476 359.484 472.476 356.998C472.476 354.512 475.138 353.038 479.384 353.038ZM479.384 355.326C476.788 355.326 475.38 355.854 475.38 356.998C475.38 358.142 476.788 358.714 479.384 358.714C481.98 358.714 483.366 358.142 483.366 356.998C483.366 355.854 481.98 355.326 479.384 355.326ZM504.199 340.564H507.147V361.002H504.199V340.564ZM496.169 341.994C499.249 341.994 501.515 344.81 501.515 349.254C501.515 353.742 499.249 356.558 496.169 356.558C493.089 356.558 490.823 353.742 490.823 349.254C490.823 344.81 493.089 341.994 496.169 341.994ZM496.169 344.656C494.651 344.656 493.617 346.262 493.617 349.254C493.617 352.29 494.651 353.918 496.169 353.918C497.687 353.918 498.699 352.29 498.699 349.254C498.699 346.262 497.687 344.656 496.169 344.656ZM516.945 348.836H527.593V351.168H516.945V348.836ZM520.773 350.728H523.721V355.018H520.773V350.728ZM516.945 342.39H527.461V344.7H519.871V349.562H516.945V342.39ZM529.639 340.564H532.565V361.002H529.639V340.564ZM515.999 356.976L515.647 354.622C519.541 354.622 524.337 354.6 528.517 354.138L528.737 356.272C524.337 356.954 519.783 356.998 515.999 356.976ZM541.385 341.994C544.421 341.994 546.643 344.81 546.643 349.254C546.643 353.742 544.421 356.558 541.385 356.558C538.327 356.558 536.127 353.742 536.127 349.254C536.127 344.81 538.327 341.994 541.385 341.994ZM541.385 344.656C539.911 344.656 538.921 346.262 538.921 349.254C538.921 352.29 539.911 353.918 541.385 353.918C542.881 353.918 543.849 352.29 543.849 349.254C543.849 346.262 542.881 344.656 541.385 344.656ZM549.987 340.564H552.891V361.002H549.987V340.564ZM545.785 347.912H551.219V350.266H545.785V347.912ZM576.329 348.286H579.915V350.684H576.329V348.286ZM574.151 340.564H577.099V360.936H574.151V340.564ZM561.743 342.522H564.669V355.172H561.743V342.522ZM561.743 353.544H563.503C566.407 353.544 569.553 353.346 572.831 352.686L573.139 355.084C569.773 355.788 566.495 355.964 563.503 355.964H561.743V353.544ZM581.915 353.808H583.367C585.831 353.808 588.009 353.742 590.539 353.302L590.781 355.656C588.163 356.14 585.919 356.206 583.367 356.206H581.915V353.808ZM581.893 342.588H589.087V350.376H584.753V354.732H581.915V348.088H586.271V344.898H581.893V342.588ZM596.083 340.586H598.855V360.958H596.083V340.586ZM589.923 347.516H593.091V349.914H589.923V347.516ZM591.947 340.96H594.653V359.99H591.947V340.96ZM615.574 340.564H618.522V361.002H615.574V340.564ZM607.544 341.994C610.624 341.994 612.89 344.81 612.89 349.254C612.89 353.742 610.624 356.558 607.544 356.558C604.464 356.558 602.198 353.742 602.198 349.254C602.198 344.81 604.464 341.994 607.544 341.994ZM607.544 344.656C606.026 344.656 604.992 346.262 604.992 349.254C604.992 352.29 606.026 353.918 607.544 353.918C609.062 353.918 610.074 352.29 610.074 349.254C610.074 346.262 609.062 344.656 607.544 344.656ZM632.6 343.226H636.648V345.58H632.6V343.226ZM632.6 347.164H636.648V349.496H632.6V347.164ZM626.506 341.752H628.86V344.084C628.86 348.308 627.144 351.96 623.294 353.39L621.732 351.102C625.098 349.914 626.506 347.054 626.506 344.084V341.752ZM627.122 341.752H629.476V344.084C629.476 346.878 630.796 349.672 634.008 350.882L632.402 353.148C628.794 351.718 627.122 348.132 627.122 344.084V341.752ZM635.966 340.608H638.892V355.678H635.966V340.608ZM625.406 358.274H639.332V360.606H625.406V358.274ZM625.406 354.292H628.354V359.748H625.406V354.292ZM651.298 340.872C655.94 340.872 658.668 342.104 658.668 344.348C658.668 346.592 655.94 347.824 651.298 347.824C646.634 347.824 643.928 346.592 643.928 344.348C643.928 342.104 646.634 340.872 651.298 340.872ZM651.298 343.006C648.35 343.006 646.964 343.446 646.964 344.348C646.964 345.294 648.35 345.69 651.298 345.69C654.246 345.69 655.632 345.294 655.632 344.348C655.632 343.446 654.246 343.006 651.298 343.006ZM642.08 348.77H660.494V351.08H642.08V348.77ZM644.192 352.224H658.272V357.46H647.096V359.264H644.214V355.436H655.39V354.402H644.192V352.224ZM644.214 358.626H658.8V360.826H644.214V358.626ZM667.388 351.08H685.824V353.368H667.388V351.08ZM675.132 348.902H678.058V351.916H675.132V348.902ZM669.676 347.626H683.866V349.848H669.676V347.626ZM669.676 341.092H683.712V343.314H672.58V348.88H669.676V341.092ZM671.766 344.392H683.25V346.526H671.766V344.392ZM676.584 354.27C681.05 354.27 683.646 355.458 683.646 357.614C683.646 359.792 681.05 360.958 676.584 360.958C672.096 360.958 669.5 359.792 669.5 357.614C669.5 355.458 672.096 354.27 676.584 354.27ZM676.584 356.426C673.746 356.426 672.448 356.778 672.448 357.614C672.448 358.472 673.746 358.824 676.584 358.824C679.4 358.824 680.698 358.472 680.698 357.614C680.698 356.778 679.4 356.426 676.584 356.426ZM687.627 343.644H697.373V345.976H687.627V343.644ZM692.533 346.878C695.129 346.878 696.999 348.88 696.999 351.74C696.999 354.578 695.129 356.58 692.533 356.58C689.959 356.58 688.067 354.578 688.067 351.74C688.067 348.88 689.959 346.878 692.533 346.878ZM692.533 349.32C691.433 349.32 690.663 350.2 690.663 351.74C690.663 353.28 691.433 354.138 692.533 354.138C693.633 354.138 694.425 353.28 694.425 351.74C694.425 350.2 693.633 349.32 692.533 349.32ZM702.367 340.586H705.161V360.958H702.367V340.586ZM699.925 348.858H703.291V351.212H699.925V348.858ZM698.099 340.96H700.827V360.1H698.099V340.96ZM691.103 341.136H693.985V345.118H691.103V341.136ZM717.511 342.676H719.909V343.952C719.909 347.802 718.083 351.256 714.189 352.51L712.671 350.244C716.081 349.144 717.511 346.504 717.511 343.952V342.676ZM718.105 342.676H720.481V343.952C720.481 346.35 721.867 348.836 725.167 349.892L723.671 352.158C719.865 350.926 718.105 347.604 718.105 343.952V342.676ZM713.463 341.774H724.463V344.106H713.463V341.774ZM726.091 340.586H729.017V352.862H726.091V340.586ZM728.203 345.514H731.723V347.912H728.203V345.514ZM715.421 353.742H729.017V360.958H726.091V356.096H715.421V353.742ZM740.961 351.784H743.887V354.886H740.961V351.784ZM733.217 350.112H751.631V352.422H733.217V350.112ZM734.823 341.136H750.003V343.468H734.823V341.136ZM734.977 346.526H749.849V348.858H734.977V346.526ZM737.419 341.994H740.345V348.044H737.419V341.994ZM744.481 341.994H747.407V348.044H744.481V341.994ZM735.351 354.116H749.431V360.738H735.351V354.116ZM746.571 356.382H738.233V358.428H746.571V356.382ZM762.673 340.872C767.315 340.872 770.043 342.104 770.043 344.348C770.043 346.592 767.315 347.824 762.673 347.824C758.009 347.824 755.303 346.592 755.303 344.348C755.303 342.104 758.009 340.872 762.673 340.872ZM762.673 343.006C759.725 343.006 758.339 343.446 758.339 344.348C758.339 345.294 759.725 345.69 762.673 345.69C765.621 345.69 767.007 345.294 767.007 344.348C767.007 343.446 765.621 343.006 762.673 343.006ZM753.455 348.77H771.869V351.08H753.455V348.77ZM755.567 352.224H769.647V357.46H758.471V359.264H755.589V355.436H766.765V354.402H755.567V352.224ZM755.589 358.626H770.175V360.826H755.589V358.626ZM779.687 342.06H788.399V344.414H779.687V342.06ZM782.195 346.812H785.099V351.916H782.195V346.812ZM787.255 342.06H790.137V343.336C790.137 344.766 790.137 346.79 789.653 349.32L786.815 349.012C787.255 346.504 787.255 344.744 787.255 343.336V342.06ZM792.117 340.586H795.065V355.832H792.117V340.586ZM793.899 346.79H797.485V349.188H793.899V346.79ZM781.469 358.274H795.703V360.606H781.469V358.274ZM781.469 354.468H784.395V359H781.469V354.468ZM778.763 353.104L778.499 350.794C782.019 350.794 786.925 350.728 791.017 350.156L791.193 352.224C786.991 353.016 782.261 353.104 778.763 353.104ZM812.136 340.608H815.062V352.686H812.136V340.608ZM814.226 345.382H817.768V347.802H814.226V345.382ZM801.796 353.566H815.062V360.738H801.796V353.566ZM812.202 355.854H804.678V358.428H812.202V355.854ZM799.75 349.606H801.466C805.47 349.606 807.934 349.54 810.75 349.012L811.014 351.322C808.154 351.872 805.58 351.982 801.466 351.982H799.75V349.606ZM799.728 341.598H809.034V347.802H802.654V350.904H799.75V345.624H806.152V343.93H799.728V341.598ZM832.374 340.586H835.3V352.51H832.374V340.586ZM834.134 345.47H838.006V347.89H834.134V345.47ZM822.056 353.302H824.938V354.842H832.396V353.302H835.3V360.738H822.056V353.302ZM824.938 357.042V358.45H832.396V357.042H824.938ZM819.262 342.346H831.252V344.656H819.262V342.346ZM825.268 345.206C828.216 345.206 830.262 346.658 830.262 348.814C830.262 350.97 828.216 352.422 825.268 352.422C822.298 352.422 820.252 350.97 820.252 348.814C820.252 346.658 822.298 345.206 825.268 345.206ZM825.268 347.34C823.948 347.34 823.068 347.868 823.068 348.814C823.068 349.782 823.948 350.288 825.268 350.288C826.566 350.288 827.468 349.782 827.468 348.814C827.468 347.868 826.566 347.34 825.268 347.34ZM823.794 340.432H826.72V343.644H823.794V340.432ZM853.602 340.586H856.528V360.958H853.602V340.586ZM840.578 342.522H843.482V355.172H840.578V342.522ZM840.578 353.456H842.382C845.352 353.456 848.652 353.236 852.018 352.576L852.348 354.996C848.85 355.722 845.484 355.942 842.382 355.942H840.578V353.456ZM872.762 340.564H875.71V361.002H872.762V340.564ZM875.05 348.11H878.658V350.508H875.05V348.11ZM860.53 353.676H862.246C865.678 353.676 868.384 353.566 871.376 353.038L871.662 355.458C868.582 356.008 865.788 356.096 862.246 356.096H860.53V353.676ZM860.53 342.456H870.034V344.81H863.434V354.842H860.53V342.456ZM882.37 359.203C881.854 359.203 881.412 359.021 881.042 358.656C880.677 358.286 880.495 357.844 880.495 357.328C880.495 356.818 880.677 356.38 881.042 356.016C881.412 355.651 881.854 355.469 882.37 355.469C882.87 355.469 883.308 355.651 883.683 356.016C884.058 356.38 884.245 356.818 884.245 357.328C884.245 357.672 884.157 357.987 883.979 358.273C883.808 358.555 883.581 358.781 883.3 358.953C883.019 359.12 882.709 359.203 882.37 359.203Z" fill="black"/>
<path d="M418.249 416V414.312C418.249 413.833 418.343 413.344 418.53 412.844C418.718 412.344 418.965 411.872 419.272 411.43C419.58 410.987 419.913 410.617 420.272 410.32L421.741 411.188C421.45 411.646 421.21 412.125 421.022 412.625C420.84 413.125 420.749 413.682 420.749 414.297V416H418.249ZM423.663 427V424.562L429.358 419.289C429.843 418.82 430.249 418.398 430.577 418.023C430.91 417.648 431.163 417.281 431.335 416.922C431.507 416.557 431.593 416.164 431.593 415.742C431.593 415.273 431.486 414.87 431.272 414.531C431.059 414.187 430.767 413.924 430.397 413.742C430.028 413.555 429.608 413.461 429.14 413.461C428.65 413.461 428.223 413.56 427.858 413.758C427.494 413.956 427.213 414.24 427.015 414.609C426.817 414.979 426.718 415.419 426.718 415.93H423.507C423.507 414.883 423.744 413.974 424.218 413.203C424.692 412.432 425.356 411.836 426.21 411.414C427.064 410.992 428.049 410.781 429.163 410.781C430.309 410.781 431.306 410.984 432.155 411.391C433.009 411.792 433.674 412.349 434.147 413.062C434.621 413.776 434.858 414.594 434.858 415.516C434.858 416.12 434.739 416.716 434.499 417.305C434.265 417.893 433.845 418.547 433.241 419.266C432.637 419.979 431.785 420.836 430.687 421.836L428.351 424.125V424.234H435.069V427H423.663ZM448.016 413.844H452.768V416.198H448.016V413.844ZM451.228 408.608H454.154V423.458H451.228V408.608ZM440.712 426.274H454.616V428.606H440.712V426.274ZM440.712 422.204H443.638V427.66H440.712V422.204ZM441.812 411.27H444.188V412.546C444.188 416.374 442.384 419.916 438.468 421.214L436.994 418.882C440.36 417.782 441.812 415.12 441.812 412.546V411.27ZM442.428 411.27H444.782V412.546C444.782 414.922 446.168 417.452 449.38 418.53L447.95 420.818C444.166 419.564 442.428 416.176 442.428 412.546V411.27ZM437.786 409.972H448.742V412.282H437.786V409.972ZM462.314 410.148H464.69V413.118C464.69 418.354 462.886 423.084 458.838 424.954L457.1 422.534C460.642 420.994 462.314 417.078 462.314 413.118V410.148ZM462.886 410.148H465.262V413.118C465.262 416.88 466.868 420.62 470.344 422.116L468.628 424.47C464.69 422.666 462.886 418.134 462.886 413.118V410.148ZM471.312 408.564H474.26V429.002H471.312V408.564ZM478.482 410.06H487.194V412.414H478.482V410.06ZM480.99 414.812H483.894V419.916H480.99V414.812ZM486.05 410.06H488.932V411.336C488.932 412.766 488.932 414.79 488.448 417.32L485.61 417.012C486.05 414.504 486.05 412.744 486.05 411.336V410.06ZM490.912 408.586H493.86V423.832H490.912V408.586ZM492.694 414.79H496.28V417.188H492.694V414.79ZM480.264 426.274H494.498V428.606H480.264V426.274ZM480.264 422.468H483.19V427H480.264V422.468ZM477.558 421.104L477.294 418.794C480.814 418.794 485.72 418.728 489.812 418.156L489.988 420.224C485.786 421.016 481.056 421.104 477.558 421.104ZM500.212 427.203C499.696 427.203 499.254 427.021 498.884 426.656C498.519 426.286 498.337 425.844 498.337 425.328C498.337 424.818 498.519 424.38 498.884 424.016C499.254 423.651 499.696 423.469 500.212 423.469C500.712 423.469 501.149 423.651 501.524 424.016C501.899 424.38 502.087 424.818 502.087 425.328C502.087 425.672 501.998 425.987 501.821 426.273C501.649 426.555 501.423 426.781 501.142 426.953C500.86 427.12 500.55 427.203 500.212 427.203ZM500.212 418.797C499.696 418.797 499.254 418.615 498.884 418.25C498.519 417.885 498.337 417.443 498.337 416.922C498.337 416.411 498.519 415.977 498.884 415.617C499.254 415.253 499.696 415.07 500.212 415.07C500.712 415.07 501.149 415.253 501.524 415.617C501.899 415.977 502.087 416.411 502.087 416.922C502.087 417.271 501.998 417.589 501.821 417.875C501.649 418.156 501.423 418.38 501.142 418.547C500.86 418.714 500.55 418.797 500.212 418.797ZM509.485 424.228H527.921V426.604H509.485V424.228ZM517.207 419.718H520.133V424.778H517.207V419.718ZM511.399 410.082H525.897V420.092H511.399V410.082ZM523.037 412.414H514.281V417.782H523.037V412.414ZM532.033 415.78H546.025V418.112H532.033V415.78ZM529.701 420.114H548.159V422.468H529.701V420.114ZM537.401 421.478H540.305V428.936H537.401V421.478ZM532.033 409.664H545.827V411.996H535.025V416.902H532.033V409.664ZM562.964 408.564H565.912V428.936H562.964V408.564ZM565.142 416.352H568.728V418.75H565.142V416.352ZM557.618 410.676H560.478C560.478 416.792 558.146 422.028 551.37 425.438L549.742 423.216C555.088 420.444 557.618 416.704 557.618 411.182V410.676ZM550.864 410.676H559.114V413.03H550.864V410.676ZM577.162 410.302H590.076V412.656H577.162V410.302ZM575.292 424.14H593.706V426.516H575.292V424.14ZM581.804 417.144H584.73V425.306H581.804V417.144ZM589.02 410.302H591.946V412.26C591.946 414.812 591.946 417.672 591.132 422.028L588.206 421.698C589.02 417.65 589.02 414.702 589.02 412.26V410.302ZM596.542 410.192H606.42V420.048H596.542V410.192ZM603.56 412.502H599.402V417.738H603.56V412.502ZM609.5 408.608H612.448V423.084H609.5V408.608ZM598.874 426.186H612.954V428.54H598.874V426.186ZM598.874 421.764H601.8V427.22H598.874V421.764ZM628.814 408.586H631.718V428.958H628.814V408.586ZM631.058 416.528H634.666V418.97H631.058V416.528ZM615.658 411.6H627.516V413.932H615.658V411.6ZM621.62 415.076C624.59 415.076 626.79 417.1 626.79 419.938C626.79 422.776 624.59 424.8 621.62 424.8C618.65 424.8 616.45 422.776 616.45 419.938C616.45 417.1 618.65 415.076 621.62 415.076ZM621.62 417.452C620.234 417.452 619.244 418.376 619.244 419.938C619.244 421.5 620.234 422.424 621.62 422.424C623.006 422.424 623.996 421.5 623.996 419.938C623.996 418.376 623.006 417.452 621.62 417.452ZM620.146 408.916H623.072V412.48H620.146V408.916ZM638.272 414.086H652.396V416.396H638.272V414.086ZM635.984 418.508H654.442V420.84H635.984V418.508ZM638.272 409.312H641.176V415.23H638.272V409.312ZM638.074 426.186H652.506V428.518H638.074V426.186ZM638.074 422.468H641V426.802H638.074V422.468ZM662.327 410.412H672.117V424.118H662.327V410.412ZM669.257 412.7H665.209V421.808H669.257V412.7ZM675.285 408.564H678.233V429.002H675.285V408.564ZM689.275 408.696H691.739V409.07C691.739 412.48 688.681 415.164 683.423 415.736L682.455 413.536C687.053 413.074 689.275 411.05 689.275 409.07V408.696ZM689.781 408.696H692.267V409.07C692.267 411.05 694.489 413.074 699.065 413.536L698.097 415.736C692.839 415.164 689.781 412.48 689.781 409.07V408.696ZM689.275 418.354H692.201V421.192H689.275V418.354ZM681.553 416.572H699.967V418.86H681.553V416.572ZM683.665 420.18H697.745V425.46H686.569V427.22H683.687V423.436H694.863V422.358H683.665V420.18ZM683.687 426.626H698.273V428.826H683.687V426.626ZM702.693 410.06H711.405V412.414H702.693V410.06ZM705.201 414.812H708.105V419.916H705.201V414.812ZM710.261 410.06H713.143V411.336C713.143 412.766 713.143 414.79 712.659 417.32L709.821 417.012C710.261 414.504 710.261 412.744 710.261 411.336V410.06ZM715.123 408.586H718.071V423.832H715.123V408.586ZM716.905 414.79H720.491V417.188H716.905V414.79ZM704.475 426.274H718.709V428.606H704.475V426.274ZM704.475 422.468H707.401V427H704.475V422.468ZM701.769 421.104L701.505 418.794C705.025 418.794 709.931 418.728 714.023 418.156L714.199 420.224C709.997 421.016 705.267 421.104 701.769 421.104ZM725.267 411V412.687C725.267 413.167 725.173 413.656 724.985 414.156C724.803 414.651 724.558 415.12 724.251 415.562C723.944 416 723.608 416.372 723.243 416.68L721.774 415.812C722.035 415.401 722.264 414.945 722.462 414.445C722.665 413.945 722.767 413.365 722.767 412.703V411H725.267ZM735.175 416.088H738.519V418.442H735.175V416.088ZM741.753 408.586H744.547V428.958H741.753V408.586ZM737.595 408.894H740.345V428.034H737.595V408.894ZM731.611 410.016C734.317 410.016 736.055 412.81 736.055 417.408C736.055 422.028 734.317 424.822 731.611 424.822C728.927 424.822 727.211 422.028 727.211 417.408C727.211 412.81 728.927 410.016 731.611 410.016ZM731.611 412.766C730.511 412.766 729.873 414.306 729.873 417.408C729.873 420.532 730.511 422.05 731.611 422.05C732.755 422.05 733.393 420.532 733.393 417.408C733.393 414.306 732.755 412.766 731.611 412.766ZM757.548 414.944H762.916V417.298H757.548V414.944ZM752.004 410.148H754.38V413.096C754.38 418.222 752.642 422.952 748.814 424.866L746.988 422.512C750.464 420.906 752.004 416.968 752.004 413.096V410.148ZM752.62 410.148H754.952V413.096C754.952 416.968 756.426 420.686 759.792 422.182L758.054 424.514C754.226 422.666 752.62 418.178 752.62 413.096V410.148ZM761.464 408.564H764.368V429.002H761.464V408.564ZM769.8 414.086H783.924V416.396H769.8V414.086ZM767.512 418.508H785.97V420.84H767.512V418.508ZM769.8 409.312H772.704V415.23H769.8V409.312ZM769.602 426.186H784.034V428.518H769.602V426.186ZM769.602 422.468H772.528V426.802H769.602V422.468ZM288.226 437.148H290.602V440.118C290.602 445.354 288.798 450.084 284.75 451.954L283.012 449.534C286.554 447.994 288.226 444.078 288.226 440.118V437.148ZM288.798 437.148H291.174V440.118C291.174 443.88 292.78 447.62 296.256 449.116L294.54 451.47C290.602 449.666 288.798 445.134 288.798 440.118V437.148ZM297.224 435.564H300.172V456.002H297.224V435.564ZM316.604 435.586H319.53V447.4H316.604V435.586ZM318.716 440.316H322.236V442.736H318.716V440.316ZM310.752 436.73H313.854C313.854 442.164 310.466 445.838 304.416 447.4L303.228 445.156C308.244 443.88 310.752 441.262 310.752 438.182V436.73ZM304.24 436.73H312.512V439.04H304.24V436.73ZM305.934 448.258H319.53V455.958H316.604V450.568H305.934V448.258ZM328.263 437.852H330.661V439.128C330.661 443.022 328.835 446.52 324.897 447.818L323.445 445.508C326.833 444.386 328.263 441.724 328.263 439.128V437.852ZM328.857 437.852H331.233V439.128C331.233 441.504 332.597 443.836 335.875 444.826L334.489 447.114C330.617 445.948 328.857 442.758 328.857 439.128V437.852ZM324.215 436.95H335.215V439.282H324.215V436.95ZM336.843 435.586H339.769V447.664H336.843V435.586ZM338.955 440.272H342.475V442.67H338.955V440.272ZM333.125 448.038C337.349 448.038 340.011 449.512 340.011 451.998C340.011 454.484 337.349 455.958 333.125 455.958C328.879 455.958 326.217 454.484 326.217 451.998C326.217 449.512 328.879 448.038 333.125 448.038ZM333.125 450.326C330.529 450.326 329.121 450.854 329.121 451.998C329.121 453.142 330.529 453.714 333.125 453.714C335.721 453.714 337.107 453.142 337.107 451.998C337.107 450.854 335.721 450.326 333.125 450.326ZM348.545 437.016C351.251 437.016 352.989 439.81 352.989 444.408C352.989 449.028 351.251 451.822 348.545 451.822C345.861 451.822 344.145 449.028 344.145 444.408C344.145 439.81 345.861 437.016 348.545 437.016ZM348.545 439.766C347.445 439.766 346.807 441.306 346.807 444.408C346.807 447.532 347.445 449.05 348.545 449.05C349.667 449.05 350.305 447.532 350.305 444.408C350.305 441.306 349.667 439.766 348.545 439.766ZM358.687 435.586H361.481V455.958H358.687V435.586ZM356.245 443.352H359.611V445.706H356.245V443.352ZM354.221 435.894H356.971V455.034H354.221V435.894ZM378.199 435.608H381.147V450.238H378.199V435.608ZM367.573 453.274H381.653V455.606H367.573V453.274ZM367.573 448.764H370.499V454.22H367.573V448.764ZM370.059 436.884C373.183 436.884 375.581 439.04 375.581 442.054C375.581 445.046 373.183 447.224 370.059 447.224C366.935 447.224 364.515 445.046 364.515 442.054C364.515 439.04 366.935 436.884 370.059 436.884ZM370.059 439.414C368.541 439.414 367.375 440.382 367.375 442.054C367.375 443.704 368.541 444.672 370.059 444.672C371.555 444.672 372.721 443.704 372.721 442.054C372.721 440.382 371.555 439.414 370.059 439.414ZM392.585 443.088H395.929V445.442H392.585V443.088ZM399.163 435.586H401.957V455.958H399.163V435.586ZM395.005 435.894H397.755V455.034H395.005V435.894ZM389.021 437.016C391.727 437.016 393.465 439.81 393.465 444.408C393.465 449.028 391.727 451.822 389.021 451.822C386.337 451.822 384.621 449.028 384.621 444.408C384.621 439.81 386.337 437.016 389.021 437.016ZM389.021 439.766C387.921 439.766 387.283 441.306 387.283 444.408C387.283 447.532 387.921 449.05 389.021 449.05C390.165 449.05 390.803 447.532 390.803 444.408C390.803 441.306 390.165 439.766 389.021 439.766ZM419.446 435.586H422.24V455.958H419.446V435.586ZM411.372 443.396H415.728V445.706H411.372V443.396ZM415.156 436.026H417.884V455.056H415.156V436.026ZM410.712 437.984H413.528C413.528 443.792 411.79 448.412 406.07 451.734L404.42 449.688C409.062 446.894 410.712 443.506 410.712 438.578V437.984ZM405.564 437.984H411.636V440.316H405.564V437.984ZM434.546 437.676H436.944V438.952C436.944 442.802 435.118 446.256 431.224 447.51L429.706 445.244C433.116 444.144 434.546 441.504 434.546 438.952V437.676ZM435.14 437.676H437.516V438.952C437.516 441.35 438.902 443.836 442.202 444.892L440.706 447.158C436.9 445.926 435.14 442.604 435.14 438.952V437.676ZM430.498 436.774H441.498V439.106H430.498V436.774ZM443.126 435.586H446.052V447.862H443.126V435.586ZM445.238 440.514H448.758V442.912H445.238V440.514ZM432.456 448.742H446.052V455.958H443.126V451.096H432.456V448.742ZM457.996 446.784H460.922V449.886H457.996V446.784ZM450.252 445.112H468.666V447.422H450.252V445.112ZM451.858 436.136H467.038V438.468H451.858V436.136ZM452.012 441.526H466.884V443.858H452.012V441.526ZM454.454 436.994H457.38V443.044H454.454V436.994ZM461.516 436.994H464.442V443.044H461.516V436.994ZM452.386 449.116H466.466V455.738H452.386V449.116ZM463.606 451.382H455.268V453.428H463.606V451.382ZM479.708 435.872C484.35 435.872 487.078 437.104 487.078 439.348C487.078 441.592 484.35 442.824 479.708 442.824C475.044 442.824 472.338 441.592 472.338 439.348C472.338 437.104 475.044 435.872 479.708 435.872ZM479.708 438.006C476.76 438.006 475.374 438.446 475.374 439.348C475.374 440.294 476.76 440.69 479.708 440.69C482.656 440.69 484.042 440.294 484.042 439.348C484.042 438.446 482.656 438.006 479.708 438.006ZM470.49 443.77H488.904V446.08H470.49V443.77ZM472.602 447.224H486.682V452.46H475.506V454.264H472.624V450.436H483.8V449.402H472.602V447.224ZM472.624 453.626H487.21V455.826H472.624V453.626ZM506.226 438.556H511.242V440.888H506.226V438.556ZM509.944 435.586H512.87V445.926H509.944V435.586ZM499.406 446.784H512.87V452.262H502.332V454.814H499.45V450.15H509.966V449.028H499.406V446.784ZM499.45 453.472H513.442V455.738H499.45V453.472ZM500.484 436.246H502.86V437.698C502.86 441.548 501.056 444.87 497.162 446.102L495.666 443.792C499.054 442.78 500.484 440.294 500.484 437.698V436.246ZM501.056 436.246H503.432V437.698C503.432 440.118 504.796 442.472 508.008 443.44L506.512 445.706C502.794 444.496 501.056 441.35 501.056 437.698V436.246ZM525.915 438.534H531.107V440.844H525.915V438.534ZM525.915 442.604H531.195V444.936H525.915V442.604ZM530.183 435.586H533.109V447.51H530.183V435.586ZM516.895 437.06H526.531V446.41H516.895V437.06ZM523.649 439.37H519.777V444.122H523.649V439.37ZM526.201 448.038C530.513 448.038 533.175 449.512 533.175 451.998C533.175 454.506 530.513 455.958 526.201 455.958C521.889 455.958 519.227 454.506 519.227 451.998C519.227 449.512 521.889 448.038 526.201 448.038ZM526.201 450.282C523.561 450.282 522.153 450.832 522.153 451.998C522.153 453.164 523.561 453.736 526.201 453.736C528.863 453.736 530.271 453.164 530.271 451.998C530.271 450.832 528.863 450.282 526.201 450.282ZM549.365 435.586H552.269V455.958H549.365V435.586ZM551.609 443.528H555.217V445.97H551.609V443.528ZM536.209 438.6H548.067V440.932H536.209V438.6ZM542.171 442.076C545.141 442.076 547.341 444.1 547.341 446.938C547.341 449.776 545.141 451.8 542.171 451.8C539.201 451.8 537.001 449.776 537.001 446.938C537.001 444.1 539.201 442.076 542.171 442.076ZM542.171 444.452C540.785 444.452 539.795 445.376 539.795 446.938C539.795 448.5 540.785 449.424 542.171 449.424C543.557 449.424 544.547 448.5 544.547 446.938C544.547 445.376 543.557 444.452 542.171 444.452ZM540.697 435.916H543.623V439.48H540.697V435.916ZM566.127 440.184H571.715V442.516H566.127V440.184ZM566.127 445.684H571.715V448.038H566.127V445.684ZM557.283 437.368H567.007V451.008H557.283V437.368ZM564.125 439.678H560.165V448.72H564.125V439.678ZM570.725 435.564H573.629V456.002H570.725V435.564ZM592.777 440.844H597.529V443.198H592.777V440.844ZM595.989 435.608H598.915V450.458H595.989V435.608ZM585.473 453.274H599.377V455.606H585.473V453.274ZM585.473 449.204H588.399V454.66H585.473V449.204ZM586.573 438.27H588.949V439.546C588.949 443.374 587.145 446.916 583.229 448.214L581.755 445.882C585.121 444.782 586.573 442.12 586.573 439.546V438.27ZM587.189 438.27H589.543V439.546C589.543 441.922 590.929 444.452 594.141 445.53L592.711 447.818C588.927 446.564 587.189 443.176 587.189 439.546V438.27ZM582.547 436.972H593.503V439.282H582.547V436.972ZM602.808 442.978H604.502C608.748 442.978 611.058 442.846 613.632 442.318L613.94 444.584C611.322 445.178 608.858 445.266 604.502 445.266H602.808V442.978ZM602.808 436.642H611.916V438.93H605.712V444.254H602.808V436.642ZM615.216 435.586H618.142V445.706H615.216V435.586ZM617.328 439.414H620.848V441.79H617.328V439.414ZM604.678 446.542H618.142V452.174H607.626V454.616H604.722V450.018H615.26V448.83H604.678V446.542ZM604.722 453.428H618.736V455.738H604.722V453.428ZM635.41 435.586H638.314V455.958H635.41V435.586ZM637.654 443.528H641.262V445.97H637.654V443.528ZM622.254 438.6H634.112V440.932H622.254V438.6ZM628.216 442.076C631.186 442.076 633.386 444.1 633.386 446.938C633.386 449.776 631.186 451.8 628.216 451.8C625.246 451.8 623.046 449.776 623.046 446.938C623.046 444.1 625.246 442.076 628.216 442.076ZM628.216 444.452C626.83 444.452 625.84 445.376 625.84 446.938C625.84 448.5 626.83 449.424 628.216 449.424C629.602 449.424 630.592 448.5 630.592 446.938C630.592 445.376 629.602 444.452 628.216 444.452ZM626.742 435.916H629.668V439.48H626.742V435.916ZM644.868 441.086H658.992V443.396H644.868V441.086ZM642.58 445.508H661.038V447.84H642.58V445.508ZM644.868 436.312H647.772V442.23H644.868V436.312ZM644.67 453.186H659.102V455.518H644.67V453.186ZM644.67 449.468H647.596V453.802H644.67V449.468ZM682.628 435.586H685.4V455.958H682.628V435.586ZM679.9 443.418H683.288V445.772H679.9V443.418ZM678.074 435.938H680.78V454.99H678.074V435.938ZM668.482 448.962H669.912C672.42 448.962 674.51 448.874 676.93 448.434L677.15 450.81C674.686 451.294 672.53 451.36 669.912 451.36H668.482V448.962ZM668.482 437.94H676.006V440.294H671.386V450.106H668.482V437.94ZM692.857 447.642H695.783V450.942H692.857V447.642ZM701.415 435.586H704.363V455.958H701.415V435.586ZM703.329 443.858H706.915V446.278H703.329V443.858ZM688.281 452.57L687.929 450.216C691.449 450.216 696.289 450.194 700.403 449.622L700.623 451.734C696.333 452.57 691.713 452.57 688.281 452.57ZM688.303 437.83H700.293V440.118H688.303V437.83ZM694.331 440.932C697.235 440.932 699.303 442.472 699.303 444.738C699.303 447.026 697.235 448.566 694.331 448.566C691.405 448.566 689.359 447.026 689.359 444.738C689.359 442.472 691.405 440.932 694.331 440.932ZM694.331 443.132C692.989 443.132 692.131 443.704 692.131 444.738C692.131 445.794 692.989 446.366 694.331 446.366C695.651 446.366 696.531 445.794 696.531 444.738C696.531 443.704 695.651 443.132 694.331 443.132ZM692.857 435.696H695.783V439.546H692.857V435.696ZM719.893 440.052H723.633V442.384H719.893V440.052ZM719.849 444.122H723.567V446.454H719.849V444.122ZM708.453 437.412H719.629V439.722H708.453V437.412ZM714.173 440.426C716.967 440.426 718.947 441.966 718.947 444.232C718.947 446.498 716.967 448.038 714.173 448.038C711.379 448.038 709.399 446.498 709.399 444.232C709.399 441.966 711.379 440.426 714.173 440.426ZM714.173 442.604C712.941 442.604 712.127 443.154 712.127 444.232C712.127 445.31 712.941 445.86 714.173 445.86C715.383 445.86 716.241 445.31 716.241 444.232C716.241 443.154 715.383 442.604 714.173 442.604ZM712.721 435.41H715.647V439.018H712.721V435.41ZM722.511 435.586H725.437V448.566H722.511V435.586ZM718.551 448.808C722.841 448.808 725.525 450.15 725.525 452.394C725.525 454.638 722.841 455.958 718.551 455.958C714.239 455.958 711.577 454.638 711.577 452.394C711.577 450.15 714.239 448.808 718.551 448.808ZM718.551 451.052C716.043 451.052 714.657 451.448 714.657 452.394C714.657 453.318 716.043 453.758 718.551 453.758C721.059 453.758 722.423 453.318 722.423 452.394C722.423 451.448 721.059 451.052 718.551 451.052ZM746.829 435.586H749.755V446.938H746.829V435.586ZM748.941 440.008H752.461V442.406H748.941V440.008ZM740.977 436.752H744.101C744.101 442.164 740.713 445.838 734.641 447.422L733.497 445.112C738.491 443.858 740.977 441.262 740.977 438.204V436.752ZM734.465 436.752H742.737V439.062H734.465V436.752ZM736.533 447.752H749.755V455.738H736.533V447.752ZM746.873 450.062H739.415V453.428H746.873V450.062ZM758.421 436.686H760.819V438.49C760.819 442.538 759.059 446.102 755.187 447.444L753.625 445.134C757.035 443.99 758.421 441.262 758.421 438.49V436.686ZM759.015 436.686H761.391V438.776C761.391 441.218 762.755 443.594 765.945 444.584L764.427 446.85C760.753 445.618 759.015 442.45 759.015 438.776V436.686ZM767.067 435.586H769.993V447.62H767.067V435.586ZM769.179 440.294H772.699V442.714H769.179V440.294ZM763.349 448.082C767.573 448.082 770.235 449.556 770.235 452.02C770.235 454.506 767.573 455.958 763.349 455.958C759.103 455.958 756.441 454.506 756.441 452.02C756.441 449.556 759.103 448.082 763.349 448.082ZM763.349 450.348C760.753 450.348 759.345 450.898 759.345 452.02C759.345 453.164 760.753 453.692 763.349 453.692C765.945 453.692 767.331 453.164 767.331 452.02C767.331 450.898 765.945 450.348 763.349 450.348ZM775.051 436.62H777.955V439.194H781.827V436.62H784.687V446.146H775.051V436.62ZM777.955 441.416V443.814H781.827V441.416H777.955ZM784.027 440.228H788.977V442.582H784.027V440.228ZM788.317 435.586H791.243V446.74H788.317V435.586ZM777.713 447.598H780.617V449.424H788.339V447.598H791.243V455.716H777.713V447.598ZM780.617 451.668V453.384H788.339V451.668H780.617ZM803.65 435.872C808.292 435.872 811.02 437.104 811.02 439.348C811.02 441.592 808.292 442.824 803.65 442.824C798.986 442.824 796.28 441.592 796.28 439.348C796.28 437.104 798.986 435.872 803.65 435.872ZM803.65 438.006C800.702 438.006 799.316 438.446 799.316 439.348C799.316 440.294 800.702 440.69 803.65 440.69C806.598 440.69 807.984 440.294 807.984 439.348C807.984 438.446 806.598 438.006 803.65 438.006ZM794.432 443.77H812.846V446.08H794.432V443.77ZM796.544 447.224H810.624V452.46H799.448V454.264H796.566V450.436H807.742V449.402H796.544V447.224ZM796.566 453.626H811.152V455.826H796.566V453.626ZM828.056 443.308H831.29V445.662H828.056V443.308ZM823.326 441.24H825.526V441.768C825.526 446.014 824.294 450.26 821.038 452.13L819.388 449.93C822.292 448.236 823.326 444.892 823.326 441.768V441.24ZM823.898 441.24H826.098V441.768C826.098 444.848 827.154 447.95 830.036 449.49L828.452 451.646C825.152 449.93 823.898 445.948 823.898 441.768V441.24ZM820.158 438.996H829.244V441.35H820.158V438.996ZM823.326 436.268H826.098V440.91H823.326V436.268ZM834.48 435.586H837.252V455.958H834.48V435.586ZM830.366 435.916H833.094V455.034H830.366V435.916ZM854.124 435.586H857.05V447.884H854.124V435.586ZM851.572 441.548H855.312V443.924H851.572V441.548ZM843.476 448.742H857.05V455.738H843.476V448.742ZM854.19 451.052H846.358V453.428H854.19V451.052ZM840.066 437.346H851.968V439.656H840.066V437.346ZM846.028 440.316C848.866 440.316 850.89 441.834 850.89 443.99C850.89 446.168 848.866 447.642 846.028 447.642C843.19 447.642 841.144 446.168 841.144 443.99C841.144 441.834 843.19 440.316 846.028 440.316ZM846.028 442.494C844.774 442.494 843.938 443 843.938 443.99C843.938 444.98 844.774 445.508 846.028 445.508C847.26 445.508 848.096 444.98 848.096 443.99C848.096 443 847.26 442.494 846.028 442.494ZM844.554 435.41H847.48V438.996H844.554V435.41ZM873.35 435.586H876.276V447.51H873.35V435.586ZM875.11 440.47H878.982V442.89H875.11V440.47ZM863.032 448.302H865.914V449.842H873.372V448.302H876.276V455.738H863.032V448.302ZM865.914 452.042V453.45H873.372V452.042H865.914ZM860.238 437.346H872.228V439.656H860.238V437.346ZM866.244 440.206C869.192 440.206 871.238 441.658 871.238 443.814C871.238 445.97 869.192 447.422 866.244 447.422C863.274 447.422 861.228 445.97 861.228 443.814C861.228 441.658 863.274 440.206 866.244 440.206ZM866.244 442.34C864.924 442.34 864.044 442.868 864.044 443.814C864.044 444.782 864.924 445.288 866.244 445.288C867.542 445.288 868.444 444.782 868.444 443.814C868.444 442.868 867.542 442.34 866.244 442.34ZM864.77 435.432H867.696V438.644H864.77V435.432ZM894.579 435.586H897.505V455.958H894.579V435.586ZM881.555 437.522H884.459V450.172H881.555V437.522ZM881.555 448.456H883.359C886.329 448.456 889.629 448.236 892.995 447.576L893.325 449.996C889.827 450.722 886.461 450.942 883.359 450.942H881.555V448.456ZM913.739 435.564H916.687V456.002H913.739V435.564ZM916.027 443.11H919.635V445.508H916.027V443.11ZM901.507 448.676H903.223C906.655 448.676 909.361 448.566 912.353 448.038L912.639 450.458C909.559 451.008 906.765 451.096 903.223 451.096H901.507V448.676ZM901.507 437.456H911.011V439.81H904.411V449.842H901.507V437.456ZM923.347 454.203C922.831 454.203 922.388 454.021 922.019 453.656C921.654 453.286 921.472 452.844 921.472 452.328C921.472 451.818 921.654 451.38 922.019 451.016C922.388 450.651 922.831 450.469 923.347 450.469C923.847 450.469 924.284 450.651 924.659 451.016C925.034 451.38 925.222 451.818 925.222 452.328C925.222 452.672 925.133 452.987 924.956 453.273C924.784 453.555 924.558 453.781 924.276 453.953C923.995 454.12 923.685 454.203 923.347 454.203Z" fill="black"/>
<rect x="383" y="513" width="432" height="44" fill="#FFE1DA"/>
<path d="M409.258 525V541H405.875V528.211H405.781L402.117 530.508V527.508L406.078 525H409.258ZM423.556 527.844H428.308V530.198H423.556V527.844ZM426.768 522.608H429.694V537.458H426.768V522.608ZM416.252 540.274H430.156V542.606H416.252V540.274ZM416.252 536.204H419.178V541.66H416.252V536.204ZM417.352 525.27H419.728V526.546C419.728 530.374 417.924 533.916 414.008 535.214L412.534 532.882C415.9 531.782 417.352 529.12 417.352 526.546V525.27ZM417.968 525.27H420.322V526.546C420.322 528.922 421.708 531.452 424.92 532.53L423.49 534.818C419.706 533.564 417.968 530.176 417.968 526.546V525.27ZM413.326 523.972H424.282V526.282H413.326V523.972ZM437.854 524.148H440.23V527.118C440.23 532.354 438.426 537.084 434.378 538.954L432.64 536.534C436.182 534.994 437.854 531.078 437.854 527.118V524.148ZM438.426 524.148H440.802V527.118C440.802 530.88 442.408 534.62 445.884 536.116L444.168 538.47C440.23 536.666 438.426 532.134 438.426 527.118V524.148ZM446.852 522.564H449.8V543.002H446.852V522.564ZM454.022 524.06H462.734V526.414H454.022V524.06ZM456.53 528.812H459.434V533.916H456.53V528.812ZM461.59 524.06H464.472V525.336C464.472 526.766 464.472 528.79 463.988 531.32L461.15 531.012C461.59 528.504 461.59 526.744 461.59 525.336V524.06ZM466.452 522.586H469.4V537.832H466.452V522.586ZM468.234 528.79H471.82V531.188H468.234V528.79ZM455.804 540.274H470.038V542.606H455.804V540.274ZM455.804 536.468H458.73V541H455.804V536.468ZM453.098 535.104L452.834 532.794C456.354 532.794 461.26 532.728 465.352 532.156L465.528 534.224C461.326 535.016 456.596 535.104 453.098 535.104ZM492.64 522.564H495.544V543.002H492.64V522.564ZM488.02 529.736H493.476V532.09H488.02V529.736ZM479.198 524.17H482.102V529.098H486.106V524.17H488.988V538.206H479.198V524.17ZM482.102 531.364V535.852H486.106V531.364H482.102ZM498.667 533.564H517.103V535.896H498.667V533.564ZM500.889 540.274H515.255V542.606H500.889V540.274ZM500.889 536.908H503.793V541.198H500.889V536.908ZM500.955 530.154H515.145V532.354H500.955V530.154ZM500.955 523.246H514.991V525.468H503.859V531.1H500.955V523.246ZM503.045 526.722H514.529V528.856H503.045V526.722ZM528.123 523.158C532.501 523.158 535.119 524.39 535.119 526.612C535.119 528.834 532.501 530.066 528.123 530.066C523.723 530.066 521.127 528.834 521.127 526.612C521.127 524.39 523.723 523.158 528.123 523.158ZM528.123 524.544C524.867 524.544 522.997 525.292 522.997 526.612C522.997 527.932 524.867 528.68 528.123 528.68C531.357 528.68 533.227 527.932 533.227 526.612C533.227 525.292 531.357 524.544 528.123 524.544ZM519.125 531.386H537.099V532.86H519.125V531.386ZM521.303 534.554H534.811V539.042H523.151V541.462H521.347V537.722H533.007V535.962H521.303V534.554ZM521.347 541.066H535.405V542.496H521.347V541.066ZM553.625 531.54H555.429V535.104H553.625V531.54ZM547.993 527.558H561.479V529.054H547.993V527.558ZM545.551 530.77H563.591V532.244H545.551V530.77ZM547.993 523.114H549.775V528.24H547.993V523.114ZM547.795 534.334H561.303V538.932H549.643V541.572H547.839V537.59H559.477V535.764H547.795V534.334ZM547.839 541.066H561.963V542.496H547.839V541.066ZM580.331 522.806H582.157V542.738H580.331V522.806ZM576.547 530.462H580.771V531.958H576.547V530.462ZM566.537 536.446H568.055C571.575 536.446 574.061 536.336 576.987 535.808L577.163 537.326C574.171 537.854 571.641 537.986 568.055 537.986H566.537V536.446ZM566.493 524.676H575.381V531.65H568.341V536.908H566.537V530.154H573.577V526.172H566.493V524.676ZM593.074 525H595.387L600.824 538.281H601.012L606.449 525H608.762V541H606.949V528.844H606.793L601.793 541H600.043L595.043 528.844H594.887V541H593.074V525ZM626.146 533C626.146 534.687 625.842 536.146 625.232 537.375C624.623 538.604 623.787 539.552 622.725 540.219C621.662 540.885 620.449 541.219 619.084 541.219C617.719 541.219 616.506 540.885 615.443 540.219C614.381 539.552 613.545 538.604 612.936 537.375C612.326 536.146 612.021 534.687 612.021 533C612.021 531.312 612.326 529.854 612.936 528.625C613.545 527.396 614.381 526.448 615.443 525.781C616.506 525.115 617.719 524.781 619.084 524.781C620.449 524.781 621.662 525.115 622.725 525.781C623.787 526.448 624.623 527.396 625.232 528.625C625.842 529.854 626.146 531.312 626.146 533ZM624.271 533C624.271 531.615 624.04 530.445 623.576 529.492C623.118 528.539 622.495 527.818 621.709 527.328C620.928 526.839 620.053 526.594 619.084 526.594C618.115 526.594 617.238 526.839 616.451 527.328C615.67 527.818 615.048 528.539 614.584 529.492C614.126 530.445 613.896 531.615 613.896 533C613.896 534.385 614.126 535.555 614.584 536.508C615.048 537.461 615.67 538.182 616.451 538.672C617.238 539.161 618.115 539.406 619.084 539.406C620.053 539.406 620.928 539.161 621.709 538.672C622.495 538.182 623.118 537.461 623.576 536.508C624.04 535.555 624.271 534.385 624.271 533ZM629.404 525H631.717L637.154 538.281H637.342L642.779 525H645.092V541H643.279V528.844H643.123L638.123 541H636.373L631.373 528.844H631.217V541H629.404V525ZM650.914 525V541H648.977V525H650.914ZM653.939 532.068H671.979V533.454H653.939V532.068ZM656.073 535.06H669.713V539.306H657.943V541.638H656.139V538.052H667.931V536.358H656.073V535.06ZM656.139 541.154H670.351V542.474H656.139V541.154ZM656.227 523.4H669.647V527.536H658.075V529.692H656.271V526.304H667.865V524.698H656.227V523.4ZM656.271 529.252H670.021V530.572H656.271V529.252ZM681.443 524.368H690.243V525.864H681.443V524.368ZM684.435 528.812H686.239V533.784H684.435V528.812ZM689.517 524.368H691.321V525.424C691.321 526.722 691.321 528.702 690.793 531.32L689.011 531.122C689.517 528.504 689.517 526.7 689.517 525.424V524.368ZM694.027 522.828H695.853V537.81H694.027V522.828ZM695.017 529.296H698.691V530.814H695.017V529.296ZM683.291 540.78H696.491V542.276H683.291V540.78ZM683.291 536.424H685.095V541.242H683.291V536.424ZM680.431 534.642L680.233 533.146C683.775 533.146 688.659 533.058 692.685 532.508L692.817 533.828C688.681 534.554 683.929 534.642 680.431 534.642ZM714.221 522.85H716.047V534.686H714.221V522.85ZM715.497 527.91H718.995V529.45H715.497V527.91ZM703.507 535.676H716.047V542.452H703.507V535.676ZM714.265 537.128H705.311V540.978H714.265V537.128ZM701.483 532.156H703.045C706.653 532.156 709.227 532.068 712.329 531.518L712.483 533.014C709.337 533.542 706.719 533.674 703.045 533.674H701.483V532.156ZM701.439 523.906H710.393V529.362H703.265V533.014H701.483V527.954H708.589V525.402H701.439V523.906ZM720.82 526.216H730.676V527.712H720.82V526.216ZM725.748 529.032C728.234 529.032 730.038 530.902 730.038 533.586C730.038 536.248 728.234 538.118 725.748 538.118C723.284 538.118 721.48 536.248 721.48 533.586C721.48 530.902 723.284 529.032 725.748 529.032ZM725.748 530.594C724.23 530.594 723.13 531.826 723.13 533.586C723.13 535.346 724.23 536.578 725.748 536.578C727.288 536.578 728.41 535.346 728.41 533.586C728.41 531.826 727.288 530.594 725.748 530.594ZM735.934 522.828H737.694V542.716H735.934V522.828ZM732.766 531.188H736.528V532.706H732.766V531.188ZM731.688 523.268H733.404V541.748H731.688V523.268ZM724.868 523.4H726.672V527.14H724.868V523.4ZM741.102 538.668H759.12V540.186H741.102V538.668ZM749.154 533.916H750.98V539.108H749.154V533.916ZM743.214 524.236H745.018V527.778H755.16V524.236H756.964V534.4H743.214V524.236ZM745.018 529.252V532.904H755.16V529.252H745.018ZM769.172 529.934H772.978V531.452H769.172V529.934ZM765.454 524.698H766.884V528.482C766.884 532.64 765.146 536.666 762.242 538.448L761.098 537.062C763.826 535.456 765.454 531.892 765.454 528.482V524.698ZM765.806 524.698H767.214V528.416C767.214 531.606 768.71 534.994 771.328 536.578L770.272 538.008C767.412 536.248 765.806 532.288 765.806 528.416V524.698ZM776.476 522.828H778.236V542.716H776.476V522.828ZM772.45 523.246H774.166V541.726H772.45V523.246ZM785.979 533.058H787.783V539.02H785.979V533.058ZM793.327 533.058H795.153V539.02H793.327V533.058ZM781.579 538.668H799.597V540.186H781.579V538.668ZM790.555 524.082C794.757 524.082 797.771 526.084 797.771 529.208C797.771 532.31 794.757 534.312 790.555 534.312C786.331 534.312 783.317 532.31 783.317 529.208C783.317 526.084 786.331 524.082 790.555 524.082ZM790.555 525.534C787.365 525.534 785.077 526.986 785.077 529.208C785.077 531.408 787.365 532.86 790.555 532.86C793.745 532.86 796.011 531.408 796.011 529.208C796.011 526.986 793.745 525.534 790.555 525.534ZM803.748 541.125C803.363 541.125 803.032 540.987 802.756 540.711C802.48 540.435 802.342 540.104 802.342 539.719C802.342 539.333 802.48 539.003 802.756 538.727C803.032 538.451 803.363 538.312 803.748 538.312C804.133 538.312 804.464 538.451 804.74 538.727C805.016 539.003 805.154 539.333 805.154 539.719C805.154 539.974 805.089 540.208 804.959 540.422C804.834 540.635 804.665 540.807 804.451 540.937C804.243 541.063 804.008 541.125 803.748 541.125Z" fill="black"/>
<path d="M467.904 147.174H473.588L479.594 161.837H479.843L485.863 147.174H491.591V169H487.064V154.791H486.903L481.234 168.897H478.173L472.562 154.762H472.372V169H467.904V147.174ZM505.214 169.293C503.28 169.293 501.542 168.854 499.999 167.975C498.456 167.096 497.235 165.821 496.337 164.151C495.438 162.481 494.989 160.465 494.989 158.102C494.989 155.719 495.438 153.692 496.337 152.022C497.235 150.353 498.456 149.078 499.999 148.199C501.542 147.32 503.28 146.881 505.214 146.881C507.147 146.881 508.881 147.32 510.414 148.199C511.957 149.078 513.178 150.353 514.076 152.022C514.975 153.692 515.424 155.719 515.424 158.102C515.424 160.484 514.975 162.511 514.076 164.181C513.178 165.841 511.957 167.11 510.414 167.989C508.881 168.858 507.147 169.293 505.214 169.293ZM499.662 158.102C499.662 160.406 500.165 162.169 501.171 163.39C502.187 164.61 503.534 165.221 505.214 165.221C506.884 165.221 508.222 164.61 509.228 163.39C510.243 162.169 510.751 160.406 510.751 158.102C510.751 155.787 510.243 154.02 509.228 152.799C508.222 151.568 506.884 150.953 505.214 150.953C503.534 150.953 502.187 151.568 501.171 152.799C500.165 154.02 499.662 155.787 499.662 158.102ZM518.852 147.174H524.535L530.541 161.837H530.79L536.811 147.174H542.538V169H538.012V154.791H537.851L532.182 168.897H529.12L523.51 154.762H523.319V169H518.852V147.174ZM550.932 147.174V169H546.332V147.174H550.932ZM557.904 169.278C557.182 169.278 556.571 169.034 556.073 168.546C555.575 168.048 555.326 167.442 555.326 166.729C555.326 166.007 555.575 165.401 556.073 164.913C556.571 164.425 557.182 164.181 557.904 164.181C558.627 164.181 559.237 164.425 559.735 164.913C560.233 165.401 560.482 166.007 560.482 166.729C560.482 167.442 560.233 168.048 559.735 168.546C559.237 169.034 558.627 169.278 557.904 169.278ZM557.904 158.512C557.182 158.512 556.571 158.268 556.073 157.779C555.575 157.281 555.326 156.676 555.326 155.963C555.326 155.24 555.575 154.635 556.073 154.146C556.571 153.658 557.182 153.414 557.904 153.414C558.627 153.414 559.237 153.658 559.735 154.146C560.233 154.635 560.482 155.24 560.482 155.963C560.482 156.676 560.233 157.281 559.735 157.779C559.237 158.268 558.627 158.512 557.904 158.512ZM571.445 165.82H596.015V167.89H571.445V165.82ZM582.425 158.8H584.915V166.39H582.425V158.8ZM574.295 146.47H593.015V159.25H574.295V146.47ZM590.615 148.48H576.725V157.24H590.615V148.48ZM602.403 154.3H620.523V156.34H602.403V154.3ZM599.013 159.85H623.613V161.92H599.013V159.85ZM609.993 160.99H612.453V171.25H609.993V160.99ZM602.403 145.81H620.163V147.85H604.923V155.29H602.403V145.81ZM635.431 146.17C639.661 146.17 642.691 148.78 642.691 152.56C642.691 156.37 639.661 158.98 635.431 158.98C631.201 158.98 628.141 156.37 628.141 152.56C628.141 148.78 631.201 146.17 635.431 146.17ZM635.431 148.33C632.611 148.33 630.571 150.04 630.571 152.56C630.571 155.08 632.611 156.82 635.431 156.82C638.221 156.82 640.261 155.08 640.261 152.56C640.261 150.04 638.221 148.33 635.431 148.33ZM646.231 144.19H648.721V171.37H646.231V144.19ZM627.121 165.43L626.761 163.36C631.711 163.36 638.551 163.33 644.461 162.4L644.671 164.23C638.581 165.4 631.951 165.43 627.121 165.43ZM662.741 146.86H675.221V164.53H662.741V146.86ZM672.791 148.87H665.171V162.52H672.791V148.87ZM680.891 144.19H683.381V171.37H680.891V144.19ZM699.789 144.34H701.889V145.33C701.889 149.95 696.609 153.04 690.969 153.76L690.129 151.84C695.049 151.3 699.789 148.69 699.789 145.33V144.34ZM700.209 144.34H702.309V145.33C702.309 148.69 707.049 151.3 711.969 151.84L711.099 153.76C705.489 153.04 700.209 149.95 700.209 145.33V144.34ZM699.789 157H702.249V161.14H699.789V157ZM688.779 155.53H713.289V157.54H688.779V155.53ZM691.749 160.21H710.169V166.39H694.269V169.66H691.809V164.59H707.709V162.13H691.749V160.21ZM691.809 169.09H710.979V171.04H691.809V169.09ZM717.846 146.32H729.846V148.36H717.846V146.32ZM721.926 152.38H724.386V159.16H721.926V152.38ZM728.856 146.32H731.316V147.76C731.316 149.53 731.316 152.23 730.596 155.8L728.166 155.53C728.856 151.96 728.856 149.5 728.856 147.76V146.32ZM735.006 144.22H737.496V164.65H735.006V144.22ZM736.356 153.04H741.366V155.11H736.356V153.04ZM720.366 168.7H738.366V170.74H720.366V168.7ZM720.366 162.76H722.826V169.33H720.366V162.76ZM716.466 160.33L716.196 158.29C721.026 158.29 727.686 158.17 733.176 157.42L733.356 159.22C727.716 160.21 721.236 160.33 716.466 160.33Z" fill="black"/>
<path fill-rule="evenodd" clip-rule="evenodd" d="M469 129C459.611 129 452 136.611 452 146V172C452 181.389 459.611 189 469 189H740C749.389 189 757 181.389 757 172V146C757 136.611 749.389 129 740 129H469ZM474.865 132.692C465.477 132.692 457.865 140.303 457.865 149.692V167.385C457.865 176.773 465.477 184.385 474.865 184.385H736.09C745.479 184.385 753.09 176.773 753.09 167.385V149.692C753.09 140.303 745.479 132.692 736.09 132.692H474.865Z" fill="#FFE882"/>
<ellipse cx="604.5" cy="63" rx="14.5" ry="14" fill="#FFE882"/>
<defs>
<filter id="filter0_d_95_278" x="515" y="0" width="179.629" height="109.988" filterUnits="userSpaceOnUse" color-interpolation-filters="sRGB">
<feFlood flood-opacity="0" result="BackgroundImageFix"/>
<feColorMatrix in="SourceAlpha" type="matrix" values="0 0 0 0 0 0 0 0 0 0 0 0 0 0 0 0 0 0 127 0" result="hardAlpha"/>
<feOffset dy="4"/>
<feGaussianBlur stdDeviation="2"/>
<feComposite in2="hardAlpha" operator="out"/>
<feColorMatrix type="matrix" values="0 0 0 0 0 0 0 0 0 0 0 0 0 0 0 0 0 0 0.25 0"/>
<feBlend mode="normal" in2="BackgroundImageFix" result="effect1_dropShadow_95_278"/>
<feBlend mode="normal" in="SourceGraphic" in2="effect1_dropShadow_95_278" result="shape"/>
</filter>
<filter id="filter1_d_95_278" x="515" y="52.7871" width="179.629" height="57.2012" filterUnits="userSpaceOnUse" color-interpolation-filters="sRGB">
<feFlood flood-opacity="0" result="BackgroundImageFix"/>
<feColorMatrix in="SourceAlpha" type="matrix" values="0 0 0 0 0 0 0 0 0 0 0 0 0 0 0 0 0 0 127 0" result="hardAlpha"/>
<feOffset dy="4"/>
<feGaussianBlur stdDeviation="2"/>
<feComposite in2="hardAlpha" operator="out"/>
<feColorMatrix type="matrix" values="0 0 0 0 0 0 0 0 0 0 0 0 0 0 0 0 0 0 0.25 0"/>
<feBlend mode="normal" in2="BackgroundImageFix" result="effect1_dropShadow_95_278"/>
<feBlend mode="normal" in="SourceGraphic" in2="effect1_dropShadow_95_278" result="shape"/>
</filter>
</defs>
</svg>
