<svg width="1223" height="242" viewBox="0 0 1223 242" fill="none" xmlns="http://www.w3.org/2000/svg">
<rect width="1223" height="242" fill="#FFD0C5"/>
<g filter="url(#filter0_di_76_18)">
<rect x="13" y="7.875" width="1197" height="219.068" fill="#FFB5A4"/>
</g>
<g filter="url(#filter1_di_76_18)">
<rect width="1134" height="189.716" transform="matrix(1 0 0 -1 44 211.193)" fill="#FFD0C5"/>
</g>
<path d="M281.645 84.19H284.135V111.37H281.645V84.19ZM269.825 86.29C273.845 86.29 276.725 89.98 276.725 95.74C276.725 101.53 273.845 105.22 269.825 105.22C265.835 105.22 262.955 101.53 262.955 95.74C262.955 89.98 265.835 86.29 269.825 86.29ZM269.825 88.54C267.185 88.54 265.325 91.36 265.325 95.74C265.325 100.15 267.185 103.03 269.825 103.03C272.495 103.03 274.325 100.15 274.325 95.74C274.325 91.36 272.495 88.54 269.825 88.54ZM310.173 84.22H312.573V111.34H310.173V84.22ZM300.303 93.94H305.493V96.01H300.303V93.94ZM304.743 84.85H307.083V109.96H304.743V84.85ZM295.083 88.42H297.003V91.87C297.003 97.81 294.723 103.42 290.733 105.94L289.203 104.08C292.983 101.8 295.083 96.85 295.083 91.87V88.42ZM295.593 88.42H297.513V91.87C297.513 96.58 299.553 101.29 303.273 103.45L301.743 105.28C297.783 102.88 295.593 97.54 295.593 91.87V88.42ZM289.953 87.37H302.343V89.44H289.953V87.37ZM344.168 84.22H346.658V100.33H344.168V84.22ZM345.938 91.27H350.648V93.34H345.938V91.27ZM337.988 100.9C343.478 100.9 346.898 102.85 346.898 106.12C346.898 109.39 343.478 111.31 337.988 111.31C332.498 111.31 329.078 109.39 329.078 106.12C329.078 102.85 332.498 100.9 337.988 100.9ZM337.988 102.94C333.968 102.94 331.508 104.08 331.508 106.12C331.508 108.1 333.968 109.27 337.988 109.27C342.008 109.27 344.468 108.1 344.468 106.12C344.468 104.08 342.008 102.94 337.988 102.94ZM326.798 96.16H328.898C334.508 96.16 337.658 95.98 341.288 95.23L341.588 97.27C337.838 98.02 334.628 98.2 328.898 98.2H326.798V96.16ZM326.798 86.29H338.768V88.33H329.258V97.48H326.798V86.29ZM372.905 84.25H375.425V104.11H372.905V84.25ZM357.995 108.7H376.235V110.74H357.995V108.7ZM357.995 102.28H360.455V109.66H357.995V102.28ZM360.245 85.72H362.315V88.48C362.315 93.76 359.315 98.38 354.755 100.24L353.465 98.23C357.545 96.64 360.245 92.68 360.245 88.48V85.72ZM360.695 85.72H362.735V88.48C362.735 92.56 365.465 96.25 369.515 97.72L368.195 99.73C363.695 97.99 360.695 93.64 360.695 88.48V85.72ZM380.763 98.47H405.273V100.51H380.763V98.47ZM383.943 108.7H402.573V110.74H383.943V108.7ZM383.943 102.88H386.433V109.33H383.943V102.88ZM393.033 85.12C398.823 85.12 402.573 87.16 402.573 90.55C402.573 93.91 398.823 95.95 393.033 95.95C387.213 95.95 383.493 93.91 383.493 90.55C383.493 87.16 387.213 85.12 393.033 85.12ZM393.033 87.16C388.773 87.16 386.043 88.42 386.043 90.55C386.043 92.68 388.773 93.94 393.033 93.94C397.293 93.94 400.023 92.68 400.023 90.55C400.023 88.42 397.293 87.16 393.033 87.16ZM423.458 86.83H425.498V89.08C425.498 94.06 422.528 98.2 417.938 99.85L416.678 97.87C420.758 96.46 423.458 92.95 423.458 89.08V86.83ZM423.908 86.83H425.948V89.05C425.948 92.65 428.558 95.89 432.548 97.24L431.348 99.22C426.818 97.69 423.908 93.7 423.908 89.05V86.83ZM417.398 86.11H431.918V88.12H417.398V86.11ZM435.368 84.22H437.858V100.18H435.368V84.22ZM437.168 90.97H441.878V93.04H437.168V90.97ZM420.818 101.41H437.858V110.98H420.818V101.41ZM435.428 103.39H423.248V108.97H435.428V103.39ZM451.566 86.56H453.606V91.42C453.606 97.66 450.246 103.45 445.806 105.7L444.276 103.66C448.296 101.74 451.566 96.55 451.566 91.42V86.56ZM451.986 86.56H454.026V91.42C454.026 96.37 457.266 101.35 461.286 103.21L459.786 105.19C455.376 103.03 451.986 97.45 451.986 91.42V86.56ZM464.106 84.19H466.596V111.37H464.106V84.19ZM487.601 86.56H489.641V91.42C489.641 97.66 486.281 103.45 481.841 105.7L480.311 103.66C484.331 101.74 487.601 96.55 487.601 91.42V86.56ZM488.021 86.56H490.061V91.42C490.061 96.37 493.301 101.35 497.321 103.21L495.821 105.19C491.411 103.03 488.021 97.45 488.021 91.42V86.56ZM500.141 84.19H502.631V111.37H500.141V84.19ZM526.599 84.22H529.089V100.12H526.599V84.22ZM528.399 91.06H533.109V93.16H528.399V91.06ZM519.099 85.96H521.709C521.709 92.8 516.939 97.69 509.019 99.85L507.999 97.9C515.019 95.98 519.099 92.05 519.099 87.04V85.96ZM509.199 85.96H520.479V87.97H509.199V85.96ZM511.479 101.38H529.089V111.34H526.599V103.39H511.479V101.38ZM550.754 87.13H552.794V89.32C552.794 94.3 549.794 98.47 545.234 100.12L543.974 98.14C548.054 96.7 550.754 93.19 550.754 89.32V87.13ZM551.204 87.13H553.244V89.29C553.244 92.83 555.824 96.01 559.814 97.33L558.614 99.28C554.084 97.78 551.204 93.91 551.204 89.29V87.13ZM544.724 86.23H559.214V88.27H544.724V86.23ZM562.634 84.22H565.124V100.57H562.634V84.22ZM564.434 91.09H569.144V93.19H564.434V91.09ZM556.484 101.29C562.004 101.29 565.394 103.12 565.394 106.27C565.394 109.45 562.004 111.28 556.484 111.28C550.964 111.28 547.574 109.45 547.574 106.27C547.574 103.12 550.964 101.29 556.484 101.29ZM556.484 103.3C552.464 103.3 550.004 104.38 550.004 106.27C550.004 108.19 552.464 109.33 556.484 109.33C560.504 109.33 562.964 108.19 562.964 106.27C562.964 104.38 560.504 103.3 556.484 103.3ZM577.781 86.47C581.291 86.47 583.571 90.1 583.571 95.92C583.571 101.74 581.291 105.37 577.781 105.37C574.271 105.37 572.021 101.74 572.021 95.92C572.021 90.1 574.271 86.47 577.781 86.47ZM577.781 88.78C575.651 88.78 574.301 91.54 574.301 95.92C574.301 100.3 575.651 103.06 577.781 103.06C579.911 103.06 581.261 100.3 581.261 95.92C581.261 91.54 579.911 88.78 577.781 88.78ZM592.331 84.22H594.731V111.34H592.331V84.22ZM588.041 94.96H593.231V97H588.041V94.96ZM586.331 84.79H588.701V109.99H586.331V84.79ZM618.999 84.25H621.519V104.05H618.999V84.25ZM604.089 108.7H622.329V110.74H604.089V108.7ZM604.089 102.01H606.549V109.39H604.089V102.01ZM606.969 86.11C611.019 86.11 614.019 88.87 614.019 92.8C614.019 96.7 611.019 99.49 606.969 99.49C602.919 99.49 599.889 96.7 599.889 92.8C599.889 88.87 602.919 86.11 606.969 86.11ZM606.969 88.27C604.329 88.27 602.319 90.13 602.319 92.8C602.319 95.44 604.329 97.3 606.969 97.3C609.609 97.3 611.619 95.44 611.619 92.8C611.619 90.13 609.609 88.27 606.969 88.27ZM635.677 86.17C639.907 86.17 642.937 88.78 642.937 92.56C642.937 96.37 639.907 98.98 635.677 98.98C631.447 98.98 628.387 96.37 628.387 92.56C628.387 88.78 631.447 86.17 635.677 86.17ZM635.677 88.33C632.857 88.33 630.817 90.04 630.817 92.56C630.817 95.08 632.857 96.82 635.677 96.82C638.467 96.82 640.507 95.08 640.507 92.56C640.507 90.04 638.467 88.33 635.677 88.33ZM646.477 84.19H648.967V111.37H646.477V84.19ZM627.367 105.43L627.007 103.36C631.957 103.36 638.797 103.33 644.707 102.4L644.917 104.23C638.827 105.4 632.197 105.43 627.367 105.43ZM673.602 93.91H678.792V95.98H673.602V93.91ZM668.532 86.77H670.482V91.93C670.482 97.6 668.112 103.09 664.152 105.52L662.592 103.63C666.312 101.44 668.532 96.58 668.532 91.93V86.77ZM669.012 86.77H670.932V91.84C670.932 96.19 672.972 100.81 676.542 102.97L675.102 104.92C671.202 102.52 669.012 97.12 669.012 91.84V86.77ZM683.562 84.22H685.962V111.34H683.562V84.22ZM678.072 84.79H680.412V109.99H678.072V84.79ZM697.09 85.63H699.16V88.39C699.16 93.61 696.22 97.93 691.69 99.7L690.37 97.69C694.45 96.19 697.09 92.53 697.09 88.39V85.63ZM697.54 85.63H699.58V88.57C699.58 92.23 702.28 95.62 706.18 96.97L704.86 98.92C700.51 97.3 697.54 93.28 697.54 88.57V85.63ZM709.06 84.22H711.55V100.66H709.06V84.22ZM710.86 91.21H715.57V93.31H710.86V91.21ZM702.91 101.41C708.46 101.41 711.82 103.24 711.82 106.36C711.82 109.48 708.46 111.28 702.91 111.28C697.36 111.28 694 109.48 694 106.36C694 103.24 697.36 101.41 702.91 101.41ZM702.91 103.39C698.89 103.39 696.43 104.47 696.43 106.36C696.43 108.25 698.89 109.33 702.91 109.33C706.93 109.33 709.39 108.25 709.39 106.36C709.39 104.47 706.93 103.39 702.91 103.39ZM726.525 97.81H751.125V99.85H726.525V97.81ZM737.535 93.7H739.995V98.74H737.535V93.7ZM737.505 84.64H739.665V85.84C739.665 90.73 734.475 94.21 728.955 95.11L727.995 93.13C732.855 92.47 737.505 89.47 737.505 85.84V84.64ZM737.895 84.64H740.025V85.84C740.025 89.47 744.705 92.47 749.535 93.13L748.605 95.11C743.115 94.18 737.895 90.73 737.895 85.84V84.64ZM729.255 102.49H748.005V111.34H745.515V104.5H729.255V102.49ZM766.392 85.93C772.032 85.93 776.232 88.93 776.232 93.43C776.232 97.96 772.032 100.93 766.392 100.93C760.752 100.93 756.522 97.96 756.522 93.43C756.522 88.93 760.752 85.93 766.392 85.93ZM766.392 87.97C762.102 87.97 758.922 90.16 758.922 93.43C758.922 96.67 762.102 98.89 766.392 98.89C770.682 98.89 773.862 96.67 773.862 93.43C773.862 90.16 770.682 87.97 766.392 87.97ZM754.152 105.67H778.722V107.77H754.152V105.67ZM781.75 105.94H806.32V108.01H781.75V105.94ZM792.73 100.12H795.22V106.81H792.73V100.12ZM784.72 86.23H803.29V94.45H787.27V99.88H784.81V92.44H800.83V88.24H784.72V86.23ZM784.81 98.83H803.92V100.87H784.81V98.83ZM817.785 95.53H842.295V97.57H817.785V95.53ZM821.025 91.33H839.385V93.34H821.025V91.33ZM821.025 85.09H839.085V87.13H823.485V92.95H821.025V85.09ZM820.725 99.91H839.145V106.3H823.245V109.72H820.785V104.44H836.685V101.86H820.725V99.91ZM820.785 109.06H839.955V111.04H820.785V109.06ZM852.613 86.29C856.543 86.29 859.363 89.98 859.363 95.74C859.363 101.53 856.543 105.22 852.613 105.22C848.653 105.22 845.863 101.53 845.863 95.74C845.863 89.98 848.653 86.29 852.613 86.29ZM852.613 88.54C850.003 88.54 848.233 91.36 848.233 95.74C848.233 100.15 850.003 103.03 852.613 103.03C855.223 103.03 856.993 100.15 856.993 95.74C856.993 91.36 855.223 88.54 852.613 88.54ZM865.243 84.19H867.703V111.37H865.243V84.19ZM858.553 94.54H866.323V96.58H858.553V94.54ZM891.52 84.22H894.01V98.89H891.52V84.22ZM893.32 90.61H898.03V92.71H893.32V90.61ZM883.99 85.84H886.69C886.69 92.68 881.89 97.27 873.97 99.22L873.01 97.18C880.03 95.5 883.99 91.81 883.99 87.07V85.84ZM874.21 85.84H885.49V87.88H874.21V85.84ZM876.88 100.12H879.34V103.51H891.55V100.12H894.01V110.98H876.88V100.12ZM879.34 105.49V108.97H891.55V105.49H879.34ZM920.288 84.22H922.778V111.34H920.288V84.22ZM902.288 86.86H904.748V103.66H902.288V86.86ZM902.288 102.19H904.508C908.618 102.19 912.908 101.89 917.498 100.93L917.798 103.06C913.088 104.02 908.798 104.35 904.508 104.35H902.288V102.19ZM946.506 84.19H949.026V111.37H946.506V84.19ZM948.426 94.9H953.466V97H948.426V94.9ZM929.316 102.52H931.446C936.456 102.52 939.966 102.34 944.016 101.59L944.286 103.69C940.116 104.47 936.546 104.62 931.446 104.62H929.316V102.52ZM929.316 86.83H941.916V88.87H931.776V103.45H929.316V86.83ZM958.407 109.17C957.881 109.17 957.43 108.982 957.054 108.606C956.678 108.229 956.489 107.778 956.489 107.253C956.489 106.727 956.678 106.276 957.054 105.9C957.43 105.523 957.881 105.335 958.407 105.335C958.933 105.335 959.384 105.523 959.76 105.9C960.136 106.276 960.325 106.727 960.325 107.253C960.325 107.601 960.236 107.92 960.058 108.212C959.888 108.503 959.657 108.737 959.366 108.915C959.082 109.085 958.762 109.17 958.407 109.17ZM310.967 123.1H328.427V125.11H310.967V123.1ZM308.327 141.31H332.837V143.38H308.327V141.31ZM327.107 123.1H329.537V125.8C329.537 129.28 329.537 133.15 328.517 139L326.027 138.76C327.107 133.21 327.107 129.16 327.107 125.8V123.1ZM335.925 131.53H360.435V133.57H335.925V131.53ZM339.165 127.33H357.525V129.34H339.165V127.33ZM339.165 121.09H357.225V123.13H341.625V128.95H339.165V121.09ZM338.865 135.91H357.285V142.3H341.385V145.72H338.925V140.44H354.825V137.86H338.865V135.91ZM338.925 145.06H358.095V147.04H338.925V145.06ZM363.492 134.47H388.002V136.51H363.492V134.47ZM366.672 144.7H385.302V146.74H366.672V144.7ZM366.672 138.88H369.162V145.33H366.672V138.88ZM375.762 121.12C381.552 121.12 385.302 123.16 385.302 126.55C385.302 129.91 381.552 131.95 375.762 131.95C369.942 131.95 366.222 129.91 366.222 126.55C366.222 123.16 369.942 121.12 375.762 121.12ZM375.762 123.16C371.502 123.16 368.772 124.42 368.772 126.55C368.772 128.68 371.502 129.94 375.762 129.94C380.022 129.94 382.752 128.68 382.752 126.55C382.752 124.42 380.022 123.16 375.762 123.16ZM401.088 122.86H413.568V140.53H401.088V122.86ZM411.138 124.87H403.518V138.52H411.138V124.87ZM419.238 120.19H421.728V147.37H419.238V120.19ZM438.135 120.34H440.235V121.33C440.235 125.95 434.955 129.04 429.315 129.76L428.475 127.84C433.395 127.3 438.135 124.69 438.135 121.33V120.34ZM438.555 120.34H440.655V121.33C440.655 124.69 445.395 127.3 450.315 127.84L449.445 129.76C443.835 129.04 438.555 125.95 438.555 121.33V120.34ZM438.135 133H440.595V137.14H438.135V133ZM427.125 131.53H451.635V133.54H427.125V131.53ZM430.095 136.21H448.515V142.39H432.615V145.66H430.155V140.59H446.055V138.13H430.095V136.21ZM430.155 145.09H449.325V147.04H430.155V145.09ZM456.193 122.32H468.193V124.36H456.193V122.32ZM460.273 128.38H462.733V135.16H460.273V128.38ZM467.203 122.32H469.663V123.76C469.663 125.53 469.663 128.23 468.943 131.8L466.513 131.53C467.203 127.96 467.203 125.5 467.203 123.76V122.32ZM473.353 120.22H475.843V140.65H473.353V120.22ZM474.703 129.04H479.713V131.11H474.703V129.04ZM458.713 144.7H476.713V146.74H458.713V144.7ZM458.713 138.76H461.173V145.33H458.713V138.76ZM454.813 136.33L454.543 134.29C459.373 134.29 466.033 134.17 471.523 133.42L471.703 135.22C466.063 136.21 459.583 136.33 454.813 136.33ZM493.331 130.75H498.461V132.82H493.331V130.75ZM502.991 120.22H505.391V147.34H502.991V120.22ZM497.621 120.79H499.991V145.99H497.621V120.79ZM488.441 122.47C491.951 122.47 494.231 126.1 494.231 131.92C494.231 137.74 491.951 141.37 488.441 141.37C484.931 141.37 482.681 137.74 482.681 131.92C482.681 126.1 484.931 122.47 488.441 122.47ZM488.441 124.78C486.311 124.78 484.961 127.54 484.961 131.92C484.961 136.3 486.311 139.06 488.441 139.06C490.601 139.06 491.951 136.3 491.951 131.92C491.951 127.54 490.601 124.78 488.441 124.78ZM523.478 129.4H531.038V131.44H523.478V129.4ZM516.938 122.56H518.978V127.39C518.978 133.48 515.768 139.3 511.478 141.61L509.888 139.63C513.878 137.65 516.938 132.43 516.938 127.39V122.56ZM517.418 122.56H519.428V127.39C519.428 132.34 522.488 137.26 526.418 139.12L524.948 141.13C520.568 138.91 517.418 133.33 517.418 127.39V122.56ZM529.808 120.19H532.268V147.37H529.808V120.19ZM553.213 122.29C557.143 122.29 559.963 125.98 559.963 131.74C559.963 137.53 557.143 141.22 553.213 141.22C549.253 141.22 546.463 137.53 546.463 131.74C546.463 125.98 549.253 122.29 553.213 122.29ZM553.213 124.54C550.603 124.54 548.833 127.36 548.833 131.74C548.833 136.15 550.603 139.03 553.213 139.03C555.823 139.03 557.593 136.15 557.593 131.74C557.593 127.36 555.823 124.54 553.213 124.54ZM565.843 120.19H568.303V147.37H565.843V120.19ZM559.153 130.54H566.923V132.58H559.153V130.54ZM578.051 144.7H596.831V146.74H578.051V144.7ZM578.051 138.34H580.571V145.84H578.051V138.34ZM593.681 120.25H596.171V139.99H593.681V120.25ZM588.821 127.66H595.691V129.7H588.821V127.66ZM574.271 133.57H575.471C577.091 133.57 579.131 133.51 581.441 133L581.681 135.04C579.191 135.58 577.211 135.61 575.471 135.61H574.271V133.57ZM574.271 122.47H581.141V124.51H576.731V134.17H574.271V122.47ZM582.611 133.57H583.961C586.841 133.57 588.791 133.51 591.101 132.97L591.341 135.01C588.911 135.52 586.931 135.61 583.961 135.61H582.611V133.57ZM582.611 122.47H590.081V124.51H585.041V134.11H582.611V122.47ZM622.576 125.2H629.836V127.24H622.576V125.2ZM622.336 130.84H629.656V132.88H622.336V130.84ZM629.416 120.22H631.906V136.48H629.416V120.22ZM620.926 122.26H623.596C623.596 129.25 618.766 134.14 610.966 136.48L609.946 134.47C616.876 132.46 620.926 128.47 620.926 123.34V122.26ZM611.356 122.26H622.636V124.3H611.356V122.26ZM623.086 136.78C628.576 136.78 632.056 138.73 632.056 142C632.056 145.27 628.576 147.22 623.086 147.22C617.596 147.22 614.116 145.27 614.116 142C614.116 138.73 617.596 136.78 623.086 136.78ZM623.086 138.73C619.126 138.73 616.576 139.96 616.576 142C616.576 144.04 619.126 145.24 623.086 145.24C627.076 145.24 629.626 144.04 629.626 142C629.626 139.96 627.076 138.73 623.086 138.73ZM657.014 120.22H659.504V136.63H657.014V120.22ZM652.514 128.44H658.124V130.51H652.514V128.44ZM641.924 138.07H659.504V146.98H641.924V138.07ZM657.074 140.08H644.354V144.97H657.074V140.08ZM637.244 123.04H652.934V125.05H637.244V123.04ZM645.074 126.43C648.734 126.43 651.344 128.41 651.344 131.29C651.344 134.17 648.734 136.09 645.074 136.09C641.414 136.09 638.804 134.17 638.804 131.29C638.804 128.41 641.414 126.43 645.074 126.43ZM645.074 128.35C642.794 128.35 641.174 129.52 641.174 131.29C641.174 133.03 642.794 134.2 645.074 134.2C647.354 134.2 648.974 133.03 648.974 131.29C648.974 129.52 647.354 128.35 645.074 128.35ZM643.844 119.95H646.334V124.48H643.844V119.95ZM666.012 123.19H678.282V125.2H666.012V123.19ZM670.242 130.93H672.702V140.11H670.242V130.93ZM677.262 123.19H679.692V124.63C679.692 126.85 679.692 130.39 678.912 135.43L676.452 135.19C677.262 130.3 677.262 126.82 677.262 124.63V123.19ZM683.112 120.22H685.572V147.34H683.112V120.22ZM684.912 131.56H689.922V133.66H684.912V131.56ZM664.812 141.43L664.512 139.33C669.432 139.33 675.972 139.24 681.462 138.55L681.582 140.38C675.972 141.28 669.612 141.4 664.812 141.43ZM701.897 122.92H714.347V140.47H701.897V122.92ZM711.917 124.93H704.327V138.46H711.917V124.93ZM719.177 120.22H721.697V147.34H719.177V120.22ZM721.097 131.05H726.137V133.15H721.097V131.05ZM739.304 122.89H741.464V124.03C741.464 128.89 736.304 132.46 730.844 133.39L729.884 131.41C734.654 130.72 739.304 127.6 739.304 124.03V122.89ZM739.934 122.89H742.064V124.03C742.064 127.6 746.744 130.72 751.484 131.41L750.554 133.39C745.064 132.46 739.934 128.89 739.934 124.03V122.89ZM739.394 136.99H741.854V147.34H739.394V136.99ZM728.444 135.67H752.954V137.71H728.444V135.67ZM730.724 121.9H750.584V123.91H730.724V121.9ZM774.402 120.22H776.892V147.34H774.402V120.22ZM776.292 131.35H781.332V133.45H776.292V131.35ZM755.892 124.54H771.882V126.58H755.892V124.54ZM763.992 128.83C767.832 128.83 770.592 131.41 770.592 135.07C770.592 138.73 767.832 141.31 763.992 141.31C760.182 141.31 757.392 138.73 757.392 135.07C757.392 131.41 760.182 128.83 763.992 128.83ZM763.992 130.9C761.532 130.9 759.762 132.61 759.762 135.07C759.762 137.5 761.532 139.24 763.992 139.24C766.452 139.24 768.222 137.5 768.222 135.07C768.222 132.61 766.452 130.9 763.992 130.9ZM762.702 120.55H765.192V125.47H762.702V120.55ZM804.28 120.22H806.68V147.34H804.28V120.22ZM792.52 131.29H799.36V133.3H792.52V131.29ZM798.64 120.91H800.98V145.96H798.64V120.91ZM792.85 123.64H795.25C795.25 130.75 792.4 137.14 785.08 141.49L783.61 139.72C790 135.88 792.85 130.48 792.85 124.09V123.64ZM784.81 123.64H793.78V125.68H784.81V123.64ZM822.255 127.33H835.275V129.25H822.255V127.33ZM822.255 121.36H834.975V123.31H824.805V128.2H822.255V121.36ZM827.445 128.41H829.935V132.94H827.445V128.41ZM839.415 120.22H841.905V134.8H839.415V120.22ZM820.155 134.17L819.825 132.19C825.075 132.16 831.705 132.04 837.315 131.41L837.465 133.15C831.705 133.99 825.255 134.17 820.155 134.17ZM824.025 136.03H841.905V142.36H826.515V145.84H824.055V140.47H839.475V138.01H824.025V136.03ZM824.055 145.06H842.835V147.04H824.055V145.06ZM866.082 120.22H868.542V147.34H866.082V120.22ZM867.762 131.38H872.592V133.48H867.762V131.38ZM853.092 123.13H855.372C855.372 129.67 853.992 136 849.132 141.25L847.122 139.84C851.592 135.19 853.092 129.55 853.092 123.4V123.13ZM847.992 123.13H854.022V125.2H847.992V123.13ZM860.472 123.13H862.782C862.782 129.7 861.852 137.14 856.872 143.05L854.862 141.67C859.452 136.36 860.472 129.64 860.472 123.37V123.13ZM856.242 123.13H861.492V125.2H856.242V123.13ZM880.87 134.17H883.33V142.3H880.87V134.17ZM890.89 134.17H893.38V142.3H890.89V134.17ZM874.87 141.82H899.44V143.89H874.87V141.82ZM887.11 121.93C892.84 121.93 896.95 124.66 896.95 128.92C896.95 133.15 892.84 135.88 887.11 135.88C881.35 135.88 877.24 133.15 877.24 128.92C877.24 124.66 881.35 121.93 887.11 121.93ZM887.11 123.91C882.76 123.91 879.64 125.89 879.64 128.92C879.64 131.92 882.76 133.9 887.11 133.9C891.46 133.9 894.55 131.92 894.55 128.92C894.55 125.89 891.46 123.91 887.11 123.91ZM906.55 138.864V138.736C906.564 137.379 906.706 136.3 906.976 135.497C907.246 134.695 907.63 134.045 908.127 133.548C908.624 133.05 909.221 132.592 909.917 132.173C910.336 131.918 910.712 131.616 911.046 131.268C911.38 130.913 911.642 130.504 911.834 130.043C912.033 129.581 912.133 129.07 912.133 128.509C912.133 127.812 911.969 127.209 911.642 126.697C911.316 126.186 910.879 125.792 910.332 125.515C909.785 125.238 909.178 125.099 908.51 125.099C907.928 125.099 907.367 125.22 906.827 125.462C906.287 125.703 905.836 126.083 905.474 126.602C905.112 127.12 904.902 127.798 904.846 128.636H902.161C902.218 127.429 902.53 126.396 903.098 125.536C903.674 124.677 904.43 124.02 905.368 123.565C906.312 123.111 907.36 122.884 908.51 122.884C909.76 122.884 910.847 123.132 911.77 123.629C912.701 124.126 913.418 124.808 913.922 125.675C914.434 126.541 914.689 127.528 914.689 128.636C914.689 129.418 914.569 130.124 914.327 130.756C914.093 131.388 913.752 131.953 913.304 132.45C912.864 132.947 912.331 133.388 911.706 133.771C911.081 134.162 910.581 134.574 910.204 135.007C909.828 135.433 909.554 135.941 909.384 136.531C909.214 137.12 909.121 137.855 909.107 138.736V138.864H906.55ZM907.914 145.17C907.388 145.17 906.937 144.982 906.561 144.606C906.184 144.229 905.996 143.778 905.996 143.253C905.996 142.727 906.184 142.276 906.561 141.9C906.937 141.523 907.388 141.335 907.914 141.335C908.439 141.335 908.89 141.523 909.267 141.9C909.643 142.276 909.831 142.727 909.831 143.253C909.831 143.601 909.743 143.92 909.565 144.212C909.395 144.503 909.164 144.737 908.873 144.915C908.589 145.085 908.269 145.17 907.914 145.17Z" fill="black"/>
<defs>
<filter id="filter0_di_76_18" x="9" y="7.875" width="1205" height="227.068" filterUnits="userSpaceOnUse" color-interpolation-filters="sRGB">
<feFlood flood-opacity="0" result="BackgroundImageFix"/>
<feColorMatrix in="SourceAlpha" type="matrix" values="0 0 0 0 0 0 0 0 0 0 0 0 0 0 0 0 0 0 127 0" result="hardAlpha"/>
<feOffset dy="4"/>
<feGaussianBlur stdDeviation="2"/>
<feComposite in2="hardAlpha" operator="out"/>
<feColorMatrix type="matrix" values="0 0 0 0 0 0 0 0 0 0 0 0 0 0 0 0 0 0 0.25 0"/>
<feBlend mode="normal" in2="BackgroundImageFix" result="effect1_dropShadow_76_18"/>
<feBlend mode="normal" in="SourceGraphic" in2="effect1_dropShadow_76_18" result="shape"/>
<feColorMatrix in="SourceAlpha" type="matrix" values="0 0 0 0 0 0 0 0 0 0 0 0 0 0 0 0 0 0 127 0" result="hardAlpha"/>
<feOffset dy="4"/>
<feGaussianBlur stdDeviation="2"/>
<feComposite in2="hardAlpha" operator="arithmetic" k2="-1" k3="1"/>
<feColorMatrix type="matrix" values="0 0 0 0 0 0 0 0 0 0 0 0 0 0 0 0 0 0 0.25 0"/>
<feBlend mode="normal" in2="shape" result="effect2_innerShadow_76_18"/>
</filter>
<filter id="filter1_di_76_18" x="40" y="21.4775" width="1142" height="197.716" filterUnits="userSpaceOnUse" color-interpolation-filters="sRGB">
<feFlood flood-opacity="0" result="BackgroundImageFix"/>
<feColorMatrix in="SourceAlpha" type="matrix" values="0 0 0 0 0 0 0 0 0 0 0 0 0 0 0 0 0 0 127 0" result="hardAlpha"/>
<feOffset dy="4"/>
<feGaussianBlur stdDeviation="2"/>
<feComposite in2="hardAlpha" operator="out"/>
<feColorMatrix type="matrix" values="0 0 0 0 0 0 0 0 0 0 0 0 0 0 0 0 0 0 0.25 0"/>
<feBlend mode="normal" in2="BackgroundImageFix" result="effect1_dropShadow_76_18"/>
<feBlend mode="normal" in="SourceGraphic" in2="effect1_dropShadow_76_18" result="shape"/>
<feColorMatrix in="SourceAlpha" type="matrix" values="0 0 0 0 0 0 0 0 0 0 0 0 0 0 0 0 0 0 127 0" result="hardAlpha"/>
<feOffset dy="4"/>
<feGaussianBlur stdDeviation="2"/>
<feComposite in2="hardAlpha" operator="arithmetic" k2="-1" k3="1"/>
<feColorMatrix type="matrix" values="0 0 0 0 0 0 0 0 0 0 0 0 0 0 0 0 0 0 0.25 0"/>
<feBlend mode="normal" in2="shape" result="effect2_innerShadow_76_18"/>
</filter>
</defs>
</svg>
