<svg width="170" height="52" viewBox="0 0 170 52" fill="none" xmlns="http://www.w3.org/2000/svg">
<path d="M6.55806 23.1818H9.71147L17.1262 41.2926H17.3819L24.7967 23.1818H27.9501V45H25.4785V28.4233H25.2654L18.4473 45H16.0609L9.24272 28.4233H9.02965V45H6.55806V23.1818ZM51.6566 34.0909C51.6566 36.392 51.2411 38.3807 50.4102 40.0568C49.5792 41.733 48.4393 43.0256 46.9904 43.9347C45.5415 44.8438 43.8867 45.2983 42.0259 45.2983C40.1651 45.2983 38.5103 44.8438 37.0614 43.9347C35.6126 43.0256 34.4727 41.733 33.6417 40.0568C32.8107 38.3807 32.3952 36.392 32.3952 34.0909C32.3952 31.7898 32.8107 29.8011 33.6417 28.125C34.4727 26.4489 35.6126 25.1562 37.0614 24.2472C38.5103 23.3381 40.1651 22.8835 42.0259 22.8835C43.8867 22.8835 45.5415 23.3381 46.9904 24.2472C48.4393 25.1562 49.5792 26.4489 50.4102 28.125C51.2411 29.8011 51.6566 31.7898 51.6566 34.0909ZM49.0998 34.0909C49.0998 32.2017 48.7837 30.6072 48.1516 29.3075C47.5266 28.0078 46.6779 27.0241 45.6055 26.3565C44.5401 25.6889 43.3469 25.3551 42.0259 25.3551C40.7049 25.3551 39.5082 25.6889 38.4357 26.3565C37.3704 27.0241 36.5217 28.0078 35.8896 29.3075C35.2646 30.6072 34.9521 32.2017 34.9521 34.0909C34.9521 35.9801 35.2646 37.5746 35.8896 38.8743C36.5217 40.174 37.3704 41.1577 38.4357 41.8253C39.5082 42.4929 40.7049 42.8267 42.0259 42.8267C43.3469 42.8267 44.5401 42.4929 45.6055 41.8253C46.6779 41.1577 47.5266 40.174 48.1516 38.8743C48.7837 37.5746 49.0998 35.9801 49.0998 34.0909ZM56.0991 45V23.1818H63.4712C65.1758 23.1818 66.5749 23.473 67.6687 24.0554C68.7624 24.6307 69.5721 25.4226 70.0977 26.4311C70.6232 27.4396 70.886 28.5866 70.886 29.8722C70.886 31.1577 70.6232 32.2976 70.0977 33.2919C69.5721 34.2862 68.766 35.0675 67.6793 35.6357C66.5927 36.1967 65.2042 36.4773 63.5138 36.4773H57.5479V34.0909H63.4286C64.5934 34.0909 65.5309 33.9205 66.2411 33.5795C66.9585 33.2386 67.4769 32.7557 67.7965 32.1307C68.1232 31.4986 68.2866 30.7457 68.2866 29.8722C68.2866 28.9986 68.1232 28.2351 67.7965 27.5817C67.4698 26.9283 66.9478 26.424 66.2305 26.0689C65.5131 25.7067 64.565 25.5256 63.386 25.5256H58.7411V45H56.0991ZM66.369 35.1989L71.7383 45H68.6701L63.386 35.1989H66.369ZM75.2885 45V23.1818H88.4561V25.5256H77.9306V32.8977H87.7743V35.2415H77.9306V42.6562H88.6266V45H75.2885ZM104.298 23.1818V45H101.656V23.1818H104.298ZM126.896 23.1818V45H124.339L112.45 27.8693H112.237V45H109.595V23.1818H112.152L124.084 40.3551H124.297V23.1818H126.896ZM132.183 45V23.1818H145.265V25.5256H134.825V32.8977H144.285V35.2415H134.825V45H132.183ZM168.2 34.0909C168.2 36.392 167.784 38.3807 166.953 40.0568C166.122 41.733 164.982 43.0256 163.533 43.9347C162.085 44.8438 160.43 45.2983 158.569 45.2983C156.708 45.2983 155.053 44.8438 153.604 43.9347C152.156 43.0256 151.016 41.733 150.185 40.0568C149.354 38.3807 148.938 36.392 148.938 34.0909C148.938 31.7898 149.354 29.8011 150.185 28.125C151.016 26.4489 152.156 25.1562 153.604 24.2472C155.053 23.3381 156.708 22.8835 158.569 22.8835C160.43 22.8835 162.085 23.3381 163.533 24.2472C164.982 25.1562 166.122 26.4489 166.953 28.125C167.784 29.8011 168.2 31.7898 168.2 34.0909ZM165.643 34.0909C165.643 32.2017 165.327 30.6072 164.695 29.3075C164.07 28.0078 163.221 27.0241 162.148 26.3565C161.083 25.6889 159.89 25.3551 158.569 25.3551C157.248 25.3551 156.051 25.6889 154.979 26.3565C153.913 27.0241 153.065 28.0078 152.433 29.3075C151.808 30.6072 151.495 32.2017 151.495 34.0909C151.495 35.9801 151.808 37.5746 152.433 38.8743C153.065 40.174 153.913 41.1577 154.979 41.8253C156.051 42.4929 157.248 42.8267 158.569 42.8267C159.89 42.8267 161.083 42.4929 162.148 41.8253C163.221 41.1577 164.07 40.174 164.695 38.8743C165.327 37.5746 165.643 35.9801 165.643 34.0909Z" fill="#EA8585"/>
<path d="M13.9047 2.275H14.9837V11.089H13.9047V2.275ZM14.6457 6.123H16.7257V7.033H14.6457V6.123ZM5.8967 3.692H12.8387V4.563H5.8967V3.692ZM9.3677 5.213C11.0317 5.213 12.1757 6.084 12.1757 7.41C12.1757 8.723 11.0317 9.594 9.3677 9.594C7.6907 9.594 6.5467 8.723 6.5467 7.41C6.5467 6.084 7.6907 5.213 9.3677 5.213ZM9.3677 6.058C8.3017 6.058 7.5737 6.591 7.5737 7.41C7.5737 8.216 8.3017 8.749 9.3677 8.749C10.4207 8.749 11.1487 8.216 11.1487 7.41C11.1487 6.591 10.4207 6.058 9.3677 6.058ZM8.8217 2.262H9.9007V4.147H8.8217V2.262ZM7.6647 12.87H15.5167V13.754H7.6647V12.87ZM7.6647 10.387H8.7437V13.247H7.6647V10.387ZM19.1817 2.808H26.7477V3.692H19.1817V2.808ZM17.8297 7.02H28.4767V7.904H17.8297V7.02ZM22.6007 7.618H23.6667V10.387H22.6007V7.618ZM26.0457 2.808H27.0987V3.679C27.0987 4.654 27.0987 5.837 26.7087 7.449L25.6557 7.319C26.0457 5.746 26.0457 4.628 26.0457 3.679V2.808ZM18.9347 10.036H27.1767V14.014H26.0977V10.92H18.9347V10.036ZM32.8827 3.276H33.7667V5.382C33.7667 8.086 32.3107 10.595 30.3867 11.57L29.7237 10.686C31.4657 9.854 32.8827 7.605 32.8827 5.382V3.276ZM33.0647 3.276H33.9487V5.382C33.9487 7.527 35.3527 9.685 37.0947 10.491L36.4447 11.349C34.5337 10.413 33.0647 7.995 33.0647 5.382V3.276ZM38.3167 2.249H39.3957V14.027H38.3167V2.249ZM49.7817 2.262H50.8607V9.152H49.7817V2.262ZM50.5617 5.226H52.6027V6.136H50.5617V5.226ZM46.5317 3.016H47.6627C47.6627 5.98 45.5957 8.099 42.1637 9.035L41.7217 8.19C44.7637 7.358 46.5317 5.655 46.5317 3.484V3.016ZM42.2417 3.016H47.1297V3.887H42.2417V3.016ZM43.2297 9.698H50.8607V14.014H49.7817V10.569H43.2297V9.698ZM56.5926 3.523H57.4766V4.472C57.4766 6.63 56.1766 8.437 54.2006 9.152L53.6546 8.294C55.4226 7.67 56.5926 6.149 56.5926 4.472V3.523ZM56.7876 3.523H57.6716V4.459C57.6716 5.993 58.7896 7.371 60.5186 7.943L59.9986 8.788C58.0356 8.138 56.7876 6.461 56.7876 4.459V3.523ZM53.9796 3.133H60.2586V4.017H53.9796V3.133ZM61.7406 2.262H62.8196V9.347H61.7406V2.262ZM62.5206 5.239H64.5616V6.149H62.5206V5.239ZM59.0756 9.659C61.4676 9.659 62.9366 10.452 62.9366 11.817C62.9366 13.195 61.4676 13.988 59.0756 13.988C56.6836 13.988 55.2146 13.195 55.2146 11.817C55.2146 10.452 56.6836 9.659 59.0756 9.659ZM59.0756 10.53C57.3336 10.53 56.2676 10.998 56.2676 11.817C56.2676 12.649 57.3336 13.143 59.0756 13.143C60.8176 13.143 61.8836 12.649 61.8836 11.817C61.8836 10.998 60.8176 10.53 59.0756 10.53ZM68.3046 3.237C69.8256 3.237 70.8136 4.81 70.8136 7.332C70.8136 9.854 69.8256 11.427 68.3046 11.427C66.7836 11.427 65.8086 9.854 65.8086 7.332C65.8086 4.81 66.7836 3.237 68.3046 3.237ZM68.3046 4.238C67.3816 4.238 66.7966 5.434 66.7966 7.332C66.7966 9.23 67.3816 10.426 68.3046 10.426C69.2276 10.426 69.8126 9.23 69.8126 7.332C69.8126 5.434 69.2276 4.238 68.3046 4.238ZM74.6096 2.262H75.6496V14.014H74.6096V2.262ZM72.7506 6.916H74.9996V7.8H72.7506V6.916ZM72.0096 2.509H73.0366V13.429H72.0096V2.509ZM86.1656 2.275H87.2576V10.855H86.1656V2.275ZM79.7046 12.87H87.6086V13.754H79.7046V12.87ZM79.7046 9.971H80.7706V13.169H79.7046V9.971ZM80.9526 3.081C82.7076 3.081 84.0076 4.277 84.0076 5.98C84.0076 7.67 82.7076 8.879 80.9526 8.879C79.1976 8.879 77.8846 7.67 77.8846 5.98C77.8846 4.277 79.1976 3.081 80.9526 3.081ZM80.9526 4.017C79.8086 4.017 78.9376 4.823 78.9376 5.98C78.9376 7.124 79.8086 7.93 80.9526 7.93C82.0966 7.93 82.9676 7.124 82.9676 5.98C82.9676 4.823 82.0966 4.017 80.9526 4.017ZM99.8438 5.005H102.236V5.889H99.8438V5.005ZM99.8308 7.293H102.223V8.164H99.8308V7.293ZM93.2528 3.432H99.8308V4.316H93.2528V3.432ZM96.5808 4.888C98.1538 4.888 99.2328 5.733 99.2328 7.007C99.2328 8.281 98.1538 9.113 96.5808 9.113C95.0078 9.113 93.9158 8.281 93.9158 7.007C93.9158 5.733 95.0078 4.888 96.5808 4.888ZM96.5808 5.707C95.5928 5.707 94.9298 6.227 94.9298 7.007C94.9298 7.787 95.5928 8.294 96.5808 8.294C97.5558 8.294 98.2318 7.787 98.2318 7.007C98.2318 6.227 97.5558 5.707 96.5808 5.707ZM96.0478 2.145H97.1268V3.965H96.0478V2.145ZM101.82 2.262H102.899V9.204H101.82V2.262ZM95.3068 9.711H96.3598V10.92H101.833V9.711H102.899V13.858H95.3068V9.711ZM96.3598 11.765V13H101.833V11.765H96.3598ZM108.54 9.308H109.632V11.245H108.54V9.308ZM113.688 2.262H114.767V14.014H113.688V2.262ZM105.407 11.778L105.264 10.881C107.487 10.868 110.412 10.842 112.947 10.517L113.025 11.31C110.412 11.752 107.578 11.778 105.407 11.778ZM105.511 3.692H112.648V4.563H105.511V3.692ZM109.073 5.239C110.763 5.239 111.907 6.097 111.907 7.41C111.907 8.736 110.763 9.581 109.073 9.581C107.396 9.581 106.252 8.736 106.252 7.41C106.252 6.097 107.396 5.239 109.073 5.239ZM109.073 6.071C108.02 6.071 107.279 6.604 107.279 7.41C107.279 8.216 108.02 8.749 109.073 8.749C110.139 8.749 110.88 8.216 110.88 7.41C110.88 6.604 110.139 6.071 109.073 6.071ZM108.54 2.262H109.619V4.173H108.54V2.262ZM128.757 2.262H129.849V14.014H128.757V2.262ZM129.589 6.877H131.773V7.8H129.589V6.877ZM121.269 3.25H122.335V6.357H125.689V3.25H126.755V11.193H121.269V3.25ZM122.335 7.215V10.309H125.689V7.215H122.335ZM132.773 11.674H143.42V12.571H132.773V11.674ZM137.531 9.152H138.61V12.051H137.531V9.152ZM134.06 3.133H142.107V6.695H135.165V9.048H134.099V5.824H141.041V4.004H134.06V3.133ZM134.099 8.593H142.38V9.477H134.099V8.593ZM152.675 2.249H153.767V14.014H152.675V2.249ZM153.468 7.02H155.639V7.917H153.468V7.02ZM149.672 3.523H150.725C150.725 6.864 149.191 9.88 145.395 11.791L144.797 10.959C148.047 9.308 149.672 6.799 149.672 3.692V3.523ZM145.343 3.523H150.231V4.407H145.343V3.523ZM165.245 2.262H166.324V14.014H165.245V2.262ZM161.8 3.523H162.866C162.866 6.929 161.332 9.906 157.406 11.83L156.834 10.959C160.227 9.321 161.8 6.825 161.8 3.705V3.523ZM157.367 3.523H162.268V4.407H157.367V3.523Z" fill="#EA8585"/>
<line y1="18.5" x2="170" y2="18.5" stroke="#EA8585"/>
</svg>
