<svg width="507" height="36" viewBox="0 0 507 36" fill="none" xmlns="http://www.w3.org/2000/svg">
<path d="M343.558 7.18182H346.711L354.126 25.2926H354.382L361.797 7.18182H364.95V29H362.479V12.4233H362.265L355.447 29H353.061L346.243 12.4233H346.03V29H343.558V7.18182ZM388.657 18.0909C388.657 20.392 388.241 22.3807 387.41 24.0568C386.579 25.733 385.439 27.0256 383.99 27.9347C382.542 28.8438 380.887 29.2983 379.026 29.2983C377.165 29.2983 375.51 28.8438 374.061 27.9347C372.613 27.0256 371.473 25.733 370.642 24.0568C369.811 22.3807 369.395 20.392 369.395 18.0909C369.395 15.7898 369.811 13.8011 370.642 12.125C371.473 10.4489 372.613 9.15625 374.061 8.24716C375.51 7.33807 377.165 6.88352 379.026 6.88352C380.887 6.88352 382.542 7.33807 383.99 8.24716C385.439 9.15625 386.579 10.4489 387.41 12.125C388.241 13.8011 388.657 15.7898 388.657 18.0909ZM386.1 18.0909C386.1 16.2017 385.784 14.6072 385.152 13.3075C384.527 12.0078 383.678 11.0241 382.605 10.3565C381.54 9.68892 380.347 9.35511 379.026 9.35511C377.705 9.35511 376.508 9.68892 375.436 10.3565C374.37 11.0241 373.522 12.0078 372.89 13.3075C372.265 14.6072 371.952 16.2017 371.952 18.0909C371.952 19.9801 372.265 21.5746 372.89 22.8743C373.522 24.174 374.37 25.1577 375.436 25.8253C376.508 26.4929 377.705 26.8267 379.026 26.8267C380.347 26.8267 381.54 26.4929 382.605 25.8253C383.678 25.1577 384.527 24.174 385.152 22.8743C385.784 21.5746 386.1 19.9801 386.1 18.0909ZM393.099 29V7.18182H400.471C402.176 7.18182 403.575 7.47301 404.669 8.0554C405.762 8.63068 406.572 9.42258 407.098 10.4311C407.623 11.4396 407.886 12.5866 407.886 13.8722C407.886 15.1577 407.623 16.2976 407.098 17.2919C406.572 18.2862 405.766 19.0675 404.679 19.6357C403.593 20.1967 402.204 20.4773 400.514 20.4773H394.548V18.0909H400.429C401.593 18.0909 402.531 17.9205 403.241 17.5795C403.958 17.2386 404.477 16.7557 404.797 16.1307C405.123 15.4986 405.287 14.7457 405.287 13.8722C405.287 12.9986 405.123 12.2351 404.797 11.5817C404.47 10.9283 403.948 10.424 403.23 10.0689C402.513 9.70668 401.565 9.52557 400.386 9.52557H395.741V29H393.099ZM403.369 19.1989L408.738 29H405.67L400.386 19.1989H403.369ZM412.289 29V7.18182H425.456V9.52557H414.931V16.8977H424.774V19.2415H414.931V26.6562H425.627V29H412.289ZM441.298 7.18182V29H438.656V7.18182H441.298ZM463.896 7.18182V29H461.339L449.45 11.8693H449.237V29H446.595V7.18182H449.152L461.084 24.3551H461.297V7.18182H463.896ZM469.183 29V7.18182H482.265V9.52557H471.825V16.8977H481.285V19.2415H471.825V29H469.183ZM505.2 18.0909C505.2 20.392 504.784 22.3807 503.953 24.0568C503.122 25.733 501.982 27.0256 500.533 27.9347C499.085 28.8438 497.43 29.2983 495.569 29.2983C493.708 29.2983 492.053 28.8438 490.604 27.9347C489.156 27.0256 488.016 25.733 487.185 24.0568C486.354 22.3807 485.938 20.392 485.938 18.0909C485.938 15.7898 486.354 13.8011 487.185 12.125C488.016 10.4489 489.156 9.15625 490.604 8.24716C492.053 7.33807 493.708 6.88352 495.569 6.88352C497.43 6.88352 499.085 7.33807 500.533 8.24716C501.982 9.15625 503.122 10.4489 503.953 12.125C504.784 13.8011 505.2 15.7898 505.2 18.0909ZM502.643 18.0909C502.643 16.2017 502.327 14.6072 501.695 13.3075C501.07 12.0078 500.221 11.0241 499.148 10.3565C498.083 9.68892 496.89 9.35511 495.569 9.35511C494.248 9.35511 493.051 9.68892 491.979 10.3565C490.913 11.0241 490.065 12.0078 489.433 13.3075C488.808 14.6072 488.495 16.2017 488.495 18.0909C488.495 19.9801 488.808 21.5746 489.433 22.8743C490.065 24.174 490.913 25.1577 491.979 25.8253C493.051 26.4929 494.248 26.8267 495.569 26.8267C496.89 26.8267 498.083 26.4929 499.148 25.8253C500.221 25.1577 501.07 24.174 501.695 22.8743C502.327 21.5746 502.643 19.9801 502.643 18.0909Z" fill="#EA8585"/>
<path d="M4.55455 3.276H5.43855V5.382C5.43855 8.086 3.98255 10.595 2.05855 11.57L1.39555 10.686C3.13755 9.854 4.55455 7.605 4.55455 5.382V3.276ZM4.73655 3.276H5.62055V5.382C5.62055 7.527 7.02455 9.685 8.76655 10.491L8.11655 11.349C6.20555 10.413 4.73655 7.995 4.73655 5.382V3.276ZM9.98855 2.249H11.0675V14.027H9.98855V2.249ZM21.4535 2.262H22.5325V9.152H21.4535V2.262ZM22.2335 5.226H24.2745V6.136H22.2335V5.226ZM18.2035 3.016H19.3345C19.3345 5.98 17.2675 8.099 13.8355 9.035L13.3935 8.19C16.4355 7.358 18.2035 5.655 18.2035 3.484V3.016ZM13.9135 3.016H18.8015V3.887H13.9135V3.016ZM14.9015 9.698H22.5325V14.014H21.4535V10.569H14.9015V9.698ZM28.2645 3.523H29.1485V4.472C29.1485 6.63 27.8485 8.437 25.8725 9.152L25.3265 8.294C27.0945 7.67 28.2645 6.149 28.2645 4.472V3.523ZM28.4595 3.523H29.3435V4.459C29.3435 5.993 30.4615 7.371 32.1905 7.943L31.6705 8.788C29.7075 8.138 28.4595 6.461 28.4595 4.459V3.523ZM25.6515 3.133H31.9305V4.017H25.6515V3.133ZM33.4125 2.262H34.4915V9.347H33.4125V2.262ZM34.1925 5.239H36.2335V6.149H34.1925V5.239ZM30.7475 9.659C33.1395 9.659 34.6085 10.452 34.6085 11.817C34.6085 13.195 33.1395 13.988 30.7475 13.988C28.3555 13.988 26.8865 13.195 26.8865 11.817C26.8865 10.452 28.3555 9.659 30.7475 9.659ZM30.7475 10.53C29.0055 10.53 27.9395 10.998 27.9395 11.817C27.9395 12.649 29.0055 13.143 30.7475 13.143C32.4895 13.143 33.5555 12.649 33.5555 11.817C33.5555 10.998 32.4895 10.53 30.7475 10.53ZM39.9765 3.237C41.4975 3.237 42.4855 4.81 42.4855 7.332C42.4855 9.854 41.4975 11.427 39.9765 11.427C38.4555 11.427 37.4805 9.854 37.4805 7.332C37.4805 4.81 38.4555 3.237 39.9765 3.237ZM39.9765 4.238C39.0535 4.238 38.4685 5.434 38.4685 7.332C38.4685 9.23 39.0535 10.426 39.9765 10.426C40.8995 10.426 41.4845 9.23 41.4845 7.332C41.4845 5.434 40.8995 4.238 39.9765 4.238ZM46.2815 2.262H47.3215V14.014H46.2815V2.262ZM44.4225 6.916H46.6715V7.8H44.4225V6.916ZM43.6815 2.509H44.7085V13.429H43.6815V2.509ZM57.8375 2.275H58.9295V10.855H57.8375V2.275ZM51.3765 12.87H59.2805V13.754H51.3765V12.87ZM51.3765 9.971H52.4425V13.169H51.3765V9.971ZM52.6245 3.081C54.3795 3.081 55.6795 4.277 55.6795 5.98C55.6795 7.67 54.3795 8.879 52.6245 8.879C50.8695 8.879 49.5565 7.67 49.5565 5.98C49.5565 4.277 50.8695 3.081 52.6245 3.081ZM52.6245 4.017C51.4805 4.017 50.6095 4.823 50.6095 5.98C50.6095 7.124 51.4805 7.93 52.6245 7.93C53.7685 7.93 54.6395 7.124 54.6395 5.98C54.6395 4.823 53.7685 4.017 52.6245 4.017ZM66.0135 6.825H68.2365V7.722H66.0135V6.825ZM70.1995 2.262H71.2395V14.014H70.1995V2.262ZM67.8725 2.509H68.8995V13.429H67.8725V2.509ZM63.8945 3.237C65.4155 3.237 66.4035 4.81 66.4035 7.332C66.4035 9.854 65.4155 11.427 63.8945 11.427C62.3735 11.427 61.3985 9.854 61.3985 7.332C61.3985 4.81 62.3735 3.237 63.8945 3.237ZM63.8945 4.238C62.9715 4.238 62.3865 5.434 62.3865 7.332C62.3865 9.23 62.9715 10.426 63.8945 10.426C64.8305 10.426 65.4155 9.23 65.4155 7.332C65.4155 5.434 64.8305 4.238 63.8945 4.238ZM85.8017 2.262H86.8417V14.014H85.8017V2.262ZM83.8127 6.968H86.0747V7.865H83.8127V6.968ZM83.1367 2.522H84.1507V13.416H83.1367V2.522ZM77.2867 10.218H78.0537C79.7697 10.218 80.9397 10.153 82.3047 9.867L82.4087 10.764C81.0047 11.063 79.8217 11.115 78.0537 11.115H77.2867V10.218ZM77.2867 3.692H81.6547V4.576H78.3527V10.621H77.2867V3.692ZM96.8637 2.275H97.9427V11.089H96.8637V2.275ZM97.6047 6.123H99.6847V7.033H97.6047V6.123ZM88.8557 3.692H95.7977V4.563H88.8557V3.692ZM92.3267 5.213C93.9907 5.213 95.1347 6.084 95.1347 7.41C95.1347 8.723 93.9907 9.594 92.3267 9.594C90.6497 9.594 89.5057 8.723 89.5057 7.41C89.5057 6.084 90.6497 5.213 92.3267 5.213ZM92.3267 6.058C91.2607 6.058 90.5327 6.591 90.5327 7.41C90.5327 8.216 91.2607 8.749 92.3267 8.749C93.3797 8.749 94.1077 8.216 94.1077 7.41C94.1077 6.591 93.3797 6.058 92.3267 6.058ZM91.7807 2.262H92.8597V4.147H91.7807V2.262ZM90.6237 12.87H98.4757V13.754H90.6237V12.87ZM90.6237 10.387H91.7027V13.247H90.6237V10.387ZM105.03 10.218H105.927C108.111 10.218 109.515 10.166 111.153 9.854L111.27 10.738C109.58 11.05 108.163 11.128 105.927 11.128H105.03V10.218ZM105.03 3.38H110.373V4.264H106.096V10.556H105.03V3.38ZM113.051 2.262H114.13V14.04H113.051V2.262ZM109.684 6.513H113.493V7.41H109.684V6.513ZM128.094 2.262H129.173V8.255H128.094V2.262ZM128.705 4.901H130.915V5.798H128.705V4.901ZM120.541 3.029H125.936V7.826H120.541V3.029ZM124.883 3.9H121.594V6.968H124.883V3.9ZM121.282 12.818H121.841C122.543 12.818 123.674 12.753 124.675 12.415L124.857 13.286C123.726 13.65 122.647 13.702 121.841 13.702H121.282V12.818ZM121.282 9.334H122.335V13.052H121.282V9.334ZM124.428 9.451H130.33V10.257H124.428V9.451ZM127.392 10.686C128.666 10.686 129.563 11.336 129.563 12.337C129.563 13.364 128.666 14.001 127.392 14.001C126.105 14.001 125.208 13.364 125.208 12.337C125.208 11.336 126.105 10.686 127.392 10.686ZM127.392 11.453C126.664 11.453 126.17 11.804 126.17 12.337C126.17 12.883 126.664 13.234 127.392 13.234C128.094 13.234 128.601 12.883 128.601 12.337C128.601 11.804 128.094 11.453 127.392 11.453ZM126.859 8.424H127.912V10.023H126.859V8.424ZM132.006 8.437H142.627V9.321H132.006V8.437ZM133.384 12.87H141.457V13.754H133.384V12.87ZM133.384 10.348H134.463V13.143H133.384V10.348ZM137.323 2.652C139.832 2.652 141.457 3.536 141.457 5.005C141.457 6.461 139.832 7.345 137.323 7.345C134.801 7.345 133.189 6.461 133.189 5.005C133.189 3.536 134.801 2.652 137.323 2.652ZM137.323 3.536C135.477 3.536 134.294 4.082 134.294 5.005C134.294 5.928 135.477 6.474 137.323 6.474C139.169 6.474 140.352 5.928 140.352 5.005C140.352 4.082 139.169 3.536 137.323 3.536ZM153.9 5.304H156.552V6.201H153.9V5.304ZM156.214 2.262H157.293V9.269H156.214V2.262ZM153.432 9.62C155.85 9.62 157.345 10.439 157.345 11.817C157.345 13.208 155.85 14.001 153.432 14.001C151.001 14.001 149.506 13.208 149.506 11.817C149.506 10.439 151.001 9.62 153.432 9.62ZM153.432 10.465C151.664 10.465 150.585 10.959 150.585 11.817C150.585 12.662 151.664 13.156 153.432 13.156C155.2 13.156 156.279 12.662 156.279 11.817C156.279 10.959 155.2 10.465 153.432 10.465ZM150.624 3.445H151.508V4.394C151.508 6.565 150.182 8.424 148.232 9.152L147.673 8.294C149.415 7.657 150.624 6.084 150.624 4.394V3.445ZM150.832 3.445H151.703V4.394C151.703 5.915 152.847 7.371 154.55 7.969L154.004 8.827C152.093 8.138 150.832 6.37 150.832 4.394V3.445ZM147.998 3.12H154.277V4.004H147.998V3.12ZM159.593 11.622H170.24V12.519H159.593V11.622ZM164.351 8.814H165.43V11.882H164.351V8.814ZM160.841 3.094H161.907V5.187H167.9V3.094H168.966V9.1H160.841V3.094ZM161.907 6.058V8.216H167.9V6.058H161.907ZM171.539 7.722H182.199V8.541H171.539V7.722ZM172.8 9.49H180.86V11.999H173.905V13.377H172.839V11.258H179.807V10.257H172.8V9.49ZM172.839 13.091H181.237V13.871H172.839V13.091ZM172.891 2.6H180.821V5.044H173.983V6.318H172.917V4.316H179.768V3.367H172.891V2.6ZM172.917 6.058H181.042V6.838H172.917V6.058ZM195.202 2.262H196.281V8.242H195.202V2.262ZM195.813 4.784H198.01V5.681H195.813V4.784ZM188.819 8.801H196.281V11.687H189.911V13.442H188.845V10.868H195.228V9.659H188.819V8.801ZM188.845 12.987H196.71V13.858H188.845V12.987ZM190.405 2.678C192.173 2.678 193.447 3.757 193.447 5.291C193.447 6.838 192.173 7.917 190.405 7.917C188.663 7.917 187.376 6.838 187.376 5.291C187.376 3.757 188.663 2.678 190.405 2.678ZM190.405 3.562C189.274 3.562 188.429 4.277 188.429 5.291C188.429 6.318 189.274 7.033 190.405 7.033C191.562 7.033 192.407 6.318 192.407 5.291C192.407 4.277 191.562 3.562 190.405 3.562ZM200.245 3.432H207.811V4.329H200.245V3.432ZM199.127 11.479H209.748V12.376H199.127V11.479ZM203.248 7.28H204.327V11.921H203.248V7.28ZM207.408 3.432H208.474V4.602C208.474 6.058 208.474 7.67 208.045 10.049L206.966 9.906C207.408 7.657 207.408 6.006 207.408 4.602V3.432ZM223.283 2.275H224.375V8.788H223.283V2.275ZM217.797 2.691H218.694V3.835C218.694 6.006 217.342 7.839 215.353 8.554L214.807 7.709C216.575 7.085 217.797 5.525 217.797 3.835V2.691ZM217.992 2.691H218.876V3.835C218.876 5.473 220.111 6.916 221.853 7.488L221.32 8.346C219.344 7.67 217.992 5.941 217.992 3.835V2.691ZM216.601 9.49H224.44V10.374H216.601V9.49ZM216.484 12.987H224.57V13.858H216.484V12.987ZM218.213 9.867H219.266V13.494H218.213V9.867ZM221.775 9.867H222.841V13.494H221.775V9.867ZM234.644 2.249H235.736V14.027H234.644V2.249ZM235.476 6.89H237.66V7.8H235.476V6.89ZM227.195 10.192H228.118C230.289 10.192 231.81 10.114 233.565 9.789L233.682 10.699C231.875 11.037 230.328 11.102 228.118 11.102H227.195V10.192ZM227.195 3.393H232.655V4.277H228.261V10.595H227.195V3.393ZM244.289 4.329H247.578V5.213H244.289V4.329ZM244.289 6.838H247.604V7.735H244.289V6.838ZM239.193 3.276H244.562V8.788H239.193V3.276ZM243.496 4.147H240.246V7.917H243.496V4.147ZM247.24 2.275H248.319V10.855H247.24V2.275ZM240.766 12.87H248.605V13.754H240.766V12.87ZM240.766 10.075H241.845V13.273H240.766V10.075ZM255.627 2.808H263.193V3.679H255.627V2.808ZM262.491 2.808H263.544V3.718C263.544 4.693 263.544 5.85 263.206 7.397L262.14 7.28C262.491 5.759 262.491 4.68 262.491 3.718V2.808ZM262.79 4.797V5.564L255.471 5.889L255.328 5.031L262.79 4.797ZM254.275 7.072H264.883V7.93H254.275V7.072ZM255.51 9.048H263.635V11.791H256.602V13.377H255.536V10.985H262.569V9.88H255.51V9.048ZM255.536 13.013H264.038V13.858H255.536V13.013ZM274.775 2.262H275.867V9.451H274.775V2.262ZM268.015 10.088H275.867V14.014H274.775V10.972H268.015V10.088ZM266.832 7.904H267.781C269.913 7.904 271.486 7.839 273.371 7.54L273.488 8.411C271.551 8.736 269.965 8.788 267.781 8.788H266.832V7.904ZM266.806 2.951H272.136V6.214H267.885V8.333H266.832V5.382H271.083V3.835H266.806V2.951ZM286.149 2.262H287.228V14.014H286.149V2.262ZM286.968 7.085H289.152V7.995H286.968V7.085ZM278.128 4.134H285.057V5.018H278.128V4.134ZM281.638 5.993C283.302 5.993 284.498 7.111 284.498 8.697C284.498 10.283 283.302 11.401 281.638 11.401C279.987 11.401 278.778 10.283 278.778 8.697C278.778 7.111 279.987 5.993 281.638 5.993ZM281.638 6.89C280.572 6.89 279.805 7.631 279.805 8.697C279.805 9.75 280.572 10.504 281.638 10.504C282.704 10.504 283.471 9.75 283.471 8.697C283.471 7.631 282.704 6.89 281.638 6.89ZM281.079 2.405H282.158V4.537H281.079V2.405ZM294.78 6.461H297.029V7.358H294.78V6.461ZM292.583 3.367H293.428V5.603C293.428 8.06 292.401 10.439 290.685 11.492L290.009 10.673C291.621 9.724 292.583 7.618 292.583 5.603V3.367ZM292.791 3.367H293.623V5.564C293.623 7.449 294.507 9.451 296.054 10.387L295.43 11.232C293.74 10.192 292.791 7.852 292.791 5.564V3.367ZM299.096 2.262H300.136V14.014H299.096V2.262ZM296.717 2.509H297.731V13.429H296.717V2.509ZM304.711 8.307H305.777V11.83H304.711V8.307ZM309.053 8.307H310.132V11.83H309.053V8.307ZM302.111 11.622H312.758V12.519H302.111V11.622ZM307.415 3.003C309.898 3.003 311.679 4.186 311.679 6.032C311.679 7.865 309.898 9.048 307.415 9.048C304.919 9.048 303.138 7.865 303.138 6.032C303.138 4.186 304.919 3.003 307.415 3.003ZM307.415 3.861C305.53 3.861 304.178 4.719 304.178 6.032C304.178 7.332 305.53 8.19 307.415 8.19C309.3 8.19 310.639 7.332 310.639 6.032C310.639 4.719 309.3 3.861 307.415 3.861ZM315.211 13.0739C314.983 13.0739 314.788 12.9923 314.625 12.8292C314.462 12.6661 314.38 12.4706 314.38 12.2429C314.38 12.0152 314.462 11.8197 314.625 11.6566C314.788 11.4935 314.983 11.4119 315.211 11.4119C315.439 11.4119 315.634 11.4935 315.797 11.6566C315.961 11.8197 316.042 12.0152 316.042 12.2429C316.042 12.3937 316.004 12.5322 315.927 12.6584C315.853 12.7846 315.753 12.8861 315.627 12.9631C315.503 13.0369 315.365 13.0739 315.211 13.0739Z" fill="#EA8585"/>
<path d="M60.4125 22.275H61.4915V31.089H60.4125V22.275ZM61.1535 26.123H63.2335V27.033H61.1535V26.123ZM52.4045 23.692H59.3465V24.563H52.4045V23.692ZM55.8755 25.213C57.5395 25.213 58.6835 26.084 58.6835 27.41C58.6835 28.723 57.5395 29.594 55.8755 29.594C54.1985 29.594 53.0545 28.723 53.0545 27.41C53.0545 26.084 54.1985 25.213 55.8755 25.213ZM55.8755 26.058C54.8095 26.058 54.0815 26.591 54.0815 27.41C54.0815 28.216 54.8095 28.749 55.8755 28.749C56.9285 28.749 57.6565 28.216 57.6565 27.41C57.6565 26.591 56.9285 26.058 55.8755 26.058ZM55.3295 22.262H56.4085V24.147H55.3295V22.262ZM54.1725 32.87H62.0245V33.754H54.1725V32.87ZM54.1725 30.387H55.2515V33.247H54.1725V30.387ZM65.6895 22.808H73.2555V23.692H65.6895V22.808ZM64.3375 27.02H74.9845V27.904H64.3375V27.02ZM69.1085 27.618H70.1745V30.387H69.1085V27.618ZM72.5535 22.808H73.6065V23.679C73.6065 24.654 73.6065 25.837 73.2165 27.449L72.1635 27.319C72.5535 25.746 72.5535 24.628 72.5535 23.679V22.808ZM65.4425 30.036H73.6845V34.014H72.6055V30.92H65.4425V30.036ZM79.3905 23.276H80.2745V25.382C80.2745 28.086 78.8185 30.595 76.8945 31.57L76.2315 30.686C77.9735 29.854 79.3905 27.605 79.3905 25.382V23.276ZM79.5725 23.276H80.4565V25.382C80.4565 27.527 81.8605 29.685 83.6025 30.491L82.9525 31.349C81.0415 30.413 79.5725 27.995 79.5725 25.382V23.276ZM84.8245 22.249H85.9035V34.027H84.8245V22.249ZM96.2895 22.262H97.3685V29.152H96.2895V22.262ZM97.0695 25.226H99.1105V26.136H97.0695V25.226ZM93.0395 23.016H94.1705C94.1705 25.98 92.1035 28.099 88.6715 29.035L88.2295 28.19C91.2715 27.358 93.0395 25.655 93.0395 23.484V23.016ZM88.7495 23.016H93.6375V23.887H88.7495V23.016ZM89.7375 29.698H97.3685V34.014H96.2895V30.569H89.7375V29.698ZM103.1 23.523H103.984V24.472C103.984 26.63 102.684 28.437 100.708 29.152L100.162 28.294C101.93 27.67 103.1 26.149 103.1 24.472V23.523ZM103.295 23.523H104.179V24.459C104.179 25.993 105.297 27.371 107.026 27.943L106.506 28.788C104.543 28.138 103.295 26.461 103.295 24.459V23.523ZM100.487 23.133H106.766V24.017H100.487V23.133ZM108.248 22.262H109.327V29.347H108.248V22.262ZM109.028 25.239H111.069V26.149H109.028V25.239ZM105.583 29.659C107.975 29.659 109.444 30.452 109.444 31.817C109.444 33.195 107.975 33.988 105.583 33.988C103.191 33.988 101.722 33.195 101.722 31.817C101.722 30.452 103.191 29.659 105.583 29.659ZM105.583 30.53C103.841 30.53 102.775 30.998 102.775 31.817C102.775 32.649 103.841 33.143 105.583 33.143C107.325 33.143 108.391 32.649 108.391 31.817C108.391 30.998 107.325 30.53 105.583 30.53ZM114.812 23.237C116.333 23.237 117.321 24.81 117.321 27.332C117.321 29.854 116.333 31.427 114.812 31.427C113.291 31.427 112.316 29.854 112.316 27.332C112.316 24.81 113.291 23.237 114.812 23.237ZM114.812 24.238C113.889 24.238 113.304 25.434 113.304 27.332C113.304 29.23 113.889 30.426 114.812 30.426C115.735 30.426 116.32 29.23 116.32 27.332C116.32 25.434 115.735 24.238 114.812 24.238ZM121.117 22.262H122.157V34.014H121.117V22.262ZM119.258 26.916H121.507V27.8H119.258V26.916ZM118.517 22.509H119.544V33.429H118.517V22.509ZM132.673 22.275H133.765V30.855H132.673V22.275ZM126.212 32.87H134.116V33.754H126.212V32.87ZM126.212 29.971H127.278V33.169H126.212V29.971ZM127.46 23.081C129.215 23.081 130.515 24.277 130.515 25.98C130.515 27.67 129.215 28.879 127.46 28.879C125.705 28.879 124.392 27.67 124.392 25.98C124.392 24.277 125.705 23.081 127.46 23.081ZM127.46 24.017C126.316 24.017 125.445 24.823 125.445 25.98C125.445 27.124 126.316 27.93 127.46 27.93C128.604 27.93 129.475 27.124 129.475 25.98C129.475 24.823 128.604 24.017 127.46 24.017ZM146.352 25.005H148.744V25.889H146.352V25.005ZM146.339 27.293H148.731V28.164H146.339V27.293ZM139.761 23.432H146.339V24.316H139.761V23.432ZM143.089 24.888C144.662 24.888 145.741 25.733 145.741 27.007C145.741 28.281 144.662 29.113 143.089 29.113C141.516 29.113 140.424 28.281 140.424 27.007C140.424 25.733 141.516 24.888 143.089 24.888ZM143.089 25.707C142.101 25.707 141.438 26.227 141.438 27.007C141.438 27.787 142.101 28.294 143.089 28.294C144.064 28.294 144.74 27.787 144.74 27.007C144.74 26.227 144.064 25.707 143.089 25.707ZM142.556 22.145H143.635V23.965H142.556V22.145ZM148.328 22.262H149.407V29.204H148.328V22.262ZM141.815 29.711H142.868V30.92H148.341V29.711H149.407V33.858H141.815V29.711ZM142.868 31.765V33H148.341V31.765H142.868ZM155.048 29.308H156.14V31.245H155.048V29.308ZM160.196 22.262H161.275V34.014H160.196V22.262ZM151.915 31.778L151.772 30.881C153.995 30.868 156.92 30.842 159.455 30.517L159.533 31.31C156.92 31.752 154.086 31.778 151.915 31.778ZM152.019 23.692H159.156V24.563H152.019V23.692ZM155.581 25.239C157.271 25.239 158.415 26.097 158.415 27.41C158.415 28.736 157.271 29.581 155.581 29.581C153.904 29.581 152.76 28.736 152.76 27.41C152.76 26.097 153.904 25.239 155.581 25.239ZM155.581 26.071C154.528 26.071 153.787 26.604 153.787 27.41C153.787 28.216 154.528 28.749 155.581 28.749C156.647 28.749 157.388 28.216 157.388 27.41C157.388 26.604 156.647 26.071 155.581 26.071ZM155.048 22.262H156.127V24.173H155.048V22.262ZM168.609 30.504H176.63V33.858H168.609V30.504ZM175.577 31.336H169.675V33.039H175.577V31.336ZM167.868 23.224H177.319V24.069H167.868V23.224ZM172.626 24.537C175.044 24.537 176.422 25.109 176.422 26.201C176.422 27.293 175.044 27.865 172.626 27.865C170.195 27.865 168.83 27.293 168.83 26.201C168.83 25.109 170.195 24.537 172.626 24.537ZM172.626 25.291C170.923 25.291 169.974 25.616 169.974 26.201C169.974 26.786 170.923 27.111 172.626 27.111C174.316 27.111 175.265 26.786 175.265 26.201C175.265 25.616 174.316 25.291 172.626 25.291ZM172.093 22.093H173.159V23.77H172.093V22.093ZM167.309 28.762H177.93V29.607H167.309V28.762ZM172.093 27.605H173.159V29.23H172.093V27.605ZM188.277 22.262H189.317V34.014H188.277V22.262ZM184.403 26.734H186.353V27.683H184.403V26.734ZM186.002 22.548H187.029V33.403H186.002V22.548ZM179.385 23.744H184.754V24.628H179.385V23.744ZM179.281 31.128L179.151 30.218C180.672 30.218 183.22 30.166 185.001 29.932L185.079 30.725C183.246 31.076 180.789 31.128 179.281 31.128ZM180.347 24.316H181.335V30.465H180.347V24.316ZM182.791 24.316H183.779V30.465H182.791V24.316ZM199.768 22.249H200.847V34.027H199.768V22.249ZM194.646 23.159C196.388 23.159 197.636 24.758 197.636 27.254C197.636 29.763 196.388 31.362 194.646 31.362C192.917 31.362 191.669 29.763 191.669 27.254C191.669 24.758 192.917 23.159 194.646 23.159ZM194.646 24.134C193.502 24.134 192.696 25.356 192.696 27.254C192.696 29.165 193.502 30.413 194.646 30.413C195.803 30.413 196.596 29.165 196.596 27.254C196.596 25.356 195.803 24.134 194.646 24.134ZM206.306 23.939H207.177V25.85C207.177 28.333 205.682 30.829 203.81 31.752L203.186 30.894C204.889 30.088 206.306 27.878 206.306 25.85V23.939ZM206.514 23.939H207.385V25.85C207.385 27.839 208.802 29.867 210.531 30.608L209.92 31.466C208.022 30.582 206.514 28.294 206.514 25.85V23.939ZM203.576 23.458H210.141V24.368H203.576V23.458ZM211.727 22.262H212.806V34.014H211.727V22.262ZM226.757 22.262H227.849V34.014H226.757V22.262ZM227.589 26.877H229.773V27.8H227.589V26.877ZM219.269 23.25H220.335V26.357H223.689V23.25H224.755V31.193H219.269V23.25ZM220.335 27.215V30.309H223.689V27.215H220.335ZM230.773 31.674H241.42V32.571H230.773V31.674ZM235.531 29.152H236.61V32.051H235.531V29.152ZM232.06 23.133H240.107V26.695H233.165V29.048H232.099V25.824H239.041V24.004H232.06V23.133ZM232.099 28.593H240.38V29.477H232.099V28.593ZM250.675 22.249H251.767V34.014H250.675V22.249ZM251.468 27.02H253.639V27.917H251.468V27.02ZM247.672 23.523H248.725C248.725 26.864 247.191 29.88 243.395 31.791L242.797 30.959C246.047 29.308 247.672 26.799 247.672 23.692V23.523ZM243.343 23.523H248.231V24.407H243.343V23.523ZM263.245 22.262H264.324V34.014H263.245V22.262ZM259.8 23.523H260.866C260.866 26.929 259.332 29.906 255.406 31.83L254.834 30.959C258.227 29.321 259.8 26.825 259.8 23.705V23.523ZM255.367 23.523H260.268V24.407H255.367V23.523Z" fill="#EA8585"/>
<path d="M336.707 18.7071C337.098 18.3166 337.098 17.6834 336.707 17.2929L330.343 10.9289C329.953 10.5384 329.319 10.5384 328.929 10.9289C328.538 11.3194 328.538 11.9526 328.929 12.3431L334.586 18L328.929 23.6568C328.538 24.0473 328.538 24.6805 328.929 25.071C329.319 25.4616 329.953 25.4616 330.343 25.071L336.707 18.7071ZM8.74228e-08 19L336 19L336 17L-8.74228e-08 17L8.74228e-08 19Z" fill="#D47777"/>
</svg>
