<svg width="1223" height="242" viewBox="0 0 1223 242" fill="none" xmlns="http://www.w3.org/2000/svg">
<rect width="1223" height="242" fill="#FFD0C5"/>
<g filter="url(#filter0_di_65_287)">
<rect x="13" y="7.875" width="1197" height="219.068" fill="#FFB5A4"/>
</g>
<g filter="url(#filter1_di_65_287)">
<rect width="1134" height="189.716" transform="matrix(1 0 0 -1 44 211.193)" fill="#FFD0C5"/>
</g>
<path d="M220.323 84.22H222.813V111.34H220.323V84.22ZM222.213 95.35H227.253V97.45H222.213V95.35ZM201.813 88.54H217.803V90.58H201.813V88.54ZM209.913 92.83C213.753 92.83 216.513 95.41 216.513 99.07C216.513 102.73 213.753 105.31 209.913 105.31C206.103 105.31 203.313 102.73 203.313 99.07C203.313 95.41 206.103 92.83 209.913 92.83ZM209.913 94.9C207.453 94.9 205.683 96.61 205.683 99.07C205.683 101.5 207.453 103.24 209.913 103.24C212.373 103.24 214.143 101.5 214.143 99.07C214.143 96.61 212.373 94.9 209.913 94.9ZM208.623 84.55H211.113V89.47H208.623V84.55ZM248.101 84.19H250.591V103.84H248.101V84.19ZM249.841 92.26H254.611V94.33H249.841V92.26ZM230.791 97H232.891C238.471 97 241.621 96.85 245.251 96.1L245.521 98.11C241.801 98.89 238.591 99.07 232.891 99.07H230.791V97ZM230.791 86.53H242.761V88.6H233.251V98.11H230.791V86.53ZM233.701 108.7H251.821V110.74H233.701V108.7ZM233.701 101.89H236.191V109.63H233.701V101.89ZM265.948 86.17C270.178 86.17 273.208 88.78 273.208 92.56C273.208 96.37 270.178 98.98 265.948 98.98C261.718 98.98 258.658 96.37 258.658 92.56C258.658 88.78 261.718 86.17 265.948 86.17ZM265.948 88.33C263.128 88.33 261.088 90.04 261.088 92.56C261.088 95.08 263.128 96.82 265.948 96.82C268.738 96.82 270.778 95.08 270.778 92.56C270.778 90.04 268.738 88.33 265.948 88.33ZM276.748 84.19H279.238V111.37H276.748V84.19ZM257.638 105.43L257.278 103.36C262.228 103.36 269.068 103.33 274.978 102.4L275.188 104.23C269.098 105.4 262.468 105.43 257.638 105.43ZM313.053 84.19H315.513V111.37H313.053V84.19ZM305.883 94.27H313.773V96.31H305.883V94.27ZM294.273 86.35H296.733V93.4H304.263V86.35H306.723V104.56H294.273V86.35ZM296.733 95.38V102.49H304.263V95.38H296.733ZM320.761 99.22H345.271V101.26H320.761V99.22ZM323.911 108.7H342.721V110.74H323.911V108.7ZM323.911 103.24H326.401V109.48H323.911V103.24ZM324.001 94.78H342.391V96.73H324.001V94.78ZM324.001 85.21H342.271V87.19H326.461V95.53H324.001V85.21ZM325.741 89.98H341.551V91.87H325.741V89.98ZM360.629 84.67C366.599 84.67 370.169 86.35 370.169 89.38C370.169 92.41 366.599 94.09 360.629 94.09C354.629 94.09 351.089 92.41 351.089 89.38C351.089 86.35 354.629 84.67 360.629 84.67ZM360.629 86.56C356.189 86.56 353.639 87.58 353.639 89.38C353.639 91.18 356.189 92.2 360.629 92.2C365.039 92.2 367.589 91.18 367.589 89.38C367.589 87.58 365.039 86.56 360.629 86.56ZM348.359 95.89H372.869V97.9H348.359V95.89ZM351.329 100.21H369.749V106.33H353.849V109.63H351.389V104.53H367.289V102.13H351.329V100.21ZM351.389 109.09H370.559V111.04H351.389V109.09ZM387.544 85.48H405.004V87.49H387.544V85.48ZM403.384 85.48H405.814V87.58C405.814 89.83 405.814 92.5 405.034 96.07L402.574 95.8C403.384 92.29 403.384 89.8 403.384 87.58V85.48ZM404.074 90.07V91.84L387.184 92.59L386.854 90.61L404.074 90.07ZM384.424 95.32H408.904V97.3H384.424V95.32ZM387.274 99.88H406.024V106.21H389.794V109.87H387.334V104.35H403.564V101.8H387.274V99.88ZM387.334 109.03H406.954V110.98H387.334V109.03ZM431.731 84.22H434.251V100.81H431.731V84.22ZM416.131 102.28H434.251V111.34H431.731V104.32H416.131V102.28ZM413.401 97.24H415.591C420.511 97.24 424.141 97.09 428.491 96.4L428.761 98.41C424.291 99.16 420.631 99.28 415.591 99.28H413.401V97.24ZM413.341 85.81H425.641V93.34H415.831V98.23H413.401V91.42H423.211V87.85H413.341V85.81ZM439.559 88.84H452.999V90.88H439.559V88.84ZM446.279 92.68C449.669 92.68 452.129 95.23 452.129 98.89C452.129 102.52 449.669 105.07 446.279 105.07C442.919 105.07 440.459 102.52 440.459 98.89C440.459 95.23 442.919 92.68 446.279 92.68ZM446.279 94.81C444.209 94.81 442.709 96.49 442.709 98.89C442.709 101.29 444.209 102.97 446.279 102.97C448.379 102.97 449.909 101.29 449.909 98.89C449.909 96.49 448.379 94.81 446.279 94.81ZM460.169 84.22H462.569V111.34H460.169V84.22ZM455.849 95.62H460.979V97.69H455.849V95.62ZM454.379 84.82H456.719V110.02H454.379V84.82ZM445.079 85H447.539V90.1H445.079V85ZM482.794 86.56H484.834V91.42C484.834 97.66 481.474 103.45 477.034 105.7L475.504 103.66C479.524 101.74 482.794 96.55 482.794 91.42V86.56ZM483.214 86.56H485.254V91.42C485.254 96.37 488.494 101.35 492.514 103.21L491.014 105.19C486.604 103.03 483.214 97.45 483.214 91.42V86.56ZM495.334 84.19H497.824V111.37H495.334V84.19ZM521.792 84.22H524.282V100.12H521.792V84.22ZM523.592 91.06H528.302V93.16H523.592V91.06ZM514.292 85.96H516.902C516.902 92.8 512.132 97.69 504.212 99.85L503.192 97.9C510.212 95.98 514.292 92.05 514.292 87.04V85.96ZM504.392 85.96H515.672V87.97H504.392V85.96ZM506.672 101.38H524.282V111.34H521.792V103.39H506.672V101.38ZM537.51 87.13H539.55V89.32C539.55 94.3 536.55 98.47 531.99 100.12L530.73 98.14C534.81 96.7 537.51 93.19 537.51 89.32V87.13ZM537.96 87.13H540V89.29C540 92.83 542.58 96.01 546.57 97.33L545.37 99.28C540.84 97.78 537.96 93.91 537.96 89.29V87.13ZM531.48 86.23H545.97V88.27H531.48V86.23ZM549.39 84.22H551.88V100.57H549.39V84.22ZM551.19 91.09H555.9V93.19H551.19V91.09ZM543.24 101.29C548.76 101.29 552.15 103.12 552.15 106.27C552.15 109.45 548.76 111.28 543.24 111.28C537.72 111.28 534.33 109.45 534.33 106.27C534.33 103.12 537.72 101.29 543.24 101.29ZM543.24 103.3C539.22 103.3 536.76 104.38 536.76 106.27C536.76 108.19 539.22 109.33 543.24 109.33C547.26 109.33 549.72 108.19 549.72 106.27C549.72 104.38 547.26 103.3 543.24 103.3ZM564.537 86.47C568.047 86.47 570.327 90.1 570.327 95.92C570.327 101.74 568.047 105.37 564.537 105.37C561.027 105.37 558.777 101.74 558.777 95.92C558.777 90.1 561.027 86.47 564.537 86.47ZM564.537 88.78C562.407 88.78 561.057 91.54 561.057 95.92C561.057 100.3 562.407 103.06 564.537 103.06C566.667 103.06 568.017 100.3 568.017 95.92C568.017 91.54 566.667 88.78 564.537 88.78ZM579.087 84.22H581.487V111.34H579.087V84.22ZM574.797 94.96H579.987V97H574.797V94.96ZM573.087 84.79H575.457V109.99H573.087V84.79ZM605.755 84.25H608.275V104.05H605.755V84.25ZM590.845 108.7H609.085V110.74H590.845V108.7ZM590.845 102.01H593.305V109.39H590.845V102.01ZM593.725 86.11C597.775 86.11 600.775 88.87 600.775 92.8C600.775 96.7 597.775 99.49 593.725 99.49C589.675 99.49 586.645 96.7 586.645 92.8C586.645 88.87 589.675 86.11 593.725 86.11ZM593.725 88.27C591.085 88.27 589.075 90.13 589.075 92.8C589.075 95.44 591.085 97.3 593.725 97.3C596.365 97.3 598.375 95.44 598.375 92.8C598.375 90.13 596.365 88.27 593.725 88.27ZM623.49 85.96H636.12V97.06H623.49V85.96ZM633.72 87.97H625.89V95.08H633.72V87.97ZM641.79 84.22H644.28V99.79H641.79V84.22ZM634.44 103H636.57V103.51C636.57 107.41 631.74 110.53 626.25 111.25L625.41 109.33C630.12 108.79 634.44 106.21 634.44 103.51V103ZM634.8 103H636.96V103.51C636.96 106.12 641.16 108.76 645.87 109.33L645.03 111.25C639.51 110.5 634.8 107.32 634.8 103.51V103ZM626.49 101.62H644.91V103.57H626.49V101.62ZM634.44 99.01H636.96V102.49H634.44V99.01ZM678.725 84.22H681.125V111.34H678.725V84.22ZM674.135 95.08H679.355V97.15H674.135V95.08ZM672.575 84.82H674.915V109.96H672.575V84.82ZM659.075 102.58H660.845C664.805 102.58 667.505 102.43 670.655 101.77L670.895 103.84C667.655 104.53 664.925 104.65 660.845 104.65H659.075V102.58ZM659.075 87.52H669.155V89.56H661.535V103.51H659.075V87.52ZM692.733 100.39H695.223V104.8H692.733V100.39ZM704.133 84.22H706.623V111.34H704.133V84.22ZM705.813 95.74H710.823V97.84H705.813V95.74ZM685.743 106.18L685.383 104.11C690.243 104.11 696.873 104.05 702.483 103.24L702.693 105.1C696.843 106.15 690.483 106.18 685.743 106.18ZM685.833 87.49H702.063V89.5H685.833V87.49ZM693.963 91.09C697.743 91.09 700.353 93.07 700.353 96.1C700.353 99.16 697.743 101.11 693.963 101.11C690.183 101.11 687.603 99.16 687.603 96.1C687.603 93.07 690.183 91.09 693.963 91.09ZM693.963 93.01C691.533 93.01 689.943 94.24 689.943 96.1C689.943 97.96 691.533 99.19 693.963 99.19C696.393 99.19 698.013 97.96 698.013 96.1C698.013 94.24 696.393 93.01 693.963 93.01ZM692.733 84.25H695.223V88.84H692.733V84.25ZM728.551 90.73H734.071V92.77H728.551V90.73ZM728.521 96.01H734.041V98.05H728.521V96.01ZM713.341 87.19H728.521V89.2H713.341V87.19ZM721.021 90.61C724.651 90.61 727.141 92.59 727.141 95.62C727.141 98.65 724.651 100.66 721.021 100.66C717.391 100.66 714.871 98.65 714.871 95.62C714.871 92.59 717.391 90.61 721.021 90.61ZM721.021 92.53C718.741 92.53 717.211 93.73 717.211 95.62C717.211 97.51 718.741 98.74 721.021 98.74C723.271 98.74 724.831 97.51 724.831 95.62C724.831 93.73 723.271 92.53 721.021 92.53ZM719.791 83.98H722.281V88.6H719.791V83.98ZM733.111 84.22H735.601V101.74H733.111V84.22ZM726.721 102.01C732.331 102.01 735.751 103.72 735.751 106.66C735.751 109.6 732.331 111.28 726.721 111.28C721.081 111.28 717.691 109.6 717.691 106.66C717.691 103.72 721.081 102.01 726.721 102.01ZM726.721 103.99C722.731 103.99 720.271 104.92 720.271 106.66C720.271 108.37 722.731 109.36 726.721 109.36C730.711 109.36 733.171 108.37 733.171 106.66C733.171 104.92 730.711 103.99 726.721 103.99ZM767.886 84.22H770.376V99.58H767.886V84.22ZM769.686 90.82H774.396V92.89H769.686V90.82ZM760.386 85.96H763.026C763.026 92.8 758.256 97.72 750.276 99.88L749.316 97.9C756.336 95.98 760.386 92.05 760.386 87.07V85.96ZM750.486 85.96H761.766V87.97H750.486V85.96ZM753.306 100.87H770.376V110.98H753.306V100.87ZM767.916 102.88H755.766V108.94H767.916V102.88ZM783.513 85.63H785.583V88.39C785.583 93.61 782.643 97.93 778.113 99.7L776.793 97.69C780.873 96.19 783.513 92.53 783.513 88.39V85.63ZM783.963 85.63H786.003V88.57C786.003 92.23 788.703 95.62 792.603 96.97L791.283 98.92C786.933 97.3 783.963 93.28 783.963 88.57V85.63ZM795.483 84.22H797.973V100.66H795.483V84.22ZM797.283 91.21H801.993V93.31H797.283V91.21ZM789.333 101.41C794.883 101.41 798.243 103.24 798.243 106.36C798.243 109.48 794.883 111.28 789.333 111.28C783.783 111.28 780.423 109.48 780.423 106.36C780.423 103.24 783.783 101.41 789.333 101.41ZM789.333 103.39C785.313 103.39 782.853 104.47 782.853 106.36C782.853 108.25 785.313 109.33 789.333 109.33C793.353 109.33 795.813 108.25 795.813 106.36C795.813 104.47 793.353 103.39 789.333 103.39ZM812.979 105.79H837.549V107.86H812.979V105.79ZM815.109 86.92H835.239V88.96H815.109V86.92ZM815.169 98.38H835.209V100.42H815.169V98.38ZM819.339 88.81H821.829V98.59H819.339V88.81ZM828.579 88.81H831.039V98.59H828.579V88.81ZM840.576 105.94H865.146V108.01H840.576V105.94ZM851.556 100.12H854.046V106.81H851.556V100.12ZM843.546 86.23H862.116V94.45H846.096V99.88H843.636V92.44H859.656V88.24H843.546V86.23ZM843.636 98.83H862.746V100.87H843.636V98.83ZM870.814 87.1H888.274V89.11H870.814V87.1ZM868.174 105.31H892.684V107.38H868.174V105.31ZM886.954 87.1H889.384V89.8C889.384 93.28 889.384 97.15 888.364 103L885.874 102.76C886.954 97.21 886.954 93.16 886.954 89.8V87.1ZM916.231 84.22H918.601V100.39H916.231V84.22ZM911.851 91.09H916.981V93.16H911.851V91.09ZM910.261 84.73H912.601V100.06H910.261V84.73ZM900.811 101.71H918.601V110.98H900.811V101.71ZM916.201 103.69H903.241V108.97H916.201V103.69ZM897.001 97.21H898.741C902.551 97.21 905.371 97.09 908.701 96.43L908.941 98.44C905.521 99.1 902.671 99.22 898.741 99.22H897.001V97.21ZM896.941 86.02H907.141V93.4H899.401V98.59H897.001V91.51H904.741V88H896.941V86.02ZM934.349 94.75H939.479V96.82H934.349V94.75ZM944.009 84.22H946.409V111.34H944.009V84.22ZM938.639 84.79H941.009V109.99H938.639V84.79ZM929.459 86.47C932.969 86.47 935.249 90.1 935.249 95.92C935.249 101.74 932.969 105.37 929.459 105.37C925.949 105.37 923.699 101.74 923.699 95.92C923.699 90.1 925.949 86.47 929.459 86.47ZM929.459 88.78C927.329 88.78 925.979 91.54 925.979 95.92C925.979 100.3 927.329 103.06 929.459 103.06C931.619 103.06 932.969 100.3 932.969 95.92C932.969 91.54 931.619 88.78 929.459 88.78ZM980.014 84.22H982.414V111.34H980.014V84.22ZM975.424 95.08H980.644V97.15H975.424V95.08ZM973.864 84.82H976.204V109.96H973.864V84.82ZM960.364 102.58H962.134C966.094 102.58 968.794 102.43 971.944 101.77L972.184 103.84C968.944 104.53 966.214 104.65 962.134 104.65H960.364V102.58ZM960.364 87.52H970.444V89.56H962.824V103.51H960.364V87.52ZM1005.54 84.25H1008.03V104.59H1005.54V84.25ZM1007.25 93.13H1012.05V95.23H1007.25V93.13ZM987.062 87.52H1003.08V89.53H987.062V87.52ZM995.072 91.03C998.912 91.03 1001.55 93.04 1001.55 96.1C1001.55 99.13 998.912 101.14 995.072 101.14C991.202 101.14 988.562 99.13 988.562 96.1C988.562 93.04 991.202 91.03 995.072 91.03ZM995.072 92.98C992.612 92.98 990.932 94.21 990.932 96.1C990.932 97.96 992.612 99.19 995.072 99.19C997.502 99.19 999.182 97.96 999.182 96.1C999.182 94.21 997.502 92.98 995.072 92.98ZM993.812 84.22H996.302V88.57H993.812V84.22ZM991.142 108.7H1009.26V110.74H991.142V108.7ZM991.142 102.97H993.632V109.57H991.142V102.97ZM417.634 138.58H419.704C424.744 138.58 427.984 138.46 431.764 137.74L432.034 139.78C428.134 140.5 424.864 140.68 419.704 140.68H417.634V138.58ZM417.634 122.8H429.964V124.84H420.094V139.36H417.634V122.8ZM436.144 120.22H438.634V147.4H436.144V120.22ZM428.374 130.03H437.164V132.1H428.374V130.03ZM459.009 124.09H460.989V128.5C460.989 134.14 457.539 139.96 453.309 142.12L451.869 140.14C455.739 138.25 459.009 133.09 459.009 128.5V124.09ZM459.459 124.09H461.439V128.5C461.439 132.79 464.499 137.62 468.429 139.48L467.019 141.46C462.729 139.33 459.459 133.87 459.459 128.5V124.09ZM452.829 122.98H467.439V125.08H452.829V122.98ZM470.649 120.22H473.169V147.34H470.649V120.22ZM472.569 131.17H477.609V133.27H472.569V131.17ZM490.597 129.91H495.787V131.98H490.597V129.91ZM485.527 122.77H487.477V127.93C487.477 133.6 485.107 139.09 481.147 141.52L479.587 139.63C483.307 137.44 485.527 132.58 485.527 127.93V122.77ZM486.007 122.77H487.927V127.84C487.927 132.19 489.967 136.81 493.537 138.97L492.097 140.92C488.197 138.52 486.007 133.12 486.007 127.84V122.77ZM500.557 120.22H502.957V147.34H500.557V120.22ZM495.067 120.79H497.407V145.99H495.067V120.79ZM526.055 120.25H528.545V140.59H526.055V120.25ZM527.765 129.13H532.565V131.23H527.765V129.13ZM507.575 123.52H523.595V125.53H507.575V123.52ZM515.585 127.03C519.425 127.03 522.065 129.04 522.065 132.1C522.065 135.13 519.425 137.14 515.585 137.14C511.715 137.14 509.075 135.13 509.075 132.1C509.075 129.04 511.715 127.03 515.585 127.03ZM515.585 128.98C513.125 128.98 511.445 130.21 511.445 132.1C511.445 133.96 513.125 135.19 515.585 135.19C518.015 135.19 519.695 133.96 519.695 132.1C519.695 130.21 518.015 128.98 515.585 128.98ZM514.325 120.22H516.815V124.57H514.325V120.22ZM511.655 144.7H529.775V146.74H511.655V144.7ZM511.655 138.97H514.145V145.57H511.655V138.97ZM564.13 120.22H566.53V147.34H564.13V120.22ZM559.57 131.26H564.79V133.3H559.57V131.26ZM557.98 120.82H560.32V145.96H557.98V120.82ZM544.84 123.49H547.33V139.15H544.84V123.49ZM544.84 138.16H546.58C549.37 138.16 552.49 137.98 556.03 137.29L556.3 139.45C552.61 140.17 549.49 140.32 546.58 140.32H544.84V138.16ZM577.177 129.4H579.637V134.53H577.177V129.4ZM587.137 129.4H589.597V134.53H587.137V129.4ZM571.117 133.63H595.627V135.64H571.117V133.63ZM583.357 137.68C589.177 137.68 592.657 139.39 592.657 142.48C592.657 145.57 589.177 147.31 583.357 147.31C577.537 147.31 574.057 145.57 574.057 142.48C574.057 139.39 577.537 137.68 583.357 137.68ZM583.357 139.6C579.127 139.6 576.577 140.65 576.577 142.48C576.577 144.34 579.127 145.36 583.357 145.36C587.617 145.36 590.137 144.34 590.137 142.48C590.137 140.65 587.617 139.6 583.357 139.6ZM583.387 120.7C589.267 120.7 592.927 122.59 592.927 125.77C592.927 128.92 589.267 130.78 583.387 130.78C577.477 130.78 573.847 128.92 573.847 125.77C573.847 122.59 577.477 120.7 583.387 120.7ZM583.387 122.65C579.067 122.65 576.397 123.79 576.397 125.77C576.397 127.72 579.067 128.86 583.387 128.86C587.707 128.86 590.377 127.72 590.377 125.77C590.377 123.79 587.707 122.65 583.387 122.65ZM610.985 120.67C616.955 120.67 620.525 122.35 620.525 125.38C620.525 128.41 616.955 130.09 610.985 130.09C604.985 130.09 601.445 128.41 601.445 125.38C601.445 122.35 604.985 120.67 610.985 120.67ZM610.985 122.56C606.545 122.56 603.995 123.58 603.995 125.38C603.995 127.18 606.545 128.2 610.985 128.2C615.395 128.2 617.945 127.18 617.945 125.38C617.945 123.58 615.395 122.56 610.985 122.56ZM598.715 131.89H623.225V133.9H598.715V131.89ZM601.685 136.21H620.105V142.33H604.205V145.63H601.745V140.53H617.645V138.13H601.685V136.21ZM601.745 145.09H620.915V147.04H601.745V145.09ZM641.86 132.94H644.35V136.42H641.86V132.94ZM653.29 120.25H655.78V138.43H653.29V120.25ZM654.73 128.44H659.74V130.51H654.73V128.44ZM634.93 137.65L634.6 135.61C639.46 135.61 646.06 135.61 651.67 134.8L651.88 136.57C646.09 137.59 639.67 137.62 634.93 137.65ZM637.96 139.78H655.78V147.34H653.29V141.76H637.96V139.78ZM635.29 122.68H650.86V124.54H635.29V122.68ZM643.09 125.59C646.9 125.59 649.39 127.12 649.39 129.61C649.39 132.1 646.9 133.63 643.09 133.63C639.25 133.63 636.76 132.1 636.76 129.61C636.76 127.12 639.25 125.59 643.09 125.59ZM643.09 127.3C640.66 127.3 639.1 128.17 639.1 129.61C639.1 130.99 640.66 131.89 643.09 131.89C645.49 131.89 647.05 130.99 647.05 129.61C647.05 128.17 645.49 127.3 643.09 127.3ZM641.86 120.01H644.35V123.58H641.86V120.01ZM682.088 120.25H684.608V140.05H682.088V120.25ZM667.178 144.7H685.418V146.74H667.178V144.7ZM667.178 138.01H669.638V145.39H667.178V138.01ZM670.058 122.11C674.108 122.11 677.108 124.87 677.108 128.8C677.108 132.7 674.108 135.49 670.058 135.49C666.008 135.49 662.978 132.7 662.978 128.8C662.978 124.87 666.008 122.11 670.058 122.11ZM670.058 124.27C667.418 124.27 665.408 126.13 665.408 128.8C665.408 131.44 667.418 133.3 670.058 133.3C672.698 133.3 674.708 131.44 674.708 128.8C674.708 126.13 672.698 124.27 670.058 124.27ZM689.916 124.84H703.356V126.88H689.916V124.84ZM696.636 128.68C700.026 128.68 702.486 131.23 702.486 134.89C702.486 138.52 700.026 141.07 696.636 141.07C693.276 141.07 690.816 138.52 690.816 134.89C690.816 131.23 693.276 128.68 696.636 128.68ZM696.636 130.81C694.566 130.81 693.066 132.49 693.066 134.89C693.066 137.29 694.566 138.97 696.636 138.97C698.736 138.97 700.266 137.29 700.266 134.89C700.266 132.49 698.736 130.81 696.636 130.81ZM710.526 120.22H712.926V147.34H710.526V120.22ZM706.206 131.62H711.336V133.69H706.206V131.62ZM704.736 120.82H707.076V146.02H704.736V120.82ZM695.436 121H697.896V126.1H695.436V121ZM717.573 141.82H742.143V143.89H717.573V141.82ZM728.553 135.34H731.043V142.42H728.553V135.34ZM720.453 122.14H722.913V126.97H736.743V122.14H739.203V136H720.453V122.14ZM722.913 128.98V133.96H736.743V128.98H722.913ZM755.851 129.91H761.041V131.98H755.851V129.91ZM750.781 122.77H752.731V127.93C752.731 133.6 750.361 139.09 746.401 141.52L744.841 139.63C748.561 137.44 750.781 132.58 750.781 127.93V122.77ZM751.261 122.77H753.181V127.84C753.181 132.19 755.221 136.81 758.791 138.97L757.351 140.92C753.451 138.52 751.261 133.12 751.261 127.84V122.77ZM765.811 120.22H768.211V147.34H765.811V120.22ZM760.321 120.79H762.661V145.99H760.321V120.79ZM778.769 134.17H781.229V142.3H778.769V134.17ZM788.789 134.17H791.279V142.3H788.789V134.17ZM772.769 141.82H797.339V143.89H772.769V141.82ZM785.009 121.93C790.739 121.93 794.849 124.66 794.849 128.92C794.849 133.15 790.739 135.88 785.009 135.88C779.249 135.88 775.139 133.15 775.139 128.92C775.139 124.66 779.249 121.93 785.009 121.93ZM785.009 123.91C780.659 123.91 777.539 125.89 777.539 128.92C777.539 131.92 780.659 133.9 785.009 133.9C789.359 133.9 792.449 131.92 792.449 128.92C792.449 125.89 789.359 123.91 785.009 123.91ZM804.491 123.182L804.278 138.864H801.807L801.593 123.182H804.491ZM803.042 145.17C802.517 145.17 802.066 144.982 801.689 144.606C801.313 144.229 801.125 143.778 801.125 143.253C801.125 142.727 801.313 142.276 801.689 141.9C802.066 141.523 802.517 141.335 803.042 141.335C803.568 141.335 804.019 141.523 804.395 141.9C804.772 142.276 804.96 142.727 804.96 143.253C804.96 143.601 804.871 143.92 804.694 144.212C804.523 144.503 804.292 144.737 804.001 144.915C803.717 145.085 803.397 145.17 803.042 145.17Z" fill="black"/>
<defs>
<filter id="filter0_di_65_287" x="9" y="7.875" width="1205" height="227.068" filterUnits="userSpaceOnUse" color-interpolation-filters="sRGB">
<feFlood flood-opacity="0" result="BackgroundImageFix"/>
<feColorMatrix in="SourceAlpha" type="matrix" values="0 0 0 0 0 0 0 0 0 0 0 0 0 0 0 0 0 0 127 0" result="hardAlpha"/>
<feOffset dy="4"/>
<feGaussianBlur stdDeviation="2"/>
<feComposite in2="hardAlpha" operator="out"/>
<feColorMatrix type="matrix" values="0 0 0 0 0 0 0 0 0 0 0 0 0 0 0 0 0 0 0.25 0"/>
<feBlend mode="normal" in2="BackgroundImageFix" result="effect1_dropShadow_65_287"/>
<feBlend mode="normal" in="SourceGraphic" in2="effect1_dropShadow_65_287" result="shape"/>
<feColorMatrix in="SourceAlpha" type="matrix" values="0 0 0 0 0 0 0 0 0 0 0 0 0 0 0 0 0 0 127 0" result="hardAlpha"/>
<feOffset dy="4"/>
<feGaussianBlur stdDeviation="2"/>
<feComposite in2="hardAlpha" operator="arithmetic" k2="-1" k3="1"/>
<feColorMatrix type="matrix" values="0 0 0 0 0 0 0 0 0 0 0 0 0 0 0 0 0 0 0.25 0"/>
<feBlend mode="normal" in2="shape" result="effect2_innerShadow_65_287"/>
</filter>
<filter id="filter1_di_65_287" x="40" y="21.4775" width="1142" height="197.716" filterUnits="userSpaceOnUse" color-interpolation-filters="sRGB">
<feFlood flood-opacity="0" result="BackgroundImageFix"/>
<feColorMatrix in="SourceAlpha" type="matrix" values="0 0 0 0 0 0 0 0 0 0 0 0 0 0 0 0 0 0 127 0" result="hardAlpha"/>
<feOffset dy="4"/>
<feGaussianBlur stdDeviation="2"/>
<feComposite in2="hardAlpha" operator="out"/>
<feColorMatrix type="matrix" values="0 0 0 0 0 0 0 0 0 0 0 0 0 0 0 0 0 0 0.25 0"/>
<feBlend mode="normal" in2="BackgroundImageFix" result="effect1_dropShadow_65_287"/>
<feBlend mode="normal" in="SourceGraphic" in2="effect1_dropShadow_65_287" result="shape"/>
<feColorMatrix in="SourceAlpha" type="matrix" values="0 0 0 0 0 0 0 0 0 0 0 0 0 0 0 0 0 0 127 0" result="hardAlpha"/>
<feOffset dy="4"/>
<feGaussianBlur stdDeviation="2"/>
<feComposite in2="hardAlpha" operator="arithmetic" k2="-1" k3="1"/>
<feColorMatrix type="matrix" values="0 0 0 0 0 0 0 0 0 0 0 0 0 0 0 0 0 0 0.25 0"/>
<feBlend mode="normal" in2="shape" result="effect2_innerShadow_65_287"/>
</filter>
</defs>
</svg>
