<svg width="124" height="61" viewBox="0 0 124 61" fill="none" xmlns="http://www.w3.org/2000/svg">
<g filter="url(#filter0_d_63_207)">
<rect x="4" width="116" height="53" fill="#FFBBAB"/>
</g>
<path d="M10.09 30.292H11.608C15.304 30.292 17.68 30.204 20.452 29.676L20.65 31.172C17.79 31.7 15.392 31.832 11.608 31.832H10.09V30.292ZM10.09 18.72H19.132V20.216H11.894V30.864H10.09V18.72ZM23.664 16.828H25.49V36.76H23.664V16.828ZM17.966 24.022H24.412V25.54H17.966V24.022ZM49.1218 16.828H50.9478V26.948H49.1218V16.828ZM50.1558 21.096H53.8738V22.614H50.1558V21.096ZM38.3198 27.894H50.9478V32.778H40.1678V35.748H38.3638V31.392H49.1658V29.346H38.3198V27.894ZM38.3638 34.978H51.6738V36.452H38.3638V34.978ZM41.0038 17.532C43.9958 17.532 46.1518 19.358 46.1518 21.954C46.1518 24.572 43.9958 26.398 41.0038 26.398C38.0558 26.398 35.8778 24.572 35.8778 21.954C35.8778 19.358 38.0558 17.532 41.0038 17.532ZM41.0038 19.028C39.0898 19.028 37.6598 20.238 37.6598 21.954C37.6598 23.692 39.0898 24.902 41.0038 24.902C42.9618 24.902 44.3918 23.692 44.3918 21.954C44.3918 20.238 42.9618 19.028 41.0038 19.028ZM61.0441 18.346C63.9701 18.346 66.0381 21.052 66.0381 25.276C66.0381 29.522 63.9701 32.228 61.0441 32.228C58.1181 32.228 56.0501 29.522 56.0501 25.276C56.0501 21.052 58.1181 18.346 61.0441 18.346ZM61.0441 19.996C59.1081 19.996 57.7881 22.064 57.7881 25.276C57.7881 28.51 59.1081 30.622 61.0441 30.622C62.9581 30.622 64.3001 28.51 64.3001 25.276C64.3001 22.064 62.9581 19.996 61.0441 19.996ZM69.2061 16.828H71.0541V36.716H69.2061V16.828ZM70.6141 24.77H74.3101V26.31H70.6141V24.77ZM76.0023 32.668H94.0203V34.186H76.0023V32.668ZM84.0543 27.916H85.8803V33.108H84.0543V27.916ZM78.1143 18.236H79.9183V21.778H90.0603V18.236H91.8643V28.4H78.1143V18.236ZM79.9183 23.252V26.904H90.0603V23.252H79.9183ZM110.717 16.828H112.543V36.716H110.717V16.828ZM104.887 18.962H106.691C106.691 24.726 104.095 29.764 97.4506 33.02L96.4826 31.546C102.225 28.774 104.887 24.55 104.887 19.27V18.962ZM97.3846 18.962H105.679V20.458H97.3846V18.962Z" fill="#EA8585"/>
<defs>
<filter id="filter0_d_63_207" x="0" y="0" width="124" height="61" filterUnits="userSpaceOnUse" color-interpolation-filters="sRGB">
<feFlood flood-opacity="0" result="BackgroundImageFix"/>
<feColorMatrix in="SourceAlpha" type="matrix" values="0 0 0 0 0 0 0 0 0 0 0 0 0 0 0 0 0 0 127 0" result="hardAlpha"/>
<feOffset dy="4"/>
<feGaussianBlur stdDeviation="2"/>
<feComposite in2="hardAlpha" operator="out"/>
<feColorMatrix type="matrix" values="0 0 0 0 0 0 0 0 0 0 0 0 0 0 0 0 0 0 0.25 0"/>
<feBlend mode="normal" in2="BackgroundImageFix" result="effect1_dropShadow_63_207"/>
<feBlend mode="normal" in="SourceGraphic" in2="effect1_dropShadow_63_207" result="shape"/>
</filter>
</defs>
</svg>
