<svg width="380" height="63" viewBox="0 0 380 63" fill="none" xmlns="http://www.w3.org/2000/svg">
<rect x="2" y="2" width="376" height="59" rx="11" fill="#FFE4DE" stroke="#EA8585" stroke-width="4"/>
<path d="M48.8908 19.35H50.8908V41.95H48.8908V19.35ZM45.0658 28.4H49.4158V30.125H45.0658V28.4ZM43.7658 19.85H45.7158V40.8H43.7658V19.85ZM32.5158 34.65H33.9908C37.2908 34.65 39.5408 34.525 42.1658 33.975L42.3658 35.7C39.6658 36.275 37.3908 36.375 33.9908 36.375H32.5158V34.65ZM32.5158 22.1H40.9158V23.8H34.5658V35.425H32.5158V22.1ZM60.5639 32.825H62.6389V36.5H60.5639V32.825ZM70.0639 19.35H72.1389V41.95H70.0639V19.35ZM71.4639 28.95H75.6389V30.7H71.4639V28.95ZM54.7389 37.65L54.4389 35.925C58.4889 35.925 64.0139 35.875 68.6889 35.2L68.8639 36.75C63.9889 37.625 58.6889 37.65 54.7389 37.65ZM54.8139 22.075H68.3389V23.75H54.8139V22.075ZM61.5889 25.075C64.7389 25.075 66.9139 26.725 66.9139 29.25C66.9139 31.8 64.7389 33.425 61.5889 33.425C58.4389 33.425 56.2889 31.8 56.2889 29.25C56.2889 26.725 58.4389 25.075 61.5889 25.075ZM61.5889 26.675C59.5639 26.675 58.2389 27.7 58.2389 29.25C58.2389 30.8 59.5639 31.825 61.5889 31.825C63.6139 31.825 64.9639 30.8 64.9639 29.25C64.9639 27.7 63.6139 26.675 61.5889 26.675ZM60.5639 19.375H62.6389V23.2H60.5639V19.375ZM90.4119 24.775H95.0119V26.475H90.4119V24.775ZM90.3869 29.175H94.9869V30.875H90.3869V29.175ZM77.7369 21.825H90.3869V23.5H77.7369V21.825ZM84.1369 24.675C87.1619 24.675 89.2369 26.325 89.2369 28.85C89.2369 31.375 87.1619 33.05 84.1369 33.05C81.1119 33.05 79.0119 31.375 79.0119 28.85C79.0119 26.325 81.1119 24.675 84.1369 24.675ZM84.1369 26.275C82.2369 26.275 80.9619 27.275 80.9619 28.85C80.9619 30.425 82.2369 31.45 84.1369 31.45C86.0119 31.45 87.3119 30.425 87.3119 28.85C87.3119 27.275 86.0119 26.275 84.1369 26.275ZM83.1119 19.15H85.1869V23H83.1119V19.15ZM94.2119 19.35H96.2869V33.95H94.2119V19.35ZM88.8869 34.175C93.5619 34.175 96.4119 35.6 96.4119 38.05C96.4119 40.5 93.5619 41.9 88.8869 41.9C84.1869 41.9 81.3619 40.5 81.3619 38.05C81.3619 35.6 84.1869 34.175 88.8869 34.175ZM88.8869 35.825C85.5619 35.825 83.5119 36.6 83.5119 38.05C83.5119 39.475 85.5619 40.3 88.8869 40.3C92.2119 40.3 94.2619 39.475 94.2619 38.05C94.2619 36.6 92.2119 35.825 88.8869 35.825ZM123.191 19.35H125.266V32.15H123.191V19.35ZM124.691 24.85H128.616V26.575H124.691V24.85ZM116.941 20.8H119.141C119.141 26.5 115.166 30.6 108.516 32.4L107.716 30.75C113.566 29.15 116.941 25.875 116.941 21.725V20.8ZM108.691 20.8H118.091V22.475H108.691V20.8ZM111.041 33.225H125.266V41.65H111.041V33.225ZM123.216 34.9H113.091V39.95H123.216V34.9ZM136.214 20.525H137.939V22.825C137.939 27.175 135.489 30.775 131.714 32.25L130.614 30.575C134.014 29.325 136.214 26.275 136.214 22.825V20.525ZM136.589 20.525H138.289V22.975C138.289 26.025 140.539 28.85 143.789 29.975L142.689 31.6C139.064 30.25 136.589 26.9 136.589 22.975V20.525ZM146.189 19.35H148.264V33.05H146.189V19.35ZM147.689 25.175H151.614V26.925H147.689V25.175ZM141.064 33.675C145.689 33.675 148.489 35.2 148.489 37.8C148.489 40.4 145.689 41.9 141.064 41.9C136.439 41.9 133.639 40.4 133.639 37.8C133.639 35.2 136.439 33.675 141.064 33.675ZM141.064 35.325C137.714 35.325 135.664 36.225 135.664 37.8C135.664 39.375 137.714 40.275 141.064 40.275C144.414 40.275 146.464 39.375 146.464 37.8C146.464 36.225 144.414 35.325 141.064 35.325ZM160.769 37.325H181.244V39.05H160.769V37.325ZM162.544 21.6H179.319V23.3H162.544V21.6ZM162.594 31.15H179.294V32.85H162.594V31.15ZM166.069 23.175H168.144V31.325H166.069V23.175ZM173.769 23.175H175.819V31.325H173.769V23.175ZM183.767 37.45H204.242V39.175H183.767V37.45ZM192.917 32.6H194.992V38.175H192.917V32.6ZM186.242 21.025H201.717V27.875H188.367V32.4H186.317V26.2H199.667V22.7H186.242V21.025ZM186.317 31.525H202.242V33.225H186.317V31.525ZM208.965 21.75H223.515V23.425H208.965V21.75ZM206.765 36.925H227.19V38.65H206.765V36.925ZM222.415 21.75H224.44V24C224.44 26.9 224.44 30.125 223.59 35L221.515 34.8C222.415 30.175 222.415 26.8 222.415 24V21.75ZM246.813 19.35H248.788V32.825H246.813V19.35ZM243.163 25.075H247.438V26.8H243.163V25.075ZM241.838 19.775H243.788V32.55H241.838V19.775ZM233.963 33.925H248.788V41.65H233.963V33.925ZM246.788 35.575H235.988V39.975H246.788V35.575ZM230.788 30.175H232.238C235.413 30.175 237.763 30.075 240.538 29.525L240.738 31.2C237.888 31.75 235.513 31.85 232.238 31.85H230.788V30.175ZM230.738 20.85H239.238V27H232.788V31.325H230.788V25.425H237.238V22.5H230.738V20.85ZM275.242 19.35H277.317V30.85H275.242V19.35ZM276.417 24.2H280.642V25.925H276.417V24.2ZM262.967 31.925H277.317V37.475H265.067V40.85H263.017V35.9H275.292V33.575H262.967V31.925ZM263.017 39.975H278.142V41.65H263.017V39.975ZM266.017 20.15C269.417 20.15 271.867 22.225 271.867 25.175C271.867 28.15 269.417 30.225 266.017 30.225C262.667 30.225 260.192 28.15 260.192 25.175C260.192 22.225 262.667 20.15 266.017 20.15ZM266.017 21.85C263.842 21.85 262.217 23.225 262.217 25.175C262.217 27.15 263.842 28.525 266.017 28.525C268.242 28.525 269.867 27.15 269.867 25.175C269.867 23.225 268.242 21.85 266.017 21.85ZM288.79 21.075C292.115 21.075 294.465 24.15 294.465 28.95C294.465 33.775 292.115 36.85 288.79 36.85C285.465 36.85 283.115 33.775 283.115 28.95C283.115 24.15 285.465 21.075 288.79 21.075ZM288.79 22.95C286.59 22.95 285.09 25.3 285.09 28.95C285.09 32.625 286.59 35.025 288.79 35.025C290.965 35.025 292.49 32.625 292.49 28.95C292.49 25.3 290.965 22.95 288.79 22.95ZM298.065 19.35H300.165V41.95H298.065V19.35ZM299.665 28.375H303.865V30.125H299.665V28.375ZM305.788 37.35H326.263V39.075H305.788V37.35ZM314.938 31.95H317.013V37.85H314.938V31.95ZM308.188 20.95H310.238V24.975H321.763V20.95H323.813V32.5H308.188V20.95ZM310.238 26.65V30.8H321.763V26.65H310.238ZM345.236 19.35H347.311V41.95H345.236V19.35ZM338.611 21.775H340.661C340.661 28.325 337.711 34.05 330.161 37.75L329.061 36.075C335.586 32.925 338.611 28.125 338.611 22.125V21.775ZM330.086 21.775H339.511V23.475H330.086V21.775Z" fill="black"/>
</svg>
