<svg width="141" height="58" viewBox="0 0 141 58" fill="none" xmlns="http://www.w3.org/2000/svg">
<path d="M29 2H112C126.912 2 139 14.0883 139 29C139 43.9117 126.912 56 112 56H29C14.0883 56 2 43.9117 2 29C2 14.0883 14.0883 2 29 2Z" stroke="#E6CA4E" stroke-width="4"/>
<path d="M42.397 40V18.1818H50.174C51.8714 18.1818 53.2777 18.4908 54.3928 19.1087C55.5078 19.7266 56.3423 20.5717 56.8963 21.6442C57.4503 22.7095 57.7273 23.9098 57.7273 25.245C57.7273 26.5874 57.4467 27.7947 56.8857 28.8672C56.3317 29.9325 55.4936 30.7777 54.3714 31.4027C53.2564 32.0206 51.8537 32.3295 50.1634 32.3295H44.8153V29.5384H49.8651C50.9375 29.5384 51.8075 29.3537 52.4751 28.9844C53.1428 28.608 53.6328 28.0966 53.9453 27.4503C54.2578 26.804 54.4141 26.0689 54.4141 25.245C54.4141 24.4212 54.2578 23.6896 53.9453 23.0504C53.6328 22.4112 53.1392 21.9105 52.4645 21.5483C51.7969 21.1861 50.9162 21.005 49.8224 21.005H45.6889V40H42.397ZM64.5162 18.1818V40H61.3308V18.1818H64.5162ZM73.5636 40.3622C72.5266 40.3622 71.5891 40.1705 70.7511 39.7869C69.913 39.3963 69.2489 38.8317 68.7589 38.093C68.2759 37.3544 68.0344 36.4489 68.0344 35.3764C68.0344 34.4531 68.212 33.6932 68.5671 33.0966C68.9222 32.5 69.4016 32.0277 70.0053 31.6797C70.609 31.3317 71.2837 31.0689 72.0295 30.8913C72.7752 30.7138 73.5352 30.5788 74.3093 30.4865C75.2894 30.3729 76.0849 30.2805 76.6957 30.2095C77.3065 30.1314 77.7504 30.0071 78.0273 29.8366C78.3043 29.6662 78.4428 29.3892 78.4428 29.0057V28.9311C78.4428 28.0007 78.18 27.2798 77.6545 26.7685C77.136 26.2571 76.3619 26.0014 75.332 26.0014C74.2596 26.0014 73.4144 26.2393 72.7965 26.7152C72.1857 27.1839 71.7631 27.706 71.5288 28.2812L68.5352 27.5994C68.8903 26.6051 69.4087 25.8026 70.0906 25.1918C70.7795 24.5739 71.5714 24.1264 72.4663 23.8494C73.3612 23.5653 74.3022 23.4233 75.2894 23.4233C75.9428 23.4233 76.6353 23.5014 77.3668 23.6577C78.1055 23.8068 78.7944 24.0838 79.4336 24.4886C80.0799 24.8935 80.609 25.4723 81.021 26.2251C81.4329 26.9709 81.6388 27.9403 81.6388 29.1335V40H78.5281V37.7628H78.4002C78.1942 38.1747 77.8853 38.5795 77.4734 38.9773C77.0614 39.375 76.5323 39.7053 75.886 39.968C75.2397 40.2308 74.4656 40.3622 73.5636 40.3622ZM74.256 37.8054C75.1367 37.8054 75.8896 37.6314 76.5146 37.2834C77.1467 36.9354 77.6261 36.4808 77.9528 35.9197C78.2866 35.3516 78.4535 34.7443 78.4535 34.098V31.9886C78.3398 32.1023 78.1197 32.2088 77.793 32.3082C77.4734 32.4006 77.1076 32.4822 76.6957 32.5533C76.2837 32.6172 75.8825 32.6776 75.4918 32.7344C75.1012 32.7841 74.7745 32.8267 74.5117 32.8622C73.8938 32.9403 73.3292 33.0717 72.8178 33.2564C72.3136 33.4411 71.9087 33.7074 71.6033 34.0554C71.305 34.3963 71.1559 34.8509 71.1559 35.419C71.1559 36.2074 71.4471 36.804 72.0295 37.2088C72.6119 37.6065 73.354 37.8054 74.256 37.8054ZM87.3091 46.1364C86.8333 46.1364 86.4 46.0973 86.0094 46.0192C85.6188 45.9482 85.3276 45.87 85.1358 45.7848L85.9029 43.1747C86.4853 43.331 87.0037 43.3984 87.4583 43.3771C87.9128 43.3558 88.3141 43.1854 88.6621 42.8658C89.0172 42.5462 89.3297 42.0241 89.5996 41.2997L89.9938 40.2131L84.0066 23.6364H87.4157L91.5598 36.3352H91.7303L95.8745 23.6364H99.2942L92.5506 42.1839C92.2381 43.0362 91.8404 43.7571 91.3574 44.3466C90.8745 44.9432 90.2992 45.3906 89.6316 45.6889C88.964 45.9872 88.1898 46.1364 87.3091 46.1364Z" fill="#E6CA4E"/>
</svg>
