<svg width="124" height="61" viewBox="0 0 124 61" fill="none" xmlns="http://www.w3.org/2000/svg">
<g filter="url(#filter0_d_45_3)">
<rect x="4" width="116" height="53" fill="#FFE46E"/>
</g>
<path d="M23.929 15.1818V37H21.2869V17.9517H21.1591L15.8324 21.4886V18.804L21.2869 15.1818H23.929ZM43.8153 19.69H50.6553V21.73H43.8153V19.69ZM49.2453 12.25H51.7353V32.11H49.2453V12.25ZM34.4253 36.7H52.4853V38.74H34.4253V36.7ZM34.4253 30.37H36.9153V37.75H34.4253V30.37ZM36.3453 15.61H38.3853V17.8C38.3853 22.72 35.3253 26.98 30.7953 28.66L29.5053 26.68C33.5553 25.24 36.3453 21.64 36.3453 17.8V15.61ZM36.8253 15.61H38.8353V17.77C38.8353 21.28 41.4753 24.7 45.4053 26.08L44.1453 28.03C39.7353 26.44 36.8253 22.36 36.8253 17.77V15.61ZM30.2853 14.44H44.7753V16.45H30.2853V14.44ZM64.183 14.56H66.223V19.42C66.223 25.66 62.863 31.45 58.423 33.7L56.893 31.66C60.913 29.74 64.183 24.55 64.183 19.42V14.56ZM64.603 14.56H66.643V19.42C66.643 24.37 69.883 29.35 73.903 31.21L72.403 33.19C67.993 31.03 64.603 25.45 64.603 19.42V14.56ZM76.723 12.19H79.213V39.37H76.723V12.19ZM86.0806 14.32H98.0806V16.36H86.0806V14.32ZM90.1606 20.38H92.6206V27.16H90.1606V20.38ZM97.0906 14.32H99.5506V15.76C99.5506 17.53 99.5506 20.23 98.8306 23.8L96.4006 23.53C97.0906 19.96 97.0906 17.5 97.0906 15.76V14.32ZM103.241 12.22H105.731V32.65H103.241V12.22ZM104.591 21.04H109.601V23.11H104.591V21.04ZM88.6006 36.7H106.601V38.74H88.6006V36.7ZM88.6006 30.76H91.0606V37.33H88.6006V30.76ZM84.7006 28.33L84.4306 26.29C89.2606 26.29 95.9206 26.17 101.411 25.42L101.591 27.22C95.9506 28.21 89.4706 28.33 84.7006 28.33Z" fill="#CFAE20"/>
<defs>
<filter id="filter0_d_45_3" x="0" y="0" width="124" height="61" filterUnits="userSpaceOnUse" color-interpolation-filters="sRGB">
<feFlood flood-opacity="0" result="BackgroundImageFix"/>
<feColorMatrix in="SourceAlpha" type="matrix" values="0 0 0 0 0 0 0 0 0 0 0 0 0 0 0 0 0 0 127 0" result="hardAlpha"/>
<feOffset dy="4"/>
<feGaussianBlur stdDeviation="2"/>
<feComposite in2="hardAlpha" operator="out"/>
<feColorMatrix type="matrix" values="0 0 0 0 0 0 0 0 0 0 0 0 0 0 0 0 0 0 0.25 0"/>
<feBlend mode="normal" in2="BackgroundImageFix" result="effect1_dropShadow_45_3"/>
<feBlend mode="normal" in="SourceGraphic" in2="effect1_dropShadow_45_3" result="shape"/>
</filter>
</defs>
</svg>
