<svg width="1223" height="400" viewBox="0 0 1223 400" fill="none" xmlns="http://www.w3.org/2000/svg">
<rect width="1223" height="400" fill="#FFD0C5"/>
<g filter="url(#filter0_di_118_96)">
<rect x="13" y="13.0166" width="1197" height="362.096" fill="#FFB5A4"/>
</g>
<g filter="url(#filter1_di_118_96)">
<rect width="1134" height="313.58" transform="matrix(1 0 0 -1 44 349.08)" fill="#FFD0C5"/>
</g>
<path d="M281.645 97.19H284.135V124.37H281.645V97.19ZM269.825 99.29C273.845 99.29 276.725 102.98 276.725 108.74C276.725 114.53 273.845 118.22 269.825 118.22C265.835 118.22 262.955 114.53 262.955 108.74C262.955 102.98 265.835 99.29 269.825 99.29ZM269.825 101.54C267.185 101.54 265.325 104.36 265.325 108.74C265.325 113.15 267.185 116.03 269.825 116.03C272.495 116.03 274.325 113.15 274.325 108.74C274.325 104.36 272.495 101.54 269.825 101.54ZM310.173 97.22H312.573V124.34H310.173V97.22ZM300.303 106.94H305.493V109.01H300.303V106.94ZM304.743 97.85H307.083V122.96H304.743V97.85ZM295.083 101.42H297.003V104.87C297.003 110.81 294.723 116.42 290.733 118.94L289.203 117.08C292.983 114.8 295.083 109.85 295.083 104.87V101.42ZM295.593 101.42H297.513V104.87C297.513 109.58 299.553 114.29 303.273 116.45L301.743 118.28C297.783 115.88 295.593 110.54 295.593 104.87V101.42ZM289.953 100.37H302.343V102.44H289.953V100.37ZM344.168 97.22H346.658V113.33H344.168V97.22ZM345.938 104.27H350.648V106.34H345.938V104.27ZM337.988 113.9C343.478 113.9 346.898 115.85 346.898 119.12C346.898 122.39 343.478 124.31 337.988 124.31C332.498 124.31 329.078 122.39 329.078 119.12C329.078 115.85 332.498 113.9 337.988 113.9ZM337.988 115.94C333.968 115.94 331.508 117.08 331.508 119.12C331.508 121.1 333.968 122.27 337.988 122.27C342.008 122.27 344.468 121.1 344.468 119.12C344.468 117.08 342.008 115.94 337.988 115.94ZM326.798 109.16H328.898C334.508 109.16 337.658 108.98 341.288 108.23L341.588 110.27C337.838 111.02 334.628 111.2 328.898 111.2H326.798V109.16ZM326.798 99.29H338.768V101.33H329.258V110.48H326.798V99.29ZM372.905 97.25H375.425V117.11H372.905V97.25ZM357.995 121.7H376.235V123.74H357.995V121.7ZM357.995 115.28H360.455V122.66H357.995V115.28ZM360.245 98.72H362.315V101.48C362.315 106.76 359.315 111.38 354.755 113.24L353.465 111.23C357.545 109.64 360.245 105.68 360.245 101.48V98.72ZM360.695 98.72H362.735V101.48C362.735 105.56 365.465 109.25 369.515 110.72L368.195 112.73C363.695 110.99 360.695 106.64 360.695 101.48V98.72ZM380.763 111.47H405.273V113.51H380.763V111.47ZM383.943 121.7H402.573V123.74H383.943V121.7ZM383.943 115.88H386.433V122.33H383.943V115.88ZM393.033 98.12C398.823 98.12 402.573 100.16 402.573 103.55C402.573 106.91 398.823 108.95 393.033 108.95C387.213 108.95 383.493 106.91 383.493 103.55C383.493 100.16 387.213 98.12 393.033 98.12ZM393.033 100.16C388.773 100.16 386.043 101.42 386.043 103.55C386.043 105.68 388.773 106.94 393.033 106.94C397.293 106.94 400.023 105.68 400.023 103.55C400.023 101.42 397.293 100.16 393.033 100.16ZM423.458 99.83H425.498V102.08C425.498 107.06 422.528 111.2 417.938 112.85L416.678 110.87C420.758 109.46 423.458 105.95 423.458 102.08V99.83ZM423.908 99.83H425.948V102.05C425.948 105.65 428.558 108.89 432.548 110.24L431.348 112.22C426.818 110.69 423.908 106.7 423.908 102.05V99.83ZM417.398 99.11H431.918V101.12H417.398V99.11ZM435.368 97.22H437.858V113.18H435.368V97.22ZM437.168 103.97H441.878V106.04H437.168V103.97ZM420.818 114.41H437.858V123.98H420.818V114.41ZM435.428 116.39H423.248V121.97H435.428V116.39ZM451.566 99.56H453.606V104.42C453.606 110.66 450.246 116.45 445.806 118.7L444.276 116.66C448.296 114.74 451.566 109.55 451.566 104.42V99.56ZM451.986 99.56H454.026V104.42C454.026 109.37 457.266 114.35 461.286 116.21L459.786 118.19C455.376 116.03 451.986 110.45 451.986 104.42V99.56ZM464.106 97.19H466.596V124.37H464.106V97.19ZM487.601 99.56H489.641V104.42C489.641 110.66 486.281 116.45 481.841 118.7L480.311 116.66C484.331 114.74 487.601 109.55 487.601 104.42V99.56ZM488.021 99.56H490.061V104.42C490.061 109.37 493.301 114.35 497.321 116.21L495.821 118.19C491.411 116.03 488.021 110.45 488.021 104.42V99.56ZM500.141 97.19H502.631V124.37H500.141V97.19ZM526.599 97.22H529.089V113.12H526.599V97.22ZM528.399 104.06H533.109V106.16H528.399V104.06ZM519.099 98.96H521.709C521.709 105.8 516.939 110.69 509.019 112.85L507.999 110.9C515.019 108.98 519.099 105.05 519.099 100.04V98.96ZM509.199 98.96H520.479V100.97H509.199V98.96ZM511.479 114.38H529.089V124.34H526.599V116.39H511.479V114.38ZM550.754 100.13H552.794V102.32C552.794 107.3 549.794 111.47 545.234 113.12L543.974 111.14C548.054 109.7 550.754 106.19 550.754 102.32V100.13ZM551.204 100.13H553.244V102.29C553.244 105.83 555.824 109.01 559.814 110.33L558.614 112.28C554.084 110.78 551.204 106.91 551.204 102.29V100.13ZM544.724 99.23H559.214V101.27H544.724V99.23ZM562.634 97.22H565.124V113.57H562.634V97.22ZM564.434 104.09H569.144V106.19H564.434V104.09ZM556.484 114.29C562.004 114.29 565.394 116.12 565.394 119.27C565.394 122.45 562.004 124.28 556.484 124.28C550.964 124.28 547.574 122.45 547.574 119.27C547.574 116.12 550.964 114.29 556.484 114.29ZM556.484 116.3C552.464 116.3 550.004 117.38 550.004 119.27C550.004 121.19 552.464 122.33 556.484 122.33C560.504 122.33 562.964 121.19 562.964 119.27C562.964 117.38 560.504 116.3 556.484 116.3ZM577.781 99.47C581.291 99.47 583.571 103.1 583.571 108.92C583.571 114.74 581.291 118.37 577.781 118.37C574.271 118.37 572.021 114.74 572.021 108.92C572.021 103.1 574.271 99.47 577.781 99.47ZM577.781 101.78C575.651 101.78 574.301 104.54 574.301 108.92C574.301 113.3 575.651 116.06 577.781 116.06C579.911 116.06 581.261 113.3 581.261 108.92C581.261 104.54 579.911 101.78 577.781 101.78ZM592.331 97.22H594.731V124.34H592.331V97.22ZM588.041 107.96H593.231V110H588.041V107.96ZM586.331 97.79H588.701V122.99H586.331V97.79ZM618.999 97.25H621.519V117.05H618.999V97.25ZM604.089 121.7H622.329V123.74H604.089V121.7ZM604.089 115.01H606.549V122.39H604.089V115.01ZM606.969 99.11C611.019 99.11 614.019 101.87 614.019 105.8C614.019 109.7 611.019 112.49 606.969 112.49C602.919 112.49 599.889 109.7 599.889 105.8C599.889 101.87 602.919 99.11 606.969 99.11ZM606.969 101.27C604.329 101.27 602.319 103.13 602.319 105.8C602.319 108.44 604.329 110.3 606.969 110.3C609.609 110.3 611.619 108.44 611.619 105.8C611.619 103.13 609.609 101.27 606.969 101.27ZM635.677 99.17C639.907 99.17 642.937 101.78 642.937 105.56C642.937 109.37 639.907 111.98 635.677 111.98C631.447 111.98 628.387 109.37 628.387 105.56C628.387 101.78 631.447 99.17 635.677 99.17ZM635.677 101.33C632.857 101.33 630.817 103.04 630.817 105.56C630.817 108.08 632.857 109.82 635.677 109.82C638.467 109.82 640.507 108.08 640.507 105.56C640.507 103.04 638.467 101.33 635.677 101.33ZM646.477 97.19H648.967V124.37H646.477V97.19ZM627.367 118.43L627.007 116.36C631.957 116.36 638.797 116.33 644.707 115.4L644.917 117.23C638.827 118.4 632.197 118.43 627.367 118.43ZM673.602 106.91H678.792V108.98H673.602V106.91ZM668.532 99.77H670.482V104.93C670.482 110.6 668.112 116.09 664.152 118.52L662.592 116.63C666.312 114.44 668.532 109.58 668.532 104.93V99.77ZM669.012 99.77H670.932V104.84C670.932 109.19 672.972 113.81 676.542 115.97L675.102 117.92C671.202 115.52 669.012 110.12 669.012 104.84V99.77ZM683.562 97.22H685.962V124.34H683.562V97.22ZM678.072 97.79H680.412V122.99H678.072V97.79ZM697.09 98.63H699.16V101.39C699.16 106.61 696.22 110.93 691.69 112.7L690.37 110.69C694.45 109.19 697.09 105.53 697.09 101.39V98.63ZM697.54 98.63H699.58V101.57C699.58 105.23 702.28 108.62 706.18 109.97L704.86 111.92C700.51 110.3 697.54 106.28 697.54 101.57V98.63ZM709.06 97.22H711.55V113.66H709.06V97.22ZM710.86 104.21H715.57V106.31H710.86V104.21ZM702.91 114.41C708.46 114.41 711.82 116.24 711.82 119.36C711.82 122.48 708.46 124.28 702.91 124.28C697.36 124.28 694 122.48 694 119.36C694 116.24 697.36 114.41 702.91 114.41ZM702.91 116.39C698.89 116.39 696.43 117.47 696.43 119.36C696.43 121.25 698.89 122.33 702.91 122.33C706.93 122.33 709.39 121.25 709.39 119.36C709.39 117.47 706.93 116.39 702.91 116.39ZM726.525 110.81H751.125V112.85H726.525V110.81ZM737.535 106.7H739.995V111.74H737.535V106.7ZM737.505 97.64H739.665V98.84C739.665 103.73 734.475 107.21 728.955 108.11L727.995 106.13C732.855 105.47 737.505 102.47 737.505 98.84V97.64ZM737.895 97.64H740.025V98.84C740.025 102.47 744.705 105.47 749.535 106.13L748.605 108.11C743.115 107.18 737.895 103.73 737.895 98.84V97.64ZM729.255 115.49H748.005V124.34H745.515V117.5H729.255V115.49ZM766.392 98.93C772.032 98.93 776.232 101.93 776.232 106.43C776.232 110.96 772.032 113.93 766.392 113.93C760.752 113.93 756.522 110.96 756.522 106.43C756.522 101.93 760.752 98.93 766.392 98.93ZM766.392 100.97C762.102 100.97 758.922 103.16 758.922 106.43C758.922 109.67 762.102 111.89 766.392 111.89C770.682 111.89 773.862 109.67 773.862 106.43C773.862 103.16 770.682 100.97 766.392 100.97ZM754.152 118.67H778.722V120.77H754.152V118.67ZM781.75 118.94H806.32V121.01H781.75V118.94ZM792.73 113.12H795.22V119.81H792.73V113.12ZM784.72 99.23H803.29V107.45H787.27V112.88H784.81V105.44H800.83V101.24H784.72V99.23ZM784.81 111.83H803.92V113.87H784.81V111.83ZM817.785 108.53H842.295V110.57H817.785V108.53ZM821.025 104.33H839.385V106.34H821.025V104.33ZM821.025 98.09H839.085V100.13H823.485V105.95H821.025V98.09ZM820.725 112.91H839.145V119.3H823.245V122.72H820.785V117.44H836.685V114.86H820.725V112.91ZM820.785 122.06H839.955V124.04H820.785V122.06ZM852.613 99.29C856.543 99.29 859.363 102.98 859.363 108.74C859.363 114.53 856.543 118.22 852.613 118.22C848.653 118.22 845.863 114.53 845.863 108.74C845.863 102.98 848.653 99.29 852.613 99.29ZM852.613 101.54C850.003 101.54 848.233 104.36 848.233 108.74C848.233 113.15 850.003 116.03 852.613 116.03C855.223 116.03 856.993 113.15 856.993 108.74C856.993 104.36 855.223 101.54 852.613 101.54ZM865.243 97.19H867.703V124.37H865.243V97.19ZM858.553 107.54H866.323V109.58H858.553V107.54ZM891.52 97.22H894.01V111.89H891.52V97.22ZM893.32 103.61H898.03V105.71H893.32V103.61ZM883.99 98.84H886.69C886.69 105.68 881.89 110.27 873.97 112.22L873.01 110.18C880.03 108.5 883.99 104.81 883.99 100.07V98.84ZM874.21 98.84H885.49V100.88H874.21V98.84ZM876.88 113.12H879.34V116.51H891.55V113.12H894.01V123.98H876.88V113.12ZM879.34 118.49V121.97H891.55V118.49H879.34ZM920.288 97.22H922.778V124.34H920.288V97.22ZM902.288 99.86H904.748V116.66H902.288V99.86ZM902.288 115.19H904.508C908.618 115.19 912.908 114.89 917.498 113.93L917.798 116.06C913.088 117.02 908.798 117.35 904.508 117.35H902.288V115.19ZM946.506 97.19H949.026V124.37H946.506V97.19ZM948.426 107.9H953.466V110H948.426V107.9ZM929.316 115.52H931.446C936.456 115.52 939.966 115.34 944.016 114.59L944.286 116.69C940.116 117.47 936.546 117.62 931.446 117.62H929.316V115.52ZM929.316 99.83H941.916V101.87H931.776V116.45H929.316V99.83ZM958.407 122.17C957.881 122.17 957.43 121.982 957.054 121.606C956.678 121.229 956.489 120.778 956.489 120.253C956.489 119.727 956.678 119.276 957.054 118.9C957.43 118.523 957.881 118.335 958.407 118.335C958.933 118.335 959.384 118.523 959.76 118.9C960.136 119.276 960.325 119.727 960.325 120.253C960.325 120.601 960.236 120.92 960.058 121.212C959.888 121.503 959.657 121.737 959.366 121.915C959.082 122.085 958.762 122.17 958.407 122.17ZM310.967 172.1H328.427V174.11H310.967V172.1ZM308.327 190.31H332.837V192.38H308.327V190.31ZM327.107 172.1H329.537V174.8C329.537 178.28 329.537 182.15 328.517 188L326.027 187.76C327.107 182.21 327.107 178.16 327.107 174.8V172.1ZM335.925 180.53H360.435V182.57H335.925V180.53ZM339.165 176.33H357.525V178.34H339.165V176.33ZM339.165 170.09H357.225V172.13H341.625V177.95H339.165V170.09ZM338.865 184.91H357.285V191.3H341.385V194.72H338.925V189.44H354.825V186.86H338.865V184.91ZM338.925 194.06H358.095V196.04H338.925V194.06ZM363.492 183.47H388.002V185.51H363.492V183.47ZM366.672 193.7H385.302V195.74H366.672V193.7ZM366.672 187.88H369.162V194.33H366.672V187.88ZM375.762 170.12C381.552 170.12 385.302 172.16 385.302 175.55C385.302 178.91 381.552 180.95 375.762 180.95C369.942 180.95 366.222 178.91 366.222 175.55C366.222 172.16 369.942 170.12 375.762 170.12ZM375.762 172.16C371.502 172.16 368.772 173.42 368.772 175.55C368.772 177.68 371.502 178.94 375.762 178.94C380.022 178.94 382.752 177.68 382.752 175.55C382.752 173.42 380.022 172.16 375.762 172.16ZM401.088 171.86H413.568V189.53H401.088V171.86ZM411.138 173.87H403.518V187.52H411.138V173.87ZM419.238 169.19H421.728V196.37H419.238V169.19ZM438.135 169.34H440.235V170.33C440.235 174.95 434.955 178.04 429.315 178.76L428.475 176.84C433.395 176.3 438.135 173.69 438.135 170.33V169.34ZM438.555 169.34H440.655V170.33C440.655 173.69 445.395 176.3 450.315 176.84L449.445 178.76C443.835 178.04 438.555 174.95 438.555 170.33V169.34ZM438.135 182H440.595V186.14H438.135V182ZM427.125 180.53H451.635V182.54H427.125V180.53ZM430.095 185.21H448.515V191.39H432.615V194.66H430.155V189.59H446.055V187.13H430.095V185.21ZM430.155 194.09H449.325V196.04H430.155V194.09ZM456.193 171.32H468.193V173.36H456.193V171.32ZM460.273 177.38H462.733V184.16H460.273V177.38ZM467.203 171.32H469.663V172.76C469.663 174.53 469.663 177.23 468.943 180.8L466.513 180.53C467.203 176.96 467.203 174.5 467.203 172.76V171.32ZM473.353 169.22H475.843V189.65H473.353V169.22ZM474.703 178.04H479.713V180.11H474.703V178.04ZM458.713 193.7H476.713V195.74H458.713V193.7ZM458.713 187.76H461.173V194.33H458.713V187.76ZM454.813 185.33L454.543 183.29C459.373 183.29 466.033 183.17 471.523 182.42L471.703 184.22C466.063 185.21 459.583 185.33 454.813 185.33ZM493.331 179.75H498.461V181.82H493.331V179.75ZM502.991 169.22H505.391V196.34H502.991V169.22ZM497.621 169.79H499.991V194.99H497.621V169.79ZM488.441 171.47C491.951 171.47 494.231 175.1 494.231 180.92C494.231 186.74 491.951 190.37 488.441 190.37C484.931 190.37 482.681 186.74 482.681 180.92C482.681 175.1 484.931 171.47 488.441 171.47ZM488.441 173.78C486.311 173.78 484.961 176.54 484.961 180.92C484.961 185.3 486.311 188.06 488.441 188.06C490.601 188.06 491.951 185.3 491.951 180.92C491.951 176.54 490.601 173.78 488.441 173.78ZM523.478 178.4H531.038V180.44H523.478V178.4ZM516.938 171.56H518.978V176.39C518.978 182.48 515.768 188.3 511.478 190.61L509.888 188.63C513.878 186.65 516.938 181.43 516.938 176.39V171.56ZM517.418 171.56H519.428V176.39C519.428 181.34 522.488 186.26 526.418 188.12L524.948 190.13C520.568 187.91 517.418 182.33 517.418 176.39V171.56ZM529.808 169.19H532.268V196.37H529.808V169.19ZM553.213 171.29C557.143 171.29 559.963 174.98 559.963 180.74C559.963 186.53 557.143 190.22 553.213 190.22C549.253 190.22 546.463 186.53 546.463 180.74C546.463 174.98 549.253 171.29 553.213 171.29ZM553.213 173.54C550.603 173.54 548.833 176.36 548.833 180.74C548.833 185.15 550.603 188.03 553.213 188.03C555.823 188.03 557.593 185.15 557.593 180.74C557.593 176.36 555.823 173.54 553.213 173.54ZM565.843 169.19H568.303V196.37H565.843V169.19ZM559.153 179.54H566.923V181.58H559.153V179.54ZM578.051 193.7H596.831V195.74H578.051V193.7ZM578.051 187.34H580.571V194.84H578.051V187.34ZM593.681 169.25H596.171V188.99H593.681V169.25ZM588.821 176.66H595.691V178.7H588.821V176.66ZM574.271 182.57H575.471C577.091 182.57 579.131 182.51 581.441 182L581.681 184.04C579.191 184.58 577.211 184.61 575.471 184.61H574.271V182.57ZM574.271 171.47H581.141V173.51H576.731V183.17H574.271V171.47ZM582.611 182.57H583.961C586.841 182.57 588.791 182.51 591.101 181.97L591.341 184.01C588.911 184.52 586.931 184.61 583.961 184.61H582.611V182.57ZM582.611 171.47H590.081V173.51H585.041V183.11H582.611V171.47ZM622.576 174.2H629.836V176.24H622.576V174.2ZM622.336 179.84H629.656V181.88H622.336V179.84ZM629.416 169.22H631.906V185.48H629.416V169.22ZM620.926 171.26H623.596C623.596 178.25 618.766 183.14 610.966 185.48L609.946 183.47C616.876 181.46 620.926 177.47 620.926 172.34V171.26ZM611.356 171.26H622.636V173.3H611.356V171.26ZM623.086 185.78C628.576 185.78 632.056 187.73 632.056 191C632.056 194.27 628.576 196.22 623.086 196.22C617.596 196.22 614.116 194.27 614.116 191C614.116 187.73 617.596 185.78 623.086 185.78ZM623.086 187.73C619.126 187.73 616.576 188.96 616.576 191C616.576 193.04 619.126 194.24 623.086 194.24C627.076 194.24 629.626 193.04 629.626 191C629.626 188.96 627.076 187.73 623.086 187.73ZM657.014 169.22H659.504V185.63H657.014V169.22ZM652.514 177.44H658.124V179.51H652.514V177.44ZM641.924 187.07H659.504V195.98H641.924V187.07ZM657.074 189.08H644.354V193.97H657.074V189.08ZM637.244 172.04H652.934V174.05H637.244V172.04ZM645.074 175.43C648.734 175.43 651.344 177.41 651.344 180.29C651.344 183.17 648.734 185.09 645.074 185.09C641.414 185.09 638.804 183.17 638.804 180.29C638.804 177.41 641.414 175.43 645.074 175.43ZM645.074 177.35C642.794 177.35 641.174 178.52 641.174 180.29C641.174 182.03 642.794 183.2 645.074 183.2C647.354 183.2 648.974 182.03 648.974 180.29C648.974 178.52 647.354 177.35 645.074 177.35ZM643.844 168.95H646.334V173.48H643.844V168.95ZM666.012 172.19H678.282V174.2H666.012V172.19ZM670.242 179.93H672.702V189.11H670.242V179.93ZM677.262 172.19H679.692V173.63C679.692 175.85 679.692 179.39 678.912 184.43L676.452 184.19C677.262 179.3 677.262 175.82 677.262 173.63V172.19ZM683.112 169.22H685.572V196.34H683.112V169.22ZM684.912 180.56H689.922V182.66H684.912V180.56ZM664.812 190.43L664.512 188.33C669.432 188.33 675.972 188.24 681.462 187.55L681.582 189.38C675.972 190.28 669.612 190.4 664.812 190.43ZM701.897 171.92H714.347V189.47H701.897V171.92ZM711.917 173.93H704.327V187.46H711.917V173.93ZM719.177 169.22H721.697V196.34H719.177V169.22ZM721.097 180.05H726.137V182.15H721.097V180.05ZM739.304 171.89H741.464V173.03C741.464 177.89 736.304 181.46 730.844 182.39L729.884 180.41C734.654 179.72 739.304 176.6 739.304 173.03V171.89ZM739.934 171.89H742.064V173.03C742.064 176.6 746.744 179.72 751.484 180.41L750.554 182.39C745.064 181.46 739.934 177.89 739.934 173.03V171.89ZM739.394 185.99H741.854V196.34H739.394V185.99ZM728.444 184.67H752.954V186.71H728.444V184.67ZM730.724 170.9H750.584V172.91H730.724V170.9ZM774.402 169.22H776.892V196.34H774.402V169.22ZM776.292 180.35H781.332V182.45H776.292V180.35ZM755.892 173.54H771.882V175.58H755.892V173.54ZM763.992 177.83C767.832 177.83 770.592 180.41 770.592 184.07C770.592 187.73 767.832 190.31 763.992 190.31C760.182 190.31 757.392 187.73 757.392 184.07C757.392 180.41 760.182 177.83 763.992 177.83ZM763.992 179.9C761.532 179.9 759.762 181.61 759.762 184.07C759.762 186.5 761.532 188.24 763.992 188.24C766.452 188.24 768.222 186.5 768.222 184.07C768.222 181.61 766.452 179.9 763.992 179.9ZM762.702 169.55H765.192V174.47H762.702V169.55ZM804.28 169.22H806.68V196.34H804.28V169.22ZM792.52 180.29H799.36V182.3H792.52V180.29ZM798.64 169.91H800.98V194.96H798.64V169.91ZM792.85 172.64H795.25C795.25 179.75 792.4 186.14 785.08 190.49L783.61 188.72C790 184.88 792.85 179.48 792.85 173.09V172.64ZM784.81 172.64H793.78V174.68H784.81V172.64ZM822.255 176.33H835.275V178.25H822.255V176.33ZM822.255 170.36H834.975V172.31H824.805V177.2H822.255V170.36ZM827.445 177.41H829.935V181.94H827.445V177.41ZM839.415 169.22H841.905V183.8H839.415V169.22ZM820.155 183.17L819.825 181.19C825.075 181.16 831.705 181.04 837.315 180.41L837.465 182.15C831.705 182.99 825.255 183.17 820.155 183.17ZM824.025 185.03H841.905V191.36H826.515V194.84H824.055V189.47H839.475V187.01H824.025V185.03ZM824.055 194.06H842.835V196.04H824.055V194.06ZM866.082 169.22H868.542V196.34H866.082V169.22ZM867.762 180.38H872.592V182.48H867.762V180.38ZM853.092 172.13H855.372C855.372 178.67 853.992 185 849.132 190.25L847.122 188.84C851.592 184.19 853.092 178.55 853.092 172.4V172.13ZM847.992 172.13H854.022V174.2H847.992V172.13ZM860.472 172.13H862.782C862.782 178.7 861.852 186.14 856.872 192.05L854.862 190.67C859.452 185.36 860.472 178.64 860.472 172.37V172.13ZM856.242 172.13H861.492V174.2H856.242V172.13ZM880.87 183.17H883.33V191.3H880.87V183.17ZM890.89 183.17H893.38V191.3H890.89V183.17ZM874.87 190.82H899.44V192.89H874.87V190.82ZM887.11 170.93C892.84 170.93 896.95 173.66 896.95 177.92C896.95 182.15 892.84 184.88 887.11 184.88C881.35 184.88 877.24 182.15 877.24 177.92C877.24 173.66 881.35 170.93 887.11 170.93ZM887.11 172.91C882.76 172.91 879.64 174.89 879.64 177.92C879.64 180.92 882.76 182.9 887.11 182.9C891.46 182.9 894.55 180.92 894.55 177.92C894.55 174.89 891.46 172.91 887.11 172.91ZM906.55 187.864V187.736C906.564 186.379 906.706 185.3 906.976 184.497C907.246 183.695 907.63 183.045 908.127 182.548C908.624 182.05 909.221 181.592 909.917 181.173C910.336 180.918 910.712 180.616 911.046 180.268C911.38 179.913 911.642 179.504 911.834 179.043C912.033 178.581 912.133 178.07 912.133 177.509C912.133 176.812 911.969 176.209 911.642 175.697C911.316 175.186 910.879 174.792 910.332 174.515C909.785 174.238 909.178 174.099 908.51 174.099C907.928 174.099 907.367 174.22 906.827 174.462C906.287 174.703 905.836 175.083 905.474 175.602C905.112 176.12 904.902 176.798 904.846 177.636H902.161C902.218 176.429 902.53 175.396 903.098 174.536C903.674 173.677 904.43 173.02 905.368 172.565C906.312 172.111 907.36 171.884 908.51 171.884C909.76 171.884 910.847 172.132 911.77 172.629C912.701 173.126 913.418 173.808 913.922 174.675C914.434 175.541 914.689 176.528 914.689 177.636C914.689 178.418 914.569 179.124 914.327 179.756C914.093 180.388 913.752 180.953 913.304 181.45C912.864 181.947 912.331 182.388 911.706 182.771C911.081 183.162 910.581 183.574 910.204 184.007C909.828 184.433 909.554 184.941 909.384 185.531C909.214 186.12 909.121 186.855 909.107 187.736V187.864H906.55ZM907.914 194.17C907.388 194.17 906.937 193.982 906.561 193.606C906.184 193.229 905.996 192.778 905.996 192.253C905.996 191.727 906.184 191.276 906.561 190.9C906.937 190.523 907.388 190.335 907.914 190.335C908.439 190.335 908.89 190.523 909.267 190.9C909.643 191.276 909.831 191.727 909.831 192.253C909.831 192.601 909.743 192.92 909.565 193.212C909.395 193.503 909.164 193.737 908.873 193.915C908.589 194.085 908.269 194.17 907.914 194.17ZM423.848 257.39H426.338V261.8H423.848V257.39ZM435.248 241.22H437.738V268.34H435.248V241.22ZM436.928 252.74H441.938V254.84H436.928V252.74ZM416.858 263.18L416.498 261.11C421.358 261.11 427.988 261.05 433.598 260.24L433.808 262.1C427.958 263.15 421.598 263.18 416.858 263.18ZM416.948 244.49H433.178V246.5H416.948V244.49ZM425.078 248.09C428.858 248.09 431.468 250.07 431.468 253.1C431.468 256.16 428.858 258.11 425.078 258.11C421.298 258.11 418.718 256.16 418.718 253.1C418.718 250.07 421.298 248.09 425.078 248.09ZM425.078 250.01C422.648 250.01 421.058 251.24 421.058 253.1C421.058 254.96 422.648 256.19 425.078 256.19C427.508 256.19 429.128 254.96 429.128 253.1C429.128 251.24 427.508 250.01 425.078 250.01ZM423.848 241.25H426.338V245.84H423.848V241.25ZM451.026 242.12H453.066V244.28C453.066 249.38 450.096 253.46 445.476 255.08L444.246 253.07C448.356 251.72 451.026 248.3 451.026 244.28V242.12ZM451.476 242.12H453.486V244.22C453.486 247.88 456.156 251.06 460.146 252.32L458.856 254.27C454.416 252.74 451.476 248.96 451.476 244.22V242.12ZM462.966 241.22H465.456V255.35H462.966V241.22ZM464.376 247.13H469.446V249.2H464.376V247.13ZM448.236 256.61H465.456V263.12H450.756V267.17H448.296V261.23H463.026V258.59H448.236V256.61ZM448.296 266.06H466.446V268.04H448.296V266.06ZM478.803 255.92H481.293V263.66H478.803V255.92ZM487.173 255.92H489.633V263.66H487.173V255.92ZM472.023 263H496.593V265.07H472.023V263ZM474.153 243.71H494.283V245.75H474.153V243.71ZM474.213 254.57H494.253V256.58H474.213V254.57ZM478.383 245.36H480.873V254.99H478.383V245.36ZM487.623 245.36H490.083V254.99H487.623V245.36ZM527.919 241.19H530.379V268.37H527.919V241.19ZM520.749 251.27H528.639V253.31H520.749V251.27ZM509.139 243.35H511.599V250.4H519.129V243.35H521.589V261.56H509.139V243.35ZM511.599 252.38V259.49H519.129V252.38H511.599ZM535.626 256.22H560.136V258.26H535.626V256.22ZM538.776 265.7H557.586V267.74H538.776V265.7ZM538.776 260.24H541.266V266.48H538.776V260.24ZM538.866 251.78H557.256V253.73H538.866V251.78ZM538.866 242.21H557.136V244.19H541.326V252.53H538.866V242.21ZM540.606 246.98H556.416V248.87H540.606V246.98ZM575.494 241.67C581.464 241.67 585.034 243.35 585.034 246.38C585.034 249.41 581.464 251.09 575.494 251.09C569.494 251.09 565.954 249.41 565.954 246.38C565.954 243.35 569.494 241.67 575.494 241.67ZM575.494 243.56C571.054 243.56 568.504 244.58 568.504 246.38C568.504 248.18 571.054 249.2 575.494 249.2C579.904 249.2 582.454 248.18 582.454 246.38C582.454 244.58 579.904 243.56 575.494 243.56ZM563.224 252.89H587.734V254.9H563.224V252.89ZM566.194 257.21H584.614V263.33H568.714V266.63H566.254V261.53H582.154V259.13H566.194V257.21ZM566.254 266.09H585.424V268.04H566.254V266.09ZM610.269 253.1H612.729V257.96H610.269V253.1ZM602.589 247.67H620.979V249.71H602.589V247.67ZM599.259 252.05H623.859V254.06H599.259V252.05ZM602.589 241.61H605.019V248.6H602.589V241.61ZM602.319 256.91H620.739V263.18H604.839V266.78H602.379V261.35H618.249V258.86H602.319V256.91ZM602.379 266.09H621.639V268.04H602.379V266.09ZM646.687 241.19H649.177V268.37H646.687V241.19ZM641.527 251.63H647.287V253.67H641.527V251.63ZM627.877 259.79H629.947C634.747 259.79 638.137 259.64 642.127 258.92L642.367 260.99C638.287 261.71 634.837 261.89 629.947 261.89H627.877V259.79ZM627.817 243.74H639.937V253.25H630.337V260.42H627.877V251.21H637.477V245.78H627.817V243.74ZM670.062 243.56H672.102V248.42C672.102 254.66 668.742 260.45 664.302 262.7L662.772 260.66C666.792 258.74 670.062 253.55 670.062 248.42V243.56ZM670.482 243.56H672.522V248.42C672.522 253.37 675.762 258.35 679.782 260.21L678.282 262.19C673.872 260.03 670.482 254.45 670.482 248.42V243.56ZM682.602 241.19H685.092V268.37H682.602V241.19ZM697.18 244.01H699.22V246.2C699.22 251.18 696.22 255.32 691.69 256.94L690.37 254.99C694.48 253.55 697.18 250.07 697.18 246.2V244.01ZM697.63 244.01H699.67V246.17C699.67 249.77 702.28 253.1 706.27 254.45L704.98 256.4C700.51 254.84 697.63 250.85 697.63 246.17V244.01ZM691.15 243.11H705.64V245.15H691.15V243.11ZM709.06 241.22H711.55V257.54H709.06V241.22ZM710.86 248.36H715.57V250.43H710.86V248.36ZM693.94 258.98H711.55V268.34H709.06V261.05H693.94V258.98ZM736.477 241.22H738.967V268.34H736.477V241.22ZM738.367 252.35H743.407V254.45H738.367V252.35ZM717.967 245.54H733.957V247.58H717.967V245.54ZM726.067 249.83C729.907 249.83 732.667 252.41 732.667 256.07C732.667 259.73 729.907 262.31 726.067 262.31C722.257 262.31 719.467 259.73 719.467 256.07C719.467 252.41 722.257 249.83 726.067 249.83ZM726.067 251.9C723.607 251.9 721.837 253.61 721.837 256.07C721.837 258.5 723.607 260.24 726.067 260.24C728.527 260.24 730.297 258.5 730.297 256.07C730.297 253.61 728.527 251.9 726.067 251.9ZM724.777 241.55H727.267V246.47H724.777V241.55ZM756.395 250.91H761.585V252.98H756.395V250.91ZM751.325 243.77H753.275V248.93C753.275 254.6 750.905 260.09 746.945 262.52L745.385 260.63C749.105 258.44 751.325 253.58 751.325 248.93V243.77ZM751.805 243.77H753.725V248.84C753.725 253.19 755.765 257.81 759.335 259.97L757.895 261.92C753.995 259.52 751.805 254.12 751.805 248.84V243.77ZM766.355 241.22H768.755V268.34H766.355V241.22ZM760.865 241.79H763.205V266.99H760.865V241.79ZM779.312 255.17H781.773V263.3H779.312V255.17ZM789.333 255.17H791.823V263.3H789.333V255.17ZM773.313 262.82H797.883V264.89H773.313V262.82ZM785.553 242.93C791.283 242.93 795.393 245.66 795.393 249.92C795.393 254.15 791.283 256.88 785.553 256.88C779.793 256.88 775.683 254.15 775.683 249.92C775.683 245.66 779.793 242.93 785.553 242.93ZM785.553 244.91C781.203 244.91 778.083 246.89 778.083 249.92C778.083 252.92 781.203 254.9 785.553 254.9C789.903 254.9 792.993 252.92 792.993 249.92C792.993 246.89 789.903 244.91 785.553 244.91ZM803.544 266.17C803.018 266.17 802.567 265.982 802.191 265.606C801.814 265.229 801.626 264.778 801.626 264.253C801.626 263.727 801.814 263.276 802.191 262.9C802.567 262.523 803.018 262.335 803.544 262.335C804.069 262.335 804.52 262.523 804.897 262.9C805.273 263.276 805.461 263.727 805.461 264.253C805.461 264.601 805.373 264.92 805.195 265.212C805.025 265.503 804.794 265.737 804.502 265.915C804.218 266.085 803.899 266.17 803.544 266.17Z" fill="black"/>
<defs>
<filter id="filter0_di_118_96" x="9" y="13.0166" width="1205" height="370.096" filterUnits="userSpaceOnUse" color-interpolation-filters="sRGB">
<feFlood flood-opacity="0" result="BackgroundImageFix"/>
<feColorMatrix in="SourceAlpha" type="matrix" values="0 0 0 0 0 0 0 0 0 0 0 0 0 0 0 0 0 0 127 0" result="hardAlpha"/>
<feOffset dy="4"/>
<feGaussianBlur stdDeviation="2"/>
<feComposite in2="hardAlpha" operator="out"/>
<feColorMatrix type="matrix" values="0 0 0 0 0 0 0 0 0 0 0 0 0 0 0 0 0 0 0.25 0"/>
<feBlend mode="normal" in2="BackgroundImageFix" result="effect1_dropShadow_118_96"/>
<feBlend mode="normal" in="SourceGraphic" in2="effect1_dropShadow_118_96" result="shape"/>
<feColorMatrix in="SourceAlpha" type="matrix" values="0 0 0 0 0 0 0 0 0 0 0 0 0 0 0 0 0 0 127 0" result="hardAlpha"/>
<feOffset dy="4"/>
<feGaussianBlur stdDeviation="2"/>
<feComposite in2="hardAlpha" operator="arithmetic" k2="-1" k3="1"/>
<feColorMatrix type="matrix" values="0 0 0 0 0 0 0 0 0 0 0 0 0 0 0 0 0 0 0.25 0"/>
<feBlend mode="normal" in2="shape" result="effect2_innerShadow_118_96"/>
</filter>
<filter id="filter1_di_118_96" x="40" y="35.5" width="1142" height="321.58" filterUnits="userSpaceOnUse" color-interpolation-filters="sRGB">
<feFlood flood-opacity="0" result="BackgroundImageFix"/>
<feColorMatrix in="SourceAlpha" type="matrix" values="0 0 0 0 0 0 0 0 0 0 0 0 0 0 0 0 0 0 127 0" result="hardAlpha"/>
<feOffset dy="4"/>
<feGaussianBlur stdDeviation="2"/>
<feComposite in2="hardAlpha" operator="out"/>
<feColorMatrix type="matrix" values="0 0 0 0 0 0 0 0 0 0 0 0 0 0 0 0 0 0 0.25 0"/>
<feBlend mode="normal" in2="BackgroundImageFix" result="effect1_dropShadow_118_96"/>
<feBlend mode="normal" in="SourceGraphic" in2="effect1_dropShadow_118_96" result="shape"/>
<feColorMatrix in="SourceAlpha" type="matrix" values="0 0 0 0 0 0 0 0 0 0 0 0 0 0 0 0 0 0 127 0" result="hardAlpha"/>
<feOffset dy="4"/>
<feGaussianBlur stdDeviation="2"/>
<feComposite in2="hardAlpha" operator="arithmetic" k2="-1" k3="1"/>
<feColorMatrix type="matrix" values="0 0 0 0 0 0 0 0 0 0 0 0 0 0 0 0 0 0 0.25 0"/>
<feBlend mode="normal" in2="shape" result="effect2_innerShadow_118_96"/>
</filter>
</defs>
</svg>
