<svg width="1223" height="242" viewBox="0 0 1223 242" fill="none" xmlns="http://www.w3.org/2000/svg">
<rect width="1223" height="242" fill="#FFD0C5"/>
<g filter="url(#filter0_di_118_108)">
<rect x="13" y="7.875" width="1197" height="219.068" fill="#FFB5A4"/>
</g>
<g filter="url(#filter1_di_118_108)">
<rect width="1134" height="189.716" transform="matrix(1 0 0 -1 44 211.193)" fill="#FFD0C5"/>
</g>
<path d="M345.18 116.91H350.37V118.98H345.18V116.91ZM340.11 109.77H342.06V114.93C342.06 120.6 339.69 126.09 335.73 128.52L334.17 126.63C337.89 124.44 340.11 119.58 340.11 114.93V109.77ZM340.59 109.77H342.51V114.84C342.51 119.19 344.55 123.81 348.12 125.97L346.68 127.92C342.78 125.52 340.59 120.12 340.59 114.84V109.77ZM355.14 107.22H357.54V134.34H355.14V107.22ZM349.65 107.79H351.99V132.99H349.65V107.79ZM388.865 107.19H391.385V134.34H388.865V107.19ZM390.695 118.2H395.705V120.27H390.695V118.2ZM381.935 110.13H384.365C384.365 117.84 380.825 124.8 372.065 129.21L370.685 127.29C378.185 123.48 381.935 117.69 381.935 110.52V110.13ZM371.945 110.13H383.225V112.17H371.945V110.13ZM405.303 111.09H407.313V115.5C407.313 121.23 403.863 126.99 399.543 129.12L398.103 127.14C402.033 125.28 405.303 120.18 405.303 115.5V111.09ZM405.783 111.09H407.793V115.5C407.793 120.09 411.063 124.77 415.053 126.48L413.643 128.46C409.263 126.42 405.783 121.14 405.783 115.5V111.09ZM399.003 109.98H414.153V112.08H399.003V109.98ZM417.813 107.22H420.303V134.34H417.813V107.22ZM454.028 107.19H456.488V134.37H454.028V107.19ZM446.858 117.27H454.748V119.31H446.858V117.27ZM435.248 109.35H437.708V116.4H445.238V109.35H447.698V127.56H435.248V109.35ZM437.708 118.38V125.49H445.238V118.38H437.708ZM476.136 114.69H482.976V116.73H476.136V114.69ZM481.566 107.25H484.056V127.11H481.566V107.25ZM466.746 131.7H484.806V133.74H466.746V131.7ZM466.746 125.37H469.236V132.75H466.746V125.37ZM468.666 110.61H470.706V112.8C470.706 117.72 467.646 121.98 463.116 123.66L461.826 121.68C465.876 120.24 468.666 116.64 468.666 112.8V110.61ZM469.146 110.61H471.156V112.77C471.156 116.28 473.796 119.7 477.726 121.08L476.466 123.03C472.056 121.44 469.146 117.36 469.146 112.77V110.61ZM462.606 109.44H477.096V111.45H462.606V109.44ZM498.153 109.17C502.383 109.17 505.413 111.78 505.413 115.56C505.413 119.37 502.383 121.98 498.153 121.98C493.923 121.98 490.863 119.37 490.863 115.56C490.863 111.78 493.923 109.17 498.153 109.17ZM498.153 111.33C495.333 111.33 493.293 113.04 493.293 115.56C493.293 118.08 495.333 119.82 498.153 119.82C500.943 119.82 502.983 118.08 502.983 115.56C502.983 113.04 500.943 111.33 498.153 111.33ZM508.953 107.19H511.443V134.37H508.953V107.19ZM489.843 128.43L489.483 126.36C494.433 126.36 501.273 126.33 507.183 125.4L507.393 127.23C501.303 128.4 494.673 128.43 489.843 128.43ZM528.038 110.1H545.498V112.11H528.038V110.1ZM525.398 128.31H549.908V130.38H525.398V128.31ZM544.178 110.1H546.608V112.8C546.608 116.28 546.608 120.15 545.588 126L543.098 125.76C544.178 120.21 544.178 116.16 544.178 112.8V110.1ZM572.706 107.22H575.226V123.3H572.706V107.22ZM554.376 119.97H556.566C561.486 119.97 565.116 119.82 569.466 119.13L569.736 121.14C565.266 121.89 561.606 122.04 556.566 122.04H554.376V119.97ZM554.316 108.84H566.616V116.25H556.806V121.2H554.376V114.33H564.186V110.88H554.316V108.84ZM557.706 124.8H575.226V133.98H557.706V124.8ZM572.766 126.78H560.136V131.97H572.766V126.78ZM600.011 120.78H602.501V125.52H600.011V120.78ZM589.001 119.91H613.511V121.92H589.001V119.91ZM601.241 124.77C607.061 124.77 610.541 126.48 610.541 129.54C610.541 132.57 607.061 134.28 601.241 134.28C595.421 134.28 591.941 132.57 591.941 129.54C591.941 126.48 595.421 124.77 601.241 124.77ZM601.241 126.69C597.011 126.69 594.461 127.71 594.461 129.54C594.461 131.34 597.011 132.36 601.241 132.36C605.501 132.36 608.021 131.34 608.021 129.54C608.021 127.71 605.501 126.69 601.241 126.69ZM599.651 109.44H601.871V110.25C601.871 114.63 596.891 117.57 591.281 118.26L590.381 116.28C595.241 115.77 599.651 113.34 599.651 110.25V109.44ZM600.701 109.44H602.891V110.25C602.891 113.34 607.301 115.77 612.161 116.28L611.261 118.26C605.651 117.57 600.701 114.63 600.701 110.25V109.44ZM591.251 108.45H611.321V110.46H591.251V108.45ZM643.426 107.22H645.916V134.34H643.426V107.22ZM645.316 118.35H650.356V120.45H645.316V118.35ZM624.916 111.54H640.906V113.58H624.916V111.54ZM633.016 115.83C636.856 115.83 639.616 118.41 639.616 122.07C639.616 125.73 636.856 128.31 633.016 128.31C629.206 128.31 626.416 125.73 626.416 122.07C626.416 118.41 629.206 115.83 633.016 115.83ZM633.016 117.9C630.556 117.9 628.786 119.61 628.786 122.07C628.786 124.5 630.556 126.24 633.016 126.24C635.476 126.24 637.246 124.5 637.246 122.07C637.246 119.61 635.476 117.9 633.016 117.9ZM631.726 107.55H634.216V112.47H631.726V107.55ZM672.824 118.02H677.834V120.12H672.824V118.02ZM670.994 107.19H673.514V134.34H670.994V107.19ZM653.714 109.86H656.204V126.66H653.714V109.86ZM653.714 125.37H655.874C659.894 125.37 664.004 125.1 668.474 124.17L668.774 126.24C664.154 127.2 659.984 127.47 655.874 127.47H653.714V125.37ZM680.232 119.82H704.832V121.71H680.232V119.82ZM683.142 123.9H701.742V129.69H685.692V132.87H683.232V127.98H699.312V125.67H683.142V123.9ZM683.232 132.21H702.612V134.01H683.232V132.21ZM683.352 108H701.652V113.64H685.872V116.58H683.412V111.96H699.222V109.77H683.352V108ZM683.412 115.98H702.162V117.78H683.412V115.98ZM730.187 113.61H737.027V115.68H730.187V113.61ZM723.077 108.87H725.087V112.2C725.087 117.45 722.147 121.83 717.617 123.66L716.327 121.68C720.347 120.18 723.077 116.34 723.077 112.2V108.87ZM723.557 108.87H725.567V112.29C725.567 116.07 728.207 119.64 732.137 121.08L730.787 123C726.467 121.32 723.557 117.12 723.557 112.29V108.87ZM736.097 107.25H738.587V127.53H736.097V107.25ZM721.157 131.7H739.247V133.74H721.157V131.7ZM721.157 125.28H723.647V132.66H721.157V125.28ZM745.035 120.18H746.775C751.035 120.18 753.555 120.09 756.585 119.49L756.825 121.53C753.705 122.13 751.125 122.25 746.775 122.25H745.035V120.18ZM745.035 109.2H755.535V111.24H747.435V121.29H745.035V109.2ZM746.685 114.6H755.205V116.55H746.685V114.6ZM764.355 107.22H766.725V123.66H764.355V107.22ZM759.975 114.3H765.105V116.34H759.975V114.3ZM758.385 107.73H760.725V123.51H758.385V107.73ZM748.545 125.1H766.725V134.34H764.265V127.14H748.545V125.1ZM771.432 111.84H784.872V113.88H771.432V111.84ZM778.152 115.68C781.542 115.68 784.002 118.23 784.002 121.89C784.002 125.52 781.542 128.07 778.152 128.07C774.792 128.07 772.332 125.52 772.332 121.89C772.332 118.23 774.792 115.68 778.152 115.68ZM778.152 117.81C776.082 117.81 774.582 119.49 774.582 121.89C774.582 124.29 776.082 125.97 778.152 125.97C780.252 125.97 781.782 124.29 781.782 121.89C781.782 119.49 780.252 117.81 778.152 117.81ZM792.042 107.22H794.442V134.34H792.042V107.22ZM787.722 118.62H792.852V120.69H787.722V118.62ZM786.252 107.82H788.592V133.02H786.252V107.82ZM776.952 108H779.412V113.1H776.952V108ZM809.95 109.89H812.11V111.03C812.11 115.89 806.95 119.46 801.49 120.39L800.53 118.41C805.3 117.72 809.95 114.6 809.95 111.03V109.89ZM810.58 109.89H812.71V111.03C812.71 114.6 817.39 117.72 822.13 118.41L821.2 120.39C815.71 119.46 810.58 115.89 810.58 111.03V109.89ZM810.04 123.99H812.5V134.34H810.04V123.99ZM799.09 122.67H823.6V124.71H799.09V122.67ZM801.37 108.9H821.23V110.91H801.37V108.9ZM837.368 116.91H842.558V118.98H837.368V116.91ZM832.298 109.77H834.248V114.93C834.248 120.6 831.878 126.09 827.918 128.52L826.358 126.63C830.078 124.44 832.298 119.58 832.298 114.93V109.77ZM832.778 109.77H834.698V114.84C834.698 119.19 836.738 123.81 840.308 125.97L838.868 127.92C834.968 125.52 832.778 120.12 832.778 114.84V109.77ZM847.328 107.22H849.728V134.34H847.328V107.22ZM841.838 107.79H844.178V132.99H841.838V107.79ZM860.285 121.17H862.745V129.3H860.285V121.17ZM870.305 121.17H872.795V129.3H870.305V121.17ZM854.285 128.82H878.855V130.89H854.285V128.82ZM866.525 108.93C872.255 108.93 876.365 111.66 876.365 115.92C876.365 120.15 872.255 122.88 866.525 122.88C860.765 122.88 856.655 120.15 856.655 115.92C856.655 111.66 860.765 108.93 866.525 108.93ZM866.525 110.91C862.175 110.91 859.055 112.89 859.055 115.92C859.055 118.92 862.175 120.9 866.525 120.9C870.875 120.9 873.965 118.92 873.965 115.92C873.965 112.89 870.875 110.91 866.525 110.91ZM884.516 132.17C883.991 132.17 883.54 131.982 883.163 131.606C882.787 131.229 882.599 130.778 882.599 130.253C882.599 129.727 882.787 129.276 883.163 128.9C883.54 128.523 883.991 128.335 884.516 128.335C885.042 128.335 885.493 128.523 885.869 128.9C886.246 129.276 886.434 129.727 886.434 130.253C886.434 130.601 886.345 130.92 886.168 131.212C885.997 131.503 885.766 131.737 885.475 131.915C885.191 132.085 884.871 132.17 884.516 132.17Z" fill="black"/>
<defs>
<filter id="filter0_di_118_108" x="9" y="7.875" width="1205" height="227.068" filterUnits="userSpaceOnUse" color-interpolation-filters="sRGB">
<feFlood flood-opacity="0" result="BackgroundImageFix"/>
<feColorMatrix in="SourceAlpha" type="matrix" values="0 0 0 0 0 0 0 0 0 0 0 0 0 0 0 0 0 0 127 0" result="hardAlpha"/>
<feOffset dy="4"/>
<feGaussianBlur stdDeviation="2"/>
<feComposite in2="hardAlpha" operator="out"/>
<feColorMatrix type="matrix" values="0 0 0 0 0 0 0 0 0 0 0 0 0 0 0 0 0 0 0.25 0"/>
<feBlend mode="normal" in2="BackgroundImageFix" result="effect1_dropShadow_118_108"/>
<feBlend mode="normal" in="SourceGraphic" in2="effect1_dropShadow_118_108" result="shape"/>
<feColorMatrix in="SourceAlpha" type="matrix" values="0 0 0 0 0 0 0 0 0 0 0 0 0 0 0 0 0 0 127 0" result="hardAlpha"/>
<feOffset dy="4"/>
<feGaussianBlur stdDeviation="2"/>
<feComposite in2="hardAlpha" operator="arithmetic" k2="-1" k3="1"/>
<feColorMatrix type="matrix" values="0 0 0 0 0 0 0 0 0 0 0 0 0 0 0 0 0 0 0.25 0"/>
<feBlend mode="normal" in2="shape" result="effect2_innerShadow_118_108"/>
</filter>
<filter id="filter1_di_118_108" x="40" y="21.4774" width="1142" height="197.716" filterUnits="userSpaceOnUse" color-interpolation-filters="sRGB">
<feFlood flood-opacity="0" result="BackgroundImageFix"/>
<feColorMatrix in="SourceAlpha" type="matrix" values="0 0 0 0 0 0 0 0 0 0 0 0 0 0 0 0 0 0 127 0" result="hardAlpha"/>
<feOffset dy="4"/>
<feGaussianBlur stdDeviation="2"/>
<feComposite in2="hardAlpha" operator="out"/>
<feColorMatrix type="matrix" values="0 0 0 0 0 0 0 0 0 0 0 0 0 0 0 0 0 0 0.25 0"/>
<feBlend mode="normal" in2="BackgroundImageFix" result="effect1_dropShadow_118_108"/>
<feBlend mode="normal" in="SourceGraphic" in2="effect1_dropShadow_118_108" result="shape"/>
<feColorMatrix in="SourceAlpha" type="matrix" values="0 0 0 0 0 0 0 0 0 0 0 0 0 0 0 0 0 0 127 0" result="hardAlpha"/>
<feOffset dy="4"/>
<feGaussianBlur stdDeviation="2"/>
<feComposite in2="hardAlpha" operator="arithmetic" k2="-1" k3="1"/>
<feColorMatrix type="matrix" values="0 0 0 0 0 0 0 0 0 0 0 0 0 0 0 0 0 0 0.25 0"/>
<feBlend mode="normal" in2="shape" result="effect2_innerShadow_118_108"/>
</filter>
</defs>
</svg>
