<svg width="735" height="65" viewBox="0 0 735 65" fill="none" xmlns="http://www.w3.org/2000/svg">
<path d="M0.54066 26V4.18182H8.72248C10.3986 4.18182 11.8049 4.49432 12.9412 5.11932C14.0847 5.74432 14.9476 6.60369 15.53 7.69744C16.1195 8.78409 16.4142 10.0199 16.4142 11.4048C16.4142 12.804 16.1195 14.0469 15.53 15.1335C14.9405 16.2202 14.0705 17.076 12.9199 17.701C11.7694 18.3189 10.3525 18.6278 8.66921 18.6278H3.24663V15.3786H8.13654C9.11665 15.3786 9.91921 15.2081 10.5442 14.8672C11.1692 14.5263 11.6309 14.0575 11.9292 13.4609C12.2346 12.8643 12.3873 12.179 12.3873 11.4048C12.3873 10.6307 12.2346 9.94886 11.9292 9.35938C11.6309 8.76989 11.1657 8.31179 10.5336 7.98508C9.90856 7.65128 9.10245 7.48438 8.11523 7.48438H4.49308V26H0.54066ZM19.8473 26V4.18182H23.7997V22.6868H33.4091V26H19.8473ZM40.4616 26H36.2429L43.924 4.18182H48.8033L56.495 26H52.2763L46.4489 8.65625H46.2784L40.4616 26ZM40.6001 17.4453H52.1058V20.62H40.6001V17.4453ZM55.6507 4.18182H60.1145L65.4519 13.8338H65.665L71.0023 4.18182H75.4661L67.5293 17.8608V26H63.5875V17.8608L55.6507 4.18182ZM104.105 0.859998H108.065V28.73H104.105V0.859998ZM97.8047 10.64H105.245V13.85H97.8047V10.64ZM85.7747 3.05H89.7347V9.77H95.1947V3.05H99.1247V22.19H85.7747V3.05ZM89.7347 12.86V18.98H95.1947V12.86H89.7347ZM112.322 15.86H137.462V19.04H112.322V15.86ZM115.352 25.01H134.942V28.19H115.352V25.01ZM115.352 20.42H119.312V26.27H115.352V20.42ZM115.442 11.21H134.792V14.21H115.442V11.21ZM115.442 1.79H134.582V4.82H119.402V12.5H115.442V1.79ZM118.292 6.53H133.952V9.44H118.292V6.53ZM152.52 1.28C158.85 1.28 162.57 2.96 162.57 6.02C162.57 9.08 158.85 10.76 152.52 10.76C146.16 10.76 142.47 9.08 142.47 6.02C142.47 2.96 146.16 1.28 152.52 1.28ZM152.52 4.19C148.5 4.19 146.61 4.79 146.61 6.02C146.61 7.31 148.5 7.85 152.52 7.85C156.54 7.85 158.43 7.31 158.43 6.02C158.43 4.79 156.54 4.19 152.52 4.19ZM139.95 12.05H165.06V15.2H139.95V12.05ZM142.83 16.76H162.03V23.9H146.79V26.36H142.86V21.14H158.1V19.73H142.83V16.76ZM142.86 25.49H162.75V28.49H142.86V25.49ZM185.519 12.83H189.479V18.14H185.519V12.83ZM178.109 6.44H197.279V9.59H178.109V6.44ZM174.989 11.21H200.159V14.36H174.989V11.21ZM178.109 1.19H182.069V8.12H178.109V1.19ZM177.839 16.49H197.189V23.78H181.859V26.3H177.869V20.99H193.199V19.49H177.839V16.49ZM177.869 25.46H197.999V28.49H177.869V25.46ZM221.847 0.859998H225.837V28.73H221.847V0.859998ZM217.497 10.88H222.657V14.09H217.497V10.88ZM203.547 19.01H205.827C210.327 19.01 213.897 18.92 217.917 18.23L218.277 21.47C214.167 22.16 210.447 22.31 205.827 22.31H203.547V19.01ZM203.487 3.23H215.997V13.67H207.507V20H203.547V10.52H212.067V6.41H203.487V3.23ZM240.206 3.44H257.816V6.59H240.206V3.44ZM237.656 21.8H262.766V25.04H237.656V21.8ZM255.716 3.44H259.676V6.74C259.676 10.64 259.676 14.42 258.686 20.12L254.696 19.79C255.716 14.45 255.716 10.49 255.716 6.74V3.44ZM284.303 0.89H288.323V17.36H284.303V0.89ZM266.663 13.22H269.093C274.493 13.22 278.003 13.13 282.023 12.47L282.473 15.62C278.333 16.34 274.643 16.46 269.093 16.46H266.663V13.22ZM266.633 2.48H279.413V10.85H270.593V15.14H266.663V7.88H275.483V5.63H266.633V2.48ZM269.843 18.62H288.323V28.37H269.843V18.62ZM284.393 21.74H273.743V25.22H284.393V21.74ZM305.391 1.28C311.721 1.28 315.441 2.96 315.441 6.02C315.441 9.08 311.721 10.76 305.391 10.76C299.031 10.76 295.341 9.08 295.341 6.02C295.341 2.96 299.031 1.28 305.391 1.28ZM305.391 4.19C301.371 4.19 299.481 4.79 299.481 6.02C299.481 7.31 301.371 7.85 305.391 7.85C309.411 7.85 311.301 7.31 311.301 6.02C311.301 4.79 309.411 4.19 305.391 4.19ZM292.821 12.05H317.931V15.2H292.821V12.05ZM295.701 16.76H314.901V23.9H299.661V26.36H295.731V21.14H310.971V19.73H295.701V16.76ZM295.731 25.49H315.621V28.49H295.731V25.49ZM342.05 4.94H348.89V8.12H342.05V4.94ZM347.12 0.89H351.11V14.99H347.12V0.89ZM332.75 16.16H351.11V23.63H336.74V27.11H332.81V20.75H347.15V19.22H332.75V16.16ZM332.81 25.28H351.89V28.37H332.81V25.28ZM334.22 1.79H337.46V3.77C337.46 9.02 335 13.55 329.69 15.23L327.65 12.08C332.27 10.7 334.22 7.31 334.22 3.77V1.79ZM335 1.79H338.24V3.77C338.24 7.07 340.1 10.28 344.48 11.6L342.44 14.69C337.37 13.04 335 8.75 335 3.77V1.79ZM368.898 4.91H375.978V8.06H368.898V4.91ZM368.898 10.46H376.098V13.64H368.898V10.46ZM374.718 0.89H378.708V17.15H374.718V0.89ZM356.598 2.9H369.738V15.65H356.598V2.9ZM365.808 6.05H360.528V12.53H365.808V6.05ZM369.288 17.87C375.168 17.87 378.798 19.88 378.798 23.27C378.798 26.69 375.168 28.67 369.288 28.67C363.408 28.67 359.778 26.69 359.778 23.27C359.778 19.88 363.408 17.87 369.288 17.87ZM369.288 20.93C365.688 20.93 363.768 21.68 363.768 23.27C363.768 24.86 365.688 25.64 369.288 25.64C372.918 25.64 374.838 24.86 374.838 23.27C374.838 21.68 372.918 20.93 369.288 20.93ZM400.875 0.89H404.835V28.67H400.875V0.89ZM403.935 11.72H408.855V15.05H403.935V11.72ZM382.935 5H399.105V8.18H382.935V5ZM391.065 9.74C395.115 9.74 398.115 12.5 398.115 16.37C398.115 20.24 395.115 23 391.065 23C387.015 23 384.015 20.24 384.015 16.37C384.015 12.5 387.015 9.74 391.065 9.74ZM391.065 12.98C389.175 12.98 387.825 14.24 387.825 16.37C387.825 18.5 389.175 19.76 391.065 19.76C392.955 19.76 394.305 18.5 394.305 16.37C394.305 14.24 392.955 12.98 391.065 12.98ZM389.055 1.34H393.045V6.2H389.055V1.34ZM413.773 8.39H433.033V11.54H413.773V8.39ZM410.653 14.42H435.823V17.6H410.653V14.42ZM413.773 1.88H417.733V9.95H413.773V1.88ZM413.503 24.89H433.183V28.07H413.503V24.89ZM413.503 19.82H417.493V25.73H413.503V19.82ZM466.422 11.39H471.312V14.66H466.422V11.39ZM463.452 0.859998H467.472V28.64H463.452V0.859998ZM446.532 3.53H450.522V20.78H446.532V3.53ZM446.532 18.56H448.932C452.892 18.56 457.182 18.29 461.652 17.39L462.072 20.66C457.482 21.62 453.012 21.86 448.932 21.86H446.532V18.56ZM474.04 18.92H476.02C479.38 18.92 482.35 18.83 485.8 18.23L486.13 21.44C482.56 22.1 479.5 22.19 476.02 22.19H474.04V18.92ZM474.01 3.62H483.82V14.24H477.91V20.18H474.04V11.12H479.98V6.77H474.01V3.62ZM493.36 0.89H497.14V28.67H493.36V0.89ZM484.96 10.34H489.28V13.61H484.96V10.34ZM487.72 1.4H491.41V27.35H487.72V1.4ZM519.938 0.859998H523.958V28.73H519.938V0.859998ZM508.988 2.81C513.188 2.81 516.278 6.65 516.278 12.71C516.278 18.83 513.188 22.67 508.988 22.67C504.788 22.67 501.698 18.83 501.698 12.71C501.698 6.65 504.788 2.81 508.988 2.81ZM508.988 6.44C506.918 6.44 505.508 8.63 505.508 12.71C505.508 16.85 506.918 19.07 508.988 19.07C511.058 19.07 512.438 16.85 512.438 12.71C512.438 8.63 511.058 6.44 508.988 6.44ZM543.155 4.49H548.675V7.7H543.155V4.49ZM543.155 9.86H548.675V13.04H543.155V9.86ZM534.845 2.48H538.055V5.66C538.055 11.42 535.715 16.4 530.465 18.35L528.335 15.23C532.925 13.61 534.845 9.71 534.845 5.66V2.48ZM535.685 2.48H538.895V5.66C538.895 9.47 540.695 13.28 545.075 14.93L542.885 18.02C537.965 16.07 535.685 11.18 535.685 5.66V2.48ZM547.745 0.919999H551.735V21.47H547.745V0.919999ZM533.345 25.01H552.335V28.19H533.345V25.01ZM533.345 19.58H537.365V27.02H533.345V19.58ZM568.653 1.28C574.983 1.28 578.703 2.96 578.703 6.02C578.703 9.08 574.983 10.76 568.653 10.76C562.293 10.76 558.603 9.08 558.603 6.02C558.603 2.96 562.293 1.28 568.653 1.28ZM568.653 4.19C564.633 4.19 562.743 4.79 562.743 6.02C562.743 7.31 564.633 7.85 568.653 7.85C572.673 7.85 574.563 7.31 574.563 6.02C574.563 4.79 572.673 4.19 568.653 4.19ZM556.083 12.05H581.193V15.2H556.083V12.05ZM558.963 16.76H578.163V23.9H562.923V26.36H558.993V21.14H574.233V19.73H558.963V16.76ZM558.993 25.49H578.883V28.49H558.993V25.49ZM591.152 11.66H616.292V14.81H591.152V11.66ZM594.242 7.04H613.322V10.16H594.242V7.04ZM594.242 1.4H613.082V4.58H598.202V9.74H594.242V1.4ZM594.002 16.37H613.202V23.72H597.962V26.12H594.032V20.9H609.272V19.37H594.002V16.37ZM594.032 25.4H613.922V28.46H594.032V25.4ZM626.34 2.81C630.48 2.81 633.51 6.65 633.51 12.71C633.51 18.83 630.48 22.67 626.34 22.67C622.17 22.67 619.17 18.83 619.17 12.71C619.17 6.65 622.17 2.81 626.34 2.81ZM626.34 6.44C624.33 6.44 622.98 8.63 622.98 12.71C622.98 16.85 624.33 19.07 626.34 19.07C628.38 19.07 629.7 16.85 629.7 12.71C629.7 8.63 628.38 6.44 626.34 6.44ZM638.07 0.859998H642.03V28.73H638.07V0.859998ZM632.34 10.88H639.75V14.09H632.34V10.88ZM646.347 22.22H671.487V25.46H646.347V22.22ZM656.877 16.28H660.867V23H656.877V16.28ZM648.987 2.66H652.947V6.92H664.797V2.66H668.757V17.12H648.987V2.66ZM652.947 10.04V13.94H664.797V10.04H652.947ZM684.865 10.22H689.455V13.46H684.865V10.22ZM678.925 3.29H681.985V7.97C681.985 14.27 680.245 20.42 675.805 23.15L673.405 20.15C677.485 17.63 678.925 12.68 678.925 7.97V3.29ZM679.795 3.29H682.795V7.79C682.795 12.32 683.965 16.94 687.745 19.4L685.585 22.52C681.175 19.79 679.795 13.79 679.795 7.79V3.29ZM693.985 0.89H697.795V28.67H693.985V0.89ZM688.345 1.31H692.065V27.41H688.345V1.31ZM707.063 14.99H711.023V22.79H707.063V14.99ZM717.143 14.99H721.133V22.79H717.143V14.99ZM701.543 22.22H726.683V25.46H701.543V22.22ZM714.083 2.24C720.053 2.24 724.463 5.18 724.463 9.71C724.463 14.24 720.053 17.15 714.083 17.15C708.083 17.15 703.703 14.24 703.703 9.71C703.703 5.18 708.083 2.24 714.083 2.24ZM714.083 5.36C710.213 5.36 707.633 6.95 707.633 9.71C707.633 12.44 710.213 14.06 714.083 14.06C717.952 14.06 720.533 12.44 720.533 9.71C720.533 6.95 717.952 5.36 714.083 5.36ZM732.267 26.2344C731.621 26.2344 731.067 26.0071 730.605 25.5526C730.144 25.098 729.917 24.544 729.924 23.8906C729.917 23.2514 730.144 22.7045 730.605 22.25C731.067 21.7955 731.621 21.5682 732.267 21.5682C732.892 21.5682 733.436 21.7955 733.897 22.25C734.366 22.7045 734.604 23.2514 734.611 23.8906C734.604 24.3239 734.49 24.718 734.27 25.0732C734.057 25.4283 733.773 25.7124 733.418 25.9254C733.07 26.1314 732.686 26.2344 732.267 26.2344ZM101.479 40.94H108.319V44.12H101.479V40.94ZM106.549 36.89H110.539V50.99H106.549V36.89ZM92.1789 52.16H110.539V59.63H96.1689V63.11H92.2389V56.75H106.579V55.22H92.1789V52.16ZM92.2389 61.28H111.319V64.37H92.2389V61.28ZM93.6489 37.79H96.8889V39.77C96.8889 45.02 94.4289 49.55 89.1189 51.23L87.0789 48.08C91.6989 46.7 93.6489 43.31 93.6489 39.77V37.79ZM94.4289 37.79H97.6689V39.77C97.6689 43.07 99.5289 46.28 103.909 47.6L101.869 50.69C96.7989 49.04 94.4289 44.75 94.4289 39.77V37.79ZM128.327 40.91H135.407V44.06H128.327V40.91ZM128.327 46.46H135.527V49.64H128.327V46.46ZM134.147 36.89H138.137V53.15H134.147V36.89ZM116.027 38.9H129.167V51.65H116.027V38.9ZM125.237 42.05H119.957V48.53H125.237V42.05ZM128.717 53.87C134.597 53.87 138.227 55.88 138.227 59.27C138.227 62.69 134.597 64.67 128.717 64.67C122.837 64.67 119.207 62.69 119.207 59.27C119.207 55.88 122.837 53.87 128.717 53.87ZM128.717 56.93C125.117 56.93 123.197 57.68 123.197 59.27C123.197 60.86 125.117 61.64 128.717 61.64C132.347 61.64 134.267 60.86 134.267 59.27C134.267 57.68 132.347 56.93 128.717 56.93ZM160.304 36.89H164.264V64.67H160.304V36.89ZM163.364 47.72H168.284V51.05H163.364V47.72ZM142.364 41H158.534V44.18H142.364V41ZM150.494 45.74C154.544 45.74 157.544 48.5 157.544 52.37C157.544 56.24 154.544 59 150.494 59C146.444 59 143.444 56.24 143.444 52.37C143.444 48.5 146.444 45.74 150.494 45.74ZM150.494 48.98C148.604 48.98 147.254 50.24 147.254 52.37C147.254 54.5 148.604 55.76 150.494 55.76C152.384 55.76 153.734 54.5 153.734 52.37C153.734 50.24 152.384 48.98 150.494 48.98ZM148.484 37.34H152.474V42.2H148.484V37.34ZM173.202 44.39H192.462V47.54H173.202V44.39ZM170.082 50.42H195.252V53.6H170.082V50.42ZM173.202 37.88H177.162V45.95H173.202V37.88ZM172.932 60.89H192.612V64.07H172.932V60.89ZM172.932 55.82H176.922V61.73H172.932V55.82ZM207.701 39.44H225.311V42.59H207.701V39.44ZM205.151 57.8H230.261V61.04H205.151V57.8ZM223.211 39.44H227.171V42.74C227.171 46.64 227.171 50.42 226.181 56.12L222.191 55.79C223.211 50.45 223.211 46.49 223.211 42.74V39.44ZM251.799 36.89H255.819V53.36H251.799V36.89ZM234.159 49.22H236.589C241.989 49.22 245.499 49.13 249.519 48.47L249.969 51.62C245.829 52.34 242.139 52.46 236.589 52.46H234.159V49.22ZM234.129 38.48H246.909V46.85H238.089V51.14H234.159V43.88H242.979V41.63H234.129V38.48ZM237.339 54.62H255.819V64.37H237.339V54.62ZM251.889 57.74H241.239V61.22H251.889V57.74ZM260.316 51.05H285.426V54.23H260.316V51.05ZM263.346 61.01H282.606V64.19H263.346V61.01ZM263.346 56.09H267.336V62.03H263.346V56.09ZM272.886 37.7C278.916 37.7 282.936 39.89 282.936 43.43C282.936 46.97 278.916 49.16 272.886 49.16C266.826 49.16 262.836 46.97 262.836 43.43C262.836 39.89 266.826 37.7 272.886 37.7ZM272.886 40.88C269.136 40.88 266.946 41.75 266.946 43.43C266.946 45.14 269.136 45.98 272.886 45.98C276.636 45.98 278.826 45.14 278.826 43.43C278.826 41.75 276.636 40.88 272.886 40.88ZM302.975 38.81C307.115 38.81 310.145 42.65 310.145 48.71C310.145 54.83 307.115 58.67 302.975 58.67C298.805 58.67 295.805 54.83 295.805 48.71C295.805 42.65 298.805 38.81 302.975 38.81ZM302.975 42.44C300.965 42.44 299.615 44.63 299.615 48.71C299.615 52.85 300.965 55.07 302.975 55.07C305.015 55.07 306.335 52.85 306.335 48.71C306.335 44.63 305.015 42.44 302.975 42.44ZM314.705 36.86H318.665V64.73H314.705V36.86ZM308.975 46.88H316.385V50.09H308.975V46.88ZM327.213 61.01H347.163V64.19H327.213V61.01ZM327.213 55.31H331.233V62.99H327.213V55.31ZM342.513 36.92H346.473V57.02H342.513V36.92ZM338.853 44.21H345.933V47.39H338.853V44.21ZM323.343 49.94H324.753C327.093 49.94 328.743 49.88 330.783 49.46L331.083 52.67C328.923 53.12 327.243 53.12 324.753 53.12H323.343V49.94ZM323.343 38.99H330.633V42.17H327.273V50.54H323.343V38.99ZM331.953 49.94H333.453C336.963 49.94 338.493 49.88 340.293 49.43L340.623 52.64C338.703 53.06 337.113 53.12 333.453 53.12H331.953V49.94ZM331.953 38.99H339.663V42.17H335.853V50.51H331.953V38.99ZM358.022 58.22H383.162V61.46H358.022V58.22ZM368.552 52.07H372.542V58.97H368.552V52.07ZM360.632 38.93H380.402V52.58H360.632V38.93ZM376.502 42.11H364.562V49.43H376.502V42.11ZM388.53 53.54H392.46V55.88H403.59V53.54H407.55V64.37H388.53V53.54ZM392.46 58.85V61.25H403.59V58.85H392.46ZM385.59 49.01H410.7V52.16H385.59V49.01ZM396.12 37.19H399.54V38.03C399.54 42.86 395.4 46.85 388.23 47.78L386.82 44.69C393.09 43.94 396.12 40.85 396.12 38.03V37.19ZM396.78 37.19H400.2V38.03C400.2 40.82 403.23 43.94 409.47 44.69L408.06 47.78C400.89 46.85 396.78 42.83 396.78 38.03V37.19ZM421.017 37.7C425.247 37.7 428.427 40.34 428.427 44.06C428.427 47.75 425.247 50.39 421.017 50.39C416.787 50.39 413.607 47.75 413.607 44.06C413.607 40.34 416.787 37.7 421.017 37.7ZM421.017 40.94C418.977 40.94 417.447 42.08 417.447 44.06C417.447 46.04 418.977 47.18 421.017 47.18C423.057 47.18 424.557 46.04 424.557 44.06C424.557 42.08 423.057 40.94 421.017 40.94ZM432.267 36.89H436.287V50.78H432.267V36.89ZM417.747 51.92H436.287V59.54H421.707V62.9H417.807V56.66H432.327V55.01H417.747V51.92ZM417.807 61.28H436.977V64.37H417.807V61.28ZM447.475 41.27H450.655V44.39C450.655 50.81 448.045 57.08 442.825 59.45L440.575 56.3C445.225 54.23 447.475 49.1 447.475 44.39V41.27ZM448.375 41.27H451.525V44.39C451.525 48.89 453.745 53.69 458.395 55.61L456.235 58.76C450.955 56.48 448.375 50.57 448.375 44.39V41.27ZM441.685 39.56H457.255V42.83H441.685V39.56ZM459.835 36.89H463.855V64.67H459.835V36.89ZM481.914 38.39H485.184V40.85C485.184 46.37 482.784 51.23 477.504 53.06L475.374 49.91C480.024 48.35 481.914 44.63 481.914 40.85V38.39ZM482.724 38.39H485.964V41.24C485.964 44.57 487.824 47.81 492.174 49.16L490.104 52.25C485.094 50.57 482.724 46.25 482.724 41.24V38.39ZM493.704 36.89H497.694V53.3H493.704V36.89ZM496.584 43.31H501.384V46.61H496.584V43.31ZM488.634 53.93C494.394 53.93 498.024 55.94 498.024 59.3C498.024 62.69 494.394 64.67 488.634 64.67C482.844 64.67 479.214 62.69 479.214 59.3C479.214 55.94 482.844 53.93 488.634 53.93ZM488.634 57.02C485.094 57.02 483.174 57.77 483.174 59.3C483.174 60.86 485.094 61.58 488.634 61.58C492.174 61.58 494.064 60.86 494.064 59.3C494.064 57.77 492.174 57.02 488.634 57.02ZM509.512 38.39H512.782V40.85C512.782 46.37 510.382 51.23 505.102 53.06L502.972 49.91C507.622 48.35 509.512 44.63 509.512 40.85V38.39ZM510.322 38.39H513.562V41.24C513.562 44.57 515.422 47.81 519.772 49.16L517.702 52.25C512.692 50.57 510.322 46.25 510.322 41.24V38.39ZM521.302 36.89H525.292V53.3H521.302V36.89ZM524.182 43.31H528.982V46.61H524.182V43.31ZM516.232 53.93C521.992 53.93 525.622 55.94 525.622 59.3C525.622 62.69 521.992 64.67 516.232 64.67C510.442 64.67 506.812 62.69 506.812 59.3C506.812 55.94 510.442 53.93 516.232 53.93ZM516.232 57.02C512.692 57.02 510.772 57.77 510.772 59.3C510.772 60.86 512.692 61.58 516.232 61.58C519.772 61.58 521.662 60.86 521.662 59.3C521.662 57.77 519.772 57.02 516.232 57.02ZM530.989 41.06H544.279V44.24H530.989V41.06ZM537.679 45.47C541.219 45.47 543.769 48.2 543.769 52.1C543.769 55.97 541.219 58.7 537.679 58.7C534.169 58.7 531.589 55.97 531.589 52.1C531.589 48.2 534.169 45.47 537.679 45.47ZM537.679 48.8C536.179 48.8 535.129 50 535.129 52.1C535.129 54.2 536.179 55.37 537.679 55.37C539.179 55.37 540.259 54.2 540.259 52.1C540.259 50 539.179 48.8 537.679 48.8ZM551.089 36.89H554.899V64.67H551.089V36.89ZM547.759 48.17H552.349V51.38H547.759V48.17ZM545.269 37.4H548.989V63.5H545.269V37.4ZM535.729 37.64H539.659V43.07H535.729V37.64ZM558.647 58.22H583.787V61.46H558.647V58.22ZM569.177 52.28H573.167V59H569.177V52.28ZM561.287 38.66H565.247V42.92H577.097V38.66H581.057V53.12H561.287V38.66ZM565.247 46.04V49.94H577.097V46.04H565.247ZM597.165 46.22H601.755V49.46H597.165V46.22ZM591.225 39.29H594.285V43.97C594.285 50.27 592.545 56.42 588.105 59.15L585.705 56.15C589.785 53.63 591.225 48.68 591.225 43.97V39.29ZM592.095 39.29H595.095V43.79C595.095 48.32 596.265 52.94 600.045 55.4L597.885 58.52C593.475 55.79 592.095 49.79 592.095 43.79V39.29ZM606.285 36.89H610.095V64.67H606.285V36.89ZM600.645 37.31H604.365V63.41H600.645V37.31ZM619.362 50.99H623.322V58.79H619.362V50.99ZM629.442 50.99H633.432V58.79H629.442V50.99ZM613.842 58.22H638.982V61.46H613.842V58.22ZM626.382 38.24C632.352 38.24 636.762 41.18 636.762 45.71C636.762 50.24 632.352 53.15 626.382 53.15C620.382 53.15 616.002 50.24 616.002 45.71C616.002 41.18 620.382 38.24 626.382 38.24ZM626.382 41.36C622.512 41.36 619.932 42.95 619.932 45.71C619.932 48.44 622.512 50.06 626.382 50.06C630.252 50.06 632.832 48.44 632.832 45.71C632.832 42.95 630.252 41.36 626.382 41.36ZM644.567 62.2344C643.921 62.2344 643.367 62.0071 642.905 61.5526C642.444 61.098 642.216 60.544 642.223 59.8906C642.216 59.2514 642.444 58.7045 642.905 58.25C643.367 57.7955 643.921 57.5682 644.567 57.5682C645.192 57.5682 645.736 57.7955 646.197 58.25C646.666 58.7045 646.904 59.2514 646.911 59.8906C646.904 60.3239 646.79 60.718 646.57 61.0732C646.357 61.4283 646.073 61.7124 645.718 61.9254C645.37 62.1314 644.986 62.2344 644.567 62.2344Z" fill="#A98F1B"/>
</svg>
