<svg width="1223" height="400" viewBox="0 0 1223 400" fill="none" xmlns="http://www.w3.org/2000/svg">
<rect width="1223" height="400" fill="#FFD0C5"/>
<g filter="url(#filter0_di_118_109)">
<rect x="13" y="13.0166" width="1197" height="362.096" fill="#FFB5A4"/>
</g>
<g filter="url(#filter1_di_118_109)">
<rect width="1134" height="313.58" transform="matrix(1 0 0 -1 44 349.08)" fill="#FFD0C5"/>
</g>
<path d="M374.6 117.1H392.06V119.11H374.6V117.1ZM371.96 135.31H396.47V137.38H371.96V135.31ZM390.74 117.1H393.17V119.8C393.17 123.28 393.17 127.15 392.15 133L389.66 132.76C390.74 127.21 390.74 123.16 390.74 119.8V117.1ZM419.268 114.22H421.788V130.3H419.268V114.22ZM400.938 126.97H403.128C408.048 126.97 411.678 126.82 416.028 126.13L416.298 128.14C411.828 128.89 408.168 129.04 403.128 129.04H400.938V126.97ZM400.878 115.84H413.178V123.25H403.368V128.2H400.938V121.33H410.748V117.88H400.878V115.84ZM404.268 131.8H421.788V140.98H404.268V131.8ZM419.328 133.78H406.698V138.97H419.328V133.78ZM439.395 114.67C445.365 114.67 448.935 116.35 448.935 119.38C448.935 122.41 445.365 124.09 439.395 124.09C433.395 124.09 429.855 122.41 429.855 119.38C429.855 116.35 433.395 114.67 439.395 114.67ZM439.395 116.56C434.955 116.56 432.405 117.58 432.405 119.38C432.405 121.18 434.955 122.2 439.395 122.2C443.805 122.2 446.355 121.18 446.355 119.38C446.355 117.58 443.805 116.56 439.395 116.56ZM427.125 125.89H451.635V127.9H427.125V125.89ZM430.095 130.21H448.515V136.33H432.615V139.63H430.155V134.53H446.055V132.13H430.095V130.21ZM430.155 139.09H449.325V141.04H430.155V139.09ZM469.76 115.63H471.83V118.39C471.83 123.61 468.89 127.93 464.36 129.7L463.04 127.69C467.12 126.19 469.76 122.53 469.76 118.39V115.63ZM470.21 115.63H472.25V118.57C472.25 122.23 474.95 125.62 478.85 126.97L477.53 128.92C473.18 127.3 470.21 123.28 470.21 118.57V115.63ZM481.73 114.22H484.22V130.66H481.73V114.22ZM483.53 121.21H488.24V123.31H483.53V121.21ZM475.58 131.41C481.13 131.41 484.49 133.24 484.49 136.36C484.49 139.48 481.13 141.28 475.58 141.28C470.03 141.28 466.67 139.48 466.67 136.36C466.67 133.24 470.03 131.41 475.58 131.41ZM475.58 133.39C471.56 133.39 469.1 134.47 469.1 136.36C469.1 138.25 471.56 139.33 475.58 139.33C479.6 139.33 482.06 138.25 482.06 136.36C482.06 134.47 479.6 133.39 475.58 133.39ZM497.358 115.63H499.428V118.39C499.428 123.61 496.488 127.93 491.958 129.7L490.638 127.69C494.718 126.19 497.358 122.53 497.358 118.39V115.63ZM497.808 115.63H499.848V118.57C499.848 122.23 502.548 125.62 506.448 126.97L505.128 128.92C500.778 127.3 497.808 123.28 497.808 118.57V115.63ZM509.328 114.22H511.818V130.66H509.328V114.22ZM511.128 121.21H515.838V123.31H511.128V121.21ZM503.178 131.41C508.728 131.41 512.088 133.24 512.088 136.36C512.088 139.48 508.728 141.28 503.178 141.28C497.628 141.28 494.268 139.48 494.268 136.36C494.268 133.24 497.628 131.41 503.178 131.41ZM503.178 133.39C499.158 133.39 496.698 134.47 496.698 136.36C496.698 138.25 499.158 139.33 503.178 139.33C507.198 139.33 509.658 138.25 509.658 136.36C509.658 134.47 507.198 133.39 503.178 133.39ZM536.746 114.22H539.236V141.34H536.746V114.22ZM538.636 125.35H543.676V127.45H538.636V125.35ZM518.236 118.54H534.226V120.58H518.236V118.54ZM526.336 122.83C530.176 122.83 532.936 125.41 532.936 129.07C532.936 132.73 530.176 135.31 526.336 135.31C522.526 135.31 519.736 132.73 519.736 129.07C519.736 125.41 522.526 122.83 526.336 122.83ZM526.336 124.9C523.876 124.9 522.106 126.61 522.106 129.07C522.106 131.5 523.876 133.24 526.336 133.24C528.796 133.24 530.566 131.5 530.566 129.07C530.566 126.61 528.796 124.9 526.336 124.9ZM525.046 114.55H527.536V119.47H525.046V114.55ZM565.723 114.22H568.213V141.34H565.723V114.22ZM557.773 117.13H560.233C560.233 124.99 556.693 131.86 547.633 136.3L546.313 134.29C554.143 130.51 557.773 124.75 557.773 117.55V117.13ZM547.543 117.13H558.853V119.17H547.543V117.13ZM589.249 116.29C593.179 116.29 595.999 119.98 595.999 125.74C595.999 131.53 593.179 135.22 589.249 135.22C585.289 135.22 582.499 131.53 582.499 125.74C582.499 119.98 585.289 116.29 589.249 116.29ZM589.249 118.54C586.639 118.54 584.869 121.36 584.869 125.74C584.869 130.15 586.639 133.03 589.249 133.03C591.859 133.03 593.629 130.15 593.629 125.74C593.629 121.36 591.859 118.54 589.249 118.54ZM601.879 114.19H604.339V141.37H601.879V114.19ZM595.189 124.54H602.959V126.58H595.189V124.54ZM629.416 114.25H631.906V129.4H629.416V114.25ZM624.166 117.73H629.986V119.77H624.166V117.73ZM610.726 126.52H612.676C617.956 126.52 620.626 126.46 623.926 125.89L624.166 127.93C620.776 128.47 618.016 128.56 612.676 128.56H610.726V126.52ZM610.666 115.42H622.366V122.8H613.186V128.23H610.726V120.88H619.906V117.46H610.666V115.42ZM624.166 123.01H629.986V125.02H624.166V123.01ZM614.356 130.51H616.816V133.63H629.446V130.51H631.906V140.98H614.356V130.51ZM616.816 135.61V138.94H629.446V135.61H616.816ZM644.384 118.09H646.394V122.5C646.394 128.23 642.944 133.99 638.624 136.12L637.184 134.14C641.114 132.28 644.384 127.18 644.384 122.5V118.09ZM644.864 118.09H646.874V122.5C646.874 127.09 650.144 131.77 654.134 133.48L652.724 135.46C648.344 133.42 644.864 128.14 644.864 122.5V118.09ZM638.084 116.98H653.234V119.08H638.084V116.98ZM656.894 114.22H659.384V141.34H656.894V114.22ZM668.112 122.35H686.532V124.39H668.112V122.35ZM664.782 128.02H689.382V130.06H664.782V128.02ZM668.112 115.21H670.572V123.37H668.112V115.21ZM667.932 138.64H686.682V140.68H667.932V138.64ZM667.932 132.76H670.392V139.18H667.932V132.76ZM708.317 115.75C712.367 115.75 715.337 118.33 715.337 122.02C715.337 125.71 712.367 128.29 708.317 128.29C704.297 128.29 701.327 125.71 701.327 122.02C701.327 118.33 704.297 115.75 708.317 115.75ZM708.317 117.79C705.737 117.79 703.757 119.56 703.757 122.02C703.757 124.48 705.737 126.25 708.317 126.25C710.957 126.25 712.937 124.48 712.937 122.02C712.937 119.56 710.957 117.79 708.317 117.79ZM719.387 114.22H721.877V127.72H719.387V114.22ZM720.797 120.31H725.897V122.35H720.797V120.31ZM703.667 138.58H704.957C706.577 138.58 709.187 138.43 711.497 137.65L711.917 139.66C709.307 140.5 706.817 140.62 704.957 140.62H703.667V138.58ZM703.667 130.66H706.097V139.3H703.667V130.66ZM710.927 130.84H724.547V132.7H710.927V130.84ZM717.767 133.66C720.707 133.66 722.777 135.13 722.777 137.47C722.777 139.84 720.707 141.31 717.767 141.31C714.797 141.31 712.727 139.84 712.727 137.47C712.727 135.13 714.797 133.66 717.767 133.66ZM717.767 135.43C716.087 135.43 714.947 136.24 714.947 137.47C714.947 138.73 716.087 139.54 717.767 139.54C719.387 139.54 720.557 138.73 720.557 137.47C720.557 136.24 719.387 135.43 717.767 135.43ZM716.537 128.41H718.967V132.28H716.537V128.41ZM740.684 115.93C746.324 115.93 750.524 118.93 750.524 123.43C750.524 127.96 746.324 130.93 740.684 130.93C735.044 130.93 730.814 127.96 730.814 123.43C730.814 118.93 735.044 115.93 740.684 115.93ZM740.684 117.97C736.394 117.97 733.214 120.16 733.214 123.43C733.214 126.67 736.394 128.89 740.684 128.89C744.974 128.89 748.154 126.67 748.154 123.43C748.154 120.16 744.974 117.97 740.684 117.97ZM728.444 135.67H753.014V137.77H728.444V135.67ZM770.502 117.46H776.622V119.5H770.502V117.46ZM770.502 122.8H776.622V124.81H770.502V122.8ZM775.842 114.22H778.332V130.12H775.842V114.22ZM762.792 115.18H764.832V118C764.832 123.34 761.952 127.75 757.422 129.55L756.072 127.6C760.182 126.04 762.792 122.26 762.792 118V115.18ZM763.212 115.18H765.222V118C765.222 121.93 767.862 125.62 771.792 127.15L770.412 129.13C766.092 127.33 763.212 123.01 763.212 118V115.18ZM762.942 131.11H764.892V132.31C764.892 135.88 762.672 139.51 758.772 141.01L757.512 139.15C760.932 137.89 762.942 134.95 762.942 132.31V131.11ZM763.512 131.11H765.372V132.31C765.372 135.07 766.962 138.04 770.232 139.36L769.182 141.25C765.252 139.72 763.512 135.94 763.512 132.31V131.11ZM772.992 131.11H774.822V132.31C774.822 135.52 773.052 139.6 769.182 141.25L768.102 139.36C771.342 137.86 772.992 134.68 772.992 132.31V131.11ZM773.472 131.11H775.422V132.31C775.422 135.16 777.402 137.98 780.882 139.15L779.592 141.01C775.662 139.57 773.472 136.09 773.472 132.31V131.11ZM803.8 125.02H808.81V127.12H803.8V125.02ZM801.97 114.19H804.49V141.34H801.97V114.19ZM784.69 116.86H787.18V133.66H784.69V116.86ZM784.69 132.37H786.85C790.87 132.37 794.98 132.1 799.45 131.17L799.75 133.24C795.13 134.2 790.96 134.47 786.85 134.47H784.69V132.37ZM817.237 128.17H819.697V136.3H817.237V128.17ZM827.257 128.17H829.747V136.3H827.257V128.17ZM811.237 135.82H835.807V137.89H811.237V135.82ZM823.477 115.93C829.207 115.93 833.317 118.66 833.317 122.92C833.317 127.15 829.207 129.88 823.477 129.88C817.717 129.88 813.607 127.15 813.607 122.92C813.607 118.66 817.717 115.93 823.477 115.93ZM823.477 117.91C819.127 117.91 816.007 119.89 816.007 122.92C816.007 125.92 819.127 127.9 823.477 127.9C827.827 127.9 830.917 125.92 830.917 122.92C830.917 119.89 827.827 117.91 823.477 117.91ZM842.917 132.864V132.736C842.932 131.379 843.074 130.3 843.343 129.497C843.613 128.695 843.997 128.045 844.494 127.548C844.991 127.05 845.588 126.592 846.284 126.173C846.703 125.918 847.079 125.616 847.413 125.268C847.747 124.913 848.01 124.504 848.201 124.043C848.4 123.581 848.5 123.07 848.5 122.509C848.5 121.812 848.336 121.209 848.01 120.697C847.683 120.186 847.246 119.792 846.699 119.515C846.152 119.238 845.545 119.099 844.878 119.099C844.295 119.099 843.734 119.22 843.194 119.462C842.655 119.703 842.204 120.083 841.841 120.602C841.479 121.12 841.27 121.798 841.213 122.636H838.528C838.585 121.429 838.897 120.396 839.466 119.536C840.041 118.677 840.797 118.02 841.735 117.565C842.679 117.111 843.727 116.884 844.878 116.884C846.128 116.884 847.214 117.132 848.138 117.629C849.068 118.126 849.785 118.808 850.29 119.675C850.801 120.541 851.057 121.528 851.057 122.636C851.057 123.418 850.936 124.124 850.694 124.756C850.46 125.388 850.119 125.953 849.672 126.45C849.231 126.947 848.699 127.388 848.074 127.771C847.449 128.162 846.948 128.574 846.571 129.007C846.195 129.433 845.922 129.941 845.751 130.531C845.581 131.12 845.488 131.855 845.474 132.736V132.864H842.917ZM844.281 139.17C843.755 139.17 843.304 138.982 842.928 138.606C842.552 138.229 842.363 137.778 842.363 137.253C842.363 136.727 842.552 136.276 842.928 135.9C843.304 135.523 843.755 135.335 844.281 135.335C844.807 135.335 845.258 135.523 845.634 135.9C846.01 136.276 846.199 136.727 846.199 137.253C846.199 137.601 846.11 137.92 845.932 138.212C845.762 138.503 845.531 138.737 845.24 138.915C844.956 139.085 844.636 139.17 844.281 139.17ZM122.219 193.69H129.059V195.73H122.219V193.69ZM127.649 186.25H130.139V206.11H127.649V186.25ZM112.829 210.7H130.889V212.74H112.829V210.7ZM112.829 204.37H115.319V211.75H112.829V204.37ZM114.749 189.61H116.789V191.8C116.789 196.72 113.729 200.98 109.199 202.66L107.909 200.68C111.959 199.24 114.749 195.64 114.749 191.8V189.61ZM115.229 189.61H117.239V191.77C117.239 195.28 119.879 198.7 123.809 200.08L122.549 202.03C118.139 200.44 115.229 196.36 115.229 191.77V189.61ZM108.689 188.44H123.179V190.45H108.689V188.44ZM155.906 186.25H158.276V202.69H155.906V186.25ZM151.586 193.36H156.716V195.43H151.586V193.36ZM150.086 186.76H152.456V201.82H150.086V186.76ZM136.646 188.59H147.116V200.26H136.646V188.59ZM144.776 190.54H138.956V198.34H144.776V190.54ZM149.366 203.38C154.946 203.38 158.426 205.21 158.426 208.33C158.426 211.45 154.946 213.28 149.366 213.28C143.786 213.28 140.336 211.45 140.336 208.33C140.336 205.21 143.786 203.38 149.366 203.38ZM149.366 205.33C145.286 205.33 142.766 206.44 142.766 208.33C142.766 210.22 145.286 211.33 149.366 211.33C153.446 211.33 155.936 210.22 155.936 208.33C155.936 206.44 153.446 205.33 149.366 205.33ZM178.621 188.56H180.661V193.42C180.661 199.66 177.301 205.45 172.861 207.7L171.331 205.66C175.351 203.74 178.621 198.55 178.621 193.42V188.56ZM179.041 188.56H181.081V193.42C181.081 198.37 184.321 203.35 188.341 205.21L186.841 207.19C182.431 205.03 179.041 199.45 179.041 193.42V188.56ZM191.161 186.19H193.651V213.37H191.161V186.19ZM217.619 186.22H220.109V202.12H217.619V186.22ZM219.419 193.06H224.129V195.16H219.419V193.06ZM210.119 187.96H212.729C212.729 194.8 207.959 199.69 200.039 201.85L199.019 199.9C206.039 197.98 210.119 194.05 210.119 189.04V187.96ZM200.219 187.96H211.499V189.97H200.219V187.96ZM202.499 203.38H220.109V213.34H217.619V205.39H202.499V203.38ZM233.337 189.13H235.377V191.32C235.377 196.3 232.377 200.47 227.817 202.12L226.557 200.14C230.637 198.7 233.337 195.19 233.337 191.32V189.13ZM233.787 189.13H235.827V191.29C235.827 194.83 238.407 198.01 242.397 199.33L241.197 201.28C236.667 199.78 233.787 195.91 233.787 191.29V189.13ZM227.307 188.23H241.797V190.27H227.307V188.23ZM245.217 186.22H247.707V202.57H245.217V186.22ZM247.017 193.09H251.727V195.19H247.017V193.09ZM239.067 203.29C244.587 203.29 247.977 205.12 247.977 208.27C247.977 211.45 244.587 213.28 239.067 213.28C233.547 213.28 230.157 211.45 230.157 208.27C230.157 205.12 233.547 203.29 239.067 203.29ZM239.067 205.3C235.047 205.3 232.587 206.38 232.587 208.27C232.587 210.19 235.047 211.33 239.067 211.33C243.087 211.33 245.547 210.19 245.547 208.27C245.547 206.38 243.087 205.3 239.067 205.3ZM260.364 188.47C263.874 188.47 266.154 192.1 266.154 197.92C266.154 203.74 263.874 207.37 260.364 207.37C256.854 207.37 254.604 203.74 254.604 197.92C254.604 192.1 256.854 188.47 260.364 188.47ZM260.364 190.78C258.234 190.78 256.884 193.54 256.884 197.92C256.884 202.3 258.234 205.06 260.364 205.06C262.494 205.06 263.844 202.3 263.844 197.92C263.844 193.54 262.494 190.78 260.364 190.78ZM274.914 186.22H277.314V213.34H274.914V186.22ZM270.624 196.96H275.814V199H270.624V196.96ZM268.914 186.79H271.284V211.99H268.914V186.79ZM301.582 186.25H304.102V206.05H301.582V186.25ZM286.672 210.7H304.912V212.74H286.672V210.7ZM286.672 204.01H289.132V211.39H286.672V204.01ZM289.552 188.11C293.602 188.11 296.602 190.87 296.602 194.8C296.602 198.7 293.602 201.49 289.552 201.49C285.502 201.49 282.472 198.7 282.472 194.8C282.472 190.87 285.502 188.11 289.552 188.11ZM289.552 190.27C286.912 190.27 284.902 192.13 284.902 194.8C284.902 197.44 286.912 199.3 289.552 199.3C292.192 199.3 294.202 197.44 294.202 194.8C294.202 192.13 292.192 190.27 289.552 190.27ZM329.15 186.19H331.64V213.37H329.15V186.19ZM317.33 188.29C321.35 188.29 324.23 191.98 324.23 197.74C324.23 203.53 321.35 207.22 317.33 207.22C313.34 207.22 310.46 203.53 310.46 197.74C310.46 191.98 313.34 188.29 317.33 188.29ZM317.33 190.54C314.69 190.54 312.83 193.36 312.83 197.74C312.83 202.15 314.69 205.03 317.33 205.03C320 205.03 321.83 202.15 321.83 197.74C321.83 193.36 320 190.54 317.33 190.54ZM352.165 189.01H354.205V191.2C354.205 196.18 351.205 200.32 346.675 201.94L345.355 199.99C349.465 198.55 352.165 195.07 352.165 191.2V189.01ZM352.615 189.01H354.655V191.17C354.655 194.77 357.265 198.1 361.255 199.45L359.965 201.4C355.495 199.84 352.615 195.85 352.615 191.17V189.01ZM346.135 188.11H360.625V190.15H346.135V188.11ZM364.045 186.22H366.535V202.54H364.045V186.22ZM365.845 193.36H370.555V195.43H365.845V193.36ZM348.925 203.98H366.535V213.34H364.045V206.05H348.925V203.98ZM384.113 200.62H386.573V205.3H384.113V200.62ZM373.073 199.3H397.583V201.34H373.073V199.3ZM375.353 187.06H395.273V189.1H375.353V187.06ZM375.473 194.77H395.153V196.81H375.473V194.77ZM379.463 187.96H381.953V196.09H379.463V187.96ZM388.703 187.96H391.163V196.09H388.703V187.96ZM376.073 204.49H394.583V212.98H376.073V204.49ZM392.153 206.47H378.533V210.97H392.153V206.47ZM412.94 186.67C418.91 186.67 422.48 188.35 422.48 191.38C422.48 194.41 418.91 196.09 412.94 196.09C406.94 196.09 403.4 194.41 403.4 191.38C403.4 188.35 406.94 186.67 412.94 186.67ZM412.94 188.56C408.5 188.56 405.95 189.58 405.95 191.38C405.95 193.18 408.5 194.2 412.94 194.2C417.35 194.2 419.9 193.18 419.9 191.38C419.9 189.58 417.35 188.56 412.94 188.56ZM400.67 197.89H425.18V199.9H400.67V197.89ZM403.64 202.21H422.06V208.33H406.16V211.63H403.7V206.53H419.6V204.13H403.64V202.21ZM403.7 211.09H422.87V213.04H403.7V211.09ZM455.275 186.22H457.765V201.58H455.275V186.22ZM457.075 192.82H461.785V194.89H457.075V192.82ZM447.775 187.96H450.415C450.415 194.8 445.645 199.72 437.665 201.88L436.705 199.9C443.725 197.98 447.775 194.05 447.775 189.07V187.96ZM437.875 187.96H449.155V189.97H437.875V187.96ZM440.695 202.87H457.765V212.98H440.695V202.87ZM455.305 204.88H443.155V210.94H455.305V204.88ZM470.903 187.63H472.973V190.39C472.973 195.61 470.033 199.93 465.503 201.7L464.183 199.69C468.263 198.19 470.903 194.53 470.903 190.39V187.63ZM471.353 187.63H473.393V190.57C473.393 194.23 476.093 197.62 479.993 198.97L478.673 200.92C474.323 199.3 471.353 195.28 471.353 190.57V187.63ZM482.873 186.22H485.363V202.66H482.873V186.22ZM484.673 193.21H489.383V195.31H484.673V193.21ZM476.723 203.41C482.273 203.41 485.633 205.24 485.633 208.36C485.633 211.48 482.273 213.28 476.723 213.28C471.173 213.28 467.813 211.48 467.813 208.36C467.813 205.24 471.173 203.41 476.723 203.41ZM476.723 205.39C472.703 205.39 470.243 206.47 470.243 208.36C470.243 210.25 472.703 211.33 476.723 211.33C480.743 211.33 483.203 210.25 483.203 208.36C483.203 206.47 480.743 205.39 476.723 205.39ZM510.471 186.13H512.961V201.1H510.471V186.13ZM511.911 192.64H516.981V194.74H511.911V192.64ZM495.741 202.48H512.961V208.54H498.261V211.84H495.801V206.74H510.531V204.37H495.741V202.48ZM495.801 211.12H513.951V213.04H495.801V211.12ZM491.991 188.65H508.011V190.6H491.991V188.65ZM500.001 191.8C503.901 191.8 506.481 193.51 506.481 196.27C506.481 199 503.901 200.68 500.001 200.68C496.041 200.68 493.491 199 493.491 196.27C493.491 193.51 496.041 191.8 500.001 191.8ZM500.001 193.63C497.481 193.63 495.861 194.65 495.861 196.27C495.861 197.86 497.481 198.88 500.001 198.88C502.491 198.88 504.111 197.86 504.111 196.27C504.111 194.65 502.491 193.63 500.001 193.63ZM498.741 185.92H501.231V190H498.741V185.92ZM543.476 186.79H545.786V211.99H543.476V186.79ZM544.826 197.26H549.836V199.3H544.826V197.26ZM528.746 204.22H529.826C530.876 204.22 532.646 204.19 534.746 203.68L534.956 205.75C532.706 206.29 530.966 206.29 529.826 206.29H528.746V204.22ZM528.746 189.61H534.536V191.65H531.056V205.39H528.746V189.61ZM535.706 204.22H536.846C538.286 204.22 540.176 204.16 542.246 203.59L542.486 205.66C540.266 206.26 538.406 206.29 536.846 206.29H535.706V204.22ZM535.706 189.61H541.676V191.65H537.986V205.3H535.706V189.61ZM548.966 186.22H551.336V213.34H548.966V186.22ZM582.331 186.19H584.851V213.37H582.331V186.19ZM584.251 196.9H589.291V199H584.251V196.9ZM565.141 204.52H567.271C572.281 204.52 575.791 204.34 579.841 203.59L580.111 205.69C575.941 206.47 572.371 206.62 567.271 206.62H565.141V204.52ZM565.141 188.83H577.741V190.87H567.601V205.45H565.141V188.83ZM603.839 186.82C609.689 186.82 613.379 188.74 613.379 191.95C613.379 195.16 609.689 197.05 603.839 197.05C597.959 197.05 594.299 195.16 594.299 191.95C594.299 188.74 597.959 186.82 603.839 186.82ZM603.839 188.8C599.519 188.8 596.849 189.94 596.849 191.95C596.849 193.93 599.519 195.1 603.839 195.1C608.129 195.1 610.829 193.93 610.829 191.95C610.829 189.94 608.129 188.8 603.839 188.8ZM594.569 204.04H613.079V212.98H594.569V204.04ZM610.649 206.05H597.029V210.97H610.649V206.05ZM591.569 199.39H616.079V201.4H591.569V199.39ZM620.396 189.19H632.666V191.2H620.396V189.19ZM624.626 196.93H627.086V206.11H624.626V196.93ZM631.646 189.19H634.076V190.63C634.076 192.85 634.076 196.39 633.296 201.43L630.836 201.19C631.646 196.3 631.646 192.82 631.646 190.63V189.19ZM637.496 186.22H639.956V213.34H637.496V186.22ZM639.296 197.56H644.306V199.66H639.296V197.56ZM619.196 207.43L618.896 205.33C623.816 205.33 630.356 205.24 635.846 204.55L635.966 206.38C630.356 207.28 623.996 207.4 619.196 207.43ZM673.771 186.22H676.261V200.71H673.771V186.22ZM675.571 192.49H680.281V194.56H675.571V192.49ZM666.271 188.11H669.031C669.031 194.95 664.261 199.39 656.311 201.22L655.321 199.21C662.461 197.62 666.271 193.99 666.271 189.46V188.11ZM656.431 188.11H667.711V190.15H656.431V188.11ZM659.191 201.94H676.411V203.83H661.651V212.05H659.191V201.94ZM659.191 211.09H677.011V212.98H659.191V211.09ZM660.811 206.47H676.081V208.3H660.811V206.47ZM682.799 200.47H707.309V202.51H682.799V200.47ZM685.979 210.7H704.609V212.74H685.979V210.7ZM685.979 204.88H688.469V211.33H685.979V204.88ZM695.069 187.12C700.859 187.12 704.609 189.16 704.609 192.55C704.609 195.91 700.859 197.95 695.069 197.95C689.249 197.95 685.529 195.91 685.529 192.55C685.529 189.16 689.249 187.12 695.069 187.12ZM695.069 189.16C690.809 189.16 688.079 190.42 688.079 192.55C688.079 194.68 690.809 195.94 695.069 195.94C699.329 195.94 702.059 194.68 702.059 192.55C702.059 190.42 699.329 189.16 695.069 189.16ZM739.474 186.22H741.874V213.34H739.474V186.22ZM734.884 197.08H740.104V199.15H734.884V197.08ZM733.324 186.82H735.664V211.96H733.324V186.82ZM719.824 204.58H721.594C725.554 204.58 728.254 204.43 731.404 203.77L731.644 205.84C728.404 206.53 725.674 206.65 721.594 206.65H719.824V204.58ZM719.824 189.52H729.904V191.56H722.284V205.51H719.824V189.52ZM753.482 202.39H755.972V206.8H753.482V202.39ZM764.882 186.22H767.372V213.34H764.882V186.22ZM766.562 197.74H771.572V199.84H766.562V197.74ZM746.492 208.18L746.132 206.11C750.992 206.11 757.622 206.05 763.232 205.24L763.442 207.1C757.592 208.15 751.232 208.18 746.492 208.18ZM746.582 189.49H762.812V191.5H746.582V189.49ZM754.712 193.09C758.492 193.09 761.102 195.07 761.102 198.1C761.102 201.16 758.492 203.11 754.712 203.11C750.932 203.11 748.352 201.16 748.352 198.1C748.352 195.07 750.932 193.09 754.712 193.09ZM754.712 195.01C752.282 195.01 750.692 196.24 750.692 198.1C750.692 199.96 752.282 201.19 754.712 201.19C757.142 201.19 758.762 199.96 758.762 198.1C758.762 196.24 757.142 195.01 754.712 195.01ZM753.482 186.25H755.972V190.84H753.482V186.25ZM774.03 198.82H798.63V200.71H774.03V198.82ZM776.94 202.9H795.54V208.69H779.49V211.87H777.03V206.98H793.11V204.67H776.94V202.9ZM777.03 211.21H796.41V213.01H777.03V211.21ZM777.15 187H795.45V192.64H779.67V195.58H777.21V190.96H793.02V188.77H777.15V187ZM777.21 194.98H795.96V196.78H777.21V194.98ZM810.095 198.97H834.605V201.01H810.095V198.97ZM813.245 194.05H831.785V196.09H813.245V194.05ZM813.245 187.06H831.485V189.1H815.735V195.25H813.245V187.06ZM813.155 210.94H831.905V212.98H813.155V210.94ZM813.155 203.92H831.635V205.93H815.645V212.11H813.155V203.92ZM840.992 194.35H859.412V196.39H840.992V194.35ZM837.662 200.02H862.262V202.06H837.662V200.02ZM840.992 187.21H843.452V195.37H840.992V187.21ZM840.812 210.64H859.562V212.68H840.812V210.64ZM840.812 204.76H843.272V211.18H840.812V204.76ZM893.528 186.22H896.018V204.58H893.528V186.22ZM887.708 193.87H894.038V195.91H887.708V193.87ZM885.008 188.35H887.618C887.618 195.37 882.998 200.35 875.228 202.87L874.178 200.89C881.048 198.73 885.008 194.65 885.008 189.34V188.35ZM875.468 188.35H886.778V190.39H875.468V188.35ZM886.028 202.24H888.158V203.47C888.158 208.66 883.418 212.17 877.988 213.28L876.998 211.3C881.798 210.43 886.028 207.43 886.028 203.47V202.24ZM886.388 202.24H888.518V203.47C888.518 207.37 892.688 210.37 897.518 211.24L896.468 213.22C891.068 212.14 886.388 208.63 886.388 203.47V202.24ZM921.005 186.19H923.495V213.37H921.005V186.19ZM909.185 188.29C913.205 188.29 916.085 191.98 916.085 197.74C916.085 203.53 913.205 207.22 909.185 207.22C905.195 207.22 902.315 203.53 902.315 197.74C902.315 191.98 905.195 188.29 909.185 188.29ZM909.185 190.54C906.545 190.54 904.685 193.36 904.685 197.74C904.685 202.15 906.545 205.03 909.185 205.03C911.855 205.03 913.685 202.15 913.685 197.74C913.685 193.36 911.855 190.54 909.185 190.54ZM948.37 200.92H950.8V205H948.37V200.92ZM937.33 199.6H961.84V201.61H937.33V199.6ZM948.37 186.13H950.83V189.79H948.37V186.13ZM948.25 190.09H950.44V190.54C950.44 194.98 945.46 197.56 939.52 198.16L938.77 196.24C944.02 195.79 948.25 193.63 948.25 190.54V190.09ZM948.76 190.09H950.95V190.54C950.95 193.63 955.18 195.79 960.43 196.24L959.68 198.16C953.74 197.56 948.76 194.98 948.76 190.54V190.09ZM939.85 188.86H959.35V190.84H939.85V188.86ZM949.57 204.31C955.42 204.31 958.87 205.9 958.87 208.81C958.87 211.72 955.42 213.28 949.57 213.28C943.72 213.28 940.27 211.72 940.27 208.81C940.27 205.9 943.72 204.31 949.57 204.31ZM949.57 206.2C945.28 206.2 942.79 207.1 942.79 208.81C942.79 210.46 945.28 211.39 949.57 211.39C953.86 211.39 956.35 210.46 956.35 208.81C956.35 207.1 953.86 206.2 949.57 206.2ZM964.928 200.53H989.498V202.57H964.928V200.53ZM976.148 201.55H978.638V207.79H976.148V201.55ZM968.048 210.7H986.768V212.74H968.048V210.7ZM968.048 205.39H970.508V211.48H968.048V205.39ZM968.198 187.06H970.658V190.51H983.768V187.06H986.258V197.92H968.198V187.06ZM970.658 192.46V195.91H983.768V192.46H970.658ZM1013.02 186.25H1015.39V203.02H1013.02V186.25ZM1008.61 193.66H1013.74V195.7H1008.61V193.66ZM1007.26 186.64H1009.63V202.63H1007.26V186.64ZM992.406 189.31H1006.15V191.29H992.406V189.31ZM999.306 192.64C1002.7 192.64 1005.07 194.47 1005.07 197.29C1005.07 200.11 1002.7 201.94 999.306 201.94C995.886 201.94 993.516 200.11 993.516 197.29C993.516 194.47 995.886 192.64 999.306 192.64ZM999.306 194.53C997.176 194.53 995.736 195.61 995.736 197.29C995.736 198.97 997.176 200.08 999.306 200.08C1001.41 200.08 1002.85 198.97 1002.85 197.29C1002.85 195.61 1001.41 194.53 999.306 194.53ZM998.076 186.34H1000.51V190.48H998.076V186.34ZM999.696 203.83H1001.62V204.76C1001.62 208.18 999.366 211.6 995.436 213.01L994.266 211.15C997.656 210.01 999.696 207.22 999.696 204.76V203.83ZM1000.27 203.83H1002.1V204.76C1002.1 207.37 1003.69 210.13 1006.93 211.36L1005.88 213.25C1002.01 211.81 1000.27 208.21 1000.27 204.76V203.83ZM1009.66 203.83H1011.49V204.76C1011.49 207.82 1009.72 211.69 1005.88 213.25L1004.86 211.36C1008.01 209.98 1009.66 207.01 1009.66 204.76V203.83ZM1010.17 203.83H1012.09V204.76C1012.09 207.4 1014.13 210.07 1017.55 211.15L1016.35 213.01C1012.39 211.66 1010.17 208.36 1010.17 204.76V203.83ZM1032.39 186.67C1038.36 186.67 1041.93 188.35 1041.93 191.38C1041.93 194.41 1038.36 196.09 1032.39 196.09C1026.39 196.09 1022.85 194.41 1022.85 191.38C1022.85 188.35 1026.39 186.67 1032.39 186.67ZM1032.39 188.56C1027.95 188.56 1025.4 189.58 1025.4 191.38C1025.4 193.18 1027.95 194.2 1032.39 194.2C1036.8 194.2 1039.35 193.18 1039.35 191.38C1039.35 189.58 1036.8 188.56 1032.39 188.56ZM1020.12 197.89H1044.63V199.9H1020.12V197.89ZM1023.09 202.21H1041.51V208.33H1025.61V211.63H1023.15V206.53H1039.05V204.13H1023.09V202.21ZM1023.15 211.09H1042.32V213.04H1023.15V211.09ZM1066.56 186.22H1069.02V213.34H1066.56V186.22ZM1068.24 197.38H1073.07V199.48H1068.24V197.38ZM1053.57 189.13H1055.85C1055.85 195.67 1054.47 202 1049.61 207.25L1047.6 205.84C1052.07 201.19 1053.57 195.55 1053.57 189.4V189.13ZM1048.47 189.13H1054.5V191.2H1048.47V189.13ZM1060.95 189.13H1063.26C1063.26 195.7 1062.33 203.14 1057.35 209.05L1055.34 207.67C1059.93 202.36 1060.95 195.64 1060.95 189.37V189.13ZM1056.72 189.13H1061.97V191.2H1056.72V189.13ZM1081.35 200.17H1083.81V208.3H1081.35V200.17ZM1091.37 200.17H1093.86V208.3H1091.37V200.17ZM1075.35 207.82H1099.92V209.89H1075.35V207.82ZM1087.59 187.93C1093.32 187.93 1097.43 190.66 1097.43 194.92C1097.43 199.15 1093.32 201.88 1087.59 201.88C1081.83 201.88 1077.72 199.15 1077.72 194.92C1077.72 190.66 1081.83 187.93 1087.59 187.93ZM1087.59 189.91C1083.24 189.91 1080.12 191.89 1080.12 194.92C1080.12 197.92 1083.24 199.9 1087.59 199.9C1091.94 199.9 1095.03 197.92 1095.03 194.92C1095.03 191.89 1091.94 189.91 1087.59 189.91ZM1107.03 204.864V204.736C1107.04 203.379 1107.18 202.3 1107.45 201.497C1107.72 200.695 1108.11 200.045 1108.61 199.548C1109.1 199.05 1109.7 198.592 1110.4 198.173C1110.81 197.918 1111.19 197.616 1111.52 197.268C1111.86 196.913 1112.12 196.504 1112.31 196.043C1112.51 195.581 1112.61 195.07 1112.61 194.509C1112.61 193.812 1112.45 193.209 1112.12 192.697C1111.79 192.186 1111.36 191.792 1110.81 191.515C1110.26 191.238 1109.66 191.099 1108.99 191.099C1108.41 191.099 1107.85 191.22 1107.31 191.462C1106.77 191.703 1106.31 192.083 1105.95 192.602C1105.59 193.12 1105.38 193.798 1105.32 194.636H1102.64C1102.7 193.429 1103.01 192.396 1103.58 191.536C1104.15 190.677 1104.91 190.02 1105.85 189.565C1106.79 189.111 1107.84 188.884 1108.99 188.884C1110.24 188.884 1111.33 189.132 1112.25 189.629C1113.18 190.126 1113.9 190.808 1114.4 191.675C1114.91 192.541 1115.17 193.528 1115.17 194.636C1115.17 195.418 1115.05 196.124 1114.81 196.756C1114.57 197.388 1114.23 197.953 1113.78 198.45C1113.34 198.947 1112.81 199.388 1112.18 199.771C1111.56 200.162 1111.06 200.574 1110.68 201.007C1110.31 201.433 1110.03 201.941 1109.86 202.531C1109.69 203.12 1109.6 203.855 1109.59 204.736V204.864H1107.03ZM1108.39 211.17C1107.87 211.17 1107.42 210.982 1107.04 210.606C1106.66 210.229 1106.47 209.778 1106.47 209.253C1106.47 208.727 1106.66 208.276 1107.04 207.9C1107.42 207.523 1107.87 207.335 1108.39 207.335C1108.92 207.335 1109.37 207.523 1109.75 207.9C1110.12 208.276 1110.31 208.727 1110.31 209.253C1110.31 209.601 1110.22 209.92 1110.04 210.212C1109.87 210.503 1109.64 210.737 1109.35 210.915C1109.07 211.085 1108.75 211.17 1108.39 211.17ZM405.441 260.83H407.481V263.08C407.481 268.06 404.511 272.2 399.921 273.85L398.661 271.87C402.741 270.46 405.441 266.95 405.441 263.08V260.83ZM405.891 260.83H407.931V263.05C407.931 266.65 410.541 269.89 414.531 271.24L413.331 273.22C408.801 271.69 405.891 267.7 405.891 263.05V260.83ZM399.381 260.11H413.901V262.12H399.381V260.11ZM417.351 258.22H419.841V274.18H417.351V258.22ZM419.151 264.97H423.861V267.04H419.151V264.97ZM402.801 275.41H419.841V284.98H402.801V275.41ZM417.411 277.39H405.231V282.97H417.411V277.39ZM433.548 260.56H435.588V265.42C435.588 271.66 432.228 277.45 427.788 279.7L426.258 277.66C430.278 275.74 433.548 270.55 433.548 265.42V260.56ZM433.968 260.56H436.008V265.42C436.008 270.37 439.248 275.35 443.268 277.21L441.768 279.19C437.358 277.03 433.968 271.45 433.968 265.42V260.56ZM446.088 258.19H448.578V285.37H446.088V258.19ZM465.083 261.1H482.543V263.11H465.083V261.1ZM462.443 279.31H486.953V281.38H462.443V279.31ZM481.223 261.1H483.653V263.8C483.653 267.28 483.653 271.15 482.633 277L480.143 276.76C481.223 271.21 481.223 267.16 481.223 263.8V261.1ZM490.041 269.53H514.551V271.57H490.041V269.53ZM493.281 265.33H511.641V267.34H493.281V265.33ZM493.281 259.09H511.341V261.13H495.741V266.95H493.281V259.09ZM492.981 273.91H511.401V280.3H495.501V283.72H493.041V278.44H508.941V275.86H492.981V273.91ZM493.041 283.06H512.211V285.04H493.041V283.06ZM526.429 260.17C530.659 260.17 533.689 262.78 533.689 266.56C533.689 270.37 530.659 272.98 526.429 272.98C522.199 272.98 519.139 270.37 519.139 266.56C519.139 262.78 522.199 260.17 526.429 260.17ZM526.429 262.33C523.609 262.33 521.569 264.04 521.569 266.56C521.569 269.08 523.609 270.82 526.429 270.82C529.219 270.82 531.259 269.08 531.259 266.56C531.259 264.04 529.219 262.33 526.429 262.33ZM537.229 258.19H539.719V285.37H537.229V258.19ZM518.119 279.43L517.759 277.36C522.709 277.36 529.549 277.33 535.459 276.4L535.669 278.23C529.579 279.4 522.949 279.43 518.119 279.43ZM573.384 258.22H575.904V272.77H573.384V258.22ZM558.414 274.12H560.874V277.42H573.444V274.12H575.904V284.98H558.414V274.12ZM560.874 279.4V282.97H573.444V279.4H560.874ZM561.354 259.51C565.464 259.51 568.404 262.06 568.404 265.75C568.404 269.47 565.464 272.02 561.354 272.02C557.244 272.02 554.274 269.47 554.274 265.75C554.274 262.06 557.244 259.51 561.354 259.51ZM561.354 261.58C558.654 261.58 556.704 263.29 556.704 265.75C556.704 268.21 558.654 269.92 561.354 269.92C564.054 269.92 566.004 268.21 566.004 265.75C566.004 263.29 564.054 261.58 561.354 261.58ZM587.931 261.13H589.971V263.32C589.971 268.3 586.971 272.47 582.411 274.12L581.151 272.14C585.231 270.7 587.931 267.19 587.931 263.32V261.13ZM588.381 261.13H590.421V263.29C590.421 266.83 593.001 270.01 596.991 271.33L595.791 273.28C591.261 271.78 588.381 267.91 588.381 263.29V261.13ZM581.901 260.23H596.391V262.27H581.901V260.23ZM599.811 258.22H602.301V274.57H599.811V258.22ZM601.611 265.09H606.321V267.19H601.611V265.09ZM593.661 275.29C599.181 275.29 602.571 277.12 602.571 280.27C602.571 283.45 599.181 285.28 593.661 285.28C588.141 285.28 584.751 283.45 584.751 280.27C584.751 277.12 588.141 275.29 593.661 275.29ZM593.661 277.3C589.641 277.3 587.181 278.38 587.181 280.27C587.181 282.19 589.641 283.33 593.661 283.33C597.681 283.33 600.141 282.19 600.141 280.27C600.141 278.38 597.681 277.3 593.661 277.3ZM619.849 268.75H624.979V270.82H619.849V268.75ZM629.509 258.22H631.909V285.34H629.509V258.22ZM624.139 258.79H626.509V283.99H624.139V258.79ZM614.959 260.47C618.469 260.47 620.749 264.1 620.749 269.92C620.749 275.74 618.469 279.37 614.959 279.37C611.449 279.37 609.199 275.74 609.199 269.92C609.199 264.1 611.449 260.47 614.959 260.47ZM614.959 262.78C612.829 262.78 611.479 265.54 611.479 269.92C611.479 274.3 612.829 277.06 614.959 277.06C617.119 277.06 618.469 274.3 618.469 269.92C618.469 265.54 617.119 262.78 614.959 262.78ZM649.997 267.4H657.557V269.44H649.997V267.4ZM643.457 260.56H645.497V265.39C645.497 271.48 642.287 277.3 637.997 279.61L636.407 277.63C640.397 275.65 643.457 270.43 643.457 265.39V260.56ZM643.937 260.56H645.947V265.39C645.947 270.34 649.007 275.26 652.937 277.12L651.467 279.13C647.087 276.91 643.937 271.33 643.937 265.39V260.56ZM656.327 258.19H658.787V285.37H656.327V258.19ZM679.072 259.63H681.142V262.39C681.142 267.61 678.202 271.93 673.672 273.7L672.352 271.69C676.432 270.19 679.072 266.53 679.072 262.39V259.63ZM679.522 259.63H681.562V262.57C681.562 266.23 684.262 269.62 688.162 270.97L686.842 272.92C682.492 271.3 679.522 267.28 679.522 262.57V259.63ZM691.042 258.22H693.532V274.66H691.042V258.22ZM692.842 265.21H697.552V267.31H692.842V265.21ZM684.892 275.41C690.442 275.41 693.802 277.24 693.802 280.36C693.802 283.48 690.442 285.28 684.892 285.28C679.342 285.28 675.982 283.48 675.982 280.36C675.982 277.24 679.342 275.41 684.892 275.41ZM684.892 277.39C680.872 277.39 678.412 278.47 678.412 280.36C678.412 282.25 680.872 283.33 684.892 283.33C688.912 283.33 691.372 282.25 691.372 280.36C691.372 278.47 688.912 277.39 684.892 277.39ZM706.67 259.63H708.74V262.39C708.74 267.61 705.8 271.93 701.27 273.7L699.95 271.69C704.03 270.19 706.67 266.53 706.67 262.39V259.63ZM707.12 259.63H709.16V262.57C709.16 266.23 711.86 269.62 715.76 270.97L714.44 272.92C710.09 271.3 707.12 267.28 707.12 262.57V259.63ZM718.64 258.22H721.13V274.66H718.64V258.22ZM720.44 265.21H725.15V267.31H720.44V265.21ZM712.49 275.41C718.04 275.41 721.4 277.24 721.4 280.36C721.4 283.48 718.04 285.28 712.49 285.28C706.94 285.28 703.58 283.48 703.58 280.36C703.58 277.24 706.94 275.41 712.49 275.41ZM712.49 277.39C708.47 277.39 706.01 278.47 706.01 280.36C706.01 282.25 708.47 283.33 712.49 283.33C716.51 283.33 718.97 282.25 718.97 280.36C718.97 278.47 716.51 277.39 712.49 277.39ZM736.135 279.82H760.705V281.89H736.135V279.82ZM747.115 273.34H749.605V280.42H747.115V273.34ZM739.015 260.14H741.475V264.97H755.305V260.14H757.765V274H739.015V260.14ZM741.475 266.98V271.96H755.305V266.98H741.475ZM774.412 267.91H779.602V269.98H774.412V267.91ZM769.342 260.77H771.292V265.93C771.292 271.6 768.922 277.09 764.962 279.52L763.402 277.63C767.122 275.44 769.342 270.58 769.342 265.93V260.77ZM769.822 260.77H771.742V265.84C771.742 270.19 773.782 274.81 777.352 276.97L775.912 278.92C772.012 276.52 769.822 271.12 769.822 265.84V260.77ZM784.372 258.22H786.772V285.34H784.372V258.22ZM778.882 258.79H781.222V283.99H778.882V258.79ZM797.33 272.17H799.79V280.3H797.33V272.17ZM807.35 272.17H809.84V280.3H807.35V272.17ZM791.33 279.82H815.9V281.89H791.33V279.82ZM803.57 259.93C809.3 259.93 813.41 262.66 813.41 266.92C813.41 271.15 809.3 273.88 803.57 273.88C797.81 273.88 793.7 271.15 793.7 266.92C793.7 262.66 797.81 259.93 803.57 259.93ZM803.57 261.91C799.22 261.91 796.1 263.89 796.1 266.92C796.1 269.92 799.22 271.9 803.57 271.9C807.92 271.9 811.01 269.92 811.01 266.92C811.01 263.89 807.92 261.91 803.57 261.91ZM821.561 283.17C821.036 283.17 820.585 282.982 820.208 282.606C819.832 282.229 819.644 281.778 819.644 281.253C819.644 280.727 819.832 280.276 820.208 279.9C820.585 279.523 821.036 279.335 821.561 279.335C822.087 279.335 822.538 279.523 822.914 279.9C823.291 280.276 823.479 280.727 823.479 281.253C823.479 281.601 823.39 281.92 823.213 282.212C823.042 282.503 822.811 282.737 822.52 282.915C822.236 283.085 821.916 283.17 821.561 283.17Z" fill="black"/>
<defs>
<filter id="filter0_di_118_109" x="9" y="13.0166" width="1205" height="370.096" filterUnits="userSpaceOnUse" color-interpolation-filters="sRGB">
<feFlood flood-opacity="0" result="BackgroundImageFix"/>
<feColorMatrix in="SourceAlpha" type="matrix" values="0 0 0 0 0 0 0 0 0 0 0 0 0 0 0 0 0 0 127 0" result="hardAlpha"/>
<feOffset dy="4"/>
<feGaussianBlur stdDeviation="2"/>
<feComposite in2="hardAlpha" operator="out"/>
<feColorMatrix type="matrix" values="0 0 0 0 0 0 0 0 0 0 0 0 0 0 0 0 0 0 0.25 0"/>
<feBlend mode="normal" in2="BackgroundImageFix" result="effect1_dropShadow_118_109"/>
<feBlend mode="normal" in="SourceGraphic" in2="effect1_dropShadow_118_109" result="shape"/>
<feColorMatrix in="SourceAlpha" type="matrix" values="0 0 0 0 0 0 0 0 0 0 0 0 0 0 0 0 0 0 127 0" result="hardAlpha"/>
<feOffset dy="4"/>
<feGaussianBlur stdDeviation="2"/>
<feComposite in2="hardAlpha" operator="arithmetic" k2="-1" k3="1"/>
<feColorMatrix type="matrix" values="0 0 0 0 0 0 0 0 0 0 0 0 0 0 0 0 0 0 0.25 0"/>
<feBlend mode="normal" in2="shape" result="effect2_innerShadow_118_109"/>
</filter>
<filter id="filter1_di_118_109" x="40" y="35.4999" width="1142" height="321.58" filterUnits="userSpaceOnUse" color-interpolation-filters="sRGB">
<feFlood flood-opacity="0" result="BackgroundImageFix"/>
<feColorMatrix in="SourceAlpha" type="matrix" values="0 0 0 0 0 0 0 0 0 0 0 0 0 0 0 0 0 0 127 0" result="hardAlpha"/>
<feOffset dy="4"/>
<feGaussianBlur stdDeviation="2"/>
<feComposite in2="hardAlpha" operator="out"/>
<feColorMatrix type="matrix" values="0 0 0 0 0 0 0 0 0 0 0 0 0 0 0 0 0 0 0.25 0"/>
<feBlend mode="normal" in2="BackgroundImageFix" result="effect1_dropShadow_118_109"/>
<feBlend mode="normal" in="SourceGraphic" in2="effect1_dropShadow_118_109" result="shape"/>
<feColorMatrix in="SourceAlpha" type="matrix" values="0 0 0 0 0 0 0 0 0 0 0 0 0 0 0 0 0 0 127 0" result="hardAlpha"/>
<feOffset dy="4"/>
<feGaussianBlur stdDeviation="2"/>
<feComposite in2="hardAlpha" operator="arithmetic" k2="-1" k3="1"/>
<feColorMatrix type="matrix" values="0 0 0 0 0 0 0 0 0 0 0 0 0 0 0 0 0 0 0.25 0"/>
<feBlend mode="normal" in2="shape" result="effect2_innerShadow_118_109"/>
</filter>
</defs>
</svg>
