<svg width="1223" height="242" viewBox="0 0 1223 242" fill="none" xmlns="http://www.w3.org/2000/svg">
<rect width="1223" height="242" fill="#FFD0C5"/>
<g filter="url(#filter0_di_118_116)">
<rect x="13" y="7.875" width="1197" height="219.068" fill="#FFB5A4"/>
</g>
<g filter="url(#filter1_di_118_116)">
<rect width="1134" height="189.716" transform="matrix(1 0 0 -1 44 211.193)" fill="#FFD0C5"/>
</g>
<path d="M338.306 89.22H340.796V105.33H338.306V89.22ZM340.076 96.27H344.786V98.34H340.076V96.27ZM332.126 105.9C337.616 105.9 341.036 107.85 341.036 111.12C341.036 114.39 337.616 116.31 332.126 116.31C326.636 116.31 323.216 114.39 323.216 111.12C323.216 107.85 326.636 105.9 332.126 105.9ZM332.126 107.94C328.106 107.94 325.646 109.08 325.646 111.12C325.646 113.1 328.106 114.27 332.126 114.27C336.146 114.27 338.606 113.1 338.606 111.12C338.606 109.08 336.146 107.94 332.126 107.94ZM320.936 101.16H323.036C328.646 101.16 331.796 100.98 335.426 100.23L335.726 102.27C331.976 103.02 328.766 103.2 323.036 103.2H320.936V101.16ZM320.936 91.29H332.906V93.33H323.396V102.48H320.936V91.29ZM367.044 89.25H369.564V109.11H367.044V89.25ZM352.134 113.7H370.374V115.74H352.134V113.7ZM352.134 107.28H354.594V114.66H352.134V107.28ZM354.384 90.72H356.454V93.48C356.454 98.76 353.454 103.38 348.894 105.24L347.604 103.23C351.684 101.64 354.384 97.68 354.384 93.48V90.72ZM354.834 90.72H356.874V93.48C356.874 97.56 359.604 101.25 363.654 102.72L362.334 104.73C357.834 102.99 354.834 98.64 354.834 93.48V90.72ZM374.902 103.47H399.412V105.51H374.902V103.47ZM378.082 113.7H396.712V115.74H378.082V113.7ZM378.082 107.88H380.572V114.33H378.082V107.88ZM387.172 90.12C392.962 90.12 396.712 92.16 396.712 95.55C396.712 98.91 392.962 100.95 387.172 100.95C381.352 100.95 377.632 98.91 377.632 95.55C377.632 92.16 381.352 90.12 387.172 90.12ZM387.172 92.16C382.912 92.16 380.182 93.42 380.182 95.55C380.182 97.68 382.912 98.94 387.172 98.94C391.432 98.94 394.162 97.68 394.162 95.55C394.162 93.42 391.432 92.16 387.172 92.16ZM431.127 100.02H436.137V102.12H431.127V100.02ZM429.297 89.19H431.817V116.34H429.297V89.19ZM412.017 91.86H414.507V108.66H412.017V91.86ZM412.017 107.37H414.177C418.197 107.37 422.307 107.1 426.777 106.17L427.077 108.24C422.457 109.2 418.287 109.47 414.177 109.47H412.017V107.37ZM439.434 107.61H441.234C444.534 107.61 447.594 107.49 451.314 106.86L451.524 108.9C447.714 109.56 444.654 109.68 441.234 109.68H439.434V107.61ZM439.374 92.19H449.064V101.64H441.864V108.45H439.434V99.63H446.664V94.23H439.374V92.19ZM459.174 89.22H461.574V116.34H459.174V89.22ZM450.354 98.94H454.734V101.01H450.354V98.94ZM453.714 89.88H456.024V114.93H453.714V89.88ZM485.842 89.19H488.332V116.37H485.842V89.19ZM474.022 91.29C478.042 91.29 480.922 94.98 480.922 100.74C480.922 106.53 478.042 110.22 474.022 110.22C470.032 110.22 467.152 106.53 467.152 100.74C467.152 94.98 470.032 91.29 474.022 91.29ZM474.022 93.54C471.382 93.54 469.522 96.36 469.522 100.74C469.522 105.15 471.382 108.03 474.022 108.03C476.692 108.03 478.522 105.15 478.522 100.74C478.522 96.36 476.692 93.54 474.022 93.54ZM508.13 93.21H514.22V95.28H508.13V93.21ZM508.13 98.79H514.22V100.83H508.13V98.79ZM500.54 90.75H502.55V94.2C502.55 99.51 499.64 104.04 495.11 105.87L493.79 103.89C497.84 102.33 500.54 98.46 500.54 94.2V90.75ZM500.99 90.75H503.03V94.2C503.03 98.16 505.64 101.91 509.57 103.47L508.19 105.42C503.9 103.62 500.99 99.24 500.99 94.2V90.75ZM513.56 89.25H516.05V109.47H513.56V89.25ZM498.62 113.7H516.71V115.74H498.62V113.7ZM498.62 107.43H501.11V114.81H498.62V107.43ZM533.597 90.93C539.237 90.93 543.437 93.93 543.437 98.43C543.437 102.96 539.237 105.93 533.597 105.93C527.957 105.93 523.727 102.96 523.727 98.43C523.727 93.93 527.957 90.93 533.597 90.93ZM533.597 92.97C529.307 92.97 526.127 95.16 526.127 98.43C526.127 101.67 529.307 103.89 533.597 103.89C537.887 103.89 541.067 101.67 541.067 98.43C541.067 95.16 537.887 92.97 533.597 92.97ZM521.357 110.67H545.927V112.77H521.357V110.67ZM548.955 110.94H573.525V113.01H548.955V110.94ZM559.935 105.12H562.425V111.81H559.935V105.12ZM551.925 91.23H570.495V99.45H554.475V104.88H552.015V97.44H568.035V93.24H551.925V91.23ZM552.015 103.83H571.125V105.87H552.015V103.83ZM591.65 92.01H593.69V94.2C593.69 99.18 590.69 103.32 586.16 104.94L584.84 102.99C588.95 101.55 591.65 98.07 591.65 94.2V92.01ZM592.1 92.01H594.14V94.17C594.14 97.77 596.75 101.1 600.74 102.45L599.45 104.4C594.98 102.84 592.1 98.85 592.1 94.17V92.01ZM585.62 91.11H600.11V93.15H585.62V91.11ZM603.53 89.22H606.02V105.54H603.53V89.22ZM605.33 96.36H610.04V98.43H605.33V96.36ZM588.41 106.98H606.02V116.34H603.53V109.05H588.41V106.98ZM623.598 103.62H626.058V108.3H623.598V103.62ZM612.558 102.3H637.068V104.34H612.558V102.3ZM614.838 90.06H634.758V92.1H614.838V90.06ZM614.958 97.77H634.638V99.81H614.958V97.77ZM618.948 90.96H621.438V99.09H618.948V90.96ZM628.188 90.96H630.648V99.09H628.188V90.96ZM615.558 107.49H634.068V115.98H615.558V107.49ZM631.638 109.47H618.018V113.97H631.638V109.47ZM652.426 89.67C658.396 89.67 661.966 91.35 661.966 94.38C661.966 97.41 658.396 99.09 652.426 99.09C646.426 99.09 642.886 97.41 642.886 94.38C642.886 91.35 646.426 89.67 652.426 89.67ZM652.426 91.56C647.986 91.56 645.436 92.58 645.436 94.38C645.436 96.18 647.986 97.2 652.426 97.2C656.836 97.2 659.386 96.18 659.386 94.38C659.386 92.58 656.836 91.56 652.426 91.56ZM640.156 100.89H664.666V102.9H640.156V100.89ZM643.126 105.21H661.546V111.33H645.646V114.63H643.186V109.53H659.086V107.13H643.126V105.21ZM643.186 114.09H662.356V116.04H643.186V114.09ZM682.791 90.63H684.861V93.39C684.861 98.61 681.921 102.93 677.391 104.7L676.071 102.69C680.151 101.19 682.791 97.53 682.791 93.39V90.63ZM683.241 90.63H685.281V93.57C685.281 97.23 687.981 100.62 691.881 101.97L690.561 103.92C686.211 102.3 683.241 98.28 683.241 93.57V90.63ZM694.761 89.22H697.251V105.66H694.761V89.22ZM696.561 96.21H701.271V98.31H696.561V96.21ZM688.611 106.41C694.161 106.41 697.521 108.24 697.521 111.36C697.521 114.48 694.161 116.28 688.611 116.28C683.061 116.28 679.701 114.48 679.701 111.36C679.701 108.24 683.061 106.41 688.611 106.41ZM688.611 108.39C684.591 108.39 682.131 109.47 682.131 111.36C682.131 113.25 684.591 114.33 688.611 114.33C692.631 114.33 695.091 113.25 695.091 111.36C695.091 109.47 692.631 108.39 688.611 108.39ZM710.388 90.63H712.458V93.39C712.458 98.61 709.518 102.93 704.988 104.7L703.668 102.69C707.748 101.19 710.388 97.53 710.388 93.39V90.63ZM710.838 90.63H712.878V93.57C712.878 97.23 715.578 100.62 719.478 101.97L718.158 103.92C713.808 102.3 710.838 98.28 710.838 93.57V90.63ZM722.358 89.22H724.848V105.66H722.358V89.22ZM724.158 96.21H728.868V98.31H724.158V96.21ZM716.208 106.41C721.758 106.41 725.118 108.24 725.118 111.36C725.118 114.48 721.758 116.28 716.208 116.28C710.658 116.28 707.298 114.48 707.298 111.36C707.298 108.24 710.658 106.41 716.208 106.41ZM716.208 108.39C712.188 108.39 709.728 109.47 709.728 111.36C709.728 113.25 712.188 114.33 716.208 114.33C720.228 114.33 722.688 113.25 722.688 111.36C722.688 109.47 720.228 108.39 716.208 108.39ZM731.356 93.84H744.796V95.88H731.356V93.84ZM738.076 97.68C741.466 97.68 743.926 100.23 743.926 103.89C743.926 107.52 741.466 110.07 738.076 110.07C734.716 110.07 732.256 107.52 732.256 103.89C732.256 100.23 734.716 97.68 738.076 97.68ZM738.076 99.81C736.006 99.81 734.506 101.49 734.506 103.89C734.506 106.29 736.006 107.97 738.076 107.97C740.176 107.97 741.706 106.29 741.706 103.89C741.706 101.49 740.176 99.81 738.076 99.81ZM751.966 89.22H754.366V116.34H751.966V89.22ZM747.646 100.62H752.776V102.69H747.646V100.62ZM746.176 89.82H748.516V115.02H746.176V89.82ZM736.876 90H739.336V95.1H736.876V90ZM759.014 110.82H783.584V112.89H759.014V110.82ZM769.994 104.34H772.484V111.42H769.994V104.34ZM761.894 91.14H764.354V95.97H778.184V91.14H780.644V105H761.894V91.14ZM764.354 97.98V102.96H778.184V97.98H764.354ZM794.171 90.81C798.251 90.81 801.251 93.42 801.251 97.2C801.251 100.98 798.251 103.59 794.171 103.59C790.091 103.59 787.091 100.98 787.091 97.2C787.091 93.42 790.091 90.81 794.171 90.81ZM794.171 92.91C791.471 92.91 789.521 94.65 789.521 97.2C789.521 99.75 791.471 101.49 794.171 101.49C796.871 101.49 798.821 99.75 798.821 97.2C798.821 94.65 796.871 92.91 794.171 92.91ZM805.151 89.22H807.641V104.67H805.151V89.22ZM806.951 95.7H811.661V97.77H806.951V95.7ZM793.091 105.87H795.011V107.34C795.011 110.91 792.821 114.51 788.921 116.01L787.661 114.15C791.081 112.89 793.091 109.95 793.091 107.34V105.87ZM793.631 105.87H795.491V107.34C795.491 110.1 797.081 113.04 800.381 114.36L799.301 116.25C795.371 114.72 793.631 110.97 793.631 107.34V105.87ZM803.111 105.87H804.971V107.34C804.971 110.55 803.201 114.6 799.301 116.25L798.221 114.36C801.491 112.89 803.111 109.71 803.111 107.34V105.87ZM803.591 105.87H805.541V107.34C805.541 110.16 807.521 112.98 810.941 114.15L809.711 116.01C805.751 114.57 803.591 111.12 803.591 107.34V105.87ZM817.299 105.48H819.759V108.63H833.019V105.48H835.509V115.98H817.299V105.48ZM819.759 110.55V113.97H833.019V110.55H819.759ZM814.179 101.58H838.689V103.59H814.179V101.58ZM825.189 89.52H827.319V90.72C827.319 95.43 822.069 98.82 816.489 99.66L815.589 97.71C820.479 97.05 825.189 94.14 825.189 90.72V89.52ZM825.579 89.52H827.709V90.72C827.709 94.08 832.479 97.05 837.309 97.71L836.379 99.66C830.859 98.82 825.579 95.37 825.579 90.72V89.52ZM861.517 89.22H864.007V116.34H861.517V89.22ZM843.517 91.86H845.977V108.66H843.517V91.86ZM843.517 107.19H845.737C849.847 107.19 854.137 106.89 858.727 105.93L859.027 108.06C854.317 109.02 850.027 109.35 845.737 109.35H843.517V107.19ZM887.734 89.19H890.254V116.37H887.734V89.19ZM889.654 99.9H894.694V102H889.654V99.9ZM870.544 107.52H872.674C877.684 107.52 881.194 107.34 885.244 106.59L885.514 108.69C881.344 109.47 877.774 109.62 872.674 109.62H870.544V107.52ZM870.544 91.83H883.144V93.87H873.004V108.45H870.544V91.83ZM899.635 114.17C899.11 114.17 898.659 113.982 898.282 113.606C897.906 113.229 897.718 112.778 897.718 112.253C897.718 111.727 897.906 111.276 898.282 110.9C898.659 110.523 899.11 110.335 899.635 110.335C900.161 110.335 900.612 110.523 900.988 110.9C901.365 111.276 901.553 111.727 901.553 112.253C901.553 112.601 901.464 112.92 901.287 113.212C901.116 113.503 900.885 113.737 900.594 113.915C900.31 114.085 899.991 114.17 899.635 114.17ZM364.022 136.02H369.032V138.12H364.022V136.02ZM362.192 125.19H364.712V152.34H362.192V125.19ZM344.912 127.86H347.402V144.66H344.912V127.86ZM344.912 143.37H347.072C351.092 143.37 355.202 143.1 359.672 142.17L359.972 144.24C355.352 145.2 351.182 145.47 347.072 145.47H344.912V143.37ZM372.33 143.61H374.13C377.43 143.61 380.49 143.49 384.21 142.86L384.42 144.9C380.61 145.56 377.55 145.68 374.13 145.68H372.33V143.61ZM372.27 128.19H381.96V137.64H374.76V144.45H372.33V135.63H379.56V130.23H372.27V128.19ZM392.07 125.22H394.47V152.34H392.07V125.22ZM383.25 134.94H387.63V137.01H383.25V134.94ZM386.61 125.88H388.92V150.93H386.61V125.88ZM418.738 125.19H421.228V152.37H418.738V125.19ZM406.918 127.29C410.938 127.29 413.818 130.98 413.818 136.74C413.818 142.53 410.938 146.22 406.918 146.22C402.928 146.22 400.048 142.53 400.048 136.74C400.048 130.98 402.928 127.29 406.918 127.29ZM406.918 129.54C404.278 129.54 402.418 132.36 402.418 136.74C402.418 141.15 404.278 144.03 406.918 144.03C409.588 144.03 411.418 141.15 411.418 136.74C411.418 132.36 409.588 129.54 406.918 129.54ZM441.025 129.21H447.115V131.28H441.025V129.21ZM441.025 134.79H447.115V136.83H441.025V134.79ZM433.435 126.75H435.445V130.2C435.445 135.51 432.535 140.04 428.005 141.87L426.685 139.89C430.735 138.33 433.435 134.46 433.435 130.2V126.75ZM433.885 126.75H435.925V130.2C435.925 134.16 438.535 137.91 442.465 139.47L441.085 141.42C436.795 139.62 433.885 135.24 433.885 130.2V126.75ZM446.455 125.25H448.945V145.47H446.455V125.25ZM431.515 149.7H449.605V151.74H431.515V149.7ZM431.515 143.43H434.005V150.81H431.515V143.43ZM473.933 125.19H476.423V152.37H473.933V125.19ZM462.113 127.29C466.133 127.29 469.013 130.98 469.013 136.74C469.013 142.53 466.133 146.22 462.113 146.22C458.123 146.22 455.243 142.53 455.243 136.74C455.243 130.98 458.123 127.29 462.113 127.29ZM462.113 129.54C459.473 129.54 457.613 132.36 457.613 136.74C457.613 141.15 459.473 144.03 462.113 144.03C464.783 144.03 466.613 141.15 466.613 136.74C466.613 132.36 464.783 129.54 462.113 129.54ZM504.208 130.11H511.138V132.18H504.208V130.11ZM510.088 125.22H512.578V139.2H510.088V125.22ZM495.118 140.61H512.578V147.09H497.638V151.2H495.208V145.23H510.118V142.59H495.118V140.61ZM495.208 150H513.598V151.98H495.208V150ZM497.038 126.06H499.078V128.61C499.078 133.62 496.078 137.67 491.548 139.29L490.258 137.31C494.338 135.93 497.038 132.54 497.038 128.61V126.06ZM497.458 126.06H499.468V128.61C499.468 132.15 502.198 135.42 506.128 136.71L504.838 138.66C500.458 137.1 497.458 133.2 497.458 128.61V126.06ZM530.816 129.6H538.646V131.64H530.816V129.6ZM530.816 135H538.706V137.01H530.816V135ZM537.686 125.22H540.176V141.27H537.686V125.22ZM519.116 127.26H531.506V139.32H519.116V127.26ZM529.046 129.27H521.546V137.34H529.046V129.27ZM531.266 142.05C536.846 142.05 540.296 143.94 540.296 147.18C540.296 150.42 536.846 152.28 531.266 152.28C525.656 152.28 522.206 150.42 522.206 147.18C522.206 143.94 525.656 142.05 531.266 142.05ZM531.266 144.03C527.186 144.03 524.696 145.2 524.696 147.18C524.696 149.16 527.186 150.33 531.266 150.33C535.346 150.33 537.836 149.16 537.836 147.18C537.836 145.2 535.346 144.03 531.266 144.03ZM564.023 125.25H566.513V145.59H564.023V125.25ZM565.733 134.13H570.533V136.23H565.733V134.13ZM545.543 128.52H561.563V130.53H545.543V128.52ZM553.553 132.03C557.393 132.03 560.033 134.04 560.033 137.1C560.033 140.13 557.393 142.14 553.553 142.14C549.683 142.14 547.043 140.13 547.043 137.1C547.043 134.04 549.683 132.03 553.553 132.03ZM553.553 133.98C551.093 133.98 549.413 135.21 549.413 137.1C549.413 138.96 551.093 140.19 553.553 140.19C555.983 140.19 557.663 138.96 557.663 137.1C557.663 135.21 555.983 133.98 553.553 133.98ZM552.293 125.22H554.783V129.57H552.293V125.22ZM549.623 149.7H567.743V151.74H549.623V149.7ZM549.623 143.97H552.113V150.57H549.623V143.97ZM588.179 128.01H590.219V130.2C590.219 135.18 587.219 139.32 582.689 140.94L581.369 138.99C585.479 137.55 588.179 134.07 588.179 130.2V128.01ZM588.629 128.01H590.669V130.17C590.669 133.77 593.279 137.1 597.269 138.45L595.979 140.4C591.509 138.84 588.629 134.85 588.629 130.17V128.01ZM582.149 127.11H596.639V129.15H582.149V127.11ZM600.059 125.22H602.549V141.54H600.059V125.22ZM601.859 132.36H606.569V134.43H601.859V132.36ZM584.939 142.98H602.549V152.34H600.059V145.05H584.939V142.98ZM620.126 139.62H622.586V144.3H620.126V139.62ZM609.086 138.3H633.596V140.34H609.086V138.3ZM611.366 126.06H631.286V128.1H611.366V126.06ZM611.486 133.77H631.166V135.81H611.486V133.77ZM615.476 126.96H617.966V135.09H615.476V126.96ZM624.716 126.96H627.176V135.09H624.716V126.96ZM612.086 143.49H630.596V151.98H612.086V143.49ZM628.166 145.47H614.546V149.97H628.166V145.47ZM636.684 139.47H661.194V141.51H636.684V139.47ZM639.864 149.7H658.494V151.74H639.864V149.7ZM639.864 143.88H642.354V150.33H639.864V143.88ZM648.954 126.12C654.744 126.12 658.494 128.16 658.494 131.55C658.494 134.91 654.744 136.95 648.954 136.95C643.134 136.95 639.414 134.91 639.414 131.55C639.414 128.16 643.134 126.12 648.954 126.12ZM648.954 128.16C644.694 128.16 641.964 129.42 641.964 131.55C641.964 133.68 644.694 134.94 648.954 134.94C653.214 134.94 655.944 133.68 655.944 131.55C655.944 129.42 653.214 128.16 648.954 128.16ZM672.719 140.97H697.319V143.01H672.719V140.97ZM683.699 142.2H686.159V152.34H683.699V142.2ZM675.839 126.72H694.139V137.31H675.839V126.72ZM691.709 128.73H678.299V135.3H691.709V128.73ZM720.147 125.22H722.637V143.82H720.147V125.22ZM713.667 132.63H720.837V134.67H713.667V132.63ZM707.727 127.05C711.717 127.05 714.717 129.75 714.717 133.62C714.717 137.46 711.717 140.19 707.727 140.19C703.707 140.19 700.737 137.46 700.737 133.62C700.737 129.75 703.707 127.05 707.727 127.05ZM707.727 129.18C705.087 129.18 703.137 131.01 703.137 133.62C703.137 136.2 705.087 138.06 707.727 138.06C710.367 138.06 712.317 136.2 712.317 133.62C712.317 131.01 710.367 129.18 707.727 129.18ZM712.647 141.69H714.777V142.74C714.777 147.63 710.037 151.23 704.517 152.22L703.557 150.24C708.357 149.43 712.647 146.43 712.647 142.74V141.69ZM713.067 141.69H715.197V142.74C715.197 146.52 719.457 149.43 724.317 150.24L723.327 152.22C717.837 151.2 713.067 147.75 713.067 142.74V141.69ZM747.624 125.19H750.114V152.37H747.624V125.19ZM735.804 127.29C739.824 127.29 742.704 130.98 742.704 136.74C742.704 142.53 739.824 146.22 735.804 146.22C731.814 146.22 728.934 142.53 728.934 136.74C728.934 130.98 731.814 127.29 735.804 127.29ZM735.804 129.54C733.164 129.54 731.304 132.36 731.304 136.74C731.304 141.15 733.164 144.03 735.804 144.03C738.474 144.03 740.304 141.15 740.304 136.74C740.304 132.36 738.474 129.54 735.804 129.54ZM762.442 141.75H764.392V143.31C764.392 146.91 762.172 150.51 758.272 152.01L757.012 150.15C760.432 148.89 762.442 145.95 762.442 143.31V141.75ZM763.012 141.75H764.872V143.31C764.872 146.07 766.462 149.04 769.732 150.36L768.682 152.25C764.752 150.72 763.012 146.94 763.012 143.31V141.75ZM772.492 141.75H774.322V143.31C774.322 146.52 772.552 150.6 768.682 152.25L767.602 150.36C770.842 148.86 772.492 145.68 772.492 143.31V141.75ZM772.972 141.75H774.922V143.31C774.922 146.16 776.902 148.98 780.382 150.15L779.092 152.01C775.162 150.57 772.972 147.09 772.972 143.31V141.75ZM768.862 132H776.032V134.07H768.862V132ZM762.922 126.75C766.912 126.75 769.882 129.36 769.882 133.11C769.882 136.83 766.912 139.44 762.922 139.44C758.932 139.44 755.992 136.83 755.992 133.11C755.992 129.36 758.932 126.75 762.922 126.75ZM762.922 128.82C760.282 128.82 758.362 130.62 758.362 133.11C758.362 135.6 760.282 137.37 762.922 137.37C765.532 137.37 767.482 135.6 767.482 133.11C767.482 130.62 765.532 128.82 762.922 128.82ZM775.342 125.22H777.832V140.67H775.342V125.22ZM795.38 125.67C801.35 125.67 804.92 127.35 804.92 130.38C804.92 133.41 801.35 135.09 795.38 135.09C789.38 135.09 785.84 133.41 785.84 130.38C785.84 127.35 789.38 125.67 795.38 125.67ZM795.38 127.56C790.94 127.56 788.39 128.58 788.39 130.38C788.39 132.18 790.94 133.2 795.38 133.2C799.79 133.2 802.34 132.18 802.34 130.38C802.34 128.58 799.79 127.56 795.38 127.56ZM783.11 136.89H807.62V138.9H783.11V136.89ZM786.08 141.21H804.5V147.33H788.6V150.63H786.14V145.53H802.04V143.13H786.08V141.21ZM786.14 150.09H805.31V152.04H786.14V150.09ZM829.547 125.22H832.007V152.34H829.547V125.22ZM831.227 136.38H836.057V138.48H831.227V136.38ZM816.557 128.13H818.837C818.837 134.67 817.457 141 812.597 146.25L810.587 144.84C815.057 140.19 816.557 134.55 816.557 128.4V128.13ZM811.457 128.13H817.487V130.2H811.457V128.13ZM823.937 128.13H826.247C826.247 134.7 825.317 142.14 820.337 148.05L818.327 146.67C822.917 141.36 823.937 134.64 823.937 128.37V128.13ZM819.707 128.13H824.957V130.2H819.707V128.13ZM844.335 139.17H846.795V147.3H844.335V139.17ZM854.355 139.17H856.845V147.3H854.355V139.17ZM838.335 146.82H862.905V148.89H838.335V146.82ZM850.575 126.93C856.305 126.93 860.415 129.66 860.415 133.92C860.415 138.15 856.305 140.88 850.575 140.88C844.815 140.88 840.705 138.15 840.705 133.92C840.705 129.66 844.815 126.93 850.575 126.93ZM850.575 128.91C846.225 128.91 843.105 130.89 843.105 133.92C843.105 136.92 846.225 138.9 850.575 138.9C854.925 138.9 858.015 136.92 858.015 133.92C858.015 130.89 854.925 128.91 850.575 128.91ZM870.015 143.864V143.736C870.029 142.379 870.171 141.3 870.441 140.497C870.711 139.695 871.095 139.045 871.592 138.548C872.089 138.05 872.685 137.592 873.381 137.173C873.801 136.918 874.177 136.616 874.511 136.268C874.845 135.913 875.107 135.504 875.299 135.043C875.498 134.581 875.597 134.07 875.597 133.509C875.597 132.812 875.434 132.209 875.107 131.697C874.781 131.186 874.344 130.792 873.797 130.515C873.25 130.238 872.643 130.099 871.975 130.099C871.393 130.099 870.832 130.22 870.292 130.462C869.752 130.703 869.301 131.083 868.939 131.602C868.577 132.12 868.367 132.798 868.31 133.636H865.626C865.683 132.429 865.995 131.396 866.563 130.536C867.139 129.677 867.895 129.02 868.832 128.565C869.777 128.111 870.825 127.884 871.975 127.884C873.225 127.884 874.312 128.132 875.235 128.629C876.166 129.126 876.883 129.808 877.387 130.675C877.899 131.541 878.154 132.528 878.154 133.636C878.154 134.418 878.033 135.124 877.792 135.756C877.558 136.388 877.217 136.953 876.769 137.45C876.329 137.947 875.796 138.388 875.171 138.771C874.546 139.162 874.046 139.574 873.669 140.007C873.293 140.433 873.019 140.941 872.849 141.531C872.678 142.12 872.586 142.855 872.572 143.736V143.864H870.015ZM871.379 150.17C870.853 150.17 870.402 149.982 870.026 149.606C869.649 149.229 869.461 148.778 869.461 148.253C869.461 147.727 869.649 147.276 870.026 146.9C870.402 146.523 870.853 146.335 871.379 146.335C871.904 146.335 872.355 146.523 872.732 146.9C873.108 147.276 873.296 147.727 873.296 148.253C873.296 148.601 873.207 148.92 873.03 149.212C872.859 149.503 872.629 149.737 872.337 149.915C872.053 150.085 871.734 150.17 871.379 150.17Z" fill="black"/>
<defs>
<filter id="filter0_di_118_116" x="9" y="7.875" width="1205" height="227.068" filterUnits="userSpaceOnUse" color-interpolation-filters="sRGB">
<feFlood flood-opacity="0" result="BackgroundImageFix"/>
<feColorMatrix in="SourceAlpha" type="matrix" values="0 0 0 0 0 0 0 0 0 0 0 0 0 0 0 0 0 0 127 0" result="hardAlpha"/>
<feOffset dy="4"/>
<feGaussianBlur stdDeviation="2"/>
<feComposite in2="hardAlpha" operator="out"/>
<feColorMatrix type="matrix" values="0 0 0 0 0 0 0 0 0 0 0 0 0 0 0 0 0 0 0.25 0"/>
<feBlend mode="normal" in2="BackgroundImageFix" result="effect1_dropShadow_118_116"/>
<feBlend mode="normal" in="SourceGraphic" in2="effect1_dropShadow_118_116" result="shape"/>
<feColorMatrix in="SourceAlpha" type="matrix" values="0 0 0 0 0 0 0 0 0 0 0 0 0 0 0 0 0 0 127 0" result="hardAlpha"/>
<feOffset dy="4"/>
<feGaussianBlur stdDeviation="2"/>
<feComposite in2="hardAlpha" operator="arithmetic" k2="-1" k3="1"/>
<feColorMatrix type="matrix" values="0 0 0 0 0 0 0 0 0 0 0 0 0 0 0 0 0 0 0.25 0"/>
<feBlend mode="normal" in2="shape" result="effect2_innerShadow_118_116"/>
</filter>
<filter id="filter1_di_118_116" x="40" y="21.4774" width="1142" height="197.716" filterUnits="userSpaceOnUse" color-interpolation-filters="sRGB">
<feFlood flood-opacity="0" result="BackgroundImageFix"/>
<feColorMatrix in="SourceAlpha" type="matrix" values="0 0 0 0 0 0 0 0 0 0 0 0 0 0 0 0 0 0 127 0" result="hardAlpha"/>
<feOffset dy="4"/>
<feGaussianBlur stdDeviation="2"/>
<feComposite in2="hardAlpha" operator="out"/>
<feColorMatrix type="matrix" values="0 0 0 0 0 0 0 0 0 0 0 0 0 0 0 0 0 0 0.25 0"/>
<feBlend mode="normal" in2="BackgroundImageFix" result="effect1_dropShadow_118_116"/>
<feBlend mode="normal" in="SourceGraphic" in2="effect1_dropShadow_118_116" result="shape"/>
<feColorMatrix in="SourceAlpha" type="matrix" values="0 0 0 0 0 0 0 0 0 0 0 0 0 0 0 0 0 0 127 0" result="hardAlpha"/>
<feOffset dy="4"/>
<feGaussianBlur stdDeviation="2"/>
<feComposite in2="hardAlpha" operator="arithmetic" k2="-1" k3="1"/>
<feColorMatrix type="matrix" values="0 0 0 0 0 0 0 0 0 0 0 0 0 0 0 0 0 0 0.25 0"/>
<feBlend mode="normal" in2="shape" result="effect2_innerShadow_118_116"/>
</filter>
</defs>
</svg>
