<svg width="1516" height="253" viewBox="0 0 1516 253" fill="none" xmlns="http://www.w3.org/2000/svg">
<rect x="16" y="11" width="1500" height="242" fill="#FFD0C5"/>
<g filter="url(#filter0_di_119_25)">
<rect x="31.9453" y="18.875" width="1468.11" height="219.068" fill="#FFB5A4"/>
</g>
<g filter="url(#filter1_di_119_25)">
<rect width="1390.84" height="189.716" transform="matrix(1 0 0 -1 69.9648 222.193)" fill="#FFD0C5"/>
</g>
<path d="M135.186 82.19H137.706V109.37H135.186V82.19ZM137.106 92.9H142.146V95H137.106V92.9ZM117.996 100.52H120.126C125.136 100.52 128.646 100.34 132.696 99.59L132.966 101.69C128.796 102.47 125.226 102.62 120.126 102.62H117.996V100.52ZM117.996 84.83H130.596V86.87H120.456V101.45H117.996V84.83ZM144.424 97.25H169.024V99.26H144.424V97.25ZM147.664 106.7H166.444V108.74H147.664V106.7ZM147.664 101.39H150.154V107.48H147.664V101.39ZM147.544 83.12H165.844V89.84H150.064V93.5H147.604V88.01H163.414V85.07H147.544V83.12ZM147.604 92.84H166.444V94.79H147.604V92.84ZM187.149 85.01H189.189V87.2C189.189 92.18 186.189 96.32 181.659 97.94L180.339 95.99C184.449 94.55 187.149 91.07 187.149 87.2V85.01ZM187.599 85.01H189.639V87.17C189.639 90.77 192.249 94.1 196.239 95.45L194.949 97.4C190.479 95.84 187.599 91.85 187.599 87.17V85.01ZM181.119 84.11H195.609V86.15H181.119V84.11ZM199.029 82.22H201.519V98.54H199.029V82.22ZM200.829 89.36H205.539V91.43H200.829V89.36ZM183.909 99.98H201.519V109.34H199.029V102.05H183.909V99.98ZM219.097 96.62H221.557V101.3H219.097V96.62ZM208.057 95.3H232.567V97.34H208.057V95.3ZM210.337 83.06H230.257V85.1H210.337V83.06ZM210.457 90.77H230.137V92.81H210.457V90.77ZM214.447 83.96H216.937V92.09H214.447V83.96ZM223.687 83.96H226.147V92.09H223.687V83.96ZM211.057 100.49H229.567V108.98H211.057V100.49ZM227.137 102.47H213.517V106.97H227.137V102.47ZM247.925 82.67C253.895 82.67 257.465 84.35 257.465 87.38C257.465 90.41 253.895 92.09 247.925 92.09C241.925 92.09 238.385 90.41 238.385 87.38C238.385 84.35 241.925 82.67 247.925 82.67ZM247.925 84.56C243.485 84.56 240.935 85.58 240.935 87.38C240.935 89.18 243.485 90.2 247.925 90.2C252.335 90.2 254.885 89.18 254.885 87.38C254.885 85.58 252.335 84.56 247.925 84.56ZM235.655 93.89H260.165V95.9H235.655V93.89ZM238.625 98.21H257.045V104.33H241.145V107.63H238.685V102.53H254.585V100.13H238.625V98.21ZM238.685 107.09H257.855V109.04H238.685V107.09ZM274.3 84.92H291.76V86.99H274.3V84.92ZM271.72 103.49H296.23V105.56H271.72V103.49ZM281.23 93.8H283.72V104.51H281.23V93.8ZM290.83 84.92H293.29V87.62C293.29 90.98 293.29 94.7 292.3 100.19L289.81 99.86C290.83 94.67 290.83 90.86 290.83 87.62V84.92ZM299.317 103.85H323.887V105.95H299.317V103.85ZM302.287 84.29H320.857V92.51H304.837V97.94H302.377V90.53H318.397V86.33H302.287V84.29ZM302.377 96.89H321.487V98.93H302.377V96.89ZM341.375 85.46H347.495V87.5H341.375V85.46ZM341.375 90.8H347.495V92.81H341.375V90.8ZM346.715 82.22H349.205V98.12H346.715V82.22ZM333.665 83.18H335.705V86C335.705 91.34 332.825 95.75 328.295 97.55L326.945 95.6C331.055 94.04 333.665 90.26 333.665 86V83.18ZM334.085 83.18H336.095V86C336.095 89.93 338.735 93.62 342.665 95.15L341.285 97.13C336.965 95.33 334.085 91.01 334.085 86V83.18ZM333.815 99.11H335.765V100.31C335.765 103.88 333.545 107.51 329.645 109.01L328.385 107.15C331.805 105.89 333.815 102.95 333.815 100.31V99.11ZM334.385 99.11H336.245V100.31C336.245 103.07 337.835 106.04 341.105 107.36L340.055 109.25C336.125 107.72 334.385 103.94 334.385 100.31V99.11ZM343.865 99.11H345.695V100.31C345.695 103.52 343.925 107.6 340.055 109.25L338.975 107.36C342.215 105.86 343.865 102.68 343.865 100.31V99.11ZM344.345 99.11H346.295V100.31C346.295 103.16 348.275 105.98 351.755 107.15L350.465 109.01C346.535 107.57 344.345 104.09 344.345 100.31V99.11ZM357.603 98.48H360.063V101.63H373.323V98.48H375.813V108.98H357.603V98.48ZM360.063 103.55V106.97H373.323V103.55H360.063ZM354.483 94.58H378.993V96.59H354.483V94.58ZM365.493 82.52H367.623V83.72C367.623 88.43 362.373 91.82 356.793 92.66L355.893 90.71C360.783 90.05 365.493 87.14 365.493 83.72V82.52ZM365.883 82.52H368.013V83.72C368.013 87.08 372.783 90.05 377.613 90.71L376.683 92.66C371.163 91.82 365.883 88.37 365.883 83.72V82.52ZM401.82 82.22H404.31V109.34H401.82V82.22ZM383.82 84.86H386.28V101.66H383.82V84.86ZM383.82 100.19H386.04C390.15 100.19 394.44 99.89 399.03 98.93L399.33 101.06C394.62 102.02 390.33 102.35 386.04 102.35H383.82V100.19ZM428.038 82.19H430.558V109.37H428.038V82.19ZM429.958 92.9H434.998V95H429.958V92.9ZM410.848 100.52H412.978C417.988 100.52 421.498 100.34 425.548 99.59L425.818 101.69C421.648 102.47 418.078 102.62 412.978 102.62H410.848V100.52ZM410.848 84.83H423.448V86.87H413.308V101.45H410.848V84.83ZM439.939 107.17C439.414 107.17 438.963 106.982 438.586 106.606C438.21 106.229 438.022 105.778 438.022 105.253C438.022 104.727 438.21 104.276 438.586 103.9C438.963 103.523 439.414 103.335 439.939 103.335C440.465 103.335 440.916 103.523 441.292 103.9C441.669 104.276 441.857 104.727 441.857 105.253C441.857 105.601 441.768 105.92 441.59 106.212C441.42 106.503 441.189 106.737 440.898 106.915C440.614 107.085 440.294 107.17 439.939 107.17ZM474.165 93.02H479.175V95.12H474.165V93.02ZM472.335 82.19H474.855V109.34H472.335V82.19ZM455.055 84.86H457.545V101.66H455.055V84.86ZM455.055 100.37H457.215C461.235 100.37 465.345 100.1 469.815 99.17L470.115 101.24C465.495 102.2 461.325 102.47 457.215 102.47H455.055V100.37ZM482.473 100.61H484.273C487.573 100.61 490.633 100.49 494.353 99.86L494.563 101.9C490.753 102.56 487.693 102.68 484.273 102.68H482.473V100.61ZM482.413 85.19H492.103V94.64H484.903V101.45H482.473V92.63H489.703V87.23H482.413V85.19ZM502.213 82.22H504.613V109.34H502.213V82.22ZM493.393 91.94H497.773V94.01H493.393V91.94ZM496.753 82.88H499.063V107.93H496.753V82.88ZM528.88 82.19H531.37V109.37H528.88V82.19ZM517.06 84.29C521.08 84.29 523.96 87.98 523.96 93.74C523.96 99.53 521.08 103.22 517.06 103.22C513.07 103.22 510.19 99.53 510.19 93.74C510.19 87.98 513.07 84.29 517.06 84.29ZM517.06 86.54C514.42 86.54 512.56 89.36 512.56 93.74C512.56 98.15 514.42 101.03 517.06 101.03C519.73 101.03 521.56 98.15 521.56 93.74C521.56 89.36 519.73 86.54 517.06 86.54ZM551.168 86.21H557.258V88.28H551.168V86.21ZM551.168 91.79H557.258V93.83H551.168V91.79ZM543.578 83.75H545.588V87.2C545.588 92.51 542.678 97.04 538.148 98.87L536.828 96.89C540.878 95.33 543.578 91.46 543.578 87.2V83.75ZM544.028 83.75H546.068V87.2C546.068 91.16 548.678 94.91 552.608 96.47L551.228 98.42C546.938 96.62 544.028 92.24 544.028 87.2V83.75ZM556.598 82.25H559.088V102.47H556.598V82.25ZM541.658 106.7H559.748V108.74H541.658V106.7ZM541.658 100.43H544.148V107.81H541.658V100.43ZM584.076 82.19H586.566V109.37H584.076V82.19ZM572.256 84.29C576.276 84.29 579.156 87.98 579.156 93.74C579.156 99.53 576.276 103.22 572.256 103.22C568.266 103.22 565.386 99.53 565.386 93.74C565.386 87.98 568.266 84.29 572.256 84.29ZM572.256 86.54C569.616 86.54 567.756 89.36 567.756 93.74C567.756 98.15 569.616 101.03 572.256 101.03C574.926 101.03 576.756 98.15 576.756 93.74C576.756 89.36 574.926 86.54 572.256 86.54ZM614.351 87.11H621.281V89.18H614.351V87.11ZM620.231 82.22H622.721V96.2H620.231V82.22ZM605.261 97.61H622.721V104.09H607.781V108.2H605.351V102.23H620.261V99.59H605.261V97.61ZM605.351 107H623.741V108.98H605.351V107ZM607.181 83.06H609.221V85.61C609.221 90.62 606.221 94.67 601.691 96.29L600.401 94.31C604.481 92.93 607.181 89.54 607.181 85.61V83.06ZM607.601 83.06H609.611V85.61C609.611 89.15 612.341 92.42 616.271 93.71L614.981 95.66C610.601 94.1 607.601 90.2 607.601 85.61V83.06ZM640.958 86.6H648.788V88.64H640.958V86.6ZM640.958 92H648.848V94.01H640.958V92ZM647.828 82.22H650.318V98.27H647.828V82.22ZM629.258 84.26H641.648V96.32H629.258V84.26ZM639.188 86.27H631.688V94.34H639.188V86.27ZM641.408 99.05C646.988 99.05 650.438 100.94 650.438 104.18C650.438 107.42 646.988 109.28 641.408 109.28C635.798 109.28 632.348 107.42 632.348 104.18C632.348 100.94 635.798 99.05 641.408 99.05ZM641.408 101.03C637.328 101.03 634.838 102.2 634.838 104.18C634.838 106.16 637.328 107.33 641.408 107.33C645.488 107.33 647.978 106.16 647.978 104.18C647.978 102.2 645.488 101.03 641.408 101.03ZM674.166 82.25H676.656V102.59H674.166V82.25ZM675.876 91.13H680.676V93.23H675.876V91.13ZM655.686 85.52H671.706V87.53H655.686V85.52ZM663.696 89.03C667.536 89.03 670.176 91.04 670.176 94.1C670.176 97.13 667.536 99.14 663.696 99.14C659.826 99.14 657.186 97.13 657.186 94.1C657.186 91.04 659.826 89.03 663.696 89.03ZM663.696 90.98C661.236 90.98 659.556 92.21 659.556 94.1C659.556 95.96 661.236 97.19 663.696 97.19C666.126 97.19 667.806 95.96 667.806 94.1C667.806 92.21 666.126 90.98 663.696 90.98ZM662.436 82.22H664.926V86.57H662.436V82.22ZM659.766 106.7H677.886V108.74H659.766V106.7ZM659.766 100.97H662.256V107.57H659.766V100.97ZM698.321 85.01H700.361V87.2C700.361 92.18 697.361 96.32 692.831 97.94L691.511 95.99C695.621 94.55 698.321 91.07 698.321 87.2V85.01ZM698.771 85.01H700.811V87.17C700.811 90.77 703.421 94.1 707.411 95.45L706.121 97.4C701.651 95.84 698.771 91.85 698.771 87.17V85.01ZM692.291 84.11H706.781V86.15H692.291V84.11ZM710.201 82.22H712.691V98.54H710.201V82.22ZM712.001 89.36H716.711V91.43H712.001V89.36ZM695.081 99.98H712.691V109.34H710.201V102.05H695.081V99.98ZM730.269 96.62H732.729V101.3H730.269V96.62ZM719.229 95.3H743.739V97.34H719.229V95.3ZM721.509 83.06H741.429V85.1H721.509V83.06ZM721.629 90.77H741.309V92.81H721.629V90.77ZM725.619 83.96H728.109V92.09H725.619V83.96ZM734.859 83.96H737.319V92.09H734.859V83.96ZM722.229 100.49H740.739V108.98H722.229V100.49ZM738.309 102.47H724.689V106.97H738.309V102.47ZM746.826 96.47H771.336V98.51H746.826V96.47ZM750.006 106.7H768.636V108.74H750.006V106.7ZM750.006 100.88H752.496V107.33H750.006V100.88ZM759.096 83.12C764.886 83.12 768.636 85.16 768.636 88.55C768.636 91.91 764.886 93.95 759.096 93.95C753.276 93.95 749.556 91.91 749.556 88.55C749.556 85.16 753.276 83.12 759.096 83.12ZM759.096 85.16C754.836 85.16 752.106 86.42 752.106 88.55C752.106 90.68 754.836 91.94 759.096 91.94C763.356 91.94 766.086 90.68 766.086 88.55C766.086 86.42 763.356 85.16 759.096 85.16ZM801.59 92H798.948C798.792 91.2401 798.519 90.5724 798.128 89.9972C797.745 89.4219 797.276 88.9389 796.722 88.5483C796.175 88.1506 795.568 87.8523 794.9 87.6534C794.233 87.4545 793.536 87.3551 792.812 87.3551C791.491 87.3551 790.294 87.6889 789.222 88.3565C788.157 89.0241 787.308 90.0078 786.676 91.3075C786.051 92.6072 785.738 94.2017 785.738 96.0909C785.738 97.9801 786.051 99.5746 786.676 100.874C787.308 102.174 788.157 103.158 789.222 103.825C790.294 104.493 791.491 104.827 792.812 104.827C793.536 104.827 794.233 104.727 794.9 104.528C795.568 104.33 796.175 104.035 796.722 103.644C797.276 103.246 797.745 102.76 798.128 102.185C798.519 101.602 798.792 100.935 798.948 100.182H801.59C801.392 101.297 801.029 102.295 800.504 103.175C799.978 104.056 799.325 104.805 798.544 105.423C797.762 106.034 796.885 106.499 795.912 106.819C794.946 107.138 793.913 107.298 792.812 107.298C790.951 107.298 789.296 106.844 787.848 105.935C786.399 105.026 785.259 103.733 784.428 102.057C783.597 100.381 783.181 98.392 783.181 96.0909C783.181 93.7898 783.597 91.8011 784.428 90.125C785.259 88.4489 786.399 87.1562 787.848 86.2472C789.296 85.3381 790.951 84.8835 792.812 84.8835C793.913 84.8835 794.946 85.0433 795.912 85.3629C796.885 85.6825 797.762 86.1513 798.544 86.7692C799.325 87.38 799.978 88.1257 800.504 89.0064C801.029 89.88 801.392 90.8778 801.59 92ZM808.033 85.1818V107H805.519V85.1818H808.033ZM817.453 107.384C816.416 107.384 815.475 107.188 814.63 106.798C813.785 106.4 813.114 105.828 812.617 105.082C812.12 104.33 811.871 103.42 811.871 102.355C811.871 101.418 812.056 100.658 812.425 100.075C812.794 99.4858 813.288 99.0241 813.906 98.6903C814.524 98.3565 815.206 98.108 815.951 97.9446C816.704 97.7741 817.46 97.6392 818.22 97.5398C819.215 97.4119 820.021 97.3161 820.639 97.2521C821.264 97.1811 821.718 97.0639 822.002 96.9006C822.294 96.7372 822.439 96.4531 822.439 96.0483V95.9631C822.439 94.9119 822.152 94.0952 821.576 93.5128C821.008 92.9304 820.145 92.6392 818.987 92.6392C817.787 92.6392 816.846 92.902 816.164 93.4276C815.483 93.9531 815.003 94.5142 814.726 95.1108L812.34 94.2585C812.766 93.2642 813.334 92.4901 814.044 91.9361C814.762 91.375 815.543 90.9844 816.388 90.7642C817.24 90.5369 818.078 90.4233 818.902 90.4233C819.428 90.4233 820.032 90.4872 820.713 90.6151C821.402 90.7358 822.066 90.9879 822.706 91.3714C823.352 91.755 823.888 92.3338 824.314 93.108C824.74 93.8821 824.953 94.919 824.953 96.2188V107H822.439V104.784H822.311C822.141 105.139 821.857 105.519 821.459 105.924C821.061 106.329 820.532 106.673 819.872 106.957C819.211 107.241 818.405 107.384 817.453 107.384ZM817.837 105.125C818.831 105.125 819.669 104.93 820.351 104.539C821.04 104.148 821.559 103.644 821.907 103.026C822.262 102.408 822.439 101.759 822.439 101.077V98.7756C822.333 98.9034 822.098 99.0206 821.736 99.1271C821.381 99.2266 820.969 99.3153 820.5 99.3935C820.039 99.4645 819.588 99.5284 819.147 99.5852C818.714 99.6349 818.362 99.6776 818.093 99.7131C817.439 99.7983 816.828 99.9368 816.26 100.129C815.699 100.313 815.245 100.594 814.897 100.97C814.556 101.339 814.385 101.844 814.385 102.483C814.385 103.357 814.708 104.017 815.355 104.464C816.008 104.905 816.835 105.125 817.837 105.125ZM839.855 100.31V90.6364H842.369V107H839.855V104.23H839.684C839.301 105.061 838.704 105.768 837.895 106.35C837.085 106.925 836.062 107.213 834.826 107.213C833.804 107.213 832.895 106.989 832.099 106.542C831.304 106.087 830.679 105.406 830.224 104.496C829.77 103.58 829.542 102.426 829.542 101.034V90.6364H832.057V100.864C832.057 102.057 832.39 103.009 833.058 103.719C833.733 104.429 834.592 104.784 835.636 104.784C836.261 104.784 836.897 104.624 837.543 104.305C838.196 103.985 838.743 103.495 839.184 102.835C839.631 102.174 839.855 101.332 839.855 100.31ZM853.153 107.341C851.789 107.341 850.585 106.996 849.541 106.308C848.497 105.612 847.681 104.631 847.091 103.367C846.502 102.096 846.207 100.594 846.207 98.8608C846.207 97.142 846.502 95.6506 847.091 94.3864C847.681 93.1222 848.501 92.1456 849.552 91.4567C850.603 90.7678 851.818 90.4233 853.196 90.4233C854.261 90.4233 855.103 90.6009 855.72 90.956C856.345 91.304 856.821 91.7017 857.148 92.1491C857.482 92.5895 857.741 92.9517 857.926 93.2358H858.139V85.1818H860.653V107H858.224V104.486H857.926C857.741 104.784 857.478 105.161 857.137 105.615C856.796 106.062 856.31 106.464 855.678 106.819C855.046 107.167 854.204 107.341 853.153 107.341ZM853.494 105.082C854.502 105.082 855.355 104.82 856.051 104.294C856.747 103.761 857.276 103.026 857.638 102.089C858 101.144 858.181 100.054 858.181 98.8182C858.181 97.5966 858.004 96.5277 857.649 95.6115C857.294 94.6882 856.768 93.9709 856.072 93.4595C855.376 92.9411 854.517 92.6818 853.494 92.6818C852.429 92.6818 851.541 92.9553 850.831 93.5021C850.127 94.0419 849.598 94.777 849.243 95.7074C848.895 96.6307 848.721 97.6676 848.721 98.8182C848.721 99.983 848.899 101.041 849.254 101.993C849.616 102.937 850.149 103.69 850.852 104.251C851.562 104.805 852.443 105.082 853.494 105.082ZM872.468 107.341C870.891 107.341 869.531 106.993 868.387 106.297C867.251 105.594 866.374 104.614 865.756 103.357C865.145 102.092 864.84 100.622 864.84 98.946C864.84 97.2699 865.145 95.7926 865.756 94.5142C866.374 93.2287 867.233 92.2273 868.334 91.5099C869.442 90.7855 870.735 90.4233 872.212 90.4233C873.064 90.4233 873.906 90.5653 874.737 90.8494C875.568 91.1335 876.324 91.5952 877.006 92.2344C877.688 92.8665 878.231 93.7045 878.636 94.7486C879.041 95.7926 879.243 97.0781 879.243 98.6051V99.6705H866.63V97.4972H876.686C876.686 96.5739 876.502 95.75 876.132 95.0256C875.77 94.3011 875.252 93.7294 874.577 93.3104C873.909 92.8913 873.121 92.6818 872.212 92.6818C871.21 92.6818 870.344 92.9304 869.612 93.4276C868.888 93.9176 868.331 94.5568 867.94 95.3452C867.549 96.1335 867.354 96.9787 867.354 97.8807V99.3295C867.354 100.565 867.567 101.613 867.993 102.472C868.426 103.325 869.027 103.974 869.794 104.422C870.561 104.862 871.452 105.082 872.468 105.082C873.128 105.082 873.725 104.99 874.257 104.805C874.797 104.614 875.262 104.33 875.653 103.953C876.044 103.57 876.345 103.094 876.559 102.526L878.987 103.207C878.732 104.031 878.302 104.756 877.698 105.381C877.095 105.999 876.349 106.482 875.461 106.83C874.573 107.17 873.576 107.341 872.468 107.341ZM891.846 85.1818H895L902.414 103.293H902.67L910.085 85.1818H913.238V107H910.767V90.4233H910.554L903.735 107H901.349L894.531 90.4233H894.318V107H891.846V85.1818ZM924.842 107.341C923.365 107.341 922.069 106.989 920.954 106.286C919.846 105.583 918.979 104.599 918.354 103.335C917.737 102.071 917.428 100.594 917.428 98.9034C917.428 97.1989 917.737 95.7109 918.354 94.4396C918.979 93.1683 919.846 92.1811 920.954 91.478C922.069 90.7749 923.365 90.4233 924.842 90.4233C926.32 90.4233 927.612 90.7749 928.72 91.478C929.835 92.1811 930.702 93.1683 931.32 94.4396C931.945 95.7109 932.257 97.1989 932.257 98.9034C932.257 100.594 931.945 102.071 931.32 103.335C930.702 104.599 929.835 105.583 928.72 106.286C927.612 106.989 926.32 107.341 924.842 107.341ZM924.842 105.082C925.965 105.082 926.888 104.795 927.612 104.219C928.337 103.644 928.873 102.888 929.221 101.95C929.569 101.013 929.743 99.9972 929.743 98.9034C929.743 97.8097 929.569 96.7905 929.221 95.8459C928.873 94.9013 928.337 94.1378 927.612 93.5554C926.888 92.973 925.965 92.6818 924.842 92.6818C923.72 92.6818 922.797 92.973 922.073 93.5554C921.348 94.1378 920.812 94.9013 920.464 95.8459C920.116 96.7905 919.942 97.8097 919.942 98.9034C919.942 99.9972 920.116 101.013 920.464 101.95C920.812 102.888 921.348 103.644 922.073 104.219C922.797 104.795 923.72 105.082 924.842 105.082ZM938.609 97.1562V107H936.095V90.6364H938.524V93.1932H938.737C939.121 92.3622 939.703 91.6946 940.484 91.1903C941.266 90.679 942.274 90.4233 943.51 90.4233C944.618 90.4233 945.587 90.6506 946.418 91.1051C947.249 91.5526 947.896 92.2344 948.357 93.1506C948.819 94.0597 949.05 95.2102 949.05 96.6023V107H946.535V96.7727C946.535 95.4872 946.202 94.4858 945.534 93.7685C944.866 93.044 943.95 92.6818 942.785 92.6818C941.983 92.6818 941.266 92.8558 940.633 93.2038C940.008 93.5518 939.515 94.0597 939.153 94.7273C938.79 95.3949 938.609 96.2045 938.609 97.1562ZM960.505 107.341C958.928 107.341 957.568 106.993 956.424 106.297C955.288 105.594 954.411 104.614 953.793 103.357C953.182 102.092 952.877 100.622 952.877 98.946C952.877 97.2699 953.182 95.7926 953.793 94.5142C954.411 93.2287 955.27 92.2273 956.371 91.5099C957.479 90.7855 958.772 90.4233 960.249 90.4233C961.101 90.4233 961.943 90.5653 962.774 90.8494C963.605 91.1335 964.361 91.5952 965.043 92.2344C965.725 92.8665 966.268 93.7045 966.673 94.7486C967.078 95.7926 967.28 97.0781 967.28 98.6051V99.6705H954.667V97.4972H964.723C964.723 96.5739 964.539 95.75 964.169 95.0256C963.807 94.3011 963.289 93.7294 962.614 93.3104C961.946 92.8913 961.158 92.6818 960.249 92.6818C959.248 92.6818 958.381 92.9304 957.65 93.4276C956.925 93.9176 956.368 94.5568 955.977 95.3452C955.586 96.1335 955.391 96.9787 955.391 97.8807V99.3295C955.391 100.565 955.604 101.613 956.03 102.472C956.464 103.325 957.064 103.974 957.831 104.422C958.598 104.862 959.489 105.082 960.505 105.082C961.165 105.082 961.762 104.99 962.294 104.805C962.834 104.614 963.299 104.33 963.69 103.953C964.081 103.57 964.383 103.094 964.596 102.526L967.025 103.207C966.769 104.031 966.339 104.756 965.736 105.381C965.132 105.999 964.386 106.482 963.498 106.83C962.611 107.17 961.613 107.341 960.505 107.341ZM978.221 90.6364V92.767H969.741V90.6364H978.221ZM972.213 86.7159H974.727V102.312C974.727 103.023 974.83 103.555 975.036 103.911C975.249 104.259 975.519 104.493 975.846 104.614C976.179 104.727 976.531 104.784 976.9 104.784C977.177 104.784 977.405 104.77 977.582 104.741C977.76 104.706 977.902 104.678 978.008 104.656L978.52 106.915C978.349 106.979 978.111 107.043 977.806 107.107C977.5 107.178 977.113 107.213 976.645 107.213C975.934 107.213 975.238 107.06 974.557 106.755C973.882 106.45 973.321 105.984 972.873 105.359C972.433 104.734 972.213 103.946 972.213 102.994V86.7159ZM989.992 84.17C994.222 84.17 997.252 86.78 997.252 90.56C997.252 94.37 994.222 96.98 989.992 96.98C985.762 96.98 982.702 94.37 982.702 90.56C982.702 86.78 985.762 84.17 989.992 84.17ZM989.992 86.33C987.172 86.33 985.132 88.04 985.132 90.56C985.132 93.08 987.172 94.82 989.992 94.82C992.782 94.82 994.822 93.08 994.822 90.56C994.822 88.04 992.782 86.33 989.992 86.33ZM1000.79 82.19H1003.28V109.37H1000.79V82.19ZM981.682 103.43L981.322 101.36C986.272 101.36 993.112 101.33 999.022 100.4L999.232 102.23C993.142 103.4 986.512 103.43 981.682 103.43ZM1017.19 92V90.0824C1017.19 89.5 1017.29 88.8821 1017.5 88.2287C1017.71 87.5682 1018.01 86.9325 1018.41 86.3217C1018.82 85.7038 1019.3 85.1676 1019.87 84.7131L1021.23 85.821C1020.79 86.4602 1020.4 87.1278 1020.06 87.8239C1019.74 88.5128 1019.57 89.2514 1019.57 90.0398V92H1017.19ZM1022.64 92V90.0824C1022.64 89.5 1022.74 88.8821 1022.95 88.2287C1023.16 87.5682 1023.47 86.9325 1023.87 86.3217C1024.27 85.7038 1024.76 85.1676 1025.33 84.7131L1026.69 85.821C1026.24 86.4602 1025.85 87.1278 1025.52 87.8239C1025.19 88.5128 1025.03 89.2514 1025.03 90.0398V92H1022.64ZM1028.61 87.5256V85.1818H1044.98V87.5256H1038.11V107H1035.47V87.5256H1028.61ZM1051.23 97.1562V107H1048.71V85.1818H1051.23V93.1932H1051.44C1051.82 92.348 1052.4 91.6768 1053.17 91.1797C1053.94 90.6754 1054.97 90.4233 1056.25 90.4233C1057.37 90.4233 1058.35 90.647 1059.18 91.0945C1060.02 91.5348 1060.67 92.2131 1061.13 93.1293C1061.6 94.0384 1061.84 95.196 1061.84 96.6023V107H1059.32V96.7727C1059.32 95.473 1058.99 94.468 1058.31 93.7578C1057.64 93.0405 1056.72 92.6818 1055.53 92.6818C1054.71 92.6818 1053.97 92.8558 1053.31 93.2038C1052.67 93.5518 1052.16 94.0597 1051.78 94.7273C1051.41 95.3949 1051.23 96.2045 1051.23 97.1562ZM1073.3 107.341C1071.72 107.341 1070.36 106.993 1069.22 106.297C1068.08 105.594 1067.2 104.614 1066.59 103.357C1065.98 102.092 1065.67 100.622 1065.67 98.946C1065.67 97.2699 1065.98 95.7926 1066.59 94.5142C1067.2 93.2287 1068.06 92.2273 1069.16 91.5099C1070.27 90.7855 1071.56 90.4233 1073.04 90.4233C1073.89 90.4233 1074.74 90.5653 1075.57 90.8494C1076.4 91.1335 1077.15 91.5952 1077.84 92.2344C1078.52 92.8665 1079.06 93.7045 1079.47 94.7486C1079.87 95.7926 1080.07 97.0781 1080.07 98.6051V99.6705H1067.46V97.4972H1077.52C1077.52 96.5739 1077.33 95.75 1076.96 95.0256C1076.6 94.3011 1076.08 93.7294 1075.41 93.3104C1074.74 92.8913 1073.95 92.6818 1073.04 92.6818C1072.04 92.6818 1071.17 92.9304 1070.44 93.4276C1069.72 93.9176 1069.16 94.5568 1068.77 95.3452C1068.38 96.1335 1068.18 96.9787 1068.18 97.8807V99.3295C1068.18 100.565 1068.4 101.613 1068.82 102.472C1069.26 103.325 1069.86 103.974 1070.62 104.422C1071.39 104.862 1072.28 105.082 1073.3 105.082C1073.96 105.082 1074.55 104.99 1075.09 104.805C1075.63 104.614 1076.09 104.33 1076.48 103.953C1076.87 103.57 1077.18 103.094 1077.39 102.526L1079.82 103.207C1079.56 104.031 1079.13 104.756 1078.53 105.381C1077.92 105.999 1077.18 106.482 1076.29 106.83C1075.4 107.17 1074.41 107.341 1073.3 107.341ZM1092.68 107V85.1818H1105.76V87.5256H1095.32V94.8977H1104.78V97.2415H1095.32V107H1092.68ZM1112.46 85.1818V107H1109.94V85.1818H1112.46ZM1123.71 107.341C1122.23 107.341 1120.94 106.989 1119.82 106.286C1118.71 105.583 1117.85 104.599 1117.22 103.335C1116.6 102.071 1116.29 100.594 1116.29 98.9034C1116.29 97.1989 1116.6 95.7109 1117.22 94.4396C1117.85 93.1683 1118.71 92.1811 1119.82 91.478C1120.94 90.7749 1122.23 90.4233 1123.71 90.4233C1125.19 90.4233 1126.48 90.7749 1127.59 91.478C1128.7 92.1811 1129.57 93.1683 1130.19 94.4396C1130.81 95.7109 1131.12 97.1989 1131.12 98.9034C1131.12 100.594 1130.81 102.071 1130.19 103.335C1129.57 104.599 1128.7 105.583 1127.59 106.286C1126.48 106.989 1125.19 107.341 1123.71 107.341ZM1123.71 105.082C1124.83 105.082 1125.76 104.795 1126.48 104.219C1127.2 103.644 1127.74 102.888 1128.09 101.95C1128.44 101.013 1128.61 99.9972 1128.61 98.9034C1128.61 97.8097 1128.44 96.7905 1128.09 95.8459C1127.74 94.9013 1127.2 94.1378 1126.48 93.5554C1125.76 92.973 1124.83 92.6818 1123.71 92.6818C1122.59 92.6818 1121.66 92.973 1120.94 93.5554C1120.22 94.1378 1119.68 94.9013 1119.33 95.8459C1118.98 96.7905 1118.81 97.8097 1118.81 98.9034C1118.81 99.9972 1118.98 101.013 1119.33 101.95C1119.68 102.888 1120.22 103.644 1120.94 104.219C1121.66 104.795 1122.59 105.082 1123.71 105.082ZM1141.61 107.341C1140.13 107.341 1138.84 106.989 1137.72 106.286C1136.61 105.583 1135.75 104.599 1135.12 103.335C1134.5 102.071 1134.2 100.594 1134.2 98.9034C1134.2 97.1989 1134.5 95.7109 1135.12 94.4396C1135.75 93.1683 1136.61 92.1811 1137.72 91.478C1138.84 90.7749 1140.13 90.4233 1141.61 90.4233C1143.09 90.4233 1144.38 90.7749 1145.49 91.478C1146.6 92.1811 1147.47 93.1683 1148.09 94.4396C1148.71 95.7109 1149.02 97.1989 1149.02 98.9034C1149.02 100.594 1148.71 102.071 1148.09 103.335C1147.47 104.599 1146.6 105.583 1145.49 106.286C1144.38 106.989 1143.09 107.341 1141.61 107.341ZM1141.61 105.082C1142.73 105.082 1143.66 104.795 1144.38 104.219C1145.1 103.644 1145.64 102.888 1145.99 101.95C1146.34 101.013 1146.51 99.9972 1146.51 98.9034C1146.51 97.8097 1146.34 96.7905 1145.99 95.8459C1145.64 94.9013 1145.1 94.1378 1144.38 93.5554C1143.66 92.973 1142.73 92.6818 1141.61 92.6818C1140.49 92.6818 1139.56 92.973 1138.84 93.5554C1138.12 94.1378 1137.58 94.9013 1137.23 95.8459C1136.88 96.7905 1136.71 97.8097 1136.71 98.9034C1136.71 99.9972 1136.88 101.013 1137.23 101.95C1137.58 102.888 1138.12 103.644 1138.84 104.219C1139.56 104.795 1140.49 105.082 1141.61 105.082ZM1159.04 107.341C1157.68 107.341 1156.47 106.996 1155.43 106.308C1154.39 105.612 1153.57 104.631 1152.98 103.367C1152.39 102.096 1152.1 100.594 1152.1 98.8608C1152.1 97.142 1152.39 95.6506 1152.98 94.3864C1153.57 93.1222 1154.39 92.1456 1155.44 91.4567C1156.49 90.7678 1157.71 90.4233 1159.08 90.4233C1160.15 90.4233 1160.99 90.6009 1161.61 90.956C1162.23 91.304 1162.71 91.7017 1163.04 92.1491C1163.37 92.5895 1163.63 92.9517 1163.81 93.2358H1164.03V85.1818H1166.54V107H1164.11V104.486H1163.81C1163.63 104.784 1163.37 105.161 1163.03 105.615C1162.69 106.062 1162.2 106.464 1161.57 106.819C1160.93 107.167 1160.09 107.341 1159.04 107.341ZM1159.38 105.082C1160.39 105.082 1161.24 104.82 1161.94 104.294C1162.64 103.761 1163.16 103.026 1163.53 102.089C1163.89 101.144 1164.07 100.054 1164.07 98.8182C1164.07 97.5966 1163.89 96.5277 1163.54 95.6115C1163.18 94.6882 1162.66 93.9709 1161.96 93.4595C1161.26 92.9411 1160.41 92.6818 1159.38 92.6818C1158.32 92.6818 1157.43 92.9553 1156.72 93.5021C1156.02 94.0419 1155.49 94.777 1155.13 95.7074C1154.78 96.6307 1154.61 97.6676 1154.61 98.8182C1154.61 99.983 1154.79 101.041 1155.14 101.993C1155.5 102.937 1156.04 103.69 1156.74 104.251C1157.45 104.805 1158.33 105.082 1159.38 105.082ZM1172.39 97.7955C1172.39 95.1108 1172.74 92.6428 1173.43 90.3913C1174.14 88.1328 1175.14 86.0554 1176.44 84.1591H1178.65C1178.14 84.8622 1177.66 85.7287 1177.22 86.7585C1176.78 87.7812 1176.39 88.907 1176.06 90.1357C1175.72 91.3572 1175.46 92.6214 1175.27 93.9283C1175.08 95.2351 1174.99 96.5241 1174.99 97.7955C1174.99 99.4858 1175.15 101.201 1175.48 102.941C1175.81 104.681 1176.25 106.297 1176.8 107.788C1177.35 109.28 1177.97 110.494 1178.65 111.432H1176.44C1175.14 109.536 1174.14 107.462 1173.43 105.21C1172.74 102.952 1172.39 100.48 1172.39 97.7955ZM1193.77 101.03C1199.71 101.03 1203.07 102.44 1203.07 105.17C1203.07 107.87 1199.71 109.28 1193.77 109.28C1187.86 109.28 1184.47 107.87 1184.47 105.17C1184.47 102.44 1187.86 101.03 1193.77 101.03ZM1193.77 102.89C1189.45 102.89 1187.02 103.67 1187.02 105.17C1187.02 106.64 1189.45 107.45 1193.77 107.45C1198.12 107.45 1200.52 106.64 1200.52 105.17C1200.52 103.67 1198.12 102.89 1193.77 102.89ZM1182.82 84.5H1204.63V86.45H1182.82V84.5ZM1193.8 87.53C1199.38 87.53 1202.56 88.88 1202.56 91.4C1202.56 93.95 1199.38 95.27 1193.8 95.27C1188.19 95.27 1185.04 93.95 1185.04 91.4C1185.04 88.88 1188.19 87.53 1193.8 87.53ZM1193.8 89.3C1189.87 89.3 1187.68 90.05 1187.68 91.4C1187.68 92.78 1189.87 93.53 1193.8 93.53C1197.7 93.53 1199.89 92.78 1199.89 91.4C1199.89 90.05 1197.7 89.3 1193.8 89.3ZM1192.57 81.83H1195.03V85.73H1192.57V81.83ZM1181.53 97.34H1206.04V99.35H1181.53V97.34ZM1192.57 94.55H1195.03V98.33H1192.57V94.55ZM1220.11 83.18H1222.3V84.68C1222.3 89.87 1217.02 93.59 1211.38 94.55L1210.39 92.54C1215.34 91.79 1220.11 88.55 1220.11 84.68V83.18ZM1220.56 83.18H1222.72V84.68C1222.72 88.46 1227.55 91.79 1232.44 92.54L1231.45 94.55C1225.87 93.59 1220.56 89.81 1220.56 84.68V83.18ZM1220.11 99.02H1222.57V109.34H1220.11V99.02ZM1209.16 97.49H1233.67V99.56H1209.16V97.49ZM1242.93 97.7955C1242.93 100.48 1242.58 102.952 1241.87 105.21C1241.18 107.462 1240.18 109.536 1238.88 111.432H1236.67C1237.18 110.729 1237.65 109.862 1238.09 108.832C1238.54 107.81 1238.93 106.687 1239.26 105.466C1239.6 104.237 1239.86 102.969 1240.04 101.663C1240.23 100.349 1240.33 99.0597 1240.33 97.7955C1240.33 96.1051 1240.17 94.3899 1239.84 92.6499C1239.51 90.9098 1239.07 89.294 1238.52 87.8026C1237.96 86.3111 1237.35 85.0966 1236.67 84.1591H1238.88C1240.18 86.0554 1241.18 88.1328 1241.87 90.3913C1242.58 92.6428 1242.93 95.1108 1242.93 97.7955ZM1250.64 85.1818V87.0994C1250.64 87.6818 1250.54 88.3033 1250.33 88.9638C1250.12 89.6172 1249.81 90.2528 1249.41 90.8707C1249.01 91.4815 1248.53 92.0142 1247.96 92.4688L1246.6 91.3608C1247.04 90.7216 1247.43 90.0575 1247.76 89.3686C1248.09 88.6726 1248.26 87.9304 1248.26 87.142V85.1818H1250.64ZM1256.1 85.1818V87.0994C1256.1 87.6818 1255.99 88.3033 1255.78 88.9638C1255.57 89.6172 1255.27 90.2528 1254.86 90.8707C1254.47 91.4815 1253.98 92.0142 1253.41 92.4688L1252.05 91.3608C1252.5 90.7216 1252.89 90.0575 1253.21 89.3686C1253.55 88.6726 1253.71 87.9304 1253.71 87.142V85.1818H1256.1ZM1271.41 86H1279.87V88.01H1271.41V86ZM1271.41 92.06H1279.87V94.13H1271.41V92.06ZM1265.95 98.54H1267.9V100.34C1267.9 103.94 1265.68 107.54 1261.78 109.04L1260.52 107.18C1263.94 105.92 1265.95 102.98 1265.95 100.34V98.54ZM1266.52 98.54H1268.38V100.34C1268.38 103.1 1269.97 106.07 1273.24 107.39L1272.19 109.28C1268.26 107.75 1266.52 103.97 1266.52 100.34V98.54ZM1276 98.54H1277.83V100.34C1277.83 103.55 1276.06 107.63 1272.19 109.28L1271.11 107.39C1274.35 105.89 1276 102.71 1276 100.34V98.54ZM1276.48 98.54H1278.43V100.34C1278.43 103.19 1280.41 106.01 1283.89 107.18L1282.6 109.04C1278.67 107.6 1276.48 104.12 1276.48 100.34V98.54ZM1266.43 83.69C1270.42 83.69 1273.39 86.33 1273.39 90.08C1273.39 93.86 1270.42 96.5 1266.43 96.5C1262.44 96.5 1259.5 93.86 1259.5 90.08C1259.5 86.33 1262.44 83.69 1266.43 83.69ZM1266.43 85.79C1263.79 85.79 1261.84 87.56 1261.84 90.08C1261.84 92.6 1263.79 94.4 1266.43 94.4C1269.07 94.4 1270.99 92.6 1270.99 90.08C1270.99 87.56 1269.07 85.79 1266.43 85.79ZM1278.85 82.22H1281.34V97.67H1278.85V82.22ZM1289.74 98.48H1292.2V101.63H1305.46V98.48H1307.95V108.98H1289.74V98.48ZM1292.2 103.55V106.97H1305.46V103.55H1292.2ZM1286.62 94.58H1311.13V96.59H1286.62V94.58ZM1297.63 82.52H1299.76V83.72C1299.76 88.43 1294.51 91.82 1288.93 92.66L1288.03 90.71C1292.92 90.05 1297.63 87.14 1297.63 83.72V82.52ZM1298.02 82.52H1300.15V83.72C1300.15 87.08 1304.92 90.05 1309.75 90.71L1308.82 92.66C1303.3 91.82 1298.02 88.37 1298.02 83.72V82.52ZM1333.96 82.22H1336.45V109.34H1333.96V82.22ZM1315.96 84.86H1318.42V101.66H1315.96V84.86ZM1315.96 100.19H1318.18C1322.29 100.19 1326.58 99.89 1331.17 98.93L1331.47 101.06C1326.76 102.02 1322.47 102.35 1318.18 102.35H1315.96V100.19ZM1360.18 82.19H1362.7V109.37H1360.18V82.19ZM1362.1 92.9H1367.14V95H1362.1V92.9ZM1342.99 100.52H1345.12C1350.13 100.52 1353.64 100.34 1357.69 99.59L1357.96 101.69C1353.79 102.47 1350.22 102.62 1345.12 102.62H1342.99V100.52ZM1342.99 84.83H1355.59V86.87H1345.45V101.45H1342.99V84.83ZM1372.08 107.17C1371.55 107.17 1371.1 106.982 1370.72 106.606C1370.35 106.229 1370.16 105.778 1370.16 105.253C1370.16 104.727 1370.35 104.276 1370.72 103.9C1371.1 103.523 1371.55 103.335 1372.08 103.335C1372.6 103.335 1373.05 103.523 1373.43 103.9C1373.81 104.276 1374 104.727 1374 105.253C1374 105.601 1373.91 105.92 1373.73 106.212C1373.56 106.503 1373.33 106.737 1373.04 106.915C1372.75 107.085 1372.43 107.17 1372.08 107.17ZM416.789 120.56H418.829V125.42C418.829 131.66 415.469 137.45 411.029 139.7L409.499 137.66C413.519 135.74 416.789 130.55 416.789 125.42V120.56ZM417.209 120.56H419.249V125.42C419.249 130.37 422.489 135.35 426.509 137.21L425.009 139.19C420.599 137.03 417.209 131.45 417.209 125.42V120.56ZM429.329 118.19H431.819V145.37H429.329V118.19ZM455.787 118.22H458.277V134.12H455.787V118.22ZM457.587 125.06H462.297V127.16H457.587V125.06ZM448.287 119.96H450.897C450.897 126.8 446.127 131.69 438.207 133.85L437.187 131.9C444.207 129.98 448.287 126.05 448.287 121.04V119.96ZM438.387 119.96H449.667V121.97H438.387V119.96ZM440.667 135.38H458.277V145.34H455.787V137.39H440.667V135.38ZM471.505 121.13H473.545V123.32C473.545 128.3 470.545 132.47 465.985 134.12L464.725 132.14C468.805 130.7 471.505 127.19 471.505 123.32V121.13ZM471.955 121.13H473.995V123.29C473.995 126.83 476.575 130.01 480.565 131.33L479.365 133.28C474.835 131.78 471.955 127.91 471.955 123.29V121.13ZM465.475 120.23H479.965V122.27H465.475V120.23ZM483.385 118.22H485.875V134.57H483.385V118.22ZM485.185 125.09H489.895V127.19H485.185V125.09ZM477.235 135.29C482.755 135.29 486.145 137.12 486.145 140.27C486.145 143.45 482.755 145.28 477.235 145.28C471.715 145.28 468.325 143.45 468.325 140.27C468.325 137.12 471.715 135.29 477.235 135.29ZM477.235 137.3C473.215 137.3 470.755 138.38 470.755 140.27C470.755 142.19 473.215 143.33 477.235 143.33C481.255 143.33 483.715 142.19 483.715 140.27C483.715 138.38 481.255 137.3 477.235 137.3ZM498.532 120.47C502.042 120.47 504.322 124.1 504.322 129.92C504.322 135.74 502.042 139.37 498.532 139.37C495.022 139.37 492.772 135.74 492.772 129.92C492.772 124.1 495.022 120.47 498.532 120.47ZM498.532 122.78C496.402 122.78 495.052 125.54 495.052 129.92C495.052 134.3 496.402 137.06 498.532 137.06C500.662 137.06 502.012 134.3 502.012 129.92C502.012 125.54 500.662 122.78 498.532 122.78ZM513.082 118.22H515.482V145.34H513.082V118.22ZM508.792 128.96H513.982V131H508.792V128.96ZM507.082 118.79H509.452V143.99H507.082V118.79ZM539.75 118.25H542.27V138.05H539.75V118.25ZM524.84 142.7H543.08V144.74H524.84V142.7ZM524.84 136.01H527.3V143.39H524.84V136.01ZM527.72 120.11C531.77 120.11 534.77 122.87 534.77 126.8C534.77 130.7 531.77 133.49 527.72 133.49C523.67 133.49 520.64 130.7 520.64 126.8C520.64 122.87 523.67 120.11 527.72 120.11ZM527.72 122.27C525.08 122.27 523.07 124.13 523.07 126.8C523.07 129.44 525.08 131.3 527.72 131.3C530.36 131.3 532.37 129.44 532.37 126.8C532.37 124.13 530.36 122.27 527.72 122.27ZM556.428 120.17C560.658 120.17 563.688 122.78 563.688 126.56C563.688 130.37 560.658 132.98 556.428 132.98C552.198 132.98 549.138 130.37 549.138 126.56C549.138 122.78 552.198 120.17 556.428 120.17ZM556.428 122.33C553.608 122.33 551.568 124.04 551.568 126.56C551.568 129.08 553.608 130.82 556.428 130.82C559.218 130.82 561.258 129.08 561.258 126.56C561.258 124.04 559.218 122.33 556.428 122.33ZM567.228 118.19H569.718V145.37H567.228V118.19ZM548.118 139.43L547.758 137.36C552.708 137.36 559.548 137.33 565.458 136.4L565.668 138.23C559.578 139.4 552.948 139.43 548.118 139.43ZM603.383 118.22H605.903V132.77H603.383V118.22ZM588.413 134.12H590.873V137.42H603.443V134.12H605.903V144.98H588.413V134.12ZM590.873 139.4V142.97H603.443V139.4H590.873ZM591.353 119.51C595.463 119.51 598.403 122.06 598.403 125.75C598.403 129.47 595.463 132.02 591.353 132.02C587.243 132.02 584.273 129.47 584.273 125.75C584.273 122.06 587.243 119.51 591.353 119.51ZM591.353 121.58C588.653 121.58 586.703 123.29 586.703 125.75C586.703 128.21 588.653 129.92 591.353 129.92C594.053 129.92 596.003 128.21 596.003 125.75C596.003 123.29 594.053 121.58 591.353 121.58ZM617.931 121.13H619.971V123.32C619.971 128.3 616.971 132.47 612.411 134.12L611.151 132.14C615.231 130.7 617.931 127.19 617.931 123.32V121.13ZM618.381 121.13H620.421V123.29C620.421 126.83 623.001 130.01 626.991 131.33L625.791 133.28C621.261 131.78 618.381 127.91 618.381 123.29V121.13ZM611.901 120.23H626.391V122.27H611.901V120.23ZM629.811 118.22H632.301V134.57H629.811V118.22ZM631.611 125.09H636.321V127.19H631.611V125.09ZM623.661 135.29C629.181 135.29 632.571 137.12 632.571 140.27C632.571 143.45 629.181 145.28 623.661 145.28C618.141 145.28 614.751 143.45 614.751 140.27C614.751 137.12 618.141 135.29 623.661 135.29ZM623.661 137.3C619.641 137.3 617.181 138.38 617.181 140.27C617.181 142.19 619.641 143.33 623.661 143.33C627.681 143.33 630.141 142.19 630.141 140.27C630.141 138.38 627.681 137.3 623.661 137.3ZM649.848 128.75H654.978V130.82H649.848V128.75ZM659.508 118.22H661.908V145.34H659.508V118.22ZM654.138 118.79H656.508V143.99H654.138V118.79ZM644.958 120.47C648.468 120.47 650.748 124.1 650.748 129.92C650.748 135.74 648.468 139.37 644.958 139.37C641.448 139.37 639.198 135.74 639.198 129.92C639.198 124.1 641.448 120.47 644.958 120.47ZM644.958 122.78C642.828 122.78 641.478 125.54 641.478 129.92C641.478 134.3 642.828 137.06 644.958 137.06C647.118 137.06 648.468 134.3 648.468 129.92C648.468 125.54 647.118 122.78 644.958 122.78ZM679.996 127.4H687.556V129.44H679.996V127.4ZM673.456 120.56H675.496V125.39C675.496 131.48 672.286 137.3 667.996 139.61L666.406 137.63C670.396 135.65 673.456 130.43 673.456 125.39V120.56ZM673.936 120.56H675.946V125.39C675.946 130.34 679.006 135.26 682.936 137.12L681.466 139.13C677.086 136.91 673.936 131.33 673.936 125.39V120.56ZM686.326 118.19H688.786V145.37H686.326V118.19ZM709.161 121.01H711.201V123.2C711.201 128.18 708.201 132.32 703.671 133.94L702.351 131.99C706.461 130.55 709.161 127.07 709.161 123.2V121.01ZM709.611 121.01H711.651V123.17C711.651 126.77 714.261 130.1 718.251 131.45L716.961 133.4C712.491 131.84 709.611 127.85 709.611 123.17V121.01ZM703.131 120.11H717.621V122.15H703.131V120.11ZM721.041 118.22H723.531V134.54H721.041V118.22ZM722.841 125.36H727.551V127.43H722.841V125.36ZM705.921 135.98H723.531V145.34H721.041V138.05H705.921V135.98ZM741.109 132.62H743.569V137.3H741.109V132.62ZM730.069 131.3H754.579V133.34H730.069V131.3ZM732.349 119.06H752.269V121.1H732.349V119.06ZM732.469 126.77H752.149V128.81H732.469V126.77ZM736.459 119.96H738.949V128.09H736.459V119.96ZM745.699 119.96H748.159V128.09H745.699V119.96ZM733.069 136.49H751.579V144.98H733.069V136.49ZM749.149 138.47H735.529V142.97H749.149V138.47ZM769.936 118.67C775.906 118.67 779.476 120.35 779.476 123.38C779.476 126.41 775.906 128.09 769.936 128.09C763.936 128.09 760.396 126.41 760.396 123.38C760.396 120.35 763.936 118.67 769.936 118.67ZM769.936 120.56C765.496 120.56 762.946 121.58 762.946 123.38C762.946 125.18 765.496 126.2 769.936 126.2C774.346 126.2 776.896 125.18 776.896 123.38C776.896 121.58 774.346 120.56 769.936 120.56ZM757.666 129.89H782.176V131.9H757.666V129.89ZM760.636 134.21H779.056V140.33H763.156V143.63H760.696V138.53H776.596V136.13H760.636V134.21ZM760.696 143.09H779.866V145.04H760.696V143.09ZM812.271 118.22H814.761V133.58H812.271V118.22ZM814.071 124.82H818.781V126.89H814.071V124.82ZM804.771 119.96H807.411C807.411 126.8 802.641 131.72 794.661 133.88L793.701 131.9C800.721 129.98 804.771 126.05 804.771 121.07V119.96ZM794.871 119.96H806.151V121.97H794.871V119.96ZM797.691 134.87H814.761V144.98H797.691V134.87ZM812.301 136.88H800.151V142.94H812.301V136.88ZM827.899 119.63H829.969V122.39C829.969 127.61 827.029 131.93 822.499 133.7L821.179 131.69C825.259 130.19 827.899 126.53 827.899 122.39V119.63ZM828.349 119.63H830.389V122.57C830.389 126.23 833.089 129.62 836.989 130.97L835.669 132.92C831.319 131.3 828.349 127.28 828.349 122.57V119.63ZM839.869 118.22H842.359V134.66H839.869V118.22ZM841.669 125.21H846.379V127.31H841.669V125.21ZM833.719 135.41C839.269 135.41 842.629 137.24 842.629 140.36C842.629 143.48 839.269 145.28 833.719 145.28C828.169 145.28 824.809 143.48 824.809 140.36C824.809 137.24 828.169 135.41 833.719 135.41ZM833.719 137.39C829.699 137.39 827.239 138.47 827.239 140.36C827.239 142.25 829.699 143.33 833.719 143.33C837.739 143.33 840.199 142.25 840.199 140.36C840.199 138.47 837.739 137.39 833.719 137.39ZM848.867 122.84H862.307V124.88H848.867V122.84ZM855.587 126.68C858.977 126.68 861.437 129.23 861.437 132.89C861.437 136.52 858.977 139.07 855.587 139.07C852.227 139.07 849.767 136.52 849.767 132.89C849.767 129.23 852.227 126.68 855.587 126.68ZM855.587 128.81C853.517 128.81 852.017 130.49 852.017 132.89C852.017 135.29 853.517 136.97 855.587 136.97C857.687 136.97 859.217 135.29 859.217 132.89C859.217 130.49 857.687 128.81 855.587 128.81ZM869.477 118.22H871.877V145.34H869.477V118.22ZM865.157 129.62H870.287V131.69H865.157V129.62ZM863.687 118.82H866.027V144.02H863.687V118.82ZM854.387 119H856.847V124.1H854.387V119ZM876.524 139.82H901.094V141.89H876.524V139.82ZM887.504 133.34H889.994V140.42H887.504V133.34ZM879.404 120.14H881.864V124.97H895.694V120.14H898.154V134H879.404V120.14ZM881.864 126.98V131.96H895.694V126.98H881.864ZM923.832 118.22H926.322V145.34H923.832V118.22ZM905.832 120.86H908.292V137.66H905.832V120.86ZM905.832 136.19H908.052C912.162 136.19 916.452 135.89 921.042 134.93L921.342 137.06C916.632 138.02 912.342 138.35 908.052 138.35H905.832V136.19ZM947.387 120.29C951.317 120.29 954.137 123.98 954.137 129.74C954.137 135.53 951.317 139.22 947.387 139.22C943.427 139.22 940.637 135.53 940.637 129.74C940.637 123.98 943.427 120.29 947.387 120.29ZM947.387 122.54C944.777 122.54 943.007 125.36 943.007 129.74C943.007 134.15 944.777 137.03 947.387 137.03C949.997 137.03 951.767 134.15 951.767 129.74C951.767 125.36 949.997 122.54 947.387 122.54ZM960.017 118.19H962.477V145.37H960.017V118.19ZM953.327 128.54H961.097V130.58H953.327V128.54ZM968.565 136.31H969.735C971.355 136.31 973.245 136.28 975.375 135.74L975.675 137.81C973.365 138.35 971.505 138.38 969.735 138.38H968.565V136.31ZM968.565 120.95H975.255V122.99H971.025V137.27H968.565V120.95ZM976.725 136.31H978.105C980.805 136.31 982.815 136.22 985.155 135.65L985.395 137.72C982.935 138.32 980.925 138.38 978.105 138.38H976.725V136.31ZM976.725 120.95H984.075V122.99H979.185V137.3H976.725V120.95ZM987.855 118.22H990.345V145.34H987.855V118.22ZM982.725 128.12H988.755V130.19H982.725V128.12ZM1009.81 121.46H1015.93V123.5H1009.81V121.46ZM1009.81 126.8H1015.93V128.81H1009.81V126.8ZM1015.15 118.22H1017.64V134.12H1015.15V118.22ZM1002.1 119.18H1004.14V122C1004.14 127.34 1001.26 131.75 996.733 133.55L995.383 131.6C999.493 130.04 1002.1 126.26 1002.1 122V119.18ZM1002.52 119.18H1004.53V122C1004.53 125.93 1007.17 129.62 1011.1 131.15L1009.72 133.13C1005.4 131.33 1002.52 127.01 1002.52 122V119.18ZM1002.25 135.11H1004.2V136.31C1004.2 139.88 1001.98 143.51 998.083 145.01L996.823 143.15C1000.24 141.89 1002.25 138.95 1002.25 136.31V135.11ZM1002.82 135.11H1004.68V136.31C1004.68 139.07 1006.27 142.04 1009.54 143.36L1008.49 145.25C1004.56 143.72 1002.82 139.94 1002.82 136.31V135.11ZM1012.3 135.11H1014.13V136.31C1014.13 139.52 1012.36 143.6 1008.49 145.25L1007.41 143.36C1010.65 141.86 1012.3 138.68 1012.3 136.31V135.11ZM1012.78 135.11H1014.73V136.31C1014.73 139.16 1016.71 141.98 1020.19 143.15L1018.9 145.01C1014.97 143.57 1012.78 140.09 1012.78 136.31V135.11ZM1043.11 129.02H1048.12V131.12H1043.11V129.02ZM1041.28 118.19H1043.8V145.34H1041.28V118.19ZM1024 120.86H1026.49V137.66H1024V120.86ZM1024 136.37H1026.16C1030.18 136.37 1034.29 136.1 1038.76 135.17L1039.06 137.24C1034.44 138.2 1030.27 138.47 1026.16 138.47H1024V136.37ZM1056.55 132.17H1059.01V140.3H1056.55V132.17ZM1066.57 132.17H1069.06V140.3H1066.57V132.17ZM1050.55 139.82H1075.12V141.89H1050.55V139.82ZM1062.79 119.93C1068.52 119.93 1072.63 122.66 1072.63 126.92C1072.63 131.15 1068.52 133.88 1062.79 133.88C1057.03 133.88 1052.92 131.15 1052.92 126.92C1052.92 122.66 1057.03 119.93 1062.79 119.93ZM1062.79 121.91C1058.44 121.91 1055.32 123.89 1055.32 126.92C1055.32 129.92 1058.44 131.9 1062.79 131.9C1067.14 131.9 1070.23 129.92 1070.23 126.92C1070.23 123.89 1067.14 121.91 1062.79 121.91ZM1082.23 136.864V136.736C1082.24 135.379 1082.38 134.3 1082.65 133.497C1082.92 132.695 1083.31 132.045 1083.8 131.548C1084.3 131.05 1084.9 130.592 1085.59 130.173C1086.01 129.918 1086.39 129.616 1086.72 129.268C1087.06 128.913 1087.32 128.504 1087.51 128.043C1087.71 127.581 1087.81 127.07 1087.81 126.509C1087.81 125.812 1087.65 125.209 1087.32 124.697C1086.99 124.186 1086.56 123.792 1086.01 123.515C1085.46 123.238 1084.86 123.099 1084.19 123.099C1083.61 123.099 1083.04 123.22 1082.5 123.462C1081.97 123.703 1081.51 124.083 1081.15 124.602C1080.79 125.12 1080.58 125.798 1080.52 126.636H1077.84C1077.9 125.429 1078.21 124.396 1078.78 123.536C1079.35 122.677 1080.11 122.02 1081.05 121.565C1081.99 121.111 1083.04 120.884 1084.19 120.884C1085.44 120.884 1086.52 121.132 1087.45 121.629C1088.38 122.126 1089.1 122.808 1089.6 123.675C1090.11 124.541 1090.37 125.528 1090.37 126.636C1090.37 127.418 1090.25 128.124 1090 128.756C1089.77 129.388 1089.43 129.953 1088.98 130.45C1088.54 130.947 1088.01 131.388 1087.38 131.771C1086.76 132.162 1086.26 132.574 1085.88 133.007C1085.51 133.433 1085.23 133.941 1085.06 134.531C1084.89 135.12 1084.8 135.855 1084.78 136.736V136.864H1082.23ZM1083.59 143.17C1083.07 143.17 1082.61 142.982 1082.24 142.606C1081.86 142.229 1081.67 141.778 1081.67 141.253C1081.67 140.727 1081.86 140.276 1082.24 139.9C1082.61 139.523 1083.07 139.335 1083.59 139.335C1084.12 139.335 1084.57 139.523 1084.94 139.9C1085.32 140.276 1085.51 140.727 1085.51 141.253C1085.51 141.601 1085.42 141.92 1085.24 142.212C1085.07 142.503 1084.84 142.737 1084.55 142.915C1084.27 143.085 1083.95 143.17 1083.59 143.17ZM116.362 157.1H133.822V159.11H116.362V157.1ZM113.722 175.31H138.232V177.38H113.722V175.31ZM132.502 157.1H134.932V159.8C134.932 163.28 134.932 167.15 133.912 173L131.422 172.76C132.502 167.21 132.502 163.16 132.502 159.8V157.1ZM141.319 165.53H165.829V167.57H141.319V165.53ZM144.559 161.33H162.919V163.34H144.559V161.33ZM144.559 155.09H162.619V157.13H147.019V162.95H144.559V155.09ZM144.259 169.91H162.679V176.3H146.779V179.72H144.319V174.44H160.219V171.86H144.259V169.91ZM144.319 179.06H163.489V181.04H144.319V179.06ZM179.897 164.75H185.027V166.82H179.897V164.75ZM189.557 154.22H191.957V181.34H189.557V154.22ZM184.187 154.79H186.557V179.99H184.187V154.79ZM175.007 156.47C178.517 156.47 180.797 160.1 180.797 165.92C180.797 171.74 178.517 175.37 175.007 175.37C171.497 175.37 169.247 171.74 169.247 165.92C169.247 160.1 171.497 156.47 175.007 156.47ZM175.007 158.78C172.877 158.78 171.527 161.54 171.527 165.92C171.527 170.3 172.877 173.06 175.007 173.06C177.167 173.06 178.517 170.3 178.517 165.92C178.517 161.54 177.167 158.78 175.007 158.78ZM217.155 154.22H219.555V181.34H217.155V154.22ZM205.395 165.29H212.235V167.3H205.395V165.29ZM211.515 154.91H213.855V179.96H211.515V154.91ZM205.725 157.64H208.125C208.125 164.75 205.275 171.14 197.955 175.49L196.485 173.72C202.875 169.88 205.725 164.48 205.725 158.09V157.64ZM197.685 157.64H206.655V159.68H197.685V157.64ZM239.21 157.01H241.25V159.2C241.25 164.18 238.25 168.32 233.72 169.94L232.4 167.99C236.51 166.55 239.21 163.07 239.21 159.2V157.01ZM239.66 157.01H241.7V159.17C241.7 162.77 244.31 166.1 248.3 167.45L247.01 169.4C242.54 167.84 239.66 163.85 239.66 159.17V157.01ZM233.18 156.11H247.67V158.15H233.18V156.11ZM251.09 154.22H253.58V170.54H251.09V154.22ZM252.89 161.36H257.6V163.43H252.89V161.36ZM235.97 171.98H253.58V181.34H251.09V174.05H235.97V171.98ZM271.157 168.62H273.617V173.3H271.157V168.62ZM260.117 167.3H284.627V169.34H260.117V167.3ZM262.397 155.06H282.317V157.1H262.397V155.06ZM262.517 162.77H282.197V164.81H262.517V162.77ZM266.507 155.96H268.997V164.09H266.507V155.96ZM275.747 155.96H278.207V164.09H275.747V155.96ZM263.117 172.49H281.627V180.98H263.117V172.49ZM279.197 174.47H265.577V178.97H279.197V174.47ZM299.985 154.67C305.955 154.67 309.525 156.35 309.525 159.38C309.525 162.41 305.955 164.09 299.985 164.09C293.985 164.09 290.445 162.41 290.445 159.38C290.445 156.35 293.985 154.67 299.985 154.67ZM299.985 156.56C295.545 156.56 292.995 157.58 292.995 159.38C292.995 161.18 295.545 162.2 299.985 162.2C304.395 162.2 306.945 161.18 306.945 159.38C306.945 157.58 304.395 156.56 299.985 156.56ZM287.715 165.89H312.225V167.9H287.715V165.89ZM290.685 170.21H309.105V176.33H293.205V179.63H290.745V174.53H306.645V172.13H290.685V170.21ZM290.745 179.09H309.915V181.04H290.745V179.09ZM342.32 154.22H344.81V169.58H342.32V154.22ZM344.12 160.82H348.83V162.89H344.12V160.82ZM334.82 155.96H337.46C337.46 162.8 332.69 167.72 324.71 169.88L323.75 167.9C330.77 165.98 334.82 162.05 334.82 157.07V155.96ZM324.92 155.96H336.2V157.97H324.92V155.96ZM327.74 170.87H344.81V180.98H327.74V170.87ZM342.35 172.88H330.2V178.94H342.35V172.88ZM357.948 155.63H360.018V158.39C360.018 163.61 357.078 167.93 352.548 169.7L351.228 167.69C355.308 166.19 357.948 162.53 357.948 158.39V155.63ZM358.398 155.63H360.438V158.57C360.438 162.23 363.138 165.62 367.038 166.97L365.718 168.92C361.368 167.3 358.398 163.28 358.398 158.57V155.63ZM369.918 154.22H372.408V170.66H369.918V154.22ZM371.718 161.21H376.428V163.31H371.718V161.21ZM363.768 171.41C369.318 171.41 372.678 173.24 372.678 176.36C372.678 179.48 369.318 181.28 363.768 181.28C358.218 181.28 354.858 179.48 354.858 176.36C354.858 173.24 358.218 171.41 363.768 171.41ZM363.768 173.39C359.748 173.39 357.288 174.47 357.288 176.36C357.288 178.25 359.748 179.33 363.768 179.33C367.788 179.33 370.248 178.25 370.248 176.36C370.248 174.47 367.788 173.39 363.768 173.39ZM397.336 154.22H399.826V181.34H397.336V154.22ZM399.226 165.35H404.266V167.45H399.226V165.35ZM378.826 158.54H394.816V160.58H378.826V158.54ZM386.926 162.83C390.766 162.83 393.526 165.41 393.526 169.07C393.526 172.73 390.766 175.31 386.926 175.31C383.116 175.31 380.326 172.73 380.326 169.07C380.326 165.41 383.116 162.83 386.926 162.83ZM386.926 164.9C384.466 164.9 382.696 166.61 382.696 169.07C382.696 171.5 384.466 173.24 386.926 173.24C389.386 173.24 391.156 171.5 391.156 169.07C391.156 166.61 389.386 164.9 386.926 164.9ZM385.636 154.55H388.126V159.47H385.636V154.55ZM409.873 162.35H428.293V164.39H409.873V162.35ZM406.543 168.02H431.143V170.06H406.543V168.02ZM409.873 155.21H412.333V163.37H409.873V155.21ZM409.693 178.64H428.443V180.68H409.693V178.64ZM409.693 172.76H412.153V179.18H409.693V172.76ZM462.408 154.22H464.898V172.58H462.408V154.22ZM456.588 161.87H462.918V163.91H456.588V161.87ZM453.888 156.35H456.498C456.498 163.37 451.878 168.35 444.108 170.87L443.058 168.89C449.928 166.73 453.888 162.65 453.888 157.34V156.35ZM444.348 156.35H455.658V158.39H444.348V156.35ZM454.908 170.24H457.038V171.47C457.038 176.66 452.298 180.17 446.868 181.28L445.878 179.3C450.678 178.43 454.908 175.43 454.908 171.47V170.24ZM455.268 170.24H457.398V171.47C457.398 175.37 461.568 178.37 466.398 179.24L465.348 181.22C459.948 180.14 455.268 176.63 455.268 171.47V170.24ZM470.176 168.47H494.686V170.51H470.176V168.47ZM473.356 178.7H491.986V180.74H473.356V178.7ZM473.356 172.88H475.846V179.33H473.356V172.88ZM482.446 155.12C488.236 155.12 491.986 157.16 491.986 160.55C491.986 163.91 488.236 165.95 482.446 165.95C476.626 165.95 472.906 163.91 472.906 160.55C472.906 157.16 476.626 155.12 482.446 155.12ZM482.446 157.16C478.186 157.16 475.456 158.42 475.456 160.55C475.456 162.68 478.186 163.94 482.446 163.94C486.706 163.94 489.436 162.68 489.436 160.55C489.436 158.42 486.706 157.16 482.446 157.16ZM513.381 156.56H515.421V161.42C515.421 167.66 512.061 173.45 507.621 175.7L506.091 173.66C510.111 171.74 513.381 166.55 513.381 161.42V156.56ZM513.801 156.56H515.841V161.42C515.841 166.37 519.081 171.35 523.101 173.21L521.601 175.19C517.191 173.03 513.801 167.45 513.801 161.42V156.56ZM525.921 154.19H528.411V181.37H525.921V154.19ZM552.379 154.22H554.869V170.12H552.379V154.22ZM554.179 161.06H558.889V163.16H554.179V161.06ZM544.879 155.96H547.489C547.489 162.8 542.719 167.69 534.799 169.85L533.779 167.9C540.799 165.98 544.879 162.05 544.879 157.04V155.96ZM534.979 155.96H546.259V157.97H534.979V155.96ZM537.259 171.38H554.869V181.34H552.379V173.39H537.259V171.38ZM568.337 156.98H570.377V159.17C570.377 164.12 567.317 168.35 562.787 170.03L561.497 168.05C565.547 166.61 568.337 163.01 568.337 159.17V156.98ZM568.817 156.98H570.827V159.17C570.827 162.65 573.467 166.04 577.397 167.42L576.137 169.4C571.727 167.78 568.817 163.7 568.817 159.17V156.98ZM575.927 161.27H581.957V163.34H575.927V161.27ZM562.277 156.08H576.767V158.09H562.277V156.08ZM565.637 171.92H583.727V181.34H581.237V173.96H565.637V171.92ZM581.237 154.22H583.727V170.45H581.237V154.22ZM608.744 154.25H611.264V174.05H608.744V154.25ZM593.834 178.7H612.074V180.74H593.834V178.7ZM593.834 172.01H596.294V179.39H593.834V172.01ZM596.714 156.11C600.764 156.11 603.764 158.87 603.764 162.8C603.764 166.7 600.764 169.49 596.714 169.49C592.664 169.49 589.634 166.7 589.634 162.8C589.634 158.87 592.664 156.11 596.714 156.11ZM596.714 158.27C594.074 158.27 592.064 160.13 592.064 162.8C592.064 165.44 594.074 167.3 596.714 167.3C599.354 167.3 601.364 165.44 601.364 162.8C601.364 160.13 599.354 158.27 596.714 158.27ZM644.869 154.22H647.359V172.58H644.869V154.22ZM639.049 161.87H645.379V163.91H639.049V161.87ZM636.349 156.35H638.959C638.959 163.37 634.339 168.35 626.569 170.87L625.519 168.89C632.389 166.73 636.349 162.65 636.349 157.34V156.35ZM626.809 156.35H638.119V158.39H626.809V156.35ZM637.369 170.24H639.499V171.47C639.499 176.66 634.759 180.17 629.329 181.28L628.339 179.3C633.139 178.43 637.369 175.43 637.369 171.47V170.24ZM637.729 170.24H639.859V171.47C639.859 175.37 644.029 178.37 648.859 179.24L647.809 181.22C642.409 180.14 637.729 176.63 637.729 171.47V170.24ZM664.907 154.67C670.877 154.67 674.447 156.35 674.447 159.38C674.447 162.41 670.877 164.09 664.907 164.09C658.907 164.09 655.367 162.41 655.367 159.38C655.367 156.35 658.907 154.67 664.907 154.67ZM664.907 156.56C660.467 156.56 657.917 157.58 657.917 159.38C657.917 161.18 660.467 162.2 664.907 162.2C669.317 162.2 671.867 161.18 671.867 159.38C671.867 157.58 669.317 156.56 664.907 156.56ZM652.637 165.89H677.147V167.9H652.637V165.89ZM655.607 170.21H674.027V176.33H658.127V179.63H655.667V174.53H671.567V172.13H655.607V170.21ZM655.667 179.09H674.837V181.04H655.667V179.09ZM696.622 170.03H699.142V180.5H696.622V170.03ZM708.712 154.22H711.202V181.37H708.712V154.22ZM688.852 171.29L688.492 169.22C694.012 169.22 700.852 169.19 707.062 168.47L707.212 170.33C700.852 171.29 694.192 171.32 688.852 171.29ZM698.632 163.91H705.982V165.92H698.632V163.91ZM698.632 156.2H705.772V158.24H701.092V164.81H698.632V156.2ZM690.232 156.2H697.222V158.24H692.692V164.93H690.232V156.2ZM690.232 163.91H691.462C693.292 163.91 695.212 163.88 697.492 163.34L697.732 165.35C695.302 165.89 693.382 165.92 691.462 165.92H690.232V163.91ZM723.53 156.29C727.46 156.29 730.28 159.98 730.28 165.74C730.28 171.53 727.46 175.22 723.53 175.22C719.57 175.22 716.78 171.53 716.78 165.74C716.78 159.98 719.57 156.29 723.53 156.29ZM723.53 158.54C720.92 158.54 719.15 161.36 719.15 165.74C719.15 170.15 720.92 173.03 723.53 173.03C726.14 173.03 727.91 170.15 727.91 165.74C727.91 161.36 726.14 158.54 723.53 158.54ZM736.16 154.19H738.62V181.37H736.16V154.19ZM729.47 164.54H737.24V166.58H729.47V164.54ZM748.727 171.17H766.187V180.98H748.727V171.17ZM763.757 173.15H751.157V178.97H763.757V173.15ZM745.457 155.84H747.947V167.09H745.457V155.84ZM745.457 166.01H747.527C751.877 166.01 755.537 165.77 759.557 164.93L759.857 167.03C755.717 167.87 751.967 168.14 747.527 168.14H745.457V166.01ZM763.697 154.22H766.187V169.82H763.697V154.22ZM756.047 159.29H764.327V161.33H756.047V159.29ZM778.725 156.29C782.655 156.29 785.475 159.98 785.475 165.74C785.475 171.53 782.655 175.22 778.725 175.22C774.765 175.22 771.975 171.53 771.975 165.74C771.975 159.98 774.765 156.29 778.725 156.29ZM778.725 158.54C776.115 158.54 774.345 161.36 774.345 165.74C774.345 170.15 776.115 173.03 778.725 173.03C781.335 173.03 783.105 170.15 783.105 165.74C783.105 161.36 781.335 158.54 778.725 158.54ZM791.355 154.19H793.815V181.37H791.355V154.19ZM784.665 164.54H792.435V166.58H784.665V164.54ZM825.86 154.19H828.38V181.37H825.86V154.19ZM827.78 164.9H832.82V167H827.78V164.9ZM808.67 172.52H810.8C815.81 172.52 819.32 172.34 823.37 171.59L823.64 173.69C819.47 174.47 815.9 174.62 810.8 174.62H808.67V172.52ZM808.67 156.83H821.27V158.87H811.13V173.45H808.67V156.83ZM855.408 158.27H860.118V160.34H855.408V158.27ZM855.408 164.03H860.118V166.1H855.408V164.03ZM842.688 155.81C846.768 155.81 849.768 158.45 849.768 162.23C849.768 165.98 846.768 168.59 842.688 168.59C838.608 168.59 835.608 165.98 835.608 162.23C835.608 158.45 838.608 155.81 842.688 155.81ZM842.688 157.91C839.988 157.91 838.038 159.68 838.038 162.23C838.038 164.78 839.988 166.52 842.688 166.52C845.388 166.52 847.338 164.78 847.338 162.23C847.338 159.68 845.388 157.91 842.688 157.91ZM853.668 154.22H856.158V170.27H853.668V154.22ZM847.518 171.14C853.038 171.14 856.428 173.03 856.428 176.21C856.428 179.42 853.038 181.28 847.518 181.28C841.998 181.28 838.608 179.42 838.608 176.21C838.608 173.03 841.998 171.14 847.518 171.14ZM847.518 173.15C843.498 173.15 841.038 174.26 841.038 176.21C841.038 178.16 843.498 179.3 847.518 179.3C851.538 179.3 853.998 178.16 853.998 176.21C853.998 174.26 851.538 173.15 847.518 173.15ZM881.266 154.25H883.756V174.59H881.266V154.25ZM882.976 163.13H887.776V165.23H882.976V163.13ZM862.786 157.52H878.806V159.53H862.786V157.52ZM870.796 161.03C874.636 161.03 877.276 163.04 877.276 166.1C877.276 169.13 874.636 171.14 870.796 171.14C866.926 171.14 864.286 169.13 864.286 166.1C864.286 163.04 866.926 161.03 870.796 161.03ZM870.796 162.98C868.336 162.98 866.656 164.21 866.656 166.1C866.656 167.96 868.336 169.19 870.796 169.19C873.226 169.19 874.906 167.96 874.906 166.1C874.906 164.21 873.226 162.98 870.796 162.98ZM869.536 154.22H872.026V158.57H869.536V154.22ZM866.866 178.7H884.986V180.74H866.866V178.7ZM866.866 172.97H869.356V179.57H866.866V172.97ZM917.301 154.22H919.791V169.58H917.301V154.22ZM919.101 160.82H923.811V162.89H919.101V160.82ZM909.801 155.96H912.441C912.441 162.8 907.671 167.72 899.691 169.88L898.731 167.9C905.751 165.98 909.801 162.05 909.801 157.07V155.96ZM899.901 155.96H911.181V157.97H899.901V155.96ZM902.721 170.87H919.791V180.98H902.721V170.87ZM917.331 172.88H905.181V178.94H917.331V172.88ZM944.898 154.22H947.388V170.12H944.898V154.22ZM946.698 161.06H951.408V163.16H946.698V161.06ZM937.398 155.96H940.008C940.008 162.8 935.238 167.69 927.318 169.85L926.298 167.9C933.318 165.98 937.398 162.05 937.398 157.04V155.96ZM927.498 155.96H938.778V157.97H927.498V155.96ZM929.778 171.38H947.388V181.34H944.898V173.39H929.778V171.38ZM955.156 157.19H967.426V159.2H955.156V157.19ZM959.386 164.93H961.846V174.11H959.386V164.93ZM966.406 157.19H968.836V158.63C968.836 160.85 968.836 164.39 968.056 169.43L965.596 169.19C966.406 164.3 966.406 160.82 966.406 158.63V157.19ZM972.256 154.22H974.716V181.34H972.256V154.22ZM974.056 165.56H979.066V167.66H974.056V165.56ZM953.956 175.43L953.656 173.33C958.576 173.33 965.116 173.24 970.606 172.55L970.726 174.38C965.116 175.28 958.756 175.4 953.956 175.43ZM996.561 155.63H998.631V158.39C998.631 163.61 995.691 167.93 991.161 169.7L989.841 167.69C993.921 166.19 996.561 162.53 996.561 158.39V155.63ZM997.011 155.63H999.051V158.57C999.051 162.23 1001.75 165.62 1005.65 166.97L1004.33 168.92C999.981 167.3 997.011 163.28 997.011 158.57V155.63ZM1008.53 154.22H1011.02V170.66H1008.53V154.22ZM1010.33 161.21H1015.04V163.31H1010.33V161.21ZM1002.38 171.41C1007.93 171.41 1011.29 173.24 1011.29 176.36C1011.29 179.48 1007.93 181.28 1002.38 181.28C996.831 181.28 993.471 179.48 993.471 176.36C993.471 173.24 996.831 171.41 1002.38 171.41ZM1002.38 173.39C998.361 173.39 995.901 174.47 995.901 176.36C995.901 178.25 998.361 179.33 1002.38 179.33C1006.4 179.33 1008.86 178.25 1008.86 176.36C1008.86 174.47 1006.4 173.39 1002.38 173.39ZM1024.16 155.63H1026.23V158.39C1026.23 163.61 1023.29 167.93 1018.76 169.7L1017.44 167.69C1021.52 166.19 1024.16 162.53 1024.16 158.39V155.63ZM1024.61 155.63H1026.65V158.57C1026.65 162.23 1029.35 165.62 1033.25 166.97L1031.93 168.92C1027.58 167.3 1024.61 163.28 1024.61 158.57V155.63ZM1036.13 154.22H1038.62V170.66H1036.13V154.22ZM1037.93 161.21H1042.64V163.31H1037.93V161.21ZM1029.98 171.41C1035.53 171.41 1038.89 173.24 1038.89 176.36C1038.89 179.48 1035.53 181.28 1029.98 181.28C1024.43 181.28 1021.07 179.48 1021.07 176.36C1021.07 173.24 1024.43 171.41 1029.98 171.41ZM1029.98 173.39C1025.96 173.39 1023.5 174.47 1023.5 176.36C1023.5 178.25 1025.96 179.33 1029.98 179.33C1034 179.33 1036.46 178.25 1036.46 176.36C1036.46 174.47 1034 173.39 1029.98 173.39ZM1057.43 154.67C1063.4 154.67 1066.97 156.35 1066.97 159.38C1066.97 162.41 1063.4 164.09 1057.43 164.09C1051.43 164.09 1047.89 162.41 1047.89 159.38C1047.89 156.35 1051.43 154.67 1057.43 154.67ZM1057.43 156.56C1052.99 156.56 1050.44 157.58 1050.44 159.38C1050.44 161.18 1052.99 162.2 1057.43 162.2C1061.84 162.2 1064.39 161.18 1064.39 159.38C1064.39 157.58 1061.84 156.56 1057.43 156.56ZM1045.16 165.89H1069.67V167.9H1045.16V165.89ZM1048.13 170.21H1066.55V176.33H1050.65V179.63H1048.19V174.53H1064.09V172.13H1048.13V170.21ZM1048.19 179.09H1067.36V181.04H1048.19V179.09ZM1081.19 168.59H1105.7V170.6H1081.19V168.59ZM1092.2 165.08H1094.66V169.43H1092.2V165.08ZM1084.43 163.97H1102.82V165.92H1084.43V163.97ZM1084.43 155H1102.7V156.95H1086.89V165.02H1084.43V155ZM1086.17 159.44H1101.98V161.36H1086.17V159.44ZM1093.43 172.61C1099.34 172.61 1102.73 174.11 1102.73 176.96C1102.73 179.78 1099.34 181.28 1093.43 181.28C1087.52 181.28 1084.13 179.78 1084.13 176.96C1084.13 174.11 1087.52 172.61 1093.43 172.61ZM1093.43 174.5C1089.08 174.5 1086.65 175.37 1086.65 176.96C1086.65 178.58 1089.08 179.42 1093.43 179.42C1097.78 179.42 1100.21 178.58 1100.21 176.96C1100.21 175.37 1097.78 174.5 1093.43 174.5ZM1127.36 154.25H1129.85V174.59H1127.36V154.25ZM1129.07 163.13H1133.87V165.23H1129.07V163.13ZM1108.88 157.52H1124.9V159.53H1108.88V157.52ZM1116.89 161.03C1120.73 161.03 1123.37 163.04 1123.37 166.1C1123.37 169.13 1120.73 171.14 1116.89 171.14C1113.02 171.14 1110.38 169.13 1110.38 166.1C1110.38 163.04 1113.02 161.03 1116.89 161.03ZM1116.89 162.98C1114.43 162.98 1112.75 164.21 1112.75 166.1C1112.75 167.96 1114.43 169.19 1116.89 169.19C1119.32 169.19 1121 167.96 1121 166.1C1121 164.21 1119.32 162.98 1116.89 162.98ZM1115.63 154.22H1118.12V158.57H1115.63V154.22ZM1112.96 178.7H1131.08V180.74H1112.96V178.7ZM1112.96 172.97H1115.45V179.57H1112.96V172.97ZM1157.81 159.2H1165.07V161.24H1157.81V159.2ZM1157.57 164.84H1164.89V166.88H1157.57V164.84ZM1164.65 154.22H1167.14V170.48H1164.65V154.22ZM1156.16 156.26H1158.83C1158.83 163.25 1154 168.14 1146.2 170.48L1145.18 168.47C1152.11 166.46 1156.16 162.47 1156.16 157.34V156.26ZM1146.59 156.26H1157.87V158.3H1146.59V156.26ZM1158.32 170.78C1163.81 170.78 1167.29 172.73 1167.29 176C1167.29 179.27 1163.81 181.22 1158.32 181.22C1152.83 181.22 1149.35 179.27 1149.35 176C1149.35 172.73 1152.83 170.78 1158.32 170.78ZM1158.32 172.73C1154.36 172.73 1151.81 173.96 1151.81 176C1151.81 178.04 1154.36 179.24 1158.32 179.24C1162.31 179.24 1164.86 178.04 1164.86 176C1164.86 173.96 1162.31 172.73 1158.32 172.73ZM1192.25 154.22H1194.74V170.63H1192.25V154.22ZM1187.75 162.44H1193.36V164.51H1187.75V162.44ZM1177.16 172.07H1194.74V180.98H1177.16V172.07ZM1192.31 174.08H1179.59V178.97H1192.31V174.08ZM1172.48 157.04H1188.17V159.05H1172.48V157.04ZM1180.31 160.43C1183.97 160.43 1186.58 162.41 1186.58 165.29C1186.58 168.17 1183.97 170.09 1180.31 170.09C1176.65 170.09 1174.04 168.17 1174.04 165.29C1174.04 162.41 1176.65 160.43 1180.31 160.43ZM1180.31 162.35C1178.03 162.35 1176.41 163.52 1176.41 165.29C1176.41 167.03 1178.03 168.2 1180.31 168.2C1182.59 168.2 1184.21 167.03 1184.21 165.29C1184.21 163.52 1182.59 162.35 1180.31 162.35ZM1179.08 153.95H1181.57V158.48H1179.08V153.95ZM1219.73 154.19H1222.22V181.37H1219.73V154.19ZM1207.91 156.29C1211.93 156.29 1214.81 159.98 1214.81 165.74C1214.81 171.53 1211.93 175.22 1207.91 175.22C1203.92 175.22 1201.04 171.53 1201.04 165.74C1201.04 159.98 1203.92 156.29 1207.91 156.29ZM1207.91 158.54C1205.27 158.54 1203.41 161.36 1203.41 165.74C1203.41 170.15 1205.27 173.03 1207.91 173.03C1210.58 173.03 1212.41 170.15 1212.41 165.74C1212.41 161.36 1210.58 158.54 1207.91 158.54ZM1234.82 158.09H1236.83V162.5C1236.83 168.23 1233.38 173.99 1229.06 176.12L1227.62 174.14C1231.55 172.28 1234.82 167.18 1234.82 162.5V158.09ZM1235.3 158.09H1237.31V162.5C1237.31 167.09 1240.58 171.77 1244.57 173.48L1243.16 175.46C1238.78 173.42 1235.3 168.14 1235.3 162.5V158.09ZM1228.52 156.98H1243.67V159.08H1228.52V156.98ZM1247.33 154.22H1249.82V181.34H1247.33V154.22ZM1271.15 155.75C1275.2 155.75 1278.17 158.33 1278.17 162.02C1278.17 165.71 1275.2 168.29 1271.15 168.29C1267.13 168.29 1264.16 165.71 1264.16 162.02C1264.16 158.33 1267.13 155.75 1271.15 155.75ZM1271.15 157.79C1268.57 157.79 1266.59 159.56 1266.59 162.02C1266.59 164.48 1268.57 166.25 1271.15 166.25C1273.79 166.25 1275.77 164.48 1275.77 162.02C1275.77 159.56 1273.79 157.79 1271.15 157.79ZM1282.22 154.22H1284.71V167.72H1282.22V154.22ZM1283.63 160.31H1288.73V162.35H1283.63V160.31ZM1266.5 178.58H1267.79C1269.41 178.58 1272.02 178.43 1274.33 177.65L1274.75 179.66C1272.14 180.5 1269.65 180.62 1267.79 180.62H1266.5V178.58ZM1266.5 170.66H1268.93V179.3H1266.5V170.66ZM1273.76 170.84H1287.38V172.7H1273.76V170.84ZM1280.6 173.66C1283.54 173.66 1285.61 175.13 1285.61 177.47C1285.61 179.84 1283.54 181.31 1280.6 181.31C1277.63 181.31 1275.56 179.84 1275.56 177.47C1275.56 175.13 1277.63 173.66 1280.6 173.66ZM1280.6 175.43C1278.92 175.43 1277.78 176.24 1277.78 177.47C1277.78 178.73 1278.92 179.54 1280.6 179.54C1282.22 179.54 1283.39 178.73 1283.39 177.47C1283.39 176.24 1282.22 175.43 1280.6 175.43ZM1279.37 168.41H1281.8V172.28H1279.37V168.41ZM1303.52 154.67C1309.49 154.67 1313.06 156.35 1313.06 159.38C1313.06 162.41 1309.49 164.09 1303.52 164.09C1297.52 164.09 1293.98 162.41 1293.98 159.38C1293.98 156.35 1297.52 154.67 1303.52 154.67ZM1303.52 156.56C1299.08 156.56 1296.53 157.58 1296.53 159.38C1296.53 161.18 1299.08 162.2 1303.52 162.2C1307.93 162.2 1310.48 161.18 1310.48 159.38C1310.48 157.58 1307.93 156.56 1303.52 156.56ZM1291.25 165.89H1315.76V167.9H1291.25V165.89ZM1294.22 170.21H1312.64V176.33H1296.74V179.63H1294.28V174.53H1310.18V172.13H1294.22V170.21ZM1294.28 179.09H1313.45V181.04H1294.28V179.09ZM1337.69 154.22H1340.15V181.34H1337.69V154.22ZM1339.37 165.38H1344.2V167.48H1339.37V165.38ZM1324.7 157.13H1326.98C1326.98 163.67 1325.6 170 1320.74 175.25L1318.73 173.84C1323.2 169.19 1324.7 163.55 1324.7 157.4V157.13ZM1319.6 157.13H1325.63V159.2H1319.6V157.13ZM1332.08 157.13H1334.39C1334.39 163.7 1333.46 171.14 1328.48 177.05L1326.47 175.67C1331.06 170.36 1332.08 163.64 1332.08 157.37V157.13ZM1327.85 157.13H1333.1V159.2H1327.85V157.13ZM1352.48 168.17H1354.94V176.3H1352.48V168.17ZM1362.5 168.17H1364.99V176.3H1362.5V168.17ZM1346.48 175.82H1371.05V177.89H1346.48V175.82ZM1358.72 155.93C1364.45 155.93 1368.56 158.66 1368.56 162.92C1368.56 167.15 1364.45 169.88 1358.72 169.88C1352.96 169.88 1348.85 167.15 1348.85 162.92C1348.85 158.66 1352.96 155.93 1358.72 155.93ZM1358.72 157.91C1354.37 157.91 1351.25 159.89 1351.25 162.92C1351.25 165.92 1354.37 167.9 1358.72 167.9C1363.07 167.9 1366.16 165.92 1366.16 162.92C1366.16 159.89 1363.07 157.91 1358.72 157.91ZM1378.16 172.864V172.736C1378.17 171.379 1378.31 170.3 1378.58 169.497C1378.85 168.695 1379.24 168.045 1379.73 167.548C1380.23 167.05 1380.83 166.592 1381.52 166.173C1381.94 165.918 1382.32 165.616 1382.65 165.268C1382.99 164.913 1383.25 164.504 1383.44 164.043C1383.64 163.581 1383.74 163.07 1383.74 162.509C1383.74 161.812 1383.57 161.209 1383.25 160.697C1382.92 160.186 1382.48 159.792 1381.94 159.515C1381.39 159.238 1380.78 159.099 1380.12 159.099C1379.53 159.099 1378.97 159.22 1378.43 159.462C1377.89 159.703 1377.44 160.083 1377.08 160.602C1376.72 161.12 1376.51 161.798 1376.45 162.636H1373.77C1373.82 161.429 1374.14 160.396 1374.7 159.536C1375.28 158.677 1376.04 158.02 1376.97 157.565C1377.92 157.111 1378.97 156.884 1380.12 156.884C1381.37 156.884 1382.45 157.132 1383.38 157.629C1384.31 158.126 1385.02 158.808 1385.53 159.675C1386.04 160.541 1386.29 161.528 1386.29 162.636C1386.29 163.418 1386.17 164.124 1385.93 164.756C1385.7 165.388 1385.36 165.953 1384.91 166.45C1384.47 166.947 1383.94 167.388 1383.31 167.771C1382.69 168.162 1382.19 168.574 1381.81 169.007C1381.43 169.433 1381.16 169.941 1380.99 170.531C1380.82 171.12 1380.73 171.855 1380.71 172.736V172.864H1378.16ZM1379.52 179.17C1378.99 179.17 1378.54 178.982 1378.17 178.606C1377.79 178.229 1377.6 177.778 1377.6 177.253C1377.6 176.727 1377.79 176.276 1378.17 175.9C1378.54 175.523 1378.99 175.335 1379.52 175.335C1380.04 175.335 1380.5 175.523 1380.87 175.9C1381.25 176.276 1381.44 176.727 1381.44 177.253C1381.44 177.601 1381.35 177.92 1381.17 178.212C1381 178.503 1380.77 178.737 1380.48 178.915C1380.19 179.085 1379.87 179.17 1379.52 179.17Z" fill="black"/>
<defs>
<filter id="filter0_di_119_25" x="27.9453" y="18.875" width="1476.11" height="227.068" filterUnits="userSpaceOnUse" color-interpolation-filters="sRGB">
<feFlood flood-opacity="0" result="BackgroundImageFix"/>
<feColorMatrix in="SourceAlpha" type="matrix" values="0 0 0 0 0 0 0 0 0 0 0 0 0 0 0 0 0 0 127 0" result="hardAlpha"/>
<feOffset dy="4"/>
<feGaussianBlur stdDeviation="2"/>
<feComposite in2="hardAlpha" operator="out"/>
<feColorMatrix type="matrix" values="0 0 0 0 0 0 0 0 0 0 0 0 0 0 0 0 0 0 0.25 0"/>
<feBlend mode="normal" in2="BackgroundImageFix" result="effect1_dropShadow_119_25"/>
<feBlend mode="normal" in="SourceGraphic" in2="effect1_dropShadow_119_25" result="shape"/>
<feColorMatrix in="SourceAlpha" type="matrix" values="0 0 0 0 0 0 0 0 0 0 0 0 0 0 0 0 0 0 127 0" result="hardAlpha"/>
<feOffset dy="4"/>
<feGaussianBlur stdDeviation="2"/>
<feComposite in2="hardAlpha" operator="arithmetic" k2="-1" k3="1"/>
<feColorMatrix type="matrix" values="0 0 0 0 0 0 0 0 0 0 0 0 0 0 0 0 0 0 0.25 0"/>
<feBlend mode="normal" in2="shape" result="effect2_innerShadow_119_25"/>
</filter>
<filter id="filter1_di_119_25" x="65.9648" y="32.4774" width="1398.84" height="197.716" filterUnits="userSpaceOnUse" color-interpolation-filters="sRGB">
<feFlood flood-opacity="0" result="BackgroundImageFix"/>
<feColorMatrix in="SourceAlpha" type="matrix" values="0 0 0 0 0 0 0 0 0 0 0 0 0 0 0 0 0 0 127 0" result="hardAlpha"/>
<feOffset dy="4"/>
<feGaussianBlur stdDeviation="2"/>
<feComposite in2="hardAlpha" operator="out"/>
<feColorMatrix type="matrix" values="0 0 0 0 0 0 0 0 0 0 0 0 0 0 0 0 0 0 0.25 0"/>
<feBlend mode="normal" in2="BackgroundImageFix" result="effect1_dropShadow_119_25"/>
<feBlend mode="normal" in="SourceGraphic" in2="effect1_dropShadow_119_25" result="shape"/>
<feColorMatrix in="SourceAlpha" type="matrix" values="0 0 0 0 0 0 0 0 0 0 0 0 0 0 0 0 0 0 127 0" result="hardAlpha"/>
<feOffset dy="4"/>
<feGaussianBlur stdDeviation="2"/>
<feComposite in2="hardAlpha" operator="arithmetic" k2="-1" k3="1"/>
<feColorMatrix type="matrix" values="0 0 0 0 0 0 0 0 0 0 0 0 0 0 0 0 0 0 0.25 0"/>
<feBlend mode="normal" in2="shape" result="effect2_innerShadow_119_25"/>
</filter>
</defs>
</svg>
