<svg width="1516" height="253" viewBox="0 0 1516 253" fill="none" xmlns="http://www.w3.org/2000/svg">
<rect x="16" y="11" width="1500" height="242" fill="#FFD0C5"/>
<g filter="url(#filter0_di_119_6)">
<rect x="31.9453" y="18.875" width="1468.11" height="219.068" fill="#FFB5A4"/>
</g>
<g filter="url(#filter1_di_119_6)">
<rect width="1390.84" height="189.716" transform="matrix(1 0 0 -1 69.9648 222.193)" fill="#FFD0C5"/>
</g>
<path d="M337.156 89.24H343.276V91.31H337.156V89.24ZM342.496 82.22H344.986V98.39H342.496V82.22ZM336.076 99.2C341.656 99.2 345.106 101.09 345.106 104.27C345.106 107.48 341.656 109.31 336.076 109.31C330.466 109.31 327.016 107.48 327.016 104.27C327.016 101.09 330.466 99.2 336.076 99.2ZM336.076 101.15C331.996 101.15 329.506 102.29 329.506 104.27C329.506 106.22 331.996 107.36 336.076 107.36C340.156 107.36 342.646 106.22 342.646 104.27C342.646 102.29 340.156 101.15 336.076 101.15ZM329.596 84.95H331.636V87.14C331.636 92.15 328.576 96.44 324.076 98.12L322.786 96.14C326.806 94.67 329.596 91.04 329.596 87.14V84.95ZM330.076 84.95H332.086V87.14C332.086 90.65 334.726 94.01 338.656 95.39L337.396 97.37C332.986 95.78 330.076 91.7 330.076 87.14V84.95ZM323.536 84.2H338.026V86.24H323.536V84.2ZM368.834 82.22H371.324V96.68H368.834V82.22ZM370.634 88.55H375.344V90.62H370.634V88.55ZM351.524 93.71H353.624C359.204 93.71 362.354 93.53 365.984 92.81L366.254 94.82C362.534 95.6 359.324 95.78 353.624 95.78H351.524V93.71ZM351.524 83.99H363.464V86.03H353.984V95.12H351.524V83.99ZM354.224 98.15H356.684V101.48H368.864V98.15H371.324V108.89H354.224V98.15ZM356.684 103.46V106.85H368.864V103.46H356.684ZM397.602 82.22H400.122V96.77H397.602V82.22ZM382.632 98.12H385.092V101.42H397.662V98.12H400.122V108.98H382.632V98.12ZM385.092 103.4V106.97H397.662V103.4H385.092ZM385.572 83.51C389.682 83.51 392.622 86.06 392.622 89.75C392.622 93.47 389.682 96.02 385.572 96.02C381.462 96.02 378.492 93.47 378.492 89.75C378.492 86.06 381.462 83.51 385.572 83.51ZM385.572 85.58C382.872 85.58 380.922 87.29 380.922 89.75C380.922 92.21 382.872 93.92 385.572 93.92C388.272 93.92 390.222 92.21 390.222 89.75C390.222 87.29 388.272 85.58 385.572 85.58ZM425.199 82.22H427.689V109.34H425.199V82.22ZM407.199 84.86H409.659V101.66H407.199V84.86ZM407.199 100.19H409.419C413.529 100.19 417.819 99.89 422.409 98.93L422.709 101.06C417.999 102.02 413.709 102.35 409.419 102.35H407.199V100.19ZM451.417 82.19H453.937V109.37H451.417V82.19ZM453.337 92.9H458.377V95H453.337V92.9ZM434.227 100.52H436.357C441.367 100.52 444.877 100.34 448.927 99.59L449.197 101.69C445.027 102.47 441.457 102.62 436.357 102.62H434.227V100.52ZM434.227 84.83H446.827V86.87H436.687V101.45H434.227V84.83ZM463.318 107.17C462.793 107.17 462.342 106.982 461.965 106.606C461.589 106.229 461.4 105.778 461.4 105.253C461.4 104.727 461.589 104.276 461.965 103.9C462.342 103.523 462.793 103.335 463.318 103.335C463.844 103.335 464.295 103.523 464.671 103.9C465.047 104.276 465.236 104.727 465.236 105.253C465.236 105.601 465.147 105.92 464.969 106.212C464.799 106.503 464.568 106.737 464.277 106.915C463.993 107.085 463.673 107.17 463.318 107.17ZM497.064 82.19H499.554V109.37H497.064V82.19ZM485.244 84.29C489.264 84.29 492.144 87.98 492.144 93.74C492.144 99.53 489.264 103.22 485.244 103.22C481.254 103.22 478.374 99.53 478.374 93.74C478.374 87.98 481.254 84.29 485.244 84.29ZM485.244 86.54C482.604 86.54 480.744 89.36 480.744 93.74C480.744 98.15 482.604 101.03 485.244 101.03C487.914 101.03 489.744 98.15 489.744 93.74C489.744 89.36 487.914 86.54 485.244 86.54ZM520.079 85.01H522.119V87.2C522.119 92.18 519.119 96.32 514.589 97.94L513.269 95.99C517.379 94.55 520.079 91.07 520.079 87.2V85.01ZM520.529 85.01H522.569V87.17C522.569 90.77 525.179 94.1 529.169 95.45L527.879 97.4C523.409 95.84 520.529 91.85 520.529 87.17V85.01ZM514.049 84.11H528.539V86.15H514.049V84.11ZM531.959 82.22H534.449V98.54H531.959V82.22ZM533.759 89.36H538.469V91.43H533.759V89.36ZM516.839 99.98H534.449V109.34H531.959V102.05H516.839V99.98ZM552.027 96.62H554.487V101.3H552.027V96.62ZM540.987 95.3H565.497V97.34H540.987V95.3ZM543.267 83.06H563.187V85.1H543.267V83.06ZM543.387 90.77H563.067V92.81H543.387V90.77ZM547.377 83.96H549.867V92.09H547.377V83.96ZM556.617 83.96H559.077V92.09H556.617V83.96ZM543.987 100.49H562.497V108.98H543.987V100.49ZM560.067 102.47H546.447V106.97H560.067V102.47ZM568.584 96.47H593.094V98.51H568.584V96.47ZM571.764 106.7H590.394V108.74H571.764V106.7ZM571.764 100.88H574.254V107.33H571.764V100.88ZM580.854 83.12C586.644 83.12 590.394 85.16 590.394 88.55C590.394 91.91 586.644 93.95 580.854 93.95C575.034 93.95 571.314 91.91 571.314 88.55C571.314 85.16 575.034 83.12 580.854 83.12ZM580.854 85.16C576.594 85.16 573.864 86.42 573.864 88.55C573.864 90.68 576.594 91.94 580.854 91.94C585.114 91.94 587.844 90.68 587.844 88.55C587.844 86.42 585.114 85.16 580.854 85.16ZM623.348 92H620.706C620.55 91.2401 620.277 90.5724 619.886 89.9972C619.502 89.4219 619.034 88.9389 618.48 88.5483C617.933 88.1506 617.326 87.8523 616.658 87.6534C615.99 87.4545 615.294 87.3551 614.57 87.3551C613.249 87.3551 612.052 87.6889 610.98 88.3565C609.914 89.0241 609.066 90.0078 608.434 91.3075C607.809 92.6072 607.496 94.2017 607.496 96.0909C607.496 97.9801 607.809 99.5746 608.434 100.874C609.066 102.174 609.914 103.158 610.98 103.825C612.052 104.493 613.249 104.827 614.57 104.827C615.294 104.827 615.99 104.727 616.658 104.528C617.326 104.33 617.933 104.035 618.48 103.644C619.034 103.246 619.502 102.76 619.886 102.185C620.277 101.602 620.55 100.935 620.706 100.182H623.348C623.149 101.297 622.787 102.295 622.262 103.175C621.736 104.056 621.083 104.805 620.301 105.423C619.52 106.034 618.643 106.499 617.67 106.819C616.704 107.138 615.671 107.298 614.57 107.298C612.709 107.298 611.054 106.844 609.605 105.935C608.157 105.026 607.017 103.733 606.186 102.057C605.355 100.381 604.939 98.392 604.939 96.0909C604.939 93.7898 605.355 91.8011 606.186 90.125C607.017 88.4489 608.157 87.1562 609.605 86.2472C611.054 85.3381 612.709 84.8835 614.57 84.8835C615.671 84.8835 616.704 85.0433 617.67 85.3629C618.643 85.6825 619.52 86.1513 620.301 86.7692C621.083 87.38 621.736 88.1257 622.262 89.0064C622.787 89.88 623.149 90.8778 623.348 92ZM629.791 85.1818V107H627.277V85.1818H629.791ZM639.211 107.384C638.174 107.384 637.233 107.188 636.388 106.798C635.543 106.4 634.872 105.828 634.375 105.082C633.877 104.33 633.629 103.42 633.629 102.355C633.629 101.418 633.813 100.658 634.183 100.075C634.552 99.4858 635.046 99.0241 635.664 98.6903C636.282 98.3565 636.963 98.108 637.709 97.9446C638.462 97.7741 639.218 97.6392 639.978 97.5398C640.973 97.4119 641.779 97.3161 642.397 97.2521C643.022 97.1811 643.476 97.0639 643.76 96.9006C644.051 96.7372 644.197 96.4531 644.197 96.0483V95.9631C644.197 94.9119 643.909 94.0952 643.334 93.5128C642.766 92.9304 641.903 92.6392 640.745 92.6392C639.545 92.6392 638.604 92.902 637.922 93.4276C637.24 93.9531 636.761 94.5142 636.484 95.1108L634.098 94.2585C634.524 93.2642 635.092 92.4901 635.802 91.9361C636.519 91.375 637.301 90.9844 638.146 90.7642C638.998 90.5369 639.836 90.4233 640.66 90.4233C641.186 90.4233 641.789 90.4872 642.471 90.6151C643.16 90.7358 643.824 90.9879 644.463 91.3714C645.11 91.755 645.646 92.3338 646.072 93.108C646.498 93.8821 646.711 94.919 646.711 96.2188V107H644.197V104.784H644.069C643.899 105.139 643.615 105.519 643.217 105.924C642.819 106.329 642.29 106.673 641.63 106.957C640.969 107.241 640.163 107.384 639.211 107.384ZM639.595 105.125C640.589 105.125 641.427 104.93 642.109 104.539C642.798 104.148 643.316 103.644 643.664 103.026C644.019 102.408 644.197 101.759 644.197 101.077V98.7756C644.09 98.9034 643.856 99.0206 643.494 99.1271C643.139 99.2266 642.727 99.3153 642.258 99.3935C641.796 99.4645 641.345 99.5284 640.905 99.5852C640.472 99.6349 640.12 99.6776 639.85 99.7131C639.197 99.7983 638.586 99.9368 638.018 100.129C637.457 100.313 637.002 100.594 636.654 100.97C636.313 101.339 636.143 101.844 636.143 102.483C636.143 103.357 636.466 104.017 637.112 104.464C637.766 104.905 638.593 105.125 639.595 105.125ZM661.613 100.31V90.6364H664.127V107H661.613V104.23H661.442C661.059 105.061 660.462 105.768 659.652 106.35C658.843 106.925 657.82 107.213 656.584 107.213C655.562 107.213 654.652 106.989 653.857 106.542C653.062 106.087 652.437 105.406 651.982 104.496C651.527 103.58 651.3 102.426 651.3 101.034V90.6364H653.814V100.864C653.814 102.057 654.148 103.009 654.816 103.719C655.491 104.429 656.35 104.784 657.394 104.784C658.019 104.784 658.655 104.624 659.301 104.305C659.954 103.985 660.501 103.495 660.941 102.835C661.389 102.174 661.613 101.332 661.613 100.31ZM674.911 107.341C673.547 107.341 672.343 106.996 671.299 106.308C670.255 105.612 669.438 104.631 668.849 103.367C668.259 102.096 667.965 100.594 667.965 98.8608C667.965 97.142 668.259 95.6506 668.849 94.3864C669.438 93.1222 670.259 92.1456 671.31 91.4567C672.361 90.7678 673.576 90.4233 674.953 90.4233C676.019 90.4233 676.86 90.6009 677.478 90.956C678.103 91.304 678.579 91.7017 678.906 92.1491C679.24 92.5895 679.499 92.9517 679.684 93.2358H679.897V85.1818H682.411V107H679.982V104.486H679.684C679.499 104.784 679.236 105.161 678.895 105.615C678.554 106.062 678.068 106.464 677.436 106.819C676.804 107.167 675.962 107.341 674.911 107.341ZM675.252 105.082C676.26 105.082 677.112 104.82 677.809 104.294C678.505 103.761 679.034 103.026 679.396 102.089C679.758 101.144 679.939 100.054 679.939 98.8182C679.939 97.5966 679.762 96.5277 679.407 95.6115C679.051 94.6882 678.526 93.9709 677.83 93.4595C677.134 92.9411 676.274 92.6818 675.252 92.6818C674.186 92.6818 673.299 92.9553 672.588 93.5021C671.885 94.0419 671.356 94.777 671.001 95.7074C670.653 96.6307 670.479 97.6676 670.479 98.8182C670.479 99.983 670.657 101.041 671.012 101.993C671.374 102.937 671.907 103.69 672.61 104.251C673.32 104.805 674.201 105.082 675.252 105.082ZM694.225 107.341C692.649 107.341 691.289 106.993 690.145 106.297C689.009 105.594 688.132 104.614 687.514 103.357C686.903 102.092 686.598 100.622 686.598 98.946C686.598 97.2699 686.903 95.7926 687.514 94.5142C688.132 93.2287 688.991 92.2273 690.092 91.5099C691.2 90.7855 692.492 90.4233 693.97 90.4233C694.822 90.4233 695.664 90.5653 696.495 90.8494C697.326 91.1335 698.082 91.5952 698.764 92.2344C699.446 92.8665 699.989 93.7045 700.394 94.7486C700.799 95.7926 701.001 97.0781 701.001 98.6051V99.6705H688.387V97.4972H698.444C698.444 96.5739 698.259 95.75 697.89 95.0256C697.528 94.3011 697.009 93.7294 696.335 93.3104C695.667 92.8913 694.879 92.6818 693.97 92.6818C692.968 92.6818 692.102 92.9304 691.37 93.4276C690.646 93.9176 690.088 94.5568 689.698 95.3452C689.307 96.1335 689.112 96.9787 689.112 97.8807V99.3295C689.112 100.565 689.325 101.613 689.751 102.472C690.184 103.325 690.784 103.974 691.551 104.422C692.318 104.862 693.21 105.082 694.225 105.082C694.886 105.082 695.483 104.99 696.015 104.805C696.555 104.614 697.02 104.33 697.411 103.953C697.801 103.57 698.103 103.094 698.316 102.526L700.745 103.207C700.49 104.031 700.06 104.756 699.456 105.381C698.853 105.999 698.107 106.482 697.219 106.83C696.331 107.17 695.333 107.341 694.225 107.341ZM713.604 85.1818H716.757L724.172 103.293H724.428L731.843 85.1818H734.996V107H732.524V90.4233H732.311L725.493 107H723.107L716.289 90.4233H716.076V107H713.604V85.1818ZM746.6 107.341C745.123 107.341 743.827 106.989 742.712 106.286C741.604 105.583 740.737 104.599 740.112 103.335C739.494 102.071 739.185 100.594 739.185 98.9034C739.185 97.1989 739.494 95.7109 740.112 94.4396C740.737 93.1683 741.604 92.1811 742.712 91.478C743.827 90.7749 745.123 90.4233 746.6 90.4233C748.078 90.4233 749.37 90.7749 750.478 91.478C751.593 92.1811 752.46 93.1683 753.078 94.4396C753.703 95.7109 754.015 97.1989 754.015 98.9034C754.015 100.594 753.703 102.071 753.078 103.335C752.46 104.599 751.593 105.583 750.478 106.286C749.37 106.989 748.078 107.341 746.6 107.341ZM746.6 105.082C747.722 105.082 748.646 104.795 749.37 104.219C750.095 103.644 750.631 102.888 750.979 101.95C751.327 101.013 751.501 99.9972 751.501 98.9034C751.501 97.8097 751.327 96.7905 750.979 95.8459C750.631 94.9013 750.095 94.1378 749.37 93.5554C748.646 92.973 747.722 92.6818 746.6 92.6818C745.478 92.6818 744.555 92.973 743.83 93.5554C743.106 94.1378 742.57 94.9013 742.222 95.8459C741.874 96.7905 741.7 97.8097 741.7 98.9034C741.7 99.9972 741.874 101.013 742.222 101.95C742.57 102.888 743.106 103.644 743.83 104.219C744.555 104.795 745.478 105.082 746.6 105.082ZM760.367 97.1562V107H757.853V90.6364H760.282V93.1932H760.495C760.878 92.3622 761.461 91.6946 762.242 91.1903C763.023 90.679 764.032 90.4233 765.268 90.4233C766.376 90.4233 767.345 90.6506 768.176 91.1051C769.007 91.5526 769.653 92.2344 770.115 93.1506C770.577 94.0597 770.807 95.2102 770.807 96.6023V107H768.293V96.7727C768.293 95.4872 767.959 94.4858 767.292 93.7685C766.624 93.044 765.708 92.6818 764.543 92.6818C763.741 92.6818 763.023 92.8558 762.391 93.2038C761.766 93.5518 761.273 94.0597 760.91 94.7273C760.548 95.3949 760.367 96.2045 760.367 97.1562ZM782.263 107.341C780.686 107.341 779.326 106.993 778.182 106.297C777.046 105.594 776.169 104.614 775.551 103.357C774.94 102.092 774.635 100.622 774.635 98.946C774.635 97.2699 774.94 95.7926 775.551 94.5142C776.169 93.2287 777.028 92.2273 778.129 91.5099C779.237 90.7855 780.53 90.4233 782.007 90.4233C782.859 90.4233 783.701 90.5653 784.532 90.8494C785.363 91.1335 786.119 91.5952 786.801 92.2344C787.483 92.8665 788.026 93.7045 788.431 94.7486C788.836 95.7926 789.038 97.0781 789.038 98.6051V99.6705H776.424V97.4972H786.481C786.481 96.5739 786.297 95.75 785.927 95.0256C785.565 94.3011 785.047 93.7294 784.372 93.3104C783.704 92.8913 782.916 92.6818 782.007 92.6818C781.005 92.6818 780.139 92.9304 779.407 93.4276C778.683 93.9176 778.125 94.5568 777.735 95.3452C777.344 96.1335 777.149 96.9787 777.149 97.8807V99.3295C777.149 100.565 777.362 101.613 777.788 102.472C778.221 103.325 778.821 103.974 779.589 104.422C780.356 104.862 781.247 105.082 782.263 105.082C782.923 105.082 783.52 104.99 784.052 104.805C784.592 104.614 785.057 104.33 785.448 103.953C785.839 103.57 786.14 103.094 786.353 102.526L788.782 103.207C788.527 104.031 788.097 104.756 787.493 105.381C786.89 105.999 786.144 106.482 785.256 106.83C784.368 107.17 783.37 107.341 782.263 107.341ZM799.979 90.6364V92.767H791.499V90.6364H799.979ZM793.971 86.7159H796.485V102.312C796.485 103.023 796.588 103.555 796.794 103.911C797.007 104.259 797.277 104.493 797.603 104.614C797.937 104.727 798.289 104.784 798.658 104.784C798.935 104.784 799.162 104.77 799.34 104.741C799.517 104.706 799.66 104.678 799.766 104.656L800.277 106.915C800.107 106.979 799.869 107.043 799.564 107.107C799.258 107.178 798.871 107.213 798.402 107.213C797.692 107.213 796.996 107.06 796.314 106.755C795.64 106.45 795.079 105.984 794.631 105.359C794.191 104.734 793.971 103.946 793.971 102.994V86.7159ZM811.75 84.17C815.98 84.17 819.01 86.78 819.01 90.56C819.01 94.37 815.98 96.98 811.75 96.98C807.52 96.98 804.46 94.37 804.46 90.56C804.46 86.78 807.52 84.17 811.75 84.17ZM811.75 86.33C808.93 86.33 806.89 88.04 806.89 90.56C806.89 93.08 808.93 94.82 811.75 94.82C814.54 94.82 816.58 93.08 816.58 90.56C816.58 88.04 814.54 86.33 811.75 86.33ZM822.55 82.19H825.04V109.37H822.55V82.19ZM803.44 103.43L803.08 101.36C808.03 101.36 814.87 101.33 820.78 100.4L820.99 102.23C814.9 103.4 808.27 103.43 803.44 103.43ZM838.944 92V90.0824C838.944 89.5 839.047 88.8821 839.253 88.2287C839.466 87.5682 839.771 86.9325 840.169 86.3217C840.574 85.7038 841.06 85.1676 841.629 84.7131L842.992 85.821C842.545 86.4602 842.154 87.1278 841.82 87.8239C841.494 88.5128 841.33 89.2514 841.33 90.0398V92H838.944ZM844.399 92V90.0824C844.399 89.5 844.502 88.8821 844.707 88.2287C844.921 87.5682 845.226 86.9325 845.624 86.3217C846.028 85.7038 846.515 85.1676 847.083 84.7131L848.447 85.821C847.999 86.4602 847.609 87.1278 847.275 87.8239C846.948 88.5128 846.785 89.2514 846.785 90.0398V92H844.399ZM850.37 87.5256V85.1818H866.733V87.5256H859.873V107H857.231V87.5256H850.37ZM872.984 97.1562V107H870.47V85.1818H872.984V93.1932H873.197C873.581 92.348 874.156 91.6768 874.923 91.1797C875.697 90.6754 876.727 90.4233 878.013 90.4233C879.128 90.4233 880.104 90.647 880.942 91.0945C881.78 91.5348 882.43 92.2131 882.892 93.1293C883.361 94.0384 883.595 95.196 883.595 96.6023V107H881.081V96.7727C881.081 95.473 880.744 94.468 880.069 93.7578C879.401 93.0405 878.474 92.6818 877.288 92.6818C876.464 92.6818 875.726 92.8558 875.072 93.2038C874.426 93.5518 873.915 94.0597 873.538 94.7273C873.169 95.3949 872.984 96.2045 872.984 97.1562ZM895.055 107.341C893.479 107.341 892.119 106.993 890.975 106.297C889.839 105.594 888.962 104.614 888.344 103.357C887.733 102.092 887.428 100.622 887.428 98.946C887.428 97.2699 887.733 95.7926 888.344 94.5142C888.962 93.2287 889.821 92.2273 890.922 91.5099C892.03 90.7855 893.323 90.4233 894.8 90.4233C895.652 90.4233 896.494 90.5653 897.325 90.8494C898.156 91.1335 898.912 91.5952 899.594 92.2344C900.276 92.8665 900.819 93.7045 901.224 94.7486C901.629 95.7926 901.831 97.0781 901.831 98.6051V99.6705H889.217V97.4972H899.274C899.274 96.5739 899.09 95.75 898.72 95.0256C898.358 94.3011 897.84 93.7294 897.165 93.3104C896.497 92.8913 895.709 92.6818 894.8 92.6818C893.798 92.6818 892.932 92.9304 892.2 93.4276C891.476 93.9176 890.918 94.5568 890.528 95.3452C890.137 96.1335 889.942 96.9787 889.942 97.8807V99.3295C889.942 100.565 890.155 101.613 890.581 102.472C891.014 103.325 891.614 103.974 892.381 104.422C893.149 104.862 894.04 105.082 895.055 105.082C895.716 105.082 896.313 104.99 896.845 104.805C897.385 104.614 897.85 104.33 898.241 103.953C898.631 103.57 898.933 103.094 899.146 102.526L901.575 103.207C901.32 104.031 900.89 104.756 900.286 105.381C899.683 105.999 898.937 106.482 898.049 106.83C897.161 107.17 896.163 107.341 895.055 107.341ZM914.434 107V85.1818H927.516V87.5256H917.076V94.8977H926.536V97.2415H917.076V107H914.434ZM934.215 85.1818V107H931.701V85.1818H934.215ZM945.467 107.341C943.99 107.341 942.694 106.989 941.579 106.286C940.471 105.583 939.604 104.599 938.979 103.335C938.362 102.071 938.053 100.594 938.053 98.9034C938.053 97.1989 938.362 95.7109 938.979 94.4396C939.604 93.1683 940.471 92.1811 941.579 91.478C942.694 90.7749 943.99 90.4233 945.467 90.4233C946.945 90.4233 948.237 90.7749 949.345 91.478C950.46 92.1811 951.327 93.1683 951.945 94.4396C952.57 95.7109 952.882 97.1989 952.882 98.9034C952.882 100.594 952.57 102.071 951.945 103.335C951.327 104.599 950.46 105.583 949.345 106.286C948.237 106.989 946.945 107.341 945.467 107.341ZM945.467 105.082C946.59 105.082 947.513 104.795 948.237 104.219C948.962 103.644 949.498 102.888 949.846 101.95C950.194 101.013 950.368 99.9972 950.368 98.9034C950.368 97.8097 950.194 96.7905 949.846 95.8459C949.498 94.9013 948.962 94.1378 948.237 93.5554C947.513 92.973 946.59 92.6818 945.467 92.6818C944.345 92.6818 943.422 92.973 942.698 93.5554C941.973 94.1378 941.437 94.9013 941.089 95.8459C940.741 96.7905 940.567 97.8097 940.567 98.9034C940.567 99.9972 940.741 101.013 941.089 101.95C941.437 102.888 941.973 103.644 942.698 104.219C943.422 104.795 944.345 105.082 945.467 105.082ZM963.368 107.341C961.891 107.341 960.594 106.989 959.479 106.286C958.371 105.583 957.505 104.599 956.88 103.335C956.262 102.071 955.953 100.594 955.953 98.9034C955.953 97.1989 956.262 95.7109 956.88 94.4396C957.505 93.1683 958.371 92.1811 959.479 91.478C960.594 90.7749 961.891 90.4233 963.368 90.4233C964.845 90.4233 966.138 90.7749 967.246 91.478C968.361 92.1811 969.227 93.1683 969.845 94.4396C970.47 95.7109 970.783 97.1989 970.783 98.9034C970.783 100.594 970.47 102.071 969.845 103.335C969.227 104.599 968.361 105.583 967.246 106.286C966.138 106.989 964.845 107.341 963.368 107.341ZM963.368 105.082C964.49 105.082 965.413 104.795 966.138 104.219C966.862 103.644 967.398 102.888 967.746 101.95C968.094 101.013 968.268 99.9972 968.268 98.9034C968.268 97.8097 968.094 96.7905 967.746 95.8459C967.398 94.9013 966.862 94.1378 966.138 93.5554C965.413 92.973 964.49 92.6818 963.368 92.6818C962.246 92.6818 961.322 92.973 960.598 93.5554C959.873 94.1378 959.337 94.9013 958.989 95.8459C958.641 96.7905 958.467 97.8097 958.467 98.9034C958.467 99.9972 958.641 101.013 958.989 101.95C959.337 102.888 959.873 103.644 960.598 104.219C961.322 104.795 962.246 105.082 963.368 105.082ZM980.799 107.341C979.436 107.341 978.232 106.996 977.188 106.308C976.144 105.612 975.327 104.631 974.738 103.367C974.148 102.096 973.853 100.594 973.853 98.8608C973.853 97.142 974.148 95.6506 974.738 94.3864C975.327 93.1222 976.147 92.1456 977.199 91.4567C978.25 90.7678 979.464 90.4233 980.842 90.4233C981.907 90.4233 982.749 90.6009 983.367 90.956C983.992 91.304 984.468 91.7017 984.794 92.1491C985.128 92.5895 985.388 92.9517 985.572 93.2358H985.785V85.1818H988.299V107H985.87V104.486H985.572C985.388 104.784 985.125 105.161 984.784 105.615C984.443 106.062 983.956 106.464 983.324 106.819C982.692 107.167 981.851 107.341 980.799 107.341ZM981.14 105.082C982.149 105.082 983.001 104.82 983.697 104.294C984.393 103.761 984.922 103.026 985.285 102.089C985.647 101.144 985.828 100.054 985.828 98.8182C985.828 97.5966 985.65 96.5277 985.295 95.6115C984.94 94.6882 984.415 93.9709 983.718 93.4595C983.022 92.9411 982.163 92.6818 981.14 92.6818C980.075 92.6818 979.187 92.9553 978.477 93.5021C977.774 94.0419 977.245 94.777 976.89 95.7074C976.542 96.6307 976.368 97.6676 976.368 98.8182C976.368 99.983 976.545 101.041 976.9 101.993C977.263 102.937 977.795 103.69 978.498 104.251C979.209 104.805 980.089 105.082 981.14 105.082ZM994.148 97.7955C994.148 95.1108 994.496 92.6428 995.192 90.3913C995.895 88.1328 996.897 86.0554 998.196 84.1591H1000.41C999.901 84.8622 999.422 85.7287 998.974 86.7585C998.534 87.7812 998.147 88.907 997.813 90.1357C997.479 91.3572 997.216 92.6214 997.025 93.9283C996.84 95.2351 996.748 96.5241 996.748 97.7955C996.748 99.4858 996.911 101.201 997.238 102.941C997.564 104.681 998.005 106.297 998.559 107.788C999.113 109.28 999.731 110.494 1000.41 111.432H998.196C996.897 109.536 995.895 107.462 995.192 105.21C994.496 102.952 994.148 100.48 994.148 97.7955ZM1015.53 101.03C1021.47 101.03 1024.83 102.44 1024.83 105.17C1024.83 107.87 1021.47 109.28 1015.53 109.28C1009.62 109.28 1006.23 107.87 1006.23 105.17C1006.23 102.44 1009.62 101.03 1015.53 101.03ZM1015.53 102.89C1011.21 102.89 1008.78 103.67 1008.78 105.17C1008.78 106.64 1011.21 107.45 1015.53 107.45C1019.88 107.45 1022.28 106.64 1022.28 105.17C1022.28 103.67 1019.88 102.89 1015.53 102.89ZM1004.58 84.5H1026.39V86.45H1004.58V84.5ZM1015.56 87.53C1021.14 87.53 1024.32 88.88 1024.32 91.4C1024.32 93.95 1021.14 95.27 1015.56 95.27C1009.95 95.27 1006.8 93.95 1006.8 91.4C1006.8 88.88 1009.95 87.53 1015.56 87.53ZM1015.56 89.3C1011.63 89.3 1009.44 90.05 1009.44 91.4C1009.44 92.78 1011.63 93.53 1015.56 93.53C1019.46 93.53 1021.65 92.78 1021.65 91.4C1021.65 90.05 1019.46 89.3 1015.56 89.3ZM1014.33 81.83H1016.79V85.73H1014.33V81.83ZM1003.29 97.34H1027.8V99.35H1003.29V97.34ZM1014.33 94.55H1016.79V98.33H1014.33V94.55ZM1041.87 83.18H1044.06V84.68C1044.06 89.87 1038.78 93.59 1033.14 94.55L1032.15 92.54C1037.1 91.79 1041.87 88.55 1041.87 84.68V83.18ZM1042.32 83.18H1044.48V84.68C1044.48 88.46 1049.31 91.79 1054.2 92.54L1053.21 94.55C1047.63 93.59 1042.32 89.81 1042.32 84.68V83.18ZM1041.87 99.02H1044.33V109.34H1041.87V99.02ZM1030.92 97.49H1055.43V99.56H1030.92V97.49ZM1064.69 97.7955C1064.69 100.48 1064.34 102.952 1063.63 105.21C1062.94 107.462 1061.94 109.536 1060.64 111.432H1058.42C1058.93 110.729 1059.41 109.862 1059.85 108.832C1060.3 107.81 1060.69 106.687 1061.02 105.466C1061.36 104.237 1061.62 102.969 1061.8 101.663C1061.99 100.349 1062.09 99.0597 1062.09 97.7955C1062.09 96.1051 1061.92 94.3899 1061.6 92.6499C1061.27 90.9098 1060.83 89.294 1060.28 87.8026C1059.72 86.3111 1059.1 85.0966 1058.42 84.1591H1060.64C1061.94 86.0554 1062.94 88.1328 1063.63 90.3913C1064.34 92.6428 1064.69 95.1108 1064.69 97.7955ZM1072.4 85.1818V87.0994C1072.4 87.6818 1072.3 88.3033 1072.08 88.9638C1071.88 89.6172 1071.57 90.2528 1071.17 90.8707C1070.77 91.4815 1070.29 92.0142 1069.72 92.4688L1068.35 91.3608C1068.8 90.7216 1069.19 90.0575 1069.52 89.3686C1069.85 88.6726 1070.02 87.9304 1070.02 87.142V85.1818H1072.4ZM1077.86 85.1818V87.0994C1077.86 87.6818 1077.75 88.3033 1077.54 88.9638C1077.33 89.6172 1077.03 90.2528 1076.62 90.8707C1076.22 91.4815 1075.74 92.0142 1075.17 92.4688L1073.81 91.3608C1074.26 90.7216 1074.64 90.0575 1074.97 89.3686C1075.3 88.6726 1075.47 87.9304 1075.47 87.142V85.1818H1077.86ZM1100.52 82.22H1103.04V96.77H1100.52V82.22ZM1085.55 98.12H1088.01V101.42H1100.58V98.12H1103.04V108.98H1085.55V98.12ZM1088.01 103.4V106.97H1100.58V103.4H1088.01ZM1088.49 83.51C1092.6 83.51 1095.54 86.06 1095.54 89.75C1095.54 93.47 1092.6 96.02 1088.49 96.02C1084.38 96.02 1081.41 93.47 1081.41 89.75C1081.41 86.06 1084.38 83.51 1088.49 83.51ZM1088.49 85.58C1085.79 85.58 1083.84 87.29 1083.84 89.75C1083.84 92.21 1085.79 93.92 1088.49 93.92C1091.19 93.92 1093.14 92.21 1093.14 89.75C1093.14 87.29 1091.19 85.58 1088.49 85.58ZM1128.12 82.22H1130.61V109.34H1128.12V82.22ZM1110.12 84.86H1112.58V101.66H1110.12V84.86ZM1110.12 100.19H1112.34C1116.45 100.19 1120.74 99.89 1125.33 98.93L1125.63 101.06C1120.92 102.02 1116.63 102.35 1112.34 102.35H1110.12V100.19ZM1154.34 82.19H1156.86V109.37H1154.34V82.19ZM1156.26 92.9H1161.3V95H1156.26V92.9ZM1137.15 100.52H1139.28C1144.29 100.52 1147.8 100.34 1151.85 99.59L1152.12 101.69C1147.95 102.47 1144.38 102.62 1139.28 102.62H1137.15V100.52ZM1137.15 84.83H1149.75V86.87H1139.61V101.45H1137.15V84.83ZM1166.24 107.17C1165.71 107.17 1165.26 106.982 1164.89 106.606C1164.51 106.229 1164.32 105.778 1164.32 105.253C1164.32 104.727 1164.51 104.276 1164.89 103.9C1165.26 103.523 1165.71 103.335 1166.24 103.335C1166.76 103.335 1167.21 103.523 1167.59 103.9C1167.97 104.276 1168.16 104.727 1168.16 105.253C1168.16 105.601 1168.07 105.92 1167.89 106.212C1167.72 106.503 1167.49 106.737 1167.2 106.915C1166.91 107.085 1166.59 107.17 1166.24 107.17ZM255.426 118.22H257.916V134.33H255.426V118.22ZM257.196 125.27H261.906V127.34H257.196V125.27ZM249.246 134.9C254.736 134.9 258.156 136.85 258.156 140.12C258.156 143.39 254.736 145.31 249.246 145.31C243.756 145.31 240.336 143.39 240.336 140.12C240.336 136.85 243.756 134.9 249.246 134.9ZM249.246 136.94C245.226 136.94 242.766 138.08 242.766 140.12C242.766 142.1 245.226 143.27 249.246 143.27C253.266 143.27 255.726 142.1 255.726 140.12C255.726 138.08 253.266 136.94 249.246 136.94ZM238.056 130.16H240.156C245.766 130.16 248.916 129.98 252.546 129.23L252.846 131.27C249.096 132.02 245.886 132.2 240.156 132.2H238.056V130.16ZM238.056 120.29H250.026V122.33H240.516V131.48H238.056V120.29ZM284.164 118.25H286.684V138.11H284.164V118.25ZM269.254 142.7H287.494V144.74H269.254V142.7ZM269.254 136.28H271.714V143.66H269.254V136.28ZM271.504 119.72H273.574V122.48C273.574 127.76 270.574 132.38 266.014 134.24L264.724 132.23C268.804 130.64 271.504 126.68 271.504 122.48V119.72ZM271.954 119.72H273.994V122.48C273.994 126.56 276.724 130.25 280.774 131.72L279.454 133.73C274.954 131.99 271.954 127.64 271.954 122.48V119.72ZM292.022 132.47H316.532V134.51H292.022V132.47ZM295.202 142.7H313.832V144.74H295.202V142.7ZM295.202 136.88H297.692V143.33H295.202V136.88ZM304.292 119.12C310.082 119.12 313.832 121.16 313.832 124.55C313.832 127.91 310.082 129.95 304.292 129.95C298.472 129.95 294.752 127.91 294.752 124.55C294.752 121.16 298.472 119.12 304.292 119.12ZM304.292 121.16C300.032 121.16 297.302 122.42 297.302 124.55C297.302 126.68 300.032 127.94 304.292 127.94C308.552 127.94 311.282 126.68 311.282 124.55C311.282 122.42 308.552 121.16 304.292 121.16ZM334.717 120.83H336.757V123.08C336.757 128.06 333.787 132.2 329.197 133.85L327.937 131.87C332.017 130.46 334.717 126.95 334.717 123.08V120.83ZM335.167 120.83H337.207V123.05C337.207 126.65 339.817 129.89 343.807 131.24L342.607 133.22C338.077 131.69 335.167 127.7 335.167 123.05V120.83ZM328.657 120.11H343.177V122.12H328.657V120.11ZM346.627 118.22H349.117V134.18H346.627V118.22ZM348.427 124.97H353.137V127.04H348.427V124.97ZM332.077 135.41H349.117V144.98H332.077V135.41ZM346.687 137.39H334.507V142.97H346.687V137.39ZM362.825 120.56H364.865V125.42C364.865 131.66 361.505 137.45 357.065 139.7L355.535 137.66C359.555 135.74 362.825 130.55 362.825 125.42V120.56ZM363.245 120.56H365.285V125.42C365.285 130.37 368.525 135.35 372.545 137.21L371.045 139.19C366.635 137.03 363.245 131.45 363.245 125.42V120.56ZM375.365 118.19H377.855V145.37H375.365V118.19ZM398.86 120.56H400.9V125.42C400.9 131.66 397.54 137.45 393.1 139.7L391.57 137.66C395.59 135.74 398.86 130.55 398.86 125.42V120.56ZM399.28 120.56H401.32V125.42C401.32 130.37 404.56 135.35 408.58 137.21L407.08 139.19C402.67 137.03 399.28 131.45 399.28 125.42V120.56ZM411.4 118.19H413.89V145.37H411.4V118.19ZM437.857 118.22H440.347V134.12H437.857V118.22ZM439.657 125.06H444.367V127.16H439.657V125.06ZM430.357 119.96H432.967C432.967 126.8 428.197 131.69 420.277 133.85L419.257 131.9C426.277 129.98 430.357 126.05 430.357 121.04V119.96ZM420.457 119.96H431.737V121.97H420.457V119.96ZM422.737 135.38H440.347V145.34H437.857V137.39H422.737V135.38ZM453.575 121.13H455.615V123.32C455.615 128.3 452.615 132.47 448.055 134.12L446.795 132.14C450.875 130.7 453.575 127.19 453.575 123.32V121.13ZM454.025 121.13H456.065V123.29C456.065 126.83 458.645 130.01 462.635 131.33L461.435 133.28C456.905 131.78 454.025 127.91 454.025 123.29V121.13ZM447.545 120.23H462.035V122.27H447.545V120.23ZM465.455 118.22H467.945V134.57H465.455V118.22ZM467.255 125.09H471.965V127.19H467.255V125.09ZM459.305 135.29C464.825 135.29 468.215 137.12 468.215 140.27C468.215 143.45 464.825 145.28 459.305 145.28C453.785 145.28 450.395 143.45 450.395 140.27C450.395 137.12 453.785 135.29 459.305 135.29ZM459.305 137.3C455.285 137.3 452.825 138.38 452.825 140.27C452.825 142.19 455.285 143.33 459.305 143.33C463.325 143.33 465.785 142.19 465.785 140.27C465.785 138.38 463.325 137.3 459.305 137.3ZM480.603 120.47C484.113 120.47 486.393 124.1 486.393 129.92C486.393 135.74 484.113 139.37 480.603 139.37C477.093 139.37 474.843 135.74 474.843 129.92C474.843 124.1 477.093 120.47 480.603 120.47ZM480.603 122.78C478.473 122.78 477.123 125.54 477.123 129.92C477.123 134.3 478.473 137.06 480.603 137.06C482.733 137.06 484.083 134.3 484.083 129.92C484.083 125.54 482.733 122.78 480.603 122.78ZM495.153 118.22H497.553V145.34H495.153V118.22ZM490.863 128.96H496.053V131H490.863V128.96ZM489.153 118.79H491.523V143.99H489.153V118.79ZM521.82 118.25H524.34V138.05H521.82V118.25ZM506.91 142.7H525.15V144.74H506.91V142.7ZM506.91 136.01H509.37V143.39H506.91V136.01ZM509.79 120.11C513.84 120.11 516.84 122.87 516.84 126.8C516.84 130.7 513.84 133.49 509.79 133.49C505.74 133.49 502.71 130.7 502.71 126.8C502.71 122.87 505.74 120.11 509.79 120.11ZM509.79 122.27C507.15 122.27 505.14 124.13 505.14 126.8C505.14 129.44 507.15 131.3 509.79 131.3C512.43 131.3 514.44 129.44 514.44 126.8C514.44 124.13 512.43 122.27 509.79 122.27ZM538.498 120.17C542.728 120.17 545.758 122.78 545.758 126.56C545.758 130.37 542.728 132.98 538.498 132.98C534.268 132.98 531.208 130.37 531.208 126.56C531.208 122.78 534.268 120.17 538.498 120.17ZM538.498 122.33C535.678 122.33 533.638 124.04 533.638 126.56C533.638 129.08 535.678 130.82 538.498 130.82C541.288 130.82 543.328 129.08 543.328 126.56C543.328 124.04 541.288 122.33 538.498 122.33ZM549.298 118.19H551.788V145.37H549.298V118.19ZM530.188 139.43L529.828 137.36C534.778 137.36 541.618 137.33 547.528 136.4L547.738 138.23C541.648 139.4 535.018 139.43 530.188 139.43ZM585.453 118.22H587.973V132.77H585.453V118.22ZM570.483 134.12H572.943V137.42H585.513V134.12H587.973V144.98H570.483V134.12ZM572.943 139.4V142.97H585.513V139.4H572.943ZM573.423 119.51C577.533 119.51 580.473 122.06 580.473 125.75C580.473 129.47 577.533 132.02 573.423 132.02C569.313 132.02 566.343 129.47 566.343 125.75C566.343 122.06 569.313 119.51 573.423 119.51ZM573.423 121.58C570.723 121.58 568.773 123.29 568.773 125.75C568.773 128.21 570.723 129.92 573.423 129.92C576.123 129.92 578.073 128.21 578.073 125.75C578.073 123.29 576.123 121.58 573.423 121.58ZM600.001 121.13H602.041V123.32C602.041 128.3 599.041 132.47 594.481 134.12L593.221 132.14C597.301 130.7 600.001 127.19 600.001 123.32V121.13ZM600.451 121.13H602.491V123.29C602.491 126.83 605.071 130.01 609.061 131.33L607.861 133.28C603.331 131.78 600.451 127.91 600.451 123.29V121.13ZM593.971 120.23H608.461V122.27H593.971V120.23ZM611.881 118.22H614.371V134.57H611.881V118.22ZM613.681 125.09H618.391V127.19H613.681V125.09ZM605.731 135.29C611.251 135.29 614.641 137.12 614.641 140.27C614.641 143.45 611.251 145.28 605.731 145.28C600.211 145.28 596.821 143.45 596.821 140.27C596.821 137.12 600.211 135.29 605.731 135.29ZM605.731 137.3C601.711 137.3 599.251 138.38 599.251 140.27C599.251 142.19 601.711 143.33 605.731 143.33C609.751 143.33 612.211 142.19 612.211 140.27C612.211 138.38 609.751 137.3 605.731 137.3ZM631.918 128.75H637.048V130.82H631.918V128.75ZM641.578 118.22H643.978V145.34H641.578V118.22ZM636.208 118.79H638.578V143.99H636.208V118.79ZM627.028 120.47C630.538 120.47 632.818 124.1 632.818 129.92C632.818 135.74 630.538 139.37 627.028 139.37C623.518 139.37 621.268 135.74 621.268 129.92C621.268 124.1 623.518 120.47 627.028 120.47ZM627.028 122.78C624.898 122.78 623.548 125.54 623.548 129.92C623.548 134.3 624.898 137.06 627.028 137.06C629.188 137.06 630.538 134.3 630.538 129.92C630.538 125.54 629.188 122.78 627.028 122.78ZM662.066 127.4H669.626V129.44H662.066V127.4ZM655.526 120.56H657.566V125.39C657.566 131.48 654.356 137.3 650.066 139.61L648.476 137.63C652.466 135.65 655.526 130.43 655.526 125.39V120.56ZM656.006 120.56H658.016V125.39C658.016 130.34 661.076 135.26 665.006 137.12L663.536 139.13C659.156 136.91 656.006 131.33 656.006 125.39V120.56ZM668.396 118.19H670.856V145.37H668.396V118.19ZM691.231 121.01H693.271V123.2C693.271 128.18 690.271 132.32 685.741 133.94L684.421 131.99C688.531 130.55 691.231 127.07 691.231 123.2V121.01ZM691.681 121.01H693.721V123.17C693.721 126.77 696.331 130.1 700.321 131.45L699.031 133.4C694.561 131.84 691.681 127.85 691.681 123.17V121.01ZM685.201 120.11H699.691V122.15H685.201V120.11ZM703.111 118.22H705.601V134.54H703.111V118.22ZM704.911 125.36H709.621V127.43H704.911V125.36ZM687.991 135.98H705.601V145.34H703.111V138.05H687.991V135.98ZM723.179 132.62H725.639V137.3H723.179V132.62ZM712.139 131.3H736.649V133.34H712.139V131.3ZM714.419 119.06H734.339V121.1H714.419V119.06ZM714.539 126.77H734.219V128.81H714.539V126.77ZM718.529 119.96H721.019V128.09H718.529V119.96ZM727.769 119.96H730.229V128.09H727.769V119.96ZM715.139 136.49H733.649V144.98H715.139V136.49ZM731.219 138.47H717.599V142.97H731.219V138.47ZM752.007 118.67C757.977 118.67 761.547 120.35 761.547 123.38C761.547 126.41 757.977 128.09 752.007 128.09C746.007 128.09 742.467 126.41 742.467 123.38C742.467 120.35 746.007 118.67 752.007 118.67ZM752.007 120.56C747.567 120.56 745.017 121.58 745.017 123.38C745.017 125.18 747.567 126.2 752.007 126.2C756.417 126.2 758.967 125.18 758.967 123.38C758.967 121.58 756.417 120.56 752.007 120.56ZM739.737 129.89H764.247V131.9H739.737V129.89ZM742.707 134.21H761.127V140.33H745.227V143.63H742.767V138.53H758.667V136.13H742.707V134.21ZM742.767 143.09H761.937V145.04H742.767V143.09ZM794.342 118.22H796.832V133.58H794.342V118.22ZM796.142 124.82H800.852V126.89H796.142V124.82ZM786.842 119.96H789.482C789.482 126.8 784.712 131.72 776.732 133.88L775.772 131.9C782.792 129.98 786.842 126.05 786.842 121.07V119.96ZM776.942 119.96H788.222V121.97H776.942V119.96ZM779.762 134.87H796.832V144.98H779.762V134.87ZM794.372 136.88H782.222V142.94H794.372V136.88ZM809.969 119.63H812.039V122.39C812.039 127.61 809.099 131.93 804.569 133.7L803.249 131.69C807.329 130.19 809.969 126.53 809.969 122.39V119.63ZM810.419 119.63H812.459V122.57C812.459 126.23 815.159 129.62 819.059 130.97L817.739 132.92C813.389 131.3 810.419 127.28 810.419 122.57V119.63ZM821.939 118.22H824.429V134.66H821.939V118.22ZM823.739 125.21H828.449V127.31H823.739V125.21ZM815.789 135.41C821.339 135.41 824.699 137.24 824.699 140.36C824.699 143.48 821.339 145.28 815.789 145.28C810.239 145.28 806.879 143.48 806.879 140.36C806.879 137.24 810.239 135.41 815.789 135.41ZM815.789 137.39C811.769 137.39 809.309 138.47 809.309 140.36C809.309 142.25 811.769 143.33 815.789 143.33C819.809 143.33 822.269 142.25 822.269 140.36C822.269 138.47 819.809 137.39 815.789 137.39ZM830.937 122.84H844.377V124.88H830.937V122.84ZM837.657 126.68C841.047 126.68 843.507 129.23 843.507 132.89C843.507 136.52 841.047 139.07 837.657 139.07C834.297 139.07 831.837 136.52 831.837 132.89C831.837 129.23 834.297 126.68 837.657 126.68ZM837.657 128.81C835.587 128.81 834.087 130.49 834.087 132.89C834.087 135.29 835.587 136.97 837.657 136.97C839.757 136.97 841.287 135.29 841.287 132.89C841.287 130.49 839.757 128.81 837.657 128.81ZM851.547 118.22H853.947V145.34H851.547V118.22ZM847.227 129.62H852.357V131.69H847.227V129.62ZM845.757 118.82H848.097V144.02H845.757V118.82ZM836.457 119H838.917V124.1H836.457V119ZM858.595 139.82H883.165V141.89H858.595V139.82ZM869.575 133.34H872.065V140.42H869.575V133.34ZM861.475 120.14H863.935V124.97H877.765V120.14H880.225V134H861.475V120.14ZM863.935 126.98V131.96H877.765V126.98H863.935ZM893.752 119.81C897.832 119.81 900.832 122.42 900.832 126.2C900.832 129.98 897.832 132.59 893.752 132.59C889.672 132.59 886.672 129.98 886.672 126.2C886.672 122.42 889.672 119.81 893.752 119.81ZM893.752 121.91C891.052 121.91 889.102 123.65 889.102 126.2C889.102 128.75 891.052 130.49 893.752 130.49C896.452 130.49 898.402 128.75 898.402 126.2C898.402 123.65 896.452 121.91 893.752 121.91ZM904.732 118.22H907.222V133.67H904.732V118.22ZM906.532 124.7H911.242V126.77H906.532V124.7ZM892.672 134.87H894.592V136.34C894.592 139.91 892.402 143.51 888.502 145.01L887.242 143.15C890.662 141.89 892.672 138.95 892.672 136.34V134.87ZM893.212 134.87H895.072V136.34C895.072 139.1 896.662 142.04 899.962 143.36L898.882 145.25C894.952 143.72 893.212 139.97 893.212 136.34V134.87ZM902.692 134.87H904.552V136.34C904.552 139.55 902.782 143.6 898.882 145.25L897.802 143.36C901.072 141.89 902.692 138.71 902.692 136.34V134.87ZM903.172 134.87H905.122V136.34C905.122 139.16 907.102 141.98 910.522 143.15L909.292 145.01C905.332 143.57 903.172 140.12 903.172 136.34V134.87ZM916.88 134.48H919.34V137.63H932.6V134.48H935.09V144.98H916.88V134.48ZM919.34 139.55V142.97H932.6V139.55H919.34ZM913.76 130.58H938.27V132.59H913.76V130.58ZM924.77 118.52H926.9V119.72C926.9 124.43 921.65 127.82 916.07 128.66L915.17 126.71C920.06 126.05 924.77 123.14 924.77 119.72V118.52ZM925.16 118.52H927.29V119.72C927.29 123.08 932.06 126.05 936.89 126.71L935.96 128.66C930.44 127.82 925.16 124.37 925.16 119.72V118.52ZM961.098 118.22H963.588V145.34H961.098V118.22ZM943.098 120.86H945.558V137.66H943.098V120.86ZM943.098 136.19H945.318C949.428 136.19 953.718 135.89 958.308 134.93L958.608 137.06C953.898 138.02 949.608 138.35 945.318 138.35H943.098V136.19ZM987.315 118.19H989.835V145.37H987.315V118.19ZM989.235 128.9H994.275V131H989.235V128.9ZM970.125 136.52H972.255C977.265 136.52 980.775 136.34 984.825 135.59L985.095 137.69C980.925 138.47 977.355 138.62 972.255 138.62H970.125V136.52ZM970.125 120.83H982.725V122.87H972.585V137.45H970.125V120.83ZM999.217 143.17C998.691 143.17 998.24 142.982 997.864 142.606C997.487 142.229 997.299 141.778 997.299 141.253C997.299 140.727 997.487 140.276 997.864 139.9C998.24 139.523 998.691 139.335 999.217 139.335C999.742 139.335 1000.19 139.523 1000.57 139.9C1000.95 140.276 1001.13 140.727 1001.13 141.253C1001.13 141.601 1001.05 141.92 1000.87 142.212C1000.7 142.503 1000.47 142.737 1000.18 142.915C999.891 143.085 999.572 143.17 999.217 143.17ZM1031.82 118.22H1034.31V133.58H1031.82V118.22ZM1033.62 124.82H1038.33V126.89H1033.62V124.82ZM1024.32 119.96H1026.96C1026.96 126.8 1022.19 131.72 1014.21 133.88L1013.25 131.9C1020.27 129.98 1024.32 126.05 1024.32 121.07V119.96ZM1014.42 119.96H1025.7V121.97H1014.42V119.96ZM1017.24 134.87H1034.31V144.98H1017.24V134.87ZM1031.85 136.88H1019.7V142.94H1031.85V136.88ZM1047.45 119.63H1049.52V122.39C1049.52 127.61 1046.58 131.93 1042.05 133.7L1040.73 131.69C1044.81 130.19 1047.45 126.53 1047.45 122.39V119.63ZM1047.9 119.63H1049.94V122.57C1049.94 126.23 1052.64 129.62 1056.54 130.97L1055.22 132.92C1050.87 131.3 1047.9 127.28 1047.9 122.57V119.63ZM1059.42 118.22H1061.91V134.66H1059.42V118.22ZM1061.22 125.21H1065.93V127.31H1061.22V125.21ZM1053.27 135.41C1058.82 135.41 1062.18 137.24 1062.18 140.36C1062.18 143.48 1058.82 145.28 1053.27 145.28C1047.72 145.28 1044.36 143.48 1044.36 140.36C1044.36 137.24 1047.72 135.41 1053.27 135.41ZM1053.27 137.39C1049.25 137.39 1046.79 138.47 1046.79 140.36C1046.79 142.25 1049.25 143.33 1053.27 143.33C1057.29 143.33 1059.75 142.25 1059.75 140.36C1059.75 138.47 1057.29 137.39 1053.27 137.39ZM1068.45 132.47H1092.96V134.51H1068.45V132.47ZM1071.63 142.7H1090.26V144.74H1071.63V142.7ZM1071.63 136.88H1074.12V143.33H1071.63V136.88ZM1080.72 119.12C1086.51 119.12 1090.26 121.16 1090.26 124.55C1090.26 127.91 1086.51 129.95 1080.72 129.95C1074.9 129.95 1071.18 127.91 1071.18 124.55C1071.18 121.16 1074.9 119.12 1080.72 119.12ZM1080.72 121.16C1076.46 121.16 1073.73 122.42 1073.73 124.55C1073.73 126.68 1076.46 127.94 1080.72 127.94C1084.98 127.94 1087.71 126.68 1087.71 124.55C1087.71 122.42 1084.98 121.16 1080.72 121.16ZM1111.74 120.29C1115.67 120.29 1118.49 123.98 1118.49 129.74C1118.49 135.53 1115.67 139.22 1111.74 139.22C1107.78 139.22 1104.99 135.53 1104.99 129.74C1104.99 123.98 1107.78 120.29 1111.74 120.29ZM1111.74 122.54C1109.13 122.54 1107.36 125.36 1107.36 129.74C1107.36 134.15 1109.13 137.03 1111.74 137.03C1114.35 137.03 1116.12 134.15 1116.12 129.74C1116.12 125.36 1114.35 122.54 1111.74 122.54ZM1124.37 118.19H1126.83V145.37H1124.37V118.19ZM1117.68 128.54H1125.45V130.58H1117.68V128.54ZM1132.92 136.31H1134.09C1135.71 136.31 1137.6 136.28 1139.73 135.74L1140.03 137.81C1137.72 138.35 1135.86 138.38 1134.09 138.38H1132.92V136.31ZM1132.92 120.95H1139.61V122.99H1135.38V137.27H1132.92V120.95ZM1141.08 136.31H1142.46C1145.16 136.31 1147.17 136.22 1149.51 135.65L1149.75 137.72C1147.29 138.32 1145.28 138.38 1142.46 138.38H1141.08V136.31ZM1141.08 120.95H1148.43V122.99H1143.54V137.3H1141.08V120.95ZM1152.21 118.22H1154.7V145.34H1152.21V118.22ZM1147.08 128.12H1153.11V130.19H1147.08V128.12ZM1174.17 121.46H1180.29V123.5H1174.17V121.46ZM1174.17 126.8H1180.29V128.81H1174.17V126.8ZM1179.51 118.22H1182V134.12H1179.51V118.22ZM1166.46 119.18H1168.5V122C1168.5 127.34 1165.62 131.75 1161.09 133.55L1159.74 131.6C1163.85 130.04 1166.46 126.26 1166.46 122V119.18ZM1166.88 119.18H1168.89V122C1168.89 125.93 1171.53 129.62 1175.46 131.15L1174.08 133.13C1169.76 131.33 1166.88 127.01 1166.88 122V119.18ZM1166.61 135.11H1168.56V136.31C1168.56 139.88 1166.34 143.51 1162.44 145.01L1161.18 143.15C1164.6 141.89 1166.61 138.95 1166.61 136.31V135.11ZM1167.18 135.11H1169.04V136.31C1169.04 139.07 1170.63 142.04 1173.9 143.36L1172.85 145.25C1168.92 143.72 1167.18 139.94 1167.18 136.31V135.11ZM1176.66 135.11H1178.49V136.31C1178.49 139.52 1176.72 143.6 1172.85 145.25L1171.77 143.36C1175.01 141.86 1176.66 138.68 1176.66 136.31V135.11ZM1177.14 135.11H1179.09V136.31C1179.09 139.16 1181.07 141.98 1184.55 143.15L1183.26 145.01C1179.33 143.57 1177.14 140.09 1177.14 136.31V135.11ZM1207.47 129.02H1212.48V131.12H1207.47V129.02ZM1205.64 118.19H1208.16V145.34H1205.64V118.19ZM1188.36 120.86H1190.85V137.66H1188.36V120.86ZM1188.36 136.37H1190.52C1194.54 136.37 1198.65 136.1 1203.12 135.17L1203.42 137.24C1198.8 138.2 1194.63 138.47 1190.52 138.47H1188.36V136.37ZM1220.9 132.17H1223.36V140.3H1220.9V132.17ZM1230.92 132.17H1233.41V140.3H1230.92V132.17ZM1214.9 139.82H1239.47V141.89H1214.9V139.82ZM1227.14 119.93C1232.87 119.93 1236.98 122.66 1236.98 126.92C1236.98 131.15 1232.87 133.88 1227.14 133.88C1221.38 133.88 1217.27 131.15 1217.27 126.92C1217.27 122.66 1221.38 119.93 1227.14 119.93ZM1227.14 121.91C1222.79 121.91 1219.67 123.89 1219.67 126.92C1219.67 129.92 1222.79 131.9 1227.14 131.9C1231.49 131.9 1234.58 129.92 1234.58 126.92C1234.58 123.89 1231.49 121.91 1227.14 121.91ZM1246.58 136.864V136.736C1246.6 135.379 1246.74 134.3 1247.01 133.497C1247.28 132.695 1247.66 132.045 1248.16 131.548C1248.66 131.05 1249.25 130.592 1249.95 130.173C1250.37 129.918 1250.75 129.616 1251.08 129.268C1251.41 128.913 1251.68 128.504 1251.87 128.043C1252.07 127.581 1252.17 127.07 1252.17 126.509C1252.17 125.812 1252 125.209 1251.68 124.697C1251.35 124.186 1250.91 123.792 1250.37 123.515C1249.82 123.238 1249.21 123.099 1248.54 123.099C1247.96 123.099 1247.4 123.22 1246.86 123.462C1246.32 123.703 1245.87 124.083 1245.51 124.602C1245.15 125.12 1244.94 125.798 1244.88 126.636H1242.19C1242.25 125.429 1242.56 124.396 1243.13 123.536C1243.71 122.677 1244.46 122.02 1245.4 121.565C1246.35 121.111 1247.39 120.884 1248.54 120.884C1249.79 120.884 1250.88 121.132 1251.8 121.629C1252.73 122.126 1253.45 122.808 1253.96 123.675C1254.47 124.541 1254.72 125.528 1254.72 126.636C1254.72 127.418 1254.6 128.124 1254.36 128.756C1254.13 129.388 1253.79 129.953 1253.34 130.45C1252.9 130.947 1252.36 131.388 1251.74 131.771C1251.11 132.162 1250.61 132.574 1250.24 133.007C1249.86 133.433 1249.59 133.941 1249.42 134.531C1249.25 135.12 1249.15 135.855 1249.14 136.736V136.864H1246.58ZM1247.95 143.17C1247.42 143.17 1246.97 142.982 1246.59 142.606C1246.22 142.229 1246.03 141.778 1246.03 141.253C1246.03 140.727 1246.22 140.276 1246.59 139.9C1246.97 139.523 1247.42 139.335 1247.95 139.335C1248.47 139.335 1248.92 139.523 1249.3 139.9C1249.68 140.276 1249.86 140.727 1249.86 141.253C1249.86 141.601 1249.78 141.92 1249.6 142.212C1249.43 142.503 1249.2 142.737 1248.91 142.915C1248.62 143.085 1248.3 143.17 1247.95 143.17ZM116.362 157.1H133.822V159.11H116.362V157.1ZM113.722 175.31H138.232V177.38H113.722V175.31ZM132.502 157.1H134.932V159.8C134.932 163.28 134.932 167.15 133.912 173L131.422 172.76C132.502 167.21 132.502 163.16 132.502 159.8V157.1ZM141.319 165.53H165.829V167.57H141.319V165.53ZM144.559 161.33H162.919V163.34H144.559V161.33ZM144.559 155.09H162.619V157.13H147.019V162.95H144.559V155.09ZM144.259 169.91H162.679V176.3H146.779V179.72H144.319V174.44H160.219V171.86H144.259V169.91ZM144.319 179.06H163.489V181.04H144.319V179.06ZM179.897 164.75H185.027V166.82H179.897V164.75ZM189.557 154.22H191.957V181.34H189.557V154.22ZM184.187 154.79H186.557V179.99H184.187V154.79ZM175.007 156.47C178.517 156.47 180.797 160.1 180.797 165.92C180.797 171.74 178.517 175.37 175.007 175.37C171.497 175.37 169.247 171.74 169.247 165.92C169.247 160.1 171.497 156.47 175.007 156.47ZM175.007 158.78C172.877 158.78 171.527 161.54 171.527 165.92C171.527 170.3 172.877 173.06 175.007 173.06C177.167 173.06 178.517 170.3 178.517 165.92C178.517 161.54 177.167 158.78 175.007 158.78ZM217.155 154.22H219.555V181.34H217.155V154.22ZM205.395 165.29H212.235V167.3H205.395V165.29ZM211.515 154.91H213.855V179.96H211.515V154.91ZM205.725 157.64H208.125C208.125 164.75 205.275 171.14 197.955 175.49L196.485 173.72C202.875 169.88 205.725 164.48 205.725 158.09V157.64ZM197.685 157.64H206.655V159.68H197.685V157.64ZM239.21 157.01H241.25V159.2C241.25 164.18 238.25 168.32 233.72 169.94L232.4 167.99C236.51 166.55 239.21 163.07 239.21 159.2V157.01ZM239.66 157.01H241.7V159.17C241.7 162.77 244.31 166.1 248.3 167.45L247.01 169.4C242.54 167.84 239.66 163.85 239.66 159.17V157.01ZM233.18 156.11H247.67V158.15H233.18V156.11ZM251.09 154.22H253.58V170.54H251.09V154.22ZM252.89 161.36H257.6V163.43H252.89V161.36ZM235.97 171.98H253.58V181.34H251.09V174.05H235.97V171.98ZM271.157 168.62H273.617V173.3H271.157V168.62ZM260.117 167.3H284.627V169.34H260.117V167.3ZM262.397 155.06H282.317V157.1H262.397V155.06ZM262.517 162.77H282.197V164.81H262.517V162.77ZM266.507 155.96H268.997V164.09H266.507V155.96ZM275.747 155.96H278.207V164.09H275.747V155.96ZM263.117 172.49H281.627V180.98H263.117V172.49ZM279.197 174.47H265.577V178.97H279.197V174.47ZM299.985 154.67C305.955 154.67 309.525 156.35 309.525 159.38C309.525 162.41 305.955 164.09 299.985 164.09C293.985 164.09 290.445 162.41 290.445 159.38C290.445 156.35 293.985 154.67 299.985 154.67ZM299.985 156.56C295.545 156.56 292.995 157.58 292.995 159.38C292.995 161.18 295.545 162.2 299.985 162.2C304.395 162.2 306.945 161.18 306.945 159.38C306.945 157.58 304.395 156.56 299.985 156.56ZM287.715 165.89H312.225V167.9H287.715V165.89ZM290.685 170.21H309.105V176.33H293.205V179.63H290.745V174.53H306.645V172.13H290.685V170.21ZM290.745 179.09H309.915V181.04H290.745V179.09ZM342.32 154.22H344.81V169.58H342.32V154.22ZM344.12 160.82H348.83V162.89H344.12V160.82ZM334.82 155.96H337.46C337.46 162.8 332.69 167.72 324.71 169.88L323.75 167.9C330.77 165.98 334.82 162.05 334.82 157.07V155.96ZM324.92 155.96H336.2V157.97H324.92V155.96ZM327.74 170.87H344.81V180.98H327.74V170.87ZM342.35 172.88H330.2V178.94H342.35V172.88ZM357.948 155.63H360.018V158.39C360.018 163.61 357.078 167.93 352.548 169.7L351.228 167.69C355.308 166.19 357.948 162.53 357.948 158.39V155.63ZM358.398 155.63H360.438V158.57C360.438 162.23 363.138 165.62 367.038 166.97L365.718 168.92C361.368 167.3 358.398 163.28 358.398 158.57V155.63ZM369.918 154.22H372.408V170.66H369.918V154.22ZM371.718 161.21H376.428V163.31H371.718V161.21ZM363.768 171.41C369.318 171.41 372.678 173.24 372.678 176.36C372.678 179.48 369.318 181.28 363.768 181.28C358.218 181.28 354.858 179.48 354.858 176.36C354.858 173.24 358.218 171.41 363.768 171.41ZM363.768 173.39C359.748 173.39 357.288 174.47 357.288 176.36C357.288 178.25 359.748 179.33 363.768 179.33C367.788 179.33 370.248 178.25 370.248 176.36C370.248 174.47 367.788 173.39 363.768 173.39ZM397.336 154.22H399.826V181.34H397.336V154.22ZM399.226 165.35H404.266V167.45H399.226V165.35ZM378.826 158.54H394.816V160.58H378.826V158.54ZM386.926 162.83C390.766 162.83 393.526 165.41 393.526 169.07C393.526 172.73 390.766 175.31 386.926 175.31C383.116 175.31 380.326 172.73 380.326 169.07C380.326 165.41 383.116 162.83 386.926 162.83ZM386.926 164.9C384.466 164.9 382.696 166.61 382.696 169.07C382.696 171.5 384.466 173.24 386.926 173.24C389.386 173.24 391.156 171.5 391.156 169.07C391.156 166.61 389.386 164.9 386.926 164.9ZM385.636 154.55H388.126V159.47H385.636V154.55ZM409.873 162.35H428.293V164.39H409.873V162.35ZM406.543 168.02H431.143V170.06H406.543V168.02ZM409.873 155.21H412.333V163.37H409.873V155.21ZM409.693 178.64H428.443V180.68H409.693V178.64ZM409.693 172.76H412.153V179.18H409.693V172.76ZM462.408 154.22H464.898V172.58H462.408V154.22ZM456.588 161.87H462.918V163.91H456.588V161.87ZM453.888 156.35H456.498C456.498 163.37 451.878 168.35 444.108 170.87L443.058 168.89C449.928 166.73 453.888 162.65 453.888 157.34V156.35ZM444.348 156.35H455.658V158.39H444.348V156.35ZM454.908 170.24H457.038V171.47C457.038 176.66 452.298 180.17 446.868 181.28L445.878 179.3C450.678 178.43 454.908 175.43 454.908 171.47V170.24ZM455.268 170.24H457.398V171.47C457.398 175.37 461.568 178.37 466.398 179.24L465.348 181.22C459.948 180.14 455.268 176.63 455.268 171.47V170.24ZM470.176 168.47H494.686V170.51H470.176V168.47ZM473.356 178.7H491.986V180.74H473.356V178.7ZM473.356 172.88H475.846V179.33H473.356V172.88ZM482.446 155.12C488.236 155.12 491.986 157.16 491.986 160.55C491.986 163.91 488.236 165.95 482.446 165.95C476.626 165.95 472.906 163.91 472.906 160.55C472.906 157.16 476.626 155.12 482.446 155.12ZM482.446 157.16C478.186 157.16 475.456 158.42 475.456 160.55C475.456 162.68 478.186 163.94 482.446 163.94C486.706 163.94 489.436 162.68 489.436 160.55C489.436 158.42 486.706 157.16 482.446 157.16ZM513.381 156.56H515.421V161.42C515.421 167.66 512.061 173.45 507.621 175.7L506.091 173.66C510.111 171.74 513.381 166.55 513.381 161.42V156.56ZM513.801 156.56H515.841V161.42C515.841 166.37 519.081 171.35 523.101 173.21L521.601 175.19C517.191 173.03 513.801 167.45 513.801 161.42V156.56ZM525.921 154.19H528.411V181.37H525.921V154.19ZM552.379 154.22H554.869V170.12H552.379V154.22ZM554.179 161.06H558.889V163.16H554.179V161.06ZM544.879 155.96H547.489C547.489 162.8 542.719 167.69 534.799 169.85L533.779 167.9C540.799 165.98 544.879 162.05 544.879 157.04V155.96ZM534.979 155.96H546.259V157.97H534.979V155.96ZM537.259 171.38H554.869V181.34H552.379V173.39H537.259V171.38ZM568.337 156.98H570.377V159.17C570.377 164.12 567.317 168.35 562.787 170.03L561.497 168.05C565.547 166.61 568.337 163.01 568.337 159.17V156.98ZM568.817 156.98H570.827V159.17C570.827 162.65 573.467 166.04 577.397 167.42L576.137 169.4C571.727 167.78 568.817 163.7 568.817 159.17V156.98ZM575.927 161.27H581.957V163.34H575.927V161.27ZM562.277 156.08H576.767V158.09H562.277V156.08ZM565.637 171.92H583.727V181.34H581.237V173.96H565.637V171.92ZM581.237 154.22H583.727V170.45H581.237V154.22ZM608.744 154.25H611.264V174.05H608.744V154.25ZM593.834 178.7H612.074V180.74H593.834V178.7ZM593.834 172.01H596.294V179.39H593.834V172.01ZM596.714 156.11C600.764 156.11 603.764 158.87 603.764 162.8C603.764 166.7 600.764 169.49 596.714 169.49C592.664 169.49 589.634 166.7 589.634 162.8C589.634 158.87 592.664 156.11 596.714 156.11ZM596.714 158.27C594.074 158.27 592.064 160.13 592.064 162.8C592.064 165.44 594.074 167.3 596.714 167.3C599.354 167.3 601.364 165.44 601.364 162.8C601.364 160.13 599.354 158.27 596.714 158.27ZM644.869 154.22H647.359V172.58H644.869V154.22ZM639.049 161.87H645.379V163.91H639.049V161.87ZM636.349 156.35H638.959C638.959 163.37 634.339 168.35 626.569 170.87L625.519 168.89C632.389 166.73 636.349 162.65 636.349 157.34V156.35ZM626.809 156.35H638.119V158.39H626.809V156.35ZM637.369 170.24H639.499V171.47C639.499 176.66 634.759 180.17 629.329 181.28L628.339 179.3C633.139 178.43 637.369 175.43 637.369 171.47V170.24ZM637.729 170.24H639.859V171.47C639.859 175.37 644.029 178.37 648.859 179.24L647.809 181.22C642.409 180.14 637.729 176.63 637.729 171.47V170.24ZM664.907 154.67C670.877 154.67 674.447 156.35 674.447 159.38C674.447 162.41 670.877 164.09 664.907 164.09C658.907 164.09 655.367 162.41 655.367 159.38C655.367 156.35 658.907 154.67 664.907 154.67ZM664.907 156.56C660.467 156.56 657.917 157.58 657.917 159.38C657.917 161.18 660.467 162.2 664.907 162.2C669.317 162.2 671.867 161.18 671.867 159.38C671.867 157.58 669.317 156.56 664.907 156.56ZM652.637 165.89H677.147V167.9H652.637V165.89ZM655.607 170.21H674.027V176.33H658.127V179.63H655.667V174.53H671.567V172.13H655.607V170.21ZM655.667 179.09H674.837V181.04H655.667V179.09ZM696.622 170.03H699.142V180.5H696.622V170.03ZM708.712 154.22H711.202V181.37H708.712V154.22ZM688.852 171.29L688.492 169.22C694.012 169.22 700.852 169.19 707.062 168.47L707.212 170.33C700.852 171.29 694.192 171.32 688.852 171.29ZM698.632 163.91H705.982V165.92H698.632V163.91ZM698.632 156.2H705.772V158.24H701.092V164.81H698.632V156.2ZM690.232 156.2H697.222V158.24H692.692V164.93H690.232V156.2ZM690.232 163.91H691.462C693.292 163.91 695.212 163.88 697.492 163.34L697.732 165.35C695.302 165.89 693.382 165.92 691.462 165.92H690.232V163.91ZM723.53 156.29C727.46 156.29 730.28 159.98 730.28 165.74C730.28 171.53 727.46 175.22 723.53 175.22C719.57 175.22 716.78 171.53 716.78 165.74C716.78 159.98 719.57 156.29 723.53 156.29ZM723.53 158.54C720.92 158.54 719.15 161.36 719.15 165.74C719.15 170.15 720.92 173.03 723.53 173.03C726.14 173.03 727.91 170.15 727.91 165.74C727.91 161.36 726.14 158.54 723.53 158.54ZM736.16 154.19H738.62V181.37H736.16V154.19ZM729.47 164.54H737.24V166.58H729.47V164.54ZM748.727 171.17H766.187V180.98H748.727V171.17ZM763.757 173.15H751.157V178.97H763.757V173.15ZM745.457 155.84H747.947V167.09H745.457V155.84ZM745.457 166.01H747.527C751.877 166.01 755.537 165.77 759.557 164.93L759.857 167.03C755.717 167.87 751.967 168.14 747.527 168.14H745.457V166.01ZM763.697 154.22H766.187V169.82H763.697V154.22ZM756.047 159.29H764.327V161.33H756.047V159.29ZM778.725 156.29C782.655 156.29 785.475 159.98 785.475 165.74C785.475 171.53 782.655 175.22 778.725 175.22C774.765 175.22 771.975 171.53 771.975 165.74C771.975 159.98 774.765 156.29 778.725 156.29ZM778.725 158.54C776.115 158.54 774.345 161.36 774.345 165.74C774.345 170.15 776.115 173.03 778.725 173.03C781.335 173.03 783.105 170.15 783.105 165.74C783.105 161.36 781.335 158.54 778.725 158.54ZM791.355 154.19H793.815V181.37H791.355V154.19ZM784.665 164.54H792.435V166.58H784.665V164.54ZM825.86 154.19H828.38V181.37H825.86V154.19ZM827.78 164.9H832.82V167H827.78V164.9ZM808.67 172.52H810.8C815.81 172.52 819.32 172.34 823.37 171.59L823.64 173.69C819.47 174.47 815.9 174.62 810.8 174.62H808.67V172.52ZM808.67 156.83H821.27V158.87H811.13V173.45H808.67V156.83ZM855.408 158.27H860.118V160.34H855.408V158.27ZM855.408 164.03H860.118V166.1H855.408V164.03ZM842.688 155.81C846.768 155.81 849.768 158.45 849.768 162.23C849.768 165.98 846.768 168.59 842.688 168.59C838.608 168.59 835.608 165.98 835.608 162.23C835.608 158.45 838.608 155.81 842.688 155.81ZM842.688 157.91C839.988 157.91 838.038 159.68 838.038 162.23C838.038 164.78 839.988 166.52 842.688 166.52C845.388 166.52 847.338 164.78 847.338 162.23C847.338 159.68 845.388 157.91 842.688 157.91ZM853.668 154.22H856.158V170.27H853.668V154.22ZM847.518 171.14C853.038 171.14 856.428 173.03 856.428 176.21C856.428 179.42 853.038 181.28 847.518 181.28C841.998 181.28 838.608 179.42 838.608 176.21C838.608 173.03 841.998 171.14 847.518 171.14ZM847.518 173.15C843.498 173.15 841.038 174.26 841.038 176.21C841.038 178.16 843.498 179.3 847.518 179.3C851.538 179.3 853.998 178.16 853.998 176.21C853.998 174.26 851.538 173.15 847.518 173.15ZM881.266 154.25H883.756V174.59H881.266V154.25ZM882.976 163.13H887.776V165.23H882.976V163.13ZM862.786 157.52H878.806V159.53H862.786V157.52ZM870.796 161.03C874.636 161.03 877.276 163.04 877.276 166.1C877.276 169.13 874.636 171.14 870.796 171.14C866.926 171.14 864.286 169.13 864.286 166.1C864.286 163.04 866.926 161.03 870.796 161.03ZM870.796 162.98C868.336 162.98 866.656 164.21 866.656 166.1C866.656 167.96 868.336 169.19 870.796 169.19C873.226 169.19 874.906 167.96 874.906 166.1C874.906 164.21 873.226 162.98 870.796 162.98ZM869.536 154.22H872.026V158.57H869.536V154.22ZM866.866 178.7H884.986V180.74H866.866V178.7ZM866.866 172.97H869.356V179.57H866.866V172.97ZM917.301 154.22H919.791V169.58H917.301V154.22ZM919.101 160.82H923.811V162.89H919.101V160.82ZM909.801 155.96H912.441C912.441 162.8 907.671 167.72 899.691 169.88L898.731 167.9C905.751 165.98 909.801 162.05 909.801 157.07V155.96ZM899.901 155.96H911.181V157.97H899.901V155.96ZM902.721 170.87H919.791V180.98H902.721V170.87ZM917.331 172.88H905.181V178.94H917.331V172.88ZM944.898 154.22H947.388V170.12H944.898V154.22ZM946.698 161.06H951.408V163.16H946.698V161.06ZM937.398 155.96H940.008C940.008 162.8 935.238 167.69 927.318 169.85L926.298 167.9C933.318 165.98 937.398 162.05 937.398 157.04V155.96ZM927.498 155.96H938.778V157.97H927.498V155.96ZM929.778 171.38H947.388V181.34H944.898V173.39H929.778V171.38ZM955.156 157.19H967.426V159.2H955.156V157.19ZM959.386 164.93H961.846V174.11H959.386V164.93ZM966.406 157.19H968.836V158.63C968.836 160.85 968.836 164.39 968.056 169.43L965.596 169.19C966.406 164.3 966.406 160.82 966.406 158.63V157.19ZM972.256 154.22H974.716V181.34H972.256V154.22ZM974.056 165.56H979.066V167.66H974.056V165.56ZM953.956 175.43L953.656 173.33C958.576 173.33 965.116 173.24 970.606 172.55L970.726 174.38C965.116 175.28 958.756 175.4 953.956 175.43ZM996.561 155.63H998.631V158.39C998.631 163.61 995.691 167.93 991.161 169.7L989.841 167.69C993.921 166.19 996.561 162.53 996.561 158.39V155.63ZM997.011 155.63H999.051V158.57C999.051 162.23 1001.75 165.62 1005.65 166.97L1004.33 168.92C999.981 167.3 997.011 163.28 997.011 158.57V155.63ZM1008.53 154.22H1011.02V170.66H1008.53V154.22ZM1010.33 161.21H1015.04V163.31H1010.33V161.21ZM1002.38 171.41C1007.93 171.41 1011.29 173.24 1011.29 176.36C1011.29 179.48 1007.93 181.28 1002.38 181.28C996.831 181.28 993.471 179.48 993.471 176.36C993.471 173.24 996.831 171.41 1002.38 171.41ZM1002.38 173.39C998.361 173.39 995.901 174.47 995.901 176.36C995.901 178.25 998.361 179.33 1002.38 179.33C1006.4 179.33 1008.86 178.25 1008.86 176.36C1008.86 174.47 1006.4 173.39 1002.38 173.39ZM1024.16 155.63H1026.23V158.39C1026.23 163.61 1023.29 167.93 1018.76 169.7L1017.44 167.69C1021.52 166.19 1024.16 162.53 1024.16 158.39V155.63ZM1024.61 155.63H1026.65V158.57C1026.65 162.23 1029.35 165.62 1033.25 166.97L1031.93 168.92C1027.58 167.3 1024.61 163.28 1024.61 158.57V155.63ZM1036.13 154.22H1038.62V170.66H1036.13V154.22ZM1037.93 161.21H1042.64V163.31H1037.93V161.21ZM1029.98 171.41C1035.53 171.41 1038.89 173.24 1038.89 176.36C1038.89 179.48 1035.53 181.28 1029.98 181.28C1024.43 181.28 1021.07 179.48 1021.07 176.36C1021.07 173.24 1024.43 171.41 1029.98 171.41ZM1029.98 173.39C1025.96 173.39 1023.5 174.47 1023.5 176.36C1023.5 178.25 1025.96 179.33 1029.98 179.33C1034 179.33 1036.46 178.25 1036.46 176.36C1036.46 174.47 1034 173.39 1029.98 173.39ZM1057.43 154.67C1063.4 154.67 1066.97 156.35 1066.97 159.38C1066.97 162.41 1063.4 164.09 1057.43 164.09C1051.43 164.09 1047.89 162.41 1047.89 159.38C1047.89 156.35 1051.43 154.67 1057.43 154.67ZM1057.43 156.56C1052.99 156.56 1050.44 157.58 1050.44 159.38C1050.44 161.18 1052.99 162.2 1057.43 162.2C1061.84 162.2 1064.39 161.18 1064.39 159.38C1064.39 157.58 1061.84 156.56 1057.43 156.56ZM1045.16 165.89H1069.67V167.9H1045.16V165.89ZM1048.13 170.21H1066.55V176.33H1050.65V179.63H1048.19V174.53H1064.09V172.13H1048.13V170.21ZM1048.19 179.09H1067.36V181.04H1048.19V179.09ZM1081.19 168.59H1105.7V170.6H1081.19V168.59ZM1092.2 165.08H1094.66V169.43H1092.2V165.08ZM1084.43 163.97H1102.82V165.92H1084.43V163.97ZM1084.43 155H1102.7V156.95H1086.89V165.02H1084.43V155ZM1086.17 159.44H1101.98V161.36H1086.17V159.44ZM1093.43 172.61C1099.34 172.61 1102.73 174.11 1102.73 176.96C1102.73 179.78 1099.34 181.28 1093.43 181.28C1087.52 181.28 1084.13 179.78 1084.13 176.96C1084.13 174.11 1087.52 172.61 1093.43 172.61ZM1093.43 174.5C1089.08 174.5 1086.65 175.37 1086.65 176.96C1086.65 178.58 1089.08 179.42 1093.43 179.42C1097.78 179.42 1100.21 178.58 1100.21 176.96C1100.21 175.37 1097.78 174.5 1093.43 174.5ZM1127.36 154.25H1129.85V174.59H1127.36V154.25ZM1129.07 163.13H1133.87V165.23H1129.07V163.13ZM1108.88 157.52H1124.9V159.53H1108.88V157.52ZM1116.89 161.03C1120.73 161.03 1123.37 163.04 1123.37 166.1C1123.37 169.13 1120.73 171.14 1116.89 171.14C1113.02 171.14 1110.38 169.13 1110.38 166.1C1110.38 163.04 1113.02 161.03 1116.89 161.03ZM1116.89 162.98C1114.43 162.98 1112.75 164.21 1112.75 166.1C1112.75 167.96 1114.43 169.19 1116.89 169.19C1119.32 169.19 1121 167.96 1121 166.1C1121 164.21 1119.32 162.98 1116.89 162.98ZM1115.63 154.22H1118.12V158.57H1115.63V154.22ZM1112.96 178.7H1131.08V180.74H1112.96V178.7ZM1112.96 172.97H1115.45V179.57H1112.96V172.97ZM1157.81 159.2H1165.07V161.24H1157.81V159.2ZM1157.57 164.84H1164.89V166.88H1157.57V164.84ZM1164.65 154.22H1167.14V170.48H1164.65V154.22ZM1156.16 156.26H1158.83C1158.83 163.25 1154 168.14 1146.2 170.48L1145.18 168.47C1152.11 166.46 1156.16 162.47 1156.16 157.34V156.26ZM1146.59 156.26H1157.87V158.3H1146.59V156.26ZM1158.32 170.78C1163.81 170.78 1167.29 172.73 1167.29 176C1167.29 179.27 1163.81 181.22 1158.32 181.22C1152.83 181.22 1149.35 179.27 1149.35 176C1149.35 172.73 1152.83 170.78 1158.32 170.78ZM1158.32 172.73C1154.36 172.73 1151.81 173.96 1151.81 176C1151.81 178.04 1154.36 179.24 1158.32 179.24C1162.31 179.24 1164.86 178.04 1164.86 176C1164.86 173.96 1162.31 172.73 1158.32 172.73ZM1192.25 154.22H1194.74V170.63H1192.25V154.22ZM1187.75 162.44H1193.36V164.51H1187.75V162.44ZM1177.16 172.07H1194.74V180.98H1177.16V172.07ZM1192.31 174.08H1179.59V178.97H1192.31V174.08ZM1172.48 157.04H1188.17V159.05H1172.48V157.04ZM1180.31 160.43C1183.97 160.43 1186.58 162.41 1186.58 165.29C1186.58 168.17 1183.97 170.09 1180.31 170.09C1176.65 170.09 1174.04 168.17 1174.04 165.29C1174.04 162.41 1176.65 160.43 1180.31 160.43ZM1180.31 162.35C1178.03 162.35 1176.41 163.52 1176.41 165.29C1176.41 167.03 1178.03 168.2 1180.31 168.2C1182.59 168.2 1184.21 167.03 1184.21 165.29C1184.21 163.52 1182.59 162.35 1180.31 162.35ZM1179.08 153.95H1181.57V158.48H1179.08V153.95ZM1219.73 154.19H1222.22V181.37H1219.73V154.19ZM1207.91 156.29C1211.93 156.29 1214.81 159.98 1214.81 165.74C1214.81 171.53 1211.93 175.22 1207.91 175.22C1203.92 175.22 1201.04 171.53 1201.04 165.74C1201.04 159.98 1203.92 156.29 1207.91 156.29ZM1207.91 158.54C1205.27 158.54 1203.41 161.36 1203.41 165.74C1203.41 170.15 1205.27 173.03 1207.91 173.03C1210.58 173.03 1212.41 170.15 1212.41 165.74C1212.41 161.36 1210.58 158.54 1207.91 158.54ZM1234.82 158.09H1236.83V162.5C1236.83 168.23 1233.38 173.99 1229.06 176.12L1227.62 174.14C1231.55 172.28 1234.82 167.18 1234.82 162.5V158.09ZM1235.3 158.09H1237.31V162.5C1237.31 167.09 1240.58 171.77 1244.57 173.48L1243.16 175.46C1238.78 173.42 1235.3 168.14 1235.3 162.5V158.09ZM1228.52 156.98H1243.67V159.08H1228.52V156.98ZM1247.33 154.22H1249.82V181.34H1247.33V154.22ZM1271.15 155.75C1275.2 155.75 1278.17 158.33 1278.17 162.02C1278.17 165.71 1275.2 168.29 1271.15 168.29C1267.13 168.29 1264.16 165.71 1264.16 162.02C1264.16 158.33 1267.13 155.75 1271.15 155.75ZM1271.15 157.79C1268.57 157.79 1266.59 159.56 1266.59 162.02C1266.59 164.48 1268.57 166.25 1271.15 166.25C1273.79 166.25 1275.77 164.48 1275.77 162.02C1275.77 159.56 1273.79 157.79 1271.15 157.79ZM1282.22 154.22H1284.71V167.72H1282.22V154.22ZM1283.63 160.31H1288.73V162.35H1283.63V160.31ZM1266.5 178.58H1267.79C1269.41 178.58 1272.02 178.43 1274.33 177.65L1274.75 179.66C1272.14 180.5 1269.65 180.62 1267.79 180.62H1266.5V178.58ZM1266.5 170.66H1268.93V179.3H1266.5V170.66ZM1273.76 170.84H1287.38V172.7H1273.76V170.84ZM1280.6 173.66C1283.54 173.66 1285.61 175.13 1285.61 177.47C1285.61 179.84 1283.54 181.31 1280.6 181.31C1277.63 181.31 1275.56 179.84 1275.56 177.47C1275.56 175.13 1277.63 173.66 1280.6 173.66ZM1280.6 175.43C1278.92 175.43 1277.78 176.24 1277.78 177.47C1277.78 178.73 1278.92 179.54 1280.6 179.54C1282.22 179.54 1283.39 178.73 1283.39 177.47C1283.39 176.24 1282.22 175.43 1280.6 175.43ZM1279.37 168.41H1281.8V172.28H1279.37V168.41ZM1303.52 154.67C1309.49 154.67 1313.06 156.35 1313.06 159.38C1313.06 162.41 1309.49 164.09 1303.52 164.09C1297.52 164.09 1293.98 162.41 1293.98 159.38C1293.98 156.35 1297.52 154.67 1303.52 154.67ZM1303.52 156.56C1299.08 156.56 1296.53 157.58 1296.53 159.38C1296.53 161.18 1299.08 162.2 1303.52 162.2C1307.93 162.2 1310.48 161.18 1310.48 159.38C1310.48 157.58 1307.93 156.56 1303.52 156.56ZM1291.25 165.89H1315.76V167.9H1291.25V165.89ZM1294.22 170.21H1312.64V176.33H1296.74V179.63H1294.28V174.53H1310.18V172.13H1294.22V170.21ZM1294.28 179.09H1313.45V181.04H1294.28V179.09ZM1337.69 154.22H1340.15V181.34H1337.69V154.22ZM1339.37 165.38H1344.2V167.48H1339.37V165.38ZM1324.7 157.13H1326.98C1326.98 163.67 1325.6 170 1320.74 175.25L1318.73 173.84C1323.2 169.19 1324.7 163.55 1324.7 157.4V157.13ZM1319.6 157.13H1325.63V159.2H1319.6V157.13ZM1332.08 157.13H1334.39C1334.39 163.7 1333.46 171.14 1328.48 177.05L1326.47 175.67C1331.06 170.36 1332.08 163.64 1332.08 157.37V157.13ZM1327.85 157.13H1333.1V159.2H1327.85V157.13ZM1352.48 168.17H1354.94V176.3H1352.48V168.17ZM1362.5 168.17H1364.99V176.3H1362.5V168.17ZM1346.48 175.82H1371.05V177.89H1346.48V175.82ZM1358.72 155.93C1364.45 155.93 1368.56 158.66 1368.56 162.92C1368.56 167.15 1364.45 169.88 1358.72 169.88C1352.96 169.88 1348.85 167.15 1348.85 162.92C1348.85 158.66 1352.96 155.93 1358.72 155.93ZM1358.72 157.91C1354.37 157.91 1351.25 159.89 1351.25 162.92C1351.25 165.92 1354.37 167.9 1358.72 167.9C1363.07 167.9 1366.16 165.92 1366.16 162.92C1366.16 159.89 1363.07 157.91 1358.72 157.91ZM1378.16 172.864V172.736C1378.17 171.379 1378.31 170.3 1378.58 169.497C1378.85 168.695 1379.24 168.045 1379.73 167.548C1380.23 167.05 1380.83 166.592 1381.52 166.173C1381.94 165.918 1382.32 165.616 1382.65 165.268C1382.99 164.913 1383.25 164.504 1383.44 164.043C1383.64 163.581 1383.74 163.07 1383.74 162.509C1383.74 161.812 1383.57 161.209 1383.25 160.697C1382.92 160.186 1382.48 159.792 1381.94 159.515C1381.39 159.238 1380.78 159.099 1380.12 159.099C1379.53 159.099 1378.97 159.22 1378.43 159.462C1377.89 159.703 1377.44 160.083 1377.08 160.602C1376.72 161.12 1376.51 161.798 1376.45 162.636H1373.77C1373.82 161.429 1374.14 160.396 1374.7 159.536C1375.28 158.677 1376.04 158.02 1376.97 157.565C1377.92 157.111 1378.97 156.884 1380.12 156.884C1381.37 156.884 1382.45 157.132 1383.38 157.629C1384.31 158.126 1385.02 158.808 1385.53 159.675C1386.04 160.541 1386.29 161.528 1386.29 162.636C1386.29 163.418 1386.17 164.124 1385.93 164.756C1385.7 165.388 1385.36 165.953 1384.91 166.45C1384.47 166.947 1383.94 167.388 1383.31 167.771C1382.69 168.162 1382.19 168.574 1381.81 169.007C1381.43 169.433 1381.16 169.941 1380.99 170.531C1380.82 171.12 1380.73 171.855 1380.71 172.736V172.864H1378.16ZM1379.52 179.17C1378.99 179.17 1378.54 178.982 1378.17 178.606C1377.79 178.229 1377.6 177.778 1377.6 177.253C1377.6 176.727 1377.79 176.276 1378.17 175.9C1378.54 175.523 1378.99 175.335 1379.52 175.335C1380.04 175.335 1380.5 175.523 1380.87 175.9C1381.25 176.276 1381.44 176.727 1381.44 177.253C1381.44 177.601 1381.35 177.92 1381.17 178.212C1381 178.503 1380.77 178.737 1380.48 178.915C1380.19 179.085 1379.87 179.17 1379.52 179.17Z" fill="black"/>
<defs>
<filter id="filter0_di_119_6" x="27.9453" y="18.875" width="1476.11" height="227.068" filterUnits="userSpaceOnUse" color-interpolation-filters="sRGB">
<feFlood flood-opacity="0" result="BackgroundImageFix"/>
<feColorMatrix in="SourceAlpha" type="matrix" values="0 0 0 0 0 0 0 0 0 0 0 0 0 0 0 0 0 0 127 0" result="hardAlpha"/>
<feOffset dy="4"/>
<feGaussianBlur stdDeviation="2"/>
<feComposite in2="hardAlpha" operator="out"/>
<feColorMatrix type="matrix" values="0 0 0 0 0 0 0 0 0 0 0 0 0 0 0 0 0 0 0.25 0"/>
<feBlend mode="normal" in2="BackgroundImageFix" result="effect1_dropShadow_119_6"/>
<feBlend mode="normal" in="SourceGraphic" in2="effect1_dropShadow_119_6" result="shape"/>
<feColorMatrix in="SourceAlpha" type="matrix" values="0 0 0 0 0 0 0 0 0 0 0 0 0 0 0 0 0 0 127 0" result="hardAlpha"/>
<feOffset dy="4"/>
<feGaussianBlur stdDeviation="2"/>
<feComposite in2="hardAlpha" operator="arithmetic" k2="-1" k3="1"/>
<feColorMatrix type="matrix" values="0 0 0 0 0 0 0 0 0 0 0 0 0 0 0 0 0 0 0.25 0"/>
<feBlend mode="normal" in2="shape" result="effect2_innerShadow_119_6"/>
</filter>
<filter id="filter1_di_119_6" x="65.9648" y="32.4774" width="1398.84" height="197.716" filterUnits="userSpaceOnUse" color-interpolation-filters="sRGB">
<feFlood flood-opacity="0" result="BackgroundImageFix"/>
<feColorMatrix in="SourceAlpha" type="matrix" values="0 0 0 0 0 0 0 0 0 0 0 0 0 0 0 0 0 0 127 0" result="hardAlpha"/>
<feOffset dy="4"/>
<feGaussianBlur stdDeviation="2"/>
<feComposite in2="hardAlpha" operator="out"/>
<feColorMatrix type="matrix" values="0 0 0 0 0 0 0 0 0 0 0 0 0 0 0 0 0 0 0.25 0"/>
<feBlend mode="normal" in2="BackgroundImageFix" result="effect1_dropShadow_119_6"/>
<feBlend mode="normal" in="SourceGraphic" in2="effect1_dropShadow_119_6" result="shape"/>
<feColorMatrix in="SourceAlpha" type="matrix" values="0 0 0 0 0 0 0 0 0 0 0 0 0 0 0 0 0 0 127 0" result="hardAlpha"/>
<feOffset dy="4"/>
<feGaussianBlur stdDeviation="2"/>
<feComposite in2="hardAlpha" operator="arithmetic" k2="-1" k3="1"/>
<feColorMatrix type="matrix" values="0 0 0 0 0 0 0 0 0 0 0 0 0 0 0 0 0 0 0.25 0"/>
<feBlend mode="normal" in2="shape" result="effect2_innerShadow_119_6"/>
</filter>
</defs>
</svg>
