<svg width="1516" height="253" viewBox="0 0 1516 253" fill="none" xmlns="http://www.w3.org/2000/svg">
<rect x="16" y="11" width="1500" height="242" fill="#FFD0C5"/>
<g filter="url(#filter0_di_119_64)">
<rect x="31.9453" y="18.875" width="1468.11" height="219.068" fill="#FFB5A4"/>
</g>
<g filter="url(#filter1_di_119_64)">
<rect width="1390.84" height="189.716" transform="matrix(1 0 0 -1 69.9648 222.193)" fill="#FFD0C5"/>
</g>
<path d="M153.629 82.19H156.149V109.37H153.629V82.19ZM155.549 92.9H160.589V95H155.549V92.9ZM136.439 100.52H138.569C143.579 100.52 147.089 100.34 151.139 99.59L151.409 101.69C147.239 102.47 143.669 102.62 138.569 102.62H136.439V100.52ZM136.439 84.83H149.039V86.87H138.899V101.45H136.439V84.83ZM162.866 97.25H187.466V99.26H162.866V97.25ZM166.106 106.7H184.886V108.74H166.106V106.7ZM166.106 101.39H168.596V107.48H166.106V101.39ZM165.986 83.12H184.286V89.84H168.506V93.5H166.046V88.01H181.856V85.07H165.986V83.12ZM166.046 92.84H184.886V94.79H166.046V92.84ZM205.592 85.01H207.632V87.2C207.632 92.18 204.632 96.32 200.102 97.94L198.782 95.99C202.892 94.55 205.592 91.07 205.592 87.2V85.01ZM206.042 85.01H208.082V87.17C208.082 90.77 210.692 94.1 214.682 95.45L213.392 97.4C208.922 95.84 206.042 91.85 206.042 87.17V85.01ZM199.562 84.11H214.052V86.15H199.562V84.11ZM217.472 82.22H219.962V98.54H217.472V82.22ZM219.272 89.36H223.982V91.43H219.272V89.36ZM202.352 99.98H219.962V109.34H217.472V102.05H202.352V99.98ZM237.539 96.62H239.999V101.3H237.539V96.62ZM226.499 95.3H251.009V97.34H226.499V95.3ZM228.779 83.06H248.699V85.1H228.779V83.06ZM228.899 90.77H248.579V92.81H228.899V90.77ZM232.889 83.96H235.379V92.09H232.889V83.96ZM242.129 83.96H244.589V92.09H242.129V83.96ZM229.499 100.49H248.009V108.98H229.499V100.49ZM245.579 102.47H231.959V106.97H245.579V102.47ZM266.367 82.67C272.337 82.67 275.907 84.35 275.907 87.38C275.907 90.41 272.337 92.09 266.367 92.09C260.367 92.09 256.827 90.41 256.827 87.38C256.827 84.35 260.367 82.67 266.367 82.67ZM266.367 84.56C261.927 84.56 259.377 85.58 259.377 87.38C259.377 89.18 261.927 90.2 266.367 90.2C270.777 90.2 273.327 89.18 273.327 87.38C273.327 85.58 270.777 84.56 266.367 84.56ZM254.097 93.89H278.607V95.9H254.097V93.89ZM257.067 98.21H275.487V104.33H259.587V107.63H257.127V102.53H273.027V100.13H257.067V98.21ZM257.127 107.09H276.297V109.04H257.127V107.09ZM292.742 84.92H310.202V86.99H292.742V84.92ZM290.162 103.49H314.672V105.56H290.162V103.49ZM299.672 93.8H302.162V104.51H299.672V93.8ZM309.272 84.92H311.732V87.62C311.732 90.98 311.732 94.7 310.742 100.19L308.252 99.86C309.272 94.67 309.272 90.86 309.272 87.62V84.92ZM317.76 103.85H342.33V105.95H317.76V103.85ZM320.73 84.29H339.3V92.51H323.28V97.94H320.82V90.53H336.84V86.33H320.73V84.29ZM320.82 96.89H339.93V98.93H320.82V96.89ZM359.817 85.46H365.937V87.5H359.817V85.46ZM359.817 90.8H365.937V92.81H359.817V90.8ZM365.157 82.22H367.647V98.12H365.157V82.22ZM352.107 83.18H354.147V86C354.147 91.34 351.267 95.75 346.737 97.55L345.387 95.6C349.497 94.04 352.107 90.26 352.107 86V83.18ZM352.527 83.18H354.537V86C354.537 89.93 357.177 93.62 361.107 95.15L359.727 97.13C355.407 95.33 352.527 91.01 352.527 86V83.18ZM352.257 99.11H354.207V100.31C354.207 103.88 351.987 107.51 348.087 109.01L346.827 107.15C350.247 105.89 352.257 102.95 352.257 100.31V99.11ZM352.827 99.11H354.687V100.31C354.687 103.07 356.277 106.04 359.547 107.36L358.497 109.25C354.567 107.72 352.827 103.94 352.827 100.31V99.11ZM362.307 99.11H364.137V100.31C364.137 103.52 362.367 107.6 358.497 109.25L357.417 107.36C360.657 105.86 362.307 102.68 362.307 100.31V99.11ZM362.787 99.11H364.737V100.31C364.737 103.16 366.717 105.98 370.197 107.15L368.907 109.01C364.977 107.57 362.787 104.09 362.787 100.31V99.11ZM376.045 98.48H378.505V101.63H391.765V98.48H394.255V108.98H376.045V98.48ZM378.505 103.55V106.97H391.765V103.55H378.505ZM372.925 94.58H397.435V96.59H372.925V94.58ZM383.935 82.52H386.065V83.72C386.065 88.43 380.815 91.82 375.235 92.66L374.335 90.71C379.225 90.05 383.935 87.14 383.935 83.72V82.52ZM384.325 82.52H386.455V83.72C386.455 87.08 391.225 90.05 396.055 90.71L395.125 92.66C389.605 91.82 384.325 88.37 384.325 83.72V82.52ZM420.263 82.22H422.753V109.34H420.263V82.22ZM402.263 84.86H404.723V101.66H402.263V84.86ZM402.263 100.19H404.483C408.593 100.19 412.883 99.89 417.473 98.93L417.773 101.06C413.063 102.02 408.773 102.35 404.483 102.35H402.263V100.19ZM446.48 82.19H449V109.37H446.48V82.19ZM448.4 92.9H453.44V95H448.4V92.9ZM429.29 100.52H431.42C436.43 100.52 439.94 100.34 443.99 99.59L444.26 101.69C440.09 102.47 436.52 102.62 431.42 102.62H429.29V100.52ZM429.29 84.83H441.89V86.87H431.75V101.45H429.29V84.83ZM458.382 107.17C457.856 107.17 457.405 106.982 457.029 106.606C456.652 106.229 456.464 105.778 456.464 105.253C456.464 104.727 456.652 104.276 457.029 103.9C457.405 103.523 457.856 103.335 458.382 103.335C458.907 103.335 459.358 103.523 459.735 103.9C460.111 104.276 460.299 104.727 460.299 105.253C460.299 105.601 460.21 105.92 460.033 106.212C459.862 106.503 459.632 106.737 459.34 106.915C459.056 107.085 458.737 107.17 458.382 107.17ZM492.607 93.02H497.617V95.12H492.607V93.02ZM490.777 82.19H493.297V109.34H490.777V82.19ZM473.497 84.86H475.987V101.66H473.497V84.86ZM473.497 100.37H475.657C479.677 100.37 483.787 100.1 488.257 99.17L488.557 101.24C483.937 102.2 479.767 102.47 475.657 102.47H473.497V100.37ZM500.915 100.61H502.715C506.015 100.61 509.075 100.49 512.795 99.86L513.005 101.9C509.195 102.56 506.135 102.68 502.715 102.68H500.915V100.61ZM500.855 85.19H510.545V94.64H503.345V101.45H500.915V92.63H508.145V87.23H500.855V85.19ZM520.655 82.22H523.055V109.34H520.655V82.22ZM511.835 91.94H516.215V94.01H511.835V91.94ZM515.195 82.88H517.505V107.93H515.195V82.88ZM547.323 82.19H549.813V109.37H547.323V82.19ZM535.503 84.29C539.523 84.29 542.403 87.98 542.403 93.74C542.403 99.53 539.523 103.22 535.503 103.22C531.513 103.22 528.633 99.53 528.633 93.74C528.633 87.98 531.513 84.29 535.503 84.29ZM535.503 86.54C532.863 86.54 531.003 89.36 531.003 93.74C531.003 98.15 532.863 101.03 535.503 101.03C538.173 101.03 540.003 98.15 540.003 93.74C540.003 89.36 538.173 86.54 535.503 86.54ZM569.61 86.21H575.7V88.28H569.61V86.21ZM569.61 91.79H575.7V93.83H569.61V91.79ZM562.02 83.75H564.03V87.2C564.03 92.51 561.12 97.04 556.59 98.87L555.27 96.89C559.32 95.33 562.02 91.46 562.02 87.2V83.75ZM562.47 83.75H564.51V87.2C564.51 91.16 567.12 94.91 571.05 96.47L569.67 98.42C565.38 96.62 562.47 92.24 562.47 87.2V83.75ZM575.04 82.25H577.53V102.47H575.04V82.25ZM560.1 106.7H578.19V108.74H560.1V106.7ZM560.1 100.43H562.59V107.81H560.1V100.43ZM602.518 82.19H605.008V109.37H602.518V82.19ZM590.698 84.29C594.718 84.29 597.598 87.98 597.598 93.74C597.598 99.53 594.718 103.22 590.698 103.22C586.708 103.22 583.828 99.53 583.828 93.74C583.828 87.98 586.708 84.29 590.698 84.29ZM590.698 86.54C588.058 86.54 586.198 89.36 586.198 93.74C586.198 98.15 588.058 101.03 590.698 101.03C593.368 101.03 595.198 98.15 595.198 93.74C595.198 89.36 593.368 86.54 590.698 86.54ZM632.793 87.11H639.723V89.18H632.793V87.11ZM638.673 82.22H641.163V96.2H638.673V82.22ZM623.703 97.61H641.163V104.09H626.223V108.2H623.793V102.23H638.703V99.59H623.703V97.61ZM623.793 107H642.183V108.98H623.793V107ZM625.623 83.06H627.663V85.61C627.663 90.62 624.663 94.67 620.133 96.29L618.843 94.31C622.923 92.93 625.623 89.54 625.623 85.61V83.06ZM626.043 83.06H628.053V85.61C628.053 89.15 630.783 92.42 634.713 93.71L633.423 95.66C629.043 94.1 626.043 90.2 626.043 85.61V83.06ZM659.401 86.6H667.231V88.64H659.401V86.6ZM659.401 92H667.291V94.01H659.401V92ZM666.271 82.22H668.761V98.27H666.271V82.22ZM647.701 84.26H660.091V96.32H647.701V84.26ZM657.631 86.27H650.131V94.34H657.631V86.27ZM659.851 99.05C665.431 99.05 668.881 100.94 668.881 104.18C668.881 107.42 665.431 109.28 659.851 109.28C654.241 109.28 650.791 107.42 650.791 104.18C650.791 100.94 654.241 99.05 659.851 99.05ZM659.851 101.03C655.771 101.03 653.281 102.2 653.281 104.18C653.281 106.16 655.771 107.33 659.851 107.33C663.931 107.33 666.421 106.16 666.421 104.18C666.421 102.2 663.931 101.03 659.851 101.03ZM692.608 82.25H695.098V102.59H692.608V82.25ZM694.318 91.13H699.118V93.23H694.318V91.13ZM674.128 85.52H690.148V87.53H674.128V85.52ZM682.138 89.03C685.978 89.03 688.618 91.04 688.618 94.1C688.618 97.13 685.978 99.14 682.138 99.14C678.268 99.14 675.628 97.13 675.628 94.1C675.628 91.04 678.268 89.03 682.138 89.03ZM682.138 90.98C679.678 90.98 677.998 92.21 677.998 94.1C677.998 95.96 679.678 97.19 682.138 97.19C684.568 97.19 686.248 95.96 686.248 94.1C686.248 92.21 684.568 90.98 682.138 90.98ZM680.878 82.22H683.368V86.57H680.878V82.22ZM678.208 106.7H696.328V108.74H678.208V106.7ZM678.208 100.97H680.698V107.57H678.208V100.97ZM716.764 85.01H718.804V87.2C718.804 92.18 715.804 96.32 711.274 97.94L709.954 95.99C714.064 94.55 716.764 91.07 716.764 87.2V85.01ZM717.214 85.01H719.254V87.17C719.254 90.77 721.864 94.1 725.854 95.45L724.564 97.4C720.094 95.84 717.214 91.85 717.214 87.17V85.01ZM710.734 84.11H725.224V86.15H710.734V84.11ZM728.644 82.22H731.134V98.54H728.644V82.22ZM730.444 89.36H735.154V91.43H730.444V89.36ZM713.524 99.98H731.134V109.34H728.644V102.05H713.524V99.98ZM748.711 96.62H751.171V101.3H748.711V96.62ZM737.671 95.3H762.181V97.34H737.671V95.3ZM739.951 83.06H759.871V85.1H739.951V83.06ZM740.071 90.77H759.751V92.81H740.071V90.77ZM744.061 83.96H746.551V92.09H744.061V83.96ZM753.301 83.96H755.761V92.09H753.301V83.96ZM740.671 100.49H759.181V108.98H740.671V100.49ZM756.751 102.47H743.131V106.97H756.751V102.47ZM765.269 96.47H789.779V98.51H765.269V96.47ZM768.449 106.7H787.079V108.74H768.449V106.7ZM768.449 100.88H770.939V107.33H768.449V100.88ZM777.539 83.12C783.329 83.12 787.079 85.16 787.079 88.55C787.079 91.91 783.329 93.95 777.539 93.95C771.719 93.95 767.999 91.91 767.999 88.55C767.999 85.16 771.719 83.12 777.539 83.12ZM777.539 85.16C773.279 85.16 770.549 86.42 770.549 88.55C770.549 90.68 773.279 91.94 777.539 91.94C781.799 91.94 784.529 90.68 784.529 88.55C784.529 86.42 781.799 85.16 777.539 85.16ZM802.476 107V85.1818H815.644V87.5256H805.118V94.8977H814.962V97.2415H805.118V104.656H815.814V107H802.476ZM826.244 107.341C824.88 107.341 823.676 106.996 822.632 106.308C821.588 105.612 820.771 104.631 820.182 103.367C819.593 102.096 819.298 100.594 819.298 98.8608C819.298 97.142 819.593 95.6506 820.182 94.3864C820.771 93.1222 821.592 92.1456 822.643 91.4567C823.694 90.7678 824.909 90.4233 826.286 90.4233C827.352 90.4233 828.193 90.6009 828.811 90.956C829.436 91.304 829.912 91.7017 830.239 92.1491C830.573 92.5895 830.832 92.9517 831.017 93.2358H831.23V85.1818H833.744V107H831.315V104.486H831.017C830.832 104.784 830.569 105.161 830.228 105.615C829.887 106.062 829.401 106.464 828.769 106.819C828.137 107.167 827.295 107.341 826.244 107.341ZM826.585 105.082C827.593 105.082 828.445 104.82 829.142 104.294C829.838 103.761 830.367 103.026 830.729 102.089C831.091 101.144 831.272 100.054 831.272 98.8182C831.272 97.5966 831.095 96.5277 830.74 95.6115C830.384 94.6882 829.859 93.9709 829.163 93.4595C828.467 92.9411 827.607 92.6818 826.585 92.6818C825.519 92.6818 824.632 92.9553 823.921 93.5021C823.218 94.0419 822.689 94.777 822.334 95.7074C821.986 96.6307 821.812 97.6676 821.812 98.8182C821.812 99.983 821.99 101.041 822.345 101.993C822.707 102.937 823.24 103.69 823.943 104.251C824.653 104.805 825.534 105.082 826.585 105.082ZM842.405 107L837.419 90.6364H840.061L843.598 103.165H843.769L847.263 90.6364H849.948L853.399 103.122H853.57L857.107 90.6364H859.749L854.763 107H852.291L848.712 94.429H848.456L844.877 107H842.405ZM867.888 107.384C866.851 107.384 865.91 107.188 865.065 106.798C864.22 106.4 863.548 105.828 863.051 105.082C862.554 104.33 862.306 103.42 862.306 102.355C862.306 101.418 862.49 100.658 862.86 100.075C863.229 99.4858 863.722 99.0241 864.34 98.6903C864.958 98.3565 865.64 98.108 866.386 97.9446C867.139 97.7741 867.895 97.6392 868.655 97.5398C869.649 97.4119 870.455 97.3161 871.073 97.2521C871.698 97.1811 872.153 97.0639 872.437 96.9006C872.728 96.7372 872.874 96.4531 872.874 96.0483V95.9631C872.874 94.9119 872.586 94.0952 872.011 93.5128C871.443 92.9304 870.58 92.6392 869.422 92.6392C868.222 92.6392 867.281 92.902 866.599 93.4276C865.917 93.9531 865.438 94.5142 865.161 95.1108L862.774 94.2585C863.2 93.2642 863.769 92.4901 864.479 91.9361C865.196 91.375 865.977 90.9844 866.823 90.7642C867.675 90.5369 868.513 90.4233 869.337 90.4233C869.862 90.4233 870.466 90.4872 871.148 90.6151C871.837 90.7358 872.501 90.9879 873.14 91.3714C873.786 91.755 874.323 92.3338 874.749 93.108C875.175 93.8821 875.388 94.919 875.388 96.2188V107H872.874V104.784H872.746C872.575 105.139 872.291 105.519 871.894 105.924C871.496 106.329 870.967 106.673 870.306 106.957C869.646 107.241 868.84 107.384 867.888 107.384ZM868.271 105.125C869.266 105.125 870.104 104.93 870.786 104.539C871.475 104.148 871.993 103.644 872.341 103.026C872.696 102.408 872.874 101.759 872.874 101.077V98.7756C872.767 98.9034 872.533 99.0206 872.171 99.1271C871.816 99.2266 871.404 99.3153 870.935 99.3935C870.473 99.4645 870.022 99.5284 869.582 99.5852C869.149 99.6349 868.797 99.6776 868.527 99.7131C867.874 99.7983 867.263 99.9368 866.695 100.129C866.134 100.313 865.679 100.594 865.331 100.97C864.99 101.339 864.82 101.844 864.82 102.483C864.82 103.357 865.143 104.017 865.789 104.464C866.443 104.905 867.27 105.125 868.271 105.125ZM879.977 107V90.6364H882.406V93.108H882.576C882.875 92.2983 883.414 91.6413 884.196 91.1371C884.977 90.6328 885.858 90.3807 886.838 90.3807C887.022 90.3807 887.253 90.3842 887.53 90.3913C887.807 90.3984 888.017 90.4091 888.159 90.4233V92.9801C888.074 92.9588 887.878 92.9268 887.573 92.8842C887.275 92.8345 886.958 92.8097 886.625 92.8097C885.829 92.8097 885.119 92.9766 884.494 93.3104C883.876 93.6371 883.386 94.0916 883.024 94.674C882.669 95.2493 882.491 95.9062 882.491 96.6449V107H879.977ZM896.82 107.341C895.456 107.341 894.252 106.996 893.208 106.308C892.164 105.612 891.348 104.631 890.758 103.367C890.169 102.096 889.874 100.594 889.874 98.8608C889.874 97.142 890.169 95.6506 890.758 94.3864C891.348 93.1222 892.168 92.1456 893.219 91.4567C894.27 90.7678 895.485 90.4233 896.863 90.4233C897.928 90.4233 898.77 90.6009 899.387 90.956C900.012 91.304 900.488 91.7017 900.815 92.1491C901.149 92.5895 901.408 92.9517 901.593 93.2358H901.806V85.1818H904.32V107H901.891V104.486H901.593C901.408 104.784 901.145 105.161 900.804 105.615C900.463 106.062 899.977 106.464 899.345 106.819C898.713 107.167 897.871 107.341 896.82 107.341ZM897.161 105.082C898.169 105.082 899.022 104.82 899.718 104.294C900.414 103.761 900.943 103.026 901.305 102.089C901.667 101.144 901.848 100.054 901.848 98.8182C901.848 97.5966 901.671 96.5277 901.316 95.6115C900.961 94.6882 900.435 93.9709 899.739 93.4595C899.043 92.9411 898.184 92.6818 897.161 92.6818C896.096 92.6818 895.208 92.9553 894.498 93.5021C893.794 94.0419 893.265 94.777 892.91 95.7074C892.562 96.6307 892.388 97.6676 892.388 98.8182C892.388 99.983 892.566 101.041 892.921 101.993C893.283 102.937 893.816 103.69 894.519 104.251C895.229 104.805 896.11 105.082 897.161 105.082ZM918.052 107V85.1818H920.694V94.8977H932.328V85.1818H934.97V107H932.328V97.2415H920.694V107H918.052ZM946.566 107.341C945.089 107.341 943.793 106.989 942.678 106.286C941.57 105.583 940.703 104.599 940.078 103.335C939.46 102.071 939.151 100.594 939.151 98.9034C939.151 97.1989 939.46 95.7109 940.078 94.4396C940.703 93.1683 941.57 92.1811 942.678 91.478C943.793 90.7749 945.089 90.4233 946.566 90.4233C948.043 90.4233 949.336 90.7749 950.444 91.478C951.559 92.1811 952.425 93.1683 953.043 94.4396C953.668 95.7109 953.981 97.1989 953.981 98.9034C953.981 100.594 953.668 102.071 953.043 103.335C952.425 104.599 951.559 105.583 950.444 106.286C949.336 106.989 948.043 107.341 946.566 107.341ZM946.566 105.082C947.688 105.082 948.612 104.795 949.336 104.219C950.06 103.644 950.597 102.888 950.945 101.95C951.293 101.013 951.467 99.9972 951.467 98.9034C951.467 97.8097 951.293 96.7905 950.945 95.8459C950.597 94.9013 950.06 94.1378 949.336 93.5554C948.612 92.973 947.688 92.6818 946.566 92.6818C945.444 92.6818 944.521 92.973 943.796 93.5554C943.072 94.1378 942.536 94.9013 942.188 95.8459C941.839 96.7905 941.665 97.8097 941.665 98.9034C941.665 99.9972 941.839 101.013 942.188 101.95C942.536 102.888 943.072 103.644 943.796 104.219C944.521 104.795 945.444 105.082 946.566 105.082ZM957.819 113.136V90.6364H960.248V93.2358H960.546C960.731 92.9517 960.986 92.5895 961.313 92.1491C961.647 91.7017 962.123 91.304 962.741 90.956C963.366 90.6009 964.211 90.4233 965.276 90.4233C966.654 90.4233 967.868 90.7678 968.92 91.4567C969.971 92.1456 970.791 93.1222 971.381 94.3864C971.97 95.6506 972.265 97.142 972.265 98.8608C972.265 100.594 971.97 102.096 971.381 103.367C970.791 104.631 969.974 105.612 968.93 106.308C967.886 106.996 966.682 107.341 965.319 107.341C964.268 107.341 963.426 107.167 962.794 106.819C962.162 106.464 961.675 106.062 961.334 105.615C960.993 105.161 960.731 104.784 960.546 104.486H960.333V113.136H957.819ZM960.29 98.8182C960.29 100.054 960.471 101.144 960.834 102.089C961.196 103.026 961.725 103.761 962.421 104.294C963.117 104.82 963.969 105.082 964.978 105.082C966.029 105.082 966.906 104.805 967.609 104.251C968.319 103.69 968.852 102.937 969.207 101.993C969.569 101.041 969.751 99.983 969.751 98.8182C969.751 97.6676 969.573 96.6307 969.218 95.7074C968.87 94.777 968.341 94.0419 967.631 93.5021C966.927 92.9553 966.043 92.6818 964.978 92.6818C963.955 92.6818 963.096 92.9411 962.4 93.4595C961.704 93.9709 961.178 94.6882 960.823 95.6115C960.468 96.5277 960.29 97.5966 960.29 98.8182ZM976.1 113.136V90.6364H978.529V93.2358H978.827C979.012 92.9517 979.268 92.5895 979.594 92.1491C979.928 91.7017 980.404 91.304 981.022 90.956C981.647 90.6009 982.492 90.4233 983.557 90.4233C984.935 90.4233 986.15 90.7678 987.201 91.4567C988.252 92.1456 989.072 93.1222 989.662 94.3864C990.251 95.6506 990.546 97.142 990.546 98.8608C990.546 100.594 990.251 102.096 989.662 103.367C989.072 104.631 988.256 105.612 987.211 106.308C986.167 106.996 984.964 107.341 983.6 107.341C982.549 107.341 981.707 107.167 981.075 106.819C980.443 106.464 979.956 106.062 979.616 105.615C979.275 105.161 979.012 104.784 978.827 104.486H978.614V113.136H976.1ZM978.572 98.8182C978.572 100.054 978.753 101.144 979.115 102.089C979.477 103.026 980.006 103.761 980.702 104.294C981.398 104.82 982.251 105.082 983.259 105.082C984.31 105.082 985.187 104.805 985.89 104.251C986.601 103.69 987.133 102.937 987.488 101.993C987.851 101.041 988.032 99.983 988.032 98.8182C988.032 97.6676 987.854 96.6307 987.499 95.7074C987.151 94.777 986.622 94.0419 985.912 93.5021C985.209 92.9553 984.324 92.6818 983.259 92.6818C982.236 92.6818 981.377 92.9411 980.681 93.4595C979.985 93.9709 979.459 94.6882 979.104 95.6115C978.749 96.5277 978.572 97.5966 978.572 98.8182ZM1001.24 107.341C999.665 107.341 998.305 106.993 997.162 106.297C996.025 105.594 995.148 104.614 994.53 103.357C993.92 102.092 993.614 100.622 993.614 98.946C993.614 97.2699 993.92 95.7926 994.53 94.5142C995.148 93.2287 996.008 92.2273 997.108 91.5099C998.216 90.7855 999.509 90.4233 1000.99 90.4233C1001.84 90.4233 1002.68 90.5653 1003.51 90.8494C1004.34 91.1335 1005.1 91.5952 1005.78 92.2344C1006.46 92.8665 1007.01 93.7045 1007.41 94.7486C1007.82 95.7926 1008.02 97.0781 1008.02 98.6051V99.6705H995.404V97.4972H1005.46C1005.46 96.5739 1005.28 95.75 1004.91 95.0256C1004.54 94.3011 1004.03 93.7294 1003.35 93.3104C1002.68 92.8913 1001.9 92.6818 1000.99 92.6818C999.985 92.6818 999.118 92.9304 998.387 93.4276C997.662 93.9176 997.105 94.5568 996.714 95.3452C996.324 96.1335 996.128 96.9787 996.128 97.8807V99.3295C996.128 100.565 996.341 101.613 996.768 102.472C997.201 103.325 997.801 103.974 998.568 104.422C999.335 104.862 1000.23 105.082 1001.24 105.082C1001.9 105.082 1002.5 104.99 1003.03 104.805C1003.57 104.614 1004.04 104.33 1004.43 103.953C1004.82 103.57 1005.12 103.094 1005.33 102.526L1007.76 103.207C1007.51 104.031 1007.08 104.756 1006.47 105.381C1005.87 105.999 1005.12 106.482 1004.24 106.83C1003.35 107.17 1002.35 107.341 1001.24 107.341ZM1011.84 107V90.6364H1014.27V93.108H1014.44C1014.74 92.2983 1015.28 91.6413 1016.06 91.1371C1016.84 90.6328 1017.72 90.3807 1018.7 90.3807C1018.89 90.3807 1019.12 90.3842 1019.4 90.3913C1019.67 90.3984 1019.88 90.4091 1020.02 90.4233V92.9801C1019.94 92.9588 1019.74 92.9268 1019.44 92.8842C1019.14 92.8345 1018.82 92.8097 1018.49 92.8097C1017.69 92.8097 1016.98 92.9766 1016.36 93.3104C1015.74 93.6371 1015.25 94.0916 1014.89 94.674C1014.53 95.2493 1014.36 95.9062 1014.36 96.6449V107H1011.84ZM1030.99 84.17C1035.22 84.17 1038.25 86.78 1038.25 90.56C1038.25 94.37 1035.22 96.98 1030.99 96.98C1026.76 96.98 1023.7 94.37 1023.7 90.56C1023.7 86.78 1026.76 84.17 1030.99 84.17ZM1030.99 86.33C1028.17 86.33 1026.13 88.04 1026.13 90.56C1026.13 93.08 1028.17 94.82 1030.99 94.82C1033.78 94.82 1035.82 93.08 1035.82 90.56C1035.82 88.04 1033.78 86.33 1030.99 86.33ZM1041.79 82.19H1044.28V109.37H1041.79V82.19ZM1022.68 103.43L1022.32 101.36C1027.27 101.36 1034.11 101.33 1040.02 100.4L1040.23 102.23C1034.14 103.4 1027.51 103.43 1022.68 103.43ZM1058.19 92V90.0824C1058.19 89.5 1058.29 88.8821 1058.5 88.2287C1058.71 87.5682 1059.01 86.9325 1059.41 86.3217C1059.82 85.7038 1060.3 85.1676 1060.87 84.7131L1062.24 85.821C1061.79 86.4602 1061.4 87.1278 1061.06 87.8239C1060.74 88.5128 1060.57 89.2514 1060.57 90.0398V92H1058.19ZM1063.64 92V90.0824C1063.64 89.5 1063.74 88.8821 1063.95 88.2287C1064.16 87.5682 1064.47 86.9325 1064.87 86.3217C1065.27 85.7038 1065.76 85.1676 1066.33 84.7131L1067.69 85.821C1067.24 86.4602 1066.85 87.1278 1066.52 87.8239C1066.19 88.5128 1066.03 89.2514 1066.03 90.0398V92H1063.64ZM1088.11 85.1818V107H1085.55L1073.66 89.8693H1073.45V107H1070.81V85.1818H1073.36L1085.29 102.355H1085.51V85.1818H1088.11ZM1093.05 107V90.6364H1095.57V107H1093.05ZM1094.33 87.9091C1093.84 87.9091 1093.42 87.7422 1093.06 87.4084C1092.72 87.0746 1092.54 86.6733 1092.54 86.2045C1092.54 85.7358 1092.72 85.3345 1093.06 85.0007C1093.42 84.6669 1093.84 84.5 1094.33 84.5C1094.82 84.5 1095.24 84.6669 1095.59 85.0007C1095.94 85.3345 1096.12 85.7358 1096.12 86.2045C1096.12 86.6733 1095.94 87.0746 1095.59 87.4084C1095.24 87.7422 1094.82 87.9091 1094.33 87.9091ZM1106.78 113.477C1105.56 113.477 1104.52 113.321 1103.65 113.009C1102.77 112.703 1102.04 112.298 1101.46 111.794C1100.89 111.297 1100.43 110.764 1100.09 110.196L1102.09 108.79C1102.32 109.088 1102.6 109.429 1102.95 109.812C1103.3 110.203 1103.78 110.54 1104.38 110.825C1104.99 111.116 1105.79 111.261 1106.78 111.261C1108.1 111.261 1109.19 110.942 1110.05 110.303C1110.91 109.663 1111.34 108.662 1111.34 107.298V103.974H1111.12C1110.94 104.273 1110.68 104.642 1110.34 105.082C1110 105.516 1109.52 105.903 1108.89 106.244C1108.26 106.577 1107.42 106.744 1106.35 106.744C1105.03 106.744 1103.84 106.432 1102.79 105.807C1101.75 105.182 1100.92 104.273 1100.31 103.08C1099.71 101.886 1099.41 100.437 1099.41 98.733C1099.41 97.0568 1099.7 95.5973 1100.29 94.3544C1100.88 93.1044 1101.7 92.1385 1102.75 91.4567C1103.8 90.7678 1105.02 90.4233 1106.39 90.4233C1107.46 90.4233 1108.3 90.6009 1108.93 90.956C1109.56 91.304 1110.04 91.7017 1110.38 92.1491C1110.72 92.5895 1110.98 92.9517 1111.17 93.2358H1111.42V90.6364H1113.85V107.469C1113.85 108.875 1113.53 110.018 1112.89 110.899C1112.26 111.787 1111.41 112.437 1110.34 112.849C1109.27 113.268 1108.08 113.477 1106.78 113.477ZM1106.69 104.486C1107.7 104.486 1108.55 104.255 1109.25 103.793C1109.94 103.332 1110.47 102.668 1110.84 101.801C1111.2 100.935 1111.38 99.8977 1111.38 98.6903C1111.38 97.5114 1111.2 96.4709 1110.85 95.5689C1110.49 94.6669 1109.97 93.9602 1109.27 93.4489C1108.57 92.9375 1107.71 92.6818 1106.69 92.6818C1105.63 92.6818 1104.74 92.9517 1104.03 93.4915C1103.33 94.0312 1102.8 94.7557 1102.44 95.6648C1102.09 96.5739 1101.92 97.5824 1101.92 98.6903C1101.92 99.8267 1102.1 100.832 1102.45 101.705C1102.81 102.572 1103.35 103.254 1104.05 103.751C1104.76 104.241 1105.64 104.486 1106.69 104.486ZM1120.97 97.1562V107H1118.45V85.1818H1120.97V93.1932H1121.18C1121.56 92.348 1122.14 91.6768 1122.91 91.1797C1123.68 90.6754 1124.71 90.4233 1126 90.4233C1127.11 90.4233 1128.09 90.647 1128.93 91.0945C1129.76 91.5348 1130.41 92.2131 1130.88 93.1293C1131.34 94.0384 1131.58 95.196 1131.58 96.6023V107H1129.06V96.7727C1129.06 95.473 1128.73 94.468 1128.05 93.7578C1127.38 93.0405 1126.46 92.6818 1125.27 92.6818C1124.45 92.6818 1123.71 92.8558 1123.06 93.2038C1122.41 93.5518 1121.9 94.0597 1121.52 94.7273C1121.15 95.3949 1120.97 96.2045 1120.97 97.1562ZM1143.29 90.6364V92.767H1134.81V90.6364H1143.29ZM1137.29 86.7159H1139.8V102.312C1139.8 103.023 1139.9 103.555 1140.11 103.911C1140.32 104.259 1140.59 104.493 1140.92 104.614C1141.25 104.727 1141.6 104.784 1141.97 104.784C1142.25 104.784 1142.48 104.77 1142.66 104.741C1142.83 104.706 1142.97 104.678 1143.08 104.656L1143.59 106.915C1143.42 106.979 1143.18 107.043 1142.88 107.107C1142.57 107.178 1142.19 107.213 1141.72 107.213C1141.01 107.213 1140.31 107.06 1139.63 106.755C1138.96 106.45 1138.39 105.984 1137.95 105.359C1137.51 104.734 1137.29 103.946 1137.29 102.994V86.7159ZM1149.94 97.1562V107H1147.43V85.1818H1149.94V93.1932H1150.16C1150.54 92.348 1151.11 91.6768 1151.88 91.1797C1152.66 90.6754 1153.69 90.4233 1154.97 90.4233C1156.09 90.4233 1157.06 90.647 1157.9 91.0945C1158.74 91.5348 1159.39 92.2131 1159.85 93.1293C1160.32 94.0384 1160.55 95.196 1160.55 96.6023V107H1158.04V96.7727C1158.04 95.473 1157.7 94.468 1157.03 93.7578C1156.36 93.0405 1155.43 92.6818 1154.25 92.6818C1153.42 92.6818 1152.68 92.8558 1152.03 93.2038C1151.38 93.5518 1150.87 94.0597 1150.5 94.7273C1150.13 95.3949 1149.94 96.2045 1149.94 97.1562ZM1169.97 107.384C1168.93 107.384 1167.99 107.188 1167.14 106.798C1166.3 106.4 1165.63 105.828 1165.13 105.082C1164.63 104.33 1164.39 103.42 1164.39 102.355C1164.39 101.418 1164.57 100.658 1164.94 100.075C1165.31 99.4858 1165.8 99.0241 1166.42 98.6903C1167.04 98.3565 1167.72 98.108 1168.47 97.9446C1169.22 97.7741 1169.98 97.6392 1170.74 97.5398C1171.73 97.4119 1172.54 97.3161 1173.15 97.2521C1173.78 97.1811 1174.23 97.0639 1174.52 96.9006C1174.81 96.7372 1174.95 96.4531 1174.95 96.0483V95.9631C1174.95 94.9119 1174.67 94.0952 1174.09 93.5128C1173.52 92.9304 1172.66 92.6392 1171.5 92.6392C1170.3 92.6392 1169.36 92.902 1168.68 93.4276C1168 93.9531 1167.52 94.5142 1167.24 95.1108L1164.85 94.2585C1165.28 93.2642 1165.85 92.4901 1166.56 91.9361C1167.28 91.375 1168.06 90.9844 1168.9 90.7642C1169.75 90.5369 1170.59 90.4233 1171.42 90.4233C1171.94 90.4233 1172.55 90.4872 1173.23 90.6151C1173.92 90.7358 1174.58 90.9879 1175.22 91.3714C1175.87 91.755 1176.4 92.3338 1176.83 93.108C1177.25 93.8821 1177.47 94.919 1177.47 96.2188V107H1174.95V104.784H1174.83C1174.66 105.139 1174.37 105.519 1173.97 105.924C1173.58 106.329 1173.05 106.673 1172.39 106.957C1171.73 107.241 1170.92 107.384 1169.97 107.384ZM1170.35 105.125C1171.35 105.125 1172.18 104.93 1172.87 104.539C1173.55 104.148 1174.07 103.644 1174.42 103.026C1174.78 102.408 1174.95 101.759 1174.95 101.077V98.7756C1174.85 98.9034 1174.61 99.0206 1174.25 99.1271C1173.9 99.2266 1173.48 99.3153 1173.01 99.3935C1172.55 99.4645 1172.1 99.5284 1171.66 99.5852C1171.23 99.6349 1170.88 99.6776 1170.61 99.7131C1169.95 99.7983 1169.34 99.9368 1168.77 100.129C1168.21 100.313 1167.76 100.594 1167.41 100.97C1167.07 101.339 1166.9 101.844 1166.9 102.483C1166.9 103.357 1167.22 104.017 1167.87 104.464C1168.52 104.905 1169.35 105.125 1170.35 105.125ZM1185.76 107L1180.78 90.6364H1183.42L1186.96 103.165H1187.13L1190.62 90.6364H1193.31L1196.76 103.122H1196.93L1200.47 90.6364H1203.11L1198.12 107H1195.65L1192.07 94.429H1191.82L1188.24 107H1185.76ZM1208.78 101.034L1208.73 97.9233H1209.24L1216.4 90.6364H1219.51L1211.89 98.3494H1211.67L1208.78 101.034ZM1206.43 107V85.1818H1208.95V107H1206.43ZM1216.83 107L1210.44 98.9034L1212.23 97.1562L1220.03 107H1216.83ZM1234.34 94.3011L1232.08 94.9403C1231.94 94.5639 1231.73 94.1982 1231.45 93.843C1231.18 93.4808 1230.81 93.1825 1230.35 92.9482C1229.88 92.7138 1229.28 92.5966 1228.55 92.5966C1227.54 92.5966 1226.71 92.8274 1226.04 93.2891C1225.38 93.7436 1225.05 94.3224 1225.05 95.0256C1225.05 95.6506 1225.28 96.1442 1225.73 96.5064C1226.19 96.8686 1226.9 97.1705 1227.86 97.4119L1230.29 98.0085C1231.76 98.3636 1232.85 98.907 1233.56 99.6385C1234.28 100.363 1234.64 101.297 1234.64 102.44C1234.64 103.378 1234.37 104.216 1233.83 104.955C1233.3 105.693 1232.55 106.276 1231.59 106.702C1230.63 107.128 1229.52 107.341 1228.25 107.341C1226.58 107.341 1225.2 106.979 1224.1 106.254C1223.01 105.53 1222.32 104.472 1222.03 103.08L1224.41 102.483C1224.64 103.364 1225.07 104.024 1225.7 104.464C1226.34 104.905 1227.18 105.125 1228.2 105.125C1229.38 105.125 1230.31 104.876 1231 104.379C1231.69 103.875 1232.04 103.271 1232.04 102.568C1232.04 102 1231.84 101.524 1231.44 101.141C1231.05 100.75 1230.44 100.459 1229.61 100.267L1226.88 99.6278C1225.39 99.2727 1224.28 98.7223 1223.58 97.9766C1222.89 97.2237 1222.54 96.2827 1222.54 95.1534C1222.54 94.2301 1222.8 93.4134 1223.31 92.7031C1223.84 91.9929 1224.55 91.4354 1225.46 91.0305C1226.37 90.6257 1227.4 90.4233 1228.55 90.4233C1230.17 90.4233 1231.44 90.7784 1232.36 91.4886C1233.29 92.1989 1233.95 93.1364 1234.34 94.3011ZM1240.64 85.1818V87.0994C1240.64 87.6818 1240.53 88.3033 1240.32 88.9638C1240.11 89.6172 1239.81 90.2528 1239.4 90.8707C1239.01 91.4815 1238.52 92.0142 1237.96 92.4688L1236.59 91.3608C1237.04 90.7216 1237.43 90.0575 1237.75 89.3686C1238.09 88.6726 1238.25 87.9304 1238.25 87.142V85.1818H1240.64ZM1246.09 85.1818V87.0994C1246.09 87.6818 1245.99 88.3033 1245.78 88.9638C1245.57 89.6172 1245.26 90.2528 1244.86 90.8707C1244.46 91.4815 1243.98 92.0142 1243.41 92.4688L1242.05 91.3608C1242.49 90.7216 1242.88 90.0575 1243.21 89.3686C1243.54 88.6726 1243.71 87.9304 1243.71 87.142V85.1818H1246.09ZM1261.41 86H1269.87V88.01H1261.41V86ZM1261.41 92.06H1269.87V94.13H1261.41V92.06ZM1255.95 98.54H1257.9V100.34C1257.9 103.94 1255.68 107.54 1251.78 109.04L1250.52 107.18C1253.94 105.92 1255.95 102.98 1255.95 100.34V98.54ZM1256.52 98.54H1258.38V100.34C1258.38 103.1 1259.97 106.07 1263.24 107.39L1262.19 109.28C1258.26 107.75 1256.52 103.97 1256.52 100.34V98.54ZM1266 98.54H1267.83V100.34C1267.83 103.55 1266.06 107.63 1262.19 109.28L1261.11 107.39C1264.35 105.89 1266 102.71 1266 100.34V98.54ZM1266.48 98.54H1268.43V100.34C1268.43 103.19 1270.41 106.01 1273.89 107.18L1272.6 109.04C1268.67 107.6 1266.48 104.12 1266.48 100.34V98.54ZM1256.43 83.69C1260.42 83.69 1263.39 86.33 1263.39 90.08C1263.39 93.86 1260.42 96.5 1256.43 96.5C1252.44 96.5 1249.5 93.86 1249.5 90.08C1249.5 86.33 1252.44 83.69 1256.43 83.69ZM1256.43 85.79C1253.79 85.79 1251.84 87.56 1251.84 90.08C1251.84 92.6 1253.79 94.4 1256.43 94.4C1259.07 94.4 1260.99 92.6 1260.99 90.08C1260.99 87.56 1259.07 85.79 1256.43 85.79ZM1268.85 82.22H1271.34V97.67H1268.85V82.22ZM1279.74 98.48H1282.2V101.63H1295.46V98.48H1297.95V108.98H1279.74V98.48ZM1282.2 103.55V106.97H1295.46V103.55H1282.2ZM1276.62 94.58H1301.13V96.59H1276.62V94.58ZM1287.63 82.52H1289.76V83.72C1289.76 88.43 1284.51 91.82 1278.93 92.66L1278.03 90.71C1282.92 90.05 1287.63 87.14 1287.63 83.72V82.52ZM1288.02 82.52H1290.15V83.72C1290.15 87.08 1294.92 90.05 1299.75 90.71L1298.82 92.66C1293.3 91.82 1288.02 88.37 1288.02 83.72V82.52ZM1323.95 82.22H1326.44V109.34H1323.95V82.22ZM1305.95 84.86H1308.41V101.66H1305.95V84.86ZM1305.95 100.19H1308.17C1312.28 100.19 1316.57 99.89 1321.16 98.93L1321.46 101.06C1316.75 102.02 1312.46 102.35 1308.17 102.35H1305.95V100.19ZM1350.17 82.19H1352.69V109.37H1350.17V82.19ZM1352.09 92.9H1357.13V95H1352.09V92.9ZM1332.98 100.52H1335.11C1340.12 100.52 1343.63 100.34 1347.68 99.59L1347.95 101.69C1343.78 102.47 1340.21 102.62 1335.11 102.62H1332.98V100.52ZM1332.98 84.83H1345.58V86.87H1335.44V101.45H1332.98V84.83ZM1362.07 107.17C1361.55 107.17 1361.1 106.982 1360.72 106.606C1360.34 106.229 1360.16 105.778 1360.16 105.253C1360.16 104.727 1360.34 104.276 1360.72 103.9C1361.1 103.523 1361.55 103.335 1362.07 103.335C1362.6 103.335 1363.05 103.523 1363.43 103.9C1363.8 104.276 1363.99 104.727 1363.99 105.253C1363.99 105.601 1363.9 105.92 1363.72 106.212C1363.55 106.503 1363.32 106.737 1363.03 106.915C1362.75 107.085 1362.43 107.17 1362.07 107.17ZM416.789 120.56H418.829V125.42C418.829 131.66 415.469 137.45 411.029 139.7L409.499 137.66C413.519 135.74 416.789 130.55 416.789 125.42V120.56ZM417.209 120.56H419.249V125.42C419.249 130.37 422.489 135.35 426.509 137.21L425.009 139.19C420.599 137.03 417.209 131.45 417.209 125.42V120.56ZM429.329 118.19H431.819V145.37H429.329V118.19ZM455.787 118.22H458.277V134.12H455.787V118.22ZM457.587 125.06H462.297V127.16H457.587V125.06ZM448.287 119.96H450.897C450.897 126.8 446.127 131.69 438.207 133.85L437.187 131.9C444.207 129.98 448.287 126.05 448.287 121.04V119.96ZM438.387 119.96H449.667V121.97H438.387V119.96ZM440.667 135.38H458.277V145.34H455.787V137.39H440.667V135.38ZM471.505 121.13H473.545V123.32C473.545 128.3 470.545 132.47 465.985 134.12L464.725 132.14C468.805 130.7 471.505 127.19 471.505 123.32V121.13ZM471.955 121.13H473.995V123.29C473.995 126.83 476.575 130.01 480.565 131.33L479.365 133.28C474.835 131.78 471.955 127.91 471.955 123.29V121.13ZM465.475 120.23H479.965V122.27H465.475V120.23ZM483.385 118.22H485.875V134.57H483.385V118.22ZM485.185 125.09H489.895V127.19H485.185V125.09ZM477.235 135.29C482.755 135.29 486.145 137.12 486.145 140.27C486.145 143.45 482.755 145.28 477.235 145.28C471.715 145.28 468.325 143.45 468.325 140.27C468.325 137.12 471.715 135.29 477.235 135.29ZM477.235 137.3C473.215 137.3 470.755 138.38 470.755 140.27C470.755 142.19 473.215 143.33 477.235 143.33C481.255 143.33 483.715 142.19 483.715 140.27C483.715 138.38 481.255 137.3 477.235 137.3ZM498.532 120.47C502.042 120.47 504.322 124.1 504.322 129.92C504.322 135.74 502.042 139.37 498.532 139.37C495.022 139.37 492.772 135.74 492.772 129.92C492.772 124.1 495.022 120.47 498.532 120.47ZM498.532 122.78C496.402 122.78 495.052 125.54 495.052 129.92C495.052 134.3 496.402 137.06 498.532 137.06C500.662 137.06 502.012 134.3 502.012 129.92C502.012 125.54 500.662 122.78 498.532 122.78ZM513.082 118.22H515.482V145.34H513.082V118.22ZM508.792 128.96H513.982V131H508.792V128.96ZM507.082 118.79H509.452V143.99H507.082V118.79ZM539.75 118.25H542.27V138.05H539.75V118.25ZM524.84 142.7H543.08V144.74H524.84V142.7ZM524.84 136.01H527.3V143.39H524.84V136.01ZM527.72 120.11C531.77 120.11 534.77 122.87 534.77 126.8C534.77 130.7 531.77 133.49 527.72 133.49C523.67 133.49 520.64 130.7 520.64 126.8C520.64 122.87 523.67 120.11 527.72 120.11ZM527.72 122.27C525.08 122.27 523.07 124.13 523.07 126.8C523.07 129.44 525.08 131.3 527.72 131.3C530.36 131.3 532.37 129.44 532.37 126.8C532.37 124.13 530.36 122.27 527.72 122.27ZM556.428 120.17C560.658 120.17 563.688 122.78 563.688 126.56C563.688 130.37 560.658 132.98 556.428 132.98C552.198 132.98 549.138 130.37 549.138 126.56C549.138 122.78 552.198 120.17 556.428 120.17ZM556.428 122.33C553.608 122.33 551.568 124.04 551.568 126.56C551.568 129.08 553.608 130.82 556.428 130.82C559.218 130.82 561.258 129.08 561.258 126.56C561.258 124.04 559.218 122.33 556.428 122.33ZM567.228 118.19H569.718V145.37H567.228V118.19ZM548.118 139.43L547.758 137.36C552.708 137.36 559.548 137.33 565.458 136.4L565.668 138.23C559.578 139.4 552.948 139.43 548.118 139.43ZM603.383 118.22H605.903V132.77H603.383V118.22ZM588.413 134.12H590.873V137.42H603.443V134.12H605.903V144.98H588.413V134.12ZM590.873 139.4V142.97H603.443V139.4H590.873ZM591.353 119.51C595.463 119.51 598.403 122.06 598.403 125.75C598.403 129.47 595.463 132.02 591.353 132.02C587.243 132.02 584.273 129.47 584.273 125.75C584.273 122.06 587.243 119.51 591.353 119.51ZM591.353 121.58C588.653 121.58 586.703 123.29 586.703 125.75C586.703 128.21 588.653 129.92 591.353 129.92C594.053 129.92 596.003 128.21 596.003 125.75C596.003 123.29 594.053 121.58 591.353 121.58ZM617.931 121.13H619.971V123.32C619.971 128.3 616.971 132.47 612.411 134.12L611.151 132.14C615.231 130.7 617.931 127.19 617.931 123.32V121.13ZM618.381 121.13H620.421V123.29C620.421 126.83 623.001 130.01 626.991 131.33L625.791 133.28C621.261 131.78 618.381 127.91 618.381 123.29V121.13ZM611.901 120.23H626.391V122.27H611.901V120.23ZM629.811 118.22H632.301V134.57H629.811V118.22ZM631.611 125.09H636.321V127.19H631.611V125.09ZM623.661 135.29C629.181 135.29 632.571 137.12 632.571 140.27C632.571 143.45 629.181 145.28 623.661 145.28C618.141 145.28 614.751 143.45 614.751 140.27C614.751 137.12 618.141 135.29 623.661 135.29ZM623.661 137.3C619.641 137.3 617.181 138.38 617.181 140.27C617.181 142.19 619.641 143.33 623.661 143.33C627.681 143.33 630.141 142.19 630.141 140.27C630.141 138.38 627.681 137.3 623.661 137.3ZM649.848 128.75H654.978V130.82H649.848V128.75ZM659.508 118.22H661.908V145.34H659.508V118.22ZM654.138 118.79H656.508V143.99H654.138V118.79ZM644.958 120.47C648.468 120.47 650.748 124.1 650.748 129.92C650.748 135.74 648.468 139.37 644.958 139.37C641.448 139.37 639.198 135.74 639.198 129.92C639.198 124.1 641.448 120.47 644.958 120.47ZM644.958 122.78C642.828 122.78 641.478 125.54 641.478 129.92C641.478 134.3 642.828 137.06 644.958 137.06C647.118 137.06 648.468 134.3 648.468 129.92C648.468 125.54 647.118 122.78 644.958 122.78ZM679.996 127.4H687.556V129.44H679.996V127.4ZM673.456 120.56H675.496V125.39C675.496 131.48 672.286 137.3 667.996 139.61L666.406 137.63C670.396 135.65 673.456 130.43 673.456 125.39V120.56ZM673.936 120.56H675.946V125.39C675.946 130.34 679.006 135.26 682.936 137.12L681.466 139.13C677.086 136.91 673.936 131.33 673.936 125.39V120.56ZM686.326 118.19H688.786V145.37H686.326V118.19ZM709.161 121.01H711.201V123.2C711.201 128.18 708.201 132.32 703.671 133.94L702.351 131.99C706.461 130.55 709.161 127.07 709.161 123.2V121.01ZM709.611 121.01H711.651V123.17C711.651 126.77 714.261 130.1 718.251 131.45L716.961 133.4C712.491 131.84 709.611 127.85 709.611 123.17V121.01ZM703.131 120.11H717.621V122.15H703.131V120.11ZM721.041 118.22H723.531V134.54H721.041V118.22ZM722.841 125.36H727.551V127.43H722.841V125.36ZM705.921 135.98H723.531V145.34H721.041V138.05H705.921V135.98ZM741.109 132.62H743.569V137.3H741.109V132.62ZM730.069 131.3H754.579V133.34H730.069V131.3ZM732.349 119.06H752.269V121.1H732.349V119.06ZM732.469 126.77H752.149V128.81H732.469V126.77ZM736.459 119.96H738.949V128.09H736.459V119.96ZM745.699 119.96H748.159V128.09H745.699V119.96ZM733.069 136.49H751.579V144.98H733.069V136.49ZM749.149 138.47H735.529V142.97H749.149V138.47ZM769.936 118.67C775.906 118.67 779.476 120.35 779.476 123.38C779.476 126.41 775.906 128.09 769.936 128.09C763.936 128.09 760.396 126.41 760.396 123.38C760.396 120.35 763.936 118.67 769.936 118.67ZM769.936 120.56C765.496 120.56 762.946 121.58 762.946 123.38C762.946 125.18 765.496 126.2 769.936 126.2C774.346 126.2 776.896 125.18 776.896 123.38C776.896 121.58 774.346 120.56 769.936 120.56ZM757.666 129.89H782.176V131.9H757.666V129.89ZM760.636 134.21H779.056V140.33H763.156V143.63H760.696V138.53H776.596V136.13H760.636V134.21ZM760.696 143.09H779.866V145.04H760.696V143.09ZM812.271 118.22H814.761V133.58H812.271V118.22ZM814.071 124.82H818.781V126.89H814.071V124.82ZM804.771 119.96H807.411C807.411 126.8 802.641 131.72 794.661 133.88L793.701 131.9C800.721 129.98 804.771 126.05 804.771 121.07V119.96ZM794.871 119.96H806.151V121.97H794.871V119.96ZM797.691 134.87H814.761V144.98H797.691V134.87ZM812.301 136.88H800.151V142.94H812.301V136.88ZM827.899 119.63H829.969V122.39C829.969 127.61 827.029 131.93 822.499 133.7L821.179 131.69C825.259 130.19 827.899 126.53 827.899 122.39V119.63ZM828.349 119.63H830.389V122.57C830.389 126.23 833.089 129.62 836.989 130.97L835.669 132.92C831.319 131.3 828.349 127.28 828.349 122.57V119.63ZM839.869 118.22H842.359V134.66H839.869V118.22ZM841.669 125.21H846.379V127.31H841.669V125.21ZM833.719 135.41C839.269 135.41 842.629 137.24 842.629 140.36C842.629 143.48 839.269 145.28 833.719 145.28C828.169 145.28 824.809 143.48 824.809 140.36C824.809 137.24 828.169 135.41 833.719 135.41ZM833.719 137.39C829.699 137.39 827.239 138.47 827.239 140.36C827.239 142.25 829.699 143.33 833.719 143.33C837.739 143.33 840.199 142.25 840.199 140.36C840.199 138.47 837.739 137.39 833.719 137.39ZM848.867 122.84H862.307V124.88H848.867V122.84ZM855.587 126.68C858.977 126.68 861.437 129.23 861.437 132.89C861.437 136.52 858.977 139.07 855.587 139.07C852.227 139.07 849.767 136.52 849.767 132.89C849.767 129.23 852.227 126.68 855.587 126.68ZM855.587 128.81C853.517 128.81 852.017 130.49 852.017 132.89C852.017 135.29 853.517 136.97 855.587 136.97C857.687 136.97 859.217 135.29 859.217 132.89C859.217 130.49 857.687 128.81 855.587 128.81ZM869.477 118.22H871.877V145.34H869.477V118.22ZM865.157 129.62H870.287V131.69H865.157V129.62ZM863.687 118.82H866.027V144.02H863.687V118.82ZM854.387 119H856.847V124.1H854.387V119ZM876.524 139.82H901.094V141.89H876.524V139.82ZM887.504 133.34H889.994V140.42H887.504V133.34ZM879.404 120.14H881.864V124.97H895.694V120.14H898.154V134H879.404V120.14ZM881.864 126.98V131.96H895.694V126.98H881.864ZM923.832 118.22H926.322V145.34H923.832V118.22ZM905.832 120.86H908.292V137.66H905.832V120.86ZM905.832 136.19H908.052C912.162 136.19 916.452 135.89 921.042 134.93L921.342 137.06C916.632 138.02 912.342 138.35 908.052 138.35H905.832V136.19ZM947.387 120.29C951.317 120.29 954.137 123.98 954.137 129.74C954.137 135.53 951.317 139.22 947.387 139.22C943.427 139.22 940.637 135.53 940.637 129.74C940.637 123.98 943.427 120.29 947.387 120.29ZM947.387 122.54C944.777 122.54 943.007 125.36 943.007 129.74C943.007 134.15 944.777 137.03 947.387 137.03C949.997 137.03 951.767 134.15 951.767 129.74C951.767 125.36 949.997 122.54 947.387 122.54ZM960.017 118.19H962.477V145.37H960.017V118.19ZM953.327 128.54H961.097V130.58H953.327V128.54ZM968.565 136.31H969.735C971.355 136.31 973.245 136.28 975.375 135.74L975.675 137.81C973.365 138.35 971.505 138.38 969.735 138.38H968.565V136.31ZM968.565 120.95H975.255V122.99H971.025V137.27H968.565V120.95ZM976.725 136.31H978.105C980.805 136.31 982.815 136.22 985.155 135.65L985.395 137.72C982.935 138.32 980.925 138.38 978.105 138.38H976.725V136.31ZM976.725 120.95H984.075V122.99H979.185V137.3H976.725V120.95ZM987.855 118.22H990.345V145.34H987.855V118.22ZM982.725 128.12H988.755V130.19H982.725V128.12ZM1009.81 121.46H1015.93V123.5H1009.81V121.46ZM1009.81 126.8H1015.93V128.81H1009.81V126.8ZM1015.15 118.22H1017.64V134.12H1015.15V118.22ZM1002.1 119.18H1004.14V122C1004.14 127.34 1001.26 131.75 996.733 133.55L995.383 131.6C999.493 130.04 1002.1 126.26 1002.1 122V119.18ZM1002.52 119.18H1004.53V122C1004.53 125.93 1007.17 129.62 1011.1 131.15L1009.72 133.13C1005.4 131.33 1002.52 127.01 1002.52 122V119.18ZM1002.25 135.11H1004.2V136.31C1004.2 139.88 1001.98 143.51 998.083 145.01L996.823 143.15C1000.24 141.89 1002.25 138.95 1002.25 136.31V135.11ZM1002.82 135.11H1004.68V136.31C1004.68 139.07 1006.27 142.04 1009.54 143.36L1008.49 145.25C1004.56 143.72 1002.82 139.94 1002.82 136.31V135.11ZM1012.3 135.11H1014.13V136.31C1014.13 139.52 1012.36 143.6 1008.49 145.25L1007.41 143.36C1010.65 141.86 1012.3 138.68 1012.3 136.31V135.11ZM1012.78 135.11H1014.73V136.31C1014.73 139.16 1016.71 141.98 1020.19 143.15L1018.9 145.01C1014.97 143.57 1012.78 140.09 1012.78 136.31V135.11ZM1043.11 129.02H1048.12V131.12H1043.11V129.02ZM1041.28 118.19H1043.8V145.34H1041.28V118.19ZM1024 120.86H1026.49V137.66H1024V120.86ZM1024 136.37H1026.16C1030.18 136.37 1034.29 136.1 1038.76 135.17L1039.06 137.24C1034.44 138.2 1030.27 138.47 1026.16 138.47H1024V136.37ZM1056.55 132.17H1059.01V140.3H1056.55V132.17ZM1066.57 132.17H1069.06V140.3H1066.57V132.17ZM1050.55 139.82H1075.12V141.89H1050.55V139.82ZM1062.79 119.93C1068.52 119.93 1072.63 122.66 1072.63 126.92C1072.63 131.15 1068.52 133.88 1062.79 133.88C1057.03 133.88 1052.92 131.15 1052.92 126.92C1052.92 122.66 1057.03 119.93 1062.79 119.93ZM1062.79 121.91C1058.44 121.91 1055.32 123.89 1055.32 126.92C1055.32 129.92 1058.44 131.9 1062.79 131.9C1067.14 131.9 1070.23 129.92 1070.23 126.92C1070.23 123.89 1067.14 121.91 1062.79 121.91ZM1082.23 136.864V136.736C1082.24 135.379 1082.38 134.3 1082.65 133.497C1082.92 132.695 1083.31 132.045 1083.8 131.548C1084.3 131.05 1084.9 130.592 1085.59 130.173C1086.01 129.918 1086.39 129.616 1086.72 129.268C1087.06 128.913 1087.32 128.504 1087.51 128.043C1087.71 127.581 1087.81 127.07 1087.81 126.509C1087.81 125.812 1087.65 125.209 1087.32 124.697C1086.99 124.186 1086.56 123.792 1086.01 123.515C1085.46 123.238 1084.86 123.099 1084.19 123.099C1083.61 123.099 1083.04 123.22 1082.5 123.462C1081.97 123.703 1081.51 124.083 1081.15 124.602C1080.79 125.12 1080.58 125.798 1080.52 126.636H1077.84C1077.9 125.429 1078.21 124.396 1078.78 123.536C1079.35 122.677 1080.11 122.02 1081.05 121.565C1081.99 121.111 1083.04 120.884 1084.19 120.884C1085.44 120.884 1086.52 121.132 1087.45 121.629C1088.38 122.126 1089.1 122.808 1089.6 123.675C1090.11 124.541 1090.37 125.528 1090.37 126.636C1090.37 127.418 1090.25 128.124 1090 128.756C1089.77 129.388 1089.43 129.953 1088.98 130.45C1088.54 130.947 1088.01 131.388 1087.38 131.771C1086.76 132.162 1086.26 132.574 1085.88 133.007C1085.51 133.433 1085.23 133.941 1085.06 134.531C1084.89 135.12 1084.8 135.855 1084.78 136.736V136.864H1082.23ZM1083.59 143.17C1083.07 143.17 1082.61 142.982 1082.24 142.606C1081.86 142.229 1081.67 141.778 1081.67 141.253C1081.67 140.727 1081.86 140.276 1082.24 139.9C1082.61 139.523 1083.07 139.335 1083.59 139.335C1084.12 139.335 1084.57 139.523 1084.94 139.9C1085.32 140.276 1085.51 140.727 1085.51 141.253C1085.51 141.601 1085.42 141.92 1085.24 142.212C1085.07 142.503 1084.84 142.737 1084.55 142.915C1084.27 143.085 1083.95 143.17 1083.59 143.17ZM116.362 157.1H133.822V159.11H116.362V157.1ZM113.722 175.31H138.232V177.38H113.722V175.31ZM132.502 157.1H134.932V159.8C134.932 163.28 134.932 167.15 133.912 173L131.422 172.76C132.502 167.21 132.502 163.16 132.502 159.8V157.1ZM141.319 165.53H165.829V167.57H141.319V165.53ZM144.559 161.33H162.919V163.34H144.559V161.33ZM144.559 155.09H162.619V157.13H147.019V162.95H144.559V155.09ZM144.259 169.91H162.679V176.3H146.779V179.72H144.319V174.44H160.219V171.86H144.259V169.91ZM144.319 179.06H163.489V181.04H144.319V179.06ZM179.897 164.75H185.027V166.82H179.897V164.75ZM189.557 154.22H191.957V181.34H189.557V154.22ZM184.187 154.79H186.557V179.99H184.187V154.79ZM175.007 156.47C178.517 156.47 180.797 160.1 180.797 165.92C180.797 171.74 178.517 175.37 175.007 175.37C171.497 175.37 169.247 171.74 169.247 165.92C169.247 160.1 171.497 156.47 175.007 156.47ZM175.007 158.78C172.877 158.78 171.527 161.54 171.527 165.92C171.527 170.3 172.877 173.06 175.007 173.06C177.167 173.06 178.517 170.3 178.517 165.92C178.517 161.54 177.167 158.78 175.007 158.78ZM217.155 154.22H219.555V181.34H217.155V154.22ZM205.395 165.29H212.235V167.3H205.395V165.29ZM211.515 154.91H213.855V179.96H211.515V154.91ZM205.725 157.64H208.125C208.125 164.75 205.275 171.14 197.955 175.49L196.485 173.72C202.875 169.88 205.725 164.48 205.725 158.09V157.64ZM197.685 157.64H206.655V159.68H197.685V157.64ZM239.21 157.01H241.25V159.2C241.25 164.18 238.25 168.32 233.72 169.94L232.4 167.99C236.51 166.55 239.21 163.07 239.21 159.2V157.01ZM239.66 157.01H241.7V159.17C241.7 162.77 244.31 166.1 248.3 167.45L247.01 169.4C242.54 167.84 239.66 163.85 239.66 159.17V157.01ZM233.18 156.11H247.67V158.15H233.18V156.11ZM251.09 154.22H253.58V170.54H251.09V154.22ZM252.89 161.36H257.6V163.43H252.89V161.36ZM235.97 171.98H253.58V181.34H251.09V174.05H235.97V171.98ZM271.157 168.62H273.617V173.3H271.157V168.62ZM260.117 167.3H284.627V169.34H260.117V167.3ZM262.397 155.06H282.317V157.1H262.397V155.06ZM262.517 162.77H282.197V164.81H262.517V162.77ZM266.507 155.96H268.997V164.09H266.507V155.96ZM275.747 155.96H278.207V164.09H275.747V155.96ZM263.117 172.49H281.627V180.98H263.117V172.49ZM279.197 174.47H265.577V178.97H279.197V174.47ZM299.985 154.67C305.955 154.67 309.525 156.35 309.525 159.38C309.525 162.41 305.955 164.09 299.985 164.09C293.985 164.09 290.445 162.41 290.445 159.38C290.445 156.35 293.985 154.67 299.985 154.67ZM299.985 156.56C295.545 156.56 292.995 157.58 292.995 159.38C292.995 161.18 295.545 162.2 299.985 162.2C304.395 162.2 306.945 161.18 306.945 159.38C306.945 157.58 304.395 156.56 299.985 156.56ZM287.715 165.89H312.225V167.9H287.715V165.89ZM290.685 170.21H309.105V176.33H293.205V179.63H290.745V174.53H306.645V172.13H290.685V170.21ZM290.745 179.09H309.915V181.04H290.745V179.09ZM342.32 154.22H344.81V169.58H342.32V154.22ZM344.12 160.82H348.83V162.89H344.12V160.82ZM334.82 155.96H337.46C337.46 162.8 332.69 167.72 324.71 169.88L323.75 167.9C330.77 165.98 334.82 162.05 334.82 157.07V155.96ZM324.92 155.96H336.2V157.97H324.92V155.96ZM327.74 170.87H344.81V180.98H327.74V170.87ZM342.35 172.88H330.2V178.94H342.35V172.88ZM357.948 155.63H360.018V158.39C360.018 163.61 357.078 167.93 352.548 169.7L351.228 167.69C355.308 166.19 357.948 162.53 357.948 158.39V155.63ZM358.398 155.63H360.438V158.57C360.438 162.23 363.138 165.62 367.038 166.97L365.718 168.92C361.368 167.3 358.398 163.28 358.398 158.57V155.63ZM369.918 154.22H372.408V170.66H369.918V154.22ZM371.718 161.21H376.428V163.31H371.718V161.21ZM363.768 171.41C369.318 171.41 372.678 173.24 372.678 176.36C372.678 179.48 369.318 181.28 363.768 181.28C358.218 181.28 354.858 179.48 354.858 176.36C354.858 173.24 358.218 171.41 363.768 171.41ZM363.768 173.39C359.748 173.39 357.288 174.47 357.288 176.36C357.288 178.25 359.748 179.33 363.768 179.33C367.788 179.33 370.248 178.25 370.248 176.36C370.248 174.47 367.788 173.39 363.768 173.39ZM397.336 154.22H399.826V181.34H397.336V154.22ZM399.226 165.35H404.266V167.45H399.226V165.35ZM378.826 158.54H394.816V160.58H378.826V158.54ZM386.926 162.83C390.766 162.83 393.526 165.41 393.526 169.07C393.526 172.73 390.766 175.31 386.926 175.31C383.116 175.31 380.326 172.73 380.326 169.07C380.326 165.41 383.116 162.83 386.926 162.83ZM386.926 164.9C384.466 164.9 382.696 166.61 382.696 169.07C382.696 171.5 384.466 173.24 386.926 173.24C389.386 173.24 391.156 171.5 391.156 169.07C391.156 166.61 389.386 164.9 386.926 164.9ZM385.636 154.55H388.126V159.47H385.636V154.55ZM409.873 162.35H428.293V164.39H409.873V162.35ZM406.543 168.02H431.143V170.06H406.543V168.02ZM409.873 155.21H412.333V163.37H409.873V155.21ZM409.693 178.64H428.443V180.68H409.693V178.64ZM409.693 172.76H412.153V179.18H409.693V172.76ZM462.408 154.22H464.898V172.58H462.408V154.22ZM456.588 161.87H462.918V163.91H456.588V161.87ZM453.888 156.35H456.498C456.498 163.37 451.878 168.35 444.108 170.87L443.058 168.89C449.928 166.73 453.888 162.65 453.888 157.34V156.35ZM444.348 156.35H455.658V158.39H444.348V156.35ZM454.908 170.24H457.038V171.47C457.038 176.66 452.298 180.17 446.868 181.28L445.878 179.3C450.678 178.43 454.908 175.43 454.908 171.47V170.24ZM455.268 170.24H457.398V171.47C457.398 175.37 461.568 178.37 466.398 179.24L465.348 181.22C459.948 180.14 455.268 176.63 455.268 171.47V170.24ZM470.176 168.47H494.686V170.51H470.176V168.47ZM473.356 178.7H491.986V180.74H473.356V178.7ZM473.356 172.88H475.846V179.33H473.356V172.88ZM482.446 155.12C488.236 155.12 491.986 157.16 491.986 160.55C491.986 163.91 488.236 165.95 482.446 165.95C476.626 165.95 472.906 163.91 472.906 160.55C472.906 157.16 476.626 155.12 482.446 155.12ZM482.446 157.16C478.186 157.16 475.456 158.42 475.456 160.55C475.456 162.68 478.186 163.94 482.446 163.94C486.706 163.94 489.436 162.68 489.436 160.55C489.436 158.42 486.706 157.16 482.446 157.16ZM513.381 156.56H515.421V161.42C515.421 167.66 512.061 173.45 507.621 175.7L506.091 173.66C510.111 171.74 513.381 166.55 513.381 161.42V156.56ZM513.801 156.56H515.841V161.42C515.841 166.37 519.081 171.35 523.101 173.21L521.601 175.19C517.191 173.03 513.801 167.45 513.801 161.42V156.56ZM525.921 154.19H528.411V181.37H525.921V154.19ZM552.379 154.22H554.869V170.12H552.379V154.22ZM554.179 161.06H558.889V163.16H554.179V161.06ZM544.879 155.96H547.489C547.489 162.8 542.719 167.69 534.799 169.85L533.779 167.9C540.799 165.98 544.879 162.05 544.879 157.04V155.96ZM534.979 155.96H546.259V157.97H534.979V155.96ZM537.259 171.38H554.869V181.34H552.379V173.39H537.259V171.38ZM568.337 156.98H570.377V159.17C570.377 164.12 567.317 168.35 562.787 170.03L561.497 168.05C565.547 166.61 568.337 163.01 568.337 159.17V156.98ZM568.817 156.98H570.827V159.17C570.827 162.65 573.467 166.04 577.397 167.42L576.137 169.4C571.727 167.78 568.817 163.7 568.817 159.17V156.98ZM575.927 161.27H581.957V163.34H575.927V161.27ZM562.277 156.08H576.767V158.09H562.277V156.08ZM565.637 171.92H583.727V181.34H581.237V173.96H565.637V171.92ZM581.237 154.22H583.727V170.45H581.237V154.22ZM608.744 154.25H611.264V174.05H608.744V154.25ZM593.834 178.7H612.074V180.74H593.834V178.7ZM593.834 172.01H596.294V179.39H593.834V172.01ZM596.714 156.11C600.764 156.11 603.764 158.87 603.764 162.8C603.764 166.7 600.764 169.49 596.714 169.49C592.664 169.49 589.634 166.7 589.634 162.8C589.634 158.87 592.664 156.11 596.714 156.11ZM596.714 158.27C594.074 158.27 592.064 160.13 592.064 162.8C592.064 165.44 594.074 167.3 596.714 167.3C599.354 167.3 601.364 165.44 601.364 162.8C601.364 160.13 599.354 158.27 596.714 158.27ZM644.869 154.22H647.359V172.58H644.869V154.22ZM639.049 161.87H645.379V163.91H639.049V161.87ZM636.349 156.35H638.959C638.959 163.37 634.339 168.35 626.569 170.87L625.519 168.89C632.389 166.73 636.349 162.65 636.349 157.34V156.35ZM626.809 156.35H638.119V158.39H626.809V156.35ZM637.369 170.24H639.499V171.47C639.499 176.66 634.759 180.17 629.329 181.28L628.339 179.3C633.139 178.43 637.369 175.43 637.369 171.47V170.24ZM637.729 170.24H639.859V171.47C639.859 175.37 644.029 178.37 648.859 179.24L647.809 181.22C642.409 180.14 637.729 176.63 637.729 171.47V170.24ZM664.907 154.67C670.877 154.67 674.447 156.35 674.447 159.38C674.447 162.41 670.877 164.09 664.907 164.09C658.907 164.09 655.367 162.41 655.367 159.38C655.367 156.35 658.907 154.67 664.907 154.67ZM664.907 156.56C660.467 156.56 657.917 157.58 657.917 159.38C657.917 161.18 660.467 162.2 664.907 162.2C669.317 162.2 671.867 161.18 671.867 159.38C671.867 157.58 669.317 156.56 664.907 156.56ZM652.637 165.89H677.147V167.9H652.637V165.89ZM655.607 170.21H674.027V176.33H658.127V179.63H655.667V174.53H671.567V172.13H655.607V170.21ZM655.667 179.09H674.837V181.04H655.667V179.09ZM696.622 170.03H699.142V180.5H696.622V170.03ZM708.712 154.22H711.202V181.37H708.712V154.22ZM688.852 171.29L688.492 169.22C694.012 169.22 700.852 169.19 707.062 168.47L707.212 170.33C700.852 171.29 694.192 171.32 688.852 171.29ZM698.632 163.91H705.982V165.92H698.632V163.91ZM698.632 156.2H705.772V158.24H701.092V164.81H698.632V156.2ZM690.232 156.2H697.222V158.24H692.692V164.93H690.232V156.2ZM690.232 163.91H691.462C693.292 163.91 695.212 163.88 697.492 163.34L697.732 165.35C695.302 165.89 693.382 165.92 691.462 165.92H690.232V163.91ZM723.53 156.29C727.46 156.29 730.28 159.98 730.28 165.74C730.28 171.53 727.46 175.22 723.53 175.22C719.57 175.22 716.78 171.53 716.78 165.74C716.78 159.98 719.57 156.29 723.53 156.29ZM723.53 158.54C720.92 158.54 719.15 161.36 719.15 165.74C719.15 170.15 720.92 173.03 723.53 173.03C726.14 173.03 727.91 170.15 727.91 165.74C727.91 161.36 726.14 158.54 723.53 158.54ZM736.16 154.19H738.62V181.37H736.16V154.19ZM729.47 164.54H737.24V166.58H729.47V164.54ZM748.727 171.17H766.187V180.98H748.727V171.17ZM763.757 173.15H751.157V178.97H763.757V173.15ZM745.457 155.84H747.947V167.09H745.457V155.84ZM745.457 166.01H747.527C751.877 166.01 755.537 165.77 759.557 164.93L759.857 167.03C755.717 167.87 751.967 168.14 747.527 168.14H745.457V166.01ZM763.697 154.22H766.187V169.82H763.697V154.22ZM756.047 159.29H764.327V161.33H756.047V159.29ZM778.725 156.29C782.655 156.29 785.475 159.98 785.475 165.74C785.475 171.53 782.655 175.22 778.725 175.22C774.765 175.22 771.975 171.53 771.975 165.74C771.975 159.98 774.765 156.29 778.725 156.29ZM778.725 158.54C776.115 158.54 774.345 161.36 774.345 165.74C774.345 170.15 776.115 173.03 778.725 173.03C781.335 173.03 783.105 170.15 783.105 165.74C783.105 161.36 781.335 158.54 778.725 158.54ZM791.355 154.19H793.815V181.37H791.355V154.19ZM784.665 164.54H792.435V166.58H784.665V164.54ZM825.86 154.19H828.38V181.37H825.86V154.19ZM827.78 164.9H832.82V167H827.78V164.9ZM808.67 172.52H810.8C815.81 172.52 819.32 172.34 823.37 171.59L823.64 173.69C819.47 174.47 815.9 174.62 810.8 174.62H808.67V172.52ZM808.67 156.83H821.27V158.87H811.13V173.45H808.67V156.83ZM855.408 158.27H860.118V160.34H855.408V158.27ZM855.408 164.03H860.118V166.1H855.408V164.03ZM842.688 155.81C846.768 155.81 849.768 158.45 849.768 162.23C849.768 165.98 846.768 168.59 842.688 168.59C838.608 168.59 835.608 165.98 835.608 162.23C835.608 158.45 838.608 155.81 842.688 155.81ZM842.688 157.91C839.988 157.91 838.038 159.68 838.038 162.23C838.038 164.78 839.988 166.52 842.688 166.52C845.388 166.52 847.338 164.78 847.338 162.23C847.338 159.68 845.388 157.91 842.688 157.91ZM853.668 154.22H856.158V170.27H853.668V154.22ZM847.518 171.14C853.038 171.14 856.428 173.03 856.428 176.21C856.428 179.42 853.038 181.28 847.518 181.28C841.998 181.28 838.608 179.42 838.608 176.21C838.608 173.03 841.998 171.14 847.518 171.14ZM847.518 173.15C843.498 173.15 841.038 174.26 841.038 176.21C841.038 178.16 843.498 179.3 847.518 179.3C851.538 179.3 853.998 178.16 853.998 176.21C853.998 174.26 851.538 173.15 847.518 173.15ZM881.266 154.25H883.756V174.59H881.266V154.25ZM882.976 163.13H887.776V165.23H882.976V163.13ZM862.786 157.52H878.806V159.53H862.786V157.52ZM870.796 161.03C874.636 161.03 877.276 163.04 877.276 166.1C877.276 169.13 874.636 171.14 870.796 171.14C866.926 171.14 864.286 169.13 864.286 166.1C864.286 163.04 866.926 161.03 870.796 161.03ZM870.796 162.98C868.336 162.98 866.656 164.21 866.656 166.1C866.656 167.96 868.336 169.19 870.796 169.19C873.226 169.19 874.906 167.96 874.906 166.1C874.906 164.21 873.226 162.98 870.796 162.98ZM869.536 154.22H872.026V158.57H869.536V154.22ZM866.866 178.7H884.986V180.74H866.866V178.7ZM866.866 172.97H869.356V179.57H866.866V172.97ZM917.301 154.22H919.791V169.58H917.301V154.22ZM919.101 160.82H923.811V162.89H919.101V160.82ZM909.801 155.96H912.441C912.441 162.8 907.671 167.72 899.691 169.88L898.731 167.9C905.751 165.98 909.801 162.05 909.801 157.07V155.96ZM899.901 155.96H911.181V157.97H899.901V155.96ZM902.721 170.87H919.791V180.98H902.721V170.87ZM917.331 172.88H905.181V178.94H917.331V172.88ZM944.898 154.22H947.388V170.12H944.898V154.22ZM946.698 161.06H951.408V163.16H946.698V161.06ZM937.398 155.96H940.008C940.008 162.8 935.238 167.69 927.318 169.85L926.298 167.9C933.318 165.98 937.398 162.05 937.398 157.04V155.96ZM927.498 155.96H938.778V157.97H927.498V155.96ZM929.778 171.38H947.388V181.34H944.898V173.39H929.778V171.38ZM955.156 157.19H967.426V159.2H955.156V157.19ZM959.386 164.93H961.846V174.11H959.386V164.93ZM966.406 157.19H968.836V158.63C968.836 160.85 968.836 164.39 968.056 169.43L965.596 169.19C966.406 164.3 966.406 160.82 966.406 158.63V157.19ZM972.256 154.22H974.716V181.34H972.256V154.22ZM974.056 165.56H979.066V167.66H974.056V165.56ZM953.956 175.43L953.656 173.33C958.576 173.33 965.116 173.24 970.606 172.55L970.726 174.38C965.116 175.28 958.756 175.4 953.956 175.43ZM996.561 155.63H998.631V158.39C998.631 163.61 995.691 167.93 991.161 169.7L989.841 167.69C993.921 166.19 996.561 162.53 996.561 158.39V155.63ZM997.011 155.63H999.051V158.57C999.051 162.23 1001.75 165.62 1005.65 166.97L1004.33 168.92C999.981 167.3 997.011 163.28 997.011 158.57V155.63ZM1008.53 154.22H1011.02V170.66H1008.53V154.22ZM1010.33 161.21H1015.04V163.31H1010.33V161.21ZM1002.38 171.41C1007.93 171.41 1011.29 173.24 1011.29 176.36C1011.29 179.48 1007.93 181.28 1002.38 181.28C996.831 181.28 993.471 179.48 993.471 176.36C993.471 173.24 996.831 171.41 1002.38 171.41ZM1002.38 173.39C998.361 173.39 995.901 174.47 995.901 176.36C995.901 178.25 998.361 179.33 1002.38 179.33C1006.4 179.33 1008.86 178.25 1008.86 176.36C1008.86 174.47 1006.4 173.39 1002.38 173.39ZM1024.16 155.63H1026.23V158.39C1026.23 163.61 1023.29 167.93 1018.76 169.7L1017.44 167.69C1021.52 166.19 1024.16 162.53 1024.16 158.39V155.63ZM1024.61 155.63H1026.65V158.57C1026.65 162.23 1029.35 165.62 1033.25 166.97L1031.93 168.92C1027.58 167.3 1024.61 163.28 1024.61 158.57V155.63ZM1036.13 154.22H1038.62V170.66H1036.13V154.22ZM1037.93 161.21H1042.64V163.31H1037.93V161.21ZM1029.98 171.41C1035.53 171.41 1038.89 173.24 1038.89 176.36C1038.89 179.48 1035.53 181.28 1029.98 181.28C1024.43 181.28 1021.07 179.48 1021.07 176.36C1021.07 173.24 1024.43 171.41 1029.98 171.41ZM1029.98 173.39C1025.96 173.39 1023.5 174.47 1023.5 176.36C1023.5 178.25 1025.96 179.33 1029.98 179.33C1034 179.33 1036.46 178.25 1036.46 176.36C1036.46 174.47 1034 173.39 1029.98 173.39ZM1057.43 154.67C1063.4 154.67 1066.97 156.35 1066.97 159.38C1066.97 162.41 1063.4 164.09 1057.43 164.09C1051.43 164.09 1047.89 162.41 1047.89 159.38C1047.89 156.35 1051.43 154.67 1057.43 154.67ZM1057.43 156.56C1052.99 156.56 1050.44 157.58 1050.44 159.38C1050.44 161.18 1052.99 162.2 1057.43 162.2C1061.84 162.2 1064.39 161.18 1064.39 159.38C1064.39 157.58 1061.84 156.56 1057.43 156.56ZM1045.16 165.89H1069.67V167.9H1045.16V165.89ZM1048.13 170.21H1066.55V176.33H1050.65V179.63H1048.19V174.53H1064.09V172.13H1048.13V170.21ZM1048.19 179.09H1067.36V181.04H1048.19V179.09ZM1081.19 168.59H1105.7V170.6H1081.19V168.59ZM1092.2 165.08H1094.66V169.43H1092.2V165.08ZM1084.43 163.97H1102.82V165.92H1084.43V163.97ZM1084.43 155H1102.7V156.95H1086.89V165.02H1084.43V155ZM1086.17 159.44H1101.98V161.36H1086.17V159.44ZM1093.43 172.61C1099.34 172.61 1102.73 174.11 1102.73 176.96C1102.73 179.78 1099.34 181.28 1093.43 181.28C1087.52 181.28 1084.13 179.78 1084.13 176.96C1084.13 174.11 1087.52 172.61 1093.43 172.61ZM1093.43 174.5C1089.08 174.5 1086.65 175.37 1086.65 176.96C1086.65 178.58 1089.08 179.42 1093.43 179.42C1097.78 179.42 1100.21 178.58 1100.21 176.96C1100.21 175.37 1097.78 174.5 1093.43 174.5ZM1127.36 154.25H1129.85V174.59H1127.36V154.25ZM1129.07 163.13H1133.87V165.23H1129.07V163.13ZM1108.88 157.52H1124.9V159.53H1108.88V157.52ZM1116.89 161.03C1120.73 161.03 1123.37 163.04 1123.37 166.1C1123.37 169.13 1120.73 171.14 1116.89 171.14C1113.02 171.14 1110.38 169.13 1110.38 166.1C1110.38 163.04 1113.02 161.03 1116.89 161.03ZM1116.89 162.98C1114.43 162.98 1112.75 164.21 1112.75 166.1C1112.75 167.96 1114.43 169.19 1116.89 169.19C1119.32 169.19 1121 167.96 1121 166.1C1121 164.21 1119.32 162.98 1116.89 162.98ZM1115.63 154.22H1118.12V158.57H1115.63V154.22ZM1112.96 178.7H1131.08V180.74H1112.96V178.7ZM1112.96 172.97H1115.45V179.57H1112.96V172.97ZM1157.81 159.2H1165.07V161.24H1157.81V159.2ZM1157.57 164.84H1164.89V166.88H1157.57V164.84ZM1164.65 154.22H1167.14V170.48H1164.65V154.22ZM1156.16 156.26H1158.83C1158.83 163.25 1154 168.14 1146.2 170.48L1145.18 168.47C1152.11 166.46 1156.16 162.47 1156.16 157.34V156.26ZM1146.59 156.26H1157.87V158.3H1146.59V156.26ZM1158.32 170.78C1163.81 170.78 1167.29 172.73 1167.29 176C1167.29 179.27 1163.81 181.22 1158.32 181.22C1152.83 181.22 1149.35 179.27 1149.35 176C1149.35 172.73 1152.83 170.78 1158.32 170.78ZM1158.32 172.73C1154.36 172.73 1151.81 173.96 1151.81 176C1151.81 178.04 1154.36 179.24 1158.32 179.24C1162.31 179.24 1164.86 178.04 1164.86 176C1164.86 173.96 1162.31 172.73 1158.32 172.73ZM1192.25 154.22H1194.74V170.63H1192.25V154.22ZM1187.75 162.44H1193.36V164.51H1187.75V162.44ZM1177.16 172.07H1194.74V180.98H1177.16V172.07ZM1192.31 174.08H1179.59V178.97H1192.31V174.08ZM1172.48 157.04H1188.17V159.05H1172.48V157.04ZM1180.31 160.43C1183.97 160.43 1186.58 162.41 1186.58 165.29C1186.58 168.17 1183.97 170.09 1180.31 170.09C1176.65 170.09 1174.04 168.17 1174.04 165.29C1174.04 162.41 1176.65 160.43 1180.31 160.43ZM1180.31 162.35C1178.03 162.35 1176.41 163.52 1176.41 165.29C1176.41 167.03 1178.03 168.2 1180.31 168.2C1182.59 168.2 1184.21 167.03 1184.21 165.29C1184.21 163.52 1182.59 162.35 1180.31 162.35ZM1179.08 153.95H1181.57V158.48H1179.08V153.95ZM1219.73 154.19H1222.22V181.37H1219.73V154.19ZM1207.91 156.29C1211.93 156.29 1214.81 159.98 1214.81 165.74C1214.81 171.53 1211.93 175.22 1207.91 175.22C1203.92 175.22 1201.04 171.53 1201.04 165.74C1201.04 159.98 1203.92 156.29 1207.91 156.29ZM1207.91 158.54C1205.27 158.54 1203.41 161.36 1203.41 165.74C1203.41 170.15 1205.27 173.03 1207.91 173.03C1210.58 173.03 1212.41 170.15 1212.41 165.74C1212.41 161.36 1210.58 158.54 1207.91 158.54ZM1234.82 158.09H1236.83V162.5C1236.83 168.23 1233.38 173.99 1229.06 176.12L1227.62 174.14C1231.55 172.28 1234.82 167.18 1234.82 162.5V158.09ZM1235.3 158.09H1237.31V162.5C1237.31 167.09 1240.58 171.77 1244.57 173.48L1243.16 175.46C1238.78 173.42 1235.3 168.14 1235.3 162.5V158.09ZM1228.52 156.98H1243.67V159.08H1228.52V156.98ZM1247.33 154.22H1249.82V181.34H1247.33V154.22ZM1271.15 155.75C1275.2 155.75 1278.17 158.33 1278.17 162.02C1278.17 165.71 1275.2 168.29 1271.15 168.29C1267.13 168.29 1264.16 165.71 1264.16 162.02C1264.16 158.33 1267.13 155.75 1271.15 155.75ZM1271.15 157.79C1268.57 157.79 1266.59 159.56 1266.59 162.02C1266.59 164.48 1268.57 166.25 1271.15 166.25C1273.79 166.25 1275.77 164.48 1275.77 162.02C1275.77 159.56 1273.79 157.79 1271.15 157.79ZM1282.22 154.22H1284.71V167.72H1282.22V154.22ZM1283.63 160.31H1288.73V162.35H1283.63V160.31ZM1266.5 178.58H1267.79C1269.41 178.58 1272.02 178.43 1274.33 177.65L1274.75 179.66C1272.14 180.5 1269.65 180.62 1267.79 180.62H1266.5V178.58ZM1266.5 170.66H1268.93V179.3H1266.5V170.66ZM1273.76 170.84H1287.38V172.7H1273.76V170.84ZM1280.6 173.66C1283.54 173.66 1285.61 175.13 1285.61 177.47C1285.61 179.84 1283.54 181.31 1280.6 181.31C1277.63 181.31 1275.56 179.84 1275.56 177.47C1275.56 175.13 1277.63 173.66 1280.6 173.66ZM1280.6 175.43C1278.92 175.43 1277.78 176.24 1277.78 177.47C1277.78 178.73 1278.92 179.54 1280.6 179.54C1282.22 179.54 1283.39 178.73 1283.39 177.47C1283.39 176.24 1282.22 175.43 1280.6 175.43ZM1279.37 168.41H1281.8V172.28H1279.37V168.41ZM1303.52 154.67C1309.49 154.67 1313.06 156.35 1313.06 159.38C1313.06 162.41 1309.49 164.09 1303.52 164.09C1297.52 164.09 1293.98 162.41 1293.98 159.38C1293.98 156.35 1297.52 154.67 1303.52 154.67ZM1303.52 156.56C1299.08 156.56 1296.53 157.58 1296.53 159.38C1296.53 161.18 1299.08 162.2 1303.52 162.2C1307.93 162.2 1310.48 161.18 1310.48 159.38C1310.48 157.58 1307.93 156.56 1303.52 156.56ZM1291.25 165.89H1315.76V167.9H1291.25V165.89ZM1294.22 170.21H1312.64V176.33H1296.74V179.63H1294.28V174.53H1310.18V172.13H1294.22V170.21ZM1294.28 179.09H1313.45V181.04H1294.28V179.09ZM1337.69 154.22H1340.15V181.34H1337.69V154.22ZM1339.37 165.38H1344.2V167.48H1339.37V165.38ZM1324.7 157.13H1326.98C1326.98 163.67 1325.6 170 1320.74 175.25L1318.73 173.84C1323.2 169.19 1324.7 163.55 1324.7 157.4V157.13ZM1319.6 157.13H1325.63V159.2H1319.6V157.13ZM1332.08 157.13H1334.39C1334.39 163.7 1333.46 171.14 1328.48 177.05L1326.47 175.67C1331.06 170.36 1332.08 163.64 1332.08 157.37V157.13ZM1327.85 157.13H1333.1V159.2H1327.85V157.13ZM1352.48 168.17H1354.94V176.3H1352.48V168.17ZM1362.5 168.17H1364.99V176.3H1362.5V168.17ZM1346.48 175.82H1371.05V177.89H1346.48V175.82ZM1358.72 155.93C1364.45 155.93 1368.56 158.66 1368.56 162.92C1368.56 167.15 1364.45 169.88 1358.72 169.88C1352.96 169.88 1348.85 167.15 1348.85 162.92C1348.85 158.66 1352.96 155.93 1358.72 155.93ZM1358.72 157.91C1354.37 157.91 1351.25 159.89 1351.25 162.92C1351.25 165.92 1354.37 167.9 1358.72 167.9C1363.07 167.9 1366.16 165.92 1366.16 162.92C1366.16 159.89 1363.07 157.91 1358.72 157.91ZM1378.16 172.864V172.736C1378.17 171.379 1378.31 170.3 1378.58 169.497C1378.85 168.695 1379.24 168.045 1379.73 167.548C1380.23 167.05 1380.83 166.592 1381.52 166.173C1381.94 165.918 1382.32 165.616 1382.65 165.268C1382.99 164.913 1383.25 164.504 1383.44 164.043C1383.64 163.581 1383.74 163.07 1383.74 162.509C1383.74 161.812 1383.57 161.209 1383.25 160.697C1382.92 160.186 1382.48 159.792 1381.94 159.515C1381.39 159.238 1380.78 159.099 1380.12 159.099C1379.53 159.099 1378.97 159.22 1378.43 159.462C1377.89 159.703 1377.44 160.083 1377.08 160.602C1376.72 161.12 1376.51 161.798 1376.45 162.636H1373.77C1373.82 161.429 1374.14 160.396 1374.7 159.536C1375.28 158.677 1376.04 158.02 1376.97 157.565C1377.92 157.111 1378.97 156.884 1380.12 156.884C1381.37 156.884 1382.45 157.132 1383.38 157.629C1384.31 158.126 1385.02 158.808 1385.53 159.675C1386.04 160.541 1386.29 161.528 1386.29 162.636C1386.29 163.418 1386.17 164.124 1385.93 164.756C1385.7 165.388 1385.36 165.953 1384.91 166.45C1384.47 166.947 1383.94 167.388 1383.31 167.771C1382.69 168.162 1382.19 168.574 1381.81 169.007C1381.43 169.433 1381.16 169.941 1380.99 170.531C1380.82 171.12 1380.73 171.855 1380.71 172.736V172.864H1378.16ZM1379.52 179.17C1378.99 179.17 1378.54 178.982 1378.17 178.606C1377.79 178.229 1377.6 177.778 1377.6 177.253C1377.6 176.727 1377.79 176.276 1378.17 175.9C1378.54 175.523 1378.99 175.335 1379.52 175.335C1380.04 175.335 1380.5 175.523 1380.87 175.9C1381.25 176.276 1381.44 176.727 1381.44 177.253C1381.44 177.601 1381.35 177.92 1381.17 178.212C1381 178.503 1380.77 178.737 1380.48 178.915C1380.19 179.085 1379.87 179.17 1379.52 179.17Z" fill="black"/>
<defs>
<filter id="filter0_di_119_64" x="27.9453" y="18.875" width="1476.11" height="227.068" filterUnits="userSpaceOnUse" color-interpolation-filters="sRGB">
<feFlood flood-opacity="0" result="BackgroundImageFix"/>
<feColorMatrix in="SourceAlpha" type="matrix" values="0 0 0 0 0 0 0 0 0 0 0 0 0 0 0 0 0 0 127 0" result="hardAlpha"/>
<feOffset dy="4"/>
<feGaussianBlur stdDeviation="2"/>
<feComposite in2="hardAlpha" operator="out"/>
<feColorMatrix type="matrix" values="0 0 0 0 0 0 0 0 0 0 0 0 0 0 0 0 0 0 0.25 0"/>
<feBlend mode="normal" in2="BackgroundImageFix" result="effect1_dropShadow_119_64"/>
<feBlend mode="normal" in="SourceGraphic" in2="effect1_dropShadow_119_64" result="shape"/>
<feColorMatrix in="SourceAlpha" type="matrix" values="0 0 0 0 0 0 0 0 0 0 0 0 0 0 0 0 0 0 127 0" result="hardAlpha"/>
<feOffset dy="4"/>
<feGaussianBlur stdDeviation="2"/>
<feComposite in2="hardAlpha" operator="arithmetic" k2="-1" k3="1"/>
<feColorMatrix type="matrix" values="0 0 0 0 0 0 0 0 0 0 0 0 0 0 0 0 0 0 0.25 0"/>
<feBlend mode="normal" in2="shape" result="effect2_innerShadow_119_64"/>
</filter>
<filter id="filter1_di_119_64" x="65.9648" y="32.4775" width="1398.84" height="197.716" filterUnits="userSpaceOnUse" color-interpolation-filters="sRGB">
<feFlood flood-opacity="0" result="BackgroundImageFix"/>
<feColorMatrix in="SourceAlpha" type="matrix" values="0 0 0 0 0 0 0 0 0 0 0 0 0 0 0 0 0 0 127 0" result="hardAlpha"/>
<feOffset dy="4"/>
<feGaussianBlur stdDeviation="2"/>
<feComposite in2="hardAlpha" operator="out"/>
<feColorMatrix type="matrix" values="0 0 0 0 0 0 0 0 0 0 0 0 0 0 0 0 0 0 0.25 0"/>
<feBlend mode="normal" in2="BackgroundImageFix" result="effect1_dropShadow_119_64"/>
<feBlend mode="normal" in="SourceGraphic" in2="effect1_dropShadow_119_64" result="shape"/>
<feColorMatrix in="SourceAlpha" type="matrix" values="0 0 0 0 0 0 0 0 0 0 0 0 0 0 0 0 0 0 127 0" result="hardAlpha"/>
<feOffset dy="4"/>
<feGaussianBlur stdDeviation="2"/>
<feComposite in2="hardAlpha" operator="arithmetic" k2="-1" k3="1"/>
<feColorMatrix type="matrix" values="0 0 0 0 0 0 0 0 0 0 0 0 0 0 0 0 0 0 0.25 0"/>
<feBlend mode="normal" in2="shape" result="effect2_innerShadow_119_64"/>
</filter>
</defs>
</svg>
