<svg width="1516" height="253" viewBox="0 0 1516 253" fill="none" xmlns="http://www.w3.org/2000/svg">
<rect x="16" y="11" width="1500" height="242" fill="#FFD0C5"/>
<g filter="url(#filter0_di_119_32)">
<rect x="31.9453" y="18.875" width="1468.11" height="219.068" fill="#FFB5A4"/>
</g>
<g filter="url(#filter1_di_119_32)">
<rect width="1390.84" height="189.716" transform="matrix(1 0 0 -1 69.9648 222.193)" fill="#FFD0C5"/>
</g>
<path d="M355.599 89.24H361.719V91.31H355.599V89.24ZM360.939 82.22H363.429V98.39H360.939V82.22ZM354.519 99.2C360.099 99.2 363.549 101.09 363.549 104.27C363.549 107.48 360.099 109.31 354.519 109.31C348.909 109.31 345.459 107.48 345.459 104.27C345.459 101.09 348.909 99.2 354.519 99.2ZM354.519 101.15C350.439 101.15 347.949 102.29 347.949 104.27C347.949 106.22 350.439 107.36 354.519 107.36C358.599 107.36 361.089 106.22 361.089 104.27C361.089 102.29 358.599 101.15 354.519 101.15ZM348.039 84.95H350.079V87.14C350.079 92.15 347.019 96.44 342.519 98.12L341.229 96.14C345.249 94.67 348.039 91.04 348.039 87.14V84.95ZM348.519 84.95H350.529V87.14C350.529 90.65 353.169 94.01 357.099 95.39L355.839 97.37C351.429 95.78 348.519 91.7 348.519 87.14V84.95ZM341.979 84.2H356.469V86.24H341.979V84.2ZM387.276 82.22H389.766V96.68H387.276V82.22ZM389.076 88.55H393.786V90.62H389.076V88.55ZM369.966 93.71H372.066C377.646 93.71 380.796 93.53 384.426 92.81L384.696 94.82C380.976 95.6 377.766 95.78 372.066 95.78H369.966V93.71ZM369.966 83.99H381.906V86.03H372.426V95.12H369.966V83.99ZM372.666 98.15H375.126V101.48H387.306V98.15H389.766V108.89H372.666V98.15ZM375.126 103.46V106.85H387.306V103.46H375.126ZM416.044 82.22H418.564V96.77H416.044V82.22ZM401.074 98.12H403.534V101.42H416.104V98.12H418.564V108.98H401.074V98.12ZM403.534 103.4V106.97H416.104V103.4H403.534ZM404.014 83.51C408.124 83.51 411.064 86.06 411.064 89.75C411.064 93.47 408.124 96.02 404.014 96.02C399.904 96.02 396.934 93.47 396.934 89.75C396.934 86.06 399.904 83.51 404.014 83.51ZM404.014 85.58C401.314 85.58 399.364 87.29 399.364 89.75C399.364 92.21 401.314 93.92 404.014 93.92C406.714 93.92 408.664 92.21 408.664 89.75C408.664 87.29 406.714 85.58 404.014 85.58ZM443.642 82.22H446.132V109.34H443.642V82.22ZM425.642 84.86H428.102V101.66H425.642V84.86ZM425.642 100.19H427.862C431.972 100.19 436.262 99.89 440.852 98.93L441.152 101.06C436.442 102.02 432.152 102.35 427.862 102.35H425.642V100.19ZM469.859 82.19H472.379V109.37H469.859V82.19ZM471.779 92.9H476.819V95H471.779V92.9ZM452.669 100.52H454.799C459.809 100.52 463.319 100.34 467.369 99.59L467.639 101.69C463.469 102.47 459.899 102.62 454.799 102.62H452.669V100.52ZM452.669 84.83H465.269V86.87H455.129V101.45H452.669V84.83ZM481.76 107.17C481.235 107.17 480.784 106.982 480.407 106.606C480.031 106.229 479.843 105.778 479.843 105.253C479.843 104.727 480.031 104.276 480.407 103.9C480.784 103.523 481.235 103.335 481.76 103.335C482.286 103.335 482.737 103.523 483.113 103.9C483.49 104.276 483.678 104.727 483.678 105.253C483.678 105.601 483.589 105.92 483.412 106.212C483.241 106.503 483.01 106.737 482.719 106.915C482.435 107.085 482.116 107.17 481.76 107.17ZM515.506 82.19H517.996V109.37H515.506V82.19ZM503.686 84.29C507.706 84.29 510.586 87.98 510.586 93.74C510.586 99.53 507.706 103.22 503.686 103.22C499.696 103.22 496.816 99.53 496.816 93.74C496.816 87.98 499.696 84.29 503.686 84.29ZM503.686 86.54C501.046 86.54 499.186 89.36 499.186 93.74C499.186 98.15 501.046 101.03 503.686 101.03C506.356 101.03 508.186 98.15 508.186 93.74C508.186 89.36 506.356 86.54 503.686 86.54ZM538.521 85.01H540.561V87.2C540.561 92.18 537.561 96.32 533.031 97.94L531.711 95.99C535.821 94.55 538.521 91.07 538.521 87.2V85.01ZM538.971 85.01H541.011V87.17C541.011 90.77 543.621 94.1 547.611 95.45L546.321 97.4C541.851 95.84 538.971 91.85 538.971 87.17V85.01ZM532.491 84.11H546.981V86.15H532.491V84.11ZM550.401 82.22H552.891V98.54H550.401V82.22ZM552.201 89.36H556.911V91.43H552.201V89.36ZM535.281 99.98H552.891V109.34H550.401V102.05H535.281V99.98ZM570.469 96.62H572.929V101.3H570.469V96.62ZM559.429 95.3H583.939V97.34H559.429V95.3ZM561.709 83.06H581.629V85.1H561.709V83.06ZM561.829 90.77H581.509V92.81H561.829V90.77ZM565.819 83.96H568.309V92.09H565.819V83.96ZM575.059 83.96H577.519V92.09H575.059V83.96ZM562.429 100.49H580.939V108.98H562.429V100.49ZM578.509 102.47H564.889V106.97H578.509V102.47ZM587.027 96.47H611.537V98.51H587.027V96.47ZM590.207 106.7H608.837V108.74H590.207V106.7ZM590.207 100.88H592.697V107.33H590.207V100.88ZM599.297 83.12C605.087 83.12 608.837 85.16 608.837 88.55C608.837 91.91 605.087 93.95 599.297 93.95C593.477 93.95 589.757 91.91 589.757 88.55C589.757 85.16 593.477 83.12 599.297 83.12ZM599.297 85.16C595.037 85.16 592.307 86.42 592.307 88.55C592.307 90.68 595.037 91.94 599.297 91.94C603.557 91.94 606.287 90.68 606.287 88.55C606.287 86.42 603.557 85.16 599.297 85.16ZM624.234 107V85.1818H637.401V87.5256H626.876V94.8977H636.72V97.2415H626.876V104.656H637.572V107H624.234ZM648.002 107.341C646.638 107.341 645.434 106.996 644.39 106.308C643.346 105.612 642.529 104.631 641.94 103.367C641.35 102.096 641.056 100.594 641.056 98.8608C641.056 97.142 641.35 95.6506 641.94 94.3864C642.529 93.1222 643.35 92.1456 644.401 91.4567C645.452 90.7678 646.666 90.4233 648.044 90.4233C649.11 90.4233 649.951 90.6009 650.569 90.956C651.194 91.304 651.67 91.7017 651.997 92.1491C652.33 92.5895 652.59 92.9517 652.774 93.2358H652.987V85.1818H655.502V107H653.073V104.486H652.774C652.59 104.784 652.327 105.161 651.986 105.615C651.645 106.062 651.159 106.464 650.526 106.819C649.894 107.167 649.053 107.341 648.002 107.341ZM648.343 105.082C649.351 105.082 650.203 104.82 650.899 104.294C651.595 103.761 652.124 103.026 652.487 102.089C652.849 101.144 653.03 100.054 653.03 98.8182C653.03 97.5966 652.852 96.5277 652.497 95.6115C652.142 94.6882 651.617 93.9709 650.921 93.4595C650.225 92.9411 649.365 92.6818 648.343 92.6818C647.277 92.6818 646.389 92.9553 645.679 93.5021C644.976 94.0419 644.447 94.777 644.092 95.7074C643.744 96.6307 643.57 97.6676 643.57 98.8182C643.57 99.983 643.747 101.041 644.102 101.993C644.465 102.937 644.997 103.69 645.7 104.251C646.411 104.805 647.291 105.082 648.343 105.082ZM664.163 107L659.177 90.6364H661.819L665.356 103.165H665.526L669.021 90.6364H671.705L675.157 103.122H675.328L678.865 90.6364H681.507L676.521 107H674.049L670.47 94.429H670.214L666.634 107H664.163ZM689.646 107.384C688.609 107.384 687.668 107.188 686.823 106.798C685.977 106.4 685.306 105.828 684.809 105.082C684.312 104.33 684.063 103.42 684.063 102.355C684.063 101.418 684.248 100.658 684.617 100.075C684.987 99.4858 685.48 99.0241 686.098 98.6903C686.716 98.3565 687.398 98.108 688.144 97.9446C688.896 97.7741 689.653 97.6392 690.413 97.5398C691.407 97.4119 692.213 97.3161 692.831 97.2521C693.456 97.1811 693.911 97.0639 694.195 96.9006C694.486 96.7372 694.632 96.4531 694.632 96.0483V95.9631C694.632 94.9119 694.344 94.0952 693.769 93.5128C693.2 92.9304 692.338 92.6392 691.18 92.6392C689.98 92.6392 689.039 92.902 688.357 93.4276C687.675 93.9531 687.195 94.5142 686.919 95.1108L684.532 94.2585C684.958 93.2642 685.526 92.4901 686.237 91.9361C686.954 91.375 687.735 90.9844 688.58 90.7642C689.433 90.5369 690.271 90.4233 691.095 90.4233C691.62 90.4233 692.224 90.4872 692.906 90.6151C693.595 90.7358 694.259 90.9879 694.898 91.3714C695.544 91.755 696.08 92.3338 696.507 93.108C696.933 93.8821 697.146 94.919 697.146 96.2188V107H694.632V104.784H694.504C694.333 105.139 694.049 105.519 693.651 105.924C693.254 106.329 692.725 106.673 692.064 106.957C691.404 107.241 690.597 107.384 689.646 107.384ZM690.029 105.125C691.024 105.125 691.862 104.93 692.544 104.539C693.232 104.148 693.751 103.644 694.099 103.026C694.454 102.408 694.632 101.759 694.632 101.077V98.7756C694.525 98.9034 694.291 99.0206 693.928 99.1271C693.573 99.2266 693.161 99.3153 692.693 99.3935C692.231 99.4645 691.78 99.5284 691.34 99.5852C690.906 99.6349 690.555 99.6776 690.285 99.7131C689.632 99.7983 689.021 99.9368 688.453 100.129C687.892 100.313 687.437 100.594 687.089 100.97C686.748 101.339 686.578 101.844 686.578 102.483C686.578 103.357 686.901 104.017 687.547 104.464C688.2 104.905 689.028 105.125 690.029 105.125ZM701.735 107V90.6364H704.164V93.108H704.334C704.632 92.2983 705.172 91.6413 705.953 91.1371C706.735 90.6328 707.615 90.3807 708.596 90.3807C708.78 90.3807 709.011 90.3842 709.288 90.3913C709.565 90.3984 709.775 90.4091 709.917 90.4233V92.9801C709.831 92.9588 709.636 92.9268 709.331 92.8842C709.032 92.8345 708.716 92.8097 708.382 92.8097C707.587 92.8097 706.877 92.9766 706.252 93.3104C705.634 93.6371 705.144 94.0916 704.782 94.674C704.426 95.2493 704.249 95.9062 704.249 96.6449V107H701.735ZM718.578 107.341C717.214 107.341 716.01 106.996 714.966 106.308C713.922 105.612 713.105 104.631 712.516 103.367C711.926 102.096 711.632 100.594 711.632 98.8608C711.632 97.142 711.926 95.6506 712.516 94.3864C713.105 93.1222 713.926 92.1456 714.977 91.4567C716.028 90.7678 717.243 90.4233 718.62 90.4233C719.686 90.4233 720.527 90.6009 721.145 90.956C721.77 91.304 722.246 91.7017 722.573 92.1491C722.907 92.5895 723.166 92.9517 723.35 93.2358H723.564V85.1818H726.078V107H723.649V104.486H723.35C723.166 104.784 722.903 105.161 722.562 105.615C722.221 106.062 721.735 106.464 721.103 106.819C720.471 107.167 719.629 107.341 718.578 107.341ZM718.919 105.082C719.927 105.082 720.779 104.82 721.475 104.294C722.172 103.761 722.701 103.026 723.063 102.089C723.425 101.144 723.606 100.054 723.606 98.8182C723.606 97.5966 723.429 96.5277 723.074 95.6115C722.718 94.6882 722.193 93.9709 721.497 93.4595C720.801 92.9411 719.941 92.6818 718.919 92.6818C717.853 92.6818 716.966 92.9553 716.255 93.5021C715.552 94.0419 715.023 94.777 714.668 95.7074C714.32 96.6307 714.146 97.6676 714.146 98.8182C714.146 99.983 714.324 101.041 714.679 101.993C715.041 102.937 715.574 103.69 716.277 104.251C716.987 104.805 717.868 105.082 718.919 105.082ZM739.81 107V85.1818H742.452V94.8977H754.086V85.1818H756.728V107H754.086V97.2415H742.452V107H739.81ZM768.324 107.341C766.847 107.341 765.55 106.989 764.435 106.286C763.327 105.583 762.461 104.599 761.836 103.335C761.218 102.071 760.909 100.594 760.909 98.9034C760.909 97.1989 761.218 95.7109 761.836 94.4396C762.461 93.1683 763.327 92.1811 764.435 91.478C765.55 90.7749 766.847 90.4233 768.324 90.4233C769.801 90.4233 771.094 90.7749 772.202 91.478C773.317 92.1811 774.183 93.1683 774.801 94.4396C775.426 95.7109 775.739 97.1989 775.739 98.9034C775.739 100.594 775.426 102.071 774.801 103.335C774.183 104.599 773.317 105.583 772.202 106.286C771.094 106.989 769.801 107.341 768.324 107.341ZM768.324 105.082C769.446 105.082 770.369 104.795 771.094 104.219C771.818 103.644 772.354 102.888 772.702 101.95C773.05 101.013 773.224 99.9972 773.224 98.9034C773.224 97.8097 773.05 96.7905 772.702 95.8459C772.354 94.9013 771.818 94.1378 771.094 93.5554C770.369 92.973 769.446 92.6818 768.324 92.6818C767.202 92.6818 766.278 92.973 765.554 93.5554C764.83 94.1378 764.293 94.9013 763.945 95.8459C763.597 96.7905 763.423 97.8097 763.423 98.9034C763.423 99.9972 763.597 101.013 763.945 101.95C764.293 102.888 764.83 103.644 765.554 104.219C766.278 104.795 767.202 105.082 768.324 105.082ZM779.577 113.136V90.6364H782.006V93.2358H782.304C782.488 92.9517 782.744 92.5895 783.071 92.1491C783.405 91.7017 783.881 91.304 784.498 90.956C785.123 90.6009 785.969 90.4233 787.034 90.4233C788.412 90.4233 789.626 90.7678 790.677 91.4567C791.729 92.1456 792.549 93.1222 793.138 94.3864C793.728 95.6506 794.023 97.142 794.023 98.8608C794.023 100.594 793.728 102.096 793.138 103.367C792.549 104.631 791.732 105.612 790.688 106.308C789.644 106.996 788.44 107.341 787.077 107.341C786.025 107.341 785.184 107.167 784.552 106.819C783.92 106.464 783.433 106.062 783.092 105.615C782.751 105.161 782.488 104.784 782.304 104.486H782.091V113.136H779.577ZM782.048 98.8182C782.048 100.054 782.229 101.144 782.591 102.089C782.954 103.026 783.483 103.761 784.179 104.294C784.875 104.82 785.727 105.082 786.736 105.082C787.787 105.082 788.664 104.805 789.367 104.251C790.077 103.69 790.61 102.937 790.965 101.993C791.327 101.041 791.508 99.983 791.508 98.8182C791.508 97.6676 791.331 96.6307 790.976 95.7074C790.628 94.777 790.099 94.0419 789.388 93.5021C788.685 92.9553 787.801 92.6818 786.736 92.6818C785.713 92.6818 784.854 92.9411 784.157 93.4595C783.461 93.9709 782.936 94.6882 782.581 95.6115C782.226 96.5277 782.048 97.5966 782.048 98.8182ZM797.858 113.136V90.6364H800.287V93.2358H800.585C800.77 92.9517 801.025 92.5895 801.352 92.1491C801.686 91.7017 802.162 91.304 802.78 90.956C803.405 90.6009 804.25 90.4233 805.315 90.4233C806.693 90.4233 807.907 90.7678 808.959 91.4567C810.01 92.1456 810.83 93.1222 811.42 94.3864C812.009 95.6506 812.304 97.142 812.304 98.8608C812.304 100.594 812.009 102.096 811.42 103.367C810.83 104.631 810.013 105.612 808.969 106.308C807.925 106.996 806.721 107.341 805.358 107.341C804.307 107.341 803.465 107.167 802.833 106.819C802.201 106.464 801.714 106.062 801.373 105.615C801.032 105.161 800.77 104.784 800.585 104.486H800.372V113.136H797.858ZM800.329 98.8182C800.329 100.054 800.51 101.144 800.873 102.089C801.235 103.026 801.764 103.761 802.46 104.294C803.156 104.82 804.008 105.082 805.017 105.082C806.068 105.082 806.945 104.805 807.648 104.251C808.358 103.69 808.891 102.937 809.246 101.993C809.608 101.041 809.79 99.983 809.79 98.8182C809.79 97.6676 809.612 96.6307 809.257 95.7074C808.909 94.777 808.38 94.0419 807.67 93.5021C806.966 92.9553 806.082 92.6818 805.017 92.6818C803.994 92.6818 803.135 92.9411 802.439 93.4595C801.743 93.9709 801.217 94.6882 800.862 95.6115C800.507 96.5277 800.329 97.5966 800.329 98.8182ZM823 107.341C821.423 107.341 820.063 106.993 818.92 106.297C817.783 105.594 816.906 104.614 816.288 103.357C815.677 102.092 815.372 100.622 815.372 98.946C815.372 97.2699 815.677 95.7926 816.288 94.5142C816.906 93.2287 817.765 92.2273 818.866 91.5099C819.974 90.7855 821.267 90.4233 822.744 90.4233C823.596 90.4233 824.438 90.5653 825.269 90.8494C826.1 91.1335 826.856 91.5952 827.538 92.2344C828.22 92.8665 828.763 93.7045 829.168 94.7486C829.573 95.7926 829.775 97.0781 829.775 98.6051V99.6705H817.162V97.4972H827.219C827.219 96.5739 827.034 95.75 826.665 95.0256C826.302 94.3011 825.784 93.7294 825.109 93.3104C824.442 92.8913 823.653 92.6818 822.744 92.6818C821.743 92.6818 820.876 92.9304 820.145 93.4276C819.42 93.9176 818.863 94.5568 818.472 95.3452C818.081 96.1335 817.886 96.9787 817.886 97.8807V99.3295C817.886 100.565 818.099 101.613 818.525 102.472C818.959 103.325 819.559 103.974 820.326 104.422C821.093 104.862 821.984 105.082 823 105.082C823.66 105.082 824.257 104.99 824.79 104.805C825.329 104.614 825.795 104.33 826.185 103.953C826.576 103.57 826.878 103.094 827.091 102.526L829.52 103.207C829.264 104.031 828.834 104.756 828.231 105.381C827.627 105.999 826.881 106.482 825.993 106.83C825.106 107.17 824.108 107.341 823 107.341ZM833.6 107V90.6364H836.029V93.108H836.199C836.498 92.2983 837.037 91.6413 837.819 91.1371C838.6 90.6328 839.481 90.3807 840.461 90.3807C840.645 90.3807 840.876 90.3842 841.153 90.3913C841.43 90.3984 841.64 90.4091 841.782 90.4233V92.9801C841.697 92.9588 841.501 92.9268 841.196 92.8842C840.898 92.8345 840.581 92.8097 840.248 92.8097C839.452 92.8097 838.742 92.9766 838.117 93.3104C837.499 93.6371 837.009 94.0916 836.647 94.674C836.292 95.2493 836.114 95.9062 836.114 96.6449V107H833.6ZM852.751 84.17C856.981 84.17 860.011 86.78 860.011 90.56C860.011 94.37 856.981 96.98 852.751 96.98C848.521 96.98 845.461 94.37 845.461 90.56C845.461 86.78 848.521 84.17 852.751 84.17ZM852.751 86.33C849.931 86.33 847.891 88.04 847.891 90.56C847.891 93.08 849.931 94.82 852.751 94.82C855.541 94.82 857.581 93.08 857.581 90.56C857.581 88.04 855.541 86.33 852.751 86.33ZM863.551 82.19H866.041V109.37H863.551V82.19ZM844.441 103.43L844.081 101.36C849.031 101.36 855.871 101.33 861.781 100.4L861.991 102.23C855.901 103.4 849.271 103.43 844.441 103.43ZM879.945 92V90.0824C879.945 89.5 880.048 88.8821 880.254 88.2287C880.467 87.5682 880.772 86.9325 881.17 86.3217C881.575 85.7038 882.061 85.1676 882.63 84.7131L883.993 85.821C883.546 86.4602 883.155 87.1278 882.821 87.8239C882.495 88.5128 882.331 89.2514 882.331 90.0398V92H879.945ZM885.4 92V90.0824C885.4 89.5 885.502 88.8821 885.708 88.2287C885.922 87.5682 886.227 86.9325 886.625 86.3217C887.029 85.7038 887.516 85.1676 888.084 84.7131L889.448 85.821C889 86.4602 888.61 87.1278 888.276 87.8239C887.949 88.5128 887.786 89.2514 887.786 90.0398V92H885.4ZM909.865 85.1818V107H907.308L895.419 89.8693H895.206V107H892.564V85.1818H895.121L907.053 102.355H907.266V85.1818H909.865ZM914.811 107V90.6364H917.325V107H914.811ZM916.089 87.9091C915.599 87.9091 915.177 87.7422 914.822 87.4084C914.474 87.0746 914.3 86.6733 914.3 86.2045C914.3 85.7358 914.474 85.3345 914.822 85.0007C915.177 84.6669 915.599 84.5 916.089 84.5C916.579 84.5 916.998 84.6669 917.346 85.0007C917.702 85.3345 917.879 85.7358 917.879 86.2045C917.879 86.6733 917.702 87.0746 917.346 87.4084C916.998 87.7422 916.579 87.9091 916.089 87.9091ZM928.535 113.477C927.321 113.477 926.277 113.321 925.403 113.009C924.529 112.703 923.801 112.298 923.219 111.794C922.644 111.297 922.186 110.764 921.845 110.196L923.848 108.79C924.075 109.088 924.363 109.429 924.711 109.812C925.059 110.203 925.534 110.54 926.138 110.825C926.749 111.116 927.548 111.261 928.535 111.261C929.856 111.261 930.946 110.942 931.806 110.303C932.665 109.663 933.095 108.662 933.095 107.298V103.974H932.882C932.697 104.273 932.434 104.642 932.093 105.082C931.76 105.516 931.277 105.903 930.645 106.244C930.02 106.577 929.174 106.744 928.109 106.744C926.788 106.744 925.602 106.432 924.551 105.807C923.507 105.182 922.679 104.273 922.069 103.08C921.465 101.886 921.163 100.437 921.163 98.733C921.163 97.0568 921.458 95.5973 922.047 94.3544C922.637 93.1044 923.457 92.1385 924.508 91.4567C925.559 90.7678 926.774 90.4233 928.152 90.4233C929.217 90.4233 930.062 90.6009 930.687 90.956C931.319 91.304 931.802 91.7017 932.136 92.1491C932.477 92.5895 932.74 92.9517 932.924 93.2358H933.18V90.6364H935.609V107.469C935.609 108.875 935.289 110.018 934.65 110.899C934.018 111.787 933.166 112.437 932.093 112.849C931.028 113.268 929.842 113.477 928.535 113.477ZM928.45 104.486C929.458 104.486 930.311 104.255 931.007 103.793C931.703 103.332 932.232 102.668 932.594 101.801C932.956 100.935 933.137 99.8977 933.137 98.6903C933.137 97.5114 932.96 96.4709 932.605 95.5689C932.25 94.6669 931.724 93.9602 931.028 93.4489C930.332 92.9375 929.473 92.6818 928.45 92.6818C927.385 92.6818 926.497 92.9517 925.787 93.4915C925.083 94.0312 924.554 94.7557 924.199 95.6648C923.851 96.5739 923.677 97.5824 923.677 98.6903C923.677 99.8267 923.855 100.832 924.21 101.705C924.572 102.572 925.105 103.254 925.808 103.751C926.518 104.241 927.399 104.486 928.45 104.486ZM942.725 97.1562V107H940.211V85.1818H942.725V93.1932H942.939C943.322 92.348 943.897 91.6768 944.664 91.1797C945.439 90.6754 946.468 90.4233 947.754 90.4233C948.869 90.4233 949.846 90.647 950.684 91.0945C951.522 91.5348 952.172 92.2131 952.633 93.1293C953.102 94.0384 953.336 95.196 953.336 96.6023V107H950.822V96.7727C950.822 95.473 950.485 94.468 949.81 93.7578C949.142 93.0405 948.216 92.6818 947.029 92.6818C946.206 92.6818 945.467 92.8558 944.814 93.2038C944.167 93.5518 943.656 94.0597 943.279 94.7273C942.91 95.3949 942.725 96.2045 942.725 97.1562ZM965.052 90.6364V92.767H956.572V90.6364H965.052ZM959.044 86.7159H961.558V102.312C961.558 103.023 961.661 103.555 961.867 103.911C962.08 104.259 962.35 104.493 962.677 104.614C963.01 104.727 963.362 104.784 963.731 104.784C964.008 104.784 964.236 104.77 964.413 104.741C964.591 104.706 964.733 104.678 964.839 104.656L965.351 106.915C965.18 106.979 964.942 107.043 964.637 107.107C964.331 107.178 963.944 107.213 963.476 107.213C962.765 107.213 962.069 107.06 961.388 106.755C960.713 106.45 960.152 105.984 959.704 105.359C959.264 104.734 959.044 103.946 959.044 102.994V86.7159ZM971.7 97.1562V107H969.186V85.1818H971.7V93.1932H971.913C972.297 92.348 972.872 91.6768 973.639 91.1797C974.413 90.6754 975.443 90.4233 976.729 90.4233C977.844 90.4233 978.82 90.647 979.658 91.0945C980.496 91.5348 981.146 92.2131 981.608 93.1293C982.077 94.0384 982.311 95.196 982.311 96.6023V107H979.797V96.7727C979.797 95.473 979.459 94.468 978.785 93.7578C978.117 93.0405 977.19 92.6818 976.004 92.6818C975.18 92.6818 974.442 92.8558 973.788 93.2038C973.142 93.5518 972.631 94.0597 972.254 94.7273C971.885 95.3949 971.7 96.2045 971.7 97.1562ZM991.726 107.384C990.689 107.384 989.748 107.188 988.903 106.798C988.058 106.4 987.386 105.828 986.889 105.082C986.392 104.33 986.143 103.42 986.143 102.355C986.143 101.418 986.328 100.658 986.697 100.075C987.067 99.4858 987.56 99.0241 988.178 98.6903C988.796 98.3565 989.478 98.108 990.224 97.9446C990.977 97.7741 991.733 97.6392 992.493 97.5398C993.487 97.4119 994.293 97.3161 994.911 97.2521C995.536 97.1811 995.991 97.0639 996.275 96.9006C996.566 96.7372 996.712 96.4531 996.712 96.0483V95.9631C996.712 94.9119 996.424 94.0952 995.849 93.5128C995.281 92.9304 994.418 92.6392 993.26 92.6392C992.06 92.6392 991.119 92.902 990.437 93.4276C989.755 93.9531 989.276 94.5142 988.999 95.1108L986.612 94.2585C987.038 93.2642 987.607 92.4901 988.317 91.9361C989.034 91.375 989.815 90.9844 990.661 90.7642C991.513 90.5369 992.351 90.4233 993.175 90.4233C993.7 90.4233 994.304 90.4872 994.986 90.6151C995.675 90.7358 996.339 90.9879 996.978 91.3714C997.624 91.755 998.161 92.3338 998.587 93.108C999.013 93.8821 999.226 94.919 999.226 96.2188V107H996.712V104.784H996.584C996.413 105.139 996.129 105.519 995.732 105.924C995.334 106.329 994.805 106.673 994.144 106.957C993.484 107.241 992.678 107.384 991.726 107.384ZM992.109 105.125C993.104 105.125 993.942 104.93 994.624 104.539C995.313 104.148 995.831 103.644 996.179 103.026C996.534 102.408 996.712 101.759 996.712 101.077V98.7756C996.605 98.9034 996.371 99.0206 996.009 99.1271C995.653 99.2266 995.241 99.3153 994.773 99.3935C994.311 99.4645 993.86 99.5284 993.42 99.5852C992.987 99.6349 992.635 99.6776 992.365 99.7131C991.712 99.7983 991.101 99.9368 990.533 100.129C989.972 100.313 989.517 100.594 989.169 100.97C988.828 101.339 988.658 101.844 988.658 102.483C988.658 103.357 988.981 104.017 989.627 104.464C990.281 104.905 991.108 105.125 992.109 105.125ZM1007.52 107L1002.54 90.6364H1005.18L1008.72 103.165H1008.89L1012.38 90.6364H1015.06L1018.52 103.122H1018.69L1022.22 90.6364H1024.87L1019.88 107H1017.41L1013.83 94.429H1013.57L1009.99 107H1007.52ZM1030.53 101.034L1030.49 97.9233H1031L1038.16 90.6364H1041.27L1033.64 98.3494H1033.43L1030.53 101.034ZM1028.19 107V85.1818H1030.7V107H1028.19ZM1038.59 107L1032.2 98.9034L1033.99 97.1562L1041.78 107H1038.59ZM1056.1 94.3011L1053.84 94.9403C1053.7 94.5639 1053.49 94.1982 1053.21 93.843C1052.94 93.4808 1052.57 93.1825 1052.1 92.9482C1051.64 92.7138 1051.04 92.5966 1050.3 92.5966C1049.3 92.5966 1048.47 92.8274 1047.8 93.2891C1047.14 93.7436 1046.81 94.3224 1046.81 95.0256C1046.81 95.6506 1047.04 96.1442 1047.49 96.5064C1047.95 96.8686 1048.66 97.1705 1049.62 97.4119L1052.05 98.0085C1053.51 98.3636 1054.6 98.907 1055.32 99.6385C1056.04 100.363 1056.4 101.297 1056.4 102.44C1056.4 103.378 1056.13 104.216 1055.59 104.955C1055.06 105.693 1054.31 106.276 1053.35 106.702C1052.39 107.128 1051.28 107.341 1050.01 107.341C1048.34 107.341 1046.95 106.979 1045.86 106.254C1044.77 105.53 1044.07 104.472 1043.78 103.08L1046.17 102.483C1046.4 103.364 1046.83 104.024 1047.46 104.464C1048.1 104.905 1048.93 105.125 1049.96 105.125C1051.13 105.125 1052.06 104.876 1052.75 104.379C1053.45 103.875 1053.8 103.271 1053.8 102.568C1053.8 102 1053.6 101.524 1053.2 101.141C1052.8 100.75 1052.19 100.459 1051.37 100.267L1048.64 99.6278C1047.14 99.2727 1046.04 98.7223 1045.34 97.9766C1044.64 97.2237 1044.3 96.2827 1044.3 95.1534C1044.3 94.2301 1044.55 93.4134 1045.07 92.7031C1045.6 91.9929 1046.31 91.4354 1047.21 91.0305C1048.12 90.6257 1049.15 90.4233 1050.3 90.4233C1051.92 90.4233 1053.19 90.7784 1054.12 91.4886C1055.05 92.1989 1055.71 93.1364 1056.1 94.3011ZM1062.4 85.1818V87.0994C1062.4 87.6818 1062.29 88.3033 1062.08 88.9638C1061.87 89.6172 1061.57 90.2528 1061.16 90.8707C1060.76 91.4815 1060.28 92.0142 1059.71 92.4688L1058.35 91.3608C1058.8 90.7216 1059.18 90.0575 1059.51 89.3686C1059.84 88.6726 1060.01 87.9304 1060.01 87.142V85.1818H1062.4ZM1067.85 85.1818V87.0994C1067.85 87.6818 1067.75 88.3033 1067.53 88.9638C1067.33 89.6172 1067.02 90.2528 1066.62 90.8707C1066.22 91.4815 1065.74 92.0142 1065.17 92.4688L1063.8 91.3608C1064.25 90.7216 1064.64 90.0575 1064.97 89.3686C1065.3 88.6726 1065.47 87.9304 1065.47 87.142V85.1818H1067.85ZM1090.52 82.22H1093.04V96.77H1090.52V82.22ZM1075.55 98.12H1078.01V101.42H1090.58V98.12H1093.04V108.98H1075.55V98.12ZM1078.01 103.4V106.97H1090.58V103.4H1078.01ZM1078.49 83.51C1082.6 83.51 1085.54 86.06 1085.54 89.75C1085.54 93.47 1082.6 96.02 1078.49 96.02C1074.38 96.02 1071.41 93.47 1071.41 89.75C1071.41 86.06 1074.38 83.51 1078.49 83.51ZM1078.49 85.58C1075.79 85.58 1073.84 87.29 1073.84 89.75C1073.84 92.21 1075.79 93.92 1078.49 93.92C1081.19 93.92 1083.14 92.21 1083.14 89.75C1083.14 87.29 1081.19 85.58 1078.49 85.58ZM1118.11 82.22H1120.6V109.34H1118.11V82.22ZM1100.11 84.86H1102.57V101.66H1100.11V84.86ZM1100.11 100.19H1102.33C1106.44 100.19 1110.73 99.89 1115.32 98.93L1115.62 101.06C1110.91 102.02 1106.62 102.35 1102.33 102.35H1100.11V100.19ZM1144.33 82.19H1146.85V109.37H1144.33V82.19ZM1146.25 92.9H1151.29V95H1146.25V92.9ZM1127.14 100.52H1129.27C1134.28 100.52 1137.79 100.34 1141.84 99.59L1142.11 101.69C1137.94 102.47 1134.37 102.62 1129.27 102.62H1127.14V100.52ZM1127.14 84.83H1139.74V86.87H1129.6V101.45H1127.14V84.83ZM1156.23 107.17C1155.71 107.17 1155.26 106.982 1154.88 106.606C1154.5 106.229 1154.32 105.778 1154.32 105.253C1154.32 104.727 1154.5 104.276 1154.88 103.9C1155.26 103.523 1155.71 103.335 1156.23 103.335C1156.76 103.335 1157.21 103.523 1157.59 103.9C1157.96 104.276 1158.15 104.727 1158.15 105.253C1158.15 105.601 1158.06 105.92 1157.88 106.212C1157.71 106.503 1157.48 106.737 1157.19 106.915C1156.91 107.085 1156.59 107.17 1156.23 107.17ZM255.426 118.22H257.916V134.33H255.426V118.22ZM257.196 125.27H261.906V127.34H257.196V125.27ZM249.246 134.9C254.736 134.9 258.156 136.85 258.156 140.12C258.156 143.39 254.736 145.31 249.246 145.31C243.756 145.31 240.336 143.39 240.336 140.12C240.336 136.85 243.756 134.9 249.246 134.9ZM249.246 136.94C245.226 136.94 242.766 138.08 242.766 140.12C242.766 142.1 245.226 143.27 249.246 143.27C253.266 143.27 255.726 142.1 255.726 140.12C255.726 138.08 253.266 136.94 249.246 136.94ZM238.056 130.16H240.156C245.766 130.16 248.916 129.98 252.546 129.23L252.846 131.27C249.096 132.02 245.886 132.2 240.156 132.2H238.056V130.16ZM238.056 120.29H250.026V122.33H240.516V131.48H238.056V120.29ZM284.164 118.25H286.684V138.11H284.164V118.25ZM269.254 142.7H287.494V144.74H269.254V142.7ZM269.254 136.28H271.714V143.66H269.254V136.28ZM271.504 119.72H273.574V122.48C273.574 127.76 270.574 132.38 266.014 134.24L264.724 132.23C268.804 130.64 271.504 126.68 271.504 122.48V119.72ZM271.954 119.72H273.994V122.48C273.994 126.56 276.724 130.25 280.774 131.72L279.454 133.73C274.954 131.99 271.954 127.64 271.954 122.48V119.72ZM292.022 132.47H316.532V134.51H292.022V132.47ZM295.202 142.7H313.832V144.74H295.202V142.7ZM295.202 136.88H297.692V143.33H295.202V136.88ZM304.292 119.12C310.082 119.12 313.832 121.16 313.832 124.55C313.832 127.91 310.082 129.95 304.292 129.95C298.472 129.95 294.752 127.91 294.752 124.55C294.752 121.16 298.472 119.12 304.292 119.12ZM304.292 121.16C300.032 121.16 297.302 122.42 297.302 124.55C297.302 126.68 300.032 127.94 304.292 127.94C308.552 127.94 311.282 126.68 311.282 124.55C311.282 122.42 308.552 121.16 304.292 121.16ZM334.717 120.83H336.757V123.08C336.757 128.06 333.787 132.2 329.197 133.85L327.937 131.87C332.017 130.46 334.717 126.95 334.717 123.08V120.83ZM335.167 120.83H337.207V123.05C337.207 126.65 339.817 129.89 343.807 131.24L342.607 133.22C338.077 131.69 335.167 127.7 335.167 123.05V120.83ZM328.657 120.11H343.177V122.12H328.657V120.11ZM346.627 118.22H349.117V134.18H346.627V118.22ZM348.427 124.97H353.137V127.04H348.427V124.97ZM332.077 135.41H349.117V144.98H332.077V135.41ZM346.687 137.39H334.507V142.97H346.687V137.39ZM362.825 120.56H364.865V125.42C364.865 131.66 361.505 137.45 357.065 139.7L355.535 137.66C359.555 135.74 362.825 130.55 362.825 125.42V120.56ZM363.245 120.56H365.285V125.42C365.285 130.37 368.525 135.35 372.545 137.21L371.045 139.19C366.635 137.03 363.245 131.45 363.245 125.42V120.56ZM375.365 118.19H377.855V145.37H375.365V118.19ZM398.86 120.56H400.9V125.42C400.9 131.66 397.54 137.45 393.1 139.7L391.57 137.66C395.59 135.74 398.86 130.55 398.86 125.42V120.56ZM399.28 120.56H401.32V125.42C401.32 130.37 404.56 135.35 408.58 137.21L407.08 139.19C402.67 137.03 399.28 131.45 399.28 125.42V120.56ZM411.4 118.19H413.89V145.37H411.4V118.19ZM437.857 118.22H440.347V134.12H437.857V118.22ZM439.657 125.06H444.367V127.16H439.657V125.06ZM430.357 119.96H432.967C432.967 126.8 428.197 131.69 420.277 133.85L419.257 131.9C426.277 129.98 430.357 126.05 430.357 121.04V119.96ZM420.457 119.96H431.737V121.97H420.457V119.96ZM422.737 135.38H440.347V145.34H437.857V137.39H422.737V135.38ZM453.575 121.13H455.615V123.32C455.615 128.3 452.615 132.47 448.055 134.12L446.795 132.14C450.875 130.7 453.575 127.19 453.575 123.32V121.13ZM454.025 121.13H456.065V123.29C456.065 126.83 458.645 130.01 462.635 131.33L461.435 133.28C456.905 131.78 454.025 127.91 454.025 123.29V121.13ZM447.545 120.23H462.035V122.27H447.545V120.23ZM465.455 118.22H467.945V134.57H465.455V118.22ZM467.255 125.09H471.965V127.19H467.255V125.09ZM459.305 135.29C464.825 135.29 468.215 137.12 468.215 140.27C468.215 143.45 464.825 145.28 459.305 145.28C453.785 145.28 450.395 143.45 450.395 140.27C450.395 137.12 453.785 135.29 459.305 135.29ZM459.305 137.3C455.285 137.3 452.825 138.38 452.825 140.27C452.825 142.19 455.285 143.33 459.305 143.33C463.325 143.33 465.785 142.19 465.785 140.27C465.785 138.38 463.325 137.3 459.305 137.3ZM480.603 120.47C484.113 120.47 486.393 124.1 486.393 129.92C486.393 135.74 484.113 139.37 480.603 139.37C477.093 139.37 474.843 135.74 474.843 129.92C474.843 124.1 477.093 120.47 480.603 120.47ZM480.603 122.78C478.473 122.78 477.123 125.54 477.123 129.92C477.123 134.3 478.473 137.06 480.603 137.06C482.733 137.06 484.083 134.3 484.083 129.92C484.083 125.54 482.733 122.78 480.603 122.78ZM495.153 118.22H497.553V145.34H495.153V118.22ZM490.863 128.96H496.053V131H490.863V128.96ZM489.153 118.79H491.523V143.99H489.153V118.79ZM521.82 118.25H524.34V138.05H521.82V118.25ZM506.91 142.7H525.15V144.74H506.91V142.7ZM506.91 136.01H509.37V143.39H506.91V136.01ZM509.79 120.11C513.84 120.11 516.84 122.87 516.84 126.8C516.84 130.7 513.84 133.49 509.79 133.49C505.74 133.49 502.71 130.7 502.71 126.8C502.71 122.87 505.74 120.11 509.79 120.11ZM509.79 122.27C507.15 122.27 505.14 124.13 505.14 126.8C505.14 129.44 507.15 131.3 509.79 131.3C512.43 131.3 514.44 129.44 514.44 126.8C514.44 124.13 512.43 122.27 509.79 122.27ZM538.498 120.17C542.728 120.17 545.758 122.78 545.758 126.56C545.758 130.37 542.728 132.98 538.498 132.98C534.268 132.98 531.208 130.37 531.208 126.56C531.208 122.78 534.268 120.17 538.498 120.17ZM538.498 122.33C535.678 122.33 533.638 124.04 533.638 126.56C533.638 129.08 535.678 130.82 538.498 130.82C541.288 130.82 543.328 129.08 543.328 126.56C543.328 124.04 541.288 122.33 538.498 122.33ZM549.298 118.19H551.788V145.37H549.298V118.19ZM530.188 139.43L529.828 137.36C534.778 137.36 541.618 137.33 547.528 136.4L547.738 138.23C541.648 139.4 535.018 139.43 530.188 139.43ZM585.453 118.22H587.973V132.77H585.453V118.22ZM570.483 134.12H572.943V137.42H585.513V134.12H587.973V144.98H570.483V134.12ZM572.943 139.4V142.97H585.513V139.4H572.943ZM573.423 119.51C577.533 119.51 580.473 122.06 580.473 125.75C580.473 129.47 577.533 132.02 573.423 132.02C569.313 132.02 566.343 129.47 566.343 125.75C566.343 122.06 569.313 119.51 573.423 119.51ZM573.423 121.58C570.723 121.58 568.773 123.29 568.773 125.75C568.773 128.21 570.723 129.92 573.423 129.92C576.123 129.92 578.073 128.21 578.073 125.75C578.073 123.29 576.123 121.58 573.423 121.58ZM600.001 121.13H602.041V123.32C602.041 128.3 599.041 132.47 594.481 134.12L593.221 132.14C597.301 130.7 600.001 127.19 600.001 123.32V121.13ZM600.451 121.13H602.491V123.29C602.491 126.83 605.071 130.01 609.061 131.33L607.861 133.28C603.331 131.78 600.451 127.91 600.451 123.29V121.13ZM593.971 120.23H608.461V122.27H593.971V120.23ZM611.881 118.22H614.371V134.57H611.881V118.22ZM613.681 125.09H618.391V127.19H613.681V125.09ZM605.731 135.29C611.251 135.29 614.641 137.12 614.641 140.27C614.641 143.45 611.251 145.28 605.731 145.28C600.211 145.28 596.821 143.45 596.821 140.27C596.821 137.12 600.211 135.29 605.731 135.29ZM605.731 137.3C601.711 137.3 599.251 138.38 599.251 140.27C599.251 142.19 601.711 143.33 605.731 143.33C609.751 143.33 612.211 142.19 612.211 140.27C612.211 138.38 609.751 137.3 605.731 137.3ZM631.918 128.75H637.048V130.82H631.918V128.75ZM641.578 118.22H643.978V145.34H641.578V118.22ZM636.208 118.79H638.578V143.99H636.208V118.79ZM627.028 120.47C630.538 120.47 632.818 124.1 632.818 129.92C632.818 135.74 630.538 139.37 627.028 139.37C623.518 139.37 621.268 135.74 621.268 129.92C621.268 124.1 623.518 120.47 627.028 120.47ZM627.028 122.78C624.898 122.78 623.548 125.54 623.548 129.92C623.548 134.3 624.898 137.06 627.028 137.06C629.188 137.06 630.538 134.3 630.538 129.92C630.538 125.54 629.188 122.78 627.028 122.78ZM662.066 127.4H669.626V129.44H662.066V127.4ZM655.526 120.56H657.566V125.39C657.566 131.48 654.356 137.3 650.066 139.61L648.476 137.63C652.466 135.65 655.526 130.43 655.526 125.39V120.56ZM656.006 120.56H658.016V125.39C658.016 130.34 661.076 135.26 665.006 137.12L663.536 139.13C659.156 136.91 656.006 131.33 656.006 125.39V120.56ZM668.396 118.19H670.856V145.37H668.396V118.19ZM691.231 121.01H693.271V123.2C693.271 128.18 690.271 132.32 685.741 133.94L684.421 131.99C688.531 130.55 691.231 127.07 691.231 123.2V121.01ZM691.681 121.01H693.721V123.17C693.721 126.77 696.331 130.1 700.321 131.45L699.031 133.4C694.561 131.84 691.681 127.85 691.681 123.17V121.01ZM685.201 120.11H699.691V122.15H685.201V120.11ZM703.111 118.22H705.601V134.54H703.111V118.22ZM704.911 125.36H709.621V127.43H704.911V125.36ZM687.991 135.98H705.601V145.34H703.111V138.05H687.991V135.98ZM723.179 132.62H725.639V137.3H723.179V132.62ZM712.139 131.3H736.649V133.34H712.139V131.3ZM714.419 119.06H734.339V121.1H714.419V119.06ZM714.539 126.77H734.219V128.81H714.539V126.77ZM718.529 119.96H721.019V128.09H718.529V119.96ZM727.769 119.96H730.229V128.09H727.769V119.96ZM715.139 136.49H733.649V144.98H715.139V136.49ZM731.219 138.47H717.599V142.97H731.219V138.47ZM752.007 118.67C757.977 118.67 761.547 120.35 761.547 123.38C761.547 126.41 757.977 128.09 752.007 128.09C746.007 128.09 742.467 126.41 742.467 123.38C742.467 120.35 746.007 118.67 752.007 118.67ZM752.007 120.56C747.567 120.56 745.017 121.58 745.017 123.38C745.017 125.18 747.567 126.2 752.007 126.2C756.417 126.2 758.967 125.18 758.967 123.38C758.967 121.58 756.417 120.56 752.007 120.56ZM739.737 129.89H764.247V131.9H739.737V129.89ZM742.707 134.21H761.127V140.33H745.227V143.63H742.767V138.53H758.667V136.13H742.707V134.21ZM742.767 143.09H761.937V145.04H742.767V143.09ZM794.342 118.22H796.832V133.58H794.342V118.22ZM796.142 124.82H800.852V126.89H796.142V124.82ZM786.842 119.96H789.482C789.482 126.8 784.712 131.72 776.732 133.88L775.772 131.9C782.792 129.98 786.842 126.05 786.842 121.07V119.96ZM776.942 119.96H788.222V121.97H776.942V119.96ZM779.762 134.87H796.832V144.98H779.762V134.87ZM794.372 136.88H782.222V142.94H794.372V136.88ZM809.969 119.63H812.039V122.39C812.039 127.61 809.099 131.93 804.569 133.7L803.249 131.69C807.329 130.19 809.969 126.53 809.969 122.39V119.63ZM810.419 119.63H812.459V122.57C812.459 126.23 815.159 129.62 819.059 130.97L817.739 132.92C813.389 131.3 810.419 127.28 810.419 122.57V119.63ZM821.939 118.22H824.429V134.66H821.939V118.22ZM823.739 125.21H828.449V127.31H823.739V125.21ZM815.789 135.41C821.339 135.41 824.699 137.24 824.699 140.36C824.699 143.48 821.339 145.28 815.789 145.28C810.239 145.28 806.879 143.48 806.879 140.36C806.879 137.24 810.239 135.41 815.789 135.41ZM815.789 137.39C811.769 137.39 809.309 138.47 809.309 140.36C809.309 142.25 811.769 143.33 815.789 143.33C819.809 143.33 822.269 142.25 822.269 140.36C822.269 138.47 819.809 137.39 815.789 137.39ZM830.937 122.84H844.377V124.88H830.937V122.84ZM837.657 126.68C841.047 126.68 843.507 129.23 843.507 132.89C843.507 136.52 841.047 139.07 837.657 139.07C834.297 139.07 831.837 136.52 831.837 132.89C831.837 129.23 834.297 126.68 837.657 126.68ZM837.657 128.81C835.587 128.81 834.087 130.49 834.087 132.89C834.087 135.29 835.587 136.97 837.657 136.97C839.757 136.97 841.287 135.29 841.287 132.89C841.287 130.49 839.757 128.81 837.657 128.81ZM851.547 118.22H853.947V145.34H851.547V118.22ZM847.227 129.62H852.357V131.69H847.227V129.62ZM845.757 118.82H848.097V144.02H845.757V118.82ZM836.457 119H838.917V124.1H836.457V119ZM858.595 139.82H883.165V141.89H858.595V139.82ZM869.575 133.34H872.065V140.42H869.575V133.34ZM861.475 120.14H863.935V124.97H877.765V120.14H880.225V134H861.475V120.14ZM863.935 126.98V131.96H877.765V126.98H863.935ZM893.752 119.81C897.832 119.81 900.832 122.42 900.832 126.2C900.832 129.98 897.832 132.59 893.752 132.59C889.672 132.59 886.672 129.98 886.672 126.2C886.672 122.42 889.672 119.81 893.752 119.81ZM893.752 121.91C891.052 121.91 889.102 123.65 889.102 126.2C889.102 128.75 891.052 130.49 893.752 130.49C896.452 130.49 898.402 128.75 898.402 126.2C898.402 123.65 896.452 121.91 893.752 121.91ZM904.732 118.22H907.222V133.67H904.732V118.22ZM906.532 124.7H911.242V126.77H906.532V124.7ZM892.672 134.87H894.592V136.34C894.592 139.91 892.402 143.51 888.502 145.01L887.242 143.15C890.662 141.89 892.672 138.95 892.672 136.34V134.87ZM893.212 134.87H895.072V136.34C895.072 139.1 896.662 142.04 899.962 143.36L898.882 145.25C894.952 143.72 893.212 139.97 893.212 136.34V134.87ZM902.692 134.87H904.552V136.34C904.552 139.55 902.782 143.6 898.882 145.25L897.802 143.36C901.072 141.89 902.692 138.71 902.692 136.34V134.87ZM903.172 134.87H905.122V136.34C905.122 139.16 907.102 141.98 910.522 143.15L909.292 145.01C905.332 143.57 903.172 140.12 903.172 136.34V134.87ZM916.88 134.48H919.34V137.63H932.6V134.48H935.09V144.98H916.88V134.48ZM919.34 139.55V142.97H932.6V139.55H919.34ZM913.76 130.58H938.27V132.59H913.76V130.58ZM924.77 118.52H926.9V119.72C926.9 124.43 921.65 127.82 916.07 128.66L915.17 126.71C920.06 126.05 924.77 123.14 924.77 119.72V118.52ZM925.16 118.52H927.29V119.72C927.29 123.08 932.06 126.05 936.89 126.71L935.96 128.66C930.44 127.82 925.16 124.37 925.16 119.72V118.52ZM961.098 118.22H963.588V145.34H961.098V118.22ZM943.098 120.86H945.558V137.66H943.098V120.86ZM943.098 136.19H945.318C949.428 136.19 953.718 135.89 958.308 134.93L958.608 137.06C953.898 138.02 949.608 138.35 945.318 138.35H943.098V136.19ZM987.315 118.19H989.835V145.37H987.315V118.19ZM989.235 128.9H994.275V131H989.235V128.9ZM970.125 136.52H972.255C977.265 136.52 980.775 136.34 984.825 135.59L985.095 137.69C980.925 138.47 977.355 138.62 972.255 138.62H970.125V136.52ZM970.125 120.83H982.725V122.87H972.585V137.45H970.125V120.83ZM999.217 143.17C998.691 143.17 998.24 142.982 997.864 142.606C997.487 142.229 997.299 141.778 997.299 141.253C997.299 140.727 997.487 140.276 997.864 139.9C998.24 139.523 998.691 139.335 999.217 139.335C999.742 139.335 1000.19 139.523 1000.57 139.9C1000.95 140.276 1001.13 140.727 1001.13 141.253C1001.13 141.601 1001.05 141.92 1000.87 142.212C1000.7 142.503 1000.47 142.737 1000.18 142.915C999.891 143.085 999.572 143.17 999.217 143.17ZM1031.82 118.22H1034.31V133.58H1031.82V118.22ZM1033.62 124.82H1038.33V126.89H1033.62V124.82ZM1024.32 119.96H1026.96C1026.96 126.8 1022.19 131.72 1014.21 133.88L1013.25 131.9C1020.27 129.98 1024.32 126.05 1024.32 121.07V119.96ZM1014.42 119.96H1025.7V121.97H1014.42V119.96ZM1017.24 134.87H1034.31V144.98H1017.24V134.87ZM1031.85 136.88H1019.7V142.94H1031.85V136.88ZM1047.45 119.63H1049.52V122.39C1049.52 127.61 1046.58 131.93 1042.05 133.7L1040.73 131.69C1044.81 130.19 1047.45 126.53 1047.45 122.39V119.63ZM1047.9 119.63H1049.94V122.57C1049.94 126.23 1052.64 129.62 1056.54 130.97L1055.22 132.92C1050.87 131.3 1047.9 127.28 1047.9 122.57V119.63ZM1059.42 118.22H1061.91V134.66H1059.42V118.22ZM1061.22 125.21H1065.93V127.31H1061.22V125.21ZM1053.27 135.41C1058.82 135.41 1062.18 137.24 1062.18 140.36C1062.18 143.48 1058.82 145.28 1053.27 145.28C1047.72 145.28 1044.36 143.48 1044.36 140.36C1044.36 137.24 1047.72 135.41 1053.27 135.41ZM1053.27 137.39C1049.25 137.39 1046.79 138.47 1046.79 140.36C1046.79 142.25 1049.25 143.33 1053.27 143.33C1057.29 143.33 1059.75 142.25 1059.75 140.36C1059.75 138.47 1057.29 137.39 1053.27 137.39ZM1068.45 132.47H1092.96V134.51H1068.45V132.47ZM1071.63 142.7H1090.26V144.74H1071.63V142.7ZM1071.63 136.88H1074.12V143.33H1071.63V136.88ZM1080.72 119.12C1086.51 119.12 1090.26 121.16 1090.26 124.55C1090.26 127.91 1086.51 129.95 1080.72 129.95C1074.9 129.95 1071.18 127.91 1071.18 124.55C1071.18 121.16 1074.9 119.12 1080.72 119.12ZM1080.72 121.16C1076.46 121.16 1073.73 122.42 1073.73 124.55C1073.73 126.68 1076.46 127.94 1080.72 127.94C1084.98 127.94 1087.71 126.68 1087.71 124.55C1087.71 122.42 1084.98 121.16 1080.72 121.16ZM1111.74 120.29C1115.67 120.29 1118.49 123.98 1118.49 129.74C1118.49 135.53 1115.67 139.22 1111.74 139.22C1107.78 139.22 1104.99 135.53 1104.99 129.74C1104.99 123.98 1107.78 120.29 1111.74 120.29ZM1111.74 122.54C1109.13 122.54 1107.36 125.36 1107.36 129.74C1107.36 134.15 1109.13 137.03 1111.74 137.03C1114.35 137.03 1116.12 134.15 1116.12 129.74C1116.12 125.36 1114.35 122.54 1111.74 122.54ZM1124.37 118.19H1126.83V145.37H1124.37V118.19ZM1117.68 128.54H1125.45V130.58H1117.68V128.54ZM1132.92 136.31H1134.09C1135.71 136.31 1137.6 136.28 1139.73 135.74L1140.03 137.81C1137.72 138.35 1135.86 138.38 1134.09 138.38H1132.92V136.31ZM1132.92 120.95H1139.61V122.99H1135.38V137.27H1132.92V120.95ZM1141.08 136.31H1142.46C1145.16 136.31 1147.17 136.22 1149.51 135.65L1149.75 137.72C1147.29 138.32 1145.28 138.38 1142.46 138.38H1141.08V136.31ZM1141.08 120.95H1148.43V122.99H1143.54V137.3H1141.08V120.95ZM1152.21 118.22H1154.7V145.34H1152.21V118.22ZM1147.08 128.12H1153.11V130.19H1147.08V128.12ZM1174.17 121.46H1180.29V123.5H1174.17V121.46ZM1174.17 126.8H1180.29V128.81H1174.17V126.8ZM1179.51 118.22H1182V134.12H1179.51V118.22ZM1166.46 119.18H1168.5V122C1168.5 127.34 1165.62 131.75 1161.09 133.55L1159.74 131.6C1163.85 130.04 1166.46 126.26 1166.46 122V119.18ZM1166.88 119.18H1168.89V122C1168.89 125.93 1171.53 129.62 1175.46 131.15L1174.08 133.13C1169.76 131.33 1166.88 127.01 1166.88 122V119.18ZM1166.61 135.11H1168.56V136.31C1168.56 139.88 1166.34 143.51 1162.44 145.01L1161.18 143.15C1164.6 141.89 1166.61 138.95 1166.61 136.31V135.11ZM1167.18 135.11H1169.04V136.31C1169.04 139.07 1170.63 142.04 1173.9 143.36L1172.85 145.25C1168.92 143.72 1167.18 139.94 1167.18 136.31V135.11ZM1176.66 135.11H1178.49V136.31C1178.49 139.52 1176.72 143.6 1172.85 145.25L1171.77 143.36C1175.01 141.86 1176.66 138.68 1176.66 136.31V135.11ZM1177.14 135.11H1179.09V136.31C1179.09 139.16 1181.07 141.98 1184.55 143.15L1183.26 145.01C1179.33 143.57 1177.14 140.09 1177.14 136.31V135.11ZM1207.47 129.02H1212.48V131.12H1207.47V129.02ZM1205.64 118.19H1208.16V145.34H1205.64V118.19ZM1188.36 120.86H1190.85V137.66H1188.36V120.86ZM1188.36 136.37H1190.52C1194.54 136.37 1198.65 136.1 1203.12 135.17L1203.42 137.24C1198.8 138.2 1194.63 138.47 1190.52 138.47H1188.36V136.37ZM1220.9 132.17H1223.36V140.3H1220.9V132.17ZM1230.92 132.17H1233.41V140.3H1230.92V132.17ZM1214.9 139.82H1239.47V141.89H1214.9V139.82ZM1227.14 119.93C1232.87 119.93 1236.98 122.66 1236.98 126.92C1236.98 131.15 1232.87 133.88 1227.14 133.88C1221.38 133.88 1217.27 131.15 1217.27 126.92C1217.27 122.66 1221.38 119.93 1227.14 119.93ZM1227.14 121.91C1222.79 121.91 1219.67 123.89 1219.67 126.92C1219.67 129.92 1222.79 131.9 1227.14 131.9C1231.49 131.9 1234.58 129.92 1234.58 126.92C1234.58 123.89 1231.49 121.91 1227.14 121.91ZM1246.58 136.864V136.736C1246.6 135.379 1246.74 134.3 1247.01 133.497C1247.28 132.695 1247.66 132.045 1248.16 131.548C1248.66 131.05 1249.25 130.592 1249.95 130.173C1250.37 129.918 1250.75 129.616 1251.08 129.268C1251.41 128.913 1251.68 128.504 1251.87 128.043C1252.07 127.581 1252.17 127.07 1252.17 126.509C1252.17 125.812 1252 125.209 1251.68 124.697C1251.35 124.186 1250.91 123.792 1250.37 123.515C1249.82 123.238 1249.21 123.099 1248.54 123.099C1247.96 123.099 1247.4 123.22 1246.86 123.462C1246.32 123.703 1245.87 124.083 1245.51 124.602C1245.15 125.12 1244.94 125.798 1244.88 126.636H1242.19C1242.25 125.429 1242.56 124.396 1243.13 123.536C1243.71 122.677 1244.46 122.02 1245.4 121.565C1246.35 121.111 1247.39 120.884 1248.54 120.884C1249.79 120.884 1250.88 121.132 1251.8 121.629C1252.73 122.126 1253.45 122.808 1253.96 123.675C1254.47 124.541 1254.72 125.528 1254.72 126.636C1254.72 127.418 1254.6 128.124 1254.36 128.756C1254.13 129.388 1253.79 129.953 1253.34 130.45C1252.9 130.947 1252.36 131.388 1251.74 131.771C1251.11 132.162 1250.61 132.574 1250.24 133.007C1249.86 133.433 1249.59 133.941 1249.42 134.531C1249.25 135.12 1249.15 135.855 1249.14 136.736V136.864H1246.58ZM1247.95 143.17C1247.42 143.17 1246.97 142.982 1246.59 142.606C1246.22 142.229 1246.03 141.778 1246.03 141.253C1246.03 140.727 1246.22 140.276 1246.59 139.9C1246.97 139.523 1247.42 139.335 1247.95 139.335C1248.47 139.335 1248.92 139.523 1249.3 139.9C1249.68 140.276 1249.86 140.727 1249.86 141.253C1249.86 141.601 1249.78 141.92 1249.6 142.212C1249.43 142.503 1249.2 142.737 1248.91 142.915C1248.62 143.085 1248.3 143.17 1247.95 143.17ZM116.362 157.1H133.822V159.11H116.362V157.1ZM113.722 175.31H138.232V177.38H113.722V175.31ZM132.502 157.1H134.932V159.8C134.932 163.28 134.932 167.15 133.912 173L131.422 172.76C132.502 167.21 132.502 163.16 132.502 159.8V157.1ZM141.319 165.53H165.829V167.57H141.319V165.53ZM144.559 161.33H162.919V163.34H144.559V161.33ZM144.559 155.09H162.619V157.13H147.019V162.95H144.559V155.09ZM144.259 169.91H162.679V176.3H146.779V179.72H144.319V174.44H160.219V171.86H144.259V169.91ZM144.319 179.06H163.489V181.04H144.319V179.06ZM179.897 164.75H185.027V166.82H179.897V164.75ZM189.557 154.22H191.957V181.34H189.557V154.22ZM184.187 154.79H186.557V179.99H184.187V154.79ZM175.007 156.47C178.517 156.47 180.797 160.1 180.797 165.92C180.797 171.74 178.517 175.37 175.007 175.37C171.497 175.37 169.247 171.74 169.247 165.92C169.247 160.1 171.497 156.47 175.007 156.47ZM175.007 158.78C172.877 158.78 171.527 161.54 171.527 165.92C171.527 170.3 172.877 173.06 175.007 173.06C177.167 173.06 178.517 170.3 178.517 165.92C178.517 161.54 177.167 158.78 175.007 158.78ZM217.155 154.22H219.555V181.34H217.155V154.22ZM205.395 165.29H212.235V167.3H205.395V165.29ZM211.515 154.91H213.855V179.96H211.515V154.91ZM205.725 157.64H208.125C208.125 164.75 205.275 171.14 197.955 175.49L196.485 173.72C202.875 169.88 205.725 164.48 205.725 158.09V157.64ZM197.685 157.64H206.655V159.68H197.685V157.64ZM239.21 157.01H241.25V159.2C241.25 164.18 238.25 168.32 233.72 169.94L232.4 167.99C236.51 166.55 239.21 163.07 239.21 159.2V157.01ZM239.66 157.01H241.7V159.17C241.7 162.77 244.31 166.1 248.3 167.45L247.01 169.4C242.54 167.84 239.66 163.85 239.66 159.17V157.01ZM233.18 156.11H247.67V158.15H233.18V156.11ZM251.09 154.22H253.58V170.54H251.09V154.22ZM252.89 161.36H257.6V163.43H252.89V161.36ZM235.97 171.98H253.58V181.34H251.09V174.05H235.97V171.98ZM271.157 168.62H273.617V173.3H271.157V168.62ZM260.117 167.3H284.627V169.34H260.117V167.3ZM262.397 155.06H282.317V157.1H262.397V155.06ZM262.517 162.77H282.197V164.81H262.517V162.77ZM266.507 155.96H268.997V164.09H266.507V155.96ZM275.747 155.96H278.207V164.09H275.747V155.96ZM263.117 172.49H281.627V180.98H263.117V172.49ZM279.197 174.47H265.577V178.97H279.197V174.47ZM299.985 154.67C305.955 154.67 309.525 156.35 309.525 159.38C309.525 162.41 305.955 164.09 299.985 164.09C293.985 164.09 290.445 162.41 290.445 159.38C290.445 156.35 293.985 154.67 299.985 154.67ZM299.985 156.56C295.545 156.56 292.995 157.58 292.995 159.38C292.995 161.18 295.545 162.2 299.985 162.2C304.395 162.2 306.945 161.18 306.945 159.38C306.945 157.58 304.395 156.56 299.985 156.56ZM287.715 165.89H312.225V167.9H287.715V165.89ZM290.685 170.21H309.105V176.33H293.205V179.63H290.745V174.53H306.645V172.13H290.685V170.21ZM290.745 179.09H309.915V181.04H290.745V179.09ZM342.32 154.22H344.81V169.58H342.32V154.22ZM344.12 160.82H348.83V162.89H344.12V160.82ZM334.82 155.96H337.46C337.46 162.8 332.69 167.72 324.71 169.88L323.75 167.9C330.77 165.98 334.82 162.05 334.82 157.07V155.96ZM324.92 155.96H336.2V157.97H324.92V155.96ZM327.74 170.87H344.81V180.98H327.74V170.87ZM342.35 172.88H330.2V178.94H342.35V172.88ZM357.948 155.63H360.018V158.39C360.018 163.61 357.078 167.93 352.548 169.7L351.228 167.69C355.308 166.19 357.948 162.53 357.948 158.39V155.63ZM358.398 155.63H360.438V158.57C360.438 162.23 363.138 165.62 367.038 166.97L365.718 168.92C361.368 167.3 358.398 163.28 358.398 158.57V155.63ZM369.918 154.22H372.408V170.66H369.918V154.22ZM371.718 161.21H376.428V163.31H371.718V161.21ZM363.768 171.41C369.318 171.41 372.678 173.24 372.678 176.36C372.678 179.48 369.318 181.28 363.768 181.28C358.218 181.28 354.858 179.48 354.858 176.36C354.858 173.24 358.218 171.41 363.768 171.41ZM363.768 173.39C359.748 173.39 357.288 174.47 357.288 176.36C357.288 178.25 359.748 179.33 363.768 179.33C367.788 179.33 370.248 178.25 370.248 176.36C370.248 174.47 367.788 173.39 363.768 173.39ZM397.336 154.22H399.826V181.34H397.336V154.22ZM399.226 165.35H404.266V167.45H399.226V165.35ZM378.826 158.54H394.816V160.58H378.826V158.54ZM386.926 162.83C390.766 162.83 393.526 165.41 393.526 169.07C393.526 172.73 390.766 175.31 386.926 175.31C383.116 175.31 380.326 172.73 380.326 169.07C380.326 165.41 383.116 162.83 386.926 162.83ZM386.926 164.9C384.466 164.9 382.696 166.61 382.696 169.07C382.696 171.5 384.466 173.24 386.926 173.24C389.386 173.24 391.156 171.5 391.156 169.07C391.156 166.61 389.386 164.9 386.926 164.9ZM385.636 154.55H388.126V159.47H385.636V154.55ZM409.873 162.35H428.293V164.39H409.873V162.35ZM406.543 168.02H431.143V170.06H406.543V168.02ZM409.873 155.21H412.333V163.37H409.873V155.21ZM409.693 178.64H428.443V180.68H409.693V178.64ZM409.693 172.76H412.153V179.18H409.693V172.76ZM462.408 154.22H464.898V172.58H462.408V154.22ZM456.588 161.87H462.918V163.91H456.588V161.87ZM453.888 156.35H456.498C456.498 163.37 451.878 168.35 444.108 170.87L443.058 168.89C449.928 166.73 453.888 162.65 453.888 157.34V156.35ZM444.348 156.35H455.658V158.39H444.348V156.35ZM454.908 170.24H457.038V171.47C457.038 176.66 452.298 180.17 446.868 181.28L445.878 179.3C450.678 178.43 454.908 175.43 454.908 171.47V170.24ZM455.268 170.24H457.398V171.47C457.398 175.37 461.568 178.37 466.398 179.24L465.348 181.22C459.948 180.14 455.268 176.63 455.268 171.47V170.24ZM470.176 168.47H494.686V170.51H470.176V168.47ZM473.356 178.7H491.986V180.74H473.356V178.7ZM473.356 172.88H475.846V179.33H473.356V172.88ZM482.446 155.12C488.236 155.12 491.986 157.16 491.986 160.55C491.986 163.91 488.236 165.95 482.446 165.95C476.626 165.95 472.906 163.91 472.906 160.55C472.906 157.16 476.626 155.12 482.446 155.12ZM482.446 157.16C478.186 157.16 475.456 158.42 475.456 160.55C475.456 162.68 478.186 163.94 482.446 163.94C486.706 163.94 489.436 162.68 489.436 160.55C489.436 158.42 486.706 157.16 482.446 157.16ZM513.381 156.56H515.421V161.42C515.421 167.66 512.061 173.45 507.621 175.7L506.091 173.66C510.111 171.74 513.381 166.55 513.381 161.42V156.56ZM513.801 156.56H515.841V161.42C515.841 166.37 519.081 171.35 523.101 173.21L521.601 175.19C517.191 173.03 513.801 167.45 513.801 161.42V156.56ZM525.921 154.19H528.411V181.37H525.921V154.19ZM552.379 154.22H554.869V170.12H552.379V154.22ZM554.179 161.06H558.889V163.16H554.179V161.06ZM544.879 155.96H547.489C547.489 162.8 542.719 167.69 534.799 169.85L533.779 167.9C540.799 165.98 544.879 162.05 544.879 157.04V155.96ZM534.979 155.96H546.259V157.97H534.979V155.96ZM537.259 171.38H554.869V181.34H552.379V173.39H537.259V171.38ZM568.337 156.98H570.377V159.17C570.377 164.12 567.317 168.35 562.787 170.03L561.497 168.05C565.547 166.61 568.337 163.01 568.337 159.17V156.98ZM568.817 156.98H570.827V159.17C570.827 162.65 573.467 166.04 577.397 167.42L576.137 169.4C571.727 167.78 568.817 163.7 568.817 159.17V156.98ZM575.927 161.27H581.957V163.34H575.927V161.27ZM562.277 156.08H576.767V158.09H562.277V156.08ZM565.637 171.92H583.727V181.34H581.237V173.96H565.637V171.92ZM581.237 154.22H583.727V170.45H581.237V154.22ZM608.744 154.25H611.264V174.05H608.744V154.25ZM593.834 178.7H612.074V180.74H593.834V178.7ZM593.834 172.01H596.294V179.39H593.834V172.01ZM596.714 156.11C600.764 156.11 603.764 158.87 603.764 162.8C603.764 166.7 600.764 169.49 596.714 169.49C592.664 169.49 589.634 166.7 589.634 162.8C589.634 158.87 592.664 156.11 596.714 156.11ZM596.714 158.27C594.074 158.27 592.064 160.13 592.064 162.8C592.064 165.44 594.074 167.3 596.714 167.3C599.354 167.3 601.364 165.44 601.364 162.8C601.364 160.13 599.354 158.27 596.714 158.27ZM644.869 154.22H647.359V172.58H644.869V154.22ZM639.049 161.87H645.379V163.91H639.049V161.87ZM636.349 156.35H638.959C638.959 163.37 634.339 168.35 626.569 170.87L625.519 168.89C632.389 166.73 636.349 162.65 636.349 157.34V156.35ZM626.809 156.35H638.119V158.39H626.809V156.35ZM637.369 170.24H639.499V171.47C639.499 176.66 634.759 180.17 629.329 181.28L628.339 179.3C633.139 178.43 637.369 175.43 637.369 171.47V170.24ZM637.729 170.24H639.859V171.47C639.859 175.37 644.029 178.37 648.859 179.24L647.809 181.22C642.409 180.14 637.729 176.63 637.729 171.47V170.24ZM664.907 154.67C670.877 154.67 674.447 156.35 674.447 159.38C674.447 162.41 670.877 164.09 664.907 164.09C658.907 164.09 655.367 162.41 655.367 159.38C655.367 156.35 658.907 154.67 664.907 154.67ZM664.907 156.56C660.467 156.56 657.917 157.58 657.917 159.38C657.917 161.18 660.467 162.2 664.907 162.2C669.317 162.2 671.867 161.18 671.867 159.38C671.867 157.58 669.317 156.56 664.907 156.56ZM652.637 165.89H677.147V167.9H652.637V165.89ZM655.607 170.21H674.027V176.33H658.127V179.63H655.667V174.53H671.567V172.13H655.607V170.21ZM655.667 179.09H674.837V181.04H655.667V179.09ZM696.622 170.03H699.142V180.5H696.622V170.03ZM708.712 154.22H711.202V181.37H708.712V154.22ZM688.852 171.29L688.492 169.22C694.012 169.22 700.852 169.19 707.062 168.47L707.212 170.33C700.852 171.29 694.192 171.32 688.852 171.29ZM698.632 163.91H705.982V165.92H698.632V163.91ZM698.632 156.2H705.772V158.24H701.092V164.81H698.632V156.2ZM690.232 156.2H697.222V158.24H692.692V164.93H690.232V156.2ZM690.232 163.91H691.462C693.292 163.91 695.212 163.88 697.492 163.34L697.732 165.35C695.302 165.89 693.382 165.92 691.462 165.92H690.232V163.91ZM723.53 156.29C727.46 156.29 730.28 159.98 730.28 165.74C730.28 171.53 727.46 175.22 723.53 175.22C719.57 175.22 716.78 171.53 716.78 165.74C716.78 159.98 719.57 156.29 723.53 156.29ZM723.53 158.54C720.92 158.54 719.15 161.36 719.15 165.74C719.15 170.15 720.92 173.03 723.53 173.03C726.14 173.03 727.91 170.15 727.91 165.74C727.91 161.36 726.14 158.54 723.53 158.54ZM736.16 154.19H738.62V181.37H736.16V154.19ZM729.47 164.54H737.24V166.58H729.47V164.54ZM748.727 171.17H766.187V180.98H748.727V171.17ZM763.757 173.15H751.157V178.97H763.757V173.15ZM745.457 155.84H747.947V167.09H745.457V155.84ZM745.457 166.01H747.527C751.877 166.01 755.537 165.77 759.557 164.93L759.857 167.03C755.717 167.87 751.967 168.14 747.527 168.14H745.457V166.01ZM763.697 154.22H766.187V169.82H763.697V154.22ZM756.047 159.29H764.327V161.33H756.047V159.29ZM778.725 156.29C782.655 156.29 785.475 159.98 785.475 165.74C785.475 171.53 782.655 175.22 778.725 175.22C774.765 175.22 771.975 171.53 771.975 165.74C771.975 159.98 774.765 156.29 778.725 156.29ZM778.725 158.54C776.115 158.54 774.345 161.36 774.345 165.74C774.345 170.15 776.115 173.03 778.725 173.03C781.335 173.03 783.105 170.15 783.105 165.74C783.105 161.36 781.335 158.54 778.725 158.54ZM791.355 154.19H793.815V181.37H791.355V154.19ZM784.665 164.54H792.435V166.58H784.665V164.54ZM825.86 154.19H828.38V181.37H825.86V154.19ZM827.78 164.9H832.82V167H827.78V164.9ZM808.67 172.52H810.8C815.81 172.52 819.32 172.34 823.37 171.59L823.64 173.69C819.47 174.47 815.9 174.62 810.8 174.62H808.67V172.52ZM808.67 156.83H821.27V158.87H811.13V173.45H808.67V156.83ZM855.408 158.27H860.118V160.34H855.408V158.27ZM855.408 164.03H860.118V166.1H855.408V164.03ZM842.688 155.81C846.768 155.81 849.768 158.45 849.768 162.23C849.768 165.98 846.768 168.59 842.688 168.59C838.608 168.59 835.608 165.98 835.608 162.23C835.608 158.45 838.608 155.81 842.688 155.81ZM842.688 157.91C839.988 157.91 838.038 159.68 838.038 162.23C838.038 164.78 839.988 166.52 842.688 166.52C845.388 166.52 847.338 164.78 847.338 162.23C847.338 159.68 845.388 157.91 842.688 157.91ZM853.668 154.22H856.158V170.27H853.668V154.22ZM847.518 171.14C853.038 171.14 856.428 173.03 856.428 176.21C856.428 179.42 853.038 181.28 847.518 181.28C841.998 181.28 838.608 179.42 838.608 176.21C838.608 173.03 841.998 171.14 847.518 171.14ZM847.518 173.15C843.498 173.15 841.038 174.26 841.038 176.21C841.038 178.16 843.498 179.3 847.518 179.3C851.538 179.3 853.998 178.16 853.998 176.21C853.998 174.26 851.538 173.15 847.518 173.15ZM881.266 154.25H883.756V174.59H881.266V154.25ZM882.976 163.13H887.776V165.23H882.976V163.13ZM862.786 157.52H878.806V159.53H862.786V157.52ZM870.796 161.03C874.636 161.03 877.276 163.04 877.276 166.1C877.276 169.13 874.636 171.14 870.796 171.14C866.926 171.14 864.286 169.13 864.286 166.1C864.286 163.04 866.926 161.03 870.796 161.03ZM870.796 162.98C868.336 162.98 866.656 164.21 866.656 166.1C866.656 167.96 868.336 169.19 870.796 169.19C873.226 169.19 874.906 167.96 874.906 166.1C874.906 164.21 873.226 162.98 870.796 162.98ZM869.536 154.22H872.026V158.57H869.536V154.22ZM866.866 178.7H884.986V180.74H866.866V178.7ZM866.866 172.97H869.356V179.57H866.866V172.97ZM917.301 154.22H919.791V169.58H917.301V154.22ZM919.101 160.82H923.811V162.89H919.101V160.82ZM909.801 155.96H912.441C912.441 162.8 907.671 167.72 899.691 169.88L898.731 167.9C905.751 165.98 909.801 162.05 909.801 157.07V155.96ZM899.901 155.96H911.181V157.97H899.901V155.96ZM902.721 170.87H919.791V180.98H902.721V170.87ZM917.331 172.88H905.181V178.94H917.331V172.88ZM944.898 154.22H947.388V170.12H944.898V154.22ZM946.698 161.06H951.408V163.16H946.698V161.06ZM937.398 155.96H940.008C940.008 162.8 935.238 167.69 927.318 169.85L926.298 167.9C933.318 165.98 937.398 162.05 937.398 157.04V155.96ZM927.498 155.96H938.778V157.97H927.498V155.96ZM929.778 171.38H947.388V181.34H944.898V173.39H929.778V171.38ZM955.156 157.19H967.426V159.2H955.156V157.19ZM959.386 164.93H961.846V174.11H959.386V164.93ZM966.406 157.19H968.836V158.63C968.836 160.85 968.836 164.39 968.056 169.43L965.596 169.19C966.406 164.3 966.406 160.82 966.406 158.63V157.19ZM972.256 154.22H974.716V181.34H972.256V154.22ZM974.056 165.56H979.066V167.66H974.056V165.56ZM953.956 175.43L953.656 173.33C958.576 173.33 965.116 173.24 970.606 172.55L970.726 174.38C965.116 175.28 958.756 175.4 953.956 175.43ZM996.561 155.63H998.631V158.39C998.631 163.61 995.691 167.93 991.161 169.7L989.841 167.69C993.921 166.19 996.561 162.53 996.561 158.39V155.63ZM997.011 155.63H999.051V158.57C999.051 162.23 1001.75 165.62 1005.65 166.97L1004.33 168.92C999.981 167.3 997.011 163.28 997.011 158.57V155.63ZM1008.53 154.22H1011.02V170.66H1008.53V154.22ZM1010.33 161.21H1015.04V163.31H1010.33V161.21ZM1002.38 171.41C1007.93 171.41 1011.29 173.24 1011.29 176.36C1011.29 179.48 1007.93 181.28 1002.38 181.28C996.831 181.28 993.471 179.48 993.471 176.36C993.471 173.24 996.831 171.41 1002.38 171.41ZM1002.38 173.39C998.361 173.39 995.901 174.47 995.901 176.36C995.901 178.25 998.361 179.33 1002.38 179.33C1006.4 179.33 1008.86 178.25 1008.86 176.36C1008.86 174.47 1006.4 173.39 1002.38 173.39ZM1024.16 155.63H1026.23V158.39C1026.23 163.61 1023.29 167.93 1018.76 169.7L1017.44 167.69C1021.52 166.19 1024.16 162.53 1024.16 158.39V155.63ZM1024.61 155.63H1026.65V158.57C1026.65 162.23 1029.35 165.62 1033.25 166.97L1031.93 168.92C1027.58 167.3 1024.61 163.28 1024.61 158.57V155.63ZM1036.13 154.22H1038.62V170.66H1036.13V154.22ZM1037.93 161.21H1042.64V163.31H1037.93V161.21ZM1029.98 171.41C1035.53 171.41 1038.89 173.24 1038.89 176.36C1038.89 179.48 1035.53 181.28 1029.98 181.28C1024.43 181.28 1021.07 179.48 1021.07 176.36C1021.07 173.24 1024.43 171.41 1029.98 171.41ZM1029.98 173.39C1025.96 173.39 1023.5 174.47 1023.5 176.36C1023.5 178.25 1025.96 179.33 1029.98 179.33C1034 179.33 1036.46 178.25 1036.46 176.36C1036.46 174.47 1034 173.39 1029.98 173.39ZM1057.43 154.67C1063.4 154.67 1066.97 156.35 1066.97 159.38C1066.97 162.41 1063.4 164.09 1057.43 164.09C1051.43 164.09 1047.89 162.41 1047.89 159.38C1047.89 156.35 1051.43 154.67 1057.43 154.67ZM1057.43 156.56C1052.99 156.56 1050.44 157.58 1050.44 159.38C1050.44 161.18 1052.99 162.2 1057.43 162.2C1061.84 162.2 1064.39 161.18 1064.39 159.38C1064.39 157.58 1061.84 156.56 1057.43 156.56ZM1045.16 165.89H1069.67V167.9H1045.16V165.89ZM1048.13 170.21H1066.55V176.33H1050.65V179.63H1048.19V174.53H1064.09V172.13H1048.13V170.21ZM1048.19 179.09H1067.36V181.04H1048.19V179.09ZM1081.19 168.59H1105.7V170.6H1081.19V168.59ZM1092.2 165.08H1094.66V169.43H1092.2V165.08ZM1084.43 163.97H1102.82V165.92H1084.43V163.97ZM1084.43 155H1102.7V156.95H1086.89V165.02H1084.43V155ZM1086.17 159.44H1101.98V161.36H1086.17V159.44ZM1093.43 172.61C1099.34 172.61 1102.73 174.11 1102.73 176.96C1102.73 179.78 1099.34 181.28 1093.43 181.28C1087.52 181.28 1084.13 179.78 1084.13 176.96C1084.13 174.11 1087.52 172.61 1093.43 172.61ZM1093.43 174.5C1089.08 174.5 1086.65 175.37 1086.65 176.96C1086.65 178.58 1089.08 179.42 1093.43 179.42C1097.78 179.42 1100.21 178.58 1100.21 176.96C1100.21 175.37 1097.78 174.5 1093.43 174.5ZM1127.36 154.25H1129.85V174.59H1127.36V154.25ZM1129.07 163.13H1133.87V165.23H1129.07V163.13ZM1108.88 157.52H1124.9V159.53H1108.88V157.52ZM1116.89 161.03C1120.73 161.03 1123.37 163.04 1123.37 166.1C1123.37 169.13 1120.73 171.14 1116.89 171.14C1113.02 171.14 1110.38 169.13 1110.38 166.1C1110.38 163.04 1113.02 161.03 1116.89 161.03ZM1116.89 162.98C1114.43 162.98 1112.75 164.21 1112.75 166.1C1112.75 167.96 1114.43 169.19 1116.89 169.19C1119.32 169.19 1121 167.96 1121 166.1C1121 164.21 1119.32 162.98 1116.89 162.98ZM1115.63 154.22H1118.12V158.57H1115.63V154.22ZM1112.96 178.7H1131.08V180.74H1112.96V178.7ZM1112.96 172.97H1115.45V179.57H1112.96V172.97ZM1157.81 159.2H1165.07V161.24H1157.81V159.2ZM1157.57 164.84H1164.89V166.88H1157.57V164.84ZM1164.65 154.22H1167.14V170.48H1164.65V154.22ZM1156.16 156.26H1158.83C1158.83 163.25 1154 168.14 1146.2 170.48L1145.18 168.47C1152.11 166.46 1156.16 162.47 1156.16 157.34V156.26ZM1146.59 156.26H1157.87V158.3H1146.59V156.26ZM1158.32 170.78C1163.81 170.78 1167.29 172.73 1167.29 176C1167.29 179.27 1163.81 181.22 1158.32 181.22C1152.83 181.22 1149.35 179.27 1149.35 176C1149.35 172.73 1152.83 170.78 1158.32 170.78ZM1158.32 172.73C1154.36 172.73 1151.81 173.96 1151.81 176C1151.81 178.04 1154.36 179.24 1158.32 179.24C1162.31 179.24 1164.86 178.04 1164.86 176C1164.86 173.96 1162.31 172.73 1158.32 172.73ZM1192.25 154.22H1194.74V170.63H1192.25V154.22ZM1187.75 162.44H1193.36V164.51H1187.75V162.44ZM1177.16 172.07H1194.74V180.98H1177.16V172.07ZM1192.31 174.08H1179.59V178.97H1192.31V174.08ZM1172.48 157.04H1188.17V159.05H1172.48V157.04ZM1180.31 160.43C1183.97 160.43 1186.58 162.41 1186.58 165.29C1186.58 168.17 1183.97 170.09 1180.31 170.09C1176.65 170.09 1174.04 168.17 1174.04 165.29C1174.04 162.41 1176.65 160.43 1180.31 160.43ZM1180.31 162.35C1178.03 162.35 1176.41 163.52 1176.41 165.29C1176.41 167.03 1178.03 168.2 1180.31 168.2C1182.59 168.2 1184.21 167.03 1184.21 165.29C1184.21 163.52 1182.59 162.35 1180.31 162.35ZM1179.08 153.95H1181.57V158.48H1179.08V153.95ZM1219.73 154.19H1222.22V181.37H1219.73V154.19ZM1207.91 156.29C1211.93 156.29 1214.81 159.98 1214.81 165.74C1214.81 171.53 1211.93 175.22 1207.91 175.22C1203.92 175.22 1201.04 171.53 1201.04 165.74C1201.04 159.98 1203.92 156.29 1207.91 156.29ZM1207.91 158.54C1205.27 158.54 1203.41 161.36 1203.41 165.74C1203.41 170.15 1205.27 173.03 1207.91 173.03C1210.58 173.03 1212.41 170.15 1212.41 165.74C1212.41 161.36 1210.58 158.54 1207.91 158.54ZM1234.82 158.09H1236.83V162.5C1236.83 168.23 1233.38 173.99 1229.06 176.12L1227.62 174.14C1231.55 172.28 1234.82 167.18 1234.82 162.5V158.09ZM1235.3 158.09H1237.31V162.5C1237.31 167.09 1240.58 171.77 1244.57 173.48L1243.16 175.46C1238.78 173.42 1235.3 168.14 1235.3 162.5V158.09ZM1228.52 156.98H1243.67V159.08H1228.52V156.98ZM1247.33 154.22H1249.82V181.34H1247.33V154.22ZM1271.15 155.75C1275.2 155.75 1278.17 158.33 1278.17 162.02C1278.17 165.71 1275.2 168.29 1271.15 168.29C1267.13 168.29 1264.16 165.71 1264.16 162.02C1264.16 158.33 1267.13 155.75 1271.15 155.75ZM1271.15 157.79C1268.57 157.79 1266.59 159.56 1266.59 162.02C1266.59 164.48 1268.57 166.25 1271.15 166.25C1273.79 166.25 1275.77 164.48 1275.77 162.02C1275.77 159.56 1273.79 157.79 1271.15 157.79ZM1282.22 154.22H1284.71V167.72H1282.22V154.22ZM1283.63 160.31H1288.73V162.35H1283.63V160.31ZM1266.5 178.58H1267.79C1269.41 178.58 1272.02 178.43 1274.33 177.65L1274.75 179.66C1272.14 180.5 1269.65 180.62 1267.79 180.62H1266.5V178.58ZM1266.5 170.66H1268.93V179.3H1266.5V170.66ZM1273.76 170.84H1287.38V172.7H1273.76V170.84ZM1280.6 173.66C1283.54 173.66 1285.61 175.13 1285.61 177.47C1285.61 179.84 1283.54 181.31 1280.6 181.31C1277.63 181.31 1275.56 179.84 1275.56 177.47C1275.56 175.13 1277.63 173.66 1280.6 173.66ZM1280.6 175.43C1278.92 175.43 1277.78 176.24 1277.78 177.47C1277.78 178.73 1278.92 179.54 1280.6 179.54C1282.22 179.54 1283.39 178.73 1283.39 177.47C1283.39 176.24 1282.22 175.43 1280.6 175.43ZM1279.37 168.41H1281.8V172.28H1279.37V168.41ZM1303.52 154.67C1309.49 154.67 1313.06 156.35 1313.06 159.38C1313.06 162.41 1309.49 164.09 1303.52 164.09C1297.52 164.09 1293.98 162.41 1293.98 159.38C1293.98 156.35 1297.52 154.67 1303.52 154.67ZM1303.52 156.56C1299.08 156.56 1296.53 157.58 1296.53 159.38C1296.53 161.18 1299.08 162.2 1303.52 162.2C1307.93 162.2 1310.48 161.18 1310.48 159.38C1310.48 157.58 1307.93 156.56 1303.52 156.56ZM1291.25 165.89H1315.76V167.9H1291.25V165.89ZM1294.22 170.21H1312.64V176.33H1296.74V179.63H1294.28V174.53H1310.18V172.13H1294.22V170.21ZM1294.28 179.09H1313.45V181.04H1294.28V179.09ZM1337.69 154.22H1340.15V181.34H1337.69V154.22ZM1339.37 165.38H1344.2V167.48H1339.37V165.38ZM1324.7 157.13H1326.98C1326.98 163.67 1325.6 170 1320.74 175.25L1318.73 173.84C1323.2 169.19 1324.7 163.55 1324.7 157.4V157.13ZM1319.6 157.13H1325.63V159.2H1319.6V157.13ZM1332.08 157.13H1334.39C1334.39 163.7 1333.46 171.14 1328.48 177.05L1326.47 175.67C1331.06 170.36 1332.08 163.64 1332.08 157.37V157.13ZM1327.85 157.13H1333.1V159.2H1327.85V157.13ZM1352.48 168.17H1354.94V176.3H1352.48V168.17ZM1362.5 168.17H1364.99V176.3H1362.5V168.17ZM1346.48 175.82H1371.05V177.89H1346.48V175.82ZM1358.72 155.93C1364.45 155.93 1368.56 158.66 1368.56 162.92C1368.56 167.15 1364.45 169.88 1358.72 169.88C1352.96 169.88 1348.85 167.15 1348.85 162.92C1348.85 158.66 1352.96 155.93 1358.72 155.93ZM1358.72 157.91C1354.37 157.91 1351.25 159.89 1351.25 162.92C1351.25 165.92 1354.37 167.9 1358.72 167.9C1363.07 167.9 1366.16 165.92 1366.16 162.92C1366.16 159.89 1363.07 157.91 1358.72 157.91ZM1378.16 172.864V172.736C1378.17 171.379 1378.31 170.3 1378.58 169.497C1378.85 168.695 1379.24 168.045 1379.73 167.548C1380.23 167.05 1380.83 166.592 1381.52 166.173C1381.94 165.918 1382.32 165.616 1382.65 165.268C1382.99 164.913 1383.25 164.504 1383.44 164.043C1383.64 163.581 1383.74 163.07 1383.74 162.509C1383.74 161.812 1383.57 161.209 1383.25 160.697C1382.92 160.186 1382.48 159.792 1381.94 159.515C1381.39 159.238 1380.78 159.099 1380.12 159.099C1379.53 159.099 1378.97 159.22 1378.43 159.462C1377.89 159.703 1377.44 160.083 1377.08 160.602C1376.72 161.12 1376.51 161.798 1376.45 162.636H1373.77C1373.82 161.429 1374.14 160.396 1374.7 159.536C1375.28 158.677 1376.04 158.02 1376.97 157.565C1377.92 157.111 1378.97 156.884 1380.12 156.884C1381.37 156.884 1382.45 157.132 1383.38 157.629C1384.31 158.126 1385.02 158.808 1385.53 159.675C1386.04 160.541 1386.29 161.528 1386.29 162.636C1386.29 163.418 1386.17 164.124 1385.93 164.756C1385.7 165.388 1385.36 165.953 1384.91 166.45C1384.47 166.947 1383.94 167.388 1383.31 167.771C1382.69 168.162 1382.19 168.574 1381.81 169.007C1381.43 169.433 1381.16 169.941 1380.99 170.531C1380.82 171.12 1380.73 171.855 1380.71 172.736V172.864H1378.16ZM1379.52 179.17C1378.99 179.17 1378.54 178.982 1378.17 178.606C1377.79 178.229 1377.6 177.778 1377.6 177.253C1377.6 176.727 1377.79 176.276 1378.17 175.9C1378.54 175.523 1378.99 175.335 1379.52 175.335C1380.04 175.335 1380.5 175.523 1380.87 175.9C1381.25 176.276 1381.44 176.727 1381.44 177.253C1381.44 177.601 1381.35 177.92 1381.17 178.212C1381 178.503 1380.77 178.737 1380.48 178.915C1380.19 179.085 1379.87 179.17 1379.52 179.17Z" fill="black"/>
<defs>
<filter id="filter0_di_119_32" x="27.9453" y="18.875" width="1476.11" height="227.068" filterUnits="userSpaceOnUse" color-interpolation-filters="sRGB">
<feFlood flood-opacity="0" result="BackgroundImageFix"/>
<feColorMatrix in="SourceAlpha" type="matrix" values="0 0 0 0 0 0 0 0 0 0 0 0 0 0 0 0 0 0 127 0" result="hardAlpha"/>
<feOffset dy="4"/>
<feGaussianBlur stdDeviation="2"/>
<feComposite in2="hardAlpha" operator="out"/>
<feColorMatrix type="matrix" values="0 0 0 0 0 0 0 0 0 0 0 0 0 0 0 0 0 0 0.25 0"/>
<feBlend mode="normal" in2="BackgroundImageFix" result="effect1_dropShadow_119_32"/>
<feBlend mode="normal" in="SourceGraphic" in2="effect1_dropShadow_119_32" result="shape"/>
<feColorMatrix in="SourceAlpha" type="matrix" values="0 0 0 0 0 0 0 0 0 0 0 0 0 0 0 0 0 0 127 0" result="hardAlpha"/>
<feOffset dy="4"/>
<feGaussianBlur stdDeviation="2"/>
<feComposite in2="hardAlpha" operator="arithmetic" k2="-1" k3="1"/>
<feColorMatrix type="matrix" values="0 0 0 0 0 0 0 0 0 0 0 0 0 0 0 0 0 0 0.25 0"/>
<feBlend mode="normal" in2="shape" result="effect2_innerShadow_119_32"/>
</filter>
<filter id="filter1_di_119_32" x="65.9648" y="32.4774" width="1398.84" height="197.716" filterUnits="userSpaceOnUse" color-interpolation-filters="sRGB">
<feFlood flood-opacity="0" result="BackgroundImageFix"/>
<feColorMatrix in="SourceAlpha" type="matrix" values="0 0 0 0 0 0 0 0 0 0 0 0 0 0 0 0 0 0 127 0" result="hardAlpha"/>
<feOffset dy="4"/>
<feGaussianBlur stdDeviation="2"/>
<feComposite in2="hardAlpha" operator="out"/>
<feColorMatrix type="matrix" values="0 0 0 0 0 0 0 0 0 0 0 0 0 0 0 0 0 0 0.25 0"/>
<feBlend mode="normal" in2="BackgroundImageFix" result="effect1_dropShadow_119_32"/>
<feBlend mode="normal" in="SourceGraphic" in2="effect1_dropShadow_119_32" result="shape"/>
<feColorMatrix in="SourceAlpha" type="matrix" values="0 0 0 0 0 0 0 0 0 0 0 0 0 0 0 0 0 0 127 0" result="hardAlpha"/>
<feOffset dy="4"/>
<feGaussianBlur stdDeviation="2"/>
<feComposite in2="hardAlpha" operator="arithmetic" k2="-1" k3="1"/>
<feColorMatrix type="matrix" values="0 0 0 0 0 0 0 0 0 0 0 0 0 0 0 0 0 0 0.25 0"/>
<feBlend mode="normal" in2="shape" result="effect2_innerShadow_119_32"/>
</filter>
</defs>
</svg>
