<svg width="1516" height="253" viewBox="0 0 1516 253" fill="none" xmlns="http://www.w3.org/2000/svg">
<rect x="16" y="11" width="1500" height="242" fill="#FFD0C5"/>
<g filter="url(#filter0_di_119_46)">
<rect x="31.9453" y="18.875" width="1468.11" height="219.068" fill="#FFB5A4"/>
</g>
<g filter="url(#filter1_di_119_46)">
<rect width="1390.84" height="189.716" transform="matrix(1 0 0 -1 69.9648 222.193)" fill="#FFD0C5"/>
</g>
<path d="M344.642 89.24H350.762V91.31H344.642V89.24ZM349.982 82.22H352.472V98.39H349.982V82.22ZM343.562 99.2C349.142 99.2 352.592 101.09 352.592 104.27C352.592 107.48 349.142 109.31 343.562 109.31C337.952 109.31 334.502 107.48 334.502 104.27C334.502 101.09 337.952 99.2 343.562 99.2ZM343.562 101.15C339.482 101.15 336.992 102.29 336.992 104.27C336.992 106.22 339.482 107.36 343.562 107.36C347.642 107.36 350.132 106.22 350.132 104.27C350.132 102.29 347.642 101.15 343.562 101.15ZM337.082 84.95H339.122V87.14C339.122 92.15 336.062 96.44 331.562 98.12L330.272 96.14C334.292 94.67 337.082 91.04 337.082 87.14V84.95ZM337.562 84.95H339.572V87.14C339.572 90.65 342.212 94.01 346.142 95.39L344.882 97.37C340.472 95.78 337.562 91.7 337.562 87.14V84.95ZM331.022 84.2H345.512V86.24H331.022V84.2ZM376.319 82.22H378.809V96.68H376.319V82.22ZM378.119 88.55H382.829V90.62H378.119V88.55ZM359.009 93.71H361.109C366.689 93.71 369.839 93.53 373.469 92.81L373.739 94.82C370.019 95.6 366.809 95.78 361.109 95.78H359.009V93.71ZM359.009 83.99H370.949V86.03H361.469V95.12H359.009V83.99ZM361.709 98.15H364.169V101.48H376.349V98.15H378.809V108.89H361.709V98.15ZM364.169 103.46V106.85H376.349V103.46H364.169ZM405.087 82.22H407.607V96.77H405.087V82.22ZM390.117 98.12H392.577V101.42H405.147V98.12H407.607V108.98H390.117V98.12ZM392.577 103.4V106.97H405.147V103.4H392.577ZM393.057 83.51C397.167 83.51 400.107 86.06 400.107 89.75C400.107 93.47 397.167 96.02 393.057 96.02C388.947 96.02 385.977 93.47 385.977 89.75C385.977 86.06 388.947 83.51 393.057 83.51ZM393.057 85.58C390.357 85.58 388.407 87.29 388.407 89.75C388.407 92.21 390.357 93.92 393.057 93.92C395.757 93.92 397.707 92.21 397.707 89.75C397.707 87.29 395.757 85.58 393.057 85.58ZM432.685 82.22H435.175V109.34H432.685V82.22ZM414.685 84.86H417.145V101.66H414.685V84.86ZM414.685 100.19H416.905C421.015 100.19 425.305 99.89 429.895 98.93L430.195 101.06C425.485 102.02 421.195 102.35 416.905 102.35H414.685V100.19ZM458.902 82.19H461.422V109.37H458.902V82.19ZM460.822 92.9H465.862V95H460.822V92.9ZM441.712 100.52H443.842C448.852 100.52 452.362 100.34 456.412 99.59L456.682 101.69C452.512 102.47 448.942 102.62 443.842 102.62H441.712V100.52ZM441.712 84.83H454.312V86.87H444.172V101.45H441.712V84.83ZM470.803 107.17C470.278 107.17 469.827 106.982 469.45 106.606C469.074 106.229 468.886 105.778 468.886 105.253C468.886 104.727 469.074 104.276 469.45 103.9C469.827 103.523 470.278 103.335 470.803 103.335C471.329 103.335 471.78 103.523 472.156 103.9C472.533 104.276 472.721 104.727 472.721 105.253C472.721 105.601 472.632 105.92 472.455 106.212C472.284 106.503 472.053 106.737 471.762 106.915C471.478 107.085 471.159 107.17 470.803 107.17ZM504.549 82.19H507.039V109.37H504.549V82.19ZM492.729 84.29C496.749 84.29 499.629 87.98 499.629 93.74C499.629 99.53 496.749 103.22 492.729 103.22C488.739 103.22 485.859 99.53 485.859 93.74C485.859 87.98 488.739 84.29 492.729 84.29ZM492.729 86.54C490.089 86.54 488.229 89.36 488.229 93.74C488.229 98.15 490.089 101.03 492.729 101.03C495.399 101.03 497.229 98.15 497.229 93.74C497.229 89.36 495.399 86.54 492.729 86.54ZM527.564 85.01H529.604V87.2C529.604 92.18 526.604 96.32 522.074 97.94L520.754 95.99C524.864 94.55 527.564 91.07 527.564 87.2V85.01ZM528.014 85.01H530.054V87.17C530.054 90.77 532.664 94.1 536.654 95.45L535.364 97.4C530.894 95.84 528.014 91.85 528.014 87.17V85.01ZM521.534 84.11H536.024V86.15H521.534V84.11ZM539.444 82.22H541.934V98.54H539.444V82.22ZM541.244 89.36H545.954V91.43H541.244V89.36ZM524.324 99.98H541.934V109.34H539.444V102.05H524.324V99.98ZM559.512 96.62H561.972V101.3H559.512V96.62ZM548.472 95.3H572.982V97.34H548.472V95.3ZM550.752 83.06H570.672V85.1H550.752V83.06ZM550.872 90.77H570.552V92.81H550.872V90.77ZM554.862 83.96H557.352V92.09H554.862V83.96ZM564.102 83.96H566.562V92.09H564.102V83.96ZM551.472 100.49H569.982V108.98H551.472V100.49ZM567.552 102.47H553.932V106.97H567.552V102.47ZM576.07 96.47H600.58V98.51H576.07V96.47ZM579.25 106.7H597.88V108.74H579.25V106.7ZM579.25 100.88H581.74V107.33H579.25V100.88ZM588.34 83.12C594.13 83.12 597.88 85.16 597.88 88.55C597.88 91.91 594.13 93.95 588.34 93.95C582.52 93.95 578.8 91.91 578.8 88.55C578.8 85.16 582.52 83.12 588.34 83.12ZM588.34 85.16C584.08 85.16 581.35 86.42 581.35 88.55C581.35 90.68 584.08 91.94 588.34 91.94C592.6 91.94 595.33 90.68 595.33 88.55C595.33 86.42 592.6 85.16 588.34 85.16ZM613.277 85.1818H616.43L623.845 103.293H624.101L631.515 85.1818H634.669V107H632.197V90.4233H631.984L625.166 107H622.78L615.961 90.4233H615.748V107H613.277V85.1818ZM644.441 107.384C643.404 107.384 642.463 107.188 641.618 106.798C640.772 106.4 640.101 105.828 639.604 105.082C639.107 104.33 638.858 103.42 638.858 102.355C638.858 101.418 639.043 100.658 639.412 100.075C639.782 99.4858 640.275 99.0241 640.893 98.6903C641.511 98.3565 642.193 98.108 642.939 97.9446C643.691 97.7741 644.448 97.6392 645.208 97.5398C646.202 97.4119 647.008 97.3161 647.626 97.2521C648.251 97.1811 648.706 97.0639 648.99 96.9006C649.281 96.7372 649.426 96.4531 649.426 96.0483V95.9631C649.426 94.9119 649.139 94.0952 648.564 93.5128C647.995 92.9304 647.132 92.6392 645.975 92.6392C644.775 92.6392 643.833 92.902 643.152 93.4276C642.47 93.9531 641.99 94.5142 641.713 95.1108L639.327 94.2585C639.753 93.2642 640.321 92.4901 641.032 91.9361C641.749 91.375 642.53 90.9844 643.375 90.7642C644.228 90.5369 645.066 90.4233 645.89 90.4233C646.415 90.4233 647.019 90.4872 647.701 90.6151C648.39 90.7358 649.054 90.9879 649.693 91.3714C650.339 91.755 650.875 92.3338 651.301 93.108C651.728 93.8821 651.941 94.919 651.941 96.2188V107H649.426V104.784H649.299C649.128 105.139 648.844 105.519 648.446 105.924C648.049 106.329 647.52 106.673 646.859 106.957C646.199 107.241 645.392 107.384 644.441 107.384ZM644.824 105.125C645.819 105.125 646.657 104.93 647.338 104.539C648.027 104.148 648.546 103.644 648.894 103.026C649.249 102.408 649.426 101.759 649.426 101.077V98.7756C649.32 98.9034 649.086 99.0206 648.723 99.1271C648.368 99.2266 647.956 99.3153 647.488 99.3935C647.026 99.4645 646.575 99.5284 646.135 99.5852C645.701 99.6349 645.35 99.6776 645.08 99.7131C644.426 99.7983 643.816 99.9368 643.248 100.129C642.686 100.313 642.232 100.594 641.884 100.97C641.543 101.339 641.373 101.844 641.373 102.483C641.373 103.357 641.696 104.017 642.342 104.464C642.995 104.905 643.823 105.125 644.824 105.125ZM656.53 107V90.6364H658.959V93.108H659.129C659.427 92.2983 659.967 91.6413 660.748 91.1371C661.53 90.6328 662.41 90.3807 663.39 90.3807C663.575 90.3807 663.806 90.3842 664.083 90.3913C664.36 90.3984 664.569 90.4091 664.711 90.4233V92.9801C664.626 92.9588 664.431 92.9268 664.126 92.8842C663.827 92.8345 663.511 92.8097 663.177 92.8097C662.382 92.8097 661.672 92.9766 661.047 93.3104C660.429 93.6371 659.939 94.0916 659.577 94.674C659.221 95.2493 659.044 95.9062 659.044 96.6449V107H656.53ZM673.841 107.341C672.307 107.341 670.986 106.979 669.878 106.254C668.77 105.53 667.918 104.532 667.322 103.261C666.725 101.989 666.427 100.537 666.427 98.9034C666.427 97.2415 666.732 95.7749 667.343 94.5036C667.961 93.2251 668.82 92.2273 669.921 91.5099C671.029 90.7855 672.322 90.4233 673.799 90.4233C674.949 90.4233 675.986 90.6364 676.91 91.0625C677.833 91.4886 678.589 92.0852 679.179 92.8523C679.768 93.6193 680.134 94.5142 680.276 95.5369H677.762C677.57 94.7912 677.144 94.1307 676.483 93.5554C675.83 92.973 674.949 92.6818 673.841 92.6818C672.861 92.6818 672.002 92.9375 671.263 93.4489C670.532 93.9531 669.96 94.6669 669.548 95.5902C669.143 96.5064 668.941 97.5824 668.941 98.8182C668.941 100.082 669.14 101.183 669.537 102.121C669.942 103.058 670.51 103.786 671.242 104.305C671.981 104.823 672.847 105.082 673.841 105.082C674.495 105.082 675.088 104.969 675.621 104.741C676.153 104.514 676.604 104.188 676.974 103.761C677.343 103.335 677.606 102.824 677.762 102.227H680.276C680.134 103.193 679.782 104.063 679.221 104.837C678.667 105.604 677.932 106.215 677.016 106.67C676.107 107.117 675.049 107.341 673.841 107.341ZM710.287 92H707.645C707.488 91.2401 707.215 90.5724 706.824 89.9972C706.441 89.4219 705.972 88.9389 705.418 88.5483C704.871 88.1506 704.264 87.8523 703.596 87.6534C702.929 87.4545 702.233 87.3551 701.508 87.3551C700.187 87.3551 698.991 87.6889 697.918 88.3565C696.853 89.0241 696.004 90.0078 695.372 91.3075C694.747 92.6072 694.434 94.2017 694.434 96.0909C694.434 97.9801 694.747 99.5746 695.372 100.874C696.004 102.174 696.853 103.158 697.918 103.825C698.991 104.493 700.187 104.827 701.508 104.827C702.233 104.827 702.929 104.727 703.596 104.528C704.264 104.33 704.871 104.035 705.418 103.644C705.972 103.246 706.441 102.76 706.824 102.185C707.215 101.602 707.488 100.935 707.645 100.182H710.287C710.088 101.297 709.726 102.295 709.2 103.175C708.675 104.056 708.021 104.805 707.24 105.423C706.459 106.034 705.581 106.499 704.608 106.819C703.643 107.138 702.609 107.298 701.508 107.298C699.648 107.298 697.993 106.844 696.544 105.935C695.095 105.026 693.955 103.733 693.124 102.057C692.293 100.381 691.878 98.392 691.878 96.0909C691.878 93.7898 692.293 91.8011 693.124 90.125C693.955 88.4489 695.095 87.1562 696.544 86.2472C697.993 85.3381 699.648 84.8835 701.508 84.8835C702.609 84.8835 703.643 85.0433 704.608 85.3629C705.581 85.6825 706.459 86.1513 707.24 86.7692C708.021 87.38 708.675 88.1257 709.2 89.0064C709.726 89.88 710.088 90.8778 710.287 92ZM716.729 97.1562V107H714.215V85.1818H716.729V93.1932H716.942C717.326 92.348 717.901 91.6768 718.668 91.1797C719.442 90.6754 720.472 90.4233 721.758 90.4233C722.873 90.4233 723.849 90.647 724.688 91.0945C725.526 91.5348 726.175 92.2131 726.637 93.1293C727.106 94.0384 727.34 95.196 727.34 96.6023V107H724.826V96.7727C724.826 95.473 724.489 94.468 723.814 93.7578C723.146 93.0405 722.219 92.6818 721.033 92.6818C720.21 92.6818 719.471 92.8558 718.817 93.2038C718.171 93.5518 717.66 94.0597 717.283 94.7273C716.914 95.3949 716.729 96.2045 716.729 97.1562ZM736.755 107.384C735.718 107.384 734.777 107.188 733.932 106.798C733.087 106.4 732.416 105.828 731.919 105.082C731.421 104.33 731.173 103.42 731.173 102.355C731.173 101.418 731.357 100.658 731.727 100.075C732.096 99.4858 732.59 99.0241 733.208 98.6903C733.825 98.3565 734.507 98.108 735.253 97.9446C736.006 97.7741 736.762 97.6392 737.522 97.5398C738.517 97.4119 739.323 97.3161 739.941 97.2521C740.566 97.1811 741.02 97.0639 741.304 96.9006C741.595 96.7372 741.741 96.4531 741.741 96.0483V95.9631C741.741 94.9119 741.453 94.0952 740.878 93.5128C740.31 92.9304 739.447 92.6392 738.289 92.6392C737.089 92.6392 736.148 92.902 735.466 93.4276C734.784 93.9531 734.305 94.5142 734.028 95.1108L731.642 94.2585C732.068 93.2642 732.636 92.4901 733.346 91.9361C734.063 91.375 734.845 90.9844 735.69 90.7642C736.542 90.5369 737.38 90.4233 738.204 90.4233C738.73 90.4233 739.333 90.4872 740.015 90.6151C740.704 90.7358 741.368 90.9879 742.007 91.3714C742.654 91.755 743.19 92.3338 743.616 93.108C744.042 93.8821 744.255 94.919 744.255 96.2188V107H741.741V104.784H741.613C741.443 105.139 741.159 105.519 740.761 105.924C740.363 106.329 739.834 106.673 739.173 106.957C738.513 107.241 737.707 107.384 736.755 107.384ZM737.139 105.125C738.133 105.125 738.971 104.93 739.653 104.539C740.342 104.148 740.86 103.644 741.208 103.026C741.563 102.408 741.741 101.759 741.741 101.077V98.7756C741.634 98.9034 741.4 99.0206 741.038 99.1271C740.683 99.2266 740.271 99.3153 739.802 99.3935C739.34 99.4645 738.889 99.5284 738.449 99.5852C738.016 99.6349 737.664 99.6776 737.394 99.7131C736.741 99.7983 736.13 99.9368 735.562 100.129C735.001 100.313 734.546 100.594 734.198 100.97C733.857 101.339 733.687 101.844 733.687 102.483C733.687 103.357 734.01 104.017 734.656 104.464C735.31 104.905 736.137 105.125 737.139 105.125ZM755.449 113.477C754.235 113.477 753.191 113.321 752.317 113.009C751.444 112.703 750.716 112.298 750.133 111.794C749.558 111.297 749.1 110.764 748.759 110.196L750.762 108.79C750.989 109.088 751.277 109.429 751.625 109.812C751.973 110.203 752.449 110.54 753.052 110.825C753.663 111.116 754.462 111.261 755.449 111.261C756.77 111.261 757.86 110.942 758.72 110.303C759.579 109.663 760.009 108.662 760.009 107.298V103.974H759.796C759.611 104.273 759.348 104.642 759.007 105.082C758.674 105.516 758.191 105.903 757.559 106.244C756.934 106.577 756.088 106.744 755.023 106.744C753.702 106.744 752.516 106.432 751.465 105.807C750.421 105.182 749.593 104.273 748.983 103.08C748.379 101.886 748.077 100.437 748.077 98.733C748.077 97.0568 748.372 95.5973 748.961 94.3544C749.551 93.1044 750.371 92.1385 751.422 91.4567C752.473 90.7678 753.688 90.4233 755.066 90.4233C756.131 90.4233 756.976 90.6009 757.601 90.956C758.233 91.304 758.716 91.7017 759.05 92.1491C759.391 92.5895 759.654 92.9517 759.838 93.2358H760.094V90.6364H762.523V107.469C762.523 108.875 762.203 110.018 761.564 110.899C760.932 111.787 760.08 112.437 759.007 112.849C757.942 113.268 756.756 113.477 755.449 113.477ZM755.364 104.486C756.373 104.486 757.225 104.255 757.921 103.793C758.617 103.332 759.146 102.668 759.508 101.801C759.87 100.935 760.051 99.8977 760.051 98.6903C760.051 97.5114 759.874 96.4709 759.519 95.5689C759.164 94.6669 758.638 93.9602 757.942 93.4489C757.246 92.9375 756.387 92.6818 755.364 92.6818C754.299 92.6818 753.411 92.9517 752.701 93.4915C751.998 94.0312 751.468 94.7557 751.113 95.6648C750.765 96.5739 750.591 97.5824 750.591 98.6903C750.591 99.8267 750.769 100.832 751.124 101.705C751.486 102.572 752.019 103.254 752.722 103.751C753.432 104.241 754.313 104.486 755.364 104.486ZM771.941 107.384C770.904 107.384 769.963 107.188 769.118 106.798C768.272 106.4 767.601 105.828 767.104 105.082C766.607 104.33 766.358 103.42 766.358 102.355C766.358 101.418 766.543 100.658 766.912 100.075C767.282 99.4858 767.775 99.0241 768.393 98.6903C769.011 98.3565 769.693 98.108 770.439 97.9446C771.191 97.7741 771.948 97.6392 772.708 97.5398C773.702 97.4119 774.508 97.3161 775.126 97.2521C775.751 97.1811 776.206 97.0639 776.49 96.9006C776.781 96.7372 776.926 96.4531 776.926 96.0483V95.9631C776.926 94.9119 776.639 94.0952 776.064 93.5128C775.495 92.9304 774.632 92.6392 773.475 92.6392C772.275 92.6392 771.333 92.902 770.652 93.4276C769.97 93.9531 769.49 94.5142 769.213 95.1108L766.827 94.2585C767.253 93.2642 767.821 92.4901 768.532 91.9361C769.249 91.375 770.03 90.9844 770.875 90.7642C771.728 90.5369 772.566 90.4233 773.39 90.4233C773.915 90.4233 774.519 90.4872 775.201 90.6151C775.89 90.7358 776.554 90.9879 777.193 91.3714C777.839 91.755 778.375 92.3338 778.801 93.108C779.228 93.8821 779.441 94.919 779.441 96.2188V107H776.926V104.784H776.799C776.628 105.139 776.344 105.519 775.946 105.924C775.549 106.329 775.02 106.673 774.359 106.957C773.699 107.241 772.892 107.384 771.941 107.384ZM772.324 105.125C773.319 105.125 774.157 104.93 774.838 104.539C775.527 104.148 776.046 103.644 776.394 103.026C776.749 102.408 776.926 101.759 776.926 101.077V98.7756C776.82 98.9034 776.586 99.0206 776.223 99.1271C775.868 99.2266 775.456 99.3153 774.988 99.3935C774.526 99.4645 774.075 99.5284 773.635 99.5852C773.201 99.6349 772.85 99.6776 772.58 99.7131C771.926 99.7983 771.316 99.9368 770.748 100.129C770.186 100.313 769.732 100.594 769.384 100.97C769.043 101.339 768.873 101.844 768.873 102.483C768.873 103.357 769.196 104.017 769.842 104.464C770.495 104.905 771.323 105.125 772.324 105.125ZM786.544 85.1818V107H784.03V85.1818H786.544ZM793.663 85.1818V107H791.149V85.1818H793.663ZM806.257 84.17C810.487 84.17 813.517 86.78 813.517 90.56C813.517 94.37 810.487 96.98 806.257 96.98C802.027 96.98 798.967 94.37 798.967 90.56C798.967 86.78 802.027 84.17 806.257 84.17ZM806.257 86.33C803.437 86.33 801.397 88.04 801.397 90.56C801.397 93.08 803.437 94.82 806.257 94.82C809.047 94.82 811.087 93.08 811.087 90.56C811.087 88.04 809.047 86.33 806.257 86.33ZM817.057 82.19H819.547V109.37H817.057V82.19ZM797.947 103.43L797.587 101.36C802.537 101.36 809.377 101.33 815.287 100.4L815.497 102.23C809.407 103.4 802.777 103.43 797.947 103.43ZM833.451 92V90.0824C833.451 89.5 833.554 88.8821 833.76 88.2287C833.973 87.5682 834.278 86.9325 834.676 86.3217C835.081 85.7038 835.567 85.1676 836.135 84.7131L837.499 85.821C837.052 86.4602 836.661 87.1278 836.327 87.8239C836.001 88.5128 835.837 89.2514 835.837 90.0398V92H833.451ZM838.905 92V90.0824C838.905 89.5 839.008 88.8821 839.214 88.2287C839.427 87.5682 839.733 86.9325 840.131 86.3217C840.535 85.7038 841.022 85.1676 841.59 84.7131L842.954 85.821C842.506 86.4602 842.116 87.1278 841.782 87.8239C841.455 88.5128 841.292 89.2514 841.292 90.0398V92H838.905ZM844.064 107H841.294L849.306 85.1818H852.033L860.044 107H857.275L850.755 88.6335H850.584L844.064 107ZM845.087 98.4773H856.252V100.821H845.087V98.4773ZM863.443 107V85.1818H865.957V93.2358H866.17C866.355 92.9517 866.61 92.5895 866.937 92.1491C867.271 91.7017 867.747 91.304 868.365 90.956C868.99 90.6009 869.835 90.4233 870.9 90.4233C872.278 90.4233 873.493 90.7678 874.544 91.4567C875.595 92.1456 876.415 93.1222 877.005 94.3864C877.594 95.6506 877.889 97.142 877.889 98.8608C877.889 100.594 877.594 102.096 877.005 103.367C876.415 104.631 875.598 105.612 874.554 106.308C873.51 106.996 872.306 107.341 870.943 107.341C869.892 107.341 869.05 107.167 868.418 106.819C867.786 106.464 867.299 106.062 866.958 105.615C866.618 105.161 866.355 104.784 866.17 104.486H865.872V107H863.443ZM865.914 98.8182C865.914 100.054 866.096 101.144 866.458 102.089C866.82 103.026 867.349 103.761 868.045 104.294C868.741 104.82 869.593 105.082 870.602 105.082C871.653 105.082 872.53 104.805 873.233 104.251C873.944 103.69 874.476 102.937 874.831 101.993C875.194 101.041 875.375 99.983 875.375 98.8182C875.375 97.6676 875.197 96.6307 874.842 95.7074C874.494 94.777 873.965 94.0419 873.255 93.5021C872.551 92.9553 871.667 92.6818 870.602 92.6818C869.579 92.6818 868.72 92.9411 868.024 93.4595C867.328 93.9709 866.802 94.6882 866.447 95.6115C866.092 96.5277 865.914 97.5966 865.914 98.8182ZM888.382 107.341C886.905 107.341 885.609 106.989 884.494 106.286C883.386 105.583 882.52 104.599 881.895 103.335C881.277 102.071 880.968 100.594 880.968 98.9034C880.968 97.1989 881.277 95.7109 881.895 94.4396C882.52 93.1683 883.386 92.1811 884.494 91.478C885.609 90.7749 886.905 90.4233 888.382 90.4233C889.86 90.4233 891.152 90.7749 892.26 91.478C893.375 92.1811 894.242 93.1683 894.86 94.4396C895.485 95.7109 895.797 97.1989 895.797 98.9034C895.797 100.594 895.485 102.071 894.86 103.335C894.242 104.599 893.375 105.583 892.26 106.286C891.152 106.989 889.86 107.341 888.382 107.341ZM888.382 105.082C889.505 105.082 890.428 104.795 891.152 104.219C891.877 103.644 892.413 102.888 892.761 101.95C893.109 101.013 893.283 99.9972 893.283 98.9034C893.283 97.8097 893.109 96.7905 892.761 95.8459C892.413 94.9013 891.877 94.1378 891.152 93.5554C890.428 92.973 889.505 92.6818 888.382 92.6818C887.26 92.6818 886.337 92.973 885.613 93.5554C884.888 94.1378 884.352 94.9013 884.004 95.8459C883.656 96.7905 883.482 97.8097 883.482 98.9034C883.482 99.9972 883.656 101.013 884.004 101.95C884.352 102.888 884.888 103.644 885.613 104.219C886.337 104.795 887.26 105.082 888.382 105.082ZM912.43 90.6364L906.379 107H903.822L897.771 90.6364H900.498L905.015 103.676H905.186L909.703 90.6364H912.43ZM922.023 107.341C920.447 107.341 919.086 106.993 917.943 106.297C916.807 105.594 915.93 104.614 915.312 103.357C914.701 102.092 914.395 100.622 914.395 98.946C914.395 97.2699 914.701 95.7926 915.312 94.5142C915.93 93.2287 916.789 92.2273 917.89 91.5099C918.998 90.7855 920.29 90.4233 921.768 90.4233C922.62 90.4233 923.461 90.5653 924.292 90.8494C925.123 91.1335 925.88 91.5952 926.562 92.2344C927.243 92.8665 927.787 93.7045 928.192 94.7486C928.596 95.7926 928.799 97.0781 928.799 98.6051V99.6705H916.185V97.4972H926.242C926.242 96.5739 926.057 95.75 925.688 95.0256C925.326 94.3011 924.807 93.7294 924.133 93.3104C923.465 92.8913 922.677 92.6818 921.768 92.6818C920.766 92.6818 919.9 92.9304 919.168 93.4276C918.444 93.9176 917.886 94.5568 917.496 95.3452C917.105 96.1335 916.91 96.9787 916.91 97.8807V99.3295C916.91 100.565 917.123 101.613 917.549 102.472C917.982 103.325 918.582 103.974 919.349 104.422C920.116 104.862 921.008 105.082 922.023 105.082C922.684 105.082 923.28 104.99 923.813 104.805C924.353 104.614 924.818 104.33 925.209 103.953C925.599 103.57 925.901 103.094 926.114 102.526L928.543 103.207C928.287 104.031 927.858 104.756 927.254 105.381C926.65 105.999 925.905 106.482 925.017 106.83C924.129 107.17 923.131 107.341 922.023 107.341ZM948.177 90.6364V92.767H939.697V90.6364H948.177ZM942.169 86.7159H944.683V102.312C944.683 103.023 944.786 103.555 944.992 103.911C945.205 104.259 945.475 104.493 945.802 104.614C946.135 104.727 946.487 104.784 946.856 104.784C947.133 104.784 947.361 104.77 947.538 104.741C947.716 104.706 947.858 104.678 947.964 104.656L948.476 106.915C948.305 106.979 948.067 107.043 947.762 107.107C947.456 107.178 947.069 107.213 946.601 107.213C945.89 107.213 945.194 107.06 944.513 106.755C943.838 106.45 943.277 105.984 942.829 105.359C942.389 104.734 942.169 103.946 942.169 102.994V86.7159ZM954.825 97.1562V107H952.311V85.1818H954.825V93.1932H955.038C955.422 92.348 955.997 91.6768 956.764 91.1797C957.538 90.6754 958.568 90.4233 959.854 90.4233C960.969 90.4233 961.945 90.647 962.783 91.0945C963.621 91.5348 964.271 92.2131 964.733 93.1293C965.202 94.0384 965.436 95.196 965.436 96.6023V107H962.922V96.7727C962.922 95.473 962.584 94.468 961.91 93.7578C961.242 93.0405 960.315 92.6818 959.129 92.6818C958.305 92.6818 957.567 92.8558 956.913 93.2038C956.267 93.5518 955.756 94.0597 955.379 94.7273C955.01 95.3949 954.825 96.2045 954.825 97.1562ZM976.896 107.341C975.32 107.341 973.96 106.993 972.816 106.297C971.68 105.594 970.803 104.614 970.185 103.357C969.574 102.092 969.268 100.622 969.268 98.946C969.268 97.2699 969.574 95.7926 970.185 94.5142C970.803 93.2287 971.662 92.2273 972.763 91.5099C973.871 90.7855 975.163 90.4233 976.641 90.4233C977.493 90.4233 978.335 90.5653 979.165 90.8494C979.996 91.1335 980.753 91.5952 981.435 92.2344C982.116 92.8665 982.66 93.7045 983.065 94.7486C983.469 95.7926 983.672 97.0781 983.672 98.6051V99.6705H971.058V97.4972H981.115C981.115 96.5739 980.93 95.75 980.561 95.0256C980.199 94.3011 979.68 93.7294 979.006 93.3104C978.338 92.8913 977.55 92.6818 976.641 92.6818C975.639 92.6818 974.773 92.9304 974.041 93.4276C973.317 93.9176 972.759 94.5568 972.369 95.3452C971.978 96.1335 971.783 96.9787 971.783 97.8807V99.3295C971.783 100.565 971.996 101.613 972.422 102.472C972.855 103.325 973.455 103.974 974.222 104.422C974.989 104.862 975.881 105.082 976.896 105.082C977.557 105.082 978.153 104.99 978.686 104.805C979.226 104.614 979.691 104.33 980.082 103.953C980.472 103.57 980.774 103.094 980.987 102.526L983.416 103.207C983.161 104.031 982.731 104.756 982.127 105.381C981.523 105.999 980.778 106.482 979.89 106.83C979.002 107.17 978.004 107.341 976.896 107.341ZM996.275 107V85.1818H998.917V94.8977H1010.55V85.1818H1013.19V107H1010.55V97.2415H998.917V107H996.275ZM1025 107.341C1023.43 107.341 1022.06 106.993 1020.92 106.297C1019.79 105.594 1018.91 104.614 1018.29 103.357C1017.68 102.092 1017.37 100.622 1017.37 98.946C1017.37 97.2699 1017.68 95.7926 1018.29 94.5142C1018.91 93.2287 1019.77 92.2273 1020.87 91.5099C1021.98 90.7855 1023.27 90.4233 1024.75 90.4233C1025.6 90.4233 1026.44 90.5653 1027.27 90.8494C1028.1 91.1335 1028.86 91.5952 1029.54 92.2344C1030.22 92.8665 1030.77 93.7045 1031.17 94.7486C1031.57 95.7926 1031.78 97.0781 1031.78 98.6051V99.6705H1019.16V97.4972H1029.22C1029.22 96.5739 1029.04 95.75 1028.67 95.0256C1028.3 94.3011 1027.79 93.7294 1027.11 93.3104C1026.44 92.8913 1025.66 92.6818 1024.75 92.6818C1023.74 92.6818 1022.88 92.9304 1022.15 93.4276C1021.42 93.9176 1020.86 94.5568 1020.47 95.3452C1020.08 96.1335 1019.89 96.9787 1019.89 97.8807V99.3295C1019.89 100.565 1020.1 101.613 1020.53 102.472C1020.96 103.325 1021.56 103.974 1022.33 104.422C1023.09 104.862 1023.99 105.082 1025 105.082C1025.66 105.082 1026.26 104.99 1026.79 104.805C1027.33 104.614 1027.8 104.33 1028.19 103.953C1028.58 103.57 1028.88 103.094 1029.09 102.526L1031.52 103.207C1031.27 104.031 1030.84 104.756 1030.23 105.381C1029.63 105.999 1028.88 106.482 1028 106.83C1027.11 107.17 1026.11 107.341 1025 107.341ZM1040.42 107.384C1039.38 107.384 1038.44 107.188 1037.59 106.798C1036.75 106.4 1036.08 105.828 1035.58 105.082C1035.08 104.33 1034.83 103.42 1034.83 102.355C1034.83 101.418 1035.02 100.658 1035.39 100.075C1035.76 99.4858 1036.25 99.0241 1036.87 98.6903C1037.49 98.3565 1038.17 98.108 1038.92 97.9446C1039.67 97.7741 1040.42 97.6392 1041.18 97.5398C1042.18 97.4119 1042.98 97.3161 1043.6 97.2521C1044.23 97.1811 1044.68 97.0639 1044.97 96.9006C1045.26 96.7372 1045.4 96.4531 1045.4 96.0483V95.9631C1045.4 94.9119 1045.12 94.0952 1044.54 93.5128C1043.97 92.9304 1043.11 92.6392 1041.95 92.6392C1040.75 92.6392 1039.81 92.902 1039.13 93.4276C1038.45 93.9531 1037.97 94.5142 1037.69 95.1108L1035.3 94.2585C1035.73 93.2642 1036.3 92.4901 1037.01 91.9361C1037.73 91.375 1038.51 90.9844 1039.35 90.7642C1040.2 90.5369 1041.04 90.4233 1041.87 90.4233C1042.39 90.4233 1043 90.4872 1043.68 90.6151C1044.37 90.7358 1045.03 90.9879 1045.67 91.3714C1046.32 91.755 1046.85 92.3338 1047.28 93.108C1047.7 93.8821 1047.92 94.919 1047.92 96.2188V107H1045.4V104.784H1045.28C1045.1 105.139 1044.82 105.519 1044.42 105.924C1044.03 106.329 1043.5 106.673 1042.84 106.957C1042.18 107.241 1041.37 107.384 1040.42 107.384ZM1040.8 105.125C1041.8 105.125 1042.63 104.93 1043.31 104.539C1044 104.148 1044.52 103.644 1044.87 103.026C1045.23 102.408 1045.4 101.759 1045.4 101.077V98.7756C1045.3 98.9034 1045.06 99.0206 1044.7 99.1271C1044.34 99.2266 1043.93 99.3153 1043.46 99.3935C1043 99.4645 1042.55 99.5284 1042.11 99.5852C1041.68 99.6349 1041.33 99.6776 1041.06 99.7131C1040.4 99.7983 1039.79 99.9368 1039.22 100.129C1038.66 100.313 1038.21 100.594 1037.86 100.97C1037.52 101.339 1037.35 101.844 1037.35 102.483C1037.35 103.357 1037.67 104.017 1038.32 104.464C1038.97 104.905 1039.8 105.125 1040.8 105.125ZM1058.69 107.341C1057.32 107.341 1056.12 106.996 1055.07 106.308C1054.03 105.612 1053.21 104.631 1052.62 103.367C1052.03 102.096 1051.74 100.594 1051.74 98.8608C1051.74 97.142 1052.03 95.6506 1052.62 94.3864C1053.21 93.1222 1054.03 92.1456 1055.08 91.4567C1056.14 90.7678 1057.35 90.4233 1058.73 90.4233C1059.79 90.4233 1060.63 90.6009 1061.25 90.956C1061.88 91.304 1062.35 91.7017 1062.68 92.1491C1063.01 92.5895 1063.27 92.9517 1063.46 93.2358H1063.67V85.1818H1066.19V107H1063.76V104.486H1063.46C1063.27 104.784 1063.01 105.161 1062.67 105.615C1062.33 106.062 1061.84 106.464 1061.21 106.819C1060.58 107.167 1059.74 107.341 1058.69 107.341ZM1059.03 105.082C1060.03 105.082 1060.89 104.82 1061.58 104.294C1062.28 103.761 1062.81 103.026 1063.17 102.089C1063.53 101.144 1063.71 100.054 1063.71 98.8182C1063.71 97.5966 1063.54 96.5277 1063.18 95.6115C1062.83 94.6882 1062.3 93.9709 1061.6 93.4595C1060.91 92.9411 1060.05 92.6818 1059.03 92.6818C1057.96 92.6818 1057.07 92.9553 1056.36 93.5021C1055.66 94.0419 1055.13 94.777 1054.78 95.7074C1054.43 96.6307 1054.25 97.6676 1054.25 98.8182C1054.25 99.983 1054.43 101.041 1054.79 101.993C1055.15 102.937 1055.68 103.69 1056.38 104.251C1057.09 104.805 1057.97 105.082 1059.03 105.082ZM1073.35 85.1818V87.0994C1073.35 87.6818 1073.25 88.3033 1073.04 88.9638C1072.83 89.6172 1072.52 90.2528 1072.12 90.8707C1071.72 91.4815 1071.24 92.0142 1070.67 92.4688L1069.31 91.3608C1069.75 90.7216 1070.14 90.0575 1070.47 89.3686C1070.8 88.6726 1070.97 87.9304 1070.97 87.142V85.1818H1073.35ZM1078.81 85.1818V87.0994C1078.81 87.6818 1078.7 88.3033 1078.49 88.9638C1078.28 89.6172 1077.98 90.2528 1077.57 90.8707C1077.18 91.4815 1076.69 92.0142 1076.12 92.4688L1074.76 91.3608C1075.21 90.7216 1075.6 90.0575 1075.92 89.3686C1076.26 88.6726 1076.42 87.9304 1076.42 87.142V85.1818H1078.81ZM1101.47 82.22H1103.99V96.77H1101.47V82.22ZM1086.5 98.12H1088.96V101.42H1101.53V98.12H1103.99V108.98H1086.5V98.12ZM1088.96 103.4V106.97H1101.53V103.4H1088.96ZM1089.44 83.51C1093.55 83.51 1096.49 86.06 1096.49 89.75C1096.49 93.47 1093.55 96.02 1089.44 96.02C1085.33 96.02 1082.36 93.47 1082.36 89.75C1082.36 86.06 1085.33 83.51 1089.44 83.51ZM1089.44 85.58C1086.74 85.58 1084.79 87.29 1084.79 89.75C1084.79 92.21 1086.74 93.92 1089.44 93.92C1092.14 93.92 1094.09 92.21 1094.09 89.75C1094.09 87.29 1092.14 85.58 1089.44 85.58ZM1129.07 82.22H1131.56V109.34H1129.07V82.22ZM1111.07 84.86H1113.53V101.66H1111.07V84.86ZM1111.07 100.19H1113.29C1117.4 100.19 1121.69 99.89 1126.28 98.93L1126.58 101.06C1121.87 102.02 1117.58 102.35 1113.29 102.35H1111.07V100.19ZM1155.29 82.19H1157.81V109.37H1155.29V82.19ZM1157.21 92.9H1162.25V95H1157.21V92.9ZM1138.1 100.52H1140.23C1145.24 100.52 1148.75 100.34 1152.8 99.59L1153.07 101.69C1148.9 102.47 1145.33 102.62 1140.23 102.62H1138.1V100.52ZM1138.1 84.83H1150.7V86.87H1140.56V101.45H1138.1V84.83ZM1167.19 107.17C1166.66 107.17 1166.21 106.982 1165.84 106.606C1165.46 106.229 1165.27 105.778 1165.27 105.253C1165.27 104.727 1165.46 104.276 1165.84 103.9C1166.21 103.523 1166.66 103.335 1167.19 103.335C1167.72 103.335 1168.17 103.523 1168.54 103.9C1168.92 104.276 1169.11 104.727 1169.11 105.253C1169.11 105.601 1169.02 105.92 1168.84 106.212C1168.67 106.503 1168.44 106.737 1168.15 106.915C1167.86 107.085 1167.55 107.17 1167.19 107.17ZM255.426 118.22H257.916V134.33H255.426V118.22ZM257.196 125.27H261.906V127.34H257.196V125.27ZM249.246 134.9C254.736 134.9 258.156 136.85 258.156 140.12C258.156 143.39 254.736 145.31 249.246 145.31C243.756 145.31 240.336 143.39 240.336 140.12C240.336 136.85 243.756 134.9 249.246 134.9ZM249.246 136.94C245.226 136.94 242.766 138.08 242.766 140.12C242.766 142.1 245.226 143.27 249.246 143.27C253.266 143.27 255.726 142.1 255.726 140.12C255.726 138.08 253.266 136.94 249.246 136.94ZM238.056 130.16H240.156C245.766 130.16 248.916 129.98 252.546 129.23L252.846 131.27C249.096 132.02 245.886 132.2 240.156 132.2H238.056V130.16ZM238.056 120.29H250.026V122.33H240.516V131.48H238.056V120.29ZM284.164 118.25H286.684V138.11H284.164V118.25ZM269.254 142.7H287.494V144.74H269.254V142.7ZM269.254 136.28H271.714V143.66H269.254V136.28ZM271.504 119.72H273.574V122.48C273.574 127.76 270.574 132.38 266.014 134.24L264.724 132.23C268.804 130.64 271.504 126.68 271.504 122.48V119.72ZM271.954 119.72H273.994V122.48C273.994 126.56 276.724 130.25 280.774 131.72L279.454 133.73C274.954 131.99 271.954 127.64 271.954 122.48V119.72ZM292.022 132.47H316.532V134.51H292.022V132.47ZM295.202 142.7H313.832V144.74H295.202V142.7ZM295.202 136.88H297.692V143.33H295.202V136.88ZM304.292 119.12C310.082 119.12 313.832 121.16 313.832 124.55C313.832 127.91 310.082 129.95 304.292 129.95C298.472 129.95 294.752 127.91 294.752 124.55C294.752 121.16 298.472 119.12 304.292 119.12ZM304.292 121.16C300.032 121.16 297.302 122.42 297.302 124.55C297.302 126.68 300.032 127.94 304.292 127.94C308.552 127.94 311.282 126.68 311.282 124.55C311.282 122.42 308.552 121.16 304.292 121.16ZM334.717 120.83H336.757V123.08C336.757 128.06 333.787 132.2 329.197 133.85L327.937 131.87C332.017 130.46 334.717 126.95 334.717 123.08V120.83ZM335.167 120.83H337.207V123.05C337.207 126.65 339.817 129.89 343.807 131.24L342.607 133.22C338.077 131.69 335.167 127.7 335.167 123.05V120.83ZM328.657 120.11H343.177V122.12H328.657V120.11ZM346.627 118.22H349.117V134.18H346.627V118.22ZM348.427 124.97H353.137V127.04H348.427V124.97ZM332.077 135.41H349.117V144.98H332.077V135.41ZM346.687 137.39H334.507V142.97H346.687V137.39ZM362.825 120.56H364.865V125.42C364.865 131.66 361.505 137.45 357.065 139.7L355.535 137.66C359.555 135.74 362.825 130.55 362.825 125.42V120.56ZM363.245 120.56H365.285V125.42C365.285 130.37 368.525 135.35 372.545 137.21L371.045 139.19C366.635 137.03 363.245 131.45 363.245 125.42V120.56ZM375.365 118.19H377.855V145.37H375.365V118.19ZM398.86 120.56H400.9V125.42C400.9 131.66 397.54 137.45 393.1 139.7L391.57 137.66C395.59 135.74 398.86 130.55 398.86 125.42V120.56ZM399.28 120.56H401.32V125.42C401.32 130.37 404.56 135.35 408.58 137.21L407.08 139.19C402.67 137.03 399.28 131.45 399.28 125.42V120.56ZM411.4 118.19H413.89V145.37H411.4V118.19ZM437.857 118.22H440.347V134.12H437.857V118.22ZM439.657 125.06H444.367V127.16H439.657V125.06ZM430.357 119.96H432.967C432.967 126.8 428.197 131.69 420.277 133.85L419.257 131.9C426.277 129.98 430.357 126.05 430.357 121.04V119.96ZM420.457 119.96H431.737V121.97H420.457V119.96ZM422.737 135.38H440.347V145.34H437.857V137.39H422.737V135.38ZM453.575 121.13H455.615V123.32C455.615 128.3 452.615 132.47 448.055 134.12L446.795 132.14C450.875 130.7 453.575 127.19 453.575 123.32V121.13ZM454.025 121.13H456.065V123.29C456.065 126.83 458.645 130.01 462.635 131.33L461.435 133.28C456.905 131.78 454.025 127.91 454.025 123.29V121.13ZM447.545 120.23H462.035V122.27H447.545V120.23ZM465.455 118.22H467.945V134.57H465.455V118.22ZM467.255 125.09H471.965V127.19H467.255V125.09ZM459.305 135.29C464.825 135.29 468.215 137.12 468.215 140.27C468.215 143.45 464.825 145.28 459.305 145.28C453.785 145.28 450.395 143.45 450.395 140.27C450.395 137.12 453.785 135.29 459.305 135.29ZM459.305 137.3C455.285 137.3 452.825 138.38 452.825 140.27C452.825 142.19 455.285 143.33 459.305 143.33C463.325 143.33 465.785 142.19 465.785 140.27C465.785 138.38 463.325 137.3 459.305 137.3ZM480.603 120.47C484.113 120.47 486.393 124.1 486.393 129.92C486.393 135.74 484.113 139.37 480.603 139.37C477.093 139.37 474.843 135.74 474.843 129.92C474.843 124.1 477.093 120.47 480.603 120.47ZM480.603 122.78C478.473 122.78 477.123 125.54 477.123 129.92C477.123 134.3 478.473 137.06 480.603 137.06C482.733 137.06 484.083 134.3 484.083 129.92C484.083 125.54 482.733 122.78 480.603 122.78ZM495.153 118.22H497.553V145.34H495.153V118.22ZM490.863 128.96H496.053V131H490.863V128.96ZM489.153 118.79H491.523V143.99H489.153V118.79ZM521.82 118.25H524.34V138.05H521.82V118.25ZM506.91 142.7H525.15V144.74H506.91V142.7ZM506.91 136.01H509.37V143.39H506.91V136.01ZM509.79 120.11C513.84 120.11 516.84 122.87 516.84 126.8C516.84 130.7 513.84 133.49 509.79 133.49C505.74 133.49 502.71 130.7 502.71 126.8C502.71 122.87 505.74 120.11 509.79 120.11ZM509.79 122.27C507.15 122.27 505.14 124.13 505.14 126.8C505.14 129.44 507.15 131.3 509.79 131.3C512.43 131.3 514.44 129.44 514.44 126.8C514.44 124.13 512.43 122.27 509.79 122.27ZM538.498 120.17C542.728 120.17 545.758 122.78 545.758 126.56C545.758 130.37 542.728 132.98 538.498 132.98C534.268 132.98 531.208 130.37 531.208 126.56C531.208 122.78 534.268 120.17 538.498 120.17ZM538.498 122.33C535.678 122.33 533.638 124.04 533.638 126.56C533.638 129.08 535.678 130.82 538.498 130.82C541.288 130.82 543.328 129.08 543.328 126.56C543.328 124.04 541.288 122.33 538.498 122.33ZM549.298 118.19H551.788V145.37H549.298V118.19ZM530.188 139.43L529.828 137.36C534.778 137.36 541.618 137.33 547.528 136.4L547.738 138.23C541.648 139.4 535.018 139.43 530.188 139.43ZM585.453 118.22H587.973V132.77H585.453V118.22ZM570.483 134.12H572.943V137.42H585.513V134.12H587.973V144.98H570.483V134.12ZM572.943 139.4V142.97H585.513V139.4H572.943ZM573.423 119.51C577.533 119.51 580.473 122.06 580.473 125.75C580.473 129.47 577.533 132.02 573.423 132.02C569.313 132.02 566.343 129.47 566.343 125.75C566.343 122.06 569.313 119.51 573.423 119.51ZM573.423 121.58C570.723 121.58 568.773 123.29 568.773 125.75C568.773 128.21 570.723 129.92 573.423 129.92C576.123 129.92 578.073 128.21 578.073 125.75C578.073 123.29 576.123 121.58 573.423 121.58ZM600.001 121.13H602.041V123.32C602.041 128.3 599.041 132.47 594.481 134.12L593.221 132.14C597.301 130.7 600.001 127.19 600.001 123.32V121.13ZM600.451 121.13H602.491V123.29C602.491 126.83 605.071 130.01 609.061 131.33L607.861 133.28C603.331 131.78 600.451 127.91 600.451 123.29V121.13ZM593.971 120.23H608.461V122.27H593.971V120.23ZM611.881 118.22H614.371V134.57H611.881V118.22ZM613.681 125.09H618.391V127.19H613.681V125.09ZM605.731 135.29C611.251 135.29 614.641 137.12 614.641 140.27C614.641 143.45 611.251 145.28 605.731 145.28C600.211 145.28 596.821 143.45 596.821 140.27C596.821 137.12 600.211 135.29 605.731 135.29ZM605.731 137.3C601.711 137.3 599.251 138.38 599.251 140.27C599.251 142.19 601.711 143.33 605.731 143.33C609.751 143.33 612.211 142.19 612.211 140.27C612.211 138.38 609.751 137.3 605.731 137.3ZM631.918 128.75H637.048V130.82H631.918V128.75ZM641.578 118.22H643.978V145.34H641.578V118.22ZM636.208 118.79H638.578V143.99H636.208V118.79ZM627.028 120.47C630.538 120.47 632.818 124.1 632.818 129.92C632.818 135.74 630.538 139.37 627.028 139.37C623.518 139.37 621.268 135.74 621.268 129.92C621.268 124.1 623.518 120.47 627.028 120.47ZM627.028 122.78C624.898 122.78 623.548 125.54 623.548 129.92C623.548 134.3 624.898 137.06 627.028 137.06C629.188 137.06 630.538 134.3 630.538 129.92C630.538 125.54 629.188 122.78 627.028 122.78ZM662.066 127.4H669.626V129.44H662.066V127.4ZM655.526 120.56H657.566V125.39C657.566 131.48 654.356 137.3 650.066 139.61L648.476 137.63C652.466 135.65 655.526 130.43 655.526 125.39V120.56ZM656.006 120.56H658.016V125.39C658.016 130.34 661.076 135.26 665.006 137.12L663.536 139.13C659.156 136.91 656.006 131.33 656.006 125.39V120.56ZM668.396 118.19H670.856V145.37H668.396V118.19ZM691.231 121.01H693.271V123.2C693.271 128.18 690.271 132.32 685.741 133.94L684.421 131.99C688.531 130.55 691.231 127.07 691.231 123.2V121.01ZM691.681 121.01H693.721V123.17C693.721 126.77 696.331 130.1 700.321 131.45L699.031 133.4C694.561 131.84 691.681 127.85 691.681 123.17V121.01ZM685.201 120.11H699.691V122.15H685.201V120.11ZM703.111 118.22H705.601V134.54H703.111V118.22ZM704.911 125.36H709.621V127.43H704.911V125.36ZM687.991 135.98H705.601V145.34H703.111V138.05H687.991V135.98ZM723.179 132.62H725.639V137.3H723.179V132.62ZM712.139 131.3H736.649V133.34H712.139V131.3ZM714.419 119.06H734.339V121.1H714.419V119.06ZM714.539 126.77H734.219V128.81H714.539V126.77ZM718.529 119.96H721.019V128.09H718.529V119.96ZM727.769 119.96H730.229V128.09H727.769V119.96ZM715.139 136.49H733.649V144.98H715.139V136.49ZM731.219 138.47H717.599V142.97H731.219V138.47ZM752.007 118.67C757.977 118.67 761.547 120.35 761.547 123.38C761.547 126.41 757.977 128.09 752.007 128.09C746.007 128.09 742.467 126.41 742.467 123.38C742.467 120.35 746.007 118.67 752.007 118.67ZM752.007 120.56C747.567 120.56 745.017 121.58 745.017 123.38C745.017 125.18 747.567 126.2 752.007 126.2C756.417 126.2 758.967 125.18 758.967 123.38C758.967 121.58 756.417 120.56 752.007 120.56ZM739.737 129.89H764.247V131.9H739.737V129.89ZM742.707 134.21H761.127V140.33H745.227V143.63H742.767V138.53H758.667V136.13H742.707V134.21ZM742.767 143.09H761.937V145.04H742.767V143.09ZM794.342 118.22H796.832V133.58H794.342V118.22ZM796.142 124.82H800.852V126.89H796.142V124.82ZM786.842 119.96H789.482C789.482 126.8 784.712 131.72 776.732 133.88L775.772 131.9C782.792 129.98 786.842 126.05 786.842 121.07V119.96ZM776.942 119.96H788.222V121.97H776.942V119.96ZM779.762 134.87H796.832V144.98H779.762V134.87ZM794.372 136.88H782.222V142.94H794.372V136.88ZM809.969 119.63H812.039V122.39C812.039 127.61 809.099 131.93 804.569 133.7L803.249 131.69C807.329 130.19 809.969 126.53 809.969 122.39V119.63ZM810.419 119.63H812.459V122.57C812.459 126.23 815.159 129.62 819.059 130.97L817.739 132.92C813.389 131.3 810.419 127.28 810.419 122.57V119.63ZM821.939 118.22H824.429V134.66H821.939V118.22ZM823.739 125.21H828.449V127.31H823.739V125.21ZM815.789 135.41C821.339 135.41 824.699 137.24 824.699 140.36C824.699 143.48 821.339 145.28 815.789 145.28C810.239 145.28 806.879 143.48 806.879 140.36C806.879 137.24 810.239 135.41 815.789 135.41ZM815.789 137.39C811.769 137.39 809.309 138.47 809.309 140.36C809.309 142.25 811.769 143.33 815.789 143.33C819.809 143.33 822.269 142.25 822.269 140.36C822.269 138.47 819.809 137.39 815.789 137.39ZM830.937 122.84H844.377V124.88H830.937V122.84ZM837.657 126.68C841.047 126.68 843.507 129.23 843.507 132.89C843.507 136.52 841.047 139.07 837.657 139.07C834.297 139.07 831.837 136.52 831.837 132.89C831.837 129.23 834.297 126.68 837.657 126.68ZM837.657 128.81C835.587 128.81 834.087 130.49 834.087 132.89C834.087 135.29 835.587 136.97 837.657 136.97C839.757 136.97 841.287 135.29 841.287 132.89C841.287 130.49 839.757 128.81 837.657 128.81ZM851.547 118.22H853.947V145.34H851.547V118.22ZM847.227 129.62H852.357V131.69H847.227V129.62ZM845.757 118.82H848.097V144.02H845.757V118.82ZM836.457 119H838.917V124.1H836.457V119ZM858.595 139.82H883.165V141.89H858.595V139.82ZM869.575 133.34H872.065V140.42H869.575V133.34ZM861.475 120.14H863.935V124.97H877.765V120.14H880.225V134H861.475V120.14ZM863.935 126.98V131.96H877.765V126.98H863.935ZM893.752 119.81C897.832 119.81 900.832 122.42 900.832 126.2C900.832 129.98 897.832 132.59 893.752 132.59C889.672 132.59 886.672 129.98 886.672 126.2C886.672 122.42 889.672 119.81 893.752 119.81ZM893.752 121.91C891.052 121.91 889.102 123.65 889.102 126.2C889.102 128.75 891.052 130.49 893.752 130.49C896.452 130.49 898.402 128.75 898.402 126.2C898.402 123.65 896.452 121.91 893.752 121.91ZM904.732 118.22H907.222V133.67H904.732V118.22ZM906.532 124.7H911.242V126.77H906.532V124.7ZM892.672 134.87H894.592V136.34C894.592 139.91 892.402 143.51 888.502 145.01L887.242 143.15C890.662 141.89 892.672 138.95 892.672 136.34V134.87ZM893.212 134.87H895.072V136.34C895.072 139.1 896.662 142.04 899.962 143.36L898.882 145.25C894.952 143.72 893.212 139.97 893.212 136.34V134.87ZM902.692 134.87H904.552V136.34C904.552 139.55 902.782 143.6 898.882 145.25L897.802 143.36C901.072 141.89 902.692 138.71 902.692 136.34V134.87ZM903.172 134.87H905.122V136.34C905.122 139.16 907.102 141.98 910.522 143.15L909.292 145.01C905.332 143.57 903.172 140.12 903.172 136.34V134.87ZM916.88 134.48H919.34V137.63H932.6V134.48H935.09V144.98H916.88V134.48ZM919.34 139.55V142.97H932.6V139.55H919.34ZM913.76 130.58H938.27V132.59H913.76V130.58ZM924.77 118.52H926.9V119.72C926.9 124.43 921.65 127.82 916.07 128.66L915.17 126.71C920.06 126.05 924.77 123.14 924.77 119.72V118.52ZM925.16 118.52H927.29V119.72C927.29 123.08 932.06 126.05 936.89 126.71L935.96 128.66C930.44 127.82 925.16 124.37 925.16 119.72V118.52ZM961.098 118.22H963.588V145.34H961.098V118.22ZM943.098 120.86H945.558V137.66H943.098V120.86ZM943.098 136.19H945.318C949.428 136.19 953.718 135.89 958.308 134.93L958.608 137.06C953.898 138.02 949.608 138.35 945.318 138.35H943.098V136.19ZM987.315 118.19H989.835V145.37H987.315V118.19ZM989.235 128.9H994.275V131H989.235V128.9ZM970.125 136.52H972.255C977.265 136.52 980.775 136.34 984.825 135.59L985.095 137.69C980.925 138.47 977.355 138.62 972.255 138.62H970.125V136.52ZM970.125 120.83H982.725V122.87H972.585V137.45H970.125V120.83ZM999.217 143.17C998.691 143.17 998.24 142.982 997.864 142.606C997.487 142.229 997.299 141.778 997.299 141.253C997.299 140.727 997.487 140.276 997.864 139.9C998.24 139.523 998.691 139.335 999.217 139.335C999.742 139.335 1000.19 139.523 1000.57 139.9C1000.95 140.276 1001.13 140.727 1001.13 141.253C1001.13 141.601 1001.05 141.92 1000.87 142.212C1000.7 142.503 1000.47 142.737 1000.18 142.915C999.891 143.085 999.572 143.17 999.217 143.17ZM1031.82 118.22H1034.31V133.58H1031.82V118.22ZM1033.62 124.82H1038.33V126.89H1033.62V124.82ZM1024.32 119.96H1026.96C1026.96 126.8 1022.19 131.72 1014.21 133.88L1013.25 131.9C1020.27 129.98 1024.32 126.05 1024.32 121.07V119.96ZM1014.42 119.96H1025.7V121.97H1014.42V119.96ZM1017.24 134.87H1034.31V144.98H1017.24V134.87ZM1031.85 136.88H1019.7V142.94H1031.85V136.88ZM1047.45 119.63H1049.52V122.39C1049.52 127.61 1046.58 131.93 1042.05 133.7L1040.73 131.69C1044.81 130.19 1047.45 126.53 1047.45 122.39V119.63ZM1047.9 119.63H1049.94V122.57C1049.94 126.23 1052.64 129.62 1056.54 130.97L1055.22 132.92C1050.87 131.3 1047.9 127.28 1047.9 122.57V119.63ZM1059.42 118.22H1061.91V134.66H1059.42V118.22ZM1061.22 125.21H1065.93V127.31H1061.22V125.21ZM1053.27 135.41C1058.82 135.41 1062.18 137.24 1062.18 140.36C1062.18 143.48 1058.82 145.28 1053.27 145.28C1047.72 145.28 1044.36 143.48 1044.36 140.36C1044.36 137.24 1047.72 135.41 1053.27 135.41ZM1053.27 137.39C1049.25 137.39 1046.79 138.47 1046.79 140.36C1046.79 142.25 1049.25 143.33 1053.27 143.33C1057.29 143.33 1059.75 142.25 1059.75 140.36C1059.75 138.47 1057.29 137.39 1053.27 137.39ZM1068.45 132.47H1092.96V134.51H1068.45V132.47ZM1071.63 142.7H1090.26V144.74H1071.63V142.7ZM1071.63 136.88H1074.12V143.33H1071.63V136.88ZM1080.72 119.12C1086.51 119.12 1090.26 121.16 1090.26 124.55C1090.26 127.91 1086.51 129.95 1080.72 129.95C1074.9 129.95 1071.18 127.91 1071.18 124.55C1071.18 121.16 1074.9 119.12 1080.72 119.12ZM1080.72 121.16C1076.46 121.16 1073.73 122.42 1073.73 124.55C1073.73 126.68 1076.46 127.94 1080.72 127.94C1084.98 127.94 1087.71 126.68 1087.71 124.55C1087.71 122.42 1084.98 121.16 1080.72 121.16ZM1111.74 120.29C1115.67 120.29 1118.49 123.98 1118.49 129.74C1118.49 135.53 1115.67 139.22 1111.74 139.22C1107.78 139.22 1104.99 135.53 1104.99 129.74C1104.99 123.98 1107.78 120.29 1111.74 120.29ZM1111.74 122.54C1109.13 122.54 1107.36 125.36 1107.36 129.74C1107.36 134.15 1109.13 137.03 1111.74 137.03C1114.35 137.03 1116.12 134.15 1116.12 129.74C1116.12 125.36 1114.35 122.54 1111.74 122.54ZM1124.37 118.19H1126.83V145.37H1124.37V118.19ZM1117.68 128.54H1125.45V130.58H1117.68V128.54ZM1132.92 136.31H1134.09C1135.71 136.31 1137.6 136.28 1139.73 135.74L1140.03 137.81C1137.72 138.35 1135.86 138.38 1134.09 138.38H1132.92V136.31ZM1132.92 120.95H1139.61V122.99H1135.38V137.27H1132.92V120.95ZM1141.08 136.31H1142.46C1145.16 136.31 1147.17 136.22 1149.51 135.65L1149.75 137.72C1147.29 138.32 1145.28 138.38 1142.46 138.38H1141.08V136.31ZM1141.08 120.95H1148.43V122.99H1143.54V137.3H1141.08V120.95ZM1152.21 118.22H1154.7V145.34H1152.21V118.22ZM1147.08 128.12H1153.11V130.19H1147.08V128.12ZM1174.17 121.46H1180.29V123.5H1174.17V121.46ZM1174.17 126.8H1180.29V128.81H1174.17V126.8ZM1179.51 118.22H1182V134.12H1179.51V118.22ZM1166.46 119.18H1168.5V122C1168.5 127.34 1165.62 131.75 1161.09 133.55L1159.74 131.6C1163.85 130.04 1166.46 126.26 1166.46 122V119.18ZM1166.88 119.18H1168.89V122C1168.89 125.93 1171.53 129.62 1175.46 131.15L1174.08 133.13C1169.76 131.33 1166.88 127.01 1166.88 122V119.18ZM1166.61 135.11H1168.56V136.31C1168.56 139.88 1166.34 143.51 1162.44 145.01L1161.18 143.15C1164.6 141.89 1166.61 138.95 1166.61 136.31V135.11ZM1167.18 135.11H1169.04V136.31C1169.04 139.07 1170.63 142.04 1173.9 143.36L1172.85 145.25C1168.92 143.72 1167.18 139.94 1167.18 136.31V135.11ZM1176.66 135.11H1178.49V136.31C1178.49 139.52 1176.72 143.6 1172.85 145.25L1171.77 143.36C1175.01 141.86 1176.66 138.68 1176.66 136.31V135.11ZM1177.14 135.11H1179.09V136.31C1179.09 139.16 1181.07 141.98 1184.55 143.15L1183.26 145.01C1179.33 143.57 1177.14 140.09 1177.14 136.31V135.11ZM1207.47 129.02H1212.48V131.12H1207.47V129.02ZM1205.64 118.19H1208.16V145.34H1205.64V118.19ZM1188.36 120.86H1190.85V137.66H1188.36V120.86ZM1188.36 136.37H1190.52C1194.54 136.37 1198.65 136.1 1203.12 135.17L1203.42 137.24C1198.8 138.2 1194.63 138.47 1190.52 138.47H1188.36V136.37ZM1220.9 132.17H1223.36V140.3H1220.9V132.17ZM1230.92 132.17H1233.41V140.3H1230.92V132.17ZM1214.9 139.82H1239.47V141.89H1214.9V139.82ZM1227.14 119.93C1232.87 119.93 1236.98 122.66 1236.98 126.92C1236.98 131.15 1232.87 133.88 1227.14 133.88C1221.38 133.88 1217.27 131.15 1217.27 126.92C1217.27 122.66 1221.38 119.93 1227.14 119.93ZM1227.14 121.91C1222.79 121.91 1219.67 123.89 1219.67 126.92C1219.67 129.92 1222.79 131.9 1227.14 131.9C1231.49 131.9 1234.58 129.92 1234.58 126.92C1234.58 123.89 1231.49 121.91 1227.14 121.91ZM1246.58 136.864V136.736C1246.6 135.379 1246.74 134.3 1247.01 133.497C1247.28 132.695 1247.66 132.045 1248.16 131.548C1248.66 131.05 1249.25 130.592 1249.95 130.173C1250.37 129.918 1250.75 129.616 1251.08 129.268C1251.41 128.913 1251.68 128.504 1251.87 128.043C1252.07 127.581 1252.17 127.07 1252.17 126.509C1252.17 125.812 1252 125.209 1251.68 124.697C1251.35 124.186 1250.91 123.792 1250.37 123.515C1249.82 123.238 1249.21 123.099 1248.54 123.099C1247.96 123.099 1247.4 123.22 1246.86 123.462C1246.32 123.703 1245.87 124.083 1245.51 124.602C1245.15 125.12 1244.94 125.798 1244.88 126.636H1242.19C1242.25 125.429 1242.56 124.396 1243.13 123.536C1243.71 122.677 1244.46 122.02 1245.4 121.565C1246.35 121.111 1247.39 120.884 1248.54 120.884C1249.79 120.884 1250.88 121.132 1251.8 121.629C1252.73 122.126 1253.45 122.808 1253.96 123.675C1254.47 124.541 1254.72 125.528 1254.72 126.636C1254.72 127.418 1254.6 128.124 1254.36 128.756C1254.13 129.388 1253.79 129.953 1253.34 130.45C1252.9 130.947 1252.36 131.388 1251.74 131.771C1251.11 132.162 1250.61 132.574 1250.24 133.007C1249.86 133.433 1249.59 133.941 1249.42 134.531C1249.25 135.12 1249.15 135.855 1249.14 136.736V136.864H1246.58ZM1247.95 143.17C1247.42 143.17 1246.97 142.982 1246.59 142.606C1246.22 142.229 1246.03 141.778 1246.03 141.253C1246.03 140.727 1246.22 140.276 1246.59 139.9C1246.97 139.523 1247.42 139.335 1247.95 139.335C1248.47 139.335 1248.92 139.523 1249.3 139.9C1249.68 140.276 1249.86 140.727 1249.86 141.253C1249.86 141.601 1249.78 141.92 1249.6 142.212C1249.43 142.503 1249.2 142.737 1248.91 142.915C1248.62 143.085 1248.3 143.17 1247.95 143.17ZM116.362 157.1H133.822V159.11H116.362V157.1ZM113.722 175.31H138.232V177.38H113.722V175.31ZM132.502 157.1H134.932V159.8C134.932 163.28 134.932 167.15 133.912 173L131.422 172.76C132.502 167.21 132.502 163.16 132.502 159.8V157.1ZM141.319 165.53H165.829V167.57H141.319V165.53ZM144.559 161.33H162.919V163.34H144.559V161.33ZM144.559 155.09H162.619V157.13H147.019V162.95H144.559V155.09ZM144.259 169.91H162.679V176.3H146.779V179.72H144.319V174.44H160.219V171.86H144.259V169.91ZM144.319 179.06H163.489V181.04H144.319V179.06ZM179.897 164.75H185.027V166.82H179.897V164.75ZM189.557 154.22H191.957V181.34H189.557V154.22ZM184.187 154.79H186.557V179.99H184.187V154.79ZM175.007 156.47C178.517 156.47 180.797 160.1 180.797 165.92C180.797 171.74 178.517 175.37 175.007 175.37C171.497 175.37 169.247 171.74 169.247 165.92C169.247 160.1 171.497 156.47 175.007 156.47ZM175.007 158.78C172.877 158.78 171.527 161.54 171.527 165.92C171.527 170.3 172.877 173.06 175.007 173.06C177.167 173.06 178.517 170.3 178.517 165.92C178.517 161.54 177.167 158.78 175.007 158.78ZM217.155 154.22H219.555V181.34H217.155V154.22ZM205.395 165.29H212.235V167.3H205.395V165.29ZM211.515 154.91H213.855V179.96H211.515V154.91ZM205.725 157.64H208.125C208.125 164.75 205.275 171.14 197.955 175.49L196.485 173.72C202.875 169.88 205.725 164.48 205.725 158.09V157.64ZM197.685 157.64H206.655V159.68H197.685V157.64ZM239.21 157.01H241.25V159.2C241.25 164.18 238.25 168.32 233.72 169.94L232.4 167.99C236.51 166.55 239.21 163.07 239.21 159.2V157.01ZM239.66 157.01H241.7V159.17C241.7 162.77 244.31 166.1 248.3 167.45L247.01 169.4C242.54 167.84 239.66 163.85 239.66 159.17V157.01ZM233.18 156.11H247.67V158.15H233.18V156.11ZM251.09 154.22H253.58V170.54H251.09V154.22ZM252.89 161.36H257.6V163.43H252.89V161.36ZM235.97 171.98H253.58V181.34H251.09V174.05H235.97V171.98ZM271.157 168.62H273.617V173.3H271.157V168.62ZM260.117 167.3H284.627V169.34H260.117V167.3ZM262.397 155.06H282.317V157.1H262.397V155.06ZM262.517 162.77H282.197V164.81H262.517V162.77ZM266.507 155.96H268.997V164.09H266.507V155.96ZM275.747 155.96H278.207V164.09H275.747V155.96ZM263.117 172.49H281.627V180.98H263.117V172.49ZM279.197 174.47H265.577V178.97H279.197V174.47ZM299.985 154.67C305.955 154.67 309.525 156.35 309.525 159.38C309.525 162.41 305.955 164.09 299.985 164.09C293.985 164.09 290.445 162.41 290.445 159.38C290.445 156.35 293.985 154.67 299.985 154.67ZM299.985 156.56C295.545 156.56 292.995 157.58 292.995 159.38C292.995 161.18 295.545 162.2 299.985 162.2C304.395 162.2 306.945 161.18 306.945 159.38C306.945 157.58 304.395 156.56 299.985 156.56ZM287.715 165.89H312.225V167.9H287.715V165.89ZM290.685 170.21H309.105V176.33H293.205V179.63H290.745V174.53H306.645V172.13H290.685V170.21ZM290.745 179.09H309.915V181.04H290.745V179.09ZM342.32 154.22H344.81V169.58H342.32V154.22ZM344.12 160.82H348.83V162.89H344.12V160.82ZM334.82 155.96H337.46C337.46 162.8 332.69 167.72 324.71 169.88L323.75 167.9C330.77 165.98 334.82 162.05 334.82 157.07V155.96ZM324.92 155.96H336.2V157.97H324.92V155.96ZM327.74 170.87H344.81V180.98H327.74V170.87ZM342.35 172.88H330.2V178.94H342.35V172.88ZM357.948 155.63H360.018V158.39C360.018 163.61 357.078 167.93 352.548 169.7L351.228 167.69C355.308 166.19 357.948 162.53 357.948 158.39V155.63ZM358.398 155.63H360.438V158.57C360.438 162.23 363.138 165.62 367.038 166.97L365.718 168.92C361.368 167.3 358.398 163.28 358.398 158.57V155.63ZM369.918 154.22H372.408V170.66H369.918V154.22ZM371.718 161.21H376.428V163.31H371.718V161.21ZM363.768 171.41C369.318 171.41 372.678 173.24 372.678 176.36C372.678 179.48 369.318 181.28 363.768 181.28C358.218 181.28 354.858 179.48 354.858 176.36C354.858 173.24 358.218 171.41 363.768 171.41ZM363.768 173.39C359.748 173.39 357.288 174.47 357.288 176.36C357.288 178.25 359.748 179.33 363.768 179.33C367.788 179.33 370.248 178.25 370.248 176.36C370.248 174.47 367.788 173.39 363.768 173.39ZM397.336 154.22H399.826V181.34H397.336V154.22ZM399.226 165.35H404.266V167.45H399.226V165.35ZM378.826 158.54H394.816V160.58H378.826V158.54ZM386.926 162.83C390.766 162.83 393.526 165.41 393.526 169.07C393.526 172.73 390.766 175.31 386.926 175.31C383.116 175.31 380.326 172.73 380.326 169.07C380.326 165.41 383.116 162.83 386.926 162.83ZM386.926 164.9C384.466 164.9 382.696 166.61 382.696 169.07C382.696 171.5 384.466 173.24 386.926 173.24C389.386 173.24 391.156 171.5 391.156 169.07C391.156 166.61 389.386 164.9 386.926 164.9ZM385.636 154.55H388.126V159.47H385.636V154.55ZM409.873 162.35H428.293V164.39H409.873V162.35ZM406.543 168.02H431.143V170.06H406.543V168.02ZM409.873 155.21H412.333V163.37H409.873V155.21ZM409.693 178.64H428.443V180.68H409.693V178.64ZM409.693 172.76H412.153V179.18H409.693V172.76ZM462.408 154.22H464.898V172.58H462.408V154.22ZM456.588 161.87H462.918V163.91H456.588V161.87ZM453.888 156.35H456.498C456.498 163.37 451.878 168.35 444.108 170.87L443.058 168.89C449.928 166.73 453.888 162.65 453.888 157.34V156.35ZM444.348 156.35H455.658V158.39H444.348V156.35ZM454.908 170.24H457.038V171.47C457.038 176.66 452.298 180.17 446.868 181.28L445.878 179.3C450.678 178.43 454.908 175.43 454.908 171.47V170.24ZM455.268 170.24H457.398V171.47C457.398 175.37 461.568 178.37 466.398 179.24L465.348 181.22C459.948 180.14 455.268 176.63 455.268 171.47V170.24ZM470.176 168.47H494.686V170.51H470.176V168.47ZM473.356 178.7H491.986V180.74H473.356V178.7ZM473.356 172.88H475.846V179.33H473.356V172.88ZM482.446 155.12C488.236 155.12 491.986 157.16 491.986 160.55C491.986 163.91 488.236 165.95 482.446 165.95C476.626 165.95 472.906 163.91 472.906 160.55C472.906 157.16 476.626 155.12 482.446 155.12ZM482.446 157.16C478.186 157.16 475.456 158.42 475.456 160.55C475.456 162.68 478.186 163.94 482.446 163.94C486.706 163.94 489.436 162.68 489.436 160.55C489.436 158.42 486.706 157.16 482.446 157.16ZM513.381 156.56H515.421V161.42C515.421 167.66 512.061 173.45 507.621 175.7L506.091 173.66C510.111 171.74 513.381 166.55 513.381 161.42V156.56ZM513.801 156.56H515.841V161.42C515.841 166.37 519.081 171.35 523.101 173.21L521.601 175.19C517.191 173.03 513.801 167.45 513.801 161.42V156.56ZM525.921 154.19H528.411V181.37H525.921V154.19ZM552.379 154.22H554.869V170.12H552.379V154.22ZM554.179 161.06H558.889V163.16H554.179V161.06ZM544.879 155.96H547.489C547.489 162.8 542.719 167.69 534.799 169.85L533.779 167.9C540.799 165.98 544.879 162.05 544.879 157.04V155.96ZM534.979 155.96H546.259V157.97H534.979V155.96ZM537.259 171.38H554.869V181.34H552.379V173.39H537.259V171.38ZM568.337 156.98H570.377V159.17C570.377 164.12 567.317 168.35 562.787 170.03L561.497 168.05C565.547 166.61 568.337 163.01 568.337 159.17V156.98ZM568.817 156.98H570.827V159.17C570.827 162.65 573.467 166.04 577.397 167.42L576.137 169.4C571.727 167.78 568.817 163.7 568.817 159.17V156.98ZM575.927 161.27H581.957V163.34H575.927V161.27ZM562.277 156.08H576.767V158.09H562.277V156.08ZM565.637 171.92H583.727V181.34H581.237V173.96H565.637V171.92ZM581.237 154.22H583.727V170.45H581.237V154.22ZM608.744 154.25H611.264V174.05H608.744V154.25ZM593.834 178.7H612.074V180.74H593.834V178.7ZM593.834 172.01H596.294V179.39H593.834V172.01ZM596.714 156.11C600.764 156.11 603.764 158.87 603.764 162.8C603.764 166.7 600.764 169.49 596.714 169.49C592.664 169.49 589.634 166.7 589.634 162.8C589.634 158.87 592.664 156.11 596.714 156.11ZM596.714 158.27C594.074 158.27 592.064 160.13 592.064 162.8C592.064 165.44 594.074 167.3 596.714 167.3C599.354 167.3 601.364 165.44 601.364 162.8C601.364 160.13 599.354 158.27 596.714 158.27ZM644.869 154.22H647.359V172.58H644.869V154.22ZM639.049 161.87H645.379V163.91H639.049V161.87ZM636.349 156.35H638.959C638.959 163.37 634.339 168.35 626.569 170.87L625.519 168.89C632.389 166.73 636.349 162.65 636.349 157.34V156.35ZM626.809 156.35H638.119V158.39H626.809V156.35ZM637.369 170.24H639.499V171.47C639.499 176.66 634.759 180.17 629.329 181.28L628.339 179.3C633.139 178.43 637.369 175.43 637.369 171.47V170.24ZM637.729 170.24H639.859V171.47C639.859 175.37 644.029 178.37 648.859 179.24L647.809 181.22C642.409 180.14 637.729 176.63 637.729 171.47V170.24ZM664.907 154.67C670.877 154.67 674.447 156.35 674.447 159.38C674.447 162.41 670.877 164.09 664.907 164.09C658.907 164.09 655.367 162.41 655.367 159.38C655.367 156.35 658.907 154.67 664.907 154.67ZM664.907 156.56C660.467 156.56 657.917 157.58 657.917 159.38C657.917 161.18 660.467 162.2 664.907 162.2C669.317 162.2 671.867 161.18 671.867 159.38C671.867 157.58 669.317 156.56 664.907 156.56ZM652.637 165.89H677.147V167.9H652.637V165.89ZM655.607 170.21H674.027V176.33H658.127V179.63H655.667V174.53H671.567V172.13H655.607V170.21ZM655.667 179.09H674.837V181.04H655.667V179.09ZM696.622 170.03H699.142V180.5H696.622V170.03ZM708.712 154.22H711.202V181.37H708.712V154.22ZM688.852 171.29L688.492 169.22C694.012 169.22 700.852 169.19 707.062 168.47L707.212 170.33C700.852 171.29 694.192 171.32 688.852 171.29ZM698.632 163.91H705.982V165.92H698.632V163.91ZM698.632 156.2H705.772V158.24H701.092V164.81H698.632V156.2ZM690.232 156.2H697.222V158.24H692.692V164.93H690.232V156.2ZM690.232 163.91H691.462C693.292 163.91 695.212 163.88 697.492 163.34L697.732 165.35C695.302 165.89 693.382 165.92 691.462 165.92H690.232V163.91ZM723.53 156.29C727.46 156.29 730.28 159.98 730.28 165.74C730.28 171.53 727.46 175.22 723.53 175.22C719.57 175.22 716.78 171.53 716.78 165.74C716.78 159.98 719.57 156.29 723.53 156.29ZM723.53 158.54C720.92 158.54 719.15 161.36 719.15 165.74C719.15 170.15 720.92 173.03 723.53 173.03C726.14 173.03 727.91 170.15 727.91 165.74C727.91 161.36 726.14 158.54 723.53 158.54ZM736.16 154.19H738.62V181.37H736.16V154.19ZM729.47 164.54H737.24V166.58H729.47V164.54ZM748.727 171.17H766.187V180.98H748.727V171.17ZM763.757 173.15H751.157V178.97H763.757V173.15ZM745.457 155.84H747.947V167.09H745.457V155.84ZM745.457 166.01H747.527C751.877 166.01 755.537 165.77 759.557 164.93L759.857 167.03C755.717 167.87 751.967 168.14 747.527 168.14H745.457V166.01ZM763.697 154.22H766.187V169.82H763.697V154.22ZM756.047 159.29H764.327V161.33H756.047V159.29ZM778.725 156.29C782.655 156.29 785.475 159.98 785.475 165.74C785.475 171.53 782.655 175.22 778.725 175.22C774.765 175.22 771.975 171.53 771.975 165.74C771.975 159.98 774.765 156.29 778.725 156.29ZM778.725 158.54C776.115 158.54 774.345 161.36 774.345 165.74C774.345 170.15 776.115 173.03 778.725 173.03C781.335 173.03 783.105 170.15 783.105 165.74C783.105 161.36 781.335 158.54 778.725 158.54ZM791.355 154.19H793.815V181.37H791.355V154.19ZM784.665 164.54H792.435V166.58H784.665V164.54ZM825.86 154.19H828.38V181.37H825.86V154.19ZM827.78 164.9H832.82V167H827.78V164.9ZM808.67 172.52H810.8C815.81 172.52 819.32 172.34 823.37 171.59L823.64 173.69C819.47 174.47 815.9 174.62 810.8 174.62H808.67V172.52ZM808.67 156.83H821.27V158.87H811.13V173.45H808.67V156.83ZM855.408 158.27H860.118V160.34H855.408V158.27ZM855.408 164.03H860.118V166.1H855.408V164.03ZM842.688 155.81C846.768 155.81 849.768 158.45 849.768 162.23C849.768 165.98 846.768 168.59 842.688 168.59C838.608 168.59 835.608 165.98 835.608 162.23C835.608 158.45 838.608 155.81 842.688 155.81ZM842.688 157.91C839.988 157.91 838.038 159.68 838.038 162.23C838.038 164.78 839.988 166.52 842.688 166.52C845.388 166.52 847.338 164.78 847.338 162.23C847.338 159.68 845.388 157.91 842.688 157.91ZM853.668 154.22H856.158V170.27H853.668V154.22ZM847.518 171.14C853.038 171.14 856.428 173.03 856.428 176.21C856.428 179.42 853.038 181.28 847.518 181.28C841.998 181.28 838.608 179.42 838.608 176.21C838.608 173.03 841.998 171.14 847.518 171.14ZM847.518 173.15C843.498 173.15 841.038 174.26 841.038 176.21C841.038 178.16 843.498 179.3 847.518 179.3C851.538 179.3 853.998 178.16 853.998 176.21C853.998 174.26 851.538 173.15 847.518 173.15ZM881.266 154.25H883.756V174.59H881.266V154.25ZM882.976 163.13H887.776V165.23H882.976V163.13ZM862.786 157.52H878.806V159.53H862.786V157.52ZM870.796 161.03C874.636 161.03 877.276 163.04 877.276 166.1C877.276 169.13 874.636 171.14 870.796 171.14C866.926 171.14 864.286 169.13 864.286 166.1C864.286 163.04 866.926 161.03 870.796 161.03ZM870.796 162.98C868.336 162.98 866.656 164.21 866.656 166.1C866.656 167.96 868.336 169.19 870.796 169.19C873.226 169.19 874.906 167.96 874.906 166.1C874.906 164.21 873.226 162.98 870.796 162.98ZM869.536 154.22H872.026V158.57H869.536V154.22ZM866.866 178.7H884.986V180.74H866.866V178.7ZM866.866 172.97H869.356V179.57H866.866V172.97ZM917.301 154.22H919.791V169.58H917.301V154.22ZM919.101 160.82H923.811V162.89H919.101V160.82ZM909.801 155.96H912.441C912.441 162.8 907.671 167.72 899.691 169.88L898.731 167.9C905.751 165.98 909.801 162.05 909.801 157.07V155.96ZM899.901 155.96H911.181V157.97H899.901V155.96ZM902.721 170.87H919.791V180.98H902.721V170.87ZM917.331 172.88H905.181V178.94H917.331V172.88ZM944.898 154.22H947.388V170.12H944.898V154.22ZM946.698 161.06H951.408V163.16H946.698V161.06ZM937.398 155.96H940.008C940.008 162.8 935.238 167.69 927.318 169.85L926.298 167.9C933.318 165.98 937.398 162.05 937.398 157.04V155.96ZM927.498 155.96H938.778V157.97H927.498V155.96ZM929.778 171.38H947.388V181.34H944.898V173.39H929.778V171.38ZM955.156 157.19H967.426V159.2H955.156V157.19ZM959.386 164.93H961.846V174.11H959.386V164.93ZM966.406 157.19H968.836V158.63C968.836 160.85 968.836 164.39 968.056 169.43L965.596 169.19C966.406 164.3 966.406 160.82 966.406 158.63V157.19ZM972.256 154.22H974.716V181.34H972.256V154.22ZM974.056 165.56H979.066V167.66H974.056V165.56ZM953.956 175.43L953.656 173.33C958.576 173.33 965.116 173.24 970.606 172.55L970.726 174.38C965.116 175.28 958.756 175.4 953.956 175.43ZM996.561 155.63H998.631V158.39C998.631 163.61 995.691 167.93 991.161 169.7L989.841 167.69C993.921 166.19 996.561 162.53 996.561 158.39V155.63ZM997.011 155.63H999.051V158.57C999.051 162.23 1001.75 165.62 1005.65 166.97L1004.33 168.92C999.981 167.3 997.011 163.28 997.011 158.57V155.63ZM1008.53 154.22H1011.02V170.66H1008.53V154.22ZM1010.33 161.21H1015.04V163.31H1010.33V161.21ZM1002.38 171.41C1007.93 171.41 1011.29 173.24 1011.29 176.36C1011.29 179.48 1007.93 181.28 1002.38 181.28C996.831 181.28 993.471 179.48 993.471 176.36C993.471 173.24 996.831 171.41 1002.38 171.41ZM1002.38 173.39C998.361 173.39 995.901 174.47 995.901 176.36C995.901 178.25 998.361 179.33 1002.38 179.33C1006.4 179.33 1008.86 178.25 1008.86 176.36C1008.86 174.47 1006.4 173.39 1002.38 173.39ZM1024.16 155.63H1026.23V158.39C1026.23 163.61 1023.29 167.93 1018.76 169.7L1017.44 167.69C1021.52 166.19 1024.16 162.53 1024.16 158.39V155.63ZM1024.61 155.63H1026.65V158.57C1026.65 162.23 1029.35 165.62 1033.25 166.97L1031.93 168.92C1027.58 167.3 1024.61 163.28 1024.61 158.57V155.63ZM1036.13 154.22H1038.62V170.66H1036.13V154.22ZM1037.93 161.21H1042.64V163.31H1037.93V161.21ZM1029.98 171.41C1035.53 171.41 1038.89 173.24 1038.89 176.36C1038.89 179.48 1035.53 181.28 1029.98 181.28C1024.43 181.28 1021.07 179.48 1021.07 176.36C1021.07 173.24 1024.43 171.41 1029.98 171.41ZM1029.98 173.39C1025.96 173.39 1023.5 174.47 1023.5 176.36C1023.5 178.25 1025.96 179.33 1029.98 179.33C1034 179.33 1036.46 178.25 1036.46 176.36C1036.46 174.47 1034 173.39 1029.98 173.39ZM1057.43 154.67C1063.4 154.67 1066.97 156.35 1066.97 159.38C1066.97 162.41 1063.4 164.09 1057.43 164.09C1051.43 164.09 1047.89 162.41 1047.89 159.38C1047.89 156.35 1051.43 154.67 1057.43 154.67ZM1057.43 156.56C1052.99 156.56 1050.44 157.58 1050.44 159.38C1050.44 161.18 1052.99 162.2 1057.43 162.2C1061.84 162.2 1064.39 161.18 1064.39 159.38C1064.39 157.58 1061.84 156.56 1057.43 156.56ZM1045.16 165.89H1069.67V167.9H1045.16V165.89ZM1048.13 170.21H1066.55V176.33H1050.65V179.63H1048.19V174.53H1064.09V172.13H1048.13V170.21ZM1048.19 179.09H1067.36V181.04H1048.19V179.09ZM1081.19 168.59H1105.7V170.6H1081.19V168.59ZM1092.2 165.08H1094.66V169.43H1092.2V165.08ZM1084.43 163.97H1102.82V165.92H1084.43V163.97ZM1084.43 155H1102.7V156.95H1086.89V165.02H1084.43V155ZM1086.17 159.44H1101.98V161.36H1086.17V159.44ZM1093.43 172.61C1099.34 172.61 1102.73 174.11 1102.73 176.96C1102.73 179.78 1099.34 181.28 1093.43 181.28C1087.52 181.28 1084.13 179.78 1084.13 176.96C1084.13 174.11 1087.52 172.61 1093.43 172.61ZM1093.43 174.5C1089.08 174.5 1086.65 175.37 1086.65 176.96C1086.65 178.58 1089.08 179.42 1093.43 179.42C1097.78 179.42 1100.21 178.58 1100.21 176.96C1100.21 175.37 1097.78 174.5 1093.43 174.5ZM1127.36 154.25H1129.85V174.59H1127.36V154.25ZM1129.07 163.13H1133.87V165.23H1129.07V163.13ZM1108.88 157.52H1124.9V159.53H1108.88V157.52ZM1116.89 161.03C1120.73 161.03 1123.37 163.04 1123.37 166.1C1123.37 169.13 1120.73 171.14 1116.89 171.14C1113.02 171.14 1110.38 169.13 1110.38 166.1C1110.38 163.04 1113.02 161.03 1116.89 161.03ZM1116.89 162.98C1114.43 162.98 1112.75 164.21 1112.75 166.1C1112.75 167.96 1114.43 169.19 1116.89 169.19C1119.32 169.19 1121 167.96 1121 166.1C1121 164.21 1119.32 162.98 1116.89 162.98ZM1115.63 154.22H1118.12V158.57H1115.63V154.22ZM1112.96 178.7H1131.08V180.74H1112.96V178.7ZM1112.96 172.97H1115.45V179.57H1112.96V172.97ZM1157.81 159.2H1165.07V161.24H1157.81V159.2ZM1157.57 164.84H1164.89V166.88H1157.57V164.84ZM1164.65 154.22H1167.14V170.48H1164.65V154.22ZM1156.16 156.26H1158.83C1158.83 163.25 1154 168.14 1146.2 170.48L1145.18 168.47C1152.11 166.46 1156.16 162.47 1156.16 157.34V156.26ZM1146.59 156.26H1157.87V158.3H1146.59V156.26ZM1158.32 170.78C1163.81 170.78 1167.29 172.73 1167.29 176C1167.29 179.27 1163.81 181.22 1158.32 181.22C1152.83 181.22 1149.35 179.27 1149.35 176C1149.35 172.73 1152.83 170.78 1158.32 170.78ZM1158.32 172.73C1154.36 172.73 1151.81 173.96 1151.81 176C1151.81 178.04 1154.36 179.24 1158.32 179.24C1162.31 179.24 1164.86 178.04 1164.86 176C1164.86 173.96 1162.31 172.73 1158.32 172.73ZM1192.25 154.22H1194.74V170.63H1192.25V154.22ZM1187.75 162.44H1193.36V164.51H1187.75V162.44ZM1177.16 172.07H1194.74V180.98H1177.16V172.07ZM1192.31 174.08H1179.59V178.97H1192.31V174.08ZM1172.48 157.04H1188.17V159.05H1172.48V157.04ZM1180.31 160.43C1183.97 160.43 1186.58 162.41 1186.58 165.29C1186.58 168.17 1183.97 170.09 1180.31 170.09C1176.65 170.09 1174.04 168.17 1174.04 165.29C1174.04 162.41 1176.65 160.43 1180.31 160.43ZM1180.31 162.35C1178.03 162.35 1176.41 163.52 1176.41 165.29C1176.41 167.03 1178.03 168.2 1180.31 168.2C1182.59 168.2 1184.21 167.03 1184.21 165.29C1184.21 163.52 1182.59 162.35 1180.31 162.35ZM1179.08 153.95H1181.57V158.48H1179.08V153.95ZM1219.73 154.19H1222.22V181.37H1219.73V154.19ZM1207.91 156.29C1211.93 156.29 1214.81 159.98 1214.81 165.74C1214.81 171.53 1211.93 175.22 1207.91 175.22C1203.92 175.22 1201.04 171.53 1201.04 165.74C1201.04 159.98 1203.92 156.29 1207.91 156.29ZM1207.91 158.54C1205.27 158.54 1203.41 161.36 1203.41 165.74C1203.41 170.15 1205.27 173.03 1207.91 173.03C1210.58 173.03 1212.41 170.15 1212.41 165.74C1212.41 161.36 1210.58 158.54 1207.91 158.54ZM1234.82 158.09H1236.83V162.5C1236.83 168.23 1233.38 173.99 1229.06 176.12L1227.62 174.14C1231.55 172.28 1234.82 167.18 1234.82 162.5V158.09ZM1235.3 158.09H1237.31V162.5C1237.31 167.09 1240.58 171.77 1244.57 173.48L1243.16 175.46C1238.78 173.42 1235.3 168.14 1235.3 162.5V158.09ZM1228.52 156.98H1243.67V159.08H1228.52V156.98ZM1247.33 154.22H1249.82V181.34H1247.33V154.22ZM1271.15 155.75C1275.2 155.75 1278.17 158.33 1278.17 162.02C1278.17 165.71 1275.2 168.29 1271.15 168.29C1267.13 168.29 1264.16 165.71 1264.16 162.02C1264.16 158.33 1267.13 155.75 1271.15 155.75ZM1271.15 157.79C1268.57 157.79 1266.59 159.56 1266.59 162.02C1266.59 164.48 1268.57 166.25 1271.15 166.25C1273.79 166.25 1275.77 164.48 1275.77 162.02C1275.77 159.56 1273.79 157.79 1271.15 157.79ZM1282.22 154.22H1284.71V167.72H1282.22V154.22ZM1283.63 160.31H1288.73V162.35H1283.63V160.31ZM1266.5 178.58H1267.79C1269.41 178.58 1272.02 178.43 1274.33 177.65L1274.75 179.66C1272.14 180.5 1269.65 180.62 1267.79 180.62H1266.5V178.58ZM1266.5 170.66H1268.93V179.3H1266.5V170.66ZM1273.76 170.84H1287.38V172.7H1273.76V170.84ZM1280.6 173.66C1283.54 173.66 1285.61 175.13 1285.61 177.47C1285.61 179.84 1283.54 181.31 1280.6 181.31C1277.63 181.31 1275.56 179.84 1275.56 177.47C1275.56 175.13 1277.63 173.66 1280.6 173.66ZM1280.6 175.43C1278.92 175.43 1277.78 176.24 1277.78 177.47C1277.78 178.73 1278.92 179.54 1280.6 179.54C1282.22 179.54 1283.39 178.73 1283.39 177.47C1283.39 176.24 1282.22 175.43 1280.6 175.43ZM1279.37 168.41H1281.8V172.28H1279.37V168.41ZM1303.52 154.67C1309.49 154.67 1313.06 156.35 1313.06 159.38C1313.06 162.41 1309.49 164.09 1303.52 164.09C1297.52 164.09 1293.98 162.41 1293.98 159.38C1293.98 156.35 1297.52 154.67 1303.52 154.67ZM1303.52 156.56C1299.08 156.56 1296.53 157.58 1296.53 159.38C1296.53 161.18 1299.08 162.2 1303.52 162.2C1307.93 162.2 1310.48 161.18 1310.48 159.38C1310.48 157.58 1307.93 156.56 1303.52 156.56ZM1291.25 165.89H1315.76V167.9H1291.25V165.89ZM1294.22 170.21H1312.64V176.33H1296.74V179.63H1294.28V174.53H1310.18V172.13H1294.22V170.21ZM1294.28 179.09H1313.45V181.04H1294.28V179.09ZM1337.69 154.22H1340.15V181.34H1337.69V154.22ZM1339.37 165.38H1344.2V167.48H1339.37V165.38ZM1324.7 157.13H1326.98C1326.98 163.67 1325.6 170 1320.74 175.25L1318.73 173.84C1323.2 169.19 1324.7 163.55 1324.7 157.4V157.13ZM1319.6 157.13H1325.63V159.2H1319.6V157.13ZM1332.08 157.13H1334.39C1334.39 163.7 1333.46 171.14 1328.48 177.05L1326.47 175.67C1331.06 170.36 1332.08 163.64 1332.08 157.37V157.13ZM1327.85 157.13H1333.1V159.2H1327.85V157.13ZM1352.48 168.17H1354.94V176.3H1352.48V168.17ZM1362.5 168.17H1364.99V176.3H1362.5V168.17ZM1346.48 175.82H1371.05V177.89H1346.48V175.82ZM1358.72 155.93C1364.45 155.93 1368.56 158.66 1368.56 162.92C1368.56 167.15 1364.45 169.88 1358.72 169.88C1352.96 169.88 1348.85 167.15 1348.85 162.92C1348.85 158.66 1352.96 155.93 1358.72 155.93ZM1358.72 157.91C1354.37 157.91 1351.25 159.89 1351.25 162.92C1351.25 165.92 1354.37 167.9 1358.72 167.9C1363.07 167.9 1366.16 165.92 1366.16 162.92C1366.16 159.89 1363.07 157.91 1358.72 157.91ZM1378.16 172.864V172.736C1378.17 171.379 1378.31 170.3 1378.58 169.497C1378.85 168.695 1379.24 168.045 1379.73 167.548C1380.23 167.05 1380.83 166.592 1381.52 166.173C1381.94 165.918 1382.32 165.616 1382.65 165.268C1382.99 164.913 1383.25 164.504 1383.44 164.043C1383.64 163.581 1383.74 163.07 1383.74 162.509C1383.74 161.812 1383.57 161.209 1383.25 160.697C1382.92 160.186 1382.48 159.792 1381.94 159.515C1381.39 159.238 1380.78 159.099 1380.12 159.099C1379.53 159.099 1378.97 159.22 1378.43 159.462C1377.89 159.703 1377.44 160.083 1377.08 160.602C1376.72 161.12 1376.51 161.798 1376.45 162.636H1373.77C1373.82 161.429 1374.14 160.396 1374.7 159.536C1375.28 158.677 1376.04 158.02 1376.97 157.565C1377.92 157.111 1378.97 156.884 1380.12 156.884C1381.37 156.884 1382.45 157.132 1383.38 157.629C1384.31 158.126 1385.02 158.808 1385.53 159.675C1386.04 160.541 1386.29 161.528 1386.29 162.636C1386.29 163.418 1386.17 164.124 1385.93 164.756C1385.7 165.388 1385.36 165.953 1384.91 166.45C1384.47 166.947 1383.94 167.388 1383.31 167.771C1382.69 168.162 1382.19 168.574 1381.81 169.007C1381.43 169.433 1381.16 169.941 1380.99 170.531C1380.82 171.12 1380.73 171.855 1380.71 172.736V172.864H1378.16ZM1379.52 179.17C1378.99 179.17 1378.54 178.982 1378.17 178.606C1377.79 178.229 1377.6 177.778 1377.6 177.253C1377.6 176.727 1377.79 176.276 1378.17 175.9C1378.54 175.523 1378.99 175.335 1379.52 175.335C1380.04 175.335 1380.5 175.523 1380.87 175.9C1381.25 176.276 1381.44 176.727 1381.44 177.253C1381.44 177.601 1381.35 177.92 1381.17 178.212C1381 178.503 1380.77 178.737 1380.48 178.915C1380.19 179.085 1379.87 179.17 1379.52 179.17Z" fill="black"/>
<defs>
<filter id="filter0_di_119_46" x="27.9453" y="18.875" width="1476.11" height="227.068" filterUnits="userSpaceOnUse" color-interpolation-filters="sRGB">
<feFlood flood-opacity="0" result="BackgroundImageFix"/>
<feColorMatrix in="SourceAlpha" type="matrix" values="0 0 0 0 0 0 0 0 0 0 0 0 0 0 0 0 0 0 127 0" result="hardAlpha"/>
<feOffset dy="4"/>
<feGaussianBlur stdDeviation="2"/>
<feComposite in2="hardAlpha" operator="out"/>
<feColorMatrix type="matrix" values="0 0 0 0 0 0 0 0 0 0 0 0 0 0 0 0 0 0 0.25 0"/>
<feBlend mode="normal" in2="BackgroundImageFix" result="effect1_dropShadow_119_46"/>
<feBlend mode="normal" in="SourceGraphic" in2="effect1_dropShadow_119_46" result="shape"/>
<feColorMatrix in="SourceAlpha" type="matrix" values="0 0 0 0 0 0 0 0 0 0 0 0 0 0 0 0 0 0 127 0" result="hardAlpha"/>
<feOffset dy="4"/>
<feGaussianBlur stdDeviation="2"/>
<feComposite in2="hardAlpha" operator="arithmetic" k2="-1" k3="1"/>
<feColorMatrix type="matrix" values="0 0 0 0 0 0 0 0 0 0 0 0 0 0 0 0 0 0 0.25 0"/>
<feBlend mode="normal" in2="shape" result="effect2_innerShadow_119_46"/>
</filter>
<filter id="filter1_di_119_46" x="65.9648" y="32.4775" width="1398.84" height="197.716" filterUnits="userSpaceOnUse" color-interpolation-filters="sRGB">
<feFlood flood-opacity="0" result="BackgroundImageFix"/>
<feColorMatrix in="SourceAlpha" type="matrix" values="0 0 0 0 0 0 0 0 0 0 0 0 0 0 0 0 0 0 127 0" result="hardAlpha"/>
<feOffset dy="4"/>
<feGaussianBlur stdDeviation="2"/>
<feComposite in2="hardAlpha" operator="out"/>
<feColorMatrix type="matrix" values="0 0 0 0 0 0 0 0 0 0 0 0 0 0 0 0 0 0 0.25 0"/>
<feBlend mode="normal" in2="BackgroundImageFix" result="effect1_dropShadow_119_46"/>
<feBlend mode="normal" in="SourceGraphic" in2="effect1_dropShadow_119_46" result="shape"/>
<feColorMatrix in="SourceAlpha" type="matrix" values="0 0 0 0 0 0 0 0 0 0 0 0 0 0 0 0 0 0 127 0" result="hardAlpha"/>
<feOffset dy="4"/>
<feGaussianBlur stdDeviation="2"/>
<feComposite in2="hardAlpha" operator="arithmetic" k2="-1" k3="1"/>
<feColorMatrix type="matrix" values="0 0 0 0 0 0 0 0 0 0 0 0 0 0 0 0 0 0 0.25 0"/>
<feBlend mode="normal" in2="shape" result="effect2_innerShadow_119_46"/>
</filter>
</defs>
</svg>
