<svg width="1516" height="253" viewBox="0 0 1516 253" fill="none" xmlns="http://www.w3.org/2000/svg">
<rect x="16" y="11" width="1500" height="242" fill="#FFD0C5"/>
<g filter="url(#filter0_di_119_55)">
<rect x="31.9453" y="18.875" width="1468.11" height="219.068" fill="#FFB5A4"/>
</g>
<g filter="url(#filter1_di_119_55)">
<rect width="1390.84" height="189.716" transform="matrix(1 0 0 -1 69.9648 222.193)" fill="#FFD0C5"/>
</g>
<path d="M142.672 82.19H145.192V109.37H142.672V82.19ZM144.592 92.9H149.632V95H144.592V92.9ZM125.482 100.52H127.612C132.622 100.52 136.132 100.34 140.182 99.59L140.452 101.69C136.282 102.47 132.712 102.62 127.612 102.62H125.482V100.52ZM125.482 84.83H138.082V86.87H127.942V101.45H125.482V84.83ZM151.909 97.25H176.509V99.26H151.909V97.25ZM155.149 106.7H173.929V108.74H155.149V106.7ZM155.149 101.39H157.639V107.48H155.149V101.39ZM155.029 83.12H173.329V89.84H157.549V93.5H155.089V88.01H170.899V85.07H155.029V83.12ZM155.089 92.84H173.929V94.79H155.089V92.84ZM194.635 85.01H196.675V87.2C196.675 92.18 193.675 96.32 189.145 97.94L187.825 95.99C191.935 94.55 194.635 91.07 194.635 87.2V85.01ZM195.085 85.01H197.125V87.17C197.125 90.77 199.735 94.1 203.725 95.45L202.435 97.4C197.965 95.84 195.085 91.85 195.085 87.17V85.01ZM188.605 84.11H203.095V86.15H188.605V84.11ZM206.515 82.22H209.005V98.54H206.515V82.22ZM208.315 89.36H213.025V91.43H208.315V89.36ZM191.395 99.98H209.005V109.34H206.515V102.05H191.395V99.98ZM226.582 96.62H229.042V101.3H226.582V96.62ZM215.542 95.3H240.052V97.34H215.542V95.3ZM217.822 83.06H237.742V85.1H217.822V83.06ZM217.942 90.77H237.622V92.81H217.942V90.77ZM221.932 83.96H224.422V92.09H221.932V83.96ZM231.172 83.96H233.632V92.09H231.172V83.96ZM218.542 100.49H237.052V108.98H218.542V100.49ZM234.622 102.47H221.002V106.97H234.622V102.47ZM255.41 82.67C261.38 82.67 264.95 84.35 264.95 87.38C264.95 90.41 261.38 92.09 255.41 92.09C249.41 92.09 245.87 90.41 245.87 87.38C245.87 84.35 249.41 82.67 255.41 82.67ZM255.41 84.56C250.97 84.56 248.42 85.58 248.42 87.38C248.42 89.18 250.97 90.2 255.41 90.2C259.82 90.2 262.37 89.18 262.37 87.38C262.37 85.58 259.82 84.56 255.41 84.56ZM243.14 93.89H267.65V95.9H243.14V93.89ZM246.11 98.21H264.53V104.33H248.63V107.63H246.17V102.53H262.07V100.13H246.11V98.21ZM246.17 107.09H265.34V109.04H246.17V107.09ZM281.785 84.92H299.245V86.99H281.785V84.92ZM279.205 103.49H303.715V105.56H279.205V103.49ZM288.715 93.8H291.205V104.51H288.715V93.8ZM298.315 84.92H300.775V87.62C300.775 90.98 300.775 94.7 299.785 100.19L297.295 99.86C298.315 94.67 298.315 90.86 298.315 87.62V84.92ZM306.803 103.85H331.373V105.95H306.803V103.85ZM309.773 84.29H328.343V92.51H312.323V97.94H309.863V90.53H325.883V86.33H309.773V84.29ZM309.863 96.89H328.973V98.93H309.863V96.89ZM348.86 85.46H354.98V87.5H348.86V85.46ZM348.86 90.8H354.98V92.81H348.86V90.8ZM354.2 82.22H356.69V98.12H354.2V82.22ZM341.15 83.18H343.19V86C343.19 91.34 340.31 95.75 335.78 97.55L334.43 95.6C338.54 94.04 341.15 90.26 341.15 86V83.18ZM341.57 83.18H343.58V86C343.58 89.93 346.22 93.62 350.15 95.15L348.77 97.13C344.45 95.33 341.57 91.01 341.57 86V83.18ZM341.3 99.11H343.25V100.31C343.25 103.88 341.03 107.51 337.13 109.01L335.87 107.15C339.29 105.89 341.3 102.95 341.3 100.31V99.11ZM341.87 99.11H343.73V100.31C343.73 103.07 345.32 106.04 348.59 107.36L347.54 109.25C343.61 107.72 341.87 103.94 341.87 100.31V99.11ZM351.35 99.11H353.18V100.31C353.18 103.52 351.41 107.6 347.54 109.25L346.46 107.36C349.7 105.86 351.35 102.68 351.35 100.31V99.11ZM351.83 99.11H353.78V100.31C353.78 103.16 355.76 105.98 359.24 107.15L357.95 109.01C354.02 107.57 351.83 104.09 351.83 100.31V99.11ZM365.088 98.48H367.548V101.63H380.808V98.48H383.298V108.98H365.088V98.48ZM367.548 103.55V106.97H380.808V103.55H367.548ZM361.968 94.58H386.478V96.59H361.968V94.58ZM372.978 82.52H375.108V83.72C375.108 88.43 369.858 91.82 364.278 92.66L363.378 90.71C368.268 90.05 372.978 87.14 372.978 83.72V82.52ZM373.368 82.52H375.498V83.72C375.498 87.08 380.268 90.05 385.098 90.71L384.168 92.66C378.648 91.82 373.368 88.37 373.368 83.72V82.52ZM409.306 82.22H411.796V109.34H409.306V82.22ZM391.306 84.86H393.766V101.66H391.306V84.86ZM391.306 100.19H393.526C397.636 100.19 401.926 99.89 406.516 98.93L406.816 101.06C402.106 102.02 397.816 102.35 393.526 102.35H391.306V100.19ZM435.523 82.19H438.043V109.37H435.523V82.19ZM437.443 92.9H442.483V95H437.443V92.9ZM418.333 100.52H420.463C425.473 100.52 428.983 100.34 433.033 99.59L433.303 101.69C429.133 102.47 425.563 102.62 420.463 102.62H418.333V100.52ZM418.333 84.83H430.933V86.87H420.793V101.45H418.333V84.83ZM447.425 107.17C446.899 107.17 446.448 106.982 446.072 106.606C445.695 106.229 445.507 105.778 445.507 105.253C445.507 104.727 445.695 104.276 446.072 103.9C446.448 103.523 446.899 103.335 447.425 103.335C447.95 103.335 448.401 103.523 448.778 103.9C449.154 104.276 449.342 104.727 449.342 105.253C449.342 105.601 449.253 105.92 449.076 106.212C448.905 106.503 448.675 106.737 448.383 106.915C448.099 107.085 447.78 107.17 447.425 107.17ZM481.65 93.02H486.66V95.12H481.65V93.02ZM479.82 82.19H482.34V109.34H479.82V82.19ZM462.54 84.86H465.03V101.66H462.54V84.86ZM462.54 100.37H464.7C468.72 100.37 472.83 100.1 477.3 99.17L477.6 101.24C472.98 102.2 468.81 102.47 464.7 102.47H462.54V100.37ZM489.958 100.61H491.758C495.058 100.61 498.118 100.49 501.838 99.86L502.048 101.9C498.238 102.56 495.178 102.68 491.758 102.68H489.958V100.61ZM489.898 85.19H499.588V94.64H492.388V101.45H489.958V92.63H497.188V87.23H489.898V85.19ZM509.698 82.22H512.098V109.34H509.698V82.22ZM500.878 91.94H505.258V94.01H500.878V91.94ZM504.238 82.88H506.548V107.93H504.238V82.88ZM536.366 82.19H538.856V109.37H536.366V82.19ZM524.546 84.29C528.566 84.29 531.446 87.98 531.446 93.74C531.446 99.53 528.566 103.22 524.546 103.22C520.556 103.22 517.676 99.53 517.676 93.74C517.676 87.98 520.556 84.29 524.546 84.29ZM524.546 86.54C521.906 86.54 520.046 89.36 520.046 93.74C520.046 98.15 521.906 101.03 524.546 101.03C527.216 101.03 529.046 98.15 529.046 93.74C529.046 89.36 527.216 86.54 524.546 86.54ZM558.653 86.21H564.743V88.28H558.653V86.21ZM558.653 91.79H564.743V93.83H558.653V91.79ZM551.063 83.75H553.073V87.2C553.073 92.51 550.163 97.04 545.633 98.87L544.313 96.89C548.363 95.33 551.063 91.46 551.063 87.2V83.75ZM551.513 83.75H553.553V87.2C553.553 91.16 556.163 94.91 560.093 96.47L558.713 98.42C554.423 96.62 551.513 92.24 551.513 87.2V83.75ZM564.083 82.25H566.573V102.47H564.083V82.25ZM549.143 106.7H567.233V108.74H549.143V106.7ZM549.143 100.43H551.633V107.81H549.143V100.43ZM591.561 82.19H594.051V109.37H591.561V82.19ZM579.741 84.29C583.761 84.29 586.641 87.98 586.641 93.74C586.641 99.53 583.761 103.22 579.741 103.22C575.751 103.22 572.871 99.53 572.871 93.74C572.871 87.98 575.751 84.29 579.741 84.29ZM579.741 86.54C577.101 86.54 575.241 89.36 575.241 93.74C575.241 98.15 577.101 101.03 579.741 101.03C582.411 101.03 584.241 98.15 584.241 93.74C584.241 89.36 582.411 86.54 579.741 86.54ZM621.836 87.11H628.766V89.18H621.836V87.11ZM627.716 82.22H630.206V96.2H627.716V82.22ZM612.746 97.61H630.206V104.09H615.266V108.2H612.836V102.23H627.746V99.59H612.746V97.61ZM612.836 107H631.226V108.98H612.836V107ZM614.666 83.06H616.706V85.61C616.706 90.62 613.706 94.67 609.176 96.29L607.886 94.31C611.966 92.93 614.666 89.54 614.666 85.61V83.06ZM615.086 83.06H617.096V85.61C617.096 89.15 619.826 92.42 623.756 93.71L622.466 95.66C618.086 94.1 615.086 90.2 615.086 85.61V83.06ZM648.444 86.6H656.274V88.64H648.444V86.6ZM648.444 92H656.334V94.01H648.444V92ZM655.314 82.22H657.804V98.27H655.314V82.22ZM636.744 84.26H649.134V96.32H636.744V84.26ZM646.674 86.27H639.174V94.34H646.674V86.27ZM648.894 99.05C654.474 99.05 657.924 100.94 657.924 104.18C657.924 107.42 654.474 109.28 648.894 109.28C643.284 109.28 639.834 107.42 639.834 104.18C639.834 100.94 643.284 99.05 648.894 99.05ZM648.894 101.03C644.814 101.03 642.324 102.2 642.324 104.18C642.324 106.16 644.814 107.33 648.894 107.33C652.974 107.33 655.464 106.16 655.464 104.18C655.464 102.2 652.974 101.03 648.894 101.03ZM681.651 82.25H684.141V102.59H681.651V82.25ZM683.361 91.13H688.161V93.23H683.361V91.13ZM663.171 85.52H679.191V87.53H663.171V85.52ZM671.181 89.03C675.021 89.03 677.661 91.04 677.661 94.1C677.661 97.13 675.021 99.14 671.181 99.14C667.311 99.14 664.671 97.13 664.671 94.1C664.671 91.04 667.311 89.03 671.181 89.03ZM671.181 90.98C668.721 90.98 667.041 92.21 667.041 94.1C667.041 95.96 668.721 97.19 671.181 97.19C673.611 97.19 675.291 95.96 675.291 94.1C675.291 92.21 673.611 90.98 671.181 90.98ZM669.921 82.22H672.411V86.57H669.921V82.22ZM667.251 106.7H685.371V108.74H667.251V106.7ZM667.251 100.97H669.741V107.57H667.251V100.97ZM705.806 85.01H707.846V87.2C707.846 92.18 704.846 96.32 700.316 97.94L698.996 95.99C703.106 94.55 705.806 91.07 705.806 87.2V85.01ZM706.256 85.01H708.296V87.17C708.296 90.77 710.906 94.1 714.896 95.45L713.606 97.4C709.136 95.84 706.256 91.85 706.256 87.17V85.01ZM699.776 84.11H714.266V86.15H699.776V84.11ZM717.686 82.22H720.176V98.54H717.686V82.22ZM719.486 89.36H724.196V91.43H719.486V89.36ZM702.566 99.98H720.176V109.34H717.686V102.05H702.566V99.98ZM737.754 96.62H740.214V101.3H737.754V96.62ZM726.714 95.3H751.224V97.34H726.714V95.3ZM728.994 83.06H748.914V85.1H728.994V83.06ZM729.114 90.77H748.794V92.81H729.114V90.77ZM733.104 83.96H735.594V92.09H733.104V83.96ZM742.344 83.96H744.804V92.09H742.344V83.96ZM729.714 100.49H748.224V108.98H729.714V100.49ZM745.794 102.47H732.174V106.97H745.794V102.47ZM754.312 96.47H778.822V98.51H754.312V96.47ZM757.492 106.7H776.122V108.74H757.492V106.7ZM757.492 100.88H759.982V107.33H757.492V100.88ZM766.582 83.12C772.372 83.12 776.122 85.16 776.122 88.55C776.122 91.91 772.372 93.95 766.582 93.95C760.762 93.95 757.042 91.91 757.042 88.55C757.042 85.16 760.762 83.12 766.582 83.12ZM766.582 85.16C762.322 85.16 759.592 86.42 759.592 88.55C759.592 90.68 762.322 91.94 766.582 91.94C770.842 91.94 773.572 90.68 773.572 88.55C773.572 86.42 770.842 85.16 766.582 85.16ZM791.519 85.1818H794.672L802.087 103.293H802.343L809.758 85.1818H812.911V107H810.439V90.4233H810.226L803.408 107H801.022L794.204 90.4233H793.991V107H791.519V85.1818ZM822.683 107.384C821.646 107.384 820.705 107.188 819.86 106.798C819.015 106.4 818.343 105.828 817.846 105.082C817.349 104.33 817.1 103.42 817.1 102.355C817.1 101.418 817.285 100.658 817.654 100.075C818.024 99.4858 818.517 99.0241 819.135 98.6903C819.753 98.3565 820.435 98.108 821.181 97.9446C821.934 97.7741 822.69 97.6392 823.45 97.5398C824.444 97.4119 825.25 97.3161 825.868 97.2521C826.493 97.1811 826.948 97.0639 827.232 96.9006C827.523 96.7372 827.669 96.4531 827.669 96.0483V95.9631C827.669 94.9119 827.381 94.0952 826.806 93.5128C826.238 92.9304 825.375 92.6392 824.217 92.6392C823.017 92.6392 822.076 92.902 821.394 93.4276C820.712 93.9531 820.233 94.5142 819.956 95.1108L817.569 94.2585C817.995 93.2642 818.564 92.4901 819.274 91.9361C819.991 91.375 820.772 90.9844 821.618 90.7642C822.47 90.5369 823.308 90.4233 824.132 90.4233C824.657 90.4233 825.261 90.4872 825.943 90.6151C826.632 90.7358 827.296 90.9879 827.935 91.3714C828.581 91.755 829.118 92.3338 829.544 93.108C829.97 93.8821 830.183 94.919 830.183 96.2188V107H827.669V104.784H827.541C827.37 105.139 827.086 105.519 826.689 105.924C826.291 106.329 825.762 106.673 825.101 106.957C824.441 107.241 823.635 107.384 822.683 107.384ZM823.066 105.125C824.061 105.125 824.899 104.93 825.581 104.539C826.27 104.148 826.788 103.644 827.136 103.026C827.491 102.408 827.669 101.759 827.669 101.077V98.7756C827.562 98.9034 827.328 99.0206 826.966 99.1271C826.61 99.2266 826.199 99.3153 825.73 99.3935C825.268 99.4645 824.817 99.5284 824.377 99.5852C823.944 99.6349 823.592 99.6776 823.322 99.7131C822.669 99.7983 822.058 99.9368 821.49 100.129C820.929 100.313 820.474 100.594 820.126 100.97C819.785 101.339 819.615 101.844 819.615 102.483C819.615 103.357 819.938 104.017 820.584 104.464C821.238 104.905 822.065 105.125 823.066 105.125ZM834.772 107V90.6364H837.201V93.108H837.371C837.67 92.2983 838.209 91.6413 838.991 91.1371C839.772 90.6328 840.653 90.3807 841.633 90.3807C841.817 90.3807 842.048 90.3842 842.325 90.3913C842.602 90.3984 842.812 90.4091 842.954 90.4233V92.9801C842.868 92.9588 842.673 92.9268 842.368 92.8842C842.069 92.8345 841.753 92.8097 841.42 92.8097C840.624 92.8097 839.914 92.9766 839.289 93.3104C838.671 93.6371 838.181 94.0916 837.819 94.674C837.464 95.2493 837.286 95.9062 837.286 96.6449V107H834.772ZM852.084 107.341C850.55 107.341 849.229 106.979 848.121 106.254C847.013 105.53 846.16 104.532 845.564 103.261C844.967 101.989 844.669 100.537 844.669 98.9034C844.669 97.2415 844.974 95.7749 845.585 94.5036C846.203 93.2251 847.062 92.2273 848.163 91.5099C849.271 90.7855 850.564 90.4233 852.041 90.4233C853.192 90.4233 854.229 90.6364 855.152 91.0625C856.075 91.4886 856.831 92.0852 857.421 92.8523C858.01 93.6193 858.376 94.5142 858.518 95.5369H856.004C855.812 94.7912 855.386 94.1307 854.726 93.5554C854.072 92.973 853.192 92.6818 852.084 92.6818C851.104 92.6818 850.244 92.9375 849.506 93.4489C848.774 93.9531 848.202 94.6669 847.79 95.5902C847.385 96.5064 847.183 97.5824 847.183 98.8182C847.183 100.082 847.382 101.183 847.78 102.121C848.184 103.058 848.753 103.786 849.484 104.305C850.223 104.823 851.089 105.082 852.084 105.082C852.737 105.082 853.33 104.969 853.863 104.741C854.395 104.514 854.846 104.188 855.216 103.761C855.585 103.335 855.848 102.824 856.004 102.227H858.518C858.376 103.193 858.025 104.063 857.464 104.837C856.91 105.604 856.175 106.215 855.258 106.67C854.349 107.117 853.291 107.341 852.084 107.341ZM888.529 92H885.887C885.731 91.2401 885.457 90.5724 885.067 89.9972C884.683 89.4219 884.214 88.9389 883.66 88.5483C883.113 88.1506 882.506 87.8523 881.839 87.6534C881.171 87.4545 880.475 87.3551 879.751 87.3551C878.43 87.3551 877.233 87.6889 876.16 88.3565C875.095 89.0241 874.246 90.0078 873.614 91.3075C872.989 92.6072 872.677 94.2017 872.677 96.0909C872.677 97.9801 872.989 99.5746 873.614 100.874C874.246 102.174 875.095 103.158 876.16 103.825C877.233 104.493 878.43 104.827 879.751 104.827C880.475 104.827 881.171 104.727 881.839 104.528C882.506 104.33 883.113 104.035 883.66 103.644C884.214 103.246 884.683 102.76 885.067 102.185C885.457 101.602 885.731 100.935 885.887 100.182H888.529C888.33 101.297 887.968 102.295 887.442 103.175C886.917 104.056 886.263 104.805 885.482 105.423C884.701 106.034 883.824 106.499 882.851 106.819C881.885 107.138 880.851 107.298 879.751 107.298C877.89 107.298 876.235 106.844 874.786 105.935C873.337 105.026 872.197 103.733 871.366 102.057C870.535 100.381 870.12 98.392 870.12 96.0909C870.12 93.7898 870.535 91.8011 871.366 90.125C872.197 88.4489 873.337 87.1562 874.786 86.2472C876.235 85.3381 877.89 84.8835 879.751 84.8835C880.851 84.8835 881.885 85.0433 882.851 85.3629C883.824 85.6825 884.701 86.1513 885.482 86.7692C886.263 87.38 886.917 88.1257 887.442 89.0064C887.968 89.88 888.33 90.8778 888.529 92ZM894.972 97.1562V107H892.457V85.1818H894.972V93.1932H895.185C895.568 92.348 896.143 91.6768 896.911 91.1797C897.685 90.6754 898.714 90.4233 900 90.4233C901.115 90.4233 902.092 90.647 902.93 91.0945C903.768 91.5348 904.418 92.2131 904.879 93.1293C905.348 94.0384 905.582 95.196 905.582 96.6023V107H903.068V96.7727C903.068 95.473 902.731 94.468 902.056 93.7578C901.388 93.0405 900.462 92.6818 899.276 92.6818C898.452 92.6818 897.713 92.8558 897.06 93.2038C896.413 93.5518 895.902 94.0597 895.526 94.7273C895.156 95.3949 894.972 96.2045 894.972 97.1562ZM914.997 107.384C913.96 107.384 913.019 107.188 912.174 106.798C911.329 106.4 910.658 105.828 910.161 105.082C909.664 104.33 909.415 103.42 909.415 102.355C909.415 101.418 909.6 100.658 909.969 100.075C910.338 99.4858 910.832 99.0241 911.45 98.6903C912.068 98.3565 912.749 98.108 913.495 97.9446C914.248 97.7741 915.004 97.6392 915.764 97.5398C916.759 97.4119 917.565 97.3161 918.183 97.2521C918.808 97.1811 919.262 97.0639 919.546 96.9006C919.838 96.7372 919.983 96.4531 919.983 96.0483V95.9631C919.983 94.9119 919.695 94.0952 919.12 93.5128C918.552 92.9304 917.689 92.6392 916.531 92.6392C915.331 92.6392 914.39 92.902 913.708 93.4276C913.026 93.9531 912.547 94.5142 912.27 95.1108L909.884 94.2585C910.31 93.2642 910.878 92.4901 911.588 91.9361C912.306 91.375 913.087 90.9844 913.932 90.7642C914.784 90.5369 915.622 90.4233 916.446 90.4233C916.972 90.4233 917.575 90.4872 918.257 90.6151C918.946 90.7358 919.61 90.9879 920.249 91.3714C920.896 91.755 921.432 92.3338 921.858 93.108C922.284 93.8821 922.497 94.919 922.497 96.2188V107H919.983V104.784H919.855C919.685 105.139 919.401 105.519 919.003 105.924C918.605 106.329 918.076 106.673 917.416 106.957C916.755 107.241 915.949 107.384 914.997 107.384ZM915.381 105.125C916.375 105.125 917.213 104.93 917.895 104.539C918.584 104.148 919.102 103.644 919.45 103.026C919.806 102.408 919.983 101.759 919.983 101.077V98.7756C919.877 98.9034 919.642 99.0206 919.28 99.1271C918.925 99.2266 918.513 99.3153 918.044 99.3935C917.583 99.4645 917.132 99.5284 916.691 99.5852C916.258 99.6349 915.906 99.6776 915.637 99.7131C914.983 99.7983 914.372 99.9368 913.804 100.129C913.243 100.313 912.789 100.594 912.441 100.97C912.1 101.339 911.929 101.844 911.929 102.483C911.929 103.357 912.252 104.017 912.899 104.464C913.552 104.905 914.379 105.125 915.381 105.125ZM933.691 113.477C932.477 113.477 931.433 113.321 930.559 113.009C929.686 112.703 928.958 112.298 928.375 111.794C927.8 111.297 927.342 110.764 927.001 110.196L929.004 108.79C929.231 109.088 929.519 109.429 929.867 109.812C930.215 110.203 930.691 110.54 931.294 110.825C931.905 111.116 932.704 111.261 933.691 111.261C935.012 111.261 936.103 110.942 936.962 110.303C937.821 109.663 938.251 108.662 938.251 107.298V103.974H938.038C937.853 104.273 937.591 104.642 937.25 105.082C936.916 105.516 936.433 105.903 935.801 106.244C935.176 106.577 934.331 106.744 933.265 106.744C931.944 106.744 930.758 106.432 929.707 105.807C928.663 105.182 927.836 104.273 927.225 103.08C926.621 101.886 926.319 100.437 926.319 98.733C926.319 97.0568 926.614 95.5973 927.203 94.3544C927.793 93.1044 928.613 92.1385 929.664 91.4567C930.716 90.7678 931.93 90.4233 933.308 90.4233C934.373 90.4233 935.218 90.6009 935.843 90.956C936.475 91.304 936.958 91.7017 937.292 92.1491C937.633 92.5895 937.896 92.9517 938.081 93.2358H938.336V90.6364H940.765V107.469C940.765 108.875 940.446 110.018 939.806 110.899C939.174 111.787 938.322 112.437 937.25 112.849C936.184 113.268 934.998 113.477 933.691 113.477ZM933.606 104.486C934.615 104.486 935.467 104.255 936.163 103.793C936.859 103.332 937.388 102.668 937.75 101.801C938.113 100.935 938.294 99.8977 938.294 98.6903C938.294 97.5114 938.116 96.4709 937.761 95.5689C937.406 94.6669 936.88 93.9602 936.184 93.4489C935.488 92.9375 934.629 92.6818 933.606 92.6818C932.541 92.6818 931.653 92.9517 930.943 93.4915C930.24 94.0312 929.711 94.7557 929.355 95.6648C929.007 96.5739 928.833 97.5824 928.833 98.6903C928.833 99.8267 929.011 100.832 929.366 101.705C929.728 102.572 930.261 103.254 930.964 103.751C931.674 104.241 932.555 104.486 933.606 104.486ZM950.183 107.384C949.146 107.384 948.205 107.188 947.36 106.798C946.515 106.4 945.843 105.828 945.346 105.082C944.849 104.33 944.6 103.42 944.6 102.355C944.6 101.418 944.785 100.658 945.154 100.075C945.524 99.4858 946.017 99.0241 946.635 98.6903C947.253 98.3565 947.935 98.108 948.681 97.9446C949.434 97.7741 950.19 97.6392 950.95 97.5398C951.944 97.4119 952.75 97.3161 953.368 97.2521C953.993 97.1811 954.448 97.0639 954.732 96.9006C955.023 96.7372 955.169 96.4531 955.169 96.0483V95.9631C955.169 94.9119 954.881 94.0952 954.306 93.5128C953.738 92.9304 952.875 92.6392 951.717 92.6392C950.517 92.6392 949.576 92.902 948.894 93.4276C948.212 93.9531 947.733 94.5142 947.456 95.1108L945.069 94.2585C945.495 93.2642 946.064 92.4901 946.774 91.9361C947.491 91.375 948.272 90.9844 949.118 90.7642C949.97 90.5369 950.808 90.4233 951.632 90.4233C952.157 90.4233 952.761 90.4872 953.443 90.6151C954.132 90.7358 954.796 90.9879 955.435 91.3714C956.081 91.755 956.618 92.3338 957.044 93.108C957.47 93.8821 957.683 94.919 957.683 96.2188V107H955.169V104.784H955.041C954.87 105.139 954.586 105.519 954.189 105.924C953.791 106.329 953.262 106.673 952.601 106.957C951.941 107.241 951.135 107.384 950.183 107.384ZM950.566 105.125C951.561 105.125 952.399 104.93 953.081 104.539C953.77 104.148 954.288 103.644 954.636 103.026C954.991 102.408 955.169 101.759 955.169 101.077V98.7756C955.062 98.9034 954.828 99.0206 954.466 99.1271C954.11 99.2266 953.699 99.3153 953.23 99.3935C952.768 99.4645 952.317 99.5284 951.877 99.5852C951.444 99.6349 951.092 99.6776 950.822 99.7131C950.169 99.7983 949.558 99.9368 948.99 100.129C948.429 100.313 947.974 100.594 947.626 100.97C947.285 101.339 947.115 101.844 947.115 102.483C947.115 103.357 947.438 104.017 948.084 104.464C948.738 104.905 949.565 105.125 950.566 105.125ZM964.786 85.1818V107H962.272V85.1818H964.786ZM971.905 85.1818V107H969.391V85.1818H971.905ZM984.499 84.17C988.729 84.17 991.759 86.78 991.759 90.56C991.759 94.37 988.729 96.98 984.499 96.98C980.269 96.98 977.209 94.37 977.209 90.56C977.209 86.78 980.269 84.17 984.499 84.17ZM984.499 86.33C981.679 86.33 979.639 88.04 979.639 90.56C979.639 93.08 981.679 94.82 984.499 94.82C987.289 94.82 989.329 93.08 989.329 90.56C989.329 88.04 987.289 86.33 984.499 86.33ZM995.299 82.19H997.789V109.37H995.299V82.19ZM976.189 103.43L975.829 101.36C980.779 101.36 987.619 101.33 993.529 100.4L993.739 102.23C987.649 103.4 981.019 103.43 976.189 103.43ZM1011.69 92V90.0824C1011.69 89.5 1011.8 88.8821 1012 88.2287C1012.22 87.5682 1012.52 86.9325 1012.92 86.3217C1013.32 85.7038 1013.81 85.1676 1014.38 84.7131L1015.74 85.821C1015.29 86.4602 1014.9 87.1278 1014.57 87.8239C1014.24 88.5128 1014.08 89.2514 1014.08 90.0398V92H1011.69ZM1017.15 92V90.0824C1017.15 89.5 1017.25 88.8821 1017.46 88.2287C1017.67 87.5682 1017.97 86.9325 1018.37 86.3217C1018.78 85.7038 1019.26 85.1676 1019.83 84.7131L1021.2 85.821C1020.75 86.4602 1020.36 87.1278 1020.02 87.8239C1019.7 88.5128 1019.53 89.2514 1019.53 90.0398V92H1017.15ZM1022.31 107H1019.54L1027.55 85.1818H1030.28L1038.29 107H1035.52L1029 88.6335H1028.83L1022.31 107ZM1023.33 98.4773H1034.49V100.821H1023.33V98.4773ZM1041.69 107V85.1818H1044.2V93.2358H1044.41C1044.6 92.9517 1044.85 92.5895 1045.18 92.1491C1045.51 91.7017 1045.99 91.304 1046.61 90.956C1047.23 90.6009 1048.08 90.4233 1049.14 90.4233C1050.52 90.4233 1051.73 90.7678 1052.79 91.4567C1053.84 92.1456 1054.66 93.1222 1055.25 94.3864C1055.84 95.6506 1056.13 97.142 1056.13 98.8608C1056.13 100.594 1055.84 102.096 1055.25 103.367C1054.66 104.631 1053.84 105.612 1052.8 106.308C1051.75 106.996 1050.55 107.341 1049.19 107.341C1048.13 107.341 1047.29 107.167 1046.66 106.819C1046.03 106.464 1045.54 106.062 1045.2 105.615C1044.86 105.161 1044.6 104.784 1044.41 104.486H1044.11V107H1041.69ZM1044.16 98.8182C1044.16 100.054 1044.34 101.144 1044.7 102.089C1045.06 103.026 1045.59 103.761 1046.29 104.294C1046.98 104.82 1047.84 105.082 1048.84 105.082C1049.9 105.082 1050.77 104.805 1051.48 104.251C1052.19 103.69 1052.72 102.937 1053.07 101.993C1053.44 101.041 1053.62 99.983 1053.62 98.8182C1053.62 97.6676 1053.44 96.6307 1053.08 95.7074C1052.74 94.777 1052.21 94.0419 1051.5 93.5021C1050.79 92.9553 1049.91 92.6818 1048.84 92.6818C1047.82 92.6818 1046.96 92.9411 1046.27 93.4595C1045.57 93.9709 1045.04 94.6882 1044.69 95.6115C1044.33 96.5277 1044.16 97.5966 1044.16 98.8182ZM1066.62 107.341C1065.15 107.341 1063.85 106.989 1062.74 106.286C1061.63 105.583 1060.76 104.599 1060.14 103.335C1059.52 102.071 1059.21 100.594 1059.21 98.9034C1059.21 97.1989 1059.52 95.7109 1060.14 94.4396C1060.76 93.1683 1061.63 92.1811 1062.74 91.478C1063.85 90.7749 1065.15 90.4233 1066.62 90.4233C1068.1 90.4233 1069.39 90.7749 1070.5 91.478C1071.62 92.1811 1072.48 93.1683 1073.1 94.4396C1073.73 95.7109 1074.04 97.1989 1074.04 98.9034C1074.04 100.594 1073.73 102.071 1073.1 103.335C1072.48 104.599 1071.62 105.583 1070.5 106.286C1069.39 106.989 1068.1 107.341 1066.62 107.341ZM1066.62 105.082C1067.75 105.082 1068.67 104.795 1069.39 104.219C1070.12 103.644 1070.66 102.888 1071 101.95C1071.35 101.013 1071.53 99.9972 1071.53 98.9034C1071.53 97.8097 1071.35 96.7905 1071 95.8459C1070.66 94.9013 1070.12 94.1378 1069.39 93.5554C1068.67 92.973 1067.75 92.6818 1066.62 92.6818C1065.5 92.6818 1064.58 92.973 1063.85 93.5554C1063.13 94.1378 1062.59 94.9013 1062.25 95.8459C1061.9 96.7905 1061.72 97.8097 1061.72 98.9034C1061.72 99.9972 1061.9 101.013 1062.25 101.95C1062.59 102.888 1063.13 103.644 1063.85 104.219C1064.58 104.795 1065.5 105.082 1066.62 105.082ZM1090.67 90.6364L1084.62 107H1082.06L1076.01 90.6364H1078.74L1083.26 103.676H1083.43L1087.94 90.6364H1090.67ZM1100.27 107.341C1098.69 107.341 1097.33 106.993 1096.19 106.297C1095.05 105.594 1094.17 104.614 1093.55 103.357C1092.94 102.092 1092.64 100.622 1092.64 98.946C1092.64 97.2699 1092.94 95.7926 1093.55 94.5142C1094.17 93.2287 1095.03 92.2273 1096.13 91.5099C1097.24 90.7855 1098.53 90.4233 1100.01 90.4233C1100.86 90.4233 1101.7 90.5653 1102.53 90.8494C1103.37 91.1335 1104.12 91.5952 1104.8 92.2344C1105.49 92.8665 1106.03 93.7045 1106.43 94.7486C1106.84 95.7926 1107.04 97.0781 1107.04 98.6051V99.6705H1094.43V97.4972H1104.48C1104.48 96.5739 1104.3 95.75 1103.93 95.0256C1103.57 94.3011 1103.05 93.7294 1102.37 93.3104C1101.71 92.8913 1100.92 92.6818 1100.01 92.6818C1099.01 92.6818 1098.14 92.9304 1097.41 93.4276C1096.69 93.9176 1096.13 94.5568 1095.74 95.3452C1095.35 96.1335 1095.15 96.9787 1095.15 97.8807V99.3295C1095.15 100.565 1095.36 101.613 1095.79 102.472C1096.22 103.325 1096.82 103.974 1097.59 104.422C1098.36 104.862 1099.25 105.082 1100.27 105.082C1100.93 105.082 1101.52 104.99 1102.06 104.805C1102.59 104.614 1103.06 104.33 1103.45 103.953C1103.84 103.57 1104.14 103.094 1104.36 102.526L1106.79 103.207C1106.53 104.031 1106.1 104.756 1105.5 105.381C1104.89 105.999 1104.15 106.482 1103.26 106.83C1102.37 107.17 1101.37 107.341 1100.27 107.341ZM1126.42 90.6364V92.767H1117.94V90.6364H1126.42ZM1120.41 86.7159H1122.93V102.312C1122.93 103.023 1123.03 103.555 1123.23 103.911C1123.45 104.259 1123.72 104.493 1124.04 104.614C1124.38 104.727 1124.73 104.784 1125.1 104.784C1125.38 104.784 1125.6 104.77 1125.78 104.741C1125.96 104.706 1126.1 104.678 1126.21 104.656L1126.72 106.915C1126.55 106.979 1126.31 107.043 1126 107.107C1125.7 107.178 1125.31 107.213 1124.84 107.213C1124.13 107.213 1123.44 107.06 1122.75 106.755C1122.08 106.45 1121.52 105.984 1121.07 105.359C1120.63 104.734 1120.41 103.946 1120.41 102.994V86.7159ZM1133.07 97.1562V107H1130.55V85.1818H1133.07V93.1932H1133.28C1133.66 92.348 1134.24 91.6768 1135.01 91.1797C1135.78 90.6754 1136.81 90.4233 1138.1 90.4233C1139.21 90.4233 1140.19 90.647 1141.03 91.0945C1141.86 91.5348 1142.51 92.2131 1142.97 93.1293C1143.44 94.0384 1143.68 95.196 1143.68 96.6023V107H1141.16V96.7727C1141.16 95.473 1140.83 94.468 1140.15 93.7578C1139.48 93.0405 1138.56 92.6818 1137.37 92.6818C1136.55 92.6818 1135.81 92.8558 1135.16 93.2038C1134.51 93.5518 1134 94.0597 1133.62 94.7273C1133.25 95.3949 1133.07 96.2045 1133.07 97.1562ZM1155.14 107.341C1153.56 107.341 1152.2 106.993 1151.06 106.297C1149.92 105.594 1149.04 104.614 1148.43 103.357C1147.82 102.092 1147.51 100.622 1147.51 98.946C1147.51 97.2699 1147.82 95.7926 1148.43 94.5142C1149.04 93.2287 1149.9 92.2273 1151 91.5099C1152.11 90.7855 1153.41 90.4233 1154.88 90.4233C1155.74 90.4233 1156.58 90.5653 1157.41 90.8494C1158.24 91.1335 1159 91.5952 1159.68 92.2344C1160.36 92.8665 1160.9 93.7045 1161.31 94.7486C1161.71 95.7926 1161.91 97.0781 1161.91 98.6051V99.6705H1149.3V97.4972H1159.36C1159.36 96.5739 1159.17 95.75 1158.8 95.0256C1158.44 94.3011 1157.92 93.7294 1157.25 93.3104C1156.58 92.8913 1155.79 92.6818 1154.88 92.6818C1153.88 92.6818 1153.01 92.9304 1152.28 93.4276C1151.56 93.9176 1151 94.5568 1150.61 95.3452C1150.22 96.1335 1150.02 96.9787 1150.02 97.8807V99.3295C1150.02 100.565 1150.24 101.613 1150.66 102.472C1151.1 103.325 1151.7 103.974 1152.46 104.422C1153.23 104.862 1154.12 105.082 1155.14 105.082C1155.8 105.082 1156.4 104.99 1156.93 104.805C1157.47 104.614 1157.93 104.33 1158.32 103.953C1158.71 103.57 1159.02 103.094 1159.23 102.526L1161.66 103.207C1161.4 104.031 1160.97 104.756 1160.37 105.381C1159.77 105.999 1159.02 106.482 1158.13 106.83C1157.24 107.17 1156.25 107.341 1155.14 107.341ZM1174.52 107V85.1818H1177.16V94.8977H1188.79V85.1818H1191.43V107H1188.79V97.2415H1177.16V107H1174.52ZM1203.24 107.341C1201.67 107.341 1200.31 106.993 1199.16 106.297C1198.03 105.594 1197.15 104.614 1196.53 103.357C1195.92 102.092 1195.62 100.622 1195.62 98.946C1195.62 97.2699 1195.92 95.7926 1196.53 94.5142C1197.15 93.2287 1198.01 92.2273 1199.11 91.5099C1200.22 90.7855 1201.51 90.4233 1202.99 90.4233C1203.84 90.4233 1204.68 90.5653 1205.51 90.8494C1206.34 91.1335 1207.1 91.5952 1207.78 92.2344C1208.46 92.8665 1209.01 93.7045 1209.41 94.7486C1209.82 95.7926 1210.02 97.0781 1210.02 98.6051V99.6705H1197.41V97.4972H1207.46C1207.46 96.5739 1207.28 95.75 1206.91 95.0256C1206.55 94.3011 1206.03 93.7294 1205.35 93.3104C1204.69 92.8913 1203.9 92.6818 1202.99 92.6818C1201.99 92.6818 1201.12 92.9304 1200.39 93.4276C1199.66 93.9176 1199.11 94.5568 1198.72 95.3452C1198.33 96.1335 1198.13 96.9787 1198.13 97.8807V99.3295C1198.13 100.565 1198.34 101.613 1198.77 102.472C1199.2 103.325 1199.8 103.974 1200.57 104.422C1201.34 104.862 1202.23 105.082 1203.24 105.082C1203.9 105.082 1204.5 104.99 1205.03 104.805C1205.57 104.614 1206.04 104.33 1206.43 103.953C1206.82 103.57 1207.12 103.094 1207.33 102.526L1209.76 103.207C1209.51 104.031 1209.08 104.756 1208.47 105.381C1207.87 105.999 1207.13 106.482 1206.24 106.83C1205.35 107.17 1204.35 107.341 1203.24 107.341ZM1218.66 107.384C1217.62 107.384 1216.68 107.188 1215.84 106.798C1214.99 106.4 1214.32 105.828 1213.82 105.082C1213.33 104.33 1213.08 103.42 1213.08 102.355C1213.08 101.418 1213.26 100.658 1213.63 100.075C1214 99.4858 1214.49 99.0241 1215.11 98.6903C1215.73 98.3565 1216.41 98.108 1217.16 97.9446C1217.91 97.7741 1218.67 97.6392 1219.43 97.5398C1220.42 97.4119 1221.23 97.3161 1221.84 97.2521C1222.47 97.1811 1222.92 97.0639 1223.21 96.9006C1223.5 96.7372 1223.65 96.4531 1223.65 96.0483V95.9631C1223.65 94.9119 1223.36 94.0952 1222.78 93.5128C1222.21 92.9304 1221.35 92.6392 1220.19 92.6392C1218.99 92.6392 1218.05 92.902 1217.37 93.4276C1216.69 93.9531 1216.21 94.5142 1215.93 95.1108L1213.55 94.2585C1213.97 93.2642 1214.54 92.4901 1215.25 91.9361C1215.97 91.375 1216.75 90.9844 1217.59 90.7642C1218.45 90.5369 1219.28 90.4233 1220.11 90.4233C1220.63 90.4233 1221.24 90.4872 1221.92 90.6151C1222.61 90.7358 1223.27 90.9879 1223.91 91.3714C1224.56 91.755 1225.09 92.3338 1225.52 93.108C1225.95 93.8821 1226.16 94.919 1226.16 96.2188V107H1223.65V104.784H1223.52C1223.35 105.139 1223.06 105.519 1222.67 105.924C1222.27 106.329 1221.74 106.673 1221.08 106.957C1220.42 107.241 1219.61 107.384 1218.66 107.384ZM1219.04 105.125C1220.04 105.125 1220.88 104.93 1221.56 104.539C1222.25 104.148 1222.76 103.644 1223.11 103.026C1223.47 102.408 1223.65 101.759 1223.65 101.077V98.7756C1223.54 98.9034 1223.3 99.0206 1222.94 99.1271C1222.59 99.2266 1222.18 99.3153 1221.71 99.3935C1221.24 99.4645 1220.79 99.5284 1220.35 99.5852C1219.92 99.6349 1219.57 99.6776 1219.3 99.7131C1218.65 99.7983 1218.03 99.9368 1217.47 100.129C1216.91 100.313 1216.45 100.594 1216.1 100.97C1215.76 101.339 1215.59 101.844 1215.59 102.483C1215.59 103.357 1215.91 104.017 1216.56 104.464C1217.21 104.905 1218.04 105.125 1219.04 105.125ZM1236.93 107.341C1235.56 107.341 1234.36 106.996 1233.32 106.308C1232.27 105.612 1231.46 104.631 1230.87 103.367C1230.28 102.096 1229.98 100.594 1229.98 98.8608C1229.98 97.142 1230.28 95.6506 1230.87 94.3864C1231.46 93.1222 1232.28 92.1456 1233.33 91.4567C1234.38 90.7678 1235.59 90.4233 1236.97 90.4233C1238.04 90.4233 1238.88 90.6009 1239.49 90.956C1240.12 91.304 1240.6 91.7017 1240.92 92.1491C1241.26 92.5895 1241.52 92.9517 1241.7 93.2358H1241.91V85.1818H1244.43V107H1242V104.486H1241.7C1241.52 104.784 1241.25 105.161 1240.91 105.615C1240.57 106.062 1240.08 106.464 1239.45 106.819C1238.82 107.167 1237.98 107.341 1236.93 107.341ZM1237.27 105.082C1238.28 105.082 1239.13 104.82 1239.83 104.294C1240.52 103.761 1241.05 103.026 1241.41 102.089C1241.77 101.144 1241.96 100.054 1241.96 98.8182C1241.96 97.5966 1241.78 96.5277 1241.42 95.6115C1241.07 94.6882 1240.54 93.9709 1239.85 93.4595C1239.15 92.9411 1238.29 92.6818 1237.27 92.6818C1236.2 92.6818 1235.32 92.9553 1234.6 93.5021C1233.9 94.0419 1233.37 94.777 1233.02 95.7074C1232.67 96.6307 1232.5 97.6676 1232.5 98.8182C1232.5 99.983 1232.67 101.041 1233.03 101.993C1233.39 102.937 1233.92 103.69 1234.63 104.251C1235.34 104.805 1236.22 105.082 1237.27 105.082ZM1251.6 85.1818V87.0994C1251.6 87.6818 1251.49 88.3033 1251.28 88.9638C1251.07 89.6172 1250.77 90.2528 1250.36 90.8707C1249.96 91.4815 1249.48 92.0142 1248.91 92.4688L1247.55 91.3608C1248 90.7216 1248.38 90.0575 1248.71 89.3686C1249.04 88.6726 1249.21 87.9304 1249.21 87.142V85.1818H1251.6ZM1257.05 85.1818V87.0994C1257.05 87.6818 1256.95 88.3033 1256.73 88.9638C1256.53 89.6172 1256.22 90.2528 1255.82 90.8707C1255.42 91.4815 1254.94 92.0142 1254.37 92.4688L1253 91.3608C1253.45 90.7216 1253.84 90.0575 1254.16 89.3686C1254.5 88.6726 1254.67 87.9304 1254.67 87.142V85.1818H1257.05ZM1272.37 86H1280.83V88.01H1272.37V86ZM1272.37 92.06H1280.83V94.13H1272.37V92.06ZM1266.91 98.54H1268.86V100.34C1268.86 103.94 1266.64 107.54 1262.74 109.04L1261.48 107.18C1264.9 105.92 1266.91 102.98 1266.91 100.34V98.54ZM1267.48 98.54H1269.34V100.34C1269.34 103.1 1270.93 106.07 1274.2 107.39L1273.15 109.28C1269.22 107.75 1267.48 103.97 1267.48 100.34V98.54ZM1276.96 98.54H1278.79V100.34C1278.79 103.55 1277.02 107.63 1273.15 109.28L1272.07 107.39C1275.31 105.89 1276.96 102.71 1276.96 100.34V98.54ZM1277.44 98.54H1279.39V100.34C1279.39 103.19 1281.37 106.01 1284.85 107.18L1283.56 109.04C1279.63 107.6 1277.44 104.12 1277.44 100.34V98.54ZM1267.39 83.69C1271.38 83.69 1274.35 86.33 1274.35 90.08C1274.35 93.86 1271.38 96.5 1267.39 96.5C1263.4 96.5 1260.46 93.86 1260.46 90.08C1260.46 86.33 1263.4 83.69 1267.39 83.69ZM1267.39 85.79C1264.75 85.79 1262.8 87.56 1262.8 90.08C1262.8 92.6 1264.75 94.4 1267.39 94.4C1270.03 94.4 1271.95 92.6 1271.95 90.08C1271.95 87.56 1270.03 85.79 1267.39 85.79ZM1279.81 82.22H1282.3V97.67H1279.81V82.22ZM1290.69 98.48H1293.15V101.63H1306.41V98.48H1308.9V108.98H1290.69V98.48ZM1293.15 103.55V106.97H1306.41V103.55H1293.15ZM1287.57 94.58H1312.08V96.59H1287.57V94.58ZM1298.58 82.52H1300.71V83.72C1300.71 88.43 1295.46 91.82 1289.88 92.66L1288.98 90.71C1293.87 90.05 1298.58 87.14 1298.58 83.72V82.52ZM1298.97 82.52H1301.1V83.72C1301.1 87.08 1305.87 90.05 1310.7 90.71L1309.77 92.66C1304.25 91.82 1298.97 88.37 1298.97 83.72V82.52ZM1334.91 82.22H1337.4V109.34H1334.91V82.22ZM1316.91 84.86H1319.37V101.66H1316.91V84.86ZM1316.91 100.19H1319.13C1323.24 100.19 1327.53 99.89 1332.12 98.93L1332.42 101.06C1327.71 102.02 1323.42 102.35 1319.13 102.35H1316.91V100.19ZM1361.13 82.19H1363.65V109.37H1361.13V82.19ZM1363.05 92.9H1368.09V95H1363.05V92.9ZM1343.94 100.52H1346.07C1351.08 100.52 1354.59 100.34 1358.64 99.59L1358.91 101.69C1354.74 102.47 1351.17 102.62 1346.07 102.62H1343.94V100.52ZM1343.94 84.83H1356.54V86.87H1346.4V101.45H1343.94V84.83ZM1373.03 107.17C1372.5 107.17 1372.05 106.982 1371.68 106.606C1371.3 106.229 1371.11 105.778 1371.11 105.253C1371.11 104.727 1371.3 104.276 1371.68 103.9C1372.05 103.523 1372.5 103.335 1373.03 103.335C1373.56 103.335 1374.01 103.523 1374.38 103.9C1374.76 104.276 1374.95 104.727 1374.95 105.253C1374.95 105.601 1374.86 105.92 1374.68 106.212C1374.51 106.503 1374.28 106.737 1373.99 106.915C1373.7 107.085 1373.39 107.17 1373.03 107.17ZM416.789 120.56H418.829V125.42C418.829 131.66 415.469 137.45 411.029 139.7L409.499 137.66C413.519 135.74 416.789 130.55 416.789 125.42V120.56ZM417.209 120.56H419.249V125.42C419.249 130.37 422.489 135.35 426.509 137.21L425.009 139.19C420.599 137.03 417.209 131.45 417.209 125.42V120.56ZM429.329 118.19H431.819V145.37H429.329V118.19ZM455.787 118.22H458.277V134.12H455.787V118.22ZM457.587 125.06H462.297V127.16H457.587V125.06ZM448.287 119.96H450.897C450.897 126.8 446.127 131.69 438.207 133.85L437.187 131.9C444.207 129.98 448.287 126.05 448.287 121.04V119.96ZM438.387 119.96H449.667V121.97H438.387V119.96ZM440.667 135.38H458.277V145.34H455.787V137.39H440.667V135.38ZM471.505 121.13H473.545V123.32C473.545 128.3 470.545 132.47 465.985 134.12L464.725 132.14C468.805 130.7 471.505 127.19 471.505 123.32V121.13ZM471.955 121.13H473.995V123.29C473.995 126.83 476.575 130.01 480.565 131.33L479.365 133.28C474.835 131.78 471.955 127.91 471.955 123.29V121.13ZM465.475 120.23H479.965V122.27H465.475V120.23ZM483.385 118.22H485.875V134.57H483.385V118.22ZM485.185 125.09H489.895V127.19H485.185V125.09ZM477.235 135.29C482.755 135.29 486.145 137.12 486.145 140.27C486.145 143.45 482.755 145.28 477.235 145.28C471.715 145.28 468.325 143.45 468.325 140.27C468.325 137.12 471.715 135.29 477.235 135.29ZM477.235 137.3C473.215 137.3 470.755 138.38 470.755 140.27C470.755 142.19 473.215 143.33 477.235 143.33C481.255 143.33 483.715 142.19 483.715 140.27C483.715 138.38 481.255 137.3 477.235 137.3ZM498.532 120.47C502.042 120.47 504.322 124.1 504.322 129.92C504.322 135.74 502.042 139.37 498.532 139.37C495.022 139.37 492.772 135.74 492.772 129.92C492.772 124.1 495.022 120.47 498.532 120.47ZM498.532 122.78C496.402 122.78 495.052 125.54 495.052 129.92C495.052 134.3 496.402 137.06 498.532 137.06C500.662 137.06 502.012 134.3 502.012 129.92C502.012 125.54 500.662 122.78 498.532 122.78ZM513.082 118.22H515.482V145.34H513.082V118.22ZM508.792 128.96H513.982V131H508.792V128.96ZM507.082 118.79H509.452V143.99H507.082V118.79ZM539.75 118.25H542.27V138.05H539.75V118.25ZM524.84 142.7H543.08V144.74H524.84V142.7ZM524.84 136.01H527.3V143.39H524.84V136.01ZM527.72 120.11C531.77 120.11 534.77 122.87 534.77 126.8C534.77 130.7 531.77 133.49 527.72 133.49C523.67 133.49 520.64 130.7 520.64 126.8C520.64 122.87 523.67 120.11 527.72 120.11ZM527.72 122.27C525.08 122.27 523.07 124.13 523.07 126.8C523.07 129.44 525.08 131.3 527.72 131.3C530.36 131.3 532.37 129.44 532.37 126.8C532.37 124.13 530.36 122.27 527.72 122.27ZM556.428 120.17C560.658 120.17 563.688 122.78 563.688 126.56C563.688 130.37 560.658 132.98 556.428 132.98C552.198 132.98 549.138 130.37 549.138 126.56C549.138 122.78 552.198 120.17 556.428 120.17ZM556.428 122.33C553.608 122.33 551.568 124.04 551.568 126.56C551.568 129.08 553.608 130.82 556.428 130.82C559.218 130.82 561.258 129.08 561.258 126.56C561.258 124.04 559.218 122.33 556.428 122.33ZM567.228 118.19H569.718V145.37H567.228V118.19ZM548.118 139.43L547.758 137.36C552.708 137.36 559.548 137.33 565.458 136.4L565.668 138.23C559.578 139.4 552.948 139.43 548.118 139.43ZM603.383 118.22H605.903V132.77H603.383V118.22ZM588.413 134.12H590.873V137.42H603.443V134.12H605.903V144.98H588.413V134.12ZM590.873 139.4V142.97H603.443V139.4H590.873ZM591.353 119.51C595.463 119.51 598.403 122.06 598.403 125.75C598.403 129.47 595.463 132.02 591.353 132.02C587.243 132.02 584.273 129.47 584.273 125.75C584.273 122.06 587.243 119.51 591.353 119.51ZM591.353 121.58C588.653 121.58 586.703 123.29 586.703 125.75C586.703 128.21 588.653 129.92 591.353 129.92C594.053 129.92 596.003 128.21 596.003 125.75C596.003 123.29 594.053 121.58 591.353 121.58ZM617.931 121.13H619.971V123.32C619.971 128.3 616.971 132.47 612.411 134.12L611.151 132.14C615.231 130.7 617.931 127.19 617.931 123.32V121.13ZM618.381 121.13H620.421V123.29C620.421 126.83 623.001 130.01 626.991 131.33L625.791 133.28C621.261 131.78 618.381 127.91 618.381 123.29V121.13ZM611.901 120.23H626.391V122.27H611.901V120.23ZM629.811 118.22H632.301V134.57H629.811V118.22ZM631.611 125.09H636.321V127.19H631.611V125.09ZM623.661 135.29C629.181 135.29 632.571 137.12 632.571 140.27C632.571 143.45 629.181 145.28 623.661 145.28C618.141 145.28 614.751 143.45 614.751 140.27C614.751 137.12 618.141 135.29 623.661 135.29ZM623.661 137.3C619.641 137.3 617.181 138.38 617.181 140.27C617.181 142.19 619.641 143.33 623.661 143.33C627.681 143.33 630.141 142.19 630.141 140.27C630.141 138.38 627.681 137.3 623.661 137.3ZM649.848 128.75H654.978V130.82H649.848V128.75ZM659.508 118.22H661.908V145.34H659.508V118.22ZM654.138 118.79H656.508V143.99H654.138V118.79ZM644.958 120.47C648.468 120.47 650.748 124.1 650.748 129.92C650.748 135.74 648.468 139.37 644.958 139.37C641.448 139.37 639.198 135.74 639.198 129.92C639.198 124.1 641.448 120.47 644.958 120.47ZM644.958 122.78C642.828 122.78 641.478 125.54 641.478 129.92C641.478 134.3 642.828 137.06 644.958 137.06C647.118 137.06 648.468 134.3 648.468 129.92C648.468 125.54 647.118 122.78 644.958 122.78ZM679.996 127.4H687.556V129.44H679.996V127.4ZM673.456 120.56H675.496V125.39C675.496 131.48 672.286 137.3 667.996 139.61L666.406 137.63C670.396 135.65 673.456 130.43 673.456 125.39V120.56ZM673.936 120.56H675.946V125.39C675.946 130.34 679.006 135.26 682.936 137.12L681.466 139.13C677.086 136.91 673.936 131.33 673.936 125.39V120.56ZM686.326 118.19H688.786V145.37H686.326V118.19ZM709.161 121.01H711.201V123.2C711.201 128.18 708.201 132.32 703.671 133.94L702.351 131.99C706.461 130.55 709.161 127.07 709.161 123.2V121.01ZM709.611 121.01H711.651V123.17C711.651 126.77 714.261 130.1 718.251 131.45L716.961 133.4C712.491 131.84 709.611 127.85 709.611 123.17V121.01ZM703.131 120.11H717.621V122.15H703.131V120.11ZM721.041 118.22H723.531V134.54H721.041V118.22ZM722.841 125.36H727.551V127.43H722.841V125.36ZM705.921 135.98H723.531V145.34H721.041V138.05H705.921V135.98ZM741.109 132.62H743.569V137.3H741.109V132.62ZM730.069 131.3H754.579V133.34H730.069V131.3ZM732.349 119.06H752.269V121.1H732.349V119.06ZM732.469 126.77H752.149V128.81H732.469V126.77ZM736.459 119.96H738.949V128.09H736.459V119.96ZM745.699 119.96H748.159V128.09H745.699V119.96ZM733.069 136.49H751.579V144.98H733.069V136.49ZM749.149 138.47H735.529V142.97H749.149V138.47ZM769.936 118.67C775.906 118.67 779.476 120.35 779.476 123.38C779.476 126.41 775.906 128.09 769.936 128.09C763.936 128.09 760.396 126.41 760.396 123.38C760.396 120.35 763.936 118.67 769.936 118.67ZM769.936 120.56C765.496 120.56 762.946 121.58 762.946 123.38C762.946 125.18 765.496 126.2 769.936 126.2C774.346 126.2 776.896 125.18 776.896 123.38C776.896 121.58 774.346 120.56 769.936 120.56ZM757.666 129.89H782.176V131.9H757.666V129.89ZM760.636 134.21H779.056V140.33H763.156V143.63H760.696V138.53H776.596V136.13H760.636V134.21ZM760.696 143.09H779.866V145.04H760.696V143.09ZM812.271 118.22H814.761V133.58H812.271V118.22ZM814.071 124.82H818.781V126.89H814.071V124.82ZM804.771 119.96H807.411C807.411 126.8 802.641 131.72 794.661 133.88L793.701 131.9C800.721 129.98 804.771 126.05 804.771 121.07V119.96ZM794.871 119.96H806.151V121.97H794.871V119.96ZM797.691 134.87H814.761V144.98H797.691V134.87ZM812.301 136.88H800.151V142.94H812.301V136.88ZM827.899 119.63H829.969V122.39C829.969 127.61 827.029 131.93 822.499 133.7L821.179 131.69C825.259 130.19 827.899 126.53 827.899 122.39V119.63ZM828.349 119.63H830.389V122.57C830.389 126.23 833.089 129.62 836.989 130.97L835.669 132.92C831.319 131.3 828.349 127.28 828.349 122.57V119.63ZM839.869 118.22H842.359V134.66H839.869V118.22ZM841.669 125.21H846.379V127.31H841.669V125.21ZM833.719 135.41C839.269 135.41 842.629 137.24 842.629 140.36C842.629 143.48 839.269 145.28 833.719 145.28C828.169 145.28 824.809 143.48 824.809 140.36C824.809 137.24 828.169 135.41 833.719 135.41ZM833.719 137.39C829.699 137.39 827.239 138.47 827.239 140.36C827.239 142.25 829.699 143.33 833.719 143.33C837.739 143.33 840.199 142.25 840.199 140.36C840.199 138.47 837.739 137.39 833.719 137.39ZM848.867 122.84H862.307V124.88H848.867V122.84ZM855.587 126.68C858.977 126.68 861.437 129.23 861.437 132.89C861.437 136.52 858.977 139.07 855.587 139.07C852.227 139.07 849.767 136.52 849.767 132.89C849.767 129.23 852.227 126.68 855.587 126.68ZM855.587 128.81C853.517 128.81 852.017 130.49 852.017 132.89C852.017 135.29 853.517 136.97 855.587 136.97C857.687 136.97 859.217 135.29 859.217 132.89C859.217 130.49 857.687 128.81 855.587 128.81ZM869.477 118.22H871.877V145.34H869.477V118.22ZM865.157 129.62H870.287V131.69H865.157V129.62ZM863.687 118.82H866.027V144.02H863.687V118.82ZM854.387 119H856.847V124.1H854.387V119ZM876.524 139.82H901.094V141.89H876.524V139.82ZM887.504 133.34H889.994V140.42H887.504V133.34ZM879.404 120.14H881.864V124.97H895.694V120.14H898.154V134H879.404V120.14ZM881.864 126.98V131.96H895.694V126.98H881.864ZM923.832 118.22H926.322V145.34H923.832V118.22ZM905.832 120.86H908.292V137.66H905.832V120.86ZM905.832 136.19H908.052C912.162 136.19 916.452 135.89 921.042 134.93L921.342 137.06C916.632 138.02 912.342 138.35 908.052 138.35H905.832V136.19ZM947.387 120.29C951.317 120.29 954.137 123.98 954.137 129.74C954.137 135.53 951.317 139.22 947.387 139.22C943.427 139.22 940.637 135.53 940.637 129.74C940.637 123.98 943.427 120.29 947.387 120.29ZM947.387 122.54C944.777 122.54 943.007 125.36 943.007 129.74C943.007 134.15 944.777 137.03 947.387 137.03C949.997 137.03 951.767 134.15 951.767 129.74C951.767 125.36 949.997 122.54 947.387 122.54ZM960.017 118.19H962.477V145.37H960.017V118.19ZM953.327 128.54H961.097V130.58H953.327V128.54ZM968.565 136.31H969.735C971.355 136.31 973.245 136.28 975.375 135.74L975.675 137.81C973.365 138.35 971.505 138.38 969.735 138.38H968.565V136.31ZM968.565 120.95H975.255V122.99H971.025V137.27H968.565V120.95ZM976.725 136.31H978.105C980.805 136.31 982.815 136.22 985.155 135.65L985.395 137.72C982.935 138.32 980.925 138.38 978.105 138.38H976.725V136.31ZM976.725 120.95H984.075V122.99H979.185V137.3H976.725V120.95ZM987.855 118.22H990.345V145.34H987.855V118.22ZM982.725 128.12H988.755V130.19H982.725V128.12ZM1009.81 121.46H1015.93V123.5H1009.81V121.46ZM1009.81 126.8H1015.93V128.81H1009.81V126.8ZM1015.15 118.22H1017.64V134.12H1015.15V118.22ZM1002.1 119.18H1004.14V122C1004.14 127.34 1001.26 131.75 996.733 133.55L995.383 131.6C999.493 130.04 1002.1 126.26 1002.1 122V119.18ZM1002.52 119.18H1004.53V122C1004.53 125.93 1007.17 129.62 1011.1 131.15L1009.72 133.13C1005.4 131.33 1002.52 127.01 1002.52 122V119.18ZM1002.25 135.11H1004.2V136.31C1004.2 139.88 1001.98 143.51 998.083 145.01L996.823 143.15C1000.24 141.89 1002.25 138.95 1002.25 136.31V135.11ZM1002.82 135.11H1004.68V136.31C1004.68 139.07 1006.27 142.04 1009.54 143.36L1008.49 145.25C1004.56 143.72 1002.82 139.94 1002.82 136.31V135.11ZM1012.3 135.11H1014.13V136.31C1014.13 139.52 1012.36 143.6 1008.49 145.25L1007.41 143.36C1010.65 141.86 1012.3 138.68 1012.3 136.31V135.11ZM1012.78 135.11H1014.73V136.31C1014.73 139.16 1016.71 141.98 1020.19 143.15L1018.9 145.01C1014.97 143.57 1012.78 140.09 1012.78 136.31V135.11ZM1043.11 129.02H1048.12V131.12H1043.11V129.02ZM1041.28 118.19H1043.8V145.34H1041.28V118.19ZM1024 120.86H1026.49V137.66H1024V120.86ZM1024 136.37H1026.16C1030.18 136.37 1034.29 136.1 1038.76 135.17L1039.06 137.24C1034.44 138.2 1030.27 138.47 1026.16 138.47H1024V136.37ZM1056.55 132.17H1059.01V140.3H1056.55V132.17ZM1066.57 132.17H1069.06V140.3H1066.57V132.17ZM1050.55 139.82H1075.12V141.89H1050.55V139.82ZM1062.79 119.93C1068.52 119.93 1072.63 122.66 1072.63 126.92C1072.63 131.15 1068.52 133.88 1062.79 133.88C1057.03 133.88 1052.92 131.15 1052.92 126.92C1052.92 122.66 1057.03 119.93 1062.79 119.93ZM1062.79 121.91C1058.44 121.91 1055.32 123.89 1055.32 126.92C1055.32 129.92 1058.44 131.9 1062.79 131.9C1067.14 131.9 1070.23 129.92 1070.23 126.92C1070.23 123.89 1067.14 121.91 1062.79 121.91ZM1082.23 136.864V136.736C1082.24 135.379 1082.38 134.3 1082.65 133.497C1082.92 132.695 1083.31 132.045 1083.8 131.548C1084.3 131.05 1084.9 130.592 1085.59 130.173C1086.01 129.918 1086.39 129.616 1086.72 129.268C1087.06 128.913 1087.32 128.504 1087.51 128.043C1087.71 127.581 1087.81 127.07 1087.81 126.509C1087.81 125.812 1087.65 125.209 1087.32 124.697C1086.99 124.186 1086.56 123.792 1086.01 123.515C1085.46 123.238 1084.86 123.099 1084.19 123.099C1083.61 123.099 1083.04 123.22 1082.5 123.462C1081.97 123.703 1081.51 124.083 1081.15 124.602C1080.79 125.12 1080.58 125.798 1080.52 126.636H1077.84C1077.9 125.429 1078.21 124.396 1078.78 123.536C1079.35 122.677 1080.11 122.02 1081.05 121.565C1081.99 121.111 1083.04 120.884 1084.19 120.884C1085.44 120.884 1086.52 121.132 1087.45 121.629C1088.38 122.126 1089.1 122.808 1089.6 123.675C1090.11 124.541 1090.37 125.528 1090.37 126.636C1090.37 127.418 1090.25 128.124 1090 128.756C1089.77 129.388 1089.43 129.953 1088.98 130.45C1088.54 130.947 1088.01 131.388 1087.38 131.771C1086.76 132.162 1086.26 132.574 1085.88 133.007C1085.51 133.433 1085.23 133.941 1085.06 134.531C1084.89 135.12 1084.8 135.855 1084.78 136.736V136.864H1082.23ZM1083.59 143.17C1083.07 143.17 1082.61 142.982 1082.24 142.606C1081.86 142.229 1081.67 141.778 1081.67 141.253C1081.67 140.727 1081.86 140.276 1082.24 139.9C1082.61 139.523 1083.07 139.335 1083.59 139.335C1084.12 139.335 1084.57 139.523 1084.94 139.9C1085.32 140.276 1085.51 140.727 1085.51 141.253C1085.51 141.601 1085.42 141.92 1085.24 142.212C1085.07 142.503 1084.84 142.737 1084.55 142.915C1084.27 143.085 1083.95 143.17 1083.59 143.17ZM116.362 157.1H133.822V159.11H116.362V157.1ZM113.722 175.31H138.232V177.38H113.722V175.31ZM132.502 157.1H134.932V159.8C134.932 163.28 134.932 167.15 133.912 173L131.422 172.76C132.502 167.21 132.502 163.16 132.502 159.8V157.1ZM141.319 165.53H165.829V167.57H141.319V165.53ZM144.559 161.33H162.919V163.34H144.559V161.33ZM144.559 155.09H162.619V157.13H147.019V162.95H144.559V155.09ZM144.259 169.91H162.679V176.3H146.779V179.72H144.319V174.44H160.219V171.86H144.259V169.91ZM144.319 179.06H163.489V181.04H144.319V179.06ZM179.897 164.75H185.027V166.82H179.897V164.75ZM189.557 154.22H191.957V181.34H189.557V154.22ZM184.187 154.79H186.557V179.99H184.187V154.79ZM175.007 156.47C178.517 156.47 180.797 160.1 180.797 165.92C180.797 171.74 178.517 175.37 175.007 175.37C171.497 175.37 169.247 171.74 169.247 165.92C169.247 160.1 171.497 156.47 175.007 156.47ZM175.007 158.78C172.877 158.78 171.527 161.54 171.527 165.92C171.527 170.3 172.877 173.06 175.007 173.06C177.167 173.06 178.517 170.3 178.517 165.92C178.517 161.54 177.167 158.78 175.007 158.78ZM217.155 154.22H219.555V181.34H217.155V154.22ZM205.395 165.29H212.235V167.3H205.395V165.29ZM211.515 154.91H213.855V179.96H211.515V154.91ZM205.725 157.64H208.125C208.125 164.75 205.275 171.14 197.955 175.49L196.485 173.72C202.875 169.88 205.725 164.48 205.725 158.09V157.64ZM197.685 157.64H206.655V159.68H197.685V157.64ZM239.21 157.01H241.25V159.2C241.25 164.18 238.25 168.32 233.72 169.94L232.4 167.99C236.51 166.55 239.21 163.07 239.21 159.2V157.01ZM239.66 157.01H241.7V159.17C241.7 162.77 244.31 166.1 248.3 167.45L247.01 169.4C242.54 167.84 239.66 163.85 239.66 159.17V157.01ZM233.18 156.11H247.67V158.15H233.18V156.11ZM251.09 154.22H253.58V170.54H251.09V154.22ZM252.89 161.36H257.6V163.43H252.89V161.36ZM235.97 171.98H253.58V181.34H251.09V174.05H235.97V171.98ZM271.157 168.62H273.617V173.3H271.157V168.62ZM260.117 167.3H284.627V169.34H260.117V167.3ZM262.397 155.06H282.317V157.1H262.397V155.06ZM262.517 162.77H282.197V164.81H262.517V162.77ZM266.507 155.96H268.997V164.09H266.507V155.96ZM275.747 155.96H278.207V164.09H275.747V155.96ZM263.117 172.49H281.627V180.98H263.117V172.49ZM279.197 174.47H265.577V178.97H279.197V174.47ZM299.985 154.67C305.955 154.67 309.525 156.35 309.525 159.38C309.525 162.41 305.955 164.09 299.985 164.09C293.985 164.09 290.445 162.41 290.445 159.38C290.445 156.35 293.985 154.67 299.985 154.67ZM299.985 156.56C295.545 156.56 292.995 157.58 292.995 159.38C292.995 161.18 295.545 162.2 299.985 162.2C304.395 162.2 306.945 161.18 306.945 159.38C306.945 157.58 304.395 156.56 299.985 156.56ZM287.715 165.89H312.225V167.9H287.715V165.89ZM290.685 170.21H309.105V176.33H293.205V179.63H290.745V174.53H306.645V172.13H290.685V170.21ZM290.745 179.09H309.915V181.04H290.745V179.09ZM342.32 154.22H344.81V169.58H342.32V154.22ZM344.12 160.82H348.83V162.89H344.12V160.82ZM334.82 155.96H337.46C337.46 162.8 332.69 167.72 324.71 169.88L323.75 167.9C330.77 165.98 334.82 162.05 334.82 157.07V155.96ZM324.92 155.96H336.2V157.97H324.92V155.96ZM327.74 170.87H344.81V180.98H327.74V170.87ZM342.35 172.88H330.2V178.94H342.35V172.88ZM357.948 155.63H360.018V158.39C360.018 163.61 357.078 167.93 352.548 169.7L351.228 167.69C355.308 166.19 357.948 162.53 357.948 158.39V155.63ZM358.398 155.63H360.438V158.57C360.438 162.23 363.138 165.62 367.038 166.97L365.718 168.92C361.368 167.3 358.398 163.28 358.398 158.57V155.63ZM369.918 154.22H372.408V170.66H369.918V154.22ZM371.718 161.21H376.428V163.31H371.718V161.21ZM363.768 171.41C369.318 171.41 372.678 173.24 372.678 176.36C372.678 179.48 369.318 181.28 363.768 181.28C358.218 181.28 354.858 179.48 354.858 176.36C354.858 173.24 358.218 171.41 363.768 171.41ZM363.768 173.39C359.748 173.39 357.288 174.47 357.288 176.36C357.288 178.25 359.748 179.33 363.768 179.33C367.788 179.33 370.248 178.25 370.248 176.36C370.248 174.47 367.788 173.39 363.768 173.39ZM397.336 154.22H399.826V181.34H397.336V154.22ZM399.226 165.35H404.266V167.45H399.226V165.35ZM378.826 158.54H394.816V160.58H378.826V158.54ZM386.926 162.83C390.766 162.83 393.526 165.41 393.526 169.07C393.526 172.73 390.766 175.31 386.926 175.31C383.116 175.31 380.326 172.73 380.326 169.07C380.326 165.41 383.116 162.83 386.926 162.83ZM386.926 164.9C384.466 164.9 382.696 166.61 382.696 169.07C382.696 171.5 384.466 173.24 386.926 173.24C389.386 173.24 391.156 171.5 391.156 169.07C391.156 166.61 389.386 164.9 386.926 164.9ZM385.636 154.55H388.126V159.47H385.636V154.55ZM409.873 162.35H428.293V164.39H409.873V162.35ZM406.543 168.02H431.143V170.06H406.543V168.02ZM409.873 155.21H412.333V163.37H409.873V155.21ZM409.693 178.64H428.443V180.68H409.693V178.64ZM409.693 172.76H412.153V179.18H409.693V172.76ZM462.408 154.22H464.898V172.58H462.408V154.22ZM456.588 161.87H462.918V163.91H456.588V161.87ZM453.888 156.35H456.498C456.498 163.37 451.878 168.35 444.108 170.87L443.058 168.89C449.928 166.73 453.888 162.65 453.888 157.34V156.35ZM444.348 156.35H455.658V158.39H444.348V156.35ZM454.908 170.24H457.038V171.47C457.038 176.66 452.298 180.17 446.868 181.28L445.878 179.3C450.678 178.43 454.908 175.43 454.908 171.47V170.24ZM455.268 170.24H457.398V171.47C457.398 175.37 461.568 178.37 466.398 179.24L465.348 181.22C459.948 180.14 455.268 176.63 455.268 171.47V170.24ZM470.176 168.47H494.686V170.51H470.176V168.47ZM473.356 178.7H491.986V180.74H473.356V178.7ZM473.356 172.88H475.846V179.33H473.356V172.88ZM482.446 155.12C488.236 155.12 491.986 157.16 491.986 160.55C491.986 163.91 488.236 165.95 482.446 165.95C476.626 165.95 472.906 163.91 472.906 160.55C472.906 157.16 476.626 155.12 482.446 155.12ZM482.446 157.16C478.186 157.16 475.456 158.42 475.456 160.55C475.456 162.68 478.186 163.94 482.446 163.94C486.706 163.94 489.436 162.68 489.436 160.55C489.436 158.42 486.706 157.16 482.446 157.16ZM513.381 156.56H515.421V161.42C515.421 167.66 512.061 173.45 507.621 175.7L506.091 173.66C510.111 171.74 513.381 166.55 513.381 161.42V156.56ZM513.801 156.56H515.841V161.42C515.841 166.37 519.081 171.35 523.101 173.21L521.601 175.19C517.191 173.03 513.801 167.45 513.801 161.42V156.56ZM525.921 154.19H528.411V181.37H525.921V154.19ZM552.379 154.22H554.869V170.12H552.379V154.22ZM554.179 161.06H558.889V163.16H554.179V161.06ZM544.879 155.96H547.489C547.489 162.8 542.719 167.69 534.799 169.85L533.779 167.9C540.799 165.98 544.879 162.05 544.879 157.04V155.96ZM534.979 155.96H546.259V157.97H534.979V155.96ZM537.259 171.38H554.869V181.34H552.379V173.39H537.259V171.38ZM568.337 156.98H570.377V159.17C570.377 164.12 567.317 168.35 562.787 170.03L561.497 168.05C565.547 166.61 568.337 163.01 568.337 159.17V156.98ZM568.817 156.98H570.827V159.17C570.827 162.65 573.467 166.04 577.397 167.42L576.137 169.4C571.727 167.78 568.817 163.7 568.817 159.17V156.98ZM575.927 161.27H581.957V163.34H575.927V161.27ZM562.277 156.08H576.767V158.09H562.277V156.08ZM565.637 171.92H583.727V181.34H581.237V173.96H565.637V171.92ZM581.237 154.22H583.727V170.45H581.237V154.22ZM608.744 154.25H611.264V174.05H608.744V154.25ZM593.834 178.7H612.074V180.74H593.834V178.7ZM593.834 172.01H596.294V179.39H593.834V172.01ZM596.714 156.11C600.764 156.11 603.764 158.87 603.764 162.8C603.764 166.7 600.764 169.49 596.714 169.49C592.664 169.49 589.634 166.7 589.634 162.8C589.634 158.87 592.664 156.11 596.714 156.11ZM596.714 158.27C594.074 158.27 592.064 160.13 592.064 162.8C592.064 165.44 594.074 167.3 596.714 167.3C599.354 167.3 601.364 165.44 601.364 162.8C601.364 160.13 599.354 158.27 596.714 158.27ZM644.869 154.22H647.359V172.58H644.869V154.22ZM639.049 161.87H645.379V163.91H639.049V161.87ZM636.349 156.35H638.959C638.959 163.37 634.339 168.35 626.569 170.87L625.519 168.89C632.389 166.73 636.349 162.65 636.349 157.34V156.35ZM626.809 156.35H638.119V158.39H626.809V156.35ZM637.369 170.24H639.499V171.47C639.499 176.66 634.759 180.17 629.329 181.28L628.339 179.3C633.139 178.43 637.369 175.43 637.369 171.47V170.24ZM637.729 170.24H639.859V171.47C639.859 175.37 644.029 178.37 648.859 179.24L647.809 181.22C642.409 180.14 637.729 176.63 637.729 171.47V170.24ZM664.907 154.67C670.877 154.67 674.447 156.35 674.447 159.38C674.447 162.41 670.877 164.09 664.907 164.09C658.907 164.09 655.367 162.41 655.367 159.38C655.367 156.35 658.907 154.67 664.907 154.67ZM664.907 156.56C660.467 156.56 657.917 157.58 657.917 159.38C657.917 161.18 660.467 162.2 664.907 162.2C669.317 162.2 671.867 161.18 671.867 159.38C671.867 157.58 669.317 156.56 664.907 156.56ZM652.637 165.89H677.147V167.9H652.637V165.89ZM655.607 170.21H674.027V176.33H658.127V179.63H655.667V174.53H671.567V172.13H655.607V170.21ZM655.667 179.09H674.837V181.04H655.667V179.09ZM696.622 170.03H699.142V180.5H696.622V170.03ZM708.712 154.22H711.202V181.37H708.712V154.22ZM688.852 171.29L688.492 169.22C694.012 169.22 700.852 169.19 707.062 168.47L707.212 170.33C700.852 171.29 694.192 171.32 688.852 171.29ZM698.632 163.91H705.982V165.92H698.632V163.91ZM698.632 156.2H705.772V158.24H701.092V164.81H698.632V156.2ZM690.232 156.2H697.222V158.24H692.692V164.93H690.232V156.2ZM690.232 163.91H691.462C693.292 163.91 695.212 163.88 697.492 163.34L697.732 165.35C695.302 165.89 693.382 165.92 691.462 165.92H690.232V163.91ZM723.53 156.29C727.46 156.29 730.28 159.98 730.28 165.74C730.28 171.53 727.46 175.22 723.53 175.22C719.57 175.22 716.78 171.53 716.78 165.74C716.78 159.98 719.57 156.29 723.53 156.29ZM723.53 158.54C720.92 158.54 719.15 161.36 719.15 165.74C719.15 170.15 720.92 173.03 723.53 173.03C726.14 173.03 727.91 170.15 727.91 165.74C727.91 161.36 726.14 158.54 723.53 158.54ZM736.16 154.19H738.62V181.37H736.16V154.19ZM729.47 164.54H737.24V166.58H729.47V164.54ZM748.727 171.17H766.187V180.98H748.727V171.17ZM763.757 173.15H751.157V178.97H763.757V173.15ZM745.457 155.84H747.947V167.09H745.457V155.84ZM745.457 166.01H747.527C751.877 166.01 755.537 165.77 759.557 164.93L759.857 167.03C755.717 167.87 751.967 168.14 747.527 168.14H745.457V166.01ZM763.697 154.22H766.187V169.82H763.697V154.22ZM756.047 159.29H764.327V161.33H756.047V159.29ZM778.725 156.29C782.655 156.29 785.475 159.98 785.475 165.74C785.475 171.53 782.655 175.22 778.725 175.22C774.765 175.22 771.975 171.53 771.975 165.74C771.975 159.98 774.765 156.29 778.725 156.29ZM778.725 158.54C776.115 158.54 774.345 161.36 774.345 165.74C774.345 170.15 776.115 173.03 778.725 173.03C781.335 173.03 783.105 170.15 783.105 165.74C783.105 161.36 781.335 158.54 778.725 158.54ZM791.355 154.19H793.815V181.37H791.355V154.19ZM784.665 164.54H792.435V166.58H784.665V164.54ZM825.86 154.19H828.38V181.37H825.86V154.19ZM827.78 164.9H832.82V167H827.78V164.9ZM808.67 172.52H810.8C815.81 172.52 819.32 172.34 823.37 171.59L823.64 173.69C819.47 174.47 815.9 174.62 810.8 174.62H808.67V172.52ZM808.67 156.83H821.27V158.87H811.13V173.45H808.67V156.83ZM855.408 158.27H860.118V160.34H855.408V158.27ZM855.408 164.03H860.118V166.1H855.408V164.03ZM842.688 155.81C846.768 155.81 849.768 158.45 849.768 162.23C849.768 165.98 846.768 168.59 842.688 168.59C838.608 168.59 835.608 165.98 835.608 162.23C835.608 158.45 838.608 155.81 842.688 155.81ZM842.688 157.91C839.988 157.91 838.038 159.68 838.038 162.23C838.038 164.78 839.988 166.52 842.688 166.52C845.388 166.52 847.338 164.78 847.338 162.23C847.338 159.68 845.388 157.91 842.688 157.91ZM853.668 154.22H856.158V170.27H853.668V154.22ZM847.518 171.14C853.038 171.14 856.428 173.03 856.428 176.21C856.428 179.42 853.038 181.28 847.518 181.28C841.998 181.28 838.608 179.42 838.608 176.21C838.608 173.03 841.998 171.14 847.518 171.14ZM847.518 173.15C843.498 173.15 841.038 174.26 841.038 176.21C841.038 178.16 843.498 179.3 847.518 179.3C851.538 179.3 853.998 178.16 853.998 176.21C853.998 174.26 851.538 173.15 847.518 173.15ZM881.266 154.25H883.756V174.59H881.266V154.25ZM882.976 163.13H887.776V165.23H882.976V163.13ZM862.786 157.52H878.806V159.53H862.786V157.52ZM870.796 161.03C874.636 161.03 877.276 163.04 877.276 166.1C877.276 169.13 874.636 171.14 870.796 171.14C866.926 171.14 864.286 169.13 864.286 166.1C864.286 163.04 866.926 161.03 870.796 161.03ZM870.796 162.98C868.336 162.98 866.656 164.21 866.656 166.1C866.656 167.96 868.336 169.19 870.796 169.19C873.226 169.19 874.906 167.96 874.906 166.1C874.906 164.21 873.226 162.98 870.796 162.98ZM869.536 154.22H872.026V158.57H869.536V154.22ZM866.866 178.7H884.986V180.74H866.866V178.7ZM866.866 172.97H869.356V179.57H866.866V172.97ZM917.301 154.22H919.791V169.58H917.301V154.22ZM919.101 160.82H923.811V162.89H919.101V160.82ZM909.801 155.96H912.441C912.441 162.8 907.671 167.72 899.691 169.88L898.731 167.9C905.751 165.98 909.801 162.05 909.801 157.07V155.96ZM899.901 155.96H911.181V157.97H899.901V155.96ZM902.721 170.87H919.791V180.98H902.721V170.87ZM917.331 172.88H905.181V178.94H917.331V172.88ZM944.898 154.22H947.388V170.12H944.898V154.22ZM946.698 161.06H951.408V163.16H946.698V161.06ZM937.398 155.96H940.008C940.008 162.8 935.238 167.69 927.318 169.85L926.298 167.9C933.318 165.98 937.398 162.05 937.398 157.04V155.96ZM927.498 155.96H938.778V157.97H927.498V155.96ZM929.778 171.38H947.388V181.34H944.898V173.39H929.778V171.38ZM955.156 157.19H967.426V159.2H955.156V157.19ZM959.386 164.93H961.846V174.11H959.386V164.93ZM966.406 157.19H968.836V158.63C968.836 160.85 968.836 164.39 968.056 169.43L965.596 169.19C966.406 164.3 966.406 160.82 966.406 158.63V157.19ZM972.256 154.22H974.716V181.34H972.256V154.22ZM974.056 165.56H979.066V167.66H974.056V165.56ZM953.956 175.43L953.656 173.33C958.576 173.33 965.116 173.24 970.606 172.55L970.726 174.38C965.116 175.28 958.756 175.4 953.956 175.43ZM996.561 155.63H998.631V158.39C998.631 163.61 995.691 167.93 991.161 169.7L989.841 167.69C993.921 166.19 996.561 162.53 996.561 158.39V155.63ZM997.011 155.63H999.051V158.57C999.051 162.23 1001.75 165.62 1005.65 166.97L1004.33 168.92C999.981 167.3 997.011 163.28 997.011 158.57V155.63ZM1008.53 154.22H1011.02V170.66H1008.53V154.22ZM1010.33 161.21H1015.04V163.31H1010.33V161.21ZM1002.38 171.41C1007.93 171.41 1011.29 173.24 1011.29 176.36C1011.29 179.48 1007.93 181.28 1002.38 181.28C996.831 181.28 993.471 179.48 993.471 176.36C993.471 173.24 996.831 171.41 1002.38 171.41ZM1002.38 173.39C998.361 173.39 995.901 174.47 995.901 176.36C995.901 178.25 998.361 179.33 1002.38 179.33C1006.4 179.33 1008.86 178.25 1008.86 176.36C1008.86 174.47 1006.4 173.39 1002.38 173.39ZM1024.16 155.63H1026.23V158.39C1026.23 163.61 1023.29 167.93 1018.76 169.7L1017.44 167.69C1021.52 166.19 1024.16 162.53 1024.16 158.39V155.63ZM1024.61 155.63H1026.65V158.57C1026.65 162.23 1029.35 165.62 1033.25 166.97L1031.93 168.92C1027.58 167.3 1024.61 163.28 1024.61 158.57V155.63ZM1036.13 154.22H1038.62V170.66H1036.13V154.22ZM1037.93 161.21H1042.64V163.31H1037.93V161.21ZM1029.98 171.41C1035.53 171.41 1038.89 173.24 1038.89 176.36C1038.89 179.48 1035.53 181.28 1029.98 181.28C1024.43 181.28 1021.07 179.48 1021.07 176.36C1021.07 173.24 1024.43 171.41 1029.98 171.41ZM1029.98 173.39C1025.96 173.39 1023.5 174.47 1023.5 176.36C1023.5 178.25 1025.96 179.33 1029.98 179.33C1034 179.33 1036.46 178.25 1036.46 176.36C1036.46 174.47 1034 173.39 1029.98 173.39ZM1057.43 154.67C1063.4 154.67 1066.97 156.35 1066.97 159.38C1066.97 162.41 1063.4 164.09 1057.43 164.09C1051.43 164.09 1047.89 162.41 1047.89 159.38C1047.89 156.35 1051.43 154.67 1057.43 154.67ZM1057.43 156.56C1052.99 156.56 1050.44 157.58 1050.44 159.38C1050.44 161.18 1052.99 162.2 1057.43 162.2C1061.84 162.2 1064.39 161.18 1064.39 159.38C1064.39 157.58 1061.84 156.56 1057.43 156.56ZM1045.16 165.89H1069.67V167.9H1045.16V165.89ZM1048.13 170.21H1066.55V176.33H1050.65V179.63H1048.19V174.53H1064.09V172.13H1048.13V170.21ZM1048.19 179.09H1067.36V181.04H1048.19V179.09ZM1081.19 168.59H1105.7V170.6H1081.19V168.59ZM1092.2 165.08H1094.66V169.43H1092.2V165.08ZM1084.43 163.97H1102.82V165.92H1084.43V163.97ZM1084.43 155H1102.7V156.95H1086.89V165.02H1084.43V155ZM1086.17 159.44H1101.98V161.36H1086.17V159.44ZM1093.43 172.61C1099.34 172.61 1102.73 174.11 1102.73 176.96C1102.73 179.78 1099.34 181.28 1093.43 181.28C1087.52 181.28 1084.13 179.78 1084.13 176.96C1084.13 174.11 1087.52 172.61 1093.43 172.61ZM1093.43 174.5C1089.08 174.5 1086.65 175.37 1086.65 176.96C1086.65 178.58 1089.08 179.42 1093.43 179.42C1097.78 179.42 1100.21 178.58 1100.21 176.96C1100.21 175.37 1097.78 174.5 1093.43 174.5ZM1127.36 154.25H1129.85V174.59H1127.36V154.25ZM1129.07 163.13H1133.87V165.23H1129.07V163.13ZM1108.88 157.52H1124.9V159.53H1108.88V157.52ZM1116.89 161.03C1120.73 161.03 1123.37 163.04 1123.37 166.1C1123.37 169.13 1120.73 171.14 1116.89 171.14C1113.02 171.14 1110.38 169.13 1110.38 166.1C1110.38 163.04 1113.02 161.03 1116.89 161.03ZM1116.89 162.98C1114.43 162.98 1112.75 164.21 1112.75 166.1C1112.75 167.96 1114.43 169.19 1116.89 169.19C1119.32 169.19 1121 167.96 1121 166.1C1121 164.21 1119.32 162.98 1116.89 162.98ZM1115.63 154.22H1118.12V158.57H1115.63V154.22ZM1112.96 178.7H1131.08V180.74H1112.96V178.7ZM1112.96 172.97H1115.45V179.57H1112.96V172.97ZM1157.81 159.2H1165.07V161.24H1157.81V159.2ZM1157.57 164.84H1164.89V166.88H1157.57V164.84ZM1164.65 154.22H1167.14V170.48H1164.65V154.22ZM1156.16 156.26H1158.83C1158.83 163.25 1154 168.14 1146.2 170.48L1145.18 168.47C1152.11 166.46 1156.16 162.47 1156.16 157.34V156.26ZM1146.59 156.26H1157.87V158.3H1146.59V156.26ZM1158.32 170.78C1163.81 170.78 1167.29 172.73 1167.29 176C1167.29 179.27 1163.81 181.22 1158.32 181.22C1152.83 181.22 1149.35 179.27 1149.35 176C1149.35 172.73 1152.83 170.78 1158.32 170.78ZM1158.32 172.73C1154.36 172.73 1151.81 173.96 1151.81 176C1151.81 178.04 1154.36 179.24 1158.32 179.24C1162.31 179.24 1164.86 178.04 1164.86 176C1164.86 173.96 1162.31 172.73 1158.32 172.73ZM1192.25 154.22H1194.74V170.63H1192.25V154.22ZM1187.75 162.44H1193.36V164.51H1187.75V162.44ZM1177.16 172.07H1194.74V180.98H1177.16V172.07ZM1192.31 174.08H1179.59V178.97H1192.31V174.08ZM1172.48 157.04H1188.17V159.05H1172.48V157.04ZM1180.31 160.43C1183.97 160.43 1186.58 162.41 1186.58 165.29C1186.58 168.17 1183.97 170.09 1180.31 170.09C1176.65 170.09 1174.04 168.17 1174.04 165.29C1174.04 162.41 1176.65 160.43 1180.31 160.43ZM1180.31 162.35C1178.03 162.35 1176.41 163.52 1176.41 165.29C1176.41 167.03 1178.03 168.2 1180.31 168.2C1182.59 168.2 1184.21 167.03 1184.21 165.29C1184.21 163.52 1182.59 162.35 1180.31 162.35ZM1179.08 153.95H1181.57V158.48H1179.08V153.95ZM1219.73 154.19H1222.22V181.37H1219.73V154.19ZM1207.91 156.29C1211.93 156.29 1214.81 159.98 1214.81 165.74C1214.81 171.53 1211.93 175.22 1207.91 175.22C1203.92 175.22 1201.04 171.53 1201.04 165.74C1201.04 159.98 1203.92 156.29 1207.91 156.29ZM1207.91 158.54C1205.27 158.54 1203.41 161.36 1203.41 165.74C1203.41 170.15 1205.27 173.03 1207.91 173.03C1210.58 173.03 1212.41 170.15 1212.41 165.74C1212.41 161.36 1210.58 158.54 1207.91 158.54ZM1234.82 158.09H1236.83V162.5C1236.83 168.23 1233.38 173.99 1229.06 176.12L1227.62 174.14C1231.55 172.28 1234.82 167.18 1234.82 162.5V158.09ZM1235.3 158.09H1237.31V162.5C1237.31 167.09 1240.58 171.77 1244.57 173.48L1243.16 175.46C1238.78 173.42 1235.3 168.14 1235.3 162.5V158.09ZM1228.52 156.98H1243.67V159.08H1228.52V156.98ZM1247.33 154.22H1249.82V181.34H1247.33V154.22ZM1271.15 155.75C1275.2 155.75 1278.17 158.33 1278.17 162.02C1278.17 165.71 1275.2 168.29 1271.15 168.29C1267.13 168.29 1264.16 165.71 1264.16 162.02C1264.16 158.33 1267.13 155.75 1271.15 155.75ZM1271.15 157.79C1268.57 157.79 1266.59 159.56 1266.59 162.02C1266.59 164.48 1268.57 166.25 1271.15 166.25C1273.79 166.25 1275.77 164.48 1275.77 162.02C1275.77 159.56 1273.79 157.79 1271.15 157.79ZM1282.22 154.22H1284.71V167.72H1282.22V154.22ZM1283.63 160.31H1288.73V162.35H1283.63V160.31ZM1266.5 178.58H1267.79C1269.41 178.58 1272.02 178.43 1274.33 177.65L1274.75 179.66C1272.14 180.5 1269.65 180.62 1267.79 180.62H1266.5V178.58ZM1266.5 170.66H1268.93V179.3H1266.5V170.66ZM1273.76 170.84H1287.38V172.7H1273.76V170.84ZM1280.6 173.66C1283.54 173.66 1285.61 175.13 1285.61 177.47C1285.61 179.84 1283.54 181.31 1280.6 181.31C1277.63 181.31 1275.56 179.84 1275.56 177.47C1275.56 175.13 1277.63 173.66 1280.6 173.66ZM1280.6 175.43C1278.92 175.43 1277.78 176.24 1277.78 177.47C1277.78 178.73 1278.92 179.54 1280.6 179.54C1282.22 179.54 1283.39 178.73 1283.39 177.47C1283.39 176.24 1282.22 175.43 1280.6 175.43ZM1279.37 168.41H1281.8V172.28H1279.37V168.41ZM1303.52 154.67C1309.49 154.67 1313.06 156.35 1313.06 159.38C1313.06 162.41 1309.49 164.09 1303.52 164.09C1297.52 164.09 1293.98 162.41 1293.98 159.38C1293.98 156.35 1297.52 154.67 1303.52 154.67ZM1303.52 156.56C1299.08 156.56 1296.53 157.58 1296.53 159.38C1296.53 161.18 1299.08 162.2 1303.52 162.2C1307.93 162.2 1310.48 161.18 1310.48 159.38C1310.48 157.58 1307.93 156.56 1303.52 156.56ZM1291.25 165.89H1315.76V167.9H1291.25V165.89ZM1294.22 170.21H1312.64V176.33H1296.74V179.63H1294.28V174.53H1310.18V172.13H1294.22V170.21ZM1294.28 179.09H1313.45V181.04H1294.28V179.09ZM1337.69 154.22H1340.15V181.34H1337.69V154.22ZM1339.37 165.38H1344.2V167.48H1339.37V165.38ZM1324.7 157.13H1326.98C1326.98 163.67 1325.6 170 1320.74 175.25L1318.73 173.84C1323.2 169.19 1324.7 163.55 1324.7 157.4V157.13ZM1319.6 157.13H1325.63V159.2H1319.6V157.13ZM1332.08 157.13H1334.39C1334.39 163.7 1333.46 171.14 1328.48 177.05L1326.47 175.67C1331.06 170.36 1332.08 163.64 1332.08 157.37V157.13ZM1327.85 157.13H1333.1V159.2H1327.85V157.13ZM1352.48 168.17H1354.94V176.3H1352.48V168.17ZM1362.5 168.17H1364.99V176.3H1362.5V168.17ZM1346.48 175.82H1371.05V177.89H1346.48V175.82ZM1358.72 155.93C1364.45 155.93 1368.56 158.66 1368.56 162.92C1368.56 167.15 1364.45 169.88 1358.72 169.88C1352.96 169.88 1348.85 167.15 1348.85 162.92C1348.85 158.66 1352.96 155.93 1358.72 155.93ZM1358.72 157.91C1354.37 157.91 1351.25 159.89 1351.25 162.92C1351.25 165.92 1354.37 167.9 1358.72 167.9C1363.07 167.9 1366.16 165.92 1366.16 162.92C1366.16 159.89 1363.07 157.91 1358.72 157.91ZM1378.16 172.864V172.736C1378.17 171.379 1378.31 170.3 1378.58 169.497C1378.85 168.695 1379.24 168.045 1379.73 167.548C1380.23 167.05 1380.83 166.592 1381.52 166.173C1381.94 165.918 1382.32 165.616 1382.65 165.268C1382.99 164.913 1383.25 164.504 1383.44 164.043C1383.64 163.581 1383.74 163.07 1383.74 162.509C1383.74 161.812 1383.57 161.209 1383.25 160.697C1382.92 160.186 1382.48 159.792 1381.94 159.515C1381.39 159.238 1380.78 159.099 1380.12 159.099C1379.53 159.099 1378.97 159.22 1378.43 159.462C1377.89 159.703 1377.44 160.083 1377.08 160.602C1376.72 161.12 1376.51 161.798 1376.45 162.636H1373.77C1373.82 161.429 1374.14 160.396 1374.7 159.536C1375.28 158.677 1376.04 158.02 1376.97 157.565C1377.92 157.111 1378.97 156.884 1380.12 156.884C1381.37 156.884 1382.45 157.132 1383.38 157.629C1384.31 158.126 1385.02 158.808 1385.53 159.675C1386.04 160.541 1386.29 161.528 1386.29 162.636C1386.29 163.418 1386.17 164.124 1385.93 164.756C1385.7 165.388 1385.36 165.953 1384.91 166.45C1384.47 166.947 1383.94 167.388 1383.31 167.771C1382.69 168.162 1382.19 168.574 1381.81 169.007C1381.43 169.433 1381.16 169.941 1380.99 170.531C1380.82 171.12 1380.73 171.855 1380.71 172.736V172.864H1378.16ZM1379.52 179.17C1378.99 179.17 1378.54 178.982 1378.17 178.606C1377.79 178.229 1377.6 177.778 1377.6 177.253C1377.6 176.727 1377.79 176.276 1378.17 175.9C1378.54 175.523 1378.99 175.335 1379.52 175.335C1380.04 175.335 1380.5 175.523 1380.87 175.9C1381.25 176.276 1381.44 176.727 1381.44 177.253C1381.44 177.601 1381.35 177.92 1381.17 178.212C1381 178.503 1380.77 178.737 1380.48 178.915C1380.19 179.085 1379.87 179.17 1379.52 179.17Z" fill="black"/>
<defs>
<filter id="filter0_di_119_55" x="27.9453" y="18.875" width="1476.11" height="227.068" filterUnits="userSpaceOnUse" color-interpolation-filters="sRGB">
<feFlood flood-opacity="0" result="BackgroundImageFix"/>
<feColorMatrix in="SourceAlpha" type="matrix" values="0 0 0 0 0 0 0 0 0 0 0 0 0 0 0 0 0 0 127 0" result="hardAlpha"/>
<feOffset dy="4"/>
<feGaussianBlur stdDeviation="2"/>
<feComposite in2="hardAlpha" operator="out"/>
<feColorMatrix type="matrix" values="0 0 0 0 0 0 0 0 0 0 0 0 0 0 0 0 0 0 0.25 0"/>
<feBlend mode="normal" in2="BackgroundImageFix" result="effect1_dropShadow_119_55"/>
<feBlend mode="normal" in="SourceGraphic" in2="effect1_dropShadow_119_55" result="shape"/>
<feColorMatrix in="SourceAlpha" type="matrix" values="0 0 0 0 0 0 0 0 0 0 0 0 0 0 0 0 0 0 127 0" result="hardAlpha"/>
<feOffset dy="4"/>
<feGaussianBlur stdDeviation="2"/>
<feComposite in2="hardAlpha" operator="arithmetic" k2="-1" k3="1"/>
<feColorMatrix type="matrix" values="0 0 0 0 0 0 0 0 0 0 0 0 0 0 0 0 0 0 0.25 0"/>
<feBlend mode="normal" in2="shape" result="effect2_innerShadow_119_55"/>
</filter>
<filter id="filter1_di_119_55" x="65.9648" y="32.4775" width="1398.84" height="197.716" filterUnits="userSpaceOnUse" color-interpolation-filters="sRGB">
<feFlood flood-opacity="0" result="BackgroundImageFix"/>
<feColorMatrix in="SourceAlpha" type="matrix" values="0 0 0 0 0 0 0 0 0 0 0 0 0 0 0 0 0 0 127 0" result="hardAlpha"/>
<feOffset dy="4"/>
<feGaussianBlur stdDeviation="2"/>
<feComposite in2="hardAlpha" operator="out"/>
<feColorMatrix type="matrix" values="0 0 0 0 0 0 0 0 0 0 0 0 0 0 0 0 0 0 0.25 0"/>
<feBlend mode="normal" in2="BackgroundImageFix" result="effect1_dropShadow_119_55"/>
<feBlend mode="normal" in="SourceGraphic" in2="effect1_dropShadow_119_55" result="shape"/>
<feColorMatrix in="SourceAlpha" type="matrix" values="0 0 0 0 0 0 0 0 0 0 0 0 0 0 0 0 0 0 127 0" result="hardAlpha"/>
<feOffset dy="4"/>
<feGaussianBlur stdDeviation="2"/>
<feComposite in2="hardAlpha" operator="arithmetic" k2="-1" k3="1"/>
<feColorMatrix type="matrix" values="0 0 0 0 0 0 0 0 0 0 0 0 0 0 0 0 0 0 0.25 0"/>
<feBlend mode="normal" in2="shape" result="effect2_innerShadow_119_55"/>
</filter>
</defs>
</svg>
